<svg width="600" height="180" viewBox="0 0 600 180" fill="none" xmlns="http://www.w3.org/2000/svg">
<rect width="600" height="180" fill="white"/>
<path d="M290.355 42.0077C289.48 42.0077 288.643 41.885 287.843 41.6397C287.043 41.3837 286.408 41.0583 285.939 40.6637L286.659 39.0477C287.107 39.3997 287.662 39.693 288.323 39.9277C288.984 40.1623 289.662 40.2797 290.355 40.2797C290.942 40.2797 291.416 40.2157 291.779 40.0877C292.142 39.9597 292.408 39.789 292.579 39.5757C292.75 39.3517 292.835 39.101 292.835 38.8237C292.835 38.4823 292.712 38.2103 292.467 38.0077C292.222 37.7943 291.902 37.629 291.507 37.5117C291.123 37.3837 290.691 37.2663 290.211 37.1597C289.742 37.053 289.267 36.9303 288.787 36.7917C288.318 36.6423 287.886 36.4557 287.491 36.2317C287.107 35.997 286.792 35.6877 286.547 35.3037C286.302 34.9197 286.179 34.429 286.179 33.8317C286.179 33.2237 286.339 32.669 286.659 32.1677C286.99 31.6557 287.486 31.2503 288.147 30.9517C288.819 30.6423 289.667 30.4877 290.691 30.4877C291.363 30.4877 292.03 30.573 292.691 30.7437C293.352 30.9143 293.928 31.1597 294.419 31.4797L293.763 33.0957C293.262 32.797 292.744 32.5783 292.211 32.4397C291.678 32.2903 291.166 32.2157 290.675 32.2157C290.099 32.2157 289.63 32.285 289.267 32.4237C288.915 32.5623 288.654 32.7437 288.483 32.9677C288.323 33.1917 288.243 33.4477 288.243 33.7357C288.243 34.077 288.36 34.3543 288.595 34.5677C288.84 34.7703 289.155 34.9303 289.539 35.0477C289.934 35.165 290.371 35.2823 290.851 35.3997C291.331 35.5063 291.806 35.629 292.275 35.7677C292.755 35.9063 293.187 36.0877 293.571 36.3117C293.966 36.5357 294.28 36.8397 294.515 37.2237C294.76 37.6077 294.883 38.093 294.883 38.6797C294.883 39.277 294.718 39.8317 294.387 40.3437C294.067 40.845 293.571 41.2503 292.899 41.5597C292.227 41.8583 291.379 42.0077 290.355 42.0077ZM301.601 33.2077C302.284 33.2077 302.892 33.341 303.425 33.6077C303.969 33.8743 304.396 34.285 304.705 34.8397C305.015 35.3837 305.169 36.0877 305.169 36.9517V41.8477H303.169V37.2077C303.169 36.4503 302.988 35.885 302.625 35.5117C302.273 35.1383 301.777 34.9517 301.137 34.9517C300.668 34.9517 300.252 35.0477 299.889 35.2397C299.527 35.4317 299.244 35.7197 299.041 36.1037C298.849 36.477 298.753 36.9517 298.753 37.5277V41.8477H296.753V29.9757H298.753V35.6077L298.321 34.9037C298.62 34.3597 299.052 33.9437 299.617 33.6557C300.193 33.357 300.855 33.2077 301.601 33.2077ZM312.971 41.8477V40.1197L312.859 39.7517V36.7277C312.859 36.141 312.683 35.6877 312.331 35.3677C311.979 35.037 311.445 34.8717 310.731 34.8717C310.251 34.8717 309.776 34.9463 309.307 35.0957C308.848 35.245 308.459 35.453 308.139 35.7197L307.355 34.2637C307.813 33.9117 308.357 33.6503 308.987 33.4797C309.627 33.2983 310.288 33.2077 310.971 33.2077C312.208 33.2077 313.163 33.5063 313.835 34.1037C314.517 34.6903 314.859 35.6023 314.859 36.8397V41.8477H312.971ZM310.283 41.9597C309.643 41.9597 309.083 41.853 308.603 41.6397C308.123 41.4157 307.749 41.1117 307.483 40.7277C307.227 40.333 307.099 39.8903 307.099 39.3997C307.099 38.9197 307.211 38.4877 307.435 38.1037C307.669 37.7197 308.048 37.4157 308.571 37.1917C309.093 36.9677 309.787 36.8557 310.651 36.8557H313.131V38.1837H310.795C310.112 38.1837 309.653 38.2957 309.419 38.5197C309.184 38.733 309.067 38.9997 309.067 39.3197C309.067 39.6823 309.211 39.9703 309.499 40.1837C309.787 40.397 310.187 40.5037 310.699 40.5037C311.189 40.5037 311.627 40.3917 312.011 40.1677C312.405 39.9437 312.688 39.613 312.859 39.1757L313.195 40.3757C313.003 40.877 312.656 41.2663 312.155 41.5437C311.664 41.821 311.04 41.9597 310.283 41.9597ZM321.041 41.9597C320.316 41.9597 319.676 41.8263 319.121 41.5597C318.567 41.2823 318.135 40.8663 317.825 40.3117C317.516 39.7463 317.361 39.037 317.361 38.1837V33.3037H319.361V37.9117C319.361 38.6797 319.532 39.2557 319.873 39.6397C320.225 40.013 320.721 40.1997 321.361 40.1997C321.831 40.1997 322.236 40.1037 322.577 39.9117C322.929 39.7197 323.201 39.4317 323.393 39.0477C323.596 38.6637 323.697 38.189 323.697 37.6237V33.3037H325.697V41.8477H323.793V39.5437L324.129 40.2477C323.841 40.8023 323.42 41.229 322.865 41.5277C322.311 41.8157 321.703 41.9597 321.041 41.9597ZM333.164 33.2077C333.847 33.2077 334.455 33.341 334.988 33.6077C335.532 33.8743 335.959 34.285 336.268 34.8397C336.577 35.3837 336.732 36.0877 336.732 36.9517V41.8477H334.732V37.2077C334.732 36.4503 334.551 35.885 334.188 35.5117C333.836 35.1383 333.34 34.9517 332.7 34.9517C332.231 34.9517 331.815 35.0477 331.452 35.2397C331.089 35.4317 330.807 35.7197 330.604 36.1037C330.412 36.477 330.316 36.9517 330.316 37.5277V41.8477H328.316V33.3037H330.22V35.6077L329.884 34.9037C330.183 34.3597 330.615 33.9437 331.18 33.6557C331.756 33.357 332.417 33.2077 333.164 33.2077ZM343.883 41.8477V30.6477H349.131C350.475 30.6477 351.499 30.9143 352.203 31.4477C352.907 31.9703 353.259 32.6743 353.259 33.5597C353.259 34.157 353.12 34.669 352.843 35.0957C352.566 35.5117 352.192 35.837 351.723 36.0717C351.264 36.2957 350.763 36.4077 350.219 36.4077L350.507 35.8317C351.136 35.8317 351.702 35.949 352.203 36.1837C352.704 36.4077 353.099 36.7383 353.387 37.1757C353.686 37.613 353.835 38.157 353.835 38.8077C353.835 39.7677 353.467 40.5143 352.731 41.0477C351.995 41.581 350.902 41.8477 349.451 41.8477H343.883ZM345.963 40.2157H349.323C350.102 40.2157 350.699 40.0877 351.115 39.8317C351.531 39.5757 351.739 39.165 351.739 38.5997C351.739 38.045 351.531 37.6397 351.115 37.3837C350.699 37.117 350.102 36.9837 349.323 36.9837H345.803V35.3677H348.907C349.632 35.3677 350.187 35.2397 350.571 34.9837C350.966 34.7277 351.163 34.3437 351.163 33.8317C351.163 33.309 350.966 32.9197 350.571 32.6637C350.187 32.4077 349.632 32.2797 348.907 32.2797H345.963V40.2157ZM355.863 41.8477V29.9757H357.863V41.8477H355.863ZM365.752 41.8477V40.1197L365.64 39.7517V36.7277C365.64 36.141 365.464 35.6877 365.112 35.3677C364.76 35.037 364.226 34.8717 363.512 34.8717C363.032 34.8717 362.557 34.9463 362.088 35.0957C361.629 35.245 361.24 35.453 360.92 35.7197L360.136 34.2637C360.594 33.9117 361.138 33.6503 361.768 33.4797C362.408 33.2983 363.069 33.2077 363.752 33.2077C364.989 33.2077 365.944 33.5063 366.616 34.1037C367.298 34.6903 367.64 35.6023 367.64 36.8397V41.8477H365.752ZM363.064 41.9597C362.424 41.9597 361.864 41.853 361.384 41.6397C360.904 41.4157 360.53 41.1117 360.264 40.7277C360.008 40.333 359.88 39.8903 359.88 39.3997C359.88 38.9197 359.992 38.4877 360.216 38.1037C360.45 37.7197 360.829 37.4157 361.352 37.1917C361.874 36.9677 362.568 36.8557 363.432 36.8557H365.912V38.1837H363.576C362.893 38.1837 362.434 38.2957 362.2 38.5197C361.965 38.733 361.848 38.9997 361.848 39.3197C361.848 39.6823 361.992 39.9703 362.28 40.1837C362.568 40.397 362.968 40.5037 363.48 40.5037C363.97 40.5037 364.408 40.3917 364.792 40.1677C365.186 39.9437 365.469 39.613 365.64 39.1757L365.976 40.3757C365.784 40.877 365.437 41.2663 364.936 41.5437C364.445 41.821 363.821 41.9597 363.064 41.9597ZM374.142 41.9597C373.246 41.9597 372.446 41.773 371.742 41.3997C371.049 41.0157 370.505 40.493 370.11 39.8317C369.715 39.1703 369.518 38.4183 369.518 37.5757C369.518 36.7223 369.715 35.9703 370.11 35.3197C370.505 34.6583 371.049 34.141 371.742 33.7677C372.446 33.3943 373.246 33.2077 374.142 33.2077C374.974 33.2077 375.705 33.3783 376.334 33.7197C376.974 34.0503 377.459 34.541 377.79 35.1917L376.254 36.0877C375.998 35.6823 375.683 35.3837 375.31 35.1917C374.947 34.9997 374.553 34.9037 374.126 34.9037C373.635 34.9037 373.193 35.0103 372.798 35.2237C372.403 35.437 372.094 35.7463 371.87 36.1517C371.646 36.5463 371.534 37.021 371.534 37.5757C371.534 38.1303 371.646 38.6103 371.87 39.0157C372.094 39.4103 372.403 39.7143 372.798 39.9277C373.193 40.141 373.635 40.2477 374.126 40.2477C374.553 40.2477 374.947 40.1517 375.31 39.9597C375.683 39.7677 375.998 39.469 376.254 39.0637L377.79 39.9597C377.459 40.5997 376.974 41.0957 376.334 41.4477C375.705 41.789 374.974 41.9597 374.142 41.9597ZM381.073 39.9437L381.121 37.4317L385.585 33.3037H387.985L384.193 37.1117L383.137 37.9917L381.073 39.9437ZM379.441 41.8477V29.9757H381.441V41.8477H379.441ZM385.889 41.8477L382.769 37.9917L384.033 36.3917L388.321 41.8477H385.889ZM400.319 33.2077C401.001 33.2077 401.604 33.341 402.127 33.6077C402.66 33.8743 403.076 34.285 403.375 34.8397C403.673 35.3837 403.823 36.0877 403.823 36.9517V41.8477H401.823V37.2077C401.823 36.4503 401.657 35.885 401.327 35.5117C400.996 35.1383 400.521 34.9517 399.903 34.9517C399.465 34.9517 399.076 35.0477 398.735 35.2397C398.404 35.4317 398.143 35.7143 397.951 36.0877C397.769 36.461 397.679 36.9357 397.679 37.5117V41.8477H395.679V37.2077C395.679 36.4503 395.513 35.885 395.183 35.5117C394.852 35.1383 394.377 34.9517 393.759 34.9517C393.321 34.9517 392.932 35.0477 392.591 35.2397C392.26 35.4317 391.999 35.7143 391.807 36.0877C391.625 36.461 391.535 36.9357 391.535 37.5117V41.8477H389.535V33.3037H391.439V35.5757L391.103 34.9037C391.391 34.349 391.807 33.9277 392.351 33.6397C392.905 33.3517 393.535 33.2077 394.239 33.2077C395.039 33.2077 395.732 33.405 396.319 33.7997C396.916 34.1943 397.311 34.7917 397.503 35.5917L396.719 35.3197C396.996 34.6797 397.455 34.1677 398.095 33.7837C398.735 33.3997 399.476 33.2077 400.319 33.2077ZM410.234 41.9597C409.359 41.9597 408.581 41.773 407.898 41.3997C407.215 41.0157 406.677 40.493 406.282 39.8317C405.887 39.1703 405.69 38.4183 405.69 37.5757C405.69 36.7223 405.887 35.9703 406.282 35.3197C406.677 34.6583 407.215 34.141 407.898 33.7677C408.581 33.3943 409.359 33.2077 410.234 33.2077C411.119 33.2077 411.903 33.3943 412.586 33.7677C413.279 34.141 413.818 34.653 414.202 35.3037C414.597 35.9543 414.794 36.7117 414.794 37.5757C414.794 38.4183 414.597 39.1703 414.202 39.8317C413.818 40.493 413.279 41.0157 412.586 41.3997C411.903 41.773 411.119 41.9597 410.234 41.9597ZM410.234 40.2477C410.725 40.2477 411.162 40.141 411.546 39.9277C411.93 39.7143 412.229 39.405 412.442 38.9997C412.666 38.5943 412.778 38.1197 412.778 37.5757C412.778 37.021 412.666 36.5463 412.442 36.1517C412.229 35.7463 411.93 35.437 411.546 35.2237C411.162 35.0103 410.73 34.9037 410.25 34.9037C409.759 34.9037 409.322 35.0103 408.938 35.2237C408.565 35.437 408.266 35.7463 408.042 36.1517C407.818 36.5463 407.706 37.021 407.706 37.5757C407.706 38.1197 407.818 38.5943 408.042 38.9997C408.266 39.405 408.565 39.7143 408.938 39.9277C409.322 40.141 409.754 40.2477 410.234 40.2477ZM416.707 41.8477V33.3037H418.611V35.6557L418.387 34.9677C418.643 34.3917 419.043 33.9543 419.587 33.6557C420.141 33.357 420.829 33.2077 421.651 33.2077V35.1117C421.565 35.0903 421.485 35.0797 421.411 35.0797C421.336 35.069 421.261 35.0637 421.187 35.0637C420.429 35.0637 419.827 35.2877 419.379 35.7357C418.931 36.173 418.707 36.829 418.707 37.7037V41.8477H416.707ZM427.285 41.9597C426.336 41.9597 425.504 41.773 424.789 41.3997C424.085 41.0157 423.536 40.493 423.141 39.8317C422.757 39.1703 422.565 38.4183 422.565 37.5757C422.565 36.7223 422.752 35.9703 423.125 35.3197C423.509 34.6583 424.032 34.141 424.693 33.7677C425.365 33.3943 426.128 33.2077 426.981 33.2077C427.813 33.2077 428.554 33.389 429.205 33.7517C429.856 34.1143 430.368 34.6263 430.741 35.2877C431.114 35.949 431.301 36.7277 431.301 37.6237C431.301 37.709 431.296 37.805 431.285 37.9117C431.285 38.0183 431.28 38.1197 431.269 38.2157H424.149V36.8877H430.213L429.429 37.3037C429.44 36.813 429.338 36.381 429.125 36.0077C428.912 35.6343 428.618 35.341 428.245 35.1277C427.882 34.9143 427.461 34.8077 426.981 34.8077C426.49 34.8077 426.058 34.9143 425.685 35.1277C425.322 35.341 425.034 35.6397 424.821 36.0237C424.618 36.397 424.517 36.8397 424.517 37.3517V37.6717C424.517 38.1837 424.634 38.637 424.869 39.0317C425.104 39.4263 425.434 39.7303 425.861 39.9437C426.288 40.157 426.778 40.2637 427.333 40.2637C427.813 40.2637 428.245 40.189 428.629 40.0397C429.013 39.8903 429.354 39.6557 429.653 39.3357L430.725 40.5677C430.341 41.0157 429.856 41.3623 429.269 41.6077C428.693 41.8423 428.032 41.9597 427.285 41.9597ZM286.975 58.8477V49.0477H290.965C292.01 49.0477 292.925 49.2577 293.709 49.6777C294.502 50.0883 295.118 50.6623 295.557 51.3997C295.996 52.137 296.215 52.9863 296.215 53.9477C296.215 54.909 295.996 55.7583 295.557 56.4957C295.118 57.233 294.502 57.8117 293.709 58.2317C292.925 58.6423 292.01 58.8477 290.965 58.8477H286.975ZM288.011 57.9517H290.909C291.777 57.9517 292.528 57.7837 293.163 57.4477C293.807 57.1023 294.306 56.631 294.661 56.0337C295.016 55.427 295.193 54.7317 295.193 53.9477C295.193 53.1543 295.016 52.459 294.661 51.8617C294.306 51.2643 293.807 50.7977 293.163 50.4617C292.528 50.1163 291.777 49.9437 290.909 49.9437H288.011V57.9517ZM298.331 58.8477V51.4977H299.325V58.8477H298.331ZM298.835 49.8737C298.63 49.8737 298.457 49.8037 298.317 49.6637C298.177 49.5237 298.107 49.3557 298.107 49.1597C298.107 48.9637 298.177 48.8003 298.317 48.6697C298.457 48.5297 298.63 48.4597 298.835 48.4597C299.041 48.4597 299.213 48.525 299.353 48.6557C299.493 48.7863 299.563 48.9497 299.563 49.1457C299.563 49.351 299.493 49.5237 299.353 49.6637C299.223 49.8037 299.05 49.8737 298.835 49.8737ZM302.091 58.8477V51.4977H303.043V53.4997L302.945 53.1497C303.15 52.5897 303.496 52.165 303.981 51.8757C304.466 51.577 305.068 51.4277 305.787 51.4277V52.3937C305.75 52.3937 305.712 52.3937 305.675 52.3937C305.638 52.3843 305.6 52.3797 305.563 52.3797C304.788 52.3797 304.182 52.6177 303.743 53.0937C303.304 53.5603 303.085 54.2277 303.085 55.0957V58.8477H302.091ZM310.654 58.9177C309.889 58.9177 309.217 58.759 308.638 58.4417C308.06 58.115 307.607 57.6717 307.28 57.1117C306.954 56.5423 306.79 55.8937 306.79 55.1657C306.79 54.4377 306.944 53.7937 307.252 53.2337C307.57 52.6737 307.999 52.235 308.54 51.9177C309.091 51.591 309.707 51.4277 310.388 51.4277C311.079 51.4277 311.69 51.5863 312.222 51.9037C312.764 52.2117 313.188 52.6503 313.496 53.2197C313.804 53.7797 313.958 54.4283 313.958 55.1657C313.958 55.2123 313.954 55.2637 313.944 55.3197C313.944 55.3663 313.944 55.4177 313.944 55.4737H307.546V54.7317H313.412L313.02 55.0257C313.02 54.4937 312.904 54.0223 312.67 53.6117C312.446 53.1917 312.138 52.865 311.746 52.6317C311.354 52.3983 310.902 52.2817 310.388 52.2817C309.884 52.2817 309.432 52.3983 309.03 52.6317C308.629 52.865 308.316 53.1917 308.092 53.6117C307.868 54.0317 307.756 54.5123 307.756 55.0537V55.2077C307.756 55.7677 307.878 56.2623 308.12 56.6917C308.372 57.1117 308.718 57.443 309.156 57.6857C309.604 57.919 310.113 58.0357 310.682 58.0357C311.13 58.0357 311.546 57.9563 311.928 57.7977C312.32 57.639 312.656 57.3963 312.936 57.0697L313.496 57.7137C313.17 58.1057 312.759 58.4043 312.264 58.6097C311.779 58.815 311.242 58.9177 310.654 58.9177ZM319.034 58.9177C318.306 58.9177 317.652 58.759 317.074 58.4417C316.504 58.115 316.056 57.6717 315.73 57.1117C315.403 56.5423 315.24 55.8937 315.24 55.1657C315.24 54.4283 315.403 53.7797 315.73 53.2197C316.056 52.6597 316.504 52.221 317.074 51.9037C317.652 51.5863 318.306 51.4277 319.034 51.4277C319.659 51.4277 320.224 51.549 320.728 51.7917C321.232 52.0343 321.628 52.3983 321.918 52.8837L321.176 53.3877C320.924 53.0143 320.611 52.739 320.238 52.5617C319.864 52.3843 319.458 52.2957 319.02 52.2957C318.497 52.2957 318.026 52.417 317.606 52.6597C317.186 52.893 316.854 53.2243 316.612 53.6537C316.369 54.083 316.248 54.587 316.248 55.1657C316.248 55.7443 316.369 56.2483 316.612 56.6777C316.854 57.107 317.186 57.443 317.606 57.6857C318.026 57.919 318.497 58.0357 319.02 58.0357C319.458 58.0357 319.864 57.947 320.238 57.7697C320.611 57.5923 320.924 57.3217 321.176 56.9577L321.918 57.4617C321.628 57.9377 321.232 58.3017 320.728 58.5537C320.224 58.7963 319.659 58.9177 319.034 58.9177ZM326.276 58.9177C325.586 58.9177 325.054 58.731 324.68 58.3577C324.307 57.9843 324.12 57.457 324.12 56.7757V49.8737H325.114V56.7197C325.114 57.149 325.222 57.4803 325.436 57.7137C325.66 57.947 325.978 58.0637 326.388 58.0637C326.827 58.0637 327.191 57.9377 327.48 57.6857L327.83 58.3997C327.634 58.577 327.396 58.7077 327.116 58.7917C326.846 58.8757 326.566 58.9177 326.276 58.9177ZM322.804 52.3237V51.4977H327.354V52.3237H322.804ZM332.376 58.9177C331.667 58.9177 331.027 58.759 330.458 58.4417C329.898 58.115 329.455 57.6717 329.128 57.1117C328.801 56.5423 328.638 55.8937 328.638 55.1657C328.638 54.4283 328.801 53.7797 329.128 53.2197C329.455 52.6597 329.898 52.221 330.458 51.9037C331.018 51.5863 331.657 51.4277 332.376 51.4277C333.104 51.4277 333.748 51.5863 334.308 51.9037C334.877 52.221 335.321 52.6597 335.638 53.2197C335.965 53.7797 336.128 54.4283 336.128 55.1657C336.128 55.8937 335.965 56.5423 335.638 57.1117C335.321 57.6717 334.877 58.115 334.308 58.4417C333.739 58.759 333.095 58.9177 332.376 58.9177ZM332.376 58.0357C332.908 58.0357 333.379 57.919 333.79 57.6857C334.201 57.443 334.523 57.107 334.756 56.6777C334.999 56.239 335.12 55.735 335.12 55.1657C335.12 54.587 334.999 54.083 334.756 53.6537C334.523 53.2243 334.201 52.893 333.79 52.6597C333.379 52.417 332.913 52.2957 332.39 52.2957C331.867 52.2957 331.401 52.417 330.99 52.6597C330.579 52.893 330.253 53.2243 330.01 53.6537C329.767 54.083 329.646 54.587 329.646 55.1657C329.646 55.735 329.767 56.239 330.01 56.6777C330.253 57.107 330.579 57.443 330.99 57.6857C331.401 57.919 331.863 58.0357 332.376 58.0357ZM338.157 58.8477V51.4977H339.109V53.4997L339.011 53.1497C339.217 52.5897 339.562 52.165 340.047 51.8757C340.533 51.577 341.135 51.4277 341.853 51.4277V52.3937C341.816 52.3937 341.779 52.3937 341.741 52.3937C341.704 52.3843 341.667 52.3797 341.629 52.3797C340.855 52.3797 340.248 52.6177 339.809 53.0937C339.371 53.5603 339.151 54.2277 339.151 55.0957V58.8477H338.157ZM289.677 92.9317C288.949 92.9317 288.249 92.815 287.577 92.5817C286.914 92.339 286.401 92.031 286.037 91.6577L286.443 90.8597C286.788 91.1957 287.25 91.4803 287.829 91.7137C288.417 91.9377 289.033 92.0497 289.677 92.0497C290.293 92.0497 290.792 91.975 291.175 91.8257C291.567 91.667 291.852 91.457 292.029 91.1957C292.216 90.9343 292.309 90.645 292.309 90.3277C292.309 89.945 292.197 89.637 291.973 89.4037C291.758 89.1703 291.474 88.9883 291.119 88.8577C290.764 88.7177 290.372 88.5963 289.943 88.4937C289.514 88.391 289.084 88.2837 288.655 88.1717C288.226 88.0503 287.829 87.8917 287.465 87.6957C287.11 87.4997 286.821 87.243 286.597 86.9257C286.382 86.599 286.275 86.1743 286.275 85.6517C286.275 85.1663 286.401 84.723 286.653 84.3217C286.914 83.911 287.311 83.5843 287.843 83.3417C288.375 83.0897 289.056 82.9637 289.887 82.9637C290.438 82.9637 290.984 83.043 291.525 83.2017C292.066 83.351 292.533 83.561 292.925 83.8317L292.575 84.6577C292.155 84.3777 291.707 84.1723 291.231 84.0417C290.764 83.911 290.312 83.8457 289.873 83.8457C289.285 83.8457 288.8 83.925 288.417 84.0837C288.034 84.2423 287.75 84.457 287.563 84.7277C287.386 84.989 287.297 85.2877 287.297 85.6237C287.297 86.0063 287.404 86.3143 287.619 86.5477C287.843 86.781 288.132 86.963 288.487 87.0937C288.851 87.2243 289.248 87.341 289.677 87.4437C290.106 87.5463 290.531 87.6583 290.951 87.7797C291.38 87.901 291.772 88.0597 292.127 88.2557C292.491 88.4423 292.78 88.6943 292.995 89.0117C293.219 89.329 293.331 89.7443 293.331 90.2577C293.331 90.7337 293.2 91.177 292.939 91.5877C292.678 91.989 292.276 92.3157 291.735 92.5677C291.203 92.8103 290.517 92.9317 289.677 92.9317ZM299.13 85.4277C299.728 85.4277 300.25 85.5443 300.698 85.7777C301.156 86.0017 301.51 86.347 301.762 86.8137C302.024 87.2803 302.154 87.8683 302.154 88.5777V92.8477H301.16V88.6757C301.16 87.901 300.964 87.3177 300.572 86.9257C300.19 86.5243 299.648 86.3237 298.948 86.3237C298.426 86.3237 297.968 86.431 297.576 86.6457C297.194 86.851 296.895 87.1543 296.68 87.5557C296.475 87.9477 296.372 88.4237 296.372 88.9837V92.8477H295.378V82.4597H296.372V87.5137L296.176 87.1357C296.41 86.6037 296.783 86.1883 297.296 85.8897C297.81 85.5817 298.421 85.4277 299.13 85.4277ZM309.445 92.8477V91.2237L309.403 90.9577V88.2417C309.403 87.6163 309.226 87.1357 308.871 86.7997C308.526 86.4637 308.008 86.2957 307.317 86.2957C306.841 86.2957 306.388 86.375 305.959 86.5337C305.53 86.6923 305.166 86.9023 304.867 87.1637L304.419 86.4217C304.792 86.1043 305.24 85.8617 305.763 85.6937C306.286 85.5163 306.836 85.4277 307.415 85.4277C308.367 85.4277 309.1 85.6657 309.613 86.1417C310.136 86.6083 310.397 87.3223 310.397 88.2837V92.8477H309.445ZM306.911 92.9177C306.36 92.9177 305.88 92.829 305.469 92.6517C305.068 92.465 304.76 92.213 304.545 91.8957C304.33 91.569 304.223 91.1957 304.223 90.7757C304.223 90.393 304.312 90.0477 304.489 89.7397C304.676 89.4223 304.974 89.1703 305.385 88.9837C305.805 88.7877 306.365 88.6897 307.065 88.6897H309.599V89.4317H307.093C306.384 89.4317 305.889 89.5577 305.609 89.8097C305.338 90.0617 305.203 90.3743 305.203 90.7477C305.203 91.1677 305.366 91.5037 305.693 91.7557C306.02 92.0077 306.477 92.1337 307.065 92.1337C307.625 92.1337 308.106 92.0077 308.507 91.7557C308.918 91.4943 309.216 91.121 309.403 90.6357L309.627 91.3217C309.44 91.807 309.114 92.1943 308.647 92.4837C308.19 92.773 307.611 92.9177 306.911 92.9177ZM316.135 92.9177C315.51 92.9177 314.964 92.801 314.497 92.5677C314.03 92.3343 313.666 91.9843 313.405 91.5177C313.153 91.051 313.027 90.4677 313.027 89.7677V85.4977H314.021V89.6557C314.021 90.4397 314.212 91.0323 314.595 91.4337C314.987 91.8257 315.533 92.0217 316.233 92.0217C316.746 92.0217 317.19 91.919 317.563 91.7137C317.946 91.499 318.235 91.191 318.431 90.7897C318.636 90.3883 318.739 89.9077 318.739 89.3477V85.4977H319.733V92.8477H318.781V90.8317L318.935 91.1957C318.702 91.737 318.338 92.1617 317.843 92.4697C317.358 92.7683 316.788 92.9177 316.135 92.9177ZM326.255 85.4277C326.853 85.4277 327.375 85.5443 327.823 85.7777C328.281 86.0017 328.635 86.347 328.887 86.8137C329.149 87.2803 329.279 87.8683 329.279 88.5777V92.8477H328.285V88.6757C328.285 87.901 328.089 87.3177 327.697 86.9257C327.315 86.5243 326.773 86.3237 326.073 86.3237C325.551 86.3237 325.093 86.431 324.701 86.6457C324.319 86.851 324.02 87.1543 323.805 87.5557C323.6 87.9477 323.497 88.4237 323.497 88.9837V92.8477H322.503V85.4977H323.455V87.5137L323.301 87.1357C323.535 86.6037 323.908 86.1883 324.421 85.8897C324.935 85.5817 325.546 85.4277 326.255 85.4277ZM337.788 95.6477C336.827 95.6477 335.949 95.489 335.156 95.1717C334.363 94.8637 333.677 94.425 333.098 93.8557C332.529 93.2957 332.085 92.6283 331.768 91.8537C331.46 91.0697 331.306 90.2157 331.306 89.2917C331.306 88.3583 331.46 87.509 331.768 86.7437C332.085 85.969 332.533 85.3017 333.112 84.7417C333.7 84.1723 334.395 83.7337 335.198 83.4257C336.001 83.1177 336.883 82.9637 337.844 82.9637C338.796 82.9637 339.664 83.113 340.448 83.4117C341.241 83.7103 341.927 84.135 342.506 84.6857C343.085 85.227 343.528 85.8757 343.836 86.6317C344.153 87.3877 344.312 88.223 344.312 89.1377C344.312 89.9217 344.219 90.5983 344.032 91.1677C343.855 91.7277 343.593 92.1617 343.248 92.4697C342.903 92.7683 342.487 92.9177 342.002 92.9177C341.526 92.9177 341.143 92.773 340.854 92.4837C340.565 92.1943 340.42 91.7883 340.42 91.2657V90.1597L340.532 89.2637L340.392 87.8637V85.7497H341.302V91.0557C341.302 91.4477 341.386 91.723 341.554 91.8817C341.722 92.0403 341.927 92.1197 342.17 92.1197C342.459 92.1197 342.711 92.003 342.926 91.7697C343.141 91.5363 343.304 91.2003 343.416 90.7617C343.537 90.3137 343.598 89.777 343.598 89.1517C343.598 88.3303 343.458 87.5837 343.178 86.9117C342.898 86.2397 342.501 85.661 341.988 85.1757C341.475 84.6903 340.868 84.3217 340.168 84.0697C339.468 83.8083 338.693 83.6777 337.844 83.6777C336.995 83.6777 336.215 83.813 335.506 84.0837C334.797 84.3543 334.185 84.7417 333.672 85.2457C333.168 85.7403 332.776 86.333 332.496 87.0237C332.216 87.705 332.076 88.461 332.076 89.2917C332.076 90.1223 332.211 90.883 332.482 91.5737C332.762 92.2643 333.154 92.857 333.658 93.3517C334.162 93.8557 334.764 94.243 335.464 94.5137C336.164 94.7937 336.939 94.9337 337.788 94.9337C338.208 94.9337 338.656 94.8823 339.132 94.7797C339.617 94.677 340.065 94.523 340.476 94.3177L340.714 95.0037C340.294 95.2183 339.818 95.377 339.286 95.4797C338.754 95.5917 338.255 95.6477 337.788 95.6477ZM337.62 92.9177C336.957 92.9177 336.365 92.7637 335.842 92.4557C335.319 92.1383 334.904 91.709 334.596 91.1677C334.297 90.617 334.148 89.9917 334.148 89.2917C334.148 88.5917 334.297 87.971 334.596 87.4297C334.904 86.8883 335.319 86.4637 335.842 86.1557C336.365 85.8477 336.957 85.6937 337.62 85.6937C338.264 85.6937 338.833 85.8383 339.328 86.1277C339.832 86.417 340.224 86.8323 340.504 87.3737C340.793 87.9057 340.938 88.545 340.938 89.2917C340.938 90.0383 340.793 90.6823 340.504 91.2237C340.224 91.765 339.837 92.185 339.342 92.4837C338.847 92.773 338.273 92.9177 337.62 92.9177ZM337.746 92.1057C338.25 92.1057 338.703 91.989 339.104 91.7557C339.515 91.5223 339.832 91.1957 340.056 90.7757C340.289 90.3463 340.406 89.8517 340.406 89.2917C340.406 88.7223 340.289 88.2323 340.056 87.8217C339.832 87.4017 339.515 87.0797 339.104 86.8557C338.703 86.6223 338.25 86.5057 337.746 86.5057C337.223 86.5057 336.761 86.6223 336.36 86.8557C335.959 87.0797 335.641 87.4017 335.408 87.8217C335.184 88.2417 335.072 88.7317 335.072 89.2917C335.072 89.8517 335.184 90.3417 335.408 90.7617C335.641 91.1817 335.959 91.513 336.36 91.7557C336.761 91.989 337.223 92.1057 337.746 92.1057ZM350.223 92.9177C349.579 92.9177 349 92.773 348.487 92.4837C347.974 92.185 347.568 91.7557 347.269 91.1957C346.97 90.6357 346.821 89.959 346.821 89.1657C346.821 88.363 346.97 87.6863 347.269 87.1357C347.577 86.5757 347.988 86.151 348.501 85.8617C349.014 85.5723 349.588 85.4277 350.223 85.4277C350.923 85.4277 351.548 85.5863 352.099 85.9037C352.659 86.2117 353.098 86.6457 353.415 87.2057C353.732 87.7657 353.891 88.419 353.891 89.1657C353.891 89.903 353.732 90.5563 353.415 91.1257C353.098 91.6857 352.659 92.1243 352.099 92.4417C351.548 92.759 350.923 92.9177 350.223 92.9177ZM346.429 92.8477V82.4597H347.423V87.6677L347.283 89.1517L347.381 90.6357V92.8477H346.429ZM350.153 92.0357C350.676 92.0357 351.142 91.919 351.553 91.6857C351.964 91.443 352.29 91.107 352.533 90.6777C352.776 90.239 352.897 89.735 352.897 89.1657C352.897 88.587 352.776 88.083 352.533 87.6537C352.29 87.2243 351.964 86.893 351.553 86.6597C351.142 86.417 350.676 86.2957 350.153 86.2957C349.63 86.2957 349.159 86.417 348.739 86.6597C348.328 86.893 348.002 87.2243 347.759 87.6537C347.526 88.083 347.409 88.587 347.409 89.1657C347.409 89.735 347.526 90.239 347.759 90.6777C348.002 91.107 348.328 91.443 348.739 91.6857C349.159 91.919 349.63 92.0357 350.153 92.0357ZM355.917 92.8477V85.4977H356.869V87.4997L356.771 87.1497C356.977 86.5897 357.322 86.165 357.807 85.8757C358.293 85.577 358.895 85.4277 359.613 85.4277V86.3937C359.576 86.3937 359.539 86.3937 359.501 86.3937C359.464 86.3843 359.427 86.3797 359.389 86.3797C358.615 86.3797 358.008 86.6177 357.569 87.0937C357.131 87.5603 356.911 88.2277 356.911 89.0957V92.8477H355.917ZM361.427 92.8477V85.4977H362.421V92.8477H361.427ZM361.931 83.8737C361.726 83.8737 361.553 83.8037 361.413 83.6637C361.273 83.5237 361.203 83.3557 361.203 83.1597C361.203 82.9637 361.273 82.8003 361.413 82.6697C361.553 82.5297 361.726 82.4597 361.931 82.4597C362.136 82.4597 362.309 82.525 362.449 82.6557C362.589 82.7863 362.659 82.9497 362.659 83.1457C362.659 83.351 362.589 83.5237 362.449 83.6637C362.318 83.8037 362.146 83.8737 361.931 83.8737ZM364.389 92.8477V92.1897L369.289 85.9877L369.499 86.3237H364.473V85.4977H370.283V86.1417L365.397 92.3577L365.145 92.0217H370.381V92.8477H364.389ZM375.14 92.9177C374.44 92.9177 373.81 92.759 373.25 92.4417C372.699 92.1243 372.265 91.6857 371.948 91.1257C371.631 90.5563 371.472 89.903 371.472 89.1657C371.472 88.419 371.631 87.7657 371.948 87.2057C372.265 86.6457 372.699 86.2117 373.25 85.9037C373.81 85.5863 374.44 85.4277 375.14 85.4277C375.784 85.4277 376.358 85.5723 376.862 85.8617C377.375 86.151 377.781 86.5757 378.08 87.1357C378.388 87.6863 378.542 88.363 378.542 89.1657C378.542 89.959 378.393 90.6357 378.094 91.1957C377.795 91.7557 377.389 92.185 376.876 92.4837C376.372 92.773 375.793 92.9177 375.14 92.9177ZM375.21 92.0357C375.733 92.0357 376.199 91.919 376.61 91.6857C377.03 91.443 377.357 91.107 377.59 90.6777C377.833 90.239 377.954 89.735 377.954 89.1657C377.954 88.587 377.833 88.083 377.59 87.6537C377.357 87.2243 377.03 86.893 376.61 86.6597C376.199 86.417 375.733 86.2957 375.21 86.2957C374.697 86.2957 374.235 86.417 373.824 86.6597C373.413 86.893 373.087 87.2243 372.844 87.6537C372.601 88.083 372.48 88.587 372.48 89.1657C372.48 89.735 372.601 90.239 372.844 90.6777C373.087 91.107 373.413 91.443 373.824 91.6857C374.235 91.919 374.697 92.0357 375.21 92.0357ZM377.982 92.8477V90.6357L378.08 89.1517L377.94 87.6677V82.4597H378.934V92.8477H377.982ZM383.676 92.9177C383.07 92.9177 382.496 92.8337 381.954 92.6657C381.413 92.4883 380.988 92.269 380.68 92.0077L381.128 91.2237C381.427 91.4477 381.81 91.6437 382.276 91.8117C382.743 91.9703 383.233 92.0497 383.746 92.0497C384.446 92.0497 384.95 91.9423 385.258 91.7277C385.566 91.5037 385.72 91.2097 385.72 90.8457C385.72 90.575 385.632 90.365 385.454 90.2157C385.286 90.057 385.062 89.9403 384.782 89.8657C384.502 89.7817 384.19 89.7117 383.844 89.6557C383.499 89.5997 383.154 89.5343 382.808 89.4597C382.472 89.385 382.164 89.2777 381.884 89.1377C381.604 88.9883 381.376 88.7877 381.198 88.5357C381.03 88.2837 380.946 87.9477 380.946 87.5277C380.946 87.1263 381.058 86.767 381.282 86.4497C381.506 86.1323 381.833 85.885 382.262 85.7077C382.701 85.521 383.233 85.4277 383.858 85.4277C384.334 85.4277 384.81 85.493 385.286 85.6237C385.762 85.745 386.154 85.9083 386.462 86.1137L386.028 86.9117C385.702 86.6877 385.352 86.529 384.978 86.4357C384.605 86.333 384.232 86.2817 383.858 86.2817C383.196 86.2817 382.706 86.3983 382.388 86.6317C382.08 86.8557 381.926 87.145 381.926 87.4997C381.926 87.7797 382.01 87.999 382.178 88.1577C382.356 88.3163 382.584 88.4423 382.864 88.5357C383.154 88.6197 383.466 88.6897 383.802 88.7457C384.148 88.8017 384.488 88.8717 384.824 88.9557C385.17 89.0303 385.482 89.1377 385.762 89.2777C386.052 89.4083 386.28 89.5997 386.448 89.8517C386.626 90.0943 386.714 90.4163 386.714 90.8177C386.714 91.247 386.593 91.6203 386.35 91.9377C386.117 92.2457 385.772 92.4883 385.314 92.6657C384.866 92.8337 384.32 92.9177 383.676 92.9177ZM388.636 92.9177C388.431 92.9177 388.254 92.843 388.104 92.6937C387.964 92.5443 387.894 92.3623 387.894 92.1477C387.894 91.9237 387.964 91.7417 388.104 91.6017C388.254 91.4617 388.431 91.3917 388.636 91.3917C388.842 91.3917 389.014 91.4617 389.154 91.6017C389.304 91.7417 389.378 91.9237 389.378 92.1477C389.378 92.3623 389.304 92.5443 389.154 92.6937C389.014 92.843 388.842 92.9177 388.636 92.9177ZM394.352 92.9177C393.624 92.9177 392.971 92.759 392.392 92.4417C391.823 92.115 391.375 91.6717 391.048 91.1117C390.721 90.5423 390.558 89.8937 390.558 89.1657C390.558 88.4283 390.721 87.7797 391.048 87.2197C391.375 86.6597 391.823 86.221 392.392 85.9037C392.971 85.5863 393.624 85.4277 394.352 85.4277C394.977 85.4277 395.542 85.549 396.046 85.7917C396.55 86.0343 396.947 86.3983 397.236 86.8837L396.494 87.3877C396.242 87.0143 395.929 86.739 395.556 86.5617C395.183 86.3843 394.777 86.2957 394.338 86.2957C393.815 86.2957 393.344 86.417 392.924 86.6597C392.504 86.893 392.173 87.2243 391.93 87.6537C391.687 88.083 391.566 88.587 391.566 89.1657C391.566 89.7443 391.687 90.2483 391.93 90.6777C392.173 91.107 392.504 91.443 392.924 91.6857C393.344 91.919 393.815 92.0357 394.338 92.0357C394.777 92.0357 395.183 91.947 395.556 91.7697C395.929 91.5923 396.242 91.3217 396.494 90.9577L397.236 91.4617C396.947 91.9377 396.55 92.3017 396.046 92.5537C395.542 92.7963 394.977 92.9177 394.352 92.9177ZM402.062 92.9177C401.352 92.9177 400.713 92.759 400.144 92.4417C399.584 92.115 399.14 91.6717 398.814 91.1117C398.487 90.5423 398.324 89.8937 398.324 89.1657C398.324 88.4283 398.487 87.7797 398.814 87.2197C399.14 86.6597 399.584 86.221 400.144 85.9037C400.704 85.5863 401.343 85.4277 402.062 85.4277C402.79 85.4277 403.434 85.5863 403.994 85.9037C404.563 86.221 405.006 86.6597 405.324 87.2197C405.65 87.7797 405.814 88.4283 405.814 89.1657C405.814 89.8937 405.65 90.5423 405.324 91.1117C405.006 91.6717 404.563 92.115 403.994 92.4417C403.424 92.759 402.78 92.9177 402.062 92.9177ZM402.062 92.0357C402.594 92.0357 403.065 91.919 403.476 91.6857C403.886 91.443 404.208 91.107 404.442 90.6777C404.684 90.239 404.806 89.735 404.806 89.1657C404.806 88.587 404.684 88.083 404.442 87.6537C404.208 87.2243 403.886 86.893 403.476 86.6597C403.065 86.417 402.598 86.2957 402.076 86.2957C401.553 86.2957 401.086 86.417 400.676 86.6597C400.265 86.893 399.938 87.2243 399.696 87.6537C399.453 88.083 399.332 88.587 399.332 89.1657C399.332 89.735 399.453 90.239 399.696 90.6777C399.938 91.107 400.265 91.443 400.676 91.6857C401.086 91.919 401.548 92.0357 402.062 92.0357ZM417.027 85.4277C417.624 85.4277 418.142 85.5443 418.581 85.7777C419.029 86.0017 419.374 86.347 419.617 86.8137C419.869 87.2803 419.995 87.8683 419.995 88.5777V92.8477H419.001V88.6757C419.001 87.901 418.814 87.3177 418.441 86.9257C418.077 86.5243 417.559 86.3237 416.887 86.3237C416.383 86.3237 415.944 86.431 415.571 86.6457C415.207 86.851 414.922 87.1543 414.717 87.5557C414.521 87.9477 414.423 88.4237 414.423 88.9837V92.8477H413.429V88.6757C413.429 87.901 413.242 87.3177 412.869 86.9257C412.496 86.5243 411.973 86.3237 411.301 86.3237C410.806 86.3237 410.372 86.431 409.999 86.6457C409.626 86.851 409.336 87.1543 409.131 87.5557C408.935 87.9477 408.837 88.4237 408.837 88.9837V92.8477H407.843V85.4977H408.795V87.4857L408.641 87.1357C408.865 86.6037 409.224 86.1883 409.719 85.8897C410.223 85.5817 410.816 85.4277 411.497 85.4277C412.216 85.4277 412.827 85.6097 413.331 85.9737C413.835 86.3283 414.162 86.865 414.311 87.5837L413.919 87.4297C414.134 86.8323 414.512 86.3517 415.053 85.9877C415.604 85.6143 416.262 85.4277 417.027 85.4277ZM422.789 92.9177C422.583 92.9177 422.406 92.843 422.257 92.6937C422.117 92.5443 422.047 92.3623 422.047 92.1477C422.047 91.9237 422.117 91.7417 422.257 91.6017C422.406 91.4617 422.583 91.3917 422.789 91.3917C422.994 91.3917 423.167 91.4617 423.307 91.6017C423.456 91.7417 423.531 91.9237 423.531 92.1477C423.531 92.3623 423.456 92.5443 423.307 92.6937C423.167 92.843 422.994 92.9177 422.789 92.9177ZM430.4 92.8477V91.2237L430.358 90.9577V88.2417C430.358 87.6163 430.181 87.1357 429.826 86.7997C429.481 86.4637 428.963 86.2957 428.272 86.2957C427.796 86.2957 427.344 86.375 426.914 86.5337C426.485 86.6923 426.121 86.9023 425.822 87.1637L425.374 86.4217C425.748 86.1043 426.196 85.8617 426.718 85.6937C427.241 85.5163 427.792 85.4277 428.37 85.4277C429.322 85.4277 430.055 85.6657 430.568 86.1417C431.091 86.6083 431.352 87.3223 431.352 88.2837V92.8477H430.4ZM427.866 92.9177C427.316 92.9177 426.835 92.829 426.424 92.6517C426.023 92.465 425.715 92.213 425.5 91.8957C425.286 91.569 425.178 91.1957 425.178 90.7757C425.178 90.393 425.267 90.0477 425.444 89.7397C425.631 89.4223 425.93 89.1703 426.34 88.9837C426.76 88.7877 427.32 88.6897 428.02 88.6897H430.554V89.4317H428.048C427.339 89.4317 426.844 89.5577 426.564 89.8097C426.294 90.0617 426.158 90.3743 426.158 90.7477C426.158 91.1677 426.322 91.5037 426.648 91.7557C426.975 92.0077 427.432 92.1337 428.02 92.1337C428.58 92.1337 429.061 92.0077 429.462 91.7557C429.873 91.4943 430.172 91.121 430.358 90.6357L430.582 91.3217C430.396 91.807 430.069 92.1943 429.602 92.4837C429.145 92.773 428.566 92.9177 427.866 92.9177ZM437.09 92.9177C436.465 92.9177 435.919 92.801 435.452 92.5677C434.985 92.3343 434.621 91.9843 434.36 91.5177C434.108 91.051 433.982 90.4677 433.982 89.7677V85.4977H434.976V89.6557C434.976 90.4397 435.167 91.0323 435.55 91.4337C435.942 91.8257 436.488 92.0217 437.188 92.0217C437.701 92.0217 438.145 91.919 438.518 91.7137C438.901 91.499 439.19 91.191 439.386 90.7897C439.591 90.3883 439.694 89.9077 439.694 89.3477V85.4977H440.688V92.8477H439.736V90.8317L439.89 91.1957C439.657 91.737 439.293 92.1617 438.798 92.4697C438.313 92.7683 437.743 92.9177 437.09 92.9177ZM290.559 109.918C289.915 109.918 289.336 109.773 288.823 109.484C288.31 109.185 287.904 108.756 287.605 108.196C287.306 107.636 287.157 106.959 287.157 106.166C287.157 105.363 287.306 104.686 287.605 104.136C287.913 103.576 288.324 103.151 288.837 102.862C289.35 102.572 289.924 102.428 290.559 102.428C291.259 102.428 291.884 102.586 292.435 102.904C292.995 103.212 293.434 103.646 293.751 104.206C294.068 104.766 294.227 105.419 294.227 106.166C294.227 106.903 294.068 107.556 293.751 108.126C293.434 108.686 292.995 109.124 292.435 109.442C291.884 109.759 291.259 109.918 290.559 109.918ZM286.765 109.848V99.4597H287.759V104.668L287.619 106.152L287.717 107.636V109.848H286.765ZM290.489 109.036C291.012 109.036 291.478 108.919 291.889 108.686C292.3 108.443 292.626 108.107 292.869 107.678C293.112 107.239 293.233 106.735 293.233 106.166C293.233 105.587 293.112 105.083 292.869 104.654C292.626 104.224 292.3 103.893 291.889 103.66C291.478 103.417 291.012 103.296 290.489 103.296C289.966 103.296 289.495 103.417 289.075 103.66C288.664 103.893 288.338 104.224 288.095 104.654C287.862 105.083 287.745 105.587 287.745 106.166C287.745 106.735 287.862 107.239 288.095 107.678C288.338 108.107 288.664 108.443 289.075 108.686C289.495 108.919 289.966 109.036 290.489 109.036ZM296.253 109.848V102.498H297.205V104.5L297.107 104.15C297.313 103.59 297.658 103.165 298.143 102.876C298.629 102.577 299.231 102.428 299.949 102.428V103.394C299.912 103.394 299.875 103.394 299.837 103.394C299.8 103.384 299.763 103.38 299.725 103.38C298.951 103.38 298.344 103.618 297.905 104.094C297.467 104.56 297.247 105.228 297.247 106.096V109.848H296.253ZM301.763 109.848V102.498H302.757V109.848H301.763ZM302.267 100.874C302.062 100.874 301.889 100.804 301.749 100.664C301.609 100.524 301.539 100.356 301.539 100.16C301.539 99.9637 301.609 99.8003 301.749 99.6697C301.889 99.5297 302.062 99.4597 302.267 99.4597C302.472 99.4597 302.645 99.525 302.785 99.6557C302.925 99.7863 302.995 99.9497 302.995 100.146C302.995 100.351 302.925 100.524 302.785 100.664C302.654 100.804 302.482 100.874 302.267 100.874ZM304.725 109.848V109.19L309.625 102.988L309.835 103.324H304.809V102.498H310.619V103.142L305.733 109.358L305.481 109.022H310.717V109.848H304.725ZM315.476 109.918C314.776 109.918 314.146 109.759 313.586 109.442C313.035 109.124 312.601 108.686 312.284 108.126C311.967 107.556 311.808 106.903 311.808 106.166C311.808 105.419 311.967 104.766 312.284 104.206C312.601 103.646 313.035 103.212 313.586 102.904C314.146 102.586 314.776 102.428 315.476 102.428C316.12 102.428 316.694 102.572 317.198 102.862C317.711 103.151 318.117 103.576 318.416 104.136C318.724 104.686 318.878 105.363 318.878 106.166C318.878 106.959 318.729 107.636 318.43 108.196C318.131 108.756 317.725 109.185 317.212 109.484C316.708 109.773 316.129 109.918 315.476 109.918ZM315.546 109.036C316.069 109.036 316.535 108.919 316.946 108.686C317.366 108.443 317.693 108.107 317.926 107.678C318.169 107.239 318.29 106.735 318.29 106.166C318.29 105.587 318.169 105.083 317.926 104.654C317.693 104.224 317.366 103.893 316.946 103.66C316.535 103.417 316.069 103.296 315.546 103.296C315.033 103.296 314.571 103.417 314.16 103.66C313.749 103.893 313.423 104.224 313.18 104.654C312.937 105.083 312.816 105.587 312.816 106.166C312.816 106.735 312.937 107.239 313.18 107.678C313.423 108.107 313.749 108.443 314.16 108.686C314.571 108.919 315.033 109.036 315.546 109.036ZM318.318 109.848V107.636L318.416 106.152L318.276 104.668V99.4597H319.27V109.848H318.318ZM324.012 109.918C323.406 109.918 322.832 109.834 322.29 109.666C321.749 109.488 321.324 109.269 321.016 109.008L321.464 108.224C321.763 108.448 322.146 108.644 322.612 108.812C323.079 108.97 323.569 109.05 324.082 109.05C324.782 109.05 325.286 108.942 325.594 108.728C325.902 108.504 326.056 108.21 326.056 107.846C326.056 107.575 325.968 107.365 325.79 107.216C325.622 107.057 325.398 106.94 325.118 106.866C324.838 106.782 324.526 106.712 324.18 106.656C323.835 106.6 323.49 106.534 323.144 106.46C322.808 106.385 322.5 106.278 322.22 106.138C321.94 105.988 321.712 105.788 321.534 105.536C321.366 105.284 321.282 104.948 321.282 104.528C321.282 104.126 321.394 103.767 321.618 103.45C321.842 103.132 322.169 102.885 322.598 102.708C323.037 102.521 323.569 102.428 324.194 102.428C324.67 102.428 325.146 102.493 325.622 102.624C326.098 102.745 326.49 102.908 326.798 103.114L326.364 103.912C326.038 103.688 325.688 103.529 325.314 103.436C324.941 103.333 324.568 103.282 324.194 103.282C323.532 103.282 323.042 103.398 322.724 103.632C322.416 103.856 322.262 104.145 322.262 104.5C322.262 104.78 322.346 104.999 322.514 105.158C322.692 105.316 322.92 105.442 323.2 105.536C323.49 105.62 323.802 105.69 324.138 105.746C324.484 105.802 324.824 105.872 325.16 105.956C325.506 106.03 325.818 106.138 326.098 106.278C326.388 106.408 326.616 106.6 326.784 106.852C326.962 107.094 327.05 107.416 327.05 107.818C327.05 108.247 326.929 108.62 326.686 108.938C326.453 109.246 326.108 109.488 325.65 109.666C325.202 109.834 324.656 109.918 324.012 109.918ZM328.972 109.918C328.767 109.918 328.59 109.843 328.44 109.694C328.3 109.544 328.23 109.362 328.23 109.148C328.23 108.924 328.3 108.742 328.44 108.602C328.59 108.462 328.767 108.392 328.972 108.392C329.178 108.392 329.35 108.462 329.49 108.602C329.64 108.742 329.714 108.924 329.714 109.148C329.714 109.362 329.64 109.544 329.49 109.694C329.35 109.843 329.178 109.918 328.972 109.918ZM334.688 109.918C333.96 109.918 333.307 109.759 332.728 109.442C332.159 109.115 331.711 108.672 331.384 108.112C331.057 107.542 330.894 106.894 330.894 106.166C330.894 105.428 331.057 104.78 331.384 104.22C331.711 103.66 332.159 103.221 332.728 102.904C333.307 102.586 333.96 102.428 334.688 102.428C335.313 102.428 335.878 102.549 336.382 102.792C336.886 103.034 337.283 103.398 337.572 103.884L336.83 104.388C336.578 104.014 336.265 103.739 335.892 103.562C335.519 103.384 335.113 103.296 334.674 103.296C334.151 103.296 333.68 103.417 333.26 103.66C332.84 103.893 332.509 104.224 332.266 104.654C332.023 105.083 331.902 105.587 331.902 106.166C331.902 106.744 332.023 107.248 332.266 107.678C332.509 108.107 332.84 108.443 333.26 108.686C333.68 108.919 334.151 109.036 334.674 109.036C335.113 109.036 335.519 108.947 335.892 108.77C336.265 108.592 336.578 108.322 336.83 107.958L337.572 108.462C337.283 108.938 336.886 109.302 336.382 109.554C335.878 109.796 335.313 109.918 334.688 109.918ZM342.398 109.918C341.688 109.918 341.049 109.759 340.48 109.442C339.92 109.115 339.476 108.672 339.15 108.112C338.823 107.542 338.66 106.894 338.66 106.166C338.66 105.428 338.823 104.78 339.15 104.22C339.476 103.66 339.92 103.221 340.48 102.904C341.04 102.586 341.679 102.428 342.398 102.428C343.126 102.428 343.77 102.586 344.33 102.904C344.899 103.221 345.342 103.66 345.66 104.22C345.986 104.78 346.15 105.428 346.15 106.166C346.15 106.894 345.986 107.542 345.66 108.112C345.342 108.672 344.899 109.115 344.33 109.442C343.76 109.759 343.116 109.918 342.398 109.918ZM342.398 109.036C342.93 109.036 343.401 108.919 343.812 108.686C344.222 108.443 344.544 108.107 344.778 107.678C345.02 107.239 345.142 106.735 345.142 106.166C345.142 105.587 345.02 105.083 344.778 104.654C344.544 104.224 344.222 103.893 343.812 103.66C343.401 103.417 342.934 103.296 342.412 103.296C341.889 103.296 341.422 103.417 341.012 103.66C340.601 103.893 340.274 104.224 340.032 104.654C339.789 105.083 339.668 105.587 339.668 106.166C339.668 106.735 339.789 107.239 340.032 107.678C340.274 108.107 340.601 108.443 341.012 108.686C341.422 108.919 341.884 109.036 342.398 109.036ZM357.363 102.428C357.96 102.428 358.478 102.544 358.917 102.778C359.365 103.002 359.71 103.347 359.953 103.814C360.205 104.28 360.331 104.868 360.331 105.578V109.848H359.337V105.676C359.337 104.901 359.15 104.318 358.777 103.926C358.413 103.524 357.895 103.324 357.223 103.324C356.719 103.324 356.28 103.431 355.907 103.646C355.543 103.851 355.258 104.154 355.053 104.556C354.857 104.948 354.759 105.424 354.759 105.984V109.848H353.765V105.676C353.765 104.901 353.578 104.318 353.205 103.926C352.832 103.524 352.309 103.324 351.637 103.324C351.142 103.324 350.708 103.431 350.335 103.646C349.962 103.851 349.672 104.154 349.467 104.556C349.271 104.948 349.173 105.424 349.173 105.984V109.848H348.179V102.498H349.131V104.486L348.977 104.136C349.201 103.604 349.56 103.188 350.055 102.89C350.559 102.582 351.152 102.428 351.833 102.428C352.552 102.428 353.163 102.61 353.667 102.974C354.171 103.328 354.498 103.865 354.647 104.584L354.255 104.43C354.47 103.832 354.848 103.352 355.389 102.988C355.94 102.614 356.598 102.428 357.363 102.428ZM363.125 109.918C362.919 109.918 362.742 109.843 362.593 109.694C362.453 109.544 362.383 109.362 362.383 109.148C362.383 108.924 362.453 108.742 362.593 108.602C362.742 108.462 362.919 108.392 363.125 108.392C363.33 108.392 363.503 108.462 363.643 108.602C363.792 108.742 363.867 108.924 363.867 109.148C363.867 109.362 363.792 109.544 363.643 109.694C363.503 109.843 363.33 109.918 363.125 109.918ZM370.736 109.848V108.224L370.694 107.958V105.242C370.694 104.616 370.517 104.136 370.162 103.8C369.817 103.464 369.299 103.296 368.608 103.296C368.132 103.296 367.679 103.375 367.25 103.534C366.821 103.692 366.457 103.902 366.158 104.164L365.71 103.422C366.083 103.104 366.531 102.862 367.054 102.694C367.577 102.516 368.127 102.428 368.706 102.428C369.658 102.428 370.391 102.666 370.904 103.142C371.427 103.608 371.688 104.322 371.688 105.284V109.848H370.736ZM368.202 109.918C367.651 109.918 367.171 109.829 366.76 109.652C366.359 109.465 366.051 109.213 365.836 108.896C365.621 108.569 365.514 108.196 365.514 107.776C365.514 107.393 365.603 107.048 365.78 106.74C365.967 106.422 366.265 106.17 366.676 105.984C367.096 105.788 367.656 105.69 368.356 105.69H370.89V106.432H368.384C367.675 106.432 367.18 106.558 366.9 106.81C366.629 107.062 366.494 107.374 366.494 107.748C366.494 108.168 366.657 108.504 366.984 108.756C367.311 109.008 367.768 109.134 368.356 109.134C368.916 109.134 369.397 109.008 369.798 108.756C370.209 108.494 370.507 108.121 370.694 107.636L370.918 108.322C370.731 108.807 370.405 109.194 369.938 109.484C369.481 109.773 368.902 109.918 368.202 109.918ZM377.426 109.918C376.801 109.918 376.255 109.801 375.788 109.568C375.321 109.334 374.957 108.984 374.696 108.518C374.444 108.051 374.318 107.468 374.318 106.768V102.498H375.312V106.656C375.312 107.44 375.503 108.032 375.886 108.434C376.278 108.826 376.824 109.022 377.524 109.022C378.037 109.022 378.481 108.919 378.854 108.714C379.237 108.499 379.526 108.191 379.722 107.79C379.927 107.388 380.03 106.908 380.03 106.348V102.498H381.024V109.848H380.072V107.832L380.226 108.196C379.993 108.737 379.629 109.162 379.134 109.47C378.649 109.768 378.079 109.918 377.426 109.918Z" fill="black"/>
<line x1="261.129" y1="156.002" x2="261.129" y2="23.9982" stroke="black" stroke-width="0.5"/>
<path d="M230.958 71.9954C229.724 71.9954 228.547 71.8272 227.425 71.4908C226.323 71.1544 225.454 70.7432 224.818 70.2573L225.94 68.1267C226.575 68.5566 227.36 68.921 228.295 69.22C229.229 69.519 230.182 69.6686 231.154 69.6686C232.406 69.6686 233.303 69.491 233.845 69.1359C234.406 68.7808 234.686 68.2856 234.686 67.6501C234.686 67.1829 234.518 66.8185 234.182 66.5568C233.845 66.2952 233.397 66.0989 232.836 65.9681C232.294 65.8373 231.687 65.7251 231.014 65.6317C230.341 65.5196 229.668 65.3887 228.995 65.2392C228.323 65.071 227.706 64.8468 227.145 64.5664C226.584 64.2674 226.136 63.8656 225.8 63.361C225.463 62.8377 225.295 62.1462 225.295 61.2865C225.295 60.3894 225.547 59.6044 226.052 58.9316C226.556 58.2588 227.267 57.7449 228.182 57.3898C229.117 57.016 230.22 56.8291 231.49 56.8291C232.462 56.8291 233.443 56.9506 234.434 57.1935C235.443 57.4178 236.265 57.7449 236.901 58.1747L235.752 60.3053C235.079 59.8567 234.378 59.5484 233.649 59.3802C232.92 59.212 232.191 59.1279 231.462 59.1279C230.285 59.1279 229.407 59.3241 228.827 59.7166C228.248 60.0904 227.958 60.5763 227.958 61.1743C227.958 61.6789 228.126 62.0714 228.463 62.3517C228.818 62.6134 229.266 62.819 229.808 62.9685C230.369 63.118 230.986 63.2488 231.659 63.361C232.331 63.4544 233.004 63.5852 233.677 63.7534C234.35 63.903 234.957 64.1179 235.499 64.3982C236.06 64.6786 236.508 65.071 236.845 65.5756C237.2 66.0802 237.377 66.7531 237.377 67.5941C237.377 68.4911 237.116 69.2667 236.593 69.9209C236.069 70.575 235.331 71.0889 234.378 71.4627C233.425 71.8178 232.285 71.9954 230.958 71.9954Z" fill="black"/>
<path d="M216.389 56.8291C217.603 56.8291 218.669 57.0627 219.584 57.5299C220.519 57.9972 221.248 58.7074 221.771 59.6605C222.294 60.6137 222.556 61.8191 222.556 63.2769V71.8272H219.865V63.5852C219.865 62.1462 219.51 61.0622 218.8 60.3333C218.108 59.6044 217.127 59.24 215.856 59.24C214.903 59.24 214.071 59.4269 213.361 59.8007C212.651 60.1745 212.099 60.7258 211.707 61.4547C211.333 62.1835 211.146 63.09 211.146 64.1739V71.8272H208.455V56.9693H211.034V60.9781L210.614 59.9128C211.1 58.941 211.847 58.1841 212.856 57.6421C213.866 57.1001 215.043 56.8291 216.389 56.8291Z" fill="black"/>
<path d="M198.747 71.9954C197.159 71.9954 195.757 71.6683 194.542 71.0142C193.346 70.3601 192.412 69.463 191.739 68.3229C191.085 67.1829 190.758 65.8747 190.758 64.3982C190.758 62.9218 191.076 61.6135 191.711 60.4735C192.365 59.3335 193.253 58.4457 194.374 57.8103C195.514 57.1562 196.794 56.8291 198.215 56.8291C199.654 56.8291 200.925 57.1468 202.027 57.7822C203.13 58.4177 203.99 59.3148 204.606 60.4735C205.242 61.6135 205.56 62.9498 205.56 64.4823C205.56 64.5945 205.55 64.7253 205.532 64.8748C205.532 65.0243 205.522 65.1645 205.504 65.2953H192.86V63.361H204.102L203.009 64.0338C203.027 63.0806 202.831 62.2303 202.42 61.4827C202.009 60.7351 201.439 60.1558 200.71 59.7446C200 59.3148 199.168 59.0998 198.215 59.0998C197.28 59.0998 196.449 59.3148 195.72 59.7446C194.991 60.1558 194.421 60.7445 194.01 61.5107C193.599 62.2583 193.393 63.118 193.393 64.0898V64.5384C193.393 65.5289 193.617 66.4166 194.066 67.2016C194.533 67.9678 195.178 68.5659 196 68.9958C196.822 69.4256 197.766 69.6405 198.832 69.6405C199.71 69.6405 200.504 69.491 201.214 69.192C201.943 68.893 202.579 68.4444 203.121 67.8464L204.606 69.5845C203.934 70.3694 203.093 70.9675 202.083 71.3786C201.093 71.7898 199.981 71.9954 198.747 71.9954Z" fill="black"/>
<path d="M182.423 71.9954C180.835 71.9954 179.433 71.6683 178.218 71.0142C177.022 70.3601 176.088 69.463 175.415 68.3229C174.761 67.1829 174.434 65.8747 174.434 64.3982C174.434 62.9218 174.751 61.6135 175.387 60.4735C176.041 59.3335 176.929 58.4457 178.05 57.8103C179.19 57.1562 180.47 56.8291 181.891 56.8291C183.33 56.8291 184.601 57.1468 185.703 57.7822C186.806 58.4177 187.666 59.3148 188.282 60.4735C188.918 61.6135 189.235 62.9498 189.235 64.4823C189.235 64.5945 189.226 64.7253 189.207 64.8748C189.207 65.0243 189.198 65.1645 189.179 65.2953H176.536V63.361H187.778L186.684 64.0338C186.703 63.0806 186.507 62.2303 186.096 61.4827C185.684 60.7351 185.114 60.1558 184.386 59.7446C183.675 59.3148 182.844 59.0998 181.891 59.0998C180.956 59.0998 180.124 59.3148 179.396 59.7446C178.667 60.1558 178.097 60.7445 177.686 61.5107C177.274 62.2583 177.069 63.118 177.069 64.0898V64.5384C177.069 65.5289 177.293 66.4166 177.742 67.2016C178.209 67.9678 178.854 68.5659 179.676 68.9958C180.498 69.4256 181.442 69.6405 182.507 69.6405C183.386 69.6405 184.18 69.491 184.89 69.192C185.619 68.893 186.254 68.4444 186.796 67.8464L188.282 69.5845C187.609 70.3694 186.768 70.9675 185.759 71.3786C184.769 71.7898 183.657 71.9954 182.423 71.9954Z" fill="black"/>
<path d="M165.479 71.8272V56.9693H168.058V61.0061L167.805 59.9969C168.216 58.969 168.908 58.1841 169.88 57.6421C170.852 57.1001 172.048 56.8291 173.468 56.8291V59.4362C173.356 59.4176 173.244 59.4082 173.132 59.4082C173.038 59.4082 172.945 59.4082 172.851 59.4082C171.412 59.4082 170.272 59.8381 169.431 60.6978C168.59 61.5575 168.17 62.8003 168.17 64.4263V71.8272H165.479Z" fill="black"/>
<path d="M156.779 71.9954C155.265 71.9954 153.91 71.6683 152.714 71.0142C151.537 70.3601 150.612 69.463 149.939 68.3229C149.266 67.1829 148.93 65.8747 148.93 64.3982C148.93 62.9218 149.266 61.6135 149.939 60.4735C150.612 59.3335 151.537 58.4457 152.714 57.8103C153.91 57.1562 155.265 56.8291 156.779 56.8291C158.125 56.8291 159.321 57.1001 160.367 57.6421C161.433 58.1654 162.255 58.9503 162.834 59.9969L160.788 61.3145C160.302 60.5856 159.704 60.053 158.994 59.7166C158.302 59.3615 157.555 59.1839 156.751 59.1839C155.779 59.1839 154.91 59.3989 154.144 59.8287C153.378 60.2586 152.77 60.866 152.322 61.6509C151.873 62.4172 151.649 63.3329 151.649 64.3982C151.649 65.4635 151.873 66.3886 152.322 67.1736C152.77 67.9585 153.378 68.5659 154.144 68.9958C154.91 69.4256 155.779 69.6405 156.751 69.6405C157.555 69.6405 158.302 69.4723 158.994 69.1359C159.704 68.7808 160.302 68.2388 160.788 67.51L162.834 68.7995C162.255 69.8274 161.433 70.6217 160.367 71.1824C159.321 71.7244 158.125 71.9954 156.779 71.9954Z" fill="black"/>
<path d="M141.362 71.9954C140.129 71.9954 138.951 71.8272 137.83 71.4908C136.727 71.1544 135.858 70.7432 135.223 70.2573L136.344 68.1267C136.979 68.5566 137.764 68.921 138.699 69.22C139.633 69.519 140.586 69.6686 141.558 69.6686C142.81 69.6686 143.708 69.491 144.25 69.1359C144.81 68.7808 145.091 68.2856 145.091 67.6501C145.091 67.1829 144.922 66.8185 144.586 66.5568C144.25 66.2952 143.801 66.0989 143.24 65.9681C142.698 65.8373 142.091 65.7251 141.418 65.6317C140.745 65.5196 140.072 65.3887 139.4 65.2392C138.727 65.071 138.11 64.8468 137.549 64.5664C136.989 64.2674 136.54 63.8656 136.204 63.361C135.867 62.8377 135.699 62.1462 135.699 61.2865C135.699 60.3894 135.952 59.6044 136.456 58.9316C136.961 58.2588 137.671 57.7449 138.587 57.3898C139.521 57.016 140.624 56.8291 141.895 56.8291C142.867 56.8291 143.848 56.9506 144.838 57.1935C145.847 57.4178 146.67 57.7449 147.305 58.1747L146.156 60.3053C145.483 59.8567 144.782 59.5484 144.053 59.3802C143.324 59.212 142.596 59.1279 141.867 59.1279C140.689 59.1279 139.811 59.3241 139.231 59.7166C138.652 60.0904 138.362 60.5763 138.362 61.1743C138.362 61.6789 138.531 62.0714 138.867 62.3517C139.222 62.6134 139.671 62.819 140.213 62.9685C140.773 63.118 141.39 63.2488 142.063 63.361C142.736 63.4544 143.409 63.5852 144.081 63.7534C144.754 63.903 145.362 64.1179 145.904 64.3982C146.464 64.6786 146.913 65.071 147.249 65.5756C147.604 66.0802 147.782 66.7531 147.782 67.5941C147.782 68.4911 147.52 69.2667 146.997 69.9209C146.474 70.575 145.735 71.0889 144.782 71.4627C143.829 71.8178 142.689 71.9954 141.362 71.9954Z" fill="black"/>
<path d="M224.03 47.786V35.1708H227.03V47.786H224.03ZM219.068 42.8801V40.0767H231.992V42.8801H219.068Z" fill="#FFD700"/>
<path d="M204.167 51.4572C202.933 51.4572 201.756 51.289 200.634 50.9526C199.532 50.6161 198.663 50.205 198.027 49.7191L199.149 47.5885C199.784 48.0184 200.569 48.3828 201.504 48.6818C202.438 48.9808 203.391 49.1304 204.363 49.1304C205.615 49.1304 206.512 48.9528 207.054 48.5977C207.615 48.2426 207.895 47.7474 207.895 47.1119C207.895 46.6447 207.727 46.2803 207.391 46.0186C207.054 45.757 206.606 45.5607 206.045 45.4299C205.503 45.2991 204.896 45.1869 204.223 45.0935C203.55 44.9814 202.877 44.8505 202.204 44.701C201.532 44.5328 200.915 44.3085 200.354 44.0282C199.793 43.7292 199.345 43.3274 199.009 42.8228C198.672 42.2995 198.504 41.608 198.504 40.7483C198.504 39.8512 198.756 39.0662 199.261 38.3934C199.765 37.7206 200.476 37.2067 201.391 36.8516C202.326 36.4778 203.429 36.2909 204.699 36.2909C205.671 36.2909 206.652 36.4124 207.643 36.6553C208.652 36.8796 209.474 37.2067 210.11 37.6365L208.961 39.7671C208.288 39.3185 207.587 39.0102 206.858 38.842C206.129 38.6738 205.4 38.5897 204.671 38.5897C203.494 38.5897 202.616 38.7859 202.036 39.1784C201.457 39.5522 201.167 40.0381 201.167 40.6361C201.167 41.1407 201.335 41.5332 201.672 41.8135C202.027 42.0752 202.475 42.2808 203.017 42.4303C203.578 42.5798 204.195 42.7106 204.868 42.8228C205.54 42.9162 206.213 43.047 206.886 43.2152C207.559 43.3647 208.166 43.5797 208.708 43.86C209.269 44.1403 209.717 44.5328 210.054 45.0374C210.409 45.542 210.586 46.2148 210.586 47.0559C210.586 47.9529 210.325 48.7285 209.802 49.3827C209.278 50.0368 208.54 50.5507 207.587 50.9245C206.634 51.2796 205.494 51.4572 204.167 51.4572Z" fill="black"/>
<path d="M189.275 51.289V36.4311H191.854V40.4679L191.602 39.4587C192.013 38.4308 192.705 37.6459 193.677 37.1039C194.649 36.5619 195.845 36.2909 197.265 36.2909V38.898C197.153 38.8793 197.041 38.87 196.929 38.87C196.835 38.87 196.742 38.87 196.648 38.87C195.209 38.87 194.069 39.2999 193.228 40.1596C192.387 41.0193 191.967 42.2621 191.967 43.888V51.289H189.275Z" fill="black"/>
<path d="M178.687 51.4572C177.191 51.4572 175.864 51.1301 174.706 50.476C173.547 49.8219 172.631 48.9248 171.958 47.7847C171.286 46.626 170.949 45.3178 170.949 43.86C170.949 42.3836 171.286 41.0753 171.958 39.9353C172.631 38.7952 173.547 37.9075 174.706 37.2721C175.864 36.618 177.191 36.2909 178.687 36.2909C180.163 36.2909 181.481 36.618 182.639 37.2721C183.817 37.9075 184.732 38.7952 185.387 39.9353C186.059 41.0566 186.396 42.3649 186.396 43.86C186.396 45.3365 186.059 46.6447 185.387 47.7847C184.732 48.9248 183.817 49.8219 182.639 50.476C181.481 51.1301 180.163 51.4572 178.687 51.4572ZM178.687 49.1023C179.64 49.1023 180.49 48.8874 181.238 48.4575C182.004 48.0277 182.602 47.4203 183.032 46.6354C183.462 45.8317 183.677 44.9066 183.677 43.86C183.677 42.7947 183.462 41.879 183.032 41.1127C182.602 40.3278 182.004 39.7204 181.238 39.2905C180.49 38.8607 179.64 38.6457 178.687 38.6457C177.733 38.6457 176.883 38.8607 176.135 39.2905C175.388 39.7204 174.79 40.3278 174.341 41.1127C173.893 41.879 173.668 42.7947 173.668 43.86C173.668 44.9066 173.893 45.8317 174.341 46.6354C174.79 47.4203 175.388 48.0277 176.135 48.4575C176.883 48.8874 177.733 49.1023 178.687 49.1023Z" fill="black"/>
<path d="M161.731 51.4572C160.236 51.4572 158.909 51.1301 157.751 50.476C156.592 49.8219 155.676 48.9248 155.003 47.7847C154.331 46.626 153.994 45.3178 153.994 43.86C153.994 42.3836 154.331 41.0753 155.003 39.9353C155.676 38.7952 156.592 37.9075 157.751 37.2721C158.909 36.618 160.236 36.2909 161.731 36.2909C163.208 36.2909 164.525 36.618 165.684 37.2721C166.862 37.9075 167.777 38.7952 168.432 39.9353C169.104 41.0566 169.441 42.3649 169.441 43.86C169.441 45.3365 169.104 46.6447 168.432 47.7847C167.777 48.9248 166.862 49.8219 165.684 50.476C164.525 51.1301 163.208 51.4572 161.731 51.4572ZM161.731 49.1023C162.685 49.1023 163.535 48.8874 164.283 48.4575C165.049 48.0277 165.647 47.4203 166.077 46.6354C166.507 45.8317 166.721 44.9066 166.721 43.86C166.721 42.7947 166.507 41.879 166.077 41.1127C165.647 40.3278 165.049 39.7204 164.283 39.2905C163.535 38.8607 162.685 38.6457 161.731 38.6457C160.778 38.6457 159.928 38.8607 159.18 39.2905C158.433 39.7204 157.835 40.3278 157.386 41.1127C156.938 41.879 156.713 42.7947 156.713 43.86C156.713 44.9066 156.938 45.8317 157.386 46.6354C157.835 47.4203 158.433 48.0277 159.18 48.4575C159.928 48.8874 160.778 49.1023 161.731 49.1023Z" fill="black"/>
<path d="M143.24 51.4573C141.801 51.4573 140.511 51.1396 139.371 50.5041C138.25 49.8687 137.362 48.981 136.708 47.8409C136.054 46.7009 135.727 45.374 135.727 43.8601C135.727 42.3463 136.054 41.0287 136.708 39.9074C137.362 38.7673 138.25 37.8796 139.371 37.2442C140.511 36.6087 141.801 36.291 143.24 36.291C144.492 36.291 145.622 36.5714 146.632 37.132C147.641 37.6927 148.445 38.5337 149.043 39.6551C149.659 40.7764 149.968 42.1781 149.968 43.8601C149.968 45.5422 149.669 46.9439 149.071 48.0652C148.491 49.1866 147.697 50.0369 146.688 50.6163C145.679 51.177 144.529 51.4573 143.24 51.4573ZM143.464 49.1025C144.398 49.1025 145.239 48.8875 145.987 48.4577C146.753 48.0278 147.351 47.4204 147.781 46.6355C148.23 45.8318 148.454 44.9067 148.454 43.8601C148.454 42.7949 148.23 41.8791 147.781 41.1128C147.351 40.3279 146.753 39.7205 145.987 39.2906C145.239 38.8608 144.398 38.6459 143.464 38.6459C142.511 38.6459 141.66 38.8608 140.913 39.2906C140.165 39.7205 139.567 40.3279 139.119 41.1128C138.67 41.8791 138.446 42.7949 138.446 43.8601C138.446 44.9067 138.67 45.8318 139.119 46.6355C139.567 47.4204 140.165 48.0278 140.913 48.4577C141.66 48.8875 142.511 49.1025 143.464 49.1025ZM148.538 51.2891V47.2803L148.706 43.8321L148.426 40.384V30.488H151.117V51.2891H148.538Z" fill="black"/>
<path d="M101.363 71.5649V66.6975L121.634 42.1756L123.051 44.825H101.733V38.6637H129.212V43.5311L108.942 68.0529L107.401 65.4036H129.767V71.5649H101.363Z" fill="black"/>
<path fill-rule="evenodd" clip-rule="evenodd" d="M88.1138 38.6638V71.565H95.8154V38.6638H88.1138Z" fill="black"/>
<path d="M91.9954 33.2419C90.5578 33.2419 89.3666 32.7901 88.4219 31.8864C87.5182 30.9828 87.0664 29.8943 87.0664 28.6209C87.0664 27.3065 87.5182 26.2181 88.4219 25.3555C89.3666 24.4518 90.5578 24 91.9954 24C93.433 24 94.6037 24.4313 95.5073 25.2939C96.4521 26.1154 96.9244 27.1628 96.9244 28.4361C96.9244 29.7916 96.4726 30.9417 95.569 31.8864C94.6653 32.7901 93.4741 33.2419 91.9954 33.2419Z" fill="#FFD700"/>
<path d="M64.3906 71.5642V38.663H71.7225V47.7201L70.86 45.0707C71.8458 42.8527 73.3861 41.1686 75.4809 40.0185C77.6168 38.8684 80.2662 38.2933 83.4289 38.2933V45.6252C83.1003 45.5431 82.7923 45.502 82.5047 45.502C82.2172 45.4609 81.9297 45.4404 81.6422 45.4404C78.7258 45.4404 76.4051 46.303 74.6799 48.0281C72.9548 49.7122 72.0922 52.2383 72.0922 55.6065V71.5642H64.3906Z" fill="black"/>
<path d="M42.2374 71.9963C39.4442 71.9963 36.9592 71.3801 34.7822 70.1479C32.6052 68.9156 30.8801 67.0673 29.6068 64.6028C28.3745 62.0972 27.7584 58.9344 27.7584 55.1144C27.7584 51.2533 28.395 48.0906 29.6684 45.6261C30.9828 43.1615 32.7285 41.3337 34.9054 40.1425C37.1235 38.9103 39.5675 38.2941 42.2374 38.2941C45.4823 38.2941 48.337 38.9924 50.8015 40.389C53.3071 41.7855 55.2787 43.7366 56.7163 46.2422C58.195 48.7478 58.9344 51.7052 58.9344 55.1144C58.9344 58.5236 58.195 61.481 56.7163 63.9866C55.2787 66.4922 53.3071 68.4638 50.8015 69.9014C48.337 71.298 45.4823 71.9963 42.2374 71.9963ZM24 71.565V25.8484H31.7016V46.3038L31.0855 55.0528L31.3319 63.8018V71.565H24ZM41.3748 65.4037C43.2232 65.4037 44.8662 64.993 46.3038 64.1715C47.7825 63.35 48.9531 62.1588 49.8157 60.5979C50.6783 59.0371 51.1096 57.2092 51.1096 55.1144C51.1096 52.9785 50.6783 51.1507 49.8157 49.6309C48.9531 48.07 47.7825 46.8788 46.3038 46.0573C44.8662 45.2358 43.2232 44.8251 41.3748 44.8251C39.5264 44.8251 37.8629 45.2358 36.3841 46.0573C34.9054 46.8788 33.7348 48.07 32.8722 49.6309C32.0096 51.1507 31.5784 52.9785 31.5784 55.1144C31.5784 57.2092 32.0096 59.0371 32.8722 60.5979C33.7348 62.1588 34.9054 63.35 36.3841 64.1715C37.8629 64.993 39.5264 65.4037 41.3748 65.4037Z" fill="black"/>
</svg>
