<svg width="4470" height="2048" viewBox="0 0 4470 2048" fill="none" xmlns="http://www.w3.org/2000/svg">
<path d="M3949.25 1426.88C3928.17 1426.88 3908.04 1424 3888.87 1418.25C3870.02 1412.5 3855.16 1405.47 3844.3 1397.17L3863.47 1360.74C3874.33 1368.09 3887.75 1374.32 3903.72 1379.43C3919.7 1384.55 3935.99 1387.1 3952.61 1387.1C3974.01 1387.1 3989.35 1384.07 3998.62 1378C4008.2 1371.93 4012.99 1363.46 4012.99 1352.6C4012.99 1344.61 4010.12 1338.38 4004.37 1333.91C3998.62 1329.43 3990.95 1326.08 3981.36 1323.84C3972.1 1321.61 3961.71 1319.69 3950.21 1318.09C3938.71 1316.17 3927.21 1313.94 3915.71 1311.38C3904.2 1308.51 3893.66 1304.67 3884.08 1299.88C3874.49 1294.77 3866.82 1287.9 3861.07 1279.27C3855.32 1270.33 3852.45 1258.51 3852.45 1243.81C3852.45 1228.47 3856.76 1215.05 3865.39 1203.55C3874.01 1192.05 3886.15 1183.26 3901.81 1177.19C3917.78 1170.8 3936.63 1167.61 3958.36 1167.61C3974.97 1167.61 3991.75 1169.69 4008.68 1173.84C4025.93 1177.67 4039.99 1183.26 4050.85 1190.61L4031.2 1227.04C4019.7 1219.37 4007.72 1214.1 3995.26 1211.22C3982.8 1208.35 3970.34 1206.91 3957.88 1206.91C3937.75 1206.91 3922.73 1210.26 3912.83 1216.97C3902.93 1223.36 3897.97 1231.67 3897.97 1241.89C3897.97 1250.52 3900.85 1257.23 3906.6 1262.02C3912.67 1266.49 3920.34 1270.01 3929.6 1272.56C3939.19 1275.12 3949.73 1277.36 3961.23 1279.27C3972.74 1280.87 3984.24 1283.11 3995.74 1285.98C4007.24 1288.54 4017.63 1292.21 4026.89 1297C4036.48 1301.8 4044.14 1308.51 4049.89 1317.13C4055.96 1325.76 4059 1337.26 4059 1351.64C4059 1366.97 4054.53 1380.23 4045.58 1391.42C4036.64 1402.6 4024.01 1411.38 4007.72 1417.77C3991.43 1423.84 3971.94 1426.88 3949.25 1426.88Z" fill="white"/>
<path d="M3700.21 1167.61C3720.97 1167.61 3739.18 1171.6 3754.84 1179.59C3770.81 1187.58 3783.27 1199.72 3792.22 1216.01C3801.17 1232.31 3805.64 1252.91 3805.64 1277.84V1424H3759.63V1283.11C3759.63 1258.51 3753.56 1239.98 3741.42 1227.51C3729.6 1215.05 3712.83 1208.82 3691.1 1208.82C3674.81 1208.82 3660.59 1212.02 3648.45 1218.41C3636.31 1224.8 3626.88 1234.22 3620.17 1246.68C3613.78 1259.14 3610.59 1274.64 3610.59 1293.17V1424H3564.58V1170.01H3608.67V1238.54L3601.48 1220.33C3609.79 1203.71 3622.57 1190.77 3639.82 1181.51C3657.07 1172.24 3677.2 1167.61 3700.21 1167.61Z" fill="white"/>
<path d="M3398.62 1426.88C3371.46 1426.88 3347.5 1421.29 3326.73 1410.11C3306.28 1398.92 3290.31 1383.59 3278.81 1364.1C3267.62 1344.61 3262.03 1322.25 3262.03 1297C3262.03 1271.76 3267.46 1249.4 3278.33 1229.91C3289.51 1210.42 3304.69 1195.25 3323.86 1184.38C3343.34 1173.2 3365.23 1167.61 3389.51 1167.61C3414.11 1167.61 3435.84 1173.04 3454.69 1183.9C3473.54 1194.77 3488.24 1210.1 3498.78 1229.91C3509.64 1249.4 3515.07 1272.24 3515.07 1298.44C3515.07 1300.36 3514.91 1302.6 3514.59 1305.15C3514.59 1307.71 3514.43 1310.1 3514.12 1312.34H3297.98V1279.27H3490.15L3471.46 1290.77C3471.78 1274.48 3468.43 1259.94 3461.4 1247.16C3454.37 1234.38 3444.62 1224.48 3432.16 1217.45C3420.02 1210.1 3405.81 1206.43 3389.51 1206.43C3373.54 1206.43 3359.32 1210.1 3346.86 1217.45C3334.4 1224.48 3324.65 1234.54 3317.63 1247.64C3310.6 1260.42 3307.08 1275.12 3307.08 1291.73V1299.4C3307.08 1316.33 3310.92 1331.51 3318.58 1344.93C3326.57 1358.03 3337.59 1368.25 3351.65 1375.6C3365.71 1382.95 3381.84 1386.62 3400.06 1386.62C3415.07 1386.62 3428.65 1384.07 3440.79 1378.96C3453.25 1373.84 3464.11 1366.18 3473.38 1355.95L3498.78 1385.66C3487.28 1399.08 3472.9 1409.31 3455.65 1416.34C3438.71 1423.37 3419.7 1426.88 3398.62 1426.88Z" fill="white"/>
<path d="M3119.55 1426.88C3092.39 1426.88 3068.43 1421.29 3047.66 1410.11C3027.22 1398.92 3011.24 1383.59 2999.74 1364.1C2988.56 1344.61 2982.97 1322.25 2982.97 1297C2982.97 1271.76 2988.4 1249.4 2999.26 1229.91C3010.44 1210.42 3025.62 1195.25 3044.79 1184.38C3064.28 1173.2 3086.16 1167.61 3110.45 1167.61C3135.05 1167.61 3156.77 1173.04 3175.62 1183.9C3194.47 1194.77 3209.17 1210.1 3219.71 1229.91C3230.58 1249.4 3236.01 1272.24 3236.01 1298.44C3236.01 1300.36 3235.85 1302.6 3235.53 1305.15C3235.53 1307.71 3235.37 1310.1 3235.05 1312.34H3018.91V1279.27H3211.09L3192.4 1290.77C3192.72 1274.48 3189.36 1259.94 3182.33 1247.16C3175.3 1234.38 3165.56 1224.48 3153.1 1217.45C3140.96 1210.1 3126.74 1206.43 3110.45 1206.43C3094.47 1206.43 3080.25 1210.1 3067.79 1217.45C3055.33 1224.48 3045.59 1234.54 3038.56 1247.64C3031.53 1260.42 3028.02 1275.12 3028.02 1291.73V1299.4C3028.02 1316.33 3031.85 1331.51 3039.52 1344.93C3047.5 1358.03 3058.53 1368.25 3072.59 1375.6C3086.64 1382.95 3102.78 1386.62 3120.99 1386.62C3136.01 1386.62 3149.58 1384.07 3161.72 1378.96C3174.18 1373.84 3185.05 1366.18 3194.31 1355.95L3219.71 1385.66C3208.21 1399.08 3193.83 1409.31 3176.58 1416.34C3159.65 1423.37 3140.64 1426.88 3119.55 1426.88Z" fill="white"/>
<path d="M2829.88 1424V1170.01H2873.97V1239.02L2869.66 1221.76C2876.69 1204.19 2888.51 1190.77 2905.12 1181.51C2921.73 1172.24 2942.18 1167.61 2966.46 1167.61V1212.18C2964.55 1211.86 2962.63 1211.7 2960.71 1211.7C2959.11 1211.7 2957.52 1211.7 2955.92 1211.7C2931.32 1211.7 2911.83 1219.05 2897.45 1233.74C2883.07 1248.44 2875.89 1269.69 2875.89 1297.48V1424H2829.88Z" fill="white"/>
<path d="M2681.17 1426.88C2655.3 1426.88 2632.13 1421.29 2611.68 1410.11C2591.56 1398.92 2575.74 1383.59 2564.24 1364.1C2552.74 1344.61 2546.99 1322.25 2546.99 1297C2546.99 1271.76 2552.74 1249.4 2564.24 1229.91C2575.74 1210.42 2591.56 1195.25 2611.68 1184.38C2632.13 1173.2 2655.3 1167.61 2681.17 1167.61C2704.18 1167.61 2724.63 1172.24 2742.52 1181.51C2760.73 1190.45 2774.79 1203.87 2784.69 1221.76L2749.71 1244.29C2741.4 1231.83 2731.18 1222.72 2719.03 1216.97C2707.21 1210.9 2694.43 1207.87 2680.7 1207.87C2664.08 1207.87 2649.22 1211.54 2636.13 1218.89C2623.03 1226.24 2612.64 1236.62 2604.97 1250.04C2597.31 1263.14 2593.47 1278.79 2593.47 1297C2593.47 1315.22 2597.31 1331.03 2604.97 1344.45C2612.64 1357.87 2623.03 1368.25 2636.13 1375.6C2649.22 1382.95 2664.08 1386.62 2680.7 1386.62C2694.43 1386.62 2707.21 1383.75 2719.03 1378C2731.18 1371.93 2741.4 1362.66 2749.71 1350.2L2784.69 1372.25C2774.79 1389.82 2760.73 1403.4 2742.52 1412.98C2724.63 1422.25 2704.18 1426.88 2681.17 1426.88Z" fill="white"/>
<path d="M2417.6 1426.88C2396.52 1426.88 2376.39 1424 2357.22 1418.25C2338.37 1412.5 2323.51 1405.47 2312.65 1397.17L2331.82 1360.74C2342.68 1368.09 2356.1 1374.32 2372.07 1379.43C2388.05 1384.55 2404.34 1387.1 2420.96 1387.1C2442.36 1387.1 2457.7 1384.07 2466.96 1378C2476.55 1371.93 2481.34 1363.46 2481.34 1352.6C2481.34 1344.61 2478.47 1338.38 2472.72 1333.91C2466.96 1329.43 2459.3 1326.08 2449.71 1323.84C2440.45 1321.61 2430.06 1319.69 2418.56 1318.09C2407.06 1316.17 2395.56 1313.94 2384.06 1311.38C2372.55 1308.51 2362.01 1304.67 2352.43 1299.88C2342.84 1294.77 2335.17 1287.9 2329.42 1279.27C2323.67 1270.33 2320.8 1258.51 2320.8 1243.81C2320.8 1228.47 2325.11 1215.05 2333.74 1203.55C2342.36 1192.05 2354.5 1183.26 2370.16 1177.19C2386.13 1170.8 2404.98 1167.61 2426.71 1167.61C2443.32 1167.61 2460.1 1169.69 2477.03 1173.84C2494.28 1177.67 2508.34 1183.26 2519.2 1190.61L2499.55 1227.04C2488.05 1219.37 2476.07 1214.1 2463.61 1211.22C2451.15 1208.35 2438.69 1206.91 2426.23 1206.91C2406.1 1206.91 2391.08 1210.26 2381.18 1216.97C2371.28 1223.36 2366.32 1231.67 2366.32 1241.89C2366.32 1250.52 2369.2 1257.23 2374.95 1262.02C2381.02 1266.49 2388.69 1270.01 2397.95 1272.56C2407.54 1275.12 2418.08 1277.36 2429.58 1279.27C2441.09 1280.87 2452.59 1283.11 2464.09 1285.98C2475.59 1288.54 2485.97 1292.21 2495.24 1297C2504.82 1301.8 2512.49 1308.51 2518.24 1317.13C2524.31 1325.76 2527.35 1337.26 2527.35 1351.64C2527.35 1366.97 2522.88 1380.23 2513.93 1391.42C2504.98 1402.6 2492.36 1411.38 2476.07 1417.77C2459.78 1423.84 2440.29 1426.88 2417.6 1426.88Z" fill="white"/>
<path d="M3830.83 1013.01V797.346H3882.11V1013.01H3830.83ZM3746.01 929.138V881.213H3966.94V929.138H3746.01Z" fill="#FFD700"/>
<path d="M3491.28 1075.79C3470.19 1075.79 3450.06 1072.91 3430.89 1067.16C3412.04 1061.41 3397.19 1054.38 3386.32 1046.07L3405.49 1009.65C3416.35 1017 3429.77 1023.23 3445.75 1028.34C3461.72 1033.45 3478.02 1036.01 3494.63 1036.01C3516.04 1036.01 3531.37 1032.97 3540.64 1026.9C3550.22 1020.83 3555.02 1012.37 3555.02 1001.5C3555.02 993.516 3552.14 987.286 3546.39 982.813C3540.64 978.34 3532.97 974.985 3523.39 972.749C3514.12 970.512 3503.74 968.595 3492.23 966.998C3480.73 965.081 3469.23 962.844 3457.73 960.289C3446.23 957.413 3435.68 953.579 3426.1 948.787C3416.51 943.675 3408.85 936.806 3403.1 928.179C3397.34 919.233 3394.47 907.412 3394.47 892.715C3394.47 877.379 3398.78 863.961 3407.41 852.459C3416.04 840.957 3428.18 832.171 3443.83 826.1C3459.81 819.711 3478.66 816.516 3500.38 816.516C3517 816.516 3533.77 818.592 3550.7 822.746C3567.96 826.58 3582.01 832.171 3592.88 839.519L3573.23 875.942C3561.73 868.274 3549.74 863.002 3537.28 860.127C3524.82 857.251 3512.36 855.814 3499.9 855.814C3479.77 855.814 3464.76 859.168 3454.85 865.878C3444.95 872.268 3440 880.574 3440 890.798C3440 899.425 3442.87 906.134 3448.62 910.926C3454.69 915.399 3462.36 918.914 3471.63 921.47C3481.21 924.026 3491.76 926.262 3503.26 928.179C3514.76 929.777 3526.26 932.013 3537.76 934.889C3549.26 937.445 3559.65 941.119 3568.91 945.911C3578.5 950.704 3586.17 957.413 3591.92 966.039C3597.99 974.666 3601.02 986.168 3601.02 1000.54C3601.02 1015.88 3596.55 1029.14 3587.6 1040.32C3578.66 1051.5 3566.04 1060.29 3549.74 1066.68C3533.45 1072.75 3513.96 1075.79 3491.28 1075.79Z" fill="white"/>
<path d="M3236.71 1072.91V818.912H3280.8V887.923L3276.49 870.67C3283.52 853.098 3295.34 839.679 3311.95 830.414C3328.57 821.148 3349.01 816.516 3373.3 816.516V861.085C3371.38 860.766 3369.46 860.606 3367.54 860.606C3365.95 860.606 3364.35 860.606 3362.75 860.606C3338.15 860.606 3318.66 867.954 3304.28 882.651C3289.91 897.348 3282.72 918.594 3282.72 946.39V1072.91H3236.71Z" fill="white"/>
<path d="M3055.67 1075.79C3030.11 1075.79 3007.43 1070.19 2987.62 1059.01C2967.81 1047.83 2952.15 1032.49 2940.65 1013.01C2929.15 993.197 2923.4 970.832 2923.4 945.911C2923.4 920.671 2929.15 898.306 2940.65 878.817C2952.15 859.328 2967.81 844.152 2987.62 833.289C3007.43 822.107 3030.11 816.516 3055.67 816.516C3080.91 816.516 3103.43 822.107 3123.24 833.289C3143.37 844.152 3159.03 859.328 3170.21 878.817C3181.71 897.987 3187.46 920.352 3187.46 945.911C3187.46 971.151 3181.71 993.516 3170.21 1013.01C3159.03 1032.49 3143.37 1047.83 3123.24 1059.01C3103.43 1070.19 3080.91 1075.79 3055.67 1075.79ZM3055.67 1035.53C3071.96 1035.53 3086.5 1031.86 3099.28 1024.51C3112.38 1017.16 3122.6 1006.78 3129.95 993.356C3137.3 979.618 3140.97 963.803 3140.97 945.911C3140.97 927.7 3137.3 912.045 3129.95 898.945C3122.6 885.527 3112.38 875.143 3099.28 867.795C3086.5 860.446 3071.96 856.772 3055.67 856.772C3039.38 856.772 3024.84 860.446 3012.06 867.795C2999.28 875.143 2989.05 885.527 2981.39 898.945C2973.72 912.045 2969.88 927.7 2969.88 945.911C2969.88 963.803 2973.72 979.618 2981.39 993.356C2989.05 1006.78 2999.28 1017.16 3012.06 1024.51C3024.84 1031.86 3039.38 1035.53 3055.67 1035.53Z" fill="white"/>
<path d="M2765.84 1075.79C2740.28 1075.79 2717.6 1070.19 2697.79 1059.01C2677.98 1047.83 2662.32 1032.49 2650.82 1013.01C2639.32 993.197 2633.57 970.832 2633.57 945.911C2633.57 920.671 2639.32 898.306 2650.82 878.817C2662.32 859.328 2677.98 844.152 2697.79 833.289C2717.6 822.107 2740.28 816.516 2765.84 816.516C2791.08 816.516 2813.6 822.107 2833.41 833.289C2853.54 844.152 2869.2 859.328 2880.38 878.817C2891.88 897.987 2897.63 920.352 2897.63 945.911C2897.63 971.151 2891.88 993.516 2880.38 1013.01C2869.2 1032.49 2853.54 1047.83 2833.41 1059.01C2813.6 1070.19 2791.08 1075.79 2765.84 1075.79ZM2765.84 1035.53C2782.13 1035.53 2796.67 1031.86 2809.45 1024.51C2822.55 1017.16 2832.77 1006.78 2840.12 993.356C2847.47 979.618 2851.14 963.803 2851.14 945.911C2851.14 927.7 2847.47 912.045 2840.12 898.945C2832.77 885.527 2822.55 875.143 2809.45 867.795C2796.67 860.446 2782.13 856.772 2765.84 856.772C2749.55 856.772 2735.01 860.446 2722.23 867.795C2709.45 875.143 2699.22 885.527 2691.56 898.945C2683.89 912.045 2680.05 927.7 2680.05 945.911C2680.05 963.803 2683.89 979.618 2691.56 993.356C2699.22 1006.78 2709.45 1017.16 2722.23 1024.51C2735.01 1031.86 2749.55 1035.53 2765.84 1035.53Z" fill="white"/>
<path d="M2449.71 1075.79C2425.11 1075.79 2403.07 1070.36 2383.58 1059.49C2364.41 1048.63 2349.23 1033.45 2338.05 1013.96C2326.87 994.476 2321.28 971.792 2321.28 945.912C2321.28 920.033 2326.87 897.509 2338.05 878.339C2349.23 858.85 2364.41 843.674 2383.58 832.811C2403.07 821.948 2425.11 816.517 2449.71 816.517C2471.12 816.517 2490.45 821.309 2507.7 830.894C2524.95 840.479 2538.69 854.856 2548.92 874.026C2559.46 893.196 2564.73 917.158 2564.73 945.912C2564.73 974.667 2559.62 998.629 2549.4 1017.8C2539.49 1036.97 2525.91 1051.51 2508.66 1061.41C2491.41 1070.99 2471.76 1075.79 2449.71 1075.79ZM2453.55 1035.53C2469.52 1035.53 2483.9 1031.86 2496.68 1024.51C2509.78 1017.16 2520 1006.78 2527.35 993.357C2535.02 979.619 2538.85 963.804 2538.85 945.912C2538.85 927.701 2535.02 912.046 2527.35 898.947C2520 885.528 2509.78 875.144 2496.68 867.796C2483.9 860.447 2469.52 856.773 2453.55 856.773C2437.25 856.773 2422.72 860.447 2409.94 867.796C2397.16 875.144 2386.93 885.528 2379.26 898.947C2371.6 912.046 2367.76 927.701 2367.76 945.912C2367.76 963.804 2371.6 979.619 2379.26 993.357C2386.93 1006.78 2397.16 1017.16 2409.94 1024.51C2422.72 1031.86 2437.25 1035.53 2453.55 1035.53ZM2540.29 1072.91V1004.38L2543.16 945.433L2538.37 886.486V717.313H2584.38V1072.91H2540.29Z" fill="white"/>
<path d="M1732.98 1426.88V1343.67L2079.51 924.465L2103.73 969.756H1739.3V864.428H2209.06V947.637L1862.53 1366.84L1836.2 1321.55H2218.54V1426.88H1732.98Z" fill="white"/>
<path fill-rule="evenodd" clip-rule="evenodd" d="M1506.45 864.428V1426.88H1638.11V864.428H1506.45Z" fill="white"/>
<path d="M1572.81 771.739C1548.23 771.739 1527.87 764.015 1511.72 748.567C1496.27 733.119 1488.55 714.511 1488.55 692.743C1488.55 670.273 1496.27 651.665 1511.72 636.919C1527.87 621.471 1548.23 613.747 1572.81 613.747C1597.39 613.747 1617.4 621.12 1632.85 635.866C1649 649.91 1657.07 667.815 1657.07 689.583C1657.07 712.755 1649.35 732.417 1633.9 748.567C1618.45 764.015 1598.09 771.739 1572.81 771.739Z" fill="#FFD700"/>
<path d="M1100.9 1426.88V864.429H1226.24V1019.26L1211.49 973.97C1228.35 936.052 1254.68 907.263 1290.49 887.601C1327 867.94 1372.3 858.109 1426.36 858.109V983.45C1420.75 982.046 1415.48 981.343 1410.57 981.343C1405.65 980.641 1400.73 980.29 1395.82 980.29C1345.96 980.29 1306.29 995.036 1276.8 1024.53C1247.31 1053.32 1232.56 1096.5 1232.56 1154.08V1426.88H1100.9Z" fill="white"/>
<path d="M722.197 1434.25C674.448 1434.25 631.966 1423.72 594.75 1402.65C557.534 1381.59 528.042 1349.99 506.274 1307.86C485.209 1265.03 474.676 1210.96 474.676 1145.65C474.676 1079.65 485.56 1025.58 507.328 983.449C529.798 941.318 559.641 910.07 596.857 889.707C634.775 868.641 676.555 858.109 722.197 858.109C777.67 858.109 826.472 870.046 868.603 893.92C911.437 917.794 945.142 951.148 969.718 993.982C994.997 1036.82 1007.64 1087.37 1007.64 1145.65C1007.64 1203.94 994.997 1254.49 969.718 1297.33C945.142 1340.16 911.437 1373.87 868.603 1398.44C826.472 1422.32 777.67 1434.25 722.197 1434.25ZM410.426 1426.88V645.346H542.086V995.035L531.553 1144.6L535.766 1294.17V1426.88H410.426ZM707.451 1321.55C739.05 1321.55 767.137 1314.53 791.714 1300.49C816.992 1286.44 837.005 1266.08 851.751 1239.4C866.497 1212.71 873.87 1181.47 873.87 1145.65C873.87 1109.14 866.497 1077.89 851.751 1051.91C837.005 1025.23 816.992 1004.87 791.714 990.822C767.137 976.778 739.05 969.756 707.451 969.756C675.853 969.756 647.414 976.778 622.135 990.822C596.857 1004.87 576.844 1025.23 562.098 1051.91C547.352 1077.89 539.979 1109.14 539.979 1145.65C539.979 1181.47 547.352 1212.71 562.098 1239.4C576.844 1266.08 596.857 1286.44 622.135 1300.49C647.414 1314.53 675.853 1321.55 707.451 1321.55Z" fill="white"/>
</svg>
