<svg width="280" height="128" viewBox="0 0 280 128" fill="none" xmlns="http://www.w3.org/2000/svg">
<path d="M246.828 89.18C245.51 89.18 244.252 89.0003 243.054 88.6408C241.876 88.2814 240.947 87.8421 240.269 87.3229L241.467 85.0465C242.146 85.5058 242.984 85.8952 243.983 86.2147C244.981 86.5342 246 86.6939 247.038 86.6939C248.376 86.6939 249.334 86.5042 249.913 86.1248C250.512 85.7454 250.812 85.2162 250.812 84.5373C250.812 84.0381 250.632 83.6487 250.273 83.3692C249.913 83.0896 249.434 82.8799 248.835 82.7402C248.256 82.6004 247.607 82.4806 246.888 82.3807C246.169 82.2609 245.45 82.1211 244.732 81.9614C244.013 81.7817 243.354 81.5421 242.755 81.2425C242.156 80.923 241.676 80.4937 241.317 79.9546C240.957 79.3954 240.778 78.6566 240.778 77.7381C240.778 76.7796 241.047 75.9409 241.586 75.222C242.126 74.5032 242.884 73.954 243.863 73.5746C244.861 73.1753 246.039 72.9756 247.397 72.9756C248.436 72.9756 249.484 73.1054 250.542 73.365C251.621 73.6046 252.499 73.954 253.178 74.4133L251.95 76.6897C251.231 76.2105 250.482 75.881 249.704 75.7013C248.925 75.5216 248.146 75.4317 247.367 75.4317C246.109 75.4317 245.171 75.6414 244.552 76.0607C243.933 76.4601 243.623 76.9793 243.623 77.6182C243.623 78.1574 243.803 78.5767 244.162 78.8763C244.542 79.1558 245.021 79.3755 245.6 79.5352C246.199 79.695 246.858 79.8347 247.577 79.9546C248.296 80.0544 249.015 80.1942 249.734 80.3739C250.452 80.5336 251.101 80.7633 251.681 81.0628C252.28 81.3623 252.759 81.7817 253.118 82.3208C253.498 82.86 253.687 83.5788 253.687 84.4774C253.687 85.4359 253.408 86.2646 252.849 86.9635C252.29 87.6624 251.501 88.2115 250.482 88.6109C249.464 88.9903 248.246 89.18 246.828 89.18Z" fill="white"/>
<path d="M231.263 72.9756C232.561 72.9756 233.699 73.2252 234.677 73.7244C235.676 74.2236 236.455 74.9824 237.014 76.0008C237.573 77.0192 237.852 78.3072 237.852 79.8647V89.0003H234.977V80.1942C234.977 78.6566 234.597 77.4984 233.839 76.7197C233.1 75.9409 232.051 75.5515 230.694 75.5515C229.675 75.5515 228.787 75.7512 228.028 76.1506C227.269 76.5499 226.68 77.139 226.261 77.9178C225.861 78.6965 225.662 79.665 225.662 80.8232V89.0003H222.786V73.1253H225.542V77.4086L225.092 76.2704C225.612 75.232 226.41 74.4233 227.489 73.8442C228.567 73.2651 229.825 72.9756 231.263 72.9756Z" fill="white"/>
<path d="M212.414 89.18C210.717 89.18 209.219 88.8305 207.922 88.1316C206.644 87.4327 205.645 86.4743 204.926 85.2562C204.227 84.0381 203.878 82.6403 203.878 81.0628C203.878 79.4853 204.217 78.0875 204.896 76.8694C205.595 75.6514 206.544 74.7029 207.742 74.0239C208.96 73.325 210.328 72.9756 211.845 72.9756C213.383 72.9756 214.741 73.315 215.919 73.994C217.097 74.6729 218.016 75.6314 218.675 76.8694C219.353 78.0875 219.693 79.5153 219.693 81.1527C219.693 81.2725 219.683 81.4123 219.663 81.572C219.663 81.7318 219.653 81.8815 219.633 82.0213H206.124V79.9546H218.135L216.967 80.6734C216.987 79.655 216.778 78.7465 216.338 77.9477C215.899 77.149 215.29 76.53 214.511 76.0907C213.752 75.6314 212.864 75.4018 211.845 75.4018C210.847 75.4018 209.958 75.6314 209.18 76.0907C208.401 76.53 207.792 77.159 207.352 77.9777C206.913 78.7764 206.693 79.695 206.693 80.7333V81.2126C206.693 82.2709 206.933 83.2194 207.412 84.0581C207.912 84.8768 208.6 85.5158 209.479 85.975C210.358 86.4343 211.366 86.664 212.504 86.664C213.443 86.664 214.291 86.5042 215.05 86.1847C215.829 85.8652 216.508 85.386 217.087 84.747L218.675 86.6041C217.956 87.4427 217.057 88.0817 215.979 88.521C214.92 88.9603 213.732 89.18 212.414 89.18Z" fill="white"/>
<path d="M194.971 89.18C193.274 89.18 191.776 88.8305 190.478 88.1316C189.2 87.4327 188.202 86.4743 187.483 85.2562C186.784 84.0381 186.435 82.6403 186.435 81.0628C186.435 79.4853 186.774 78.0875 187.453 76.8694C188.152 75.6514 189.1 74.7029 190.298 74.0239C191.517 73.325 192.884 72.9756 194.402 72.9756C195.94 72.9756 197.297 73.315 198.476 73.994C199.654 74.6729 200.572 75.6314 201.231 76.8694C201.91 78.0875 202.25 79.5153 202.25 81.1527C202.25 81.2725 202.24 81.4123 202.22 81.572C202.22 81.7318 202.21 81.8815 202.19 82.0213H188.681V79.9546H200.692L199.524 80.6734C199.544 79.655 199.334 78.7465 198.895 77.9477C198.456 77.149 197.847 76.53 197.068 76.0907C196.309 75.6314 195.42 75.4018 194.402 75.4018C193.404 75.4018 192.515 75.6314 191.736 76.0907C190.957 76.53 190.348 77.159 189.909 77.9777C189.47 78.7764 189.25 79.695 189.25 80.7333V81.2126C189.25 82.2709 189.49 83.2194 189.969 84.0581C190.468 84.8768 191.157 85.5158 192.036 85.975C192.914 86.4343 193.923 86.664 195.061 86.664C195.999 86.664 196.848 86.5042 197.607 86.1847C198.386 85.8652 199.065 85.386 199.644 84.747L201.231 86.6041C200.512 87.4427 199.614 88.0817 198.535 88.521C197.477 88.9603 196.289 89.18 194.971 89.18Z" fill="white"/>
<path d="M176.868 89.0003V73.1253H179.624V77.4385L179.354 76.3602C179.794 75.262 180.532 74.4233 181.571 73.8442C182.609 73.2651 183.887 72.9756 185.405 72.9756V75.7612C185.285 75.7412 185.165 75.7312 185.045 75.7312C184.945 75.7312 184.846 75.7312 184.746 75.7312C183.208 75.7312 181.99 76.1905 181.091 77.1091C180.193 78.0276 179.744 79.3555 179.744 81.0928V89.0003H176.868Z" fill="white"/>
<path d="M167.573 89.18C165.956 89.18 164.508 88.8305 163.23 88.1316C161.972 87.4327 160.984 86.4743 160.265 85.2562C159.546 84.0381 159.187 82.6403 159.187 81.0628C159.187 79.4853 159.546 78.0875 160.265 76.8694C160.984 75.6514 161.972 74.7029 163.23 74.0239C164.508 73.325 165.956 72.9756 167.573 72.9756C169.011 72.9756 170.289 73.2651 171.407 73.8442C172.545 74.4033 173.424 75.242 174.043 76.3602L171.857 77.768C171.337 76.9892 170.698 76.4201 169.94 76.0607C169.201 75.6813 168.402 75.4916 167.543 75.4916C166.505 75.4916 165.576 75.7212 164.758 76.1805C163.939 76.6398 163.29 77.2888 162.811 78.1274C162.332 78.9462 162.092 79.9246 162.092 81.0628C162.092 82.201 162.332 83.1895 162.811 84.0281C163.29 84.8668 163.939 85.5158 164.758 85.975C165.576 86.4343 166.505 86.664 167.543 86.664C168.402 86.664 169.201 86.4842 169.94 86.1248C170.698 85.7454 171.337 85.1663 171.857 84.3876L174.043 85.7654C173.424 86.8636 172.545 87.7123 171.407 88.3114C170.289 88.8904 169.011 89.18 167.573 89.18Z" fill="white"/>
<path d="M151.1 89.18C149.782 89.18 148.524 89.0003 147.326 88.6408C146.147 88.2814 145.219 87.8421 144.54 87.3229L145.738 85.0465C146.417 85.5058 147.256 85.8952 148.254 86.2147C149.253 86.5342 150.271 86.6939 151.309 86.6939C152.647 86.6939 153.606 86.5042 154.185 86.1248C154.784 85.7454 155.083 85.2162 155.083 84.5373C155.083 84.0381 154.904 83.6487 154.544 83.3692C154.185 83.0896 153.706 82.8799 153.107 82.7402C152.527 82.6004 151.878 82.4806 151.16 82.3807C150.441 82.2609 149.722 82.1211 149.003 81.9614C148.284 81.7817 147.625 81.5421 147.026 81.2425C146.427 80.923 145.948 80.4937 145.588 79.9546C145.229 79.3954 145.049 78.6566 145.049 77.7381C145.049 76.7796 145.319 75.9409 145.858 75.222C146.397 74.5032 147.156 73.954 148.134 73.5746C149.133 73.1753 150.311 72.9756 151.669 72.9756C152.707 72.9756 153.755 73.1054 154.814 73.365C155.892 73.6046 156.771 73.954 157.45 74.4133L156.222 76.6897C155.503 76.2105 154.754 75.881 153.975 75.7013C153.196 75.5216 152.418 75.4317 151.639 75.4317C150.381 75.4317 149.442 75.6414 148.823 76.0607C148.204 76.4601 147.895 76.9793 147.895 77.6182C147.895 78.1574 148.074 78.5767 148.434 78.8763C148.813 79.1558 149.293 79.3755 149.872 79.5352C150.471 79.695 151.13 79.8347 151.848 79.9546C152.567 80.0544 153.286 80.1942 154.005 80.3739C154.724 80.5336 155.373 80.7633 155.952 81.0628C156.551 81.3623 157.03 81.7817 157.39 82.3208C157.769 82.86 157.959 83.5788 157.959 84.4774C157.959 85.4359 157.679 86.2646 157.12 86.9635C156.561 87.6624 155.772 88.2115 154.754 88.6109C153.736 88.9903 152.517 89.18 151.1 89.18Z" fill="white"/>
<path d="M239.428 63.3127V49.834H242.633V63.3127H239.428ZM234.126 58.071V55.0757H247.934V58.071H234.126Z" fill="#FFD700"/>
<path d="M218.205 67.2366C216.887 67.2366 215.629 67.0569 214.431 66.6975C213.253 66.338 212.324 65.8987 211.646 65.3796L212.844 63.1032C213.523 63.5624 214.361 63.9518 215.36 64.2713C216.358 64.5908 217.376 64.7506 218.415 64.7506C219.753 64.7506 220.711 64.5609 221.29 64.1815C221.889 63.8021 222.189 63.2729 222.189 62.594C222.189 62.0948 222.009 61.7054 221.65 61.4258C221.29 61.1462 220.811 60.9366 220.212 60.7968C219.633 60.657 218.984 60.5372 218.265 60.4374C217.546 60.3176 216.827 60.1778 216.108 60.018C215.39 59.8383 214.731 59.5987 214.132 59.2992C213.533 58.9797 213.053 58.5504 212.694 58.0112C212.334 57.4521 212.155 56.7133 212.155 55.7947C212.155 54.8362 212.424 53.9975 212.963 53.2787C213.503 52.5598 214.261 52.0107 215.24 51.6313C216.238 51.2319 217.416 51.0322 218.774 51.0322C219.813 51.0322 220.861 51.162 221.919 51.4216C222.998 51.6612 223.876 52.0107 224.555 52.47L223.327 54.7464C222.608 54.2671 221.859 53.9376 221.081 53.7579C220.302 53.5782 219.523 53.4883 218.744 53.4883C217.486 53.4883 216.548 53.698 215.929 54.1174C215.31 54.5167 215 55.0359 215 55.6749C215 56.214 215.18 56.6334 215.539 56.9329C215.919 57.2125 216.398 57.4321 216.977 57.5919C217.576 57.7516 218.235 57.8914 218.954 58.0112C219.673 58.111 220.392 58.2508 221.111 58.4305C221.829 58.5903 222.478 58.8199 223.057 59.1195C223.657 59.419 224.136 59.8383 224.495 60.3775C224.875 60.9166 225.064 61.6355 225.064 62.5341C225.064 63.4925 224.785 64.3212 224.226 65.0201C223.667 65.719 222.878 66.2682 221.859 66.6675C220.841 67.0469 219.623 67.2366 218.205 67.2366Z" fill="white"/>
<path d="M202.294 67.0569V51.182H205.05V55.4952L204.78 54.4169C205.219 53.3186 205.958 52.4799 206.997 51.9009C208.035 51.3218 209.313 51.0322 210.83 51.0322V53.8178C210.711 53.7979 210.591 53.7879 210.471 53.7879C210.371 53.7879 210.271 53.7879 210.172 53.7879C208.634 53.7879 207.416 54.2471 206.517 55.1657C205.619 56.0842 205.169 57.4121 205.169 59.1494V67.0569H202.294Z" fill="white"/>
<path d="M190.979 67.2366C189.381 67.2366 187.964 66.8872 186.726 66.1883C185.488 65.4894 184.509 64.5309 183.79 63.3128C183.071 62.0748 182.712 60.677 182.712 59.1195C182.712 57.5419 183.071 56.1442 183.79 54.9261C184.509 53.708 185.488 52.7595 186.726 52.0806C187.964 51.3817 189.381 51.0322 190.979 51.0322C192.556 51.0322 193.964 51.3817 195.202 52.0806C196.46 52.7595 197.439 53.708 198.138 54.9261C198.856 56.1242 199.216 57.522 199.216 59.1195C199.216 60.697 198.856 62.0948 198.138 63.3128C197.439 64.5309 196.46 65.4894 195.202 66.1883C193.964 66.8872 192.556 67.2366 190.979 67.2366ZM190.979 64.7206C191.997 64.7206 192.906 64.491 193.705 64.0317C194.523 63.5724 195.162 62.9234 195.622 62.0848C196.081 61.2261 196.31 60.2377 196.31 59.1195C196.31 57.9812 196.081 57.0028 195.622 56.1841C195.162 55.3454 194.523 54.6964 193.705 54.2372C192.906 53.7779 191.997 53.5483 190.979 53.5483C189.96 53.5483 189.052 53.7779 188.253 54.2372C187.454 54.6964 186.815 55.3454 186.336 56.1841C185.857 57.0028 185.617 57.9812 185.617 59.1195C185.617 60.2377 185.857 61.2261 186.336 62.0848C186.815 62.9234 187.454 63.5724 188.253 64.0317C189.052 64.491 189.96 64.7206 190.979 64.7206Z" fill="white"/>
<path d="M172.866 67.2366C171.268 67.2366 169.85 66.8872 168.612 66.1883C167.374 65.4894 166.396 64.5309 165.677 63.3128C164.958 62.0748 164.599 60.677 164.599 59.1195C164.599 57.5419 164.958 56.1442 165.677 54.9261C166.396 53.708 167.374 52.7595 168.612 52.0806C169.85 51.3817 171.268 51.0322 172.866 51.0322C174.443 51.0322 175.851 51.3817 177.089 52.0806C178.347 52.7595 179.325 53.708 180.024 54.9261C180.743 56.1242 181.103 57.522 181.103 59.1195C181.103 60.697 180.743 62.0948 180.024 63.3128C179.325 64.5309 178.347 65.4894 177.089 66.1883C175.851 66.8872 174.443 67.2366 172.866 67.2366ZM172.866 64.7206C173.884 64.7206 174.793 64.491 175.591 64.0317C176.41 63.5724 177.049 62.9234 177.508 62.0848C177.968 61.2261 178.197 60.2377 178.197 59.1195C178.197 57.9812 177.968 57.0028 177.508 56.1841C177.049 55.3454 176.41 54.6964 175.591 54.2372C174.793 53.7779 173.884 53.5483 172.866 53.5483C171.847 53.5483 170.939 53.7779 170.14 54.2372C169.341 54.6964 168.702 55.3454 168.223 56.1841C167.744 57.0028 167.504 57.9812 167.504 59.1195C167.504 60.2377 167.744 61.2261 168.223 62.0848C168.702 62.9234 169.341 63.5724 170.14 64.0317C170.939 64.491 171.847 64.7206 172.866 64.7206Z" fill="white"/>
<path d="M153.106 67.2366C151.569 67.2366 150.191 66.8972 148.973 66.2182C147.775 65.5393 146.826 64.5908 146.127 63.3727C145.429 62.1547 145.079 60.7369 145.079 59.1195C145.079 57.502 145.429 56.0942 146.127 54.8961C146.826 53.6781 147.775 52.7296 148.973 52.0506C150.191 51.3717 151.569 51.0322 153.106 51.0322C154.444 51.0322 155.652 51.3318 156.731 51.9308C157.809 52.5299 158.668 53.4285 159.307 54.6266C159.966 55.8247 160.295 57.3223 160.295 59.1195C160.295 60.9166 159.976 62.4143 159.337 63.6124C158.718 64.8105 157.869 65.719 156.791 66.3381C155.712 66.9371 154.484 67.2366 153.106 67.2366ZM153.346 64.7206C154.344 64.7206 155.243 64.491 156.042 64.0317C156.86 63.5724 157.499 62.9235 157.959 62.0848C158.438 61.2261 158.678 60.2377 158.678 59.1195C158.678 57.9813 158.438 57.0028 157.959 56.1841C157.499 55.3454 156.86 54.6964 156.042 54.2372C155.243 53.7779 154.344 53.5483 153.346 53.5483C152.328 53.5483 151.419 53.7779 150.62 54.2372C149.822 54.6964 149.183 55.3454 148.703 56.1841C148.224 57.0028 147.985 57.9813 147.985 59.1195C147.985 60.2377 148.224 61.2261 148.703 62.0848C149.183 62.9235 149.822 63.5724 150.62 64.0317C151.419 64.491 152.328 64.7206 153.346 64.7206ZM158.767 67.0569V62.7737L158.947 59.0895L158.648 55.4053V44.832H161.523V67.0569H158.767Z" fill="white"/>
<path d="M108.313 89.1806V83.98L129.972 57.7797L131.486 60.6104H108.708V54.0273H138.069V59.2279L116.411 85.4283L114.765 82.5976H138.661V89.1806H108.313Z" fill="white"/>
<path fill-rule="evenodd" clip-rule="evenodd" d="M94.1552 54.0269V89.1802H102.384V54.0269H94.1552Z" fill="white"/>
<path d="M98.3025 48.2339C96.7665 48.2339 95.4938 47.7511 94.4844 46.7856C93.5189 45.8201 93.0361 44.6571 93.0361 43.2966C93.0361 41.8923 93.5189 40.7293 94.4844 39.8076C95.4938 38.8421 96.7665 38.3594 98.3025 38.3594C99.8386 38.3594 101.089 38.8202 102.055 39.7418C103.064 40.6195 103.569 41.7387 103.569 43.0991C103.569 44.5474 103.086 45.7762 102.121 46.7856C101.155 47.7511 99.8825 48.2339 98.3025 48.2339Z" fill="#FFD700"/>
<path d="M68.8076 89.1801V54.0268H76.6414V63.7038L75.7198 60.8731C76.7731 58.5033 78.4188 56.7039 80.657 55.4751C82.9391 54.2463 85.7698 53.6318 89.1491 53.6318V61.4656C88.798 61.3778 88.4689 61.334 88.1617 61.334C87.8545 61.2901 87.5472 61.2681 87.24 61.2681C84.1241 61.2681 81.6445 62.1897 79.8012 64.033C77.958 65.8323 77.0364 68.5314 77.0364 72.1301V89.1801H68.8076Z" fill="white"/>
<path d="M45.139 89.6407C42.1547 89.6407 39.4996 88.9824 37.1736 87.6658C34.8476 86.3492 33.0043 84.3743 31.6439 81.7411C30.3273 79.064 29.669 75.6847 29.669 71.6033C29.669 67.4779 30.3492 64.0986 31.7097 61.4654C33.1141 58.8322 34.9792 56.8793 37.3052 55.6066C39.6751 54.29 42.2864 53.6317 45.139 53.6317C48.6061 53.6317 51.6562 54.3777 54.2894 55.8699C56.9665 57.362 59.0731 59.4467 60.6091 62.1237C62.189 64.8008 62.979 67.9607 62.979 71.6033C62.979 75.2459 62.189 78.4057 60.6091 81.0828C59.0731 83.7599 56.9665 85.8665 54.2894 87.4025C51.6562 88.8946 48.6061 89.6407 45.139 89.6407ZM25.6533 89.1799V40.334H33.8821V62.1896L33.2238 71.5374L33.4871 80.8853V89.1799H25.6533ZM44.2174 82.5969C46.1923 82.5969 47.9478 82.158 49.4838 81.2803C51.0637 80.4026 52.3145 79.1298 53.2361 77.4622C54.1577 75.7945 54.6186 73.8415 54.6186 71.6033C54.6186 69.3212 54.1577 67.3682 53.2361 65.7444C52.3145 64.0767 51.0637 62.804 49.4838 61.9263C47.9478 61.0485 46.1923 60.6096 44.2174 60.6096C42.2425 60.6096 40.4651 61.0485 38.8852 61.9263C37.3052 62.804 36.0545 64.0767 35.1329 65.7444C34.2112 67.3682 33.7504 69.3212 33.7504 71.6033C33.7504 73.8415 34.2112 75.7945 35.1329 77.4622C36.0545 79.1298 37.3052 80.4026 38.8852 81.2803C40.4651 82.158 42.2425 82.5969 44.2174 82.5969Z" fill="white"/>
</svg>
