<svg width="559" height="256" viewBox="0 0 559 256" fill="none" xmlns="http://www.w3.org/2000/svg">
<path d="M493.659 178.36C491.023 178.36 488.507 178.001 486.111 177.282C483.755 176.563 481.898 175.684 480.54 174.646L482.936 170.093C484.294 171.012 485.971 171.79 487.968 172.429C489.965 173.068 492.002 173.388 494.079 173.388C496.754 173.388 498.671 173.008 499.83 172.25C501.028 171.491 501.627 170.432 501.627 169.075C501.627 168.076 501.267 167.297 500.548 166.738C499.83 166.179 498.871 165.76 497.673 165.48C496.515 165.201 495.217 164.961 493.779 164.761C492.341 164.522 490.904 164.242 489.466 163.923C488.028 163.563 486.71 163.084 485.512 162.485C484.314 161.846 483.356 160.987 482.637 159.909C481.918 158.791 481.558 157.313 481.558 155.476C481.558 153.559 482.098 151.882 483.176 150.444C484.254 149.006 485.772 147.908 487.729 147.149C489.726 146.351 492.082 145.951 494.798 145.951C496.874 145.951 498.971 146.211 501.088 146.73C503.244 147.209 505.001 147.908 506.359 148.827L503.903 153.379C502.465 152.421 500.968 151.762 499.41 151.403C497.853 151.043 496.295 150.863 494.738 150.863C492.222 150.863 490.345 151.283 489.107 152.121C487.868 152.92 487.249 153.959 487.249 155.236C487.249 156.315 487.609 157.153 488.328 157.753C489.087 158.312 490.045 158.751 491.203 159.07C492.401 159.39 493.719 159.669 495.157 159.909C496.595 160.109 498.032 160.388 499.47 160.748C500.908 161.067 502.206 161.527 503.364 162.126C504.562 162.725 505.521 163.563 506.239 164.642C506.998 165.72 507.378 167.158 507.378 168.955C507.378 170.872 506.819 172.529 505.7 173.927C504.582 175.325 503.005 176.423 500.968 177.222C498.931 177.981 496.495 178.36 493.659 178.36Z" fill="white"/>
<path d="M462.528 145.951C465.124 145.951 467.401 146.45 469.358 147.449C471.354 148.447 472.912 149.965 474.03 152.002C475.148 154.038 475.708 156.614 475.708 159.729V178.001H469.957V160.388C469.957 157.313 469.198 154.997 467.68 153.439C466.203 151.882 464.106 151.103 461.39 151.103C459.353 151.103 457.576 151.502 456.059 152.301C454.541 153.1 453.363 154.278 452.524 155.836C451.725 157.393 451.326 159.33 451.326 161.646V178.001H445.575V146.251H451.086V154.817L450.188 152.541C451.226 150.464 452.824 148.847 454.98 147.688C457.137 146.53 459.653 145.951 462.528 145.951Z" fill="white"/>
<path d="M424.83 178.36C421.435 178.36 418.44 177.661 415.844 176.263C413.288 174.865 411.291 172.949 409.854 170.512C408.456 168.076 407.757 165.281 407.757 162.126C407.757 158.971 408.436 156.175 409.794 153.739C411.191 151.303 413.088 149.406 415.485 148.048C417.921 146.65 420.656 145.951 423.692 145.951C426.767 145.951 429.483 146.63 431.839 147.988C434.195 149.346 436.032 151.263 437.35 153.739C438.708 156.175 439.387 159.031 439.387 162.305C439.387 162.545 439.367 162.825 439.327 163.144C439.327 163.464 439.307 163.763 439.267 164.043H412.25V159.909H436.272L433.935 161.347C433.975 159.31 433.556 157.493 432.677 155.895C431.799 154.298 430.581 153.06 429.023 152.181C427.506 151.263 425.728 150.804 423.692 150.804C421.695 150.804 419.918 151.263 418.36 152.181C416.803 153.06 415.584 154.318 414.706 155.955C413.827 157.553 413.388 159.39 413.388 161.467V162.425C413.388 164.542 413.867 166.439 414.826 168.116C415.824 169.754 417.202 171.032 418.959 171.95C420.716 172.869 422.733 173.328 425.01 173.328C426.887 173.328 428.584 173.008 430.102 172.369C431.659 171.73 433.017 170.772 434.175 169.494L437.35 173.208C435.912 174.885 434.115 176.163 431.959 177.042C429.842 177.921 427.466 178.36 424.83 178.36Z" fill="white"/>
<path d="M389.945 178.36C386.55 178.36 383.555 177.661 380.959 176.263C378.403 174.865 376.406 172.949 374.969 170.512C373.571 168.076 372.872 165.281 372.872 162.126C372.872 158.971 373.551 156.175 374.909 153.739C376.307 151.303 378.204 149.406 380.6 148.048C383.036 146.65 385.772 145.951 388.807 145.951C391.882 145.951 394.598 146.63 396.954 147.988C399.31 149.346 401.147 151.263 402.465 153.739C403.823 156.175 404.502 159.031 404.502 162.305C404.502 162.545 404.482 162.825 404.442 163.144C404.442 163.464 404.422 163.763 404.382 164.043H377.365V159.909H401.387L399.051 161.347C399.091 159.31 398.671 157.493 397.793 155.895C396.914 154.298 395.696 153.06 394.138 152.181C392.621 151.263 390.844 150.804 388.807 150.804C386.81 150.804 385.033 151.263 383.475 152.181C381.918 153.06 380.7 154.318 379.821 155.955C378.942 157.553 378.503 159.39 378.503 161.467V162.425C378.503 164.542 378.982 166.439 379.941 168.116C380.939 169.754 382.317 171.032 384.074 171.95C385.832 172.869 387.848 173.328 390.125 173.328C392.002 173.328 393.699 173.008 395.217 172.369C396.774 171.73 398.132 170.772 399.29 169.494L402.465 173.208C401.028 174.885 399.23 176.163 397.074 177.042C394.957 177.921 392.581 178.36 389.945 178.36Z" fill="white"/>
<path d="M353.737 178.001V146.251H359.249V154.877L358.709 152.72C359.588 150.524 361.066 148.847 363.142 147.688C365.219 146.53 367.775 145.951 370.81 145.951V151.522C370.571 151.482 370.331 151.462 370.091 151.462C369.892 151.462 369.692 151.462 369.492 151.462C366.417 151.462 363.981 152.381 362.184 154.218C360.387 156.055 359.488 158.711 359.488 162.186V178.001H353.737Z" fill="white"/>
<path d="M335.149 178.36C331.915 178.36 329.019 177.661 326.463 176.263C323.947 174.865 321.97 172.949 320.533 170.512C319.095 168.076 318.376 165.281 318.376 162.126C318.376 158.971 319.095 156.175 320.533 153.739C321.97 151.303 323.947 149.406 326.463 148.048C329.019 146.65 331.915 145.951 335.149 145.951C338.025 145.951 340.581 146.53 342.817 147.688C345.094 148.807 346.851 150.484 348.089 152.72L343.716 155.536C342.678 153.978 341.4 152.84 339.882 152.121C338.404 151.363 336.807 150.983 335.09 150.983C333.013 150.983 331.156 151.442 329.518 152.361C327.881 153.28 326.583 154.578 325.625 156.255C324.666 157.892 324.187 159.849 324.187 162.126C324.187 164.402 324.666 166.379 325.625 168.056C326.583 169.734 327.881 171.032 329.518 171.95C331.156 172.869 333.013 173.328 335.09 173.328C336.807 173.328 338.404 172.968 339.882 172.25C341.4 171.491 342.678 170.333 343.716 168.775L348.089 171.531C346.851 173.727 345.094 175.425 342.817 176.623C340.581 177.781 338.025 178.36 335.149 178.36Z" fill="white"/>
<path d="M302.202 178.36C299.566 178.36 297.05 178.001 294.654 177.282C292.298 176.563 290.441 175.684 289.083 174.646L291.479 170.093C292.837 171.012 294.514 171.79 296.511 172.429C298.508 173.068 300.545 173.388 302.622 173.388C305.297 173.388 307.214 173.008 308.373 172.25C309.571 171.491 310.17 170.432 310.17 169.075C310.17 168.076 309.81 167.297 309.091 166.738C308.373 166.179 307.414 165.76 306.216 165.48C305.058 165.201 303.76 164.961 302.322 164.761C300.884 164.522 299.447 164.242 298.009 163.923C296.571 163.563 295.253 163.084 294.055 162.485C292.857 161.846 291.899 160.987 291.18 159.909C290.461 158.791 290.101 157.313 290.101 155.476C290.101 153.559 290.641 151.882 291.719 150.444C292.797 149.006 294.315 147.908 296.272 147.149C298.268 146.351 300.625 145.951 303.34 145.951C305.417 145.951 307.514 146.211 309.631 146.73C311.787 147.209 313.544 147.908 314.902 148.827L312.446 153.379C311.008 152.421 309.511 151.762 307.953 151.403C306.396 151.043 304.838 150.863 303.281 150.863C300.765 150.863 298.888 151.283 297.649 152.121C296.411 152.92 295.792 153.959 295.792 155.236C295.792 156.315 296.152 157.153 296.871 157.753C297.63 158.312 298.588 158.751 299.746 159.07C300.944 159.39 302.262 159.669 303.7 159.909C305.138 160.109 306.575 160.388 308.013 160.748C309.451 161.067 310.749 161.527 311.907 162.126C313.105 162.725 314.064 163.563 314.782 164.642C315.541 165.72 315.921 167.158 315.921 168.955C315.921 170.872 315.361 172.529 314.243 173.927C313.125 175.325 311.548 176.423 309.511 177.222C307.474 177.981 305.038 178.36 302.202 178.36Z" fill="white"/>
<path d="M478.856 126.625V99.668H485.266V126.625H478.856ZM468.253 116.142V110.151H495.869V116.142H468.253Z" fill="#FFD700"/>
<path d="M436.411 134.473C433.775 134.473 431.259 134.114 428.863 133.395C426.507 132.676 424.65 131.797 423.292 130.759L425.688 126.206C427.046 127.125 428.723 127.904 430.72 128.543C432.717 129.182 434.754 129.501 436.831 129.501C439.506 129.501 441.423 129.122 442.582 128.363C443.78 127.604 444.379 126.546 444.379 125.188C444.379 124.19 444.019 123.411 443.3 122.852C442.582 122.292 441.623 121.873 440.425 121.594C439.267 121.314 437.969 121.074 436.531 120.875C435.093 120.635 433.656 120.356 432.218 120.036C430.78 119.677 429.462 119.197 428.264 118.598C427.066 117.959 426.108 117.101 425.389 116.022C424.67 114.904 424.31 113.427 424.31 111.589C424.31 109.672 424.85 107.995 425.928 106.557C427.006 105.12 428.524 104.021 430.481 103.263C432.477 102.464 434.834 102.064 437.549 102.064C439.626 102.064 441.723 102.324 443.84 102.843C445.996 103.322 447.753 104.021 449.111 104.94L446.655 109.493C445.217 108.534 443.72 107.875 442.162 107.516C440.605 107.156 439.047 106.977 437.49 106.977C434.974 106.977 433.097 107.396 431.858 108.235C430.62 109.033 430.001 110.072 430.001 111.35C430.001 112.428 430.361 113.267 431.08 113.866C431.838 114.425 432.797 114.864 433.955 115.184C435.153 115.503 436.471 115.783 437.909 116.022C439.347 116.222 440.784 116.502 442.222 116.861C443.66 117.181 444.958 117.64 446.116 118.239C447.314 118.838 448.273 119.677 448.991 120.755C449.75 121.833 450.13 123.271 450.13 125.068C450.13 126.985 449.57 128.642 448.452 130.04C447.334 131.438 445.757 132.536 443.72 133.335C441.683 134.094 439.247 134.473 436.411 134.473Z" fill="white"/>
<path d="M404.591 134.114V102.364H410.102V110.99L409.563 108.834C410.442 106.637 411.919 104.96 413.996 103.802C416.073 102.644 418.629 102.064 421.664 102.064V107.636C421.424 107.596 421.185 107.576 420.945 107.576C420.745 107.576 420.546 107.576 420.346 107.576C417.271 107.576 414.835 108.494 413.037 110.331C411.24 112.168 410.342 114.824 410.342 118.299V134.114H404.591Z" fill="white"/>
<path d="M381.961 134.473C378.766 134.473 375.93 133.774 373.454 132.377C370.978 130.979 369.021 129.062 367.583 126.626C366.146 124.15 365.427 121.354 365.427 118.239C365.427 115.084 366.146 112.288 367.583 109.852C369.021 107.416 370.978 105.519 373.454 104.161C375.93 102.763 378.766 102.064 381.961 102.064C385.116 102.064 387.931 102.763 390.407 104.161C392.923 105.519 394.88 107.416 396.278 109.852C397.716 112.248 398.435 115.044 398.435 118.239C398.435 121.394 397.716 124.19 396.278 126.626C394.88 129.062 392.923 130.979 390.407 132.377C387.931 133.774 385.116 134.473 381.961 134.473ZM381.961 129.441C383.997 129.441 385.815 128.982 387.412 128.063C389.049 127.145 390.327 125.847 391.246 124.17C392.165 122.452 392.624 120.475 392.624 118.239C392.624 115.962 392.165 114.006 391.246 112.368C390.327 110.691 389.049 109.393 387.412 108.474C385.815 107.556 383.997 107.097 381.961 107.097C379.924 107.097 378.107 107.556 376.509 108.474C374.912 109.393 373.634 110.691 372.675 112.368C371.717 114.006 371.238 115.962 371.238 118.239C371.238 120.475 371.717 122.452 372.675 124.17C373.634 125.847 374.912 127.145 376.509 128.063C378.107 128.982 379.924 129.441 381.961 129.441Z" fill="white"/>
<path d="M345.732 134.473C342.537 134.473 339.702 133.774 337.226 132.377C334.749 130.979 332.793 129.062 331.355 126.626C329.917 124.15 329.198 121.354 329.198 118.239C329.198 115.084 329.917 112.288 331.355 109.852C332.793 107.416 334.749 105.519 337.226 104.161C339.702 102.763 342.537 102.064 345.732 102.064C348.887 102.064 351.703 102.763 354.179 104.161C356.695 105.519 358.652 107.416 360.05 109.852C361.487 112.248 362.206 115.044 362.206 118.239C362.206 121.394 361.487 124.19 360.05 126.626C358.652 129.062 356.695 130.979 354.179 132.377C351.703 133.774 348.887 134.473 345.732 134.473ZM345.732 129.441C347.769 129.441 349.586 128.982 351.184 128.063C352.821 127.145 354.099 125.847 355.017 124.17C355.936 122.452 356.395 120.475 356.395 118.239C356.395 115.962 355.936 114.006 355.017 112.368C354.099 110.691 352.821 109.393 351.184 108.474C349.586 107.556 347.769 107.097 345.732 107.097C343.695 107.097 341.878 107.556 340.281 108.474C338.683 109.393 337.405 110.691 336.447 112.368C335.488 114.006 335.009 115.962 335.009 118.239C335.009 120.475 335.488 122.452 336.447 124.17C337.405 125.847 338.683 127.145 340.281 128.063C341.878 128.982 343.695 129.441 345.732 129.441Z" fill="white"/>
<path d="M306.216 134.473C303.141 134.473 300.385 133.794 297.949 132.436C295.553 131.079 293.656 129.182 292.258 126.745C290.86 124.309 290.161 121.474 290.161 118.239C290.161 115.004 290.86 112.188 292.258 109.792C293.656 107.356 295.553 105.459 297.949 104.101C300.385 102.743 303.141 102.064 306.216 102.064C308.892 102.064 311.308 102.664 313.464 103.862C315.621 105.06 317.338 106.857 318.616 109.253C319.934 111.649 320.593 114.645 320.593 118.239C320.593 121.833 319.954 124.829 318.676 127.225C317.438 129.621 315.741 131.438 313.584 132.676C311.428 133.874 308.971 134.473 306.216 134.473ZM306.695 129.441C308.692 129.441 310.489 128.982 312.086 128.063C313.724 127.145 315.002 125.847 315.92 124.17C316.879 122.452 317.358 120.475 317.358 118.239C317.358 115.963 316.879 114.006 315.92 112.368C315.002 110.691 313.724 109.393 312.086 108.474C310.489 107.556 308.692 107.097 306.695 107.097C304.658 107.097 302.841 107.556 301.244 108.474C299.646 109.393 298.368 110.691 297.41 112.368C296.451 114.006 295.972 115.963 295.972 118.239C295.972 120.475 296.451 122.452 297.41 124.17C298.368 125.847 299.646 127.145 301.244 128.063C302.841 128.982 304.658 129.441 306.695 129.441ZM317.538 134.114V125.547L317.897 118.179L317.298 110.811V89.6641H323.049V134.114H317.538Z" fill="white"/>
<path d="M216.624 178.36V167.959L259.94 115.558L262.968 121.22H217.414V108.054H276.134V118.455L232.818 170.856L229.527 165.194H277.319V178.36H216.624Z" fill="white"/>
<path fill-rule="evenodd" clip-rule="evenodd" d="M188.31 108.054V178.36H204.767V108.054H188.31Z" fill="white"/>
<path d="M196.604 96.4678C193.532 96.4678 190.987 95.5023 188.968 93.5712C187.037 91.6402 186.071 89.3142 186.071 86.5933C186.071 83.7845 187.037 81.4585 188.968 79.6153C190.987 77.6843 193.532 76.7188 196.604 76.7188C199.676 76.7188 202.178 77.6404 204.109 79.4836C206.128 81.2391 207.137 83.4773 207.137 86.1983C207.137 89.0948 206.171 91.5525 204.24 93.5712C202.309 95.5023 199.764 96.4678 196.604 96.4678Z" fill="#FFD700"/>
<path d="M137.614 178.36V108.054H153.282V127.408L151.439 121.746C153.545 117.007 156.837 113.408 161.313 110.95C165.877 108.493 171.539 107.264 178.297 107.264V122.931C177.595 122.756 176.937 122.668 176.322 122.668C175.708 122.58 175.094 122.536 174.479 122.536C168.247 122.536 163.288 124.379 159.602 128.066C155.915 131.665 154.072 137.063 154.072 144.26V178.36H137.614Z" fill="white"/>
<path d="M90.2771 179.281C84.3085 179.281 78.9982 177.965 74.3462 175.332C69.6942 172.698 66.0077 168.749 63.2867 163.482C60.6535 158.128 59.3369 151.369 59.3369 143.207C59.3369 134.956 60.6974 128.197 63.4184 122.931C66.2271 117.664 69.9575 113.759 74.6095 111.213C79.3493 108.58 84.5718 107.263 90.2771 107.263C97.2112 107.263 103.311 108.755 108.578 111.74C113.932 114.724 118.145 118.893 121.217 124.247C124.377 129.602 125.957 135.921 125.957 143.207C125.957 150.492 124.377 156.811 121.217 162.166C118.145 167.52 113.932 171.733 108.578 174.805C103.311 177.789 97.2112 179.281 90.2771 179.281ZM51.3057 178.36V80.668H67.7632V124.379L66.4466 143.075L66.9732 161.771V178.36H51.3057ZM88.4338 165.194C92.3836 165.194 95.8946 164.316 98.9666 162.561C102.126 160.805 104.628 158.26 106.471 154.924C108.315 151.589 109.236 147.683 109.236 143.207C109.236 138.642 108.315 134.736 106.471 131.489C104.628 128.153 102.126 125.608 98.9666 123.853C95.8946 122.097 92.3836 121.219 88.4338 121.219C84.484 121.219 80.9292 122.097 77.7694 123.853C74.6095 125.608 72.108 128.153 70.2647 131.489C68.4215 134.736 67.4999 138.642 67.4999 143.207C67.4999 147.683 68.4215 151.589 70.2647 154.924C72.108 158.26 74.6095 160.805 77.7694 162.561C80.9292 164.316 84.484 165.194 88.4338 165.194Z" fill="white"/>
</svg>
