<svg width="1118" height="512" viewBox="0 0 1118 512" fill="none" xmlns="http://www.w3.org/2000/svg">
<path d="M987.313 356.719C982.041 356.719 977.009 356 972.217 354.562C967.504 353.125 963.79 351.367 961.074 349.291L965.867 340.185C968.582 342.022 971.937 343.58 975.931 344.858C979.924 346.136 983.998 346.775 988.151 346.775C993.503 346.775 997.337 346.016 999.653 344.498C1002.05 342.981 1003.25 340.864 1003.25 338.148C1003.25 336.151 1002.53 334.594 1001.09 333.476C999.653 332.357 997.736 331.519 995.34 330.96C993.024 330.401 990.428 329.921 987.552 329.522C984.677 329.043 981.801 328.484 978.926 327.845C976.051 327.126 973.415 326.167 971.019 324.969C968.622 323.691 966.705 321.974 965.268 319.817C963.83 317.581 963.111 314.625 963.111 310.951C963.111 307.117 964.189 303.763 966.346 300.887C968.502 298.012 971.538 295.815 975.452 294.298C979.445 292.7 984.158 291.901 989.589 291.901C993.743 291.901 997.936 292.421 1002.17 293.459C1006.48 294.417 1010 295.815 1012.71 297.652L1007.8 306.758C1004.92 304.841 1001.93 303.523 998.815 302.804C995.7 302.085 992.584 301.726 989.469 301.726C984.437 301.726 980.683 302.565 978.207 304.242C975.731 305.839 974.493 307.916 974.493 310.472C974.493 312.629 975.212 314.306 976.65 315.504C978.167 316.622 980.084 317.501 982.401 318.14C984.797 318.779 987.433 319.338 990.308 319.817C993.183 320.217 996.059 320.776 998.934 321.495C1001.81 322.134 1004.41 323.052 1006.72 324.25C1009.12 325.448 1011.04 327.126 1012.47 329.282C1013.99 331.439 1014.75 334.314 1014.75 337.909C1014.75 341.743 1013.63 345.057 1011.39 347.853C1009.16 350.649 1006 352.845 1001.93 354.443C997.856 355.96 992.984 356.719 987.313 356.719Z" fill="white"/>
<path d="M925.051 291.901C930.243 291.901 934.796 292.9 938.709 294.897C942.703 296.893 945.818 299.929 948.055 304.002C950.291 308.076 951.409 313.228 951.409 319.458V356H939.907V320.776C939.907 314.625 938.39 309.993 935.355 306.878C932.399 303.763 928.206 302.205 922.775 302.205C918.701 302.205 915.147 303.004 912.111 304.601C909.076 306.199 906.72 308.555 905.043 311.67C903.445 314.785 902.646 318.659 902.646 323.292V356H891.145V292.5H902.167V309.633L900.37 305.081C902.447 300.927 905.642 297.692 909.955 295.376C914.268 293.06 919.3 291.901 925.051 291.901Z" fill="white"/>
<path d="M849.654 356.719C842.865 356.719 836.874 355.321 831.682 352.526C826.57 349.73 822.577 345.896 819.701 341.024C816.906 336.151 815.508 330.56 815.508 324.25C815.508 317.94 816.866 312.349 819.581 307.477C822.377 302.604 826.171 298.81 830.963 296.095C835.836 293.299 841.307 291.901 847.377 291.901C853.528 291.901 858.959 293.259 863.672 295.975C868.384 298.691 872.058 302.525 874.694 307.477C877.41 312.349 878.768 318.06 878.768 324.61C878.768 325.089 878.728 325.648 878.648 326.287C878.648 326.926 878.608 327.525 878.528 328.084H824.494V319.817H872.538L867.865 322.693C867.945 318.619 867.106 314.985 865.349 311.79C863.592 308.595 861.156 306.119 858.041 304.362C855.005 302.525 851.451 301.606 847.377 301.606C843.384 301.606 839.829 302.525 836.714 304.362C833.599 306.119 831.163 308.635 829.406 311.91C827.649 315.105 826.77 318.779 826.77 322.932V324.849C826.77 329.083 827.729 332.877 829.645 336.231C831.642 339.506 834.398 342.062 837.912 343.899C841.427 345.736 845.461 346.655 850.013 346.655C853.767 346.655 857.162 346.016 860.197 344.738C863.312 343.46 866.028 341.543 868.344 338.987L874.694 346.415C871.819 349.77 868.225 352.326 863.911 354.083C859.678 355.84 854.926 356.719 849.654 356.719Z" fill="white"/>
<path d="M779.886 356.719C773.097 356.719 767.106 355.321 761.915 352.526C756.803 349.73 752.809 345.896 749.934 341.024C747.138 336.151 745.74 330.56 745.74 324.25C745.74 317.94 747.098 312.349 749.814 307.477C752.609 302.604 756.403 298.81 761.196 296.095C766.068 293.299 771.539 291.901 777.61 291.901C783.76 291.901 789.192 293.259 793.904 295.975C798.617 298.691 802.291 302.525 804.927 307.477C807.642 312.349 809 318.06 809 324.61C809 325.089 808.96 325.648 808.88 326.287C808.88 326.926 808.841 327.525 808.761 328.084H754.726V319.817H802.77L798.098 322.693C798.177 318.619 797.339 314.985 795.582 311.79C793.824 308.595 791.388 306.119 788.273 304.362C785.238 302.525 781.683 301.606 777.61 301.606C773.616 301.606 770.062 302.525 766.947 304.362C763.832 306.119 761.396 308.635 759.638 311.91C757.881 315.105 757.002 318.779 757.002 322.932V324.849C757.002 329.083 757.961 332.877 759.878 336.231C761.875 339.506 764.63 342.062 768.145 343.899C771.659 345.736 775.693 346.655 780.246 346.655C784 346.655 787.394 346.016 790.43 344.738C793.545 343.46 796.26 341.543 798.577 338.987L804.927 346.415C802.051 349.77 798.457 352.326 794.144 354.083C789.91 355.84 785.158 356.719 779.886 356.719Z" fill="white"/>
<path d="M707.469 356V292.5H718.491V309.753L717.413 305.44C719.17 301.047 722.126 297.692 726.279 295.376C730.432 293.06 735.544 291.901 741.615 291.901V303.044C741.136 302.964 740.656 302.924 740.177 302.924C739.778 302.924 739.378 302.924 738.979 302.924C732.829 302.924 727.956 304.761 724.362 308.435C720.768 312.109 718.971 317.421 718.971 324.37V356H707.469Z" fill="white"/>
<path d="M670.293 356.719C663.823 356.719 658.032 355.321 652.921 352.526C647.888 349.73 643.935 345.896 641.059 341.024C638.184 336.151 636.746 330.56 636.746 324.25C636.746 317.94 638.184 312.349 641.059 307.477C643.935 302.604 647.888 298.81 652.921 296.095C658.032 293.299 663.823 291.901 670.293 291.901C676.044 291.901 681.156 293.06 685.629 295.376C690.182 297.612 693.696 300.967 696.172 305.44L687.426 311.071C685.349 307.956 682.793 305.68 679.758 304.242C676.803 302.724 673.608 301.965 670.173 301.965C666.02 301.965 662.306 302.884 659.031 304.721C655.756 306.558 653.16 309.154 651.243 312.509C649.326 315.784 648.368 319.697 648.368 324.25C648.368 328.803 649.326 332.757 651.243 336.112C653.16 339.466 655.756 342.062 659.031 343.899C662.306 345.736 666.02 346.655 670.173 346.655C673.608 346.655 676.803 345.936 679.758 344.498C682.793 342.981 685.349 340.664 687.426 337.549L696.172 343.061C693.696 347.454 690.182 350.848 685.629 353.244C681.156 355.561 676.044 356.719 670.293 356.719Z" fill="white"/>
<path d="M604.4 356.719C599.128 356.719 594.096 356 589.304 354.562C584.591 353.125 580.877 351.367 578.161 349.291L582.954 340.185C585.669 342.022 589.024 343.58 593.018 344.858C597.011 346.136 601.085 346.775 605.238 346.775C610.59 346.775 614.424 346.016 616.74 344.498C619.136 342.981 620.335 340.864 620.335 338.148C620.335 336.151 619.616 334.594 618.178 333.476C616.74 332.357 614.823 331.519 612.427 330.96C610.111 330.401 607.515 329.921 604.639 329.522C601.764 329.043 598.888 328.484 596.013 327.845C593.137 327.126 590.502 326.167 588.105 324.969C585.709 323.691 583.792 321.974 582.355 319.817C580.917 317.581 580.198 314.625 580.198 310.951C580.198 307.117 581.276 303.763 583.433 300.887C585.589 298.012 588.625 295.815 592.538 294.298C596.532 292.7 601.245 291.901 606.676 291.901C610.83 291.901 615.023 292.421 619.256 293.459C623.569 294.417 627.084 295.815 629.8 297.652L624.887 306.758C622.012 304.841 619.017 303.523 615.902 302.804C612.786 302.085 609.671 301.726 606.556 301.726C601.524 301.726 597.77 302.565 595.294 304.242C592.818 305.839 591.58 307.916 591.58 310.472C591.58 312.629 592.299 314.306 593.737 315.504C595.254 316.622 597.171 317.501 599.487 318.14C601.884 318.779 604.519 319.338 607.395 319.817C610.27 320.217 613.146 320.776 616.021 321.495C618.897 322.134 621.493 323.052 623.809 324.25C626.205 325.448 628.122 327.126 629.56 329.282C631.078 331.439 631.836 334.314 631.836 337.909C631.836 341.743 630.718 345.057 628.482 347.853C626.245 350.649 623.09 352.845 619.017 354.443C614.943 355.96 610.071 356.719 604.4 356.719Z" fill="white"/>
<path d="M957.707 253.25V199.335H970.527V253.25H957.707ZM936.501 232.283V220.302H991.734V232.283H936.501Z" fill="#FFD700"/>
<path d="M872.819 268.946C867.547 268.946 862.515 268.227 857.722 266.789C853.01 265.351 849.296 263.594 846.58 261.517L851.373 252.412C854.088 254.249 857.443 255.806 861.437 257.084C865.43 258.362 869.504 259.001 873.657 259.001C879.009 259.001 882.843 258.242 885.159 256.725C887.555 255.207 888.753 253.091 888.753 250.375C888.753 248.378 888.035 246.82 886.597 245.702C885.159 244.584 883.242 243.745 880.846 243.186C878.53 242.627 875.934 242.148 873.058 241.749C870.183 241.269 867.307 240.71 864.432 240.071C861.556 239.352 858.921 238.394 856.524 237.196C854.128 235.918 852.211 234.2 850.773 232.044C849.336 229.807 848.617 226.852 848.617 223.178C848.617 219.344 849.695 215.989 851.852 213.114C854.008 210.238 857.044 208.042 860.957 206.524C864.951 204.927 869.664 204.128 875.095 204.128C879.248 204.128 883.442 204.647 887.675 205.685C891.988 206.644 895.503 208.042 898.219 209.879L893.306 218.984C890.431 217.067 887.436 215.75 884.32 215.031C881.205 214.312 878.09 213.952 874.975 213.952C869.943 213.952 866.189 214.791 863.713 216.468C861.237 218.066 859.999 220.143 859.999 222.699C859.999 224.855 860.718 226.533 862.155 227.731C863.673 228.849 865.59 229.727 867.906 230.366C870.303 231.005 872.938 231.565 875.814 232.044C878.689 232.443 881.565 233.002 884.44 233.721C887.316 234.36 889.912 235.279 892.228 236.477C894.624 237.675 896.541 239.352 897.979 241.509C899.496 243.665 900.255 246.541 900.255 250.135C900.255 253.969 899.137 257.284 896.901 260.08C894.664 262.875 891.509 265.072 887.436 266.669C883.362 268.187 878.49 268.946 872.819 268.946Z" fill="white"/>
<path d="M809.177 268.227V204.727H820.199V221.98L819.121 217.667C820.878 213.273 823.834 209.919 827.987 207.602C832.14 205.286 837.252 204.128 843.323 204.128V215.27C842.844 215.19 842.364 215.151 841.885 215.151C841.486 215.151 841.086 215.151 840.687 215.151C834.537 215.151 829.664 216.988 826.07 220.662C822.476 224.336 820.679 229.648 820.679 236.597V268.227H809.177Z" fill="white"/>
<path d="M763.916 268.946C757.526 268.946 751.855 267.548 746.903 264.752C741.951 261.957 738.037 258.123 735.162 253.25C732.286 248.298 730.849 242.707 730.849 236.477C730.849 230.167 732.286 224.576 735.162 219.703C738.037 214.831 741.951 211.037 746.903 208.321C751.855 205.526 757.526 204.128 763.916 204.128C770.226 204.128 775.858 205.526 780.81 208.321C785.842 211.037 789.756 214.831 792.551 219.703C795.427 224.496 796.864 230.087 796.864 236.477C796.864 242.787 795.427 248.378 792.551 253.25C789.756 258.123 785.842 261.957 780.81 264.752C775.858 267.548 770.226 268.946 763.916 268.946ZM763.916 258.881C767.99 258.881 771.624 257.963 774.819 256.126C778.094 254.289 780.65 251.693 782.487 248.338C784.324 244.904 785.243 240.95 785.243 236.477C785.243 231.924 784.324 228.01 782.487 224.735C780.65 221.381 778.094 218.785 774.819 216.948C771.624 215.111 767.99 214.192 763.916 214.192C759.843 214.192 756.209 215.111 753.014 216.948C749.819 218.785 747.263 221.381 745.346 224.735C743.429 228.01 742.47 231.924 742.47 236.477C742.47 240.95 743.429 244.904 745.346 248.338C747.263 251.693 749.819 254.289 753.014 256.126C756.209 257.963 759.843 258.881 763.916 258.881Z" fill="white"/>
<path d="M691.458 268.946C685.068 268.946 679.397 267.548 674.445 264.752C669.493 261.957 665.579 258.123 662.704 253.25C659.828 248.298 658.391 242.707 658.391 236.477C658.391 230.167 659.828 224.576 662.704 219.703C665.579 214.831 669.493 211.037 674.445 208.321C679.397 205.526 685.068 204.128 691.458 204.128C697.768 204.128 703.4 205.526 708.352 208.321C713.384 211.037 717.298 214.831 720.093 219.703C722.969 224.496 724.406 230.087 724.406 236.477C724.406 242.787 722.969 248.378 720.093 253.25C717.298 258.123 713.384 261.957 708.352 264.752C703.4 267.548 697.768 268.946 691.458 268.946ZM691.458 258.881C695.532 258.881 699.166 257.963 702.361 256.126C705.636 254.289 708.192 251.693 710.029 248.338C711.866 244.904 712.785 240.95 712.785 236.477C712.785 231.924 711.866 228.01 710.029 224.735C708.192 221.381 705.636 218.785 702.361 216.948C699.166 215.111 695.532 214.192 691.458 214.192C687.385 214.192 683.751 215.111 680.556 216.948C677.361 218.785 674.805 221.381 672.888 224.735C670.971 228.01 670.012 231.924 670.012 236.477C670.012 240.95 670.971 244.904 672.888 248.338C674.805 251.693 677.361 254.289 680.556 256.126C683.751 257.963 687.385 258.881 691.458 258.881Z" fill="white"/>
<path d="M612.428 268.946C606.277 268.946 600.766 267.588 595.894 264.872C591.101 262.156 587.307 258.362 584.512 253.49C581.716 248.618 580.318 242.947 580.318 236.477C580.318 230.007 581.716 224.376 584.512 219.584C587.307 214.711 591.101 210.917 595.894 208.202C600.766 205.486 606.277 204.128 612.428 204.128C617.779 204.128 622.612 205.326 626.925 207.722C631.238 210.119 634.672 213.713 637.228 218.505C639.864 223.298 641.182 229.288 641.182 236.477C641.182 243.666 639.904 249.656 637.348 254.448C634.872 259.241 631.478 262.875 627.164 265.351C622.851 267.747 617.939 268.946 612.428 268.946ZM613.386 258.881C617.38 258.881 620.974 257.963 624.169 256.126C627.444 254.289 630 251.693 631.837 248.338C633.754 244.904 634.712 240.95 634.712 236.477C634.712 231.924 633.754 228.01 631.837 224.735C630 221.381 627.444 218.785 624.169 216.948C620.974 215.111 617.38 214.192 613.386 214.192C609.313 214.192 605.678 215.111 602.483 216.948C599.288 218.785 596.732 221.381 594.815 224.735C592.898 228.01 591.94 231.924 591.94 236.477C591.94 240.95 592.898 244.904 594.815 248.338C596.732 251.693 599.288 254.289 602.483 256.126C605.678 257.963 609.313 258.881 613.386 258.881ZM635.072 268.227V251.094L635.791 236.357L634.593 221.62V179.327H646.094V268.227H635.072Z" fill="white"/>
<path d="M433.242 356.718V335.915L519.875 231.114L525.931 242.437H434.822V216.104H552.263V236.907L465.631 341.708L459.048 330.386H554.633V356.718H433.242Z" fill="white"/>
<path fill-rule="evenodd" clip-rule="evenodd" d="M376.612 216.105V356.718H409.527V216.105H376.612Z" fill="white"/>
<path d="M393.201 192.933C387.057 192.933 381.966 191.002 377.929 187.14C374.067 183.278 372.136 178.626 372.136 173.184C372.136 167.566 374.067 162.914 377.929 159.228C381.966 155.366 387.057 153.435 393.201 153.435C399.346 153.435 404.349 155.278 408.211 158.964C412.248 162.475 414.267 166.952 414.267 172.394C414.267 178.187 412.336 183.102 408.474 187.14C404.612 191.002 399.521 192.933 393.201 192.933Z" fill="#FFD700"/>
<path d="M275.224 356.718V216.105H306.559V254.813L302.872 243.491C307.085 234.011 313.668 226.814 322.621 221.898C331.75 216.983 343.073 214.525 356.59 214.525V245.861C355.185 245.509 353.869 245.334 352.64 245.334C351.411 245.158 350.182 245.071 348.953 245.071C336.489 245.071 326.571 248.757 319.198 256.13C311.825 263.327 308.139 274.124 308.139 288.518V356.718H275.224Z" fill="white"/>
<path d="M180.547 358.562C168.61 358.562 157.99 355.929 148.686 350.662C139.382 345.396 132.009 337.496 126.567 326.963C121.3 316.255 118.667 302.738 118.667 286.412C118.667 269.911 121.388 256.394 126.83 245.861C132.447 235.328 139.908 227.516 149.212 222.425C158.692 217.159 169.137 214.526 180.547 214.526C194.416 214.526 206.616 217.51 217.149 223.479C227.857 229.447 236.283 237.786 242.428 248.494C248.747 259.202 251.907 271.842 251.907 286.412C251.907 300.982 248.747 313.622 242.428 324.33C236.283 335.039 227.857 343.465 217.149 349.609C206.616 355.578 194.416 358.562 180.547 358.562ZM102.604 356.719V161.335H135.52V248.757L132.886 286.149L133.94 323.54V356.719H102.604ZM176.861 330.387C184.76 330.387 191.782 328.631 197.926 325.12C204.246 321.609 209.249 316.518 212.936 309.848C216.622 303.177 218.465 295.365 218.465 286.412C218.465 277.284 216.622 269.472 212.936 262.977C209.249 256.306 204.246 251.215 197.926 247.704C191.782 244.193 184.76 242.438 176.861 242.438C168.961 242.438 161.852 244.193 155.532 247.704C149.212 251.215 144.209 256.306 140.523 262.977C136.836 269.472 134.993 277.284 134.993 286.412C134.993 295.365 136.836 303.177 140.523 309.848C144.209 316.518 149.212 321.609 155.532 325.12C161.852 328.631 168.961 330.387 176.861 330.387Z" fill="white"/>
</svg>
