<svg width="1118" height="512" viewBox="0 0 1118 512" fill="none" xmlns="http://www.w3.org/2000/svg">
<path d="M987.208 358.562C981.937 358.562 976.905 357.843 972.112 356.405C967.4 354.967 963.685 353.21 960.97 351.133L965.762 342.028C968.478 343.865 971.833 345.422 975.826 346.7C979.82 347.978 983.894 348.617 988.047 348.617C993.398 348.617 997.232 347.859 999.549 346.341C1001.95 344.823 1003.14 342.707 1003.14 339.991C1003.14 337.994 1002.42 336.437 1000.99 335.318C999.549 334.2 997.632 333.362 995.236 332.802C992.919 332.243 990.323 331.764 987.448 331.365C984.572 330.885 981.697 330.326 978.822 329.687C975.946 328.968 973.31 328.01 970.914 326.812C968.518 325.534 966.601 323.817 965.163 321.66C963.725 319.424 963.007 316.468 963.007 312.794C963.007 308.96 964.085 305.605 966.241 302.73C968.398 299.854 971.433 297.658 975.347 296.14C979.341 294.543 984.053 293.744 989.485 293.744C993.638 293.744 997.831 294.263 1002.06 295.302C1006.38 296.26 1009.89 297.658 1012.61 299.495L1007.7 308.601C1004.82 306.684 1001.83 305.366 998.71 304.647C995.595 303.928 992.48 303.569 989.365 303.569C984.333 303.569 980.579 304.407 978.103 306.085C975.627 307.682 974.389 309.759 974.389 312.315C974.389 314.471 975.107 316.149 976.545 317.347C978.063 318.465 979.98 319.344 982.296 319.983C984.692 320.622 987.328 321.181 990.204 321.66C993.079 322.059 995.954 322.619 998.83 323.337C1001.71 323.976 1004.3 324.895 1006.62 326.093C1009.01 327.291 1010.93 328.968 1012.37 331.125C1013.89 333.282 1014.64 336.157 1014.64 339.751C1014.64 343.585 1013.53 346.9 1011.29 349.696C1009.05 352.491 1005.9 354.688 1001.83 356.285C997.752 357.803 992.879 358.562 987.208 358.562Z" fill="black"/>
<path d="M924.946 293.744C930.138 293.744 934.691 294.743 938.605 296.739C942.599 298.736 945.714 301.771 947.95 305.845C950.187 309.919 951.305 315.07 951.305 321.301V357.843H939.803V322.619C939.803 316.468 938.285 311.836 935.25 308.72C932.295 305.605 928.101 304.048 922.67 304.048C918.596 304.048 915.042 304.847 912.007 306.444C908.972 308.042 906.615 310.398 904.938 313.513C903.341 316.628 902.542 320.502 902.542 325.135V357.843H891.04V294.343H902.063V311.476L900.265 306.923C902.342 302.77 905.537 299.535 909.85 297.219C914.163 294.902 919.196 293.744 924.946 293.744Z" fill="black"/>
<path d="M849.549 358.562C842.76 358.562 836.77 357.164 831.578 354.368C826.466 351.573 822.472 347.739 819.597 342.867C816.801 337.994 815.403 332.403 815.403 326.093C815.403 319.783 816.761 314.192 819.477 309.32C822.272 304.447 826.066 300.653 830.859 297.938C835.731 295.142 841.203 293.744 847.273 293.744C853.423 293.744 858.855 295.102 863.567 297.818C868.28 300.533 871.954 304.367 874.59 309.32C877.306 314.192 878.663 319.903 878.663 326.452C878.663 326.932 878.623 327.491 878.544 328.13C878.544 328.769 878.504 329.368 878.424 329.927H824.389V321.66H872.433L867.761 324.535C867.84 320.462 867.002 316.828 865.245 313.633C863.487 310.438 861.051 307.962 857.936 306.204C854.901 304.367 851.347 303.449 847.273 303.449C843.279 303.449 839.725 304.367 836.61 306.204C833.495 307.962 831.059 310.478 829.301 313.753C827.544 316.947 826.666 320.622 826.666 324.775V326.692C826.666 330.925 827.624 334.719 829.541 338.074C831.538 341.349 834.293 343.905 837.808 345.742C841.322 347.579 845.356 348.498 849.909 348.498C853.663 348.498 857.058 347.859 860.093 346.581C863.208 345.303 865.924 343.386 868.24 340.83L874.59 348.258C871.714 351.613 868.12 354.169 863.807 355.926C859.574 357.683 854.821 358.562 849.549 358.562Z" fill="black"/>
<path d="M779.784 358.562C772.994 358.562 767.004 357.164 761.812 354.368C756.7 351.573 752.707 347.739 749.831 342.867C747.035 337.994 745.638 332.403 745.638 326.093C745.638 319.783 746.996 314.192 749.711 309.32C752.507 304.447 756.301 300.653 761.093 297.938C765.966 295.142 771.437 293.744 777.507 293.744C783.658 293.744 789.089 295.102 793.802 297.818C798.514 300.533 802.188 304.367 804.824 309.32C807.54 314.192 808.898 319.903 808.898 326.452C808.898 326.932 808.858 327.491 808.778 328.13C808.778 328.769 808.738 329.368 808.658 329.927H754.624V321.66H802.668L797.995 324.535C798.075 320.462 797.236 316.828 795.479 313.633C793.722 310.438 791.286 307.962 788.171 306.204C785.135 304.367 781.581 303.449 777.507 303.449C773.514 303.449 769.959 304.367 766.844 306.204C763.729 307.962 761.293 310.478 759.536 313.753C757.779 316.947 756.9 320.622 756.9 324.775V326.692C756.9 330.925 757.858 334.719 759.775 338.074C761.772 341.349 764.528 343.905 768.042 345.742C771.557 347.579 775.59 348.498 780.143 348.498C783.897 348.498 787.292 347.859 790.327 346.581C793.442 345.303 796.158 343.386 798.474 340.83L804.824 348.258C801.949 351.613 798.354 354.169 794.041 355.926C789.808 357.683 785.055 358.562 779.784 358.562Z" fill="black"/>
<path d="M707.364 357.843V294.343H718.387V311.596L717.309 307.283C719.066 302.89 722.021 299.535 726.175 297.219C730.328 294.902 735.44 293.744 741.51 293.744V304.887C741.031 304.807 740.552 304.767 740.073 304.767C739.673 304.767 739.274 304.767 738.874 304.767C732.724 304.767 727.852 306.604 724.258 310.278C720.663 313.952 718.866 319.264 718.866 326.213V357.843H707.364Z" fill="black"/>
<path d="M670.189 358.562C663.719 358.562 657.928 357.164 652.816 354.368C647.784 351.573 643.83 347.739 640.955 342.867C638.079 337.994 636.642 332.403 636.642 326.093C636.642 319.783 638.079 314.192 640.955 309.32C643.83 304.447 647.784 300.653 652.816 297.938C657.928 295.142 663.719 293.744 670.189 293.744C675.94 293.744 681.051 294.902 685.524 297.219C690.077 299.455 693.592 302.81 696.068 307.283L687.322 312.914C685.245 309.799 682.689 307.522 679.654 306.085C676.698 304.567 673.503 303.808 670.069 303.808C665.915 303.808 662.201 304.727 658.926 306.564C655.652 308.401 653.056 310.997 651.139 314.352C649.222 317.626 648.263 321.54 648.263 326.093C648.263 330.646 649.222 334.6 651.139 337.954C653.056 341.309 655.652 343.905 658.926 345.742C662.201 347.579 665.915 348.498 670.069 348.498C673.503 348.498 676.698 347.779 679.654 346.341C682.689 344.823 685.245 342.507 687.322 339.392L696.068 344.903C693.592 349.296 690.077 352.691 685.524 355.087C681.051 357.404 675.94 358.562 670.189 358.562Z" fill="black"/>
<path d="M604.296 358.562C599.024 358.562 593.992 357.843 589.2 356.405C584.487 354.967 580.773 353.21 578.058 351.133L582.85 342.028C585.566 343.865 588.92 345.422 592.914 346.7C596.908 347.978 600.981 348.617 605.135 348.617C610.486 348.617 614.32 347.859 616.637 346.341C619.033 344.823 620.231 342.707 620.231 339.991C620.231 337.994 619.512 336.437 618.074 335.318C616.637 334.2 614.72 333.362 612.323 332.802C610.007 332.243 607.411 331.764 604.536 331.365C601.66 330.885 598.785 330.326 595.909 329.687C593.034 328.968 590.398 328.01 588.002 326.812C585.606 325.534 583.689 323.817 582.251 321.66C580.813 319.424 580.094 316.468 580.094 312.794C580.094 308.96 581.173 305.605 583.329 302.73C585.486 299.854 588.521 297.658 592.435 296.14C596.429 294.543 601.141 293.744 606.573 293.744C610.726 293.744 614.919 294.263 619.153 295.302C623.466 296.26 626.98 297.658 629.696 299.495L624.784 308.601C621.908 306.684 618.913 305.366 615.798 304.647C612.683 303.928 609.568 303.569 606.453 303.569C601.421 303.569 597.667 304.407 595.191 306.085C592.714 307.682 591.476 309.759 591.476 312.315C591.476 314.471 592.195 316.149 593.633 317.347C595.151 318.465 597.068 319.344 599.384 319.983C601.78 320.622 604.416 321.181 607.291 321.66C610.167 322.059 613.042 322.619 615.918 323.337C618.793 323.976 621.389 324.895 623.706 326.093C626.102 327.291 628.019 328.968 629.456 331.125C630.974 333.282 631.733 336.157 631.733 339.751C631.733 343.585 630.615 346.9 628.378 349.696C626.142 352.491 622.987 354.688 618.913 356.285C614.84 357.803 609.967 358.562 604.296 358.562Z" fill="black"/>
<path d="M957.604 255.094V201.179H970.424V255.094H957.604ZM936.397 234.127V222.146H991.63V234.127H936.397Z" fill="#FFD700"/>
<path d="M872.714 270.788C867.442 270.788 862.41 270.069 857.618 268.632C852.905 267.194 849.191 265.437 846.476 263.36L851.268 254.254C853.984 256.092 857.338 257.649 861.332 258.927C865.326 260.205 869.399 260.844 873.553 260.844C878.904 260.844 882.738 260.085 885.055 258.568C887.451 257.05 888.649 254.933 888.649 252.218C888.649 250.221 887.93 248.663 886.492 247.545C885.055 246.427 883.138 245.588 880.741 245.029C878.425 244.47 875.829 243.991 872.954 243.591C870.078 243.112 867.203 242.553 864.327 241.914C861.452 241.195 858.816 240.237 856.42 239.038C854.024 237.76 852.107 236.043 850.669 233.887C849.231 231.65 848.512 228.695 848.512 225.021C848.512 221.187 849.591 217.832 851.747 214.957C853.904 212.081 856.939 209.885 860.853 208.367C864.847 206.769 869.559 205.971 874.991 205.971C879.144 205.971 883.337 206.49 887.571 207.528C891.884 208.487 895.398 209.885 898.114 211.722L893.202 220.827C890.326 218.91 887.331 217.592 884.216 216.873C881.101 216.155 877.986 215.795 874.871 215.795C869.839 215.795 866.085 216.634 863.609 218.311C861.132 219.909 859.894 221.985 859.894 224.541C859.894 226.698 860.613 228.375 862.051 229.573C863.569 230.692 865.486 231.57 867.802 232.209C870.198 232.848 872.834 233.407 875.709 233.887C878.585 234.286 881.46 234.845 884.336 235.564C887.211 236.203 889.807 237.121 892.123 238.32C894.52 239.518 896.437 241.195 897.874 243.352C899.392 245.508 900.151 248.384 900.151 251.978C900.151 255.812 899.033 259.127 896.796 261.922C894.56 264.718 891.405 266.914 887.331 268.512C883.257 270.03 878.385 270.788 872.714 270.788Z" fill="black"/>
<path d="M809.073 270.069V206.57H820.096V223.823L819.018 219.509C820.775 215.116 823.73 211.762 827.884 209.445C832.037 207.129 837.149 205.971 843.219 205.971V217.113C842.74 217.033 842.261 216.993 841.782 216.993C841.382 216.993 840.983 216.993 840.583 216.993C834.433 216.993 829.561 218.83 825.967 222.505C822.372 226.179 820.575 231.49 820.575 238.439V270.069H809.073Z" fill="black"/>
<path d="M763.813 270.788C757.423 270.788 751.752 269.391 746.8 266.595C741.848 263.799 737.934 259.965 735.058 255.093C732.183 250.141 730.745 244.55 730.745 238.32C730.745 232.01 732.183 226.418 735.058 221.546C737.934 216.674 741.848 212.88 746.8 210.164C751.752 207.368 757.423 205.971 763.813 205.971C770.123 205.971 775.754 207.368 780.706 210.164C785.738 212.88 789.652 216.674 792.448 221.546C795.323 226.339 796.761 231.93 796.761 238.32C796.761 244.63 795.323 250.221 792.448 255.093C789.652 259.965 785.738 263.799 780.706 266.595C775.754 269.391 770.123 270.788 763.813 270.788ZM763.813 260.724C767.886 260.724 771.521 259.806 774.716 257.969C777.99 256.131 780.546 253.536 782.384 250.181C784.221 246.746 785.139 242.793 785.139 238.32C785.139 233.767 784.221 229.853 782.384 226.578C780.546 223.223 777.99 220.628 774.716 218.79C771.521 216.953 767.886 216.035 763.813 216.035C759.739 216.035 756.105 216.953 752.91 218.79C749.715 220.628 747.159 223.223 745.242 226.578C743.325 229.853 742.367 233.767 742.367 238.32C742.367 242.793 743.325 246.746 745.242 250.181C747.159 253.536 749.715 256.131 752.91 257.969C756.105 259.806 759.739 260.724 763.813 260.724Z" fill="black"/>
<path d="M691.355 270.788C684.965 270.788 679.294 269.391 674.342 266.595C669.39 263.799 665.476 259.965 662.6 255.093C659.725 250.141 658.287 244.55 658.287 238.32C658.287 232.01 659.725 226.418 662.6 221.546C665.476 216.674 669.39 212.88 674.342 210.164C679.294 207.368 684.965 205.971 691.355 205.971C697.665 205.971 703.296 207.368 708.248 210.164C713.28 212.88 717.194 216.674 719.99 221.546C722.865 226.339 724.303 231.93 724.303 238.32C724.303 244.63 722.865 250.221 719.99 255.093C717.194 259.965 713.28 263.799 708.248 266.595C703.296 269.391 697.665 270.788 691.355 270.788ZM691.355 260.724C695.428 260.724 699.063 259.806 702.258 257.969C705.532 256.131 708.088 253.536 709.926 250.181C711.763 246.746 712.681 242.793 712.681 238.32C712.681 233.767 711.763 229.853 709.926 226.578C708.088 223.223 705.532 220.628 702.258 218.79C699.063 216.953 695.428 216.035 691.355 216.035C687.281 216.035 683.647 216.953 680.452 218.79C677.257 220.628 674.701 223.223 672.784 226.578C670.867 229.853 669.909 233.767 669.909 238.32C669.909 242.793 670.867 246.746 672.784 250.181C674.701 253.536 677.257 256.131 680.452 257.969C683.647 259.806 687.281 260.724 691.355 260.724Z" fill="black"/>
<path d="M612.323 270.788C606.173 270.788 600.662 269.43 595.789 266.715C590.997 263.999 587.203 260.205 584.407 255.333C581.612 250.46 580.214 244.789 580.214 238.32C580.214 231.85 581.612 226.219 584.407 221.426C587.203 216.554 590.997 212.76 595.789 210.044C600.662 207.329 606.173 205.971 612.323 205.971C617.675 205.971 622.507 207.169 626.82 209.565C631.133 211.961 634.568 215.556 637.124 220.348C639.76 225.14 641.078 231.131 641.078 238.32C641.078 245.508 639.8 251.499 637.244 256.291C634.768 261.084 631.373 264.718 627.06 267.194C622.747 269.59 617.834 270.788 612.323 270.788ZM613.282 260.724C617.275 260.724 620.87 259.806 624.065 257.969C627.339 256.132 629.895 253.536 631.732 250.181C633.649 246.746 634.608 242.793 634.608 238.32C634.608 233.767 633.649 229.853 631.732 226.578C629.895 223.223 627.339 220.628 624.065 218.79C620.87 216.953 617.275 216.035 613.282 216.035C609.208 216.035 605.574 216.953 602.379 218.79C599.184 220.628 596.628 223.223 594.711 226.578C592.794 229.853 591.836 233.767 591.836 238.32C591.836 242.793 592.794 246.746 594.711 250.181C596.628 253.536 599.184 256.132 602.379 257.969C605.574 259.806 609.208 260.724 613.282 260.724ZM634.967 270.069V252.937L635.686 238.2L634.488 223.463V181.17H645.99V270.069H634.967Z" fill="black"/>
<path d="M433.347 356.72V335.918L519.979 231.117L526.035 242.439H434.927V216.107H552.367V236.91L465.735 341.711L459.152 330.388H554.737V356.72H433.347Z" fill="black"/>
<path fill-rule="evenodd" clip-rule="evenodd" d="M376.718 216.106V356.719H409.633V216.106H376.718Z" fill="black"/>
<path d="M393.307 192.934C387.163 192.934 382.072 191.003 378.034 187.141C374.172 183.279 372.241 178.627 372.241 173.185C372.241 167.567 374.172 162.915 378.034 159.229C382.072 155.367 387.163 153.436 393.307 153.436C399.451 153.436 404.454 155.279 408.316 158.965C412.354 162.476 414.372 166.953 414.372 172.395C414.372 178.188 412.441 183.103 408.579 187.141C404.717 191.003 399.627 192.934 393.307 192.934Z" fill="#FFD700"/>
<path d="M275.328 356.719V216.106H306.663V254.814L302.977 243.492C307.19 234.012 313.773 226.815 322.726 221.899C331.854 216.984 343.177 214.526 356.694 214.526V245.861C355.29 245.51 353.973 245.335 352.744 245.335C351.515 245.159 350.287 245.072 349.058 245.072C336.594 245.072 326.676 248.758 319.303 256.131C311.93 263.328 308.243 274.125 308.243 288.519V356.719H275.328Z" fill="black"/>
<path d="M180.653 358.563C168.716 358.563 158.095 355.93 148.791 350.663C139.487 345.397 132.114 337.497 126.672 326.964C121.406 316.256 118.773 302.739 118.773 286.413C118.773 269.912 121.493 256.395 126.935 245.862C132.553 235.329 140.014 227.517 149.318 222.426C158.797 217.16 169.242 214.527 180.653 214.527C194.521 214.527 206.721 217.511 217.254 223.48C227.963 229.448 236.389 237.787 242.533 248.495C248.853 259.203 252.013 271.843 252.013 286.413C252.013 300.983 248.853 313.623 242.533 324.331C236.389 335.04 227.963 343.466 217.254 349.61C206.721 355.579 194.521 358.563 180.653 358.563ZM102.71 356.72V161.336H135.625V248.758L132.992 286.15L134.045 323.541V356.72H102.71ZM176.966 330.388C184.866 330.388 191.888 328.632 198.032 325.121C204.352 321.61 209.355 316.519 213.041 309.849C216.728 303.178 218.571 295.366 218.571 286.413C218.571 277.285 216.728 269.473 213.041 262.978C209.355 256.307 204.352 251.216 198.032 247.705C191.888 244.194 184.866 242.439 176.966 242.439C169.067 242.439 161.957 244.194 155.637 247.705C149.318 251.216 144.315 256.307 140.628 262.978C136.942 269.473 135.098 277.285 135.098 286.413C135.098 295.366 136.942 303.178 140.628 309.849C144.315 316.519 149.318 321.61 155.637 325.121C161.957 328.632 169.067 330.388 176.966 330.388Z" fill="black"/>
</svg>
