<svg width="2235" height="1024" viewBox="0 0 2235 1024" fill="none" xmlns="http://www.w3.org/2000/svg">
<path d="M1974.42 717.126C1963.87 717.126 1953.81 715.689 1944.22 712.813C1934.8 709.938 1927.37 706.423 1921.94 702.27L1931.52 684.059C1936.95 687.733 1943.66 690.848 1951.65 693.404C1959.64 695.96 1967.79 697.238 1976.09 697.238C1986.8 697.238 1994.46 695.72 1999.1 692.685C2003.89 689.65 2006.29 685.417 2006.29 679.985C2006.29 675.991 2004.85 672.876 2001.97 670.64C1999.1 668.403 1995.26 666.726 1990.47 665.608C1985.84 664.49 1980.65 663.531 1974.89 662.732C1969.14 661.774 1963.39 660.656 1957.64 659.378C1951.89 657.94 1946.62 656.023 1941.83 653.627C1937.03 651.071 1933.2 647.636 1930.33 643.323C1927.45 638.85 1926.01 632.939 1926.01 625.591C1926.01 617.923 1928.17 611.214 1932.48 605.463C1936.8 599.712 1942.87 595.319 1950.69 592.284C1958.68 589.089 1968.11 587.491 1978.97 587.491C1987.28 587.491 1995.66 588.53 2004.13 590.606C2012.76 592.523 2019.78 595.319 2025.22 598.993L2015.39 617.204C2009.64 613.37 2003.65 610.734 1997.42 609.297C1991.19 607.859 1984.96 607.14 1978.73 607.14C1968.66 607.14 1961.16 608.818 1956.2 612.172C1951.25 615.367 1948.78 619.521 1948.78 624.633C1948.78 628.946 1950.21 632.3 1953.09 634.697C1956.12 636.933 1959.96 638.69 1964.59 639.968C1969.38 641.246 1974.66 642.365 1980.41 643.323C1986.16 644.122 1991.91 645.24 1997.66 646.678C2003.41 647.956 2008.6 649.793 2013.23 652.189C2018.03 654.585 2021.86 657.94 2024.74 662.253C2027.77 666.566 2029.29 672.317 2029.29 679.506C2029.29 687.174 2027.05 693.803 2022.58 699.394C2018.11 704.986 2011.8 709.379 2003.65 712.574C1995.5 715.609 1985.76 717.126 1974.42 717.126Z" fill="black"/>
<path d="M1849.89 587.491C1860.28 587.491 1869.38 589.488 1877.21 593.482C1885.2 597.475 1891.43 603.546 1895.9 611.693C1900.37 619.84 1902.61 630.144 1902.61 642.604V715.689H1879.61V645.24C1879.61 632.939 1876.57 623.674 1870.5 617.444C1864.59 611.214 1856.2 608.099 1845.34 608.099C1837.19 608.099 1830.08 609.696 1824.01 612.891C1817.94 616.086 1813.23 620.799 1809.88 627.029C1806.68 633.259 1805.08 641.007 1805.08 650.272V715.689H1782.08V588.689H1804.12V622.955L1800.53 613.85C1804.68 605.543 1811.07 599.073 1819.7 594.44C1828.33 589.808 1838.39 587.491 1849.89 587.491Z" fill="black"/>
<path d="M1699.1 717.126C1685.52 717.126 1673.54 714.331 1663.15 708.74C1652.93 703.149 1644.94 695.481 1639.19 685.736C1633.6 675.991 1630.81 664.809 1630.81 652.189C1630.81 639.569 1633.52 628.387 1638.95 618.642C1644.54 608.897 1652.13 601.309 1661.72 595.878C1671.46 590.287 1682.4 587.491 1694.54 587.491C1706.85 587.491 1717.71 590.207 1727.13 595.638C1736.56 601.07 1743.91 608.738 1749.18 618.642C1754.61 628.387 1757.33 639.809 1757.33 652.908C1757.33 653.866 1757.25 654.985 1757.09 656.263C1757.09 657.541 1757.01 658.739 1756.85 659.857H1648.78V643.323H1744.87L1735.52 649.074C1735.68 640.927 1734 633.658 1730.49 627.268C1726.97 620.878 1722.1 615.926 1715.87 612.412C1709.8 608.738 1702.69 606.901 1694.54 606.901C1686.56 606.901 1679.45 608.738 1673.22 612.412C1666.99 615.926 1662.12 620.958 1658.6 627.508C1655.09 633.898 1653.33 641.246 1653.33 649.553V653.387C1653.33 661.854 1655.25 669.442 1659.08 676.151C1663.07 682.701 1668.59 687.813 1675.61 691.487C1682.64 695.161 1690.71 696.998 1699.82 696.998C1707.32 696.998 1714.11 695.72 1720.18 693.164C1726.41 690.608 1731.85 686.774 1736.48 681.662L1749.18 696.519C1743.43 703.228 1736.24 708.34 1727.61 711.855C1719.15 715.369 1709.64 717.126 1699.1 717.126Z" fill="black"/>
<path d="M1559.57 717.126C1545.99 717.126 1534.01 714.331 1523.62 708.74C1513.4 703.149 1505.41 695.481 1499.66 685.736C1494.07 675.991 1491.27 664.809 1491.27 652.189C1491.27 639.569 1493.99 628.387 1499.42 618.642C1505.01 608.897 1512.6 601.309 1522.18 595.878C1531.93 590.287 1542.87 587.491 1555.01 587.491C1567.31 587.491 1578.18 590.207 1587.6 595.638C1597.03 601.07 1604.37 608.738 1609.65 618.642C1615.08 628.387 1617.79 639.809 1617.79 652.908C1617.79 653.866 1617.71 654.985 1617.55 656.263C1617.55 657.541 1617.47 658.739 1617.31 659.857H1509.25V643.323H1605.33L1595.99 649.074C1596.15 640.927 1594.47 633.658 1590.96 627.268C1587.44 620.878 1582.57 615.926 1576.34 612.412C1570.27 608.738 1563.16 606.901 1555.01 606.901C1547.03 606.901 1539.92 608.738 1533.69 612.412C1527.46 615.926 1522.58 620.958 1519.07 627.508C1515.56 633.898 1513.8 641.246 1513.8 649.553V653.387C1513.8 661.854 1515.71 669.442 1519.55 676.151C1523.54 682.701 1529.05 687.813 1536.08 691.487C1543.11 695.161 1551.18 696.998 1560.28 696.998C1567.79 696.998 1574.58 695.72 1580.65 693.164C1586.88 690.608 1592.31 686.774 1596.95 681.662L1609.65 696.519C1603.9 703.228 1596.71 708.34 1588.08 711.855C1579.61 715.369 1570.11 717.126 1559.57 717.126Z" fill="black"/>
<path d="M1414.73 715.689V588.689H1436.77V623.195L1434.62 614.568C1438.13 605.782 1444.04 599.073 1452.35 594.44C1460.66 589.808 1470.88 587.491 1483.02 587.491V609.776C1482.06 609.616 1481.1 609.536 1480.15 609.536C1479.35 609.536 1478.55 609.536 1477.75 609.536C1465.45 609.536 1455.7 613.211 1448.52 620.559C1441.33 627.907 1437.73 638.531 1437.73 652.429V715.689H1414.73Z" fill="black"/>
<path d="M1340.38 717.126C1327.44 717.126 1315.86 714.331 1305.63 708.74C1295.57 703.149 1287.66 695.481 1281.91 685.736C1276.16 675.991 1273.28 664.809 1273.28 652.189C1273.28 639.569 1276.16 628.387 1281.91 618.642C1287.66 608.897 1295.57 601.309 1305.63 595.878C1315.86 590.287 1327.44 587.491 1340.38 587.491C1351.88 587.491 1362.1 589.808 1371.05 594.44C1380.15 598.913 1387.18 605.623 1392.14 614.568L1374.64 625.831C1370.49 619.6 1365.38 615.048 1359.31 612.172C1353.4 609.137 1347.01 607.619 1340.14 607.619C1331.83 607.619 1324.4 609.457 1317.85 613.131C1311.3 616.805 1306.11 621.997 1302.28 628.706C1298.44 635.256 1296.53 643.083 1296.53 652.189C1296.53 661.295 1298.44 669.202 1302.28 675.912C1306.11 682.621 1311.3 687.813 1317.85 691.487C1324.4 695.161 1331.83 696.998 1340.14 696.998C1347.01 696.998 1353.4 695.56 1359.31 692.685C1365.38 689.65 1370.49 685.017 1374.64 678.787L1392.14 689.81C1387.18 698.596 1380.15 705.385 1371.05 710.177C1362.1 714.81 1351.88 717.126 1340.38 717.126Z" fill="black"/>
<path d="M1208.59 717.126C1198.05 717.126 1187.98 715.689 1178.4 712.813C1168.97 709.938 1161.54 706.423 1156.11 702.27L1165.7 684.059C1171.13 687.733 1177.84 690.848 1185.83 693.404C1193.81 695.96 1201.96 697.238 1210.27 697.238C1220.97 697.238 1228.64 695.72 1233.27 692.685C1238.06 689.65 1240.46 685.417 1240.46 679.985C1240.46 675.991 1239.02 672.876 1236.15 670.64C1233.27 668.403 1229.44 666.726 1224.65 665.608C1220.01 664.49 1214.82 663.531 1209.07 662.732C1203.32 661.774 1197.57 660.656 1191.82 659.378C1186.07 657.94 1180.79 656.023 1176 653.627C1171.21 651.071 1167.38 647.636 1164.5 643.323C1161.62 638.85 1160.19 632.939 1160.19 625.591C1160.19 617.923 1162.34 611.214 1166.66 605.463C1170.97 599.712 1177.04 595.319 1184.87 592.284C1192.86 589.089 1202.28 587.491 1213.14 587.491C1221.45 587.491 1229.84 588.53 1238.3 590.606C1246.93 592.523 1253.96 595.319 1259.39 598.993L1249.57 617.204C1243.81 613.37 1237.82 610.734 1231.59 609.297C1225.36 607.859 1219.13 607.14 1212.9 607.14C1202.84 607.14 1195.33 608.818 1190.38 612.172C1185.43 615.367 1182.95 619.521 1182.95 624.633C1182.95 628.946 1184.39 632.3 1187.26 634.697C1190.3 636.933 1194.13 638.69 1198.77 639.968C1203.56 641.246 1208.83 642.365 1214.58 643.323C1220.33 644.122 1226.08 645.24 1231.83 646.678C1237.58 647.956 1242.78 649.793 1247.41 652.189C1252.2 654.585 1256.04 657.94 1258.91 662.253C1261.95 666.566 1263.46 672.317 1263.46 679.506C1263.46 687.174 1261.23 693.803 1256.75 699.394C1252.28 704.986 1245.97 709.379 1237.82 712.574C1229.68 715.609 1219.93 717.126 1208.59 717.126Z" fill="black"/>
<path d="M1915.21 510.19V402.36H1940.85V510.19H1915.21ZM1872.79 468.256V444.294H1983.26V468.256H1872.79Z" fill="#FFD700"/>
<path d="M1745.43 541.58C1734.88 541.58 1724.82 540.142 1715.23 537.266C1705.81 534.391 1698.38 530.876 1692.95 526.723L1702.54 508.512C1707.97 512.186 1714.68 515.301 1722.66 517.857C1730.65 520.413 1738.8 521.691 1747.1 521.691C1757.81 521.691 1765.48 520.173 1770.11 517.138C1774.9 514.103 1777.3 509.87 1777.3 504.438C1777.3 500.445 1775.86 497.329 1772.98 495.093C1770.11 492.857 1766.27 491.179 1761.48 490.061C1756.85 488.943 1751.66 487.984 1745.91 487.185C1740.16 486.227 1734.4 485.109 1728.65 483.831C1722.9 482.393 1717.63 480.476 1712.84 478.08C1708.05 475.524 1704.21 472.089 1701.34 467.776C1698.46 463.303 1697.02 457.393 1697.02 450.044C1697.02 442.376 1699.18 435.667 1703.49 429.916C1707.81 424.165 1713.88 419.772 1721.7 416.737C1729.69 413.542 1739.12 411.944 1749.98 411.944C1758.29 411.944 1766.67 412.983 1775.14 415.059C1783.77 416.976 1790.8 419.772 1796.23 423.446L1786.4 441.657C1780.65 437.823 1774.66 435.188 1768.43 433.75C1762.2 432.312 1755.97 431.593 1749.74 431.593C1739.68 431.593 1732.17 433.271 1727.22 436.625C1722.26 439.82 1719.79 443.974 1719.79 449.086C1719.79 453.399 1721.23 456.754 1724.1 459.15C1727.14 461.386 1730.97 463.143 1735.6 464.421C1740.4 465.699 1745.67 466.818 1751.42 467.776C1757.17 468.575 1762.92 469.693 1768.67 471.131C1774.42 472.409 1779.61 474.246 1784.25 476.642C1789.04 479.038 1792.87 482.393 1795.75 486.706C1798.78 491.019 1800.3 496.77 1800.3 503.959C1800.3 511.627 1798.06 518.256 1793.59 523.848C1789.12 529.439 1782.81 533.832 1774.66 537.027C1766.51 540.062 1756.77 541.58 1745.43 541.58Z" fill="black"/>
<path d="M1618.15 540.142V413.142H1640.19V447.648L1638.03 439.022C1641.55 430.235 1647.46 423.526 1655.77 418.893C1664.07 414.261 1674.3 411.944 1686.44 411.944V434.229C1685.48 434.069 1684.52 433.99 1683.56 433.99C1682.76 433.99 1681.96 433.99 1681.17 433.99C1668.87 433.99 1659.12 437.664 1651.93 445.012C1644.74 452.361 1641.15 462.984 1641.15 476.882V540.142H1618.15Z" fill="black"/>
<path d="M1527.62 541.58C1514.84 541.58 1503.5 538.784 1493.6 533.193C1483.69 527.602 1475.87 519.934 1470.11 510.189C1464.36 500.285 1461.49 489.102 1461.49 476.642C1461.49 464.022 1464.36 452.84 1470.11 443.095C1475.87 433.351 1483.69 425.763 1493.6 420.331C1503.5 414.74 1514.84 411.944 1527.62 411.944C1540.24 411.944 1551.51 414.74 1561.41 420.331C1571.47 425.763 1579.3 433.351 1584.89 443.095C1590.64 452.68 1593.52 463.862 1593.52 476.642C1593.52 489.262 1590.64 500.445 1584.89 510.189C1579.3 519.934 1571.47 527.602 1561.41 533.193C1551.51 538.784 1540.24 541.58 1527.62 541.58ZM1527.62 521.451C1535.77 521.451 1543.04 519.614 1549.43 515.94C1555.98 512.266 1561.09 507.074 1564.77 500.365C1568.44 493.496 1570.28 485.588 1570.28 476.642C1570.28 467.537 1568.44 459.709 1564.77 453.159C1561.09 446.45 1555.98 441.258 1549.43 437.584C1543.04 433.91 1535.77 432.073 1527.62 432.073C1519.48 432.073 1512.21 433.91 1505.82 437.584C1499.43 441.258 1494.32 446.45 1490.48 453.159C1486.65 459.709 1484.73 467.537 1484.73 476.642C1484.73 485.588 1486.65 493.496 1490.48 500.365C1494.32 507.074 1499.43 512.266 1505.82 515.94C1512.21 519.614 1519.48 521.451 1527.62 521.451Z" fill="black"/>
<path d="M1382.71 541.58C1369.93 541.58 1358.59 538.784 1348.68 533.193C1338.78 527.602 1330.95 519.934 1325.2 510.189C1319.45 500.285 1316.57 489.102 1316.57 476.642C1316.57 464.022 1319.45 452.84 1325.2 443.095C1330.95 433.351 1338.78 425.763 1348.68 420.331C1358.59 414.74 1369.93 411.944 1382.71 411.944C1395.33 411.944 1406.59 414.74 1416.5 420.331C1426.56 425.763 1434.39 433.351 1439.98 443.095C1445.73 452.68 1448.6 463.862 1448.6 476.642C1448.6 489.262 1445.73 500.445 1439.98 510.189C1434.39 519.934 1426.56 527.602 1416.5 533.193C1406.59 538.784 1395.33 541.58 1382.71 541.58ZM1382.71 521.451C1390.86 521.451 1398.12 519.614 1404.51 515.94C1411.06 512.266 1416.18 507.074 1419.85 500.365C1423.52 493.496 1425.36 485.588 1425.36 476.642C1425.36 467.537 1423.52 459.709 1419.85 453.159C1416.18 446.45 1411.06 441.258 1404.51 437.584C1398.12 433.91 1390.86 432.073 1382.71 432.073C1374.56 432.073 1367.29 433.91 1360.9 437.584C1354.51 441.258 1349.4 446.45 1345.57 453.159C1341.73 459.709 1339.82 467.537 1339.82 476.642C1339.82 485.588 1341.73 493.496 1345.57 500.365C1349.4 507.074 1354.51 512.266 1360.9 515.94C1367.29 519.614 1374.56 521.451 1382.71 521.451Z" fill="black"/>
<path d="M1224.65 541.58C1212.34 541.58 1201.32 538.864 1191.58 533.433C1181.99 528.001 1174.4 520.413 1168.81 510.668C1163.22 500.924 1160.43 489.582 1160.43 476.642C1160.43 463.703 1163.22 452.44 1168.81 442.856C1174.4 433.111 1181.99 425.523 1191.58 420.092C1201.32 414.66 1212.34 411.944 1224.65 411.944C1235.35 411.944 1245.01 414.341 1253.64 419.133C1262.27 423.925 1269.14 431.114 1274.25 440.699C1279.52 450.284 1282.15 462.265 1282.15 476.642C1282.15 491.02 1279.6 503.001 1274.49 512.585C1269.53 522.17 1262.75 529.439 1254.12 534.391C1245.49 539.183 1235.67 541.58 1224.65 541.58ZM1226.56 521.451C1234.55 521.451 1241.74 519.614 1248.13 515.94C1254.68 512.266 1259.79 507.074 1263.46 500.365C1267.3 493.496 1269.21 485.588 1269.21 476.642C1269.21 467.537 1267.3 459.709 1263.46 453.159C1259.79 446.45 1254.68 441.258 1248.13 437.584C1241.74 433.91 1234.55 432.073 1226.56 432.073C1218.42 432.073 1211.15 433.91 1204.76 437.584C1198.37 441.258 1193.25 446.45 1189.42 453.159C1185.59 459.709 1183.67 467.537 1183.67 476.642C1183.67 485.588 1185.59 493.496 1189.42 500.365C1193.25 507.074 1198.37 512.266 1204.76 515.94C1211.15 519.614 1218.42 521.451 1226.56 521.451ZM1269.93 540.142V505.876L1271.37 476.403L1268.98 446.929V362.343H1291.98V540.142H1269.93Z" fill="black"/>
<path d="M866.698 713.442V671.837L1039.96 462.234L1052.08 484.88H869.858V432.216H1104.74V473.82L931.475 683.423L918.309 660.778H1109.48V713.442H866.698Z" fill="black"/>
<path fill-rule="evenodd" clip-rule="evenodd" d="M753.438 432.214V713.441H819.268V432.214H753.438Z" fill="black"/>
<path d="M786.617 385.87C774.328 385.87 764.147 382.008 756.071 374.284C748.347 366.56 744.485 357.256 744.485 346.372C744.485 335.137 748.347 325.833 756.071 318.46C764.147 310.736 774.328 306.874 786.617 306.874C798.905 306.874 808.911 310.561 816.635 317.933C824.71 324.955 828.748 333.908 828.748 344.792C828.748 356.378 824.886 366.209 817.162 374.284C809.438 382.008 799.256 385.87 786.617 385.87Z" fill="#FFD700"/>
<path d="M550.66 713.441V432.215H613.33V509.631L605.957 486.985C614.384 468.026 627.55 453.631 645.455 443.801C663.712 433.97 686.358 429.055 713.392 429.055V491.725C710.583 491.023 707.95 490.672 705.493 490.672C703.035 490.321 700.577 490.145 698.12 490.145C673.192 490.145 653.355 497.518 638.609 512.264C623.863 526.659 616.49 548.251 616.49 577.041V713.441H550.66Z" fill="black"/>
<path d="M361.309 717.128C337.435 717.128 316.194 711.861 297.586 701.328C278.978 690.796 264.232 674.996 253.348 653.931C242.815 632.514 237.549 605.48 237.549 572.828C237.549 539.825 242.991 512.791 253.875 491.725C265.11 470.66 280.031 455.036 298.639 444.854C317.598 434.322 338.488 429.055 361.309 429.055C389.046 429.055 413.447 435.024 434.512 446.961C455.929 458.898 472.782 475.575 485.07 496.992C497.709 518.409 504.029 543.687 504.029 572.828C504.029 601.969 497.709 627.248 485.07 648.664C472.782 670.081 455.929 686.934 434.512 699.222C413.447 711.159 389.046 717.128 361.309 717.128ZM205.424 713.441V322.674H271.254V497.519L265.988 572.301L268.094 647.084V713.441H205.424ZM353.936 660.777C369.736 660.777 383.779 657.266 396.068 650.244C408.707 643.222 418.713 633.041 426.086 619.699C433.459 606.358 437.146 590.734 437.146 572.828C437.146 554.571 433.459 538.948 426.086 525.957C418.713 512.616 408.707 502.434 396.068 495.412C383.779 488.39 369.736 484.879 353.936 484.879C338.137 484.879 323.918 488.39 311.279 495.412C298.639 502.434 288.633 512.616 281.26 525.957C273.887 538.948 270.201 554.571 270.201 572.828C270.201 590.734 273.887 606.358 281.26 619.699C288.633 633.041 298.639 643.222 311.279 650.244C323.918 657.266 338.137 660.777 353.936 660.777Z" fill="black"/>
</svg>
