<svg width="676" height="256" viewBox="0 0 676 256" fill="none" xmlns="http://www.w3.org/2000/svg">
<rect width="675.171" height="256" fill="white"/>
<path d="M610.108 177.966C607.472 177.966 604.956 177.607 602.559 176.888C600.203 176.169 598.346 175.291 596.988 174.252L599.384 169.699C600.742 170.618 602.42 171.397 604.417 172.036C606.413 172.675 608.45 172.994 610.527 172.994C613.203 172.994 615.12 172.615 616.278 171.856C617.476 171.097 618.075 170.039 618.075 168.681C618.075 167.683 617.716 166.904 616.997 166.345C616.278 165.786 615.319 165.366 614.121 165.087C612.963 164.807 611.665 164.568 610.227 164.368C608.79 164.128 607.352 163.849 605.914 163.529C604.476 163.17 603.159 162.691 601.96 162.091C600.762 161.453 599.804 160.594 599.085 159.516C598.366 158.397 598.007 156.92 598.007 155.083C598.007 153.166 598.546 151.488 599.624 150.051C600.702 148.613 602.22 147.515 604.177 146.756C606.174 145.957 608.53 145.558 611.246 145.558C613.322 145.558 615.419 145.817 617.536 146.336C619.692 146.816 621.45 147.515 622.808 148.433L620.351 152.986C618.914 152.027 617.416 151.368 615.858 151.009C614.301 150.65 612.743 150.47 611.186 150.47C608.67 150.47 606.793 150.889 605.555 151.728C604.317 152.527 603.698 153.565 603.698 154.843C603.698 155.921 604.057 156.76 604.776 157.359C605.535 157.918 606.493 158.357 607.651 158.677C608.85 158.996 610.167 159.276 611.605 159.516C613.043 159.715 614.481 159.995 615.918 160.354C617.356 160.674 618.654 161.133 619.812 161.732C621.01 162.331 621.969 163.17 622.688 164.248C623.446 165.326 623.826 166.764 623.826 168.561C623.826 170.478 623.267 172.136 622.149 173.533C621.03 174.931 619.453 176.029 617.416 176.828C615.379 177.587 612.943 177.966 610.108 177.966Z" fill="black"/>
<path d="M578.977 145.558C581.573 145.558 583.849 146.057 585.806 147.055C587.803 148.054 589.36 149.571 590.478 151.608C591.597 153.645 592.156 156.221 592.156 159.336V177.607H586.405V159.995C586.405 156.92 585.646 154.603 584.129 153.046C582.651 151.488 580.554 150.709 577.838 150.709C575.802 150.709 574.024 151.109 572.507 151.908C570.989 152.706 569.811 153.884 568.972 155.442C568.174 157 567.774 158.936 567.774 161.253V177.607H562.023V145.857H567.535V154.424L566.636 152.147C567.675 150.07 569.272 148.453 571.429 147.295C573.585 146.137 576.101 145.558 578.977 145.558Z" fill="black"/>
<path d="M541.277 177.966C537.882 177.966 534.887 177.268 532.291 175.87C529.735 174.472 527.739 172.555 526.301 170.119C524.903 167.683 524.204 164.887 524.204 161.732C524.204 158.577 524.883 155.781 526.241 153.345C527.639 150.909 529.536 149.012 531.932 147.654C534.368 146.257 537.104 145.558 540.139 145.558C543.214 145.558 545.93 146.237 548.286 147.594C550.642 148.952 552.479 150.869 553.797 153.345C555.155 155.781 555.834 158.637 555.834 161.912C555.834 162.151 555.814 162.431 555.774 162.75C555.774 163.07 555.754 163.369 555.714 163.649H528.697V159.516H552.719L550.383 160.953C550.423 158.917 550.003 157.099 549.125 155.502C548.246 153.904 547.028 152.666 545.471 151.788C543.953 150.869 542.176 150.41 540.139 150.41C538.142 150.41 536.365 150.869 534.807 151.788C533.25 152.666 532.032 153.924 531.153 155.562C530.275 157.159 529.835 158.996 529.835 161.073V162.032C529.835 164.148 530.314 166.045 531.273 167.723C532.271 169.36 533.649 170.638 535.406 171.557C537.164 172.475 539.18 172.934 541.457 172.934C543.334 172.934 545.031 172.615 546.549 171.976C548.106 171.337 549.464 170.378 550.622 169.1L553.797 172.815C552.36 174.492 550.562 175.77 548.406 176.648C546.289 177.527 543.913 177.966 541.277 177.966Z" fill="black"/>
<path d="M506.394 177.966C503 177.966 500.004 177.268 497.409 175.87C494.853 174.472 492.856 172.555 491.418 170.119C490.02 167.683 489.321 164.887 489.321 161.732C489.321 158.577 490 155.781 491.358 153.345C492.756 150.909 494.653 149.012 497.049 147.654C499.485 146.257 502.221 145.558 505.256 145.558C508.331 145.558 511.047 146.237 513.403 147.594C515.76 148.952 517.597 150.869 518.915 153.345C520.272 155.781 520.951 158.637 520.951 161.912C520.951 162.151 520.931 162.431 520.891 162.75C520.891 163.07 520.871 163.369 520.832 163.649H493.814V159.516H517.836L515.5 160.953C515.54 158.917 515.121 157.099 514.242 155.502C513.363 153.904 512.145 152.666 510.588 151.788C509.07 150.869 507.293 150.41 505.256 150.41C503.259 150.41 501.482 150.869 499.925 151.788C498.367 152.666 497.149 153.924 496.27 155.562C495.392 157.159 494.952 158.996 494.952 161.073V162.032C494.952 164.148 495.432 166.045 496.39 167.723C497.389 169.36 498.766 170.638 500.524 171.557C502.281 172.475 504.298 172.934 506.574 172.934C508.451 172.934 510.148 172.615 511.666 171.976C513.224 171.337 514.581 170.378 515.74 169.1L518.915 172.815C517.477 174.492 515.68 175.77 513.523 176.648C511.406 177.527 509.03 177.966 506.394 177.966Z" fill="black"/>
<path d="M470.187 177.607V145.857H475.698V154.484L475.159 152.327C476.037 150.13 477.515 148.453 479.592 147.295C481.668 146.137 484.224 145.558 487.26 145.558V151.129C487.02 151.089 486.78 151.069 486.541 151.069C486.341 151.069 486.141 151.069 485.942 151.069C482.866 151.069 480.43 151.987 478.633 153.825C476.836 155.662 475.937 158.317 475.937 161.792V177.607H470.187Z" fill="black"/>
<path d="M451.598 177.966C448.363 177.966 445.467 177.268 442.911 175.87C440.395 174.472 438.419 172.555 436.981 170.119C435.543 167.683 434.824 164.887 434.824 161.732C434.824 158.577 435.543 155.781 436.981 153.345C438.419 150.909 440.395 149.012 442.911 147.654C445.467 146.257 448.363 145.558 451.598 145.558C454.473 145.558 457.029 146.137 459.266 147.295C461.542 148.413 463.299 150.09 464.537 152.327L460.164 155.142C459.126 153.585 457.848 152.447 456.33 151.728C454.853 150.969 453.255 150.59 451.538 150.59C449.461 150.59 447.604 151.049 445.967 151.967C444.329 152.886 443.031 154.184 442.073 155.861C441.114 157.499 440.635 159.456 440.635 161.732C440.635 164.008 441.114 165.985 442.073 167.663C443.031 169.34 444.329 170.638 445.967 171.557C447.604 172.475 449.461 172.934 451.538 172.934C453.255 172.934 454.853 172.575 456.33 171.856C457.848 171.097 459.126 169.939 460.164 168.382L464.537 171.137C463.299 173.334 461.542 175.031 459.266 176.229C457.029 177.387 454.473 177.966 451.598 177.966Z" fill="black"/>
<path d="M418.652 177.966C416.016 177.966 413.5 177.607 411.103 176.888C408.747 176.169 406.89 175.291 405.532 174.252L407.928 169.699C409.286 170.618 410.964 171.397 412.96 172.036C414.957 172.675 416.994 172.994 419.071 172.994C421.747 172.994 423.664 172.615 424.822 171.856C426.02 171.097 426.619 170.039 426.619 168.681C426.619 167.683 426.259 166.904 425.541 166.345C424.822 165.786 423.863 165.366 422.665 165.087C421.507 164.807 420.209 164.568 418.771 164.368C417.334 164.128 415.896 163.849 414.458 163.529C413.02 163.17 411.702 162.691 410.504 162.091C409.306 161.453 408.348 160.594 407.629 159.516C406.91 158.397 406.551 156.92 406.551 155.083C406.551 153.166 407.09 151.488 408.168 150.051C409.246 148.613 410.764 147.515 412.721 146.756C414.718 145.957 417.074 145.558 419.79 145.558C421.866 145.558 423.963 145.817 426.08 146.336C428.236 146.816 429.994 147.515 431.351 148.433L428.895 152.986C427.458 152.027 425.96 151.368 424.402 151.009C422.845 150.65 421.287 150.47 419.73 150.47C417.214 150.47 415.337 150.889 414.099 151.728C412.861 152.527 412.242 153.565 412.242 154.843C412.242 155.921 412.601 156.76 413.32 157.359C414.079 157.918 415.037 158.357 416.195 158.677C417.393 158.996 418.711 159.276 420.149 159.516C421.587 159.715 423.025 159.995 424.462 160.354C425.9 160.674 427.198 161.133 428.356 161.732C429.554 162.331 430.513 163.17 431.232 164.248C431.99 165.326 432.37 166.764 432.37 168.561C432.37 170.478 431.811 172.136 430.692 173.533C429.574 174.931 427.997 176.029 425.96 176.828C423.923 177.587 421.487 177.966 418.652 177.966Z" fill="black"/>
<path d="M595.305 126.233V99.2754H601.715V126.233H595.305ZM584.702 115.749V109.759H612.319V115.749H584.702Z" fill="#FFD700"/>
<path d="M552.86 134.08C550.225 134.08 547.709 133.72 545.312 133.001C542.956 132.283 541.099 131.404 539.741 130.366L542.137 125.813C543.495 126.731 545.173 127.51 547.169 128.149C549.166 128.788 551.203 129.108 553.28 129.108C555.956 129.108 557.873 128.728 559.031 127.969C560.229 127.211 560.828 126.152 560.828 124.794C560.828 123.796 560.468 123.017 559.75 122.458C559.031 121.899 558.072 121.48 556.874 121.2C555.716 120.92 554.418 120.681 552.98 120.481C551.543 120.242 550.105 119.962 548.667 119.643C547.229 119.283 545.911 118.804 544.713 118.205C543.515 117.566 542.557 116.707 541.838 115.629C541.119 114.511 540.76 113.033 540.76 111.196C540.76 109.279 541.299 107.602 542.377 106.164C543.455 104.726 544.973 103.628 546.93 102.869C548.927 102.07 551.283 101.671 553.999 101.671C556.075 101.671 558.172 101.93 560.289 102.45C562.445 102.929 564.203 103.628 565.56 104.546L563.104 109.099C561.667 108.141 560.169 107.482 558.611 107.122C557.054 106.763 555.496 106.583 553.939 106.583C551.423 106.583 549.546 107.002 548.308 107.841C547.07 108.64 546.451 109.678 546.451 110.956C546.451 112.035 546.81 112.873 547.529 113.472C548.288 114.031 549.246 114.471 550.404 114.79C551.602 115.11 552.92 115.389 554.358 115.629C555.796 115.829 557.234 116.108 558.671 116.468C560.109 116.787 561.407 117.246 562.565 117.845C563.763 118.444 564.722 119.283 565.441 120.361C566.199 121.44 566.579 122.877 566.579 124.675C566.579 126.592 566.02 128.249 564.901 129.647C563.783 131.044 562.206 132.143 560.169 132.941C558.132 133.7 555.696 134.08 552.86 134.08Z" fill="black"/>
<path d="M521.04 133.72V101.97H526.551V110.597L526.012 108.44C526.891 106.244 528.368 104.566 530.445 103.408C532.522 102.25 535.078 101.671 538.113 101.671V107.242C537.873 107.202 537.634 107.182 537.394 107.182C537.195 107.182 536.995 107.182 536.795 107.182C533.72 107.182 531.284 108.101 529.487 109.938C527.69 111.775 526.791 114.431 526.791 117.905V133.72H521.04Z" fill="black"/>
<path d="M498.41 134.08C495.215 134.08 492.379 133.381 489.903 131.983C487.427 130.585 485.47 128.668 484.033 126.232C482.595 123.756 481.876 120.96 481.876 117.845C481.876 114.69 482.595 111.895 484.033 109.459C485.47 107.022 487.427 105.125 489.903 103.768C492.379 102.37 495.215 101.671 498.41 101.671C501.565 101.671 504.38 102.37 506.857 103.768C509.373 105.125 511.329 107.022 512.727 109.459C514.165 111.855 514.884 114.65 514.884 117.845C514.884 121 514.165 123.796 512.727 126.232C511.329 128.668 509.373 130.585 506.857 131.983C504.38 133.381 501.565 134.08 498.41 134.08ZM498.41 129.048C500.447 129.048 502.264 128.588 503.861 127.67C505.499 126.751 506.777 125.453 507.695 123.776C508.614 122.059 509.073 120.082 509.073 117.845C509.073 115.569 508.614 113.612 507.695 111.975C506.777 110.297 505.499 108.999 503.861 108.081C502.264 107.162 500.447 106.703 498.41 106.703C496.373 106.703 494.556 107.162 492.958 108.081C491.361 108.999 490.083 110.297 489.125 111.975C488.166 113.612 487.687 115.569 487.687 117.845C487.687 120.082 488.166 122.059 489.125 123.776C490.083 125.453 491.361 126.751 492.958 127.67C494.556 128.588 496.373 129.048 498.41 129.048Z" fill="black"/>
<path d="M462.181 134.08C458.986 134.08 456.151 133.381 453.675 131.983C451.199 130.585 449.242 128.668 447.804 126.232C446.366 123.756 445.647 120.96 445.647 117.845C445.647 114.69 446.366 111.895 447.804 109.459C449.242 107.022 451.199 105.125 453.675 103.768C456.151 102.37 458.986 101.671 462.181 101.671C465.336 101.671 468.152 102.37 470.628 103.768C473.144 105.125 475.101 107.022 476.499 109.459C477.936 111.855 478.655 114.65 478.655 117.845C478.655 121 477.936 123.796 476.499 126.232C475.101 128.668 473.144 130.585 470.628 131.983C468.152 133.381 465.336 134.08 462.181 134.08ZM462.181 129.048C464.218 129.048 466.035 128.588 467.633 127.67C469.27 126.751 470.548 125.453 471.467 123.776C472.385 122.059 472.845 120.082 472.845 117.845C472.845 115.569 472.385 113.612 471.467 111.975C470.548 110.297 469.27 108.999 467.633 108.081C466.035 107.162 464.218 106.703 462.181 106.703C460.145 106.703 458.327 107.162 456.73 108.081C455.132 108.999 453.854 110.297 452.896 111.975C451.938 113.612 451.458 115.569 451.458 117.845C451.458 120.082 451.938 122.059 452.896 123.776C453.854 125.453 455.132 126.751 456.73 127.67C458.327 128.588 460.145 129.048 462.181 129.048Z" fill="black"/>
<path d="M422.665 134.08C419.59 134.08 416.834 133.401 414.398 132.043C412.002 130.685 410.105 128.788 408.707 126.352C407.309 123.916 406.61 121.08 406.61 117.845C406.61 114.61 407.309 111.795 408.707 109.399C410.105 106.963 412.002 105.066 414.398 103.708C416.834 102.35 419.59 101.671 422.665 101.671C425.341 101.671 427.757 102.27 429.914 103.468C432.07 104.666 433.787 106.463 435.065 108.86C436.383 111.256 437.042 114.251 437.042 117.845C437.042 121.44 436.403 124.435 435.125 126.831C433.887 129.227 432.19 131.045 430.033 132.283C427.877 133.481 425.421 134.08 422.665 134.08ZM423.144 129.048C425.141 129.048 426.938 128.588 428.536 127.67C430.173 126.751 431.451 125.453 432.37 123.776C433.328 122.059 433.807 120.082 433.807 117.845C433.807 115.569 433.328 113.612 432.37 111.975C431.451 110.297 430.173 108.999 428.536 108.081C426.938 107.162 425.141 106.703 423.144 106.703C421.107 106.703 419.29 107.162 417.693 108.081C416.095 108.999 414.817 110.297 413.859 111.975C412.9 113.612 412.421 115.569 412.421 117.845C412.421 120.082 412.9 122.059 413.859 123.776C414.817 125.453 416.095 126.751 417.693 127.67C419.29 128.588 421.107 129.048 423.144 129.048ZM433.987 133.72V125.154L434.347 117.785L433.747 110.417V89.2705H439.498V133.72H433.987Z" fill="black"/>
<path d="M333.178 177.966V167.565L376.494 115.164L379.522 120.825H333.968V107.659H392.688V118.06L349.372 170.461L346.08 164.8H393.873V177.966H333.178Z" fill="black"/>
<path fill-rule="evenodd" clip-rule="evenodd" d="M304.861 107.658V177.965H321.319V107.658H304.861Z" fill="black"/>
<path d="M313.156 96.0723C310.084 96.0723 307.538 95.1068 305.52 93.1757C303.589 91.2447 302.623 88.9187 302.623 86.1978C302.623 83.389 303.589 81.063 305.52 79.2198C307.538 77.2887 310.084 76.3232 313.156 76.3232C316.228 76.3232 318.729 77.2449 320.66 79.0881C322.679 80.8436 323.689 83.0818 323.689 85.8028C323.689 88.6993 322.723 91.1569 320.792 93.1757C318.861 95.1068 316.316 96.0723 313.156 96.0723Z" fill="#FFD700"/>
<path d="M254.168 177.965V107.658H269.836V127.012L267.992 121.351C270.099 116.611 273.39 113.012 277.867 110.555C282.431 108.097 288.092 106.868 294.851 106.868V122.536C294.149 122.36 293.49 122.272 292.876 122.272C292.262 122.185 291.647 122.141 291.033 122.141C284.801 122.141 279.842 123.984 276.155 127.67C272.469 131.269 270.625 136.667 270.625 143.865V177.965H254.168Z" fill="black"/>
<path d="M206.83 178.887C200.861 178.887 195.551 177.57 190.899 174.937C186.247 172.304 182.56 168.354 179.839 163.088C177.206 157.733 175.89 150.975 175.89 142.812C175.89 134.561 177.25 127.803 179.971 122.536C182.78 117.27 186.51 113.364 191.162 110.819C195.902 108.185 201.125 106.869 206.83 106.869C213.764 106.869 219.864 108.361 225.131 111.345C230.485 114.33 234.698 118.499 237.77 123.853C240.93 129.207 242.51 135.527 242.51 142.812C242.51 150.097 240.93 156.417 237.77 161.771C234.698 167.125 230.485 171.338 225.131 174.41C219.864 177.395 213.764 178.887 206.83 178.887ZM167.858 177.965V80.2734H184.316V123.985L182.999 142.68L183.526 161.376V177.965H167.858ZM204.987 164.799C208.936 164.799 212.447 163.922 215.519 162.166C218.679 160.411 221.181 157.865 223.024 154.53C224.867 151.194 225.789 147.288 225.789 142.812C225.789 138.248 224.867 134.342 223.024 131.094C221.181 127.759 218.679 125.213 215.519 123.458C212.447 121.703 208.936 120.825 204.987 120.825C201.037 120.825 197.482 121.703 194.322 123.458C191.162 125.213 188.661 127.759 186.817 131.094C184.974 134.342 184.053 138.248 184.053 142.812C184.053 147.288 184.974 151.194 186.817 154.53C188.661 157.865 191.162 160.411 194.322 162.166C197.482 163.922 201.037 164.799 204.987 164.799Z" fill="black"/>
<path d="M105.516 51.7959C116.805 49.3964 125.956 56.8071 125.956 68.3482V171.789C125.956 183.33 116.805 194.631 105.516 197.03L71.7891 204.199C60.5002 206.599 51.3486 199.188 51.3486 187.647V84.2065C51.3486 72.6653 60.5001 61.3642 71.7891 58.9647L105.516 51.7959ZM107.56 82.7068C107.56 75.7822 102.069 71.3359 95.2954 72.7756L82.0093 75.5997C75.2359 77.0394 69.745 83.82 69.745 90.7447V173.288C69.745 180.213 75.2359 184.659 82.0093 183.219L95.2954 180.395C102.069 178.956 107.56 172.175 107.56 165.25V82.7068Z" fill="#1D1D1F"/>
</svg>
