<svg width="43" height="16" viewBox="0 0 43 16" fill="none" xmlns="http://www.w3.org/2000/svg">
<rect width="42.1982" height="16" fill="white"/>
<path d="M38.1315 11.1232C37.9667 11.1232 37.8095 11.1007 37.6597 11.0558C37.5125 11.0109 37.3964 10.956 37.3115 10.8911L37.4613 10.6065C37.5462 10.6639 37.651 10.7126 37.7758 10.7525C37.9006 10.7925 38.0279 10.8124 38.1577 10.8124C38.3249 10.8124 38.4447 10.7887 38.5171 10.7413C38.592 10.6939 38.6294 10.6277 38.6294 10.5429C38.6294 10.4805 38.607 10.4318 38.562 10.3969C38.5171 10.3619 38.4572 10.3357 38.3823 10.3182C38.3099 10.3008 38.2288 10.2858 38.139 10.2733C38.0491 10.2583 37.9593 10.2409 37.8694 10.2209C37.7795 10.1984 37.6972 10.1685 37.6223 10.131C37.5474 10.0911 37.4875 10.0374 37.4426 9.97003C37.3976 9.90014 37.3752 9.80778 37.3752 9.69297C37.3752 9.57315 37.4089 9.46832 37.4763 9.37846C37.5437 9.2886 37.6385 9.21996 37.7608 9.17254C37.8856 9.12262 38.0329 9.09766 38.2026 9.09766C38.3324 9.09766 38.4635 9.11388 38.5957 9.14633C38.7305 9.17628 38.8404 9.21996 38.9252 9.27737L38.7717 9.56192C38.6819 9.50202 38.5883 9.46083 38.4909 9.43837C38.3936 9.4159 38.2962 9.40467 38.1989 9.40467C38.0416 9.40467 37.9243 9.43088 37.8469 9.4833C37.7695 9.53322 37.7309 9.59812 37.7309 9.67799C37.7309 9.74538 37.7533 9.7978 37.7983 9.83524C37.8457 9.87019 37.9056 9.89764 37.978 9.91761C38.0529 9.93758 38.1352 9.95505 38.2251 9.97003C38.3149 9.98251 38.4048 9.99998 38.4947 10.0224C38.5845 10.0424 38.6656 10.0711 38.738 10.1086C38.8129 10.146 38.8728 10.1984 38.9177 10.2658C38.9652 10.3332 38.9889 10.4231 38.9889 10.5354C38.9889 10.6552 38.9539 10.7588 38.884 10.8461C38.8142 10.9335 38.7156 11.0021 38.5883 11.0521C38.461 11.0995 38.3087 11.1232 38.1315 11.1232Z" fill="black"/>
<path d="M36.1856 9.09766C36.3478 9.09766 36.4901 9.12886 36.6124 9.19126C36.7372 9.25366 36.8345 9.34851 36.9044 9.47581C36.9743 9.60311 37.0093 9.7641 37.0093 9.9588V11.1007H36.6498V9.99998C36.6498 9.80778 36.6024 9.66301 36.5075 9.56567C36.4152 9.46832 36.2841 9.41965 36.1144 9.41965C35.9871 9.41965 35.876 9.44461 35.7812 9.49453C35.6863 9.54445 35.6127 9.61808 35.5603 9.71543C35.5104 9.81278 35.4854 9.93384 35.4854 10.0786V11.1007H35.126V9.11638H35.4704V9.65178L35.4143 9.50951C35.4792 9.37971 35.579 9.27862 35.7138 9.20623C35.8486 9.13385 36.0058 9.09766 36.1856 9.09766Z" fill="black"/>
<path d="M33.8298 11.1232C33.6176 11.1232 33.4304 11.0795 33.2681 10.9922C33.1084 10.9048 32.9836 10.785 32.8937 10.6327C32.8064 10.4805 32.7627 10.3057 32.7627 10.1086C32.7627 9.91137 32.8051 9.73665 32.89 9.58439C32.9774 9.43213 33.0959 9.31357 33.2457 9.2287C33.3979 9.14134 33.5689 9.09766 33.7586 9.09766C33.9508 9.09766 34.1206 9.14009 34.2678 9.22495C34.4151 9.30982 34.5299 9.42963 34.6123 9.58439C34.6971 9.73665 34.7396 9.91511 34.7396 10.1198C34.7396 10.1348 34.7383 10.1522 34.7358 10.1722C34.7358 10.1922 34.7346 10.2109 34.7321 10.2284H33.0435V9.97003H34.5449L34.3989 10.0599C34.4014 9.93259 34.3751 9.81902 34.3202 9.71917C34.2653 9.61933 34.1892 9.54195 34.0918 9.48704C33.997 9.42963 33.8859 9.40093 33.7586 9.40093C33.6338 9.40093 33.5227 9.42963 33.4254 9.48704C33.3281 9.54195 33.2519 9.62058 33.197 9.72292C33.1421 9.82276 33.1146 9.93758 33.1146 10.0674V10.1273C33.1146 10.2596 33.1446 10.3781 33.2045 10.483C33.2669 10.5853 33.353 10.6652 33.4628 10.7226C33.5727 10.78 33.6987 10.8087 33.841 10.8087C33.9583 10.8087 34.0644 10.7887 34.1592 10.7488C34.2566 10.7089 34.3415 10.649 34.4138 10.5691L34.6123 10.8012C34.5224 10.906 34.4101 10.9859 34.2753 11.0408C34.143 11.0957 33.9945 11.1232 33.8298 11.1232Z" fill="black"/>
<path d="M31.6501 11.1232C31.4379 11.1232 31.2507 11.0795 31.0885 10.9922C30.9287 10.9048 30.8039 10.785 30.7141 10.6327C30.6267 10.4805 30.583 10.3057 30.583 10.1086C30.583 9.91137 30.6254 9.73665 30.7103 9.58439C30.7977 9.43213 30.9162 9.31357 31.066 9.2287C31.2183 9.14134 31.3892 9.09766 31.5789 9.09766C31.7711 9.09766 31.9409 9.14009 32.0881 9.22495C32.2354 9.30982 32.3502 9.42963 32.4326 9.58439C32.5175 9.73665 32.5599 9.91511 32.5599 10.1198C32.5599 10.1348 32.5586 10.1522 32.5561 10.1722C32.5561 10.1922 32.5549 10.2109 32.5524 10.2284H30.8638V9.97003H32.3652L32.2192 10.0599C32.2217 9.93259 32.1955 9.81902 32.1405 9.71917C32.0856 9.61933 32.0095 9.54195 31.9122 9.48704C31.8173 9.42963 31.7062 9.40093 31.5789 9.40093C31.4541 9.40093 31.3431 9.42963 31.2457 9.48704C31.1484 9.54195 31.0722 9.62058 31.0173 9.72292C30.9624 9.82276 30.935 9.93758 30.935 10.0674V10.1273C30.935 10.2596 30.9649 10.3781 31.0248 10.483C31.0872 10.5853 31.1733 10.6652 31.2832 10.7226C31.393 10.78 31.519 10.8087 31.6613 10.8087C31.7786 10.8087 31.8847 10.7887 31.9796 10.7488C32.0769 10.7089 32.1618 10.649 32.2341 10.5691L32.4326 10.8012C32.3427 10.906 32.2304 10.9859 32.0956 11.0408C31.9633 11.0957 31.8148 11.1232 31.6501 11.1232Z" fill="black"/>
<path d="M29.3867 11.1007V9.11638H29.7312V9.65553L29.6975 9.52074C29.7524 9.38345 29.8447 9.27862 29.9745 9.20623C30.1043 9.13385 30.2641 9.09766 30.4538 9.09766V9.44586C30.4388 9.44336 30.4238 9.44211 30.4089 9.44211C30.3964 9.44211 30.3839 9.44211 30.3714 9.44211C30.1792 9.44211 30.027 9.49952 29.9146 9.61434C29.8023 9.72916 29.7462 9.89515 29.7462 10.1123V11.1007H29.3867Z" fill="black"/>
<path d="M28.2251 11.1232C28.0229 11.1232 27.842 11.0795 27.6822 10.9922C27.525 10.9048 27.4014 10.785 27.3115 10.6327C27.2217 10.4805 27.1768 10.3057 27.1768 10.1086C27.1768 9.91137 27.2217 9.73665 27.3115 9.58439C27.4014 9.43213 27.525 9.31357 27.6822 9.2287C27.842 9.14134 28.0229 9.09766 28.2251 9.09766C28.4048 9.09766 28.5646 9.13385 28.7043 9.20623C28.8466 9.27612 28.9564 9.38096 29.0338 9.52074L28.7605 9.69671C28.6956 9.59936 28.6157 9.52823 28.5209 9.4833C28.4285 9.43587 28.3287 9.41216 28.2214 9.41216C28.0916 9.41216 27.9755 9.44086 27.8732 9.49827C27.7708 9.55568 27.6897 9.6368 27.6298 9.74164C27.5699 9.84398 27.5399 9.96628 27.5399 10.1086C27.5399 10.2508 27.5699 10.3744 27.6298 10.4792C27.6897 10.5841 27.7708 10.6652 27.8732 10.7226C27.9755 10.78 28.0916 10.8087 28.2214 10.8087C28.3287 10.8087 28.4285 10.7862 28.5209 10.7413C28.6157 10.6939 28.6956 10.6215 28.7605 10.5242L29.0338 10.6964C28.9564 10.8337 28.8466 10.9397 28.7043 11.0146C28.5646 11.087 28.4048 11.1232 28.2251 11.1232Z" fill="black"/>
<path d="M26.1647 11.1232C25.9999 11.1232 25.8427 11.1007 25.6929 11.0558C25.5457 11.0109 25.4296 10.956 25.3447 10.8911L25.4945 10.6065C25.5794 10.6639 25.6842 10.7126 25.809 10.7525C25.9338 10.7925 26.0611 10.8124 26.1909 10.8124C26.3581 10.8124 26.4779 10.7887 26.5503 10.7413C26.6252 10.6939 26.6626 10.6277 26.6626 10.5429C26.6626 10.4805 26.6402 10.4318 26.5953 10.3969C26.5503 10.3619 26.4904 10.3357 26.4155 10.3182C26.3431 10.3008 26.262 10.2858 26.1722 10.2733C26.0823 10.2583 25.9925 10.2409 25.9026 10.2209C25.8127 10.1984 25.7304 10.1685 25.6555 10.131C25.5806 10.0911 25.5207 10.0374 25.4758 9.97003C25.4308 9.90014 25.4084 9.80778 25.4084 9.69297C25.4084 9.57315 25.4421 9.46832 25.5095 9.37846C25.5769 9.2886 25.6717 9.21996 25.794 9.17254C25.9188 9.12262 26.0661 9.09766 26.2358 9.09766C26.3656 9.09766 26.4967 9.11388 26.6289 9.14633C26.7637 9.17628 26.8736 9.21996 26.9584 9.27737L26.8049 9.56192C26.7151 9.50202 26.6215 9.46083 26.5241 9.43837C26.4268 9.4159 26.3294 9.40467 26.2321 9.40467C26.0748 9.40467 25.9575 9.43088 25.8801 9.4833C25.8028 9.53322 25.7641 9.59812 25.7641 9.67799C25.7641 9.74538 25.7865 9.7978 25.8315 9.83524C25.8789 9.87019 25.9388 9.89764 26.0112 9.91761C26.0861 9.93758 26.1684 9.95505 26.2583 9.97003C26.3481 9.98251 26.438 9.99998 26.5279 10.0224C26.6177 10.0424 26.6988 10.0711 26.7712 10.1086C26.8461 10.146 26.906 10.1984 26.9509 10.2658C26.9984 10.3332 27.0221 10.4231 27.0221 10.5354C27.0221 10.6552 26.9871 10.7588 26.9172 10.8461C26.8474 10.9335 26.7488 11.0021 26.6215 11.0521C26.4942 11.0995 26.3419 11.1232 26.1647 11.1232Z" fill="black"/>
<path d="M37.2066 7.88992V6.20508H37.6073V7.88992H37.2066ZM36.5439 7.2347V6.86029H38.27V7.2347H36.5439Z" fill="#FFD700"/>
<path d="M34.5534 8.38004C34.3886 8.38004 34.2314 8.35758 34.0816 8.31265C33.9343 8.26772 33.8183 8.21281 33.7334 8.14791L33.8832 7.86336C33.968 7.92077 34.0729 7.96944 34.1977 8.00938C34.3225 8.04931 34.4498 8.06928 34.5796 8.06928C34.7468 8.06928 34.8666 8.04557 34.939 7.99815C35.0139 7.95072 35.0513 7.88458 35.0513 7.79971C35.0513 7.73731 35.0289 7.68863 34.9839 7.65369C34.939 7.61875 34.8791 7.59254 34.8042 7.57506C34.7318 7.55759 34.6507 7.54262 34.5608 7.53014C34.471 7.51516 34.3811 7.49769 34.2913 7.47772C34.2014 7.45525 34.119 7.4253 34.0442 7.38786C33.9693 7.34792 33.9094 7.29426 33.8644 7.22686C33.8195 7.15697 33.797 7.06462 33.797 6.9498C33.797 6.82999 33.8307 6.72516 33.8981 6.6353C33.9655 6.54544 34.0604 6.4768 34.1827 6.42937C34.3075 6.37945 34.4548 6.35449 34.6245 6.35449C34.7543 6.35449 34.8853 6.37072 35.0176 6.40317C35.1524 6.43312 35.2622 6.4768 35.3471 6.53421L35.1936 6.81876C35.1037 6.75885 35.0101 6.71767 34.9128 6.6952C34.8154 6.67274 34.7181 6.66151 34.6207 6.66151C34.4635 6.66151 34.3462 6.68772 34.2688 6.74013C34.1914 6.79005 34.1527 6.85495 34.1527 6.93483C34.1527 7.00222 34.1752 7.05464 34.2201 7.09208C34.2676 7.12702 34.3275 7.15448 34.3998 7.17445C34.4747 7.19442 34.5571 7.21189 34.647 7.22686C34.7368 7.23934 34.8267 7.25682 34.9165 7.27928C35.0064 7.29925 35.0875 7.32795 35.1599 7.3654C35.2348 7.40284 35.2947 7.45525 35.3396 7.52265C35.387 7.59004 35.4107 7.6799 35.4107 7.79222C35.4107 7.91203 35.3758 8.01562 35.3059 8.10298C35.236 8.19034 35.1374 8.25898 35.0101 8.3089C34.8828 8.35633 34.7306 8.38004 34.5534 8.38004Z" fill="black"/>
<path d="M32.5654 8.35758V6.37321H32.9099V6.91236L32.8762 6.77757C32.9311 6.64029 33.0235 6.53546 33.1533 6.46307C33.283 6.39069 33.4428 6.35449 33.6325 6.35449V6.70269C33.6175 6.7002 33.6025 6.69895 33.5876 6.69895C33.5751 6.69895 33.5626 6.69895 33.5501 6.69895C33.3579 6.69895 33.2057 6.75636 33.0933 6.87118C32.981 6.98599 32.9249 7.15198 32.9249 7.36914V8.35758H32.5654Z" fill="black"/>
<path d="M31.1506 8.38004C30.9509 8.38004 30.7737 8.33636 30.6189 8.249C30.4641 8.16164 30.3418 8.04183 30.252 7.88957C30.1621 7.73481 30.1172 7.56009 30.1172 7.3654C30.1172 7.16821 30.1621 6.99348 30.252 6.84122C30.3418 6.68896 30.4641 6.5704 30.6189 6.48554C30.7737 6.39817 30.9509 6.35449 31.1506 6.35449C31.3477 6.35449 31.5237 6.39817 31.6785 6.48554C31.8357 6.5704 31.958 6.68896 32.0454 6.84122C32.1352 6.99099 32.1802 7.16571 32.1802 7.3654C32.1802 7.56258 32.1352 7.73731 32.0454 7.88957C31.958 8.04183 31.8357 8.16164 31.6785 8.249C31.5237 8.33636 31.3477 8.38004 31.1506 8.38004ZM31.1506 8.06554C31.2779 8.06554 31.3914 8.03683 31.4913 7.97943C31.5936 7.92202 31.6735 7.84089 31.7309 7.73606C31.7883 7.62873 31.817 7.50517 31.817 7.3654C31.817 7.22312 31.7883 7.10081 31.7309 6.99848C31.6735 6.89364 31.5936 6.81252 31.4913 6.75511C31.3914 6.6977 31.2779 6.669 31.1506 6.669C31.0233 6.669 30.9097 6.6977 30.8098 6.75511C30.71 6.81252 30.6301 6.89364 30.5702 6.99848C30.5103 7.10081 30.4804 7.22312 30.4804 7.3654C30.4804 7.50517 30.5103 7.62873 30.5702 7.73606C30.6301 7.84089 30.71 7.92202 30.8098 7.97943C30.9097 8.03683 31.0233 8.06554 31.1506 8.06554Z" fill="black"/>
<path d="M28.8859 8.38004C28.6862 8.38004 28.509 8.33636 28.3542 8.249C28.1995 8.16164 28.0772 8.04183 27.9873 7.88957C27.8975 7.73481 27.8525 7.56009 27.8525 7.3654C27.8525 7.16821 27.8975 6.99348 27.9873 6.84122C28.0772 6.68896 28.1995 6.5704 28.3542 6.48554C28.509 6.39817 28.6862 6.35449 28.8859 6.35449C29.0831 6.35449 29.2591 6.39817 29.4138 6.48554C29.5711 6.5704 29.6934 6.68896 29.7807 6.84122C29.8706 6.99099 29.9155 7.16571 29.9155 7.3654C29.9155 7.56258 29.8706 7.73731 29.7807 7.88957C29.6934 8.04183 29.5711 8.16164 29.4138 8.249C29.2591 8.33636 29.0831 8.38004 28.8859 8.38004ZM28.8859 8.06554C29.0132 8.06554 29.1268 8.03683 29.2266 7.97943C29.329 7.92202 29.4088 7.84089 29.4662 7.73606C29.5236 7.62873 29.5524 7.50517 29.5524 7.3654C29.5524 7.22312 29.5236 7.10081 29.4662 6.99848C29.4088 6.89364 29.329 6.81252 29.2266 6.75511C29.1268 6.6977 29.0132 6.669 28.8859 6.669C28.7586 6.669 28.645 6.6977 28.5452 6.75511C28.4454 6.81252 28.3655 6.89364 28.3056 6.99848C28.2457 7.10081 28.2157 7.22312 28.2157 7.3654C28.2157 7.50517 28.2457 7.62873 28.3056 7.73606C28.3655 7.84089 28.4454 7.92202 28.5452 7.97943C28.645 8.03683 28.7586 8.06554 28.8859 8.06554Z" fill="black"/>
<path d="M26.4165 8.38065C26.2243 8.38065 26.0521 8.33822 25.8998 8.25336C25.7501 8.16849 25.6315 8.04993 25.5441 7.89767C25.4568 7.74541 25.4131 7.56819 25.4131 7.36601C25.4131 7.16383 25.4568 6.98785 25.5441 6.83809C25.6315 6.68583 25.7501 6.56727 25.8998 6.4824C26.0521 6.39754 26.2243 6.3551 26.4165 6.3551C26.5837 6.3551 26.7347 6.39254 26.8695 6.46743C27.0043 6.54231 27.1117 6.65463 27.1915 6.80439C27.2739 6.95416 27.3151 7.14136 27.3151 7.36601C27.3151 7.59065 27.2751 7.77786 27.1953 7.92762C27.1179 8.07738 27.0118 8.19095 26.877 8.26833C26.7422 8.34321 26.5887 8.38065 26.4165 8.38065ZM26.4465 8.06615C26.5713 8.06615 26.6836 8.03745 26.7834 7.98004C26.8858 7.92263 26.9656 7.84151 27.023 7.73667C27.0829 7.62934 27.1129 7.50579 27.1129 7.36601C27.1129 7.22373 27.0829 7.10143 27.023 6.99909C26.9656 6.89425 26.8858 6.81313 26.7834 6.75572C26.6836 6.69831 26.5713 6.66961 26.4465 6.66961C26.3192 6.66961 26.2056 6.69831 26.1057 6.75572C26.0059 6.81313 25.926 6.89425 25.8661 6.99909C25.8062 7.10143 25.7763 7.22373 25.7763 7.36601C25.7763 7.50579 25.8062 7.62934 25.8661 7.73667C25.926 7.84151 26.0059 7.92263 26.1057 7.98004C26.2056 8.03745 26.3192 8.06615 26.4465 8.06615ZM27.1241 8.35819V7.82279L27.1466 7.36226L27.1092 6.90174V5.58008H27.4686V8.35819H27.1241Z" fill="black"/>
<path d="M20.8252 11.1227V10.4726L23.5325 7.19756L23.7217 7.55139H20.8746V6.72852H24.5446V7.37859L21.8373 10.6536L21.6316 10.2998H24.6187V11.1227H20.8252Z" fill="black"/>
<path fill-rule="evenodd" clip-rule="evenodd" d="M19.0559 6.72798V11.1221H20.0845V6.72798H19.0559Z" fill="black"/>
<path d="M19.5743 6.00384C19.3823 6.00384 19.2232 5.9435 19.097 5.82281C18.9764 5.70212 18.916 5.55675 18.916 5.38669C18.916 5.21114 18.9764 5.06577 19.097 4.95056C19.2232 4.82988 19.3823 4.76953 19.5743 4.76953C19.7663 4.76953 19.9227 4.82713 20.0434 4.94233C20.1695 5.05205 20.2326 5.19194 20.2326 5.362C20.2326 5.54303 20.1723 5.69664 20.0516 5.82281C19.9309 5.9435 19.7718 6.00384 19.5743 6.00384Z" fill="#FFD700"/>
<path d="M15.8877 11.1232V6.72906H16.8669V7.93869L16.7517 7.58485C16.8834 7.28862 17.0891 7.0637 17.3689 6.91009C17.6541 6.75649 18.008 6.67969 18.4304 6.67969V7.65891C18.3865 7.64794 18.3454 7.64245 18.307 7.64245C18.2685 7.63697 18.2301 7.63422 18.1917 7.63422C17.8023 7.63422 17.4923 7.74943 17.2619 7.97983C17.0315 8.20475 16.9163 8.54213 16.9163 8.99197V11.1232H15.8877Z" fill="black"/>
<path d="M12.9289 11.1809C12.5558 11.1809 12.2239 11.0986 11.9332 10.9341C11.6424 10.7695 11.412 10.5226 11.242 10.1935C11.0774 9.85883 10.9951 9.43642 10.9951 8.92624C10.9951 8.41057 11.0801 7.98816 11.2502 7.65901C11.4258 7.32986 11.6589 7.08574 11.9497 6.92665C12.2459 6.76208 12.5723 6.67979 12.9289 6.67979C13.3623 6.67979 13.7435 6.77305 14.0727 6.95957C14.4073 7.14608 14.6706 7.40666 14.8626 7.7413C15.0601 8.07593 15.1589 8.47091 15.1589 8.92624C15.1589 9.38156 15.0601 9.77654 14.8626 10.1112C14.6706 10.4458 14.4073 10.7091 14.0727 10.9011C13.7435 11.0877 13.3623 11.1809 12.9289 11.1809ZM10.4932 11.1233V5.01758H11.5218V7.74953L11.4395 8.91801L11.4724 10.0865V11.1233H10.4932ZM12.8137 10.3004C13.0605 10.3004 13.28 10.2456 13.472 10.1359C13.6695 10.0262 13.8258 9.86706 13.941 9.6586C14.0562 9.45014 14.1138 9.20602 14.1138 8.92624C14.1138 8.64098 14.0562 8.39686 13.941 8.19388C13.8258 7.98542 13.6695 7.82633 13.472 7.71661C13.28 7.60689 13.0605 7.55204 12.8137 7.55204C12.5668 7.55204 12.3446 7.60689 12.1471 7.71661C11.9497 7.82633 11.7933 7.98542 11.6781 8.19388C11.5629 8.39686 11.5053 8.64098 11.5053 8.92624C11.5053 9.20602 11.5629 9.45014 11.6781 9.6586C11.7933 9.86706 11.9497 10.0262 12.1471 10.1359C12.3446 10.2456 12.5668 10.3004 12.8137 10.3004Z" fill="black"/>
<path d="M6.59735 3.23718C7.30291 3.08721 7.87488 3.55038 7.87488 4.2717V10.7367C7.87488 11.458 7.30291 12.1644 6.59735 12.3143L4.48944 12.7624C3.78388 12.9124 3.21191 12.4492 3.21191 11.7279V5.26284C3.21191 4.54152 3.78388 3.8352 4.48944 3.68523L6.59735 3.23718ZM6.7251 5.16911C6.7251 4.73632 6.38192 4.45843 5.95859 4.54841L5.1282 4.72492C4.70487 4.8149 4.36169 5.23869 4.36169 5.67148V10.8304C4.36169 11.2632 4.70487 11.5411 5.1282 11.4512L5.95859 11.2746C6.38192 11.1847 6.7251 10.7609 6.7251 10.3281V5.16911Z" fill="#1D1D1F"/>
</svg>
