<svg width="169" height="64" viewBox="0 0 169 64" fill="none" xmlns="http://www.w3.org/2000/svg">
<rect width="168.793" height="64" fill="white"/>
<path d="M152.527 44.4915C151.868 44.4915 151.239 44.4016 150.64 44.2219C150.051 44.0422 149.587 43.8225 149.247 43.5629L149.846 42.4247C150.186 42.6544 150.605 42.8491 151.104 43.0088C151.603 43.1686 152.113 43.2484 152.632 43.2484C153.301 43.2484 153.78 43.1536 154.069 42.9639C154.369 42.7742 154.519 42.5096 154.519 42.1701C154.519 41.9205 154.429 41.7259 154.249 41.5861C154.069 41.4463 153.83 41.3415 153.53 41.2716C153.241 41.2017 152.916 41.1418 152.557 41.0919C152.197 41.0319 151.838 40.9621 151.479 40.8822C151.119 40.7923 150.79 40.6725 150.49 40.5228C150.191 40.363 149.951 40.1483 149.771 39.8788C149.592 39.5992 149.502 39.2298 149.502 38.7705C149.502 38.2913 149.636 37.8719 149.906 37.5125C150.176 37.1531 150.555 36.8785 151.044 36.6888C151.543 36.4891 152.133 36.3893 152.811 36.3893C153.331 36.3893 153.855 36.4542 154.384 36.584C154.923 36.7038 155.362 36.8785 155.702 37.1081L155.088 38.2463C154.728 38.0067 154.354 37.842 153.965 37.7521C153.575 37.6623 153.186 37.6173 152.796 37.6173C152.167 37.6173 151.698 37.7222 151.389 37.9318C151.079 38.1315 150.924 38.3911 150.924 38.7106C150.924 38.9802 151.014 39.1899 151.194 39.3396C151.384 39.4794 151.623 39.5892 151.913 39.6691C152.212 39.749 152.542 39.8189 152.901 39.8788C153.261 39.9287 153.62 39.9986 153.98 40.0884C154.339 40.1683 154.664 40.2831 154.953 40.4329C155.253 40.5827 155.492 40.7923 155.672 41.0619C155.862 41.3315 155.956 41.6909 155.956 42.1402C155.956 42.6194 155.817 43.0338 155.537 43.3832C155.258 43.7327 154.863 44.0072 154.354 44.2069C153.845 44.3966 153.236 44.4915 152.527 44.4915Z" fill="black"/>
<path d="M144.743 36.3893C145.392 36.3893 145.961 36.5141 146.45 36.7637C146.95 37.0133 147.339 37.3927 147.619 37.9019C147.898 38.4111 148.038 39.0551 148.038 39.8338V44.4016H146.6V39.9986C146.6 39.2298 146.411 38.6507 146.031 38.2613C145.662 37.8719 145.138 37.6772 144.459 37.6772C143.949 37.6772 143.505 37.7771 143.126 37.9768C142.746 38.1765 142.452 38.471 142.242 38.8604C142.042 39.2498 141.943 39.734 141.943 40.3131V44.4016H140.505V36.4642H141.883V38.6058L141.658 38.0367C141.918 37.5175 142.317 37.1131 142.856 36.8236C143.395 36.5341 144.024 36.3893 144.743 36.3893Z" fill="black"/>
<path d="M135.319 44.4915C134.47 44.4915 133.722 44.3168 133.073 43.9673C132.434 43.6179 131.934 43.1386 131.575 42.5296C131.226 41.9205 131.051 41.2216 131.051 40.4329C131.051 39.6441 131.221 38.9452 131.56 38.3362C131.909 37.7272 132.384 37.2529 132.983 36.9135C133.592 36.564 134.276 36.3893 135.034 36.3893C135.803 36.3893 136.482 36.559 137.071 36.8985C137.66 37.2379 138.12 37.7172 138.449 38.3362C138.789 38.9452 138.958 39.6591 138.958 40.4778C138.958 40.5377 138.953 40.6076 138.943 40.6875C138.943 40.7674 138.938 40.8422 138.928 40.9121H132.174V39.8788H138.18L137.595 40.2382C137.605 39.729 137.501 39.2747 137.281 38.8754C137.061 38.476 136.757 38.1665 136.367 37.9468C135.988 37.7172 135.544 37.6024 135.034 37.6024C134.535 37.6024 134.091 37.7172 133.702 37.9468C133.312 38.1665 133.008 38.481 132.788 38.8903C132.568 39.2897 132.459 39.749 132.459 40.2682V40.5078C132.459 41.0369 132.578 41.5112 132.818 41.9305C133.068 42.3399 133.412 42.6594 133.851 42.889C134.291 43.1187 134.795 43.2335 135.364 43.2335C135.833 43.2335 136.258 43.1536 136.637 42.9938C137.026 42.8341 137.366 42.5945 137.655 42.275L138.449 43.2035C138.09 43.6229 137.64 43.9423 137.101 44.162C136.572 44.3817 135.978 44.4915 135.319 44.4915Z" fill="black"/>
<path d="M126.597 44.4915C125.749 44.4915 125 44.3168 124.351 43.9673C123.712 43.6179 123.213 43.1386 122.853 42.5296C122.504 41.9205 122.329 41.2216 122.329 40.4329C122.329 39.6441 122.499 38.9452 122.838 38.3362C123.188 37.7272 123.662 37.2529 124.261 36.9135C124.87 36.564 125.554 36.3893 126.313 36.3893C127.082 36.3893 127.761 36.559 128.35 36.8985C128.939 37.2379 129.398 37.7172 129.727 38.3362C130.067 38.9452 130.237 39.6591 130.237 40.4778C130.237 40.5377 130.232 40.6076 130.222 40.6875C130.222 40.7674 130.217 40.8422 130.207 40.9121H123.452V39.8788H129.458L128.874 40.2382C128.884 39.729 128.779 39.2747 128.559 38.8754C128.34 38.476 128.035 38.1665 127.646 37.9468C127.266 37.7172 126.822 37.6024 126.313 37.6024C125.814 37.6024 125.369 37.7172 124.98 37.9468C124.591 38.1665 124.286 38.481 124.066 38.8903C123.847 39.2897 123.737 39.749 123.737 40.2682V40.5078C123.737 41.0369 123.857 41.5112 124.096 41.9305C124.346 42.3399 124.69 42.6594 125.13 42.889C125.569 43.1187 126.073 43.2335 126.642 43.2335C127.112 43.2335 127.536 43.1536 127.915 42.9938C128.305 42.8341 128.644 42.5945 128.934 42.275L129.727 43.2035C129.368 43.6229 128.919 43.9423 128.38 44.162C127.85 44.3817 127.256 44.4915 126.597 44.4915Z" fill="black"/>
<path d="M117.547 44.4016V36.4642H118.925V38.6208L118.79 38.0816C119.01 37.5325 119.379 37.1131 119.898 36.8236C120.417 36.5341 121.056 36.3893 121.815 36.3893V37.7821C121.755 37.7721 121.695 37.7671 121.635 37.7671C121.585 37.7671 121.536 37.7671 121.486 37.7671C120.717 37.7671 120.108 37.9967 119.659 38.456C119.209 38.9153 118.985 39.5792 118.985 40.4479V44.4016H117.547Z" fill="black"/>
<path d="M112.899 44.4915C112.091 44.4915 111.367 44.3168 110.728 43.9673C110.099 43.6179 109.605 43.1386 109.245 42.5296C108.886 41.9205 108.706 41.2216 108.706 40.4329C108.706 39.6441 108.886 38.9452 109.245 38.3362C109.605 37.7272 110.099 37.2529 110.728 36.9135C111.367 36.564 112.091 36.3893 112.899 36.3893C113.618 36.3893 114.257 36.5341 114.816 36.8236C115.386 37.1032 115.825 37.5225 116.134 38.0816L115.041 38.7855C114.781 38.3961 114.462 38.1116 114.083 37.9318C113.713 37.7421 113.314 37.6473 112.884 37.6473C112.365 37.6473 111.901 37.7621 111.492 37.9918C111.082 38.2214 110.758 38.5459 110.518 38.9652C110.279 39.3746 110.159 39.8638 110.159 40.4329C110.159 41.002 110.279 41.4962 110.518 41.9156C110.758 42.3349 111.082 42.6594 111.492 42.889C111.901 43.1187 112.365 43.2335 112.884 43.2335C113.314 43.2335 113.713 43.1436 114.083 42.9639C114.462 42.7742 114.781 42.4847 115.041 42.0953L116.134 42.7842C115.825 43.3333 115.386 43.7576 114.816 44.0572C114.257 44.3467 113.618 44.4915 112.899 44.4915Z" fill="black"/>
<path d="M104.662 44.4915C104.003 44.4915 103.374 44.4016 102.775 44.2219C102.186 44.0422 101.721 43.8225 101.382 43.5629L101.981 42.4247C102.32 42.6544 102.74 42.8491 103.239 43.0088C103.738 43.1686 104.247 43.2484 104.766 43.2484C105.435 43.2484 105.915 43.1536 106.204 42.9639C106.504 42.7742 106.654 42.5096 106.654 42.1701C106.654 41.9205 106.564 41.7259 106.384 41.5861C106.204 41.4463 105.965 41.3415 105.665 41.2716C105.376 41.2017 105.051 41.1418 104.692 41.0919C104.332 41.0319 103.973 40.9621 103.613 40.8822C103.254 40.7923 102.924 40.6725 102.625 40.5228C102.325 40.363 102.086 40.1483 101.906 39.8788C101.726 39.5992 101.636 39.2298 101.636 38.7705C101.636 38.2913 101.771 37.8719 102.041 37.5125C102.31 37.1531 102.69 36.8785 103.179 36.6888C103.678 36.4891 104.267 36.3893 104.946 36.3893C105.465 36.3893 105.99 36.4542 106.519 36.584C107.058 36.7038 107.497 36.8785 107.837 37.1081L107.223 38.2463C106.863 38.0067 106.489 37.842 106.099 37.7521C105.71 37.6623 105.321 37.6173 104.931 37.6173C104.302 37.6173 103.833 37.7222 103.523 37.9318C103.214 38.1315 103.059 38.3911 103.059 38.7106C103.059 38.9802 103.149 39.1899 103.329 39.3396C103.518 39.4794 103.758 39.5892 104.048 39.6691C104.347 39.749 104.677 39.8189 105.036 39.8788C105.395 39.9287 105.755 39.9986 106.114 40.0884C106.474 40.1683 106.798 40.2831 107.088 40.4329C107.387 40.5827 107.627 40.7923 107.807 41.0619C107.996 41.3315 108.091 41.6909 108.091 42.1402C108.091 42.6194 107.951 43.0338 107.672 43.3832C107.392 43.7327 106.998 44.0072 106.489 44.2069C105.98 44.3966 105.371 44.4915 104.662 44.4915Z" fill="black"/>
<path d="M148.827 31.557V24.8177H150.429V31.557H148.827ZM146.176 28.9362V27.4385H153.08V28.9362H146.176Z" fill="#FFD700"/>
<path d="M138.214 33.5188C137.555 33.5188 136.926 33.429 136.327 33.2493C135.738 33.0695 135.274 32.8499 134.935 32.5903L135.534 31.4521C135.873 31.6817 136.292 31.8764 136.792 32.0362C137.291 32.1959 137.8 32.2758 138.319 32.2758C138.988 32.2758 139.467 32.1809 139.757 31.9912C140.056 31.8015 140.206 31.537 140.206 31.1975C140.206 30.9479 140.116 30.7532 139.937 30.6134C139.757 30.4736 139.517 30.3688 139.218 30.2989C138.928 30.229 138.604 30.1691 138.244 30.1192C137.885 30.0593 137.525 29.9894 137.166 29.9095C136.807 29.8197 136.477 29.6999 136.178 29.5501C135.878 29.3903 135.638 29.1757 135.459 28.9061C135.279 28.6266 135.189 28.2571 135.189 27.7979C135.189 27.3186 135.324 26.8993 135.594 26.5399C135.863 26.1804 136.243 25.9059 136.732 25.7162C137.231 25.5165 137.82 25.4166 138.499 25.4166C139.018 25.4166 139.542 25.4815 140.071 25.6113C140.611 25.7311 141.05 25.9059 141.389 26.1355L140.775 27.2737C140.416 27.0341 140.042 26.8693 139.652 26.7795C139.263 26.6896 138.873 26.6447 138.484 26.6447C137.855 26.6447 137.386 26.7495 137.076 26.9592C136.767 27.1589 136.612 27.4185 136.612 27.738C136.612 28.0075 136.702 28.2172 136.881 28.367C137.071 28.5067 137.311 28.6166 137.6 28.6964C137.9 28.7763 138.229 28.8462 138.589 28.9061C138.948 28.956 139.308 29.0259 139.667 29.1158C140.027 29.1957 140.351 29.3105 140.641 29.4602C140.94 29.61 141.18 29.8197 141.359 30.0892C141.549 30.3588 141.644 30.7183 141.644 31.1675C141.644 31.6468 141.504 32.0611 141.225 32.4106C140.945 32.76 140.551 33.0346 140.042 33.2343C139.532 33.424 138.923 33.5188 138.214 33.5188Z" fill="black"/>
<path d="M130.259 33.429V25.4915H131.637V27.6481L131.502 27.109C131.721 26.5598 132.091 26.1405 132.61 25.8509C133.129 25.5614 133.768 25.4166 134.527 25.4166V26.8094C134.467 26.7994 134.407 26.7944 134.347 26.7944C134.297 26.7944 134.247 26.7944 134.198 26.7944C133.429 26.7944 132.82 27.0241 132.37 27.4834C131.921 27.9426 131.697 28.6066 131.697 29.4752V33.429H130.259Z" fill="black"/>
<path d="M124.602 33.5188C123.803 33.5188 123.095 33.3441 122.476 32.9947C121.857 32.6452 121.367 32.166 121.008 31.5569C120.648 30.9379 120.469 30.239 120.469 29.4602C120.469 28.6715 120.648 27.9726 121.008 27.3636C121.367 26.7545 121.857 26.2803 122.476 25.9408C123.095 25.5914 123.803 25.4166 124.602 25.4166C125.391 25.4166 126.095 25.5914 126.714 25.9408C127.343 26.2803 127.832 26.7545 128.182 27.3636C128.541 27.9626 128.721 28.6615 128.721 29.4602C128.721 30.249 128.541 30.9479 128.182 31.5569C127.832 32.166 127.343 32.6452 126.714 32.9947C126.095 33.3441 125.391 33.5188 124.602 33.5188ZM124.602 32.2608C125.111 32.2608 125.566 32.146 125.965 31.9164C126.374 31.6867 126.694 31.3622 126.924 30.9429C127.153 30.5136 127.268 30.0194 127.268 29.4602C127.268 28.8911 127.153 28.4019 126.924 27.9926C126.694 27.5732 126.374 27.2487 125.965 27.0191C125.566 26.7895 125.111 26.6746 124.602 26.6746C124.093 26.6746 123.639 26.7895 123.239 27.0191C122.84 27.2487 122.521 27.5732 122.281 27.9926C122.041 28.4019 121.921 28.8911 121.921 29.4602C121.921 30.0194 122.041 30.5136 122.281 30.9429C122.521 31.3622 122.84 31.6867 123.239 31.9164C123.639 32.146 124.093 32.2608 124.602 32.2608Z" fill="black"/>
<path d="M115.545 33.5188C114.746 33.5188 114.037 33.3441 113.418 32.9947C112.799 32.6452 112.31 32.166 111.95 31.5569C111.591 30.9379 111.411 30.239 111.411 29.4602C111.411 28.6715 111.591 27.9726 111.95 27.3636C112.31 26.7545 112.799 26.2803 113.418 25.9408C114.037 25.5914 114.746 25.4166 115.545 25.4166C116.333 25.4166 117.037 25.5914 117.656 25.9408C118.285 26.2803 118.775 26.7545 119.124 27.3636C119.483 27.9626 119.663 28.6615 119.663 29.4602C119.663 30.249 119.483 30.9479 119.124 31.5569C118.775 32.166 118.285 32.6452 117.656 32.9947C117.037 33.3441 116.333 33.5188 115.545 33.5188ZM115.545 32.2608C116.054 32.2608 116.508 32.146 116.907 31.9164C117.317 31.6867 117.636 31.3622 117.866 30.9429C118.096 30.5136 118.21 30.0194 118.21 29.4602C118.21 28.8911 118.096 28.4019 117.866 27.9926C117.636 27.5732 117.317 27.2487 116.907 27.0191C116.508 26.7895 116.054 26.6746 115.545 26.6746C115.035 26.6746 114.581 26.7895 114.182 27.0191C113.782 27.2487 113.463 27.5732 113.223 27.9926C112.984 28.4019 112.864 28.8911 112.864 29.4602C112.864 30.0194 112.984 30.5136 113.223 30.9429C113.463 31.3622 113.782 31.6867 114.182 31.9164C114.581 32.146 115.035 32.2608 115.545 32.2608Z" fill="black"/>
<path d="M105.666 33.5187C104.897 33.5187 104.208 33.3489 103.599 33.0095C103 32.67 102.526 32.1957 102.177 31.5867C101.827 30.9777 101.652 30.2688 101.652 29.4601C101.652 28.6513 101.827 27.9475 102.177 27.3484C102.526 26.7394 103 26.2651 103.599 25.9256C104.208 25.5862 104.897 25.4164 105.666 25.4164C106.335 25.4164 106.939 25.5662 107.478 25.8657C108.017 26.1653 108.447 26.6146 108.766 27.2136C109.096 27.8127 109.26 28.5615 109.26 29.4601C109.26 30.3586 109.101 31.1075 108.781 31.7065C108.472 32.3056 108.047 32.7598 107.508 33.0694C106.969 33.3689 106.355 33.5187 105.666 33.5187ZM105.786 32.2606C106.285 32.2606 106.734 32.1458 107.134 31.9162C107.543 31.6865 107.863 31.3621 108.092 30.9427C108.332 30.5134 108.452 30.0192 108.452 29.4601C108.452 28.891 108.332 28.4017 108.092 27.9924C107.863 27.573 107.543 27.2486 107.134 27.0189C106.734 26.7893 106.285 26.6745 105.786 26.6745C105.277 26.6745 104.822 26.7893 104.423 27.0189C104.024 27.2486 103.704 27.573 103.464 27.9924C103.225 28.4017 103.105 28.891 103.105 29.4601C103.105 30.0192 103.225 30.5134 103.464 30.9427C103.704 31.3621 104.024 31.6865 104.423 31.9162C104.822 32.1458 105.277 32.2606 105.786 32.2606ZM108.497 33.4288V31.2872L108.586 29.4451L108.437 27.603V22.3163H109.874V33.4288H108.497Z" fill="black"/>
<path d="M83.293 44.492V41.8917L94.122 28.7915L94.8791 30.2068H83.4905V26.9153H98.1706V29.5156L87.3415 42.6158L86.5186 41.2005H98.4668V44.492H83.293Z" fill="black"/>
<path fill-rule="evenodd" clip-rule="evenodd" d="M76.2148 26.9145V44.4912H80.3292V26.9145H76.2148Z" fill="black"/>
<path d="M78.2885 24.018C77.5205 24.018 76.8841 23.7766 76.3794 23.2939C75.8967 22.8111 75.6553 22.2296 75.6553 21.5494C75.6553 20.8472 75.8967 20.2657 76.3794 19.8049C76.8841 19.3221 77.5205 19.0807 78.2885 19.0807C79.0565 19.0807 79.6819 19.3112 80.1646 19.772C80.6693 20.2108 80.9217 20.7704 80.9217 21.4506C80.9217 22.1748 80.6803 22.7892 80.1975 23.2939C79.7148 23.7766 79.0784 24.018 78.2885 24.018Z" fill="#FFD700"/>
<path d="M63.541 44.4916V26.915H67.4579V31.7535L66.9971 30.3381C67.5237 29.1532 68.3466 28.2535 69.4657 27.6391C70.6068 27.0247 72.0221 26.7175 73.7118 26.7175V30.6344C73.5362 30.5905 73.3716 30.5685 73.218 30.5685C73.0644 30.5466 72.9108 30.5356 72.7572 30.5356C71.1992 30.5356 69.9594 30.9964 69.0378 31.918C68.1162 32.8177 67.6554 34.1672 67.6554 35.9666V44.4916H63.541Z" fill="black"/>
<path d="M51.7067 44.7224C50.2146 44.7224 48.887 44.3932 47.724 43.7349C46.561 43.0766 45.6394 42.0892 44.9591 40.7726C44.3008 39.434 43.9717 37.7444 43.9717 35.7037C43.9717 33.641 44.3118 31.9514 44.9921 30.6348C45.6942 29.3182 46.6268 28.3417 47.7898 27.7053C48.9748 27.047 50.2804 26.7179 51.7067 26.7179C53.4402 26.7179 54.9653 27.0909 56.2819 27.837C57.6205 28.5831 58.6737 29.6254 59.4418 30.9639C60.2317 32.3025 60.6267 33.8824 60.6267 35.7037C60.6267 37.525 60.2317 39.1049 59.4418 40.4434C58.6737 41.782 57.6205 42.8353 56.2819 43.6033C54.9653 44.3494 53.4402 44.7224 51.7067 44.7224ZM41.9639 44.492V20.069H46.0782V30.9968L45.7491 35.6708L45.8808 40.3447V44.492H41.9639ZM51.2459 41.2005C52.2334 41.2005 53.1111 40.9811 53.8791 40.5422C54.6691 40.1033 55.2945 39.467 55.7553 38.6331C56.2161 37.7993 56.4465 36.8228 56.4465 35.7037C56.4465 34.5626 56.2161 33.5861 55.7553 32.7742C55.2945 31.9404 54.6691 31.304 53.8791 30.8652C53.1111 30.4263 52.2334 30.2069 51.2459 30.2069C50.2585 30.2069 49.3698 30.4263 48.5798 30.8652C47.7898 31.304 47.1644 31.9404 46.7036 32.7742C46.2428 33.5861 46.0124 34.5626 46.0124 35.7037C46.0124 36.8228 46.2428 37.7993 46.7036 38.6331C47.1644 39.467 47.7898 40.1033 48.5798 40.5422C49.3698 40.9811 50.2585 41.2005 51.2459 41.2005Z" fill="black"/>
<path d="M26.3767 12.9484C29.1989 12.3485 31.4868 14.2012 31.4868 17.0865V42.9466C31.4868 45.8319 29.1989 48.6571 26.3767 49.257L17.9451 51.0492C15.1228 51.6491 12.835 49.7964 12.835 46.9111V21.0511C12.835 18.1658 15.1228 15.3405 17.9451 14.7406L26.3767 12.9484ZM26.8877 20.6761C26.8877 18.945 25.515 17.8334 23.8217 18.1933L20.5001 18.8994C18.8068 19.2593 17.4341 20.9545 17.4341 22.6856V43.3214C17.4341 45.0526 18.8068 46.1642 20.5001 45.8043L23.8217 45.0983C25.515 44.7383 26.8877 43.0431 26.8877 41.312V20.6761Z" fill="#1D1D1F"/>
</svg>
