<svg width="85" height="32" viewBox="0 0 85 32" fill="none" xmlns="http://www.w3.org/2000/svg">
<rect width="84.3964" height="32" fill="white"/>
<path d="M76.2639 22.2464C75.9345 22.2464 75.6199 22.2015 75.3204 22.1116C75.0259 22.0218 74.7938 21.9119 74.624 21.7821L74.9235 21.213C75.0933 21.3279 75.303 21.4252 75.5526 21.5051C75.8022 21.585 76.0568 21.6249 76.3164 21.6249C76.6508 21.6249 76.8904 21.5775 77.0352 21.4826C77.185 21.3878 77.2599 21.2555 77.2599 21.0857C77.2599 20.9609 77.2149 20.8636 77.1251 20.7937C77.0352 20.7238 76.9154 20.6714 76.7656 20.6365C76.6209 20.6015 76.4586 20.5716 76.2789 20.5466C76.0992 20.5166 75.9195 20.4817 75.7398 20.4418C75.56 20.3968 75.3953 20.3369 75.2455 20.262C75.0958 20.1822 74.976 20.0748 74.8861 19.9401C74.7963 19.8003 74.7513 19.6156 74.7513 19.3859C74.7513 19.1463 74.8187 18.9366 74.9535 18.7569C75.0883 18.5772 75.278 18.4399 75.5226 18.3451C75.7722 18.2452 76.0667 18.1953 76.4062 18.1953C76.6658 18.1953 76.9279 18.2278 77.1925 18.2927C77.462 18.3526 77.6817 18.4399 77.8514 18.5547L77.5444 19.1238C77.3647 19.004 77.1775 18.9217 76.9828 18.8767C76.7881 18.8318 76.5934 18.8093 76.3987 18.8093C76.0842 18.8093 75.8496 18.8618 75.6948 18.9666C75.5401 19.0664 75.4627 19.1962 75.4627 19.356C75.4627 19.4908 75.5076 19.5956 75.5975 19.6705C75.6923 19.7404 75.8121 19.7953 75.9569 19.8352C76.1067 19.8752 76.2714 19.9101 76.4511 19.9401C76.6309 19.965 76.8106 20 76.9903 20.0449C77.17 20.0848 77.3322 20.1422 77.477 20.2171C77.6268 20.292 77.7466 20.3968 77.8364 20.5316C77.9313 20.6664 77.9787 20.8461 77.9787 21.0708C77.9787 21.3104 77.9088 21.5176 77.7691 21.6923C77.6293 21.867 77.4321 22.0043 77.1775 22.1041C76.9229 22.199 76.6184 22.2464 76.2639 22.2464Z" fill="black"/>
<path d="M72.3721 18.1953C72.6966 18.1953 72.9811 18.2577 73.2257 18.3825C73.4753 18.5073 73.67 18.697 73.8098 18.9516C73.9496 19.2062 74.0195 19.5282 74.0195 19.9176V22.2015H73.3006V20C73.3006 19.6156 73.2058 19.326 73.0161 19.1313C72.8314 18.9366 72.5693 18.8393 72.2298 18.8393C71.9752 18.8393 71.7531 18.8892 71.5634 18.9891C71.3737 19.0889 71.2264 19.2362 71.1216 19.4309C71.0217 19.6256 70.9718 19.8677 70.9718 20.1572V22.2015H70.2529V18.2328H70.9418V19.3036L70.8295 19.019C70.9593 18.7594 71.159 18.5572 71.4286 18.4125C71.6981 18.2677 72.0126 18.1953 72.3721 18.1953Z" fill="black"/>
<path d="M67.6595 22.2464C67.2352 22.2464 66.8608 22.1591 66.5363 21.9843C66.2168 21.8096 65.9672 21.57 65.7875 21.2655C65.6128 20.9609 65.5254 20.6115 65.5254 20.2171C65.5254 19.8227 65.6103 19.4733 65.78 19.1688C65.9547 18.8643 66.1918 18.6271 66.4914 18.4574C66.7959 18.2827 67.1378 18.1953 67.5172 18.1953C67.9016 18.1953 68.2411 18.2802 68.5356 18.4499C68.8302 18.6196 69.0598 18.8593 69.2245 19.1688C69.3943 19.4733 69.4791 19.8302 69.4791 20.2396C69.4791 20.2695 69.4766 20.3045 69.4717 20.3444C69.4717 20.3844 69.4692 20.4218 69.4642 20.4567H66.087V19.9401H69.0898L68.7977 20.1198C68.8027 19.8652 68.7503 19.638 68.6405 19.4383C68.5306 19.2387 68.3784 19.0839 68.1837 18.9741C67.994 18.8593 67.7718 18.8019 67.5172 18.8019C67.2676 18.8019 67.0455 18.8593 66.8508 18.9741C66.6561 19.0839 66.5038 19.2412 66.394 19.4458C66.2842 19.6455 66.2293 19.8752 66.2293 20.1347V20.2546C66.2293 20.5191 66.2892 20.7563 66.409 20.9659C66.5338 21.1706 66.706 21.3304 66.9257 21.4452C67.1453 21.56 67.3974 21.6174 67.682 21.6174C67.9166 21.6174 68.1288 21.5775 68.3185 21.4976C68.5132 21.4177 68.6829 21.2979 68.8277 21.1382L69.2245 21.6024C69.0448 21.8121 68.8202 21.9718 68.5506 22.0817C68.286 22.1915 67.989 22.2464 67.6595 22.2464Z" fill="black"/>
<path d="M63.2992 22.2464C62.8748 22.2464 62.5004 22.1591 62.1759 21.9843C61.8564 21.8096 61.6068 21.57 61.4271 21.2655C61.2524 20.9609 61.165 20.6115 61.165 20.2171C61.165 19.8227 61.2499 19.4733 61.4196 19.1688C61.5944 18.8643 61.8315 18.6271 62.131 18.4574C62.4355 18.2827 62.7775 18.1953 63.1569 18.1953C63.5413 18.1953 63.8807 18.2802 64.1753 18.4499C64.4698 18.6196 64.6995 18.8593 64.8642 19.1688C65.0339 19.4733 65.1188 19.8302 65.1188 20.2396C65.1188 20.2695 65.1163 20.3045 65.1113 20.3444C65.1113 20.3844 65.1088 20.4218 65.1038 20.4567H61.7267V19.9401H64.7294L64.4374 20.1198C64.4424 19.8652 64.3899 19.638 64.2801 19.4383C64.1703 19.2387 64.018 19.0839 63.8233 18.9741C63.6336 18.8593 63.4115 18.8019 63.1569 18.8019C62.9073 18.8019 62.6851 18.8593 62.4904 18.9741C62.2958 19.0839 62.1435 19.2412 62.0337 19.4458C61.9238 19.6455 61.8689 19.8752 61.8689 20.1347V20.2546C61.8689 20.5191 61.9288 20.7563 62.0486 20.9659C62.1734 21.1706 62.3457 21.3304 62.5653 21.4452C62.785 21.56 63.0371 21.6174 63.3216 21.6174C63.5563 21.6174 63.7684 21.5775 63.9581 21.4976C64.1528 21.4177 64.3226 21.2979 64.4673 21.1382L64.8642 21.6024C64.6845 21.8121 64.4598 21.9718 64.1903 22.0817C63.9257 22.1915 63.6286 22.2464 63.2992 22.2464Z" fill="black"/>
<path d="M58.7734 22.2015V18.2328H59.4623V19.3111L59.395 19.0415C59.5048 18.7669 59.6895 18.5572 59.9491 18.4125C60.2087 18.2677 60.5282 18.1953 60.9076 18.1953V18.8917C60.8776 18.8867 60.8477 18.8842 60.8177 18.8842C60.7927 18.8842 60.7678 18.8842 60.7428 18.8842C60.3584 18.8842 60.0539 18.999 59.8293 19.2287C59.6046 19.4583 59.4923 19.7903 59.4923 20.2246V22.2015H58.7734Z" fill="black"/>
<path d="M56.4492 22.2464C56.0449 22.2464 55.6829 22.1591 55.3634 21.9843C55.0489 21.8096 54.8018 21.57 54.6221 21.2655C54.4424 20.9609 54.3525 20.6115 54.3525 20.2171C54.3525 19.8227 54.4424 19.4733 54.6221 19.1688C54.8018 18.8643 55.0489 18.6271 55.3634 18.4574C55.6829 18.2827 56.0449 18.1953 56.4492 18.1953C56.8087 18.1953 57.1282 18.2677 57.4077 18.4125C57.6923 18.5522 57.9119 18.7619 58.0667 19.0415L57.52 19.3934C57.3902 19.1987 57.2305 19.0565 57.0408 18.9666C56.8561 18.8717 56.6564 18.8243 56.4417 18.8243C56.1821 18.8243 55.95 18.8817 55.7453 18.9965C55.5407 19.1114 55.3784 19.2736 55.2586 19.4833C55.1388 19.688 55.0789 19.9326 55.0789 20.2171C55.0789 20.5017 55.1388 20.7488 55.2586 20.9584C55.3784 21.1681 55.5407 21.3304 55.7453 21.4452C55.95 21.56 56.1821 21.6174 56.4417 21.6174C56.6564 21.6174 56.8561 21.5725 57.0408 21.4826C57.2305 21.3878 57.3902 21.243 57.52 21.0483L58.0667 21.3928C57.9119 21.6673 57.6923 21.8795 57.4077 22.0293C57.1282 22.174 56.8087 22.2464 56.4492 22.2464Z" fill="black"/>
<path d="M52.3303 22.2464C52.0009 22.2464 51.6864 22.2015 51.3868 22.1116C51.0923 22.0218 50.8602 21.9119 50.6904 21.7821L50.99 21.213C51.1597 21.3279 51.3694 21.4252 51.619 21.5051C51.8686 21.585 52.1232 21.6249 52.3828 21.6249C52.7172 21.6249 52.9568 21.5775 53.1016 21.4826C53.2514 21.3878 53.3263 21.2555 53.3263 21.0857C53.3263 20.9609 53.2813 20.8636 53.1915 20.7937C53.1016 20.7238 52.9818 20.6714 52.832 20.6365C52.6873 20.6015 52.525 20.5716 52.3453 20.5466C52.1656 20.5166 51.9859 20.4817 51.8062 20.4418C51.6265 20.3968 51.4617 20.3369 51.3119 20.262C51.1622 20.1822 51.0424 20.0748 50.9525 19.9401C50.8627 19.8003 50.8177 19.6156 50.8177 19.3859C50.8177 19.1463 50.8851 18.9366 51.0199 18.7569C51.1547 18.5772 51.3444 18.4399 51.589 18.3451C51.8386 18.2452 52.1332 18.1953 52.4726 18.1953C52.7322 18.1953 52.9943 18.2278 53.2589 18.2927C53.5284 18.3526 53.7481 18.4399 53.9178 18.5547L53.6108 19.1238C53.4311 19.004 53.2439 18.9217 53.0492 18.8767C52.8545 18.8318 52.6598 18.8093 52.4651 18.8093C52.1506 18.8093 51.916 18.8618 51.7612 18.9666C51.6065 19.0664 51.5291 19.1962 51.5291 19.356C51.5291 19.4908 51.574 19.5956 51.6639 19.6705C51.7587 19.7404 51.8786 19.7953 52.0233 19.8352C52.1731 19.8752 52.3378 19.9101 52.5175 19.9401C52.6973 19.965 52.877 20 53.0567 20.0449C53.2364 20.0848 53.3987 20.1422 53.5434 20.2171C53.6932 20.292 53.813 20.3968 53.9029 20.5316C53.9977 20.6664 54.0451 20.8461 54.0451 21.0708C54.0451 21.3104 53.9752 21.5176 53.8355 21.6923C53.6957 21.867 53.4985 22.0043 53.2439 22.1041C52.9893 22.199 52.6848 22.2464 52.3303 22.2464Z" fill="black"/>
<path d="M74.4133 15.7789V12.4092H75.2145V15.7789H74.4133ZM73.0879 14.4684V13.7196H76.5399V14.4684H73.0879Z" fill="#FFD700"/>
<path d="M69.1077 16.7601C68.7782 16.7601 68.4637 16.7152 68.1642 16.6253C67.8696 16.5354 67.6375 16.4256 67.4678 16.2958L67.7673 15.7267C67.937 15.8415 68.1467 15.9389 68.3963 16.0188C68.6459 16.0986 68.9005 16.1386 69.1601 16.1386C69.4946 16.1386 69.7342 16.0911 69.879 15.9963C70.0287 15.9014 70.1036 15.7692 70.1036 15.5994C70.1036 15.4746 70.0587 15.3773 69.9688 15.3074C69.879 15.2375 69.7592 15.1851 69.6094 15.1501C69.4646 15.1152 69.3024 15.0852 69.1227 15.0603C68.9429 15.0303 68.7632 14.9954 68.5835 14.9554C68.4038 14.9105 68.2391 14.8506 68.0893 14.7757C67.9395 14.6958 67.8197 14.5885 67.7299 14.4537C67.64 14.3139 67.5951 14.1292 67.5951 13.8996C67.5951 13.66 67.6625 13.4503 67.7973 13.2706C67.932 13.0909 68.1217 12.9536 68.3664 12.8587C68.616 12.7589 68.9105 12.709 69.25 12.709C69.5095 12.709 69.7716 12.7414 70.0362 12.8063C70.3058 12.8662 70.5254 12.9536 70.6952 13.0684L70.3882 13.6375C70.2084 13.5177 70.0212 13.4353 69.8265 13.3904C69.6319 13.3455 69.4372 13.323 69.2425 13.323C68.928 13.323 68.6933 13.3754 68.5386 13.4803C68.3838 13.5801 68.3064 13.7099 68.3064 13.8697C68.3064 14.0044 68.3514 14.1093 68.4412 14.1842C68.5361 14.254 68.6559 14.309 68.8007 14.3489C68.9504 14.3888 69.1152 14.4238 69.2949 14.4537C69.4746 14.4787 69.6543 14.5136 69.834 14.5586C70.0138 14.5985 70.176 14.6559 70.3208 14.7308C70.4705 14.8057 70.5903 14.9105 70.6802 15.0453C70.775 15.1801 70.8225 15.3598 70.8225 15.5844C70.8225 15.8241 70.7526 16.0312 70.6128 16.206C70.473 16.3807 70.2758 16.518 70.0212 16.6178C69.7666 16.7127 69.4621 16.7601 69.1077 16.7601Z" fill="black"/>
<path d="M65.1299 16.7152V12.7464H65.8188V13.8247L65.7514 13.5551C65.8612 13.2806 66.0459 13.0709 66.3055 12.9261C66.5651 12.7814 66.8846 12.709 67.264 12.709V13.4054C67.2341 13.4004 67.2041 13.3979 67.1742 13.3979C67.1492 13.3979 67.1242 13.3979 67.0993 13.3979C66.7149 13.3979 66.4104 13.5127 66.1857 13.7424C65.9611 13.972 65.8487 14.304 65.8487 14.7383V16.7152H65.1299Z" fill="black"/>
<path d="M62.3011 16.7601C61.9017 16.7601 61.5473 16.6727 61.2378 16.498C60.9283 16.3233 60.6837 16.0837 60.5039 15.7791C60.3242 15.4696 60.2344 15.1202 60.2344 14.7308C60.2344 14.3364 60.3242 13.987 60.5039 13.6824C60.6837 13.3779 60.9283 13.1408 61.2378 12.9711C61.5473 12.7963 61.9017 12.709 62.3011 12.709C62.6955 12.709 63.0474 12.7963 63.3569 12.9711C63.6714 13.1408 63.9161 13.3779 64.0908 13.6824C64.2705 13.982 64.3604 14.3314 64.3604 14.7308C64.3604 15.1252 64.2705 15.4746 64.0908 15.7791C63.9161 16.0837 63.6714 16.3233 63.3569 16.498C63.0474 16.6727 62.6955 16.7601 62.3011 16.7601ZM62.3011 16.1311C62.5557 16.1311 62.7828 16.0737 62.9825 15.9589C63.1872 15.844 63.347 15.6818 63.4618 15.4721C63.5766 15.2575 63.634 15.0103 63.634 14.7308C63.634 14.4462 63.5766 14.2016 63.4618 13.997C63.347 13.7873 63.1872 13.625 62.9825 13.5102C62.7828 13.3954 62.5557 13.338 62.3011 13.338C62.0465 13.338 61.8194 13.3954 61.6197 13.5102C61.42 13.625 61.2603 13.7873 61.1404 13.997C61.0206 14.2016 60.9607 14.4462 60.9607 14.7308C60.9607 15.0103 61.0206 15.2575 61.1404 15.4721C61.2603 15.6818 61.42 15.844 61.6197 15.9589C61.8194 16.0737 62.0465 16.1311 62.3011 16.1311Z" fill="black"/>
<path d="M57.7728 16.7601C57.3734 16.7601 57.019 16.6727 56.7095 16.498C56.4 16.3233 56.1553 16.0837 55.9756 15.7791C55.7959 15.4696 55.7061 15.1202 55.7061 14.7308C55.7061 14.3364 55.7959 13.987 55.9756 13.6824C56.1553 13.3779 56.4 13.1408 56.7095 12.9711C57.019 12.7963 57.3734 12.709 57.7728 12.709C58.1672 12.709 58.5191 12.7963 58.8286 12.9711C59.1431 13.1408 59.3877 13.3779 59.5625 13.6824C59.7422 13.982 59.832 14.3314 59.832 14.7308C59.832 15.1252 59.7422 15.4746 59.5625 15.7791C59.3877 16.0837 59.1431 16.3233 58.8286 16.498C58.5191 16.6727 58.1672 16.7601 57.7728 16.7601ZM57.7728 16.1311C58.0274 16.1311 58.2545 16.0737 58.4542 15.9589C58.6589 15.844 58.8186 15.6818 58.9335 15.4721C59.0483 15.2575 59.1057 15.0103 59.1057 14.7308C59.1057 14.4462 59.0483 14.2016 58.9335 13.997C58.8186 13.7873 58.6589 13.625 58.4542 13.5102C58.2545 13.3954 58.0274 13.338 57.7728 13.338C57.5182 13.338 57.2911 13.3954 57.0914 13.5102C56.8917 13.625 56.7319 13.7873 56.6121 13.997C56.4923 14.2016 56.4324 14.4462 56.4324 14.7308C56.4324 15.0103 56.4923 15.2575 56.6121 15.4721C56.7319 15.6818 56.8917 15.844 57.0914 15.9589C57.2911 16.0737 57.5182 16.1311 57.7728 16.1311Z" fill="black"/>
<path d="M52.833 16.7603C52.4486 16.7603 52.1042 16.6755 51.7996 16.5057C51.5001 16.336 51.263 16.0989 51.0883 15.7944C50.9135 15.4898 50.8262 15.1354 50.8262 14.731C50.8262 14.3267 50.9135 13.9747 51.0883 13.6752C51.263 13.3707 51.5001 13.1336 51.7996 12.9638C52.1042 12.7941 52.4486 12.7092 52.833 12.7092C53.1675 12.7092 53.4695 12.7841 53.7391 12.9339C54.0086 13.0836 54.2233 13.3083 54.3831 13.6078C54.5478 13.9073 54.6302 14.2817 54.6302 14.731C54.6302 15.1803 54.5503 15.5547 54.3905 15.8543C54.2358 16.1538 54.0236 16.3809 53.754 16.5357C53.4845 16.6855 53.1775 16.7603 52.833 16.7603ZM52.8929 16.1313C53.1425 16.1313 53.3672 16.0739 53.5668 15.9591C53.7715 15.8443 53.9313 15.682 54.0461 15.4724C54.1659 15.2577 54.2258 15.0106 54.2258 14.731C54.2258 14.4465 54.1659 14.2019 54.0461 13.9972C53.9313 13.7875 53.7715 13.6253 53.5668 13.5105C53.3672 13.3956 53.1425 13.3382 52.8929 13.3382C52.6383 13.3382 52.4112 13.3956 52.2115 13.5105C52.0118 13.6253 51.8521 13.7875 51.7322 13.9972C51.6124 14.2019 51.5525 14.4465 51.5525 14.731C51.5525 15.0106 51.6124 15.2577 51.7322 15.4724C51.8521 15.682 52.0118 15.8443 52.2115 15.9591C52.4112 16.0739 52.6383 16.1313 52.8929 16.1313ZM54.2483 16.7154V15.6446L54.2932 14.7235L54.2183 13.8025V11.1592H54.9372V16.7154H54.2483Z" fill="black"/>
<path d="M41.6465 22.2483V20.9481L47.061 14.398L47.4395 15.1057H41.7452V13.46H49.0853V14.7601L43.6708 21.3102L43.2593 20.6025H49.2334V22.2483H41.6465Z" fill="black"/>
<path fill-rule="evenodd" clip-rule="evenodd" d="M38.1069 13.4589V22.2472H40.1641V13.4589H38.1069Z" fill="black"/>
<path d="M39.1437 12.0106C38.7597 12.0106 38.4416 11.8899 38.1892 11.6486C37.9478 11.4072 37.8271 11.1164 37.8271 10.7763C37.8271 10.4252 37.9478 10.1345 38.1892 9.90406C38.4416 9.66268 38.7597 9.54199 39.1437 9.54199C39.5278 9.54199 39.8405 9.65719 40.0818 9.8876C40.3342 10.107 40.4604 10.3868 40.4604 10.7269C40.4604 11.089 40.3397 11.3962 40.0983 11.6486C39.8569 11.8899 39.5387 12.0106 39.1437 12.0106Z" fill="#FFD700"/>
<path d="M31.7695 22.2474V13.4591H33.728V15.8784L33.4976 15.1707C33.7609 14.5782 34.1723 14.1284 34.7319 13.8212C35.3024 13.514 36.0101 13.3604 36.8549 13.3604V15.3188C36.7671 15.2969 36.6848 15.2859 36.608 15.2859C36.5312 15.2749 36.4544 15.2694 36.3776 15.2694C35.5986 15.2694 34.9787 15.4998 34.5179 15.9606C34.0571 16.4105 33.8267 17.0852 33.8267 17.9849V22.2474H31.7695Z" fill="black"/>
<path d="M25.8529 22.3628C25.1068 22.3628 24.443 22.1982 23.8615 21.8691C23.28 21.5399 22.8192 21.0462 22.4791 20.3879C22.1499 19.7186 21.9854 18.8738 21.9854 17.8535C21.9854 16.8221 22.1554 15.9773 22.4955 15.319C22.8466 14.6607 23.3129 14.1725 23.8944 13.8543C24.4869 13.5251 25.1397 13.3606 25.8529 13.3606C26.7196 13.3606 27.4822 13.5471 28.1405 13.9201C28.8097 14.2931 29.3364 14.8143 29.7204 15.4836C30.1154 16.1528 30.3129 16.9428 30.3129 17.8535C30.3129 18.7641 30.1154 19.5541 29.7204 20.2233C29.3364 20.8926 28.8097 21.4193 28.1405 21.8033C27.4822 22.1763 26.7196 22.3628 25.8529 22.3628ZM20.9814 22.2476V10.0361H23.0386V15.5L22.8741 17.837L22.9399 20.174V22.2476H20.9814ZM25.6225 20.6019C26.1162 20.6019 26.5551 20.4921 26.9391 20.2727C27.334 20.0533 27.6467 19.7351 27.8771 19.3182C28.1076 18.9013 28.2228 18.413 28.2228 17.8535C28.2228 17.2829 28.1076 16.7947 27.8771 16.3887C27.6467 15.9718 27.334 15.6536 26.9391 15.4342C26.5551 15.2148 26.1162 15.105 25.6225 15.105C25.1287 15.105 24.6844 15.2148 24.2894 15.4342C23.8944 15.6536 23.5817 15.9718 23.3513 16.3887C23.1209 16.7947 23.0057 17.2829 23.0057 17.8535C23.0057 18.413 23.1209 18.9013 23.3513 19.3182C23.5817 19.7351 23.8944 20.0533 24.2894 20.2727C24.6844 20.4921 25.1287 20.6019 25.6225 20.6019Z" fill="black"/>
<path d="M13.1879 6.47729C14.599 6.17735 15.7429 7.1037 15.7429 8.54634V21.4764C15.7429 22.919 14.599 24.3317 13.1879 24.6316L8.97205 25.5277C7.56093 25.8276 6.41699 24.9013 6.41699 23.4587V10.5286C6.41699 9.08598 7.56093 7.67334 8.97205 7.3734L13.1879 6.47729ZM13.4434 10.3412C13.4434 9.47558 12.757 8.91979 11.9103 9.09976L10.2496 9.45277C9.4029 9.63273 8.71654 10.4803 8.71654 11.3459V21.6638C8.71654 22.5294 9.4029 23.0852 10.2496 22.9052L11.9103 22.5522C12.757 22.3723 13.4434 21.5247 13.4434 20.6591V10.3412Z" fill="#1D1D1F"/>
</svg>
