<svg width="280" height="128" viewBox="0 0 280 128" fill="none" xmlns="http://www.w3.org/2000/svg">
<path d="M246.805 89.6409C245.487 89.6409 244.229 89.4612 243.031 89.1018C241.853 88.7423 240.924 88.303 240.245 87.7839L241.443 85.5075C242.122 85.9667 242.961 86.3561 243.959 86.6756C244.958 86.9951 245.976 87.1549 247.014 87.1549C248.352 87.1549 249.311 86.9651 249.89 86.5857C250.489 86.2063 250.788 85.6772 250.788 84.9983C250.788 84.499 250.609 84.1097 250.249 83.8301C249.89 83.5505 249.411 83.3409 248.812 83.2011C248.233 83.0613 247.584 82.9415 246.865 82.8417C246.146 82.7219 245.427 82.5821 244.708 82.4223C243.989 82.2426 243.33 82.003 242.731 81.7035C242.132 81.384 241.653 80.9546 241.293 80.4155C240.934 79.8564 240.754 79.1175 240.754 78.199C240.754 77.2405 241.024 76.4018 241.563 75.683C242.102 74.9641 242.861 74.415 243.839 74.0356C244.838 73.6362 246.016 73.4365 247.374 73.4365C248.412 73.4365 249.461 73.5663 250.519 73.8259C251.597 74.0655 252.476 74.415 253.155 74.8742L251.927 77.1507C251.208 76.6714 250.459 76.3419 249.68 76.1622C248.901 75.9825 248.123 75.8926 247.344 75.8926C246.086 75.8926 245.147 76.1023 244.528 76.5216C243.909 76.921 243.6 77.4402 243.6 78.0792C243.6 78.6183 243.78 79.0377 244.139 79.3372C244.518 79.6168 244.998 79.8364 245.577 79.9962C246.176 80.1559 246.835 80.2957 247.554 80.4155C248.272 80.5153 248.991 80.6551 249.71 80.8348C250.429 80.9946 251.078 81.2242 251.657 81.5237C252.256 81.8233 252.735 82.2426 253.095 82.7818C253.474 83.3209 253.664 84.0398 253.664 84.9384C253.664 85.8968 253.384 86.7255 252.825 87.4244C252.266 88.1233 251.477 88.6725 250.459 89.0718C249.441 89.4512 248.223 89.6409 246.805 89.6409Z" fill="black"/>
<path d="M231.239 73.4365C232.537 73.4365 233.675 73.6861 234.654 74.1853C235.652 74.6846 236.431 75.4434 236.99 76.4617C237.549 77.4801 237.829 78.7681 237.829 80.3256V89.4612H234.953V80.6551C234.953 79.1175 234.574 77.9594 233.815 77.1806C233.076 76.4018 232.028 76.0125 230.67 76.0125C229.652 76.0125 228.763 76.2121 228.004 76.6115C227.246 77.0109 226.657 77.5999 226.237 78.3787C225.838 79.1575 225.638 80.126 225.638 81.2841V89.4612H222.763V73.5863H225.518V77.8695L225.069 76.7313C225.588 75.693 226.387 74.8842 227.465 74.3052C228.544 73.7261 229.802 73.4365 231.239 73.4365Z" fill="black"/>
<path d="M212.389 89.6409C210.692 89.6409 209.194 89.2915 207.896 88.5926C206.618 87.8937 205.62 86.9352 204.901 85.7171C204.202 84.499 203.853 83.1013 203.853 81.5237C203.853 79.9462 204.192 78.5484 204.871 77.3304C205.57 76.1123 206.518 75.1638 207.716 74.4849C208.935 73.786 210.302 73.4365 211.82 73.4365C213.358 73.4365 214.715 73.776 215.894 74.4549C217.072 75.1338 217.99 76.0923 218.649 77.3304C219.328 78.5484 219.668 79.9762 219.668 81.6136C219.668 81.7334 219.658 81.8732 219.638 82.0329C219.638 82.1927 219.628 82.3425 219.608 82.4822H206.099V80.4155H218.11L216.942 81.1344C216.962 80.116 216.752 79.2074 216.313 78.4087C215.874 77.6099 215.265 76.9909 214.486 76.5516C213.727 76.0923 212.838 75.8627 211.82 75.8627C210.822 75.8627 209.933 76.0923 209.154 76.5516C208.375 76.9909 207.766 77.6199 207.327 78.4386C206.888 79.2374 206.668 80.1559 206.668 81.1943V81.6735C206.668 82.7318 206.908 83.6803 207.387 84.519C207.886 85.3377 208.575 85.9767 209.454 86.436C210.332 86.8953 211.341 87.1249 212.479 87.1249C213.417 87.1249 214.266 86.9652 215.025 86.6457C215.804 86.3262 216.483 85.8469 217.062 85.2079L218.649 87.065C217.93 87.9037 217.032 88.5427 215.953 88.982C214.895 89.4213 213.707 89.6409 212.389 89.6409Z" fill="black"/>
<path d="M194.948 89.6409C193.25 89.6409 191.753 89.2915 190.455 88.5926C189.177 87.8937 188.178 86.9352 187.459 85.7171C186.761 84.499 186.411 83.1013 186.411 81.5237C186.411 79.9462 186.751 78.5484 187.43 77.3304C188.128 76.1123 189.077 75.1638 190.275 74.4849C191.493 73.786 192.861 73.4365 194.379 73.4365C195.916 73.4365 197.274 73.776 198.452 74.4549C199.63 75.1338 200.549 76.0923 201.208 77.3304C201.887 78.5484 202.226 79.9762 202.226 81.6136C202.226 81.7334 202.216 81.8732 202.196 82.0329C202.196 82.1927 202.186 82.3425 202.166 82.4822H188.658V80.4155H200.669L199.5 81.1344C199.52 80.116 199.311 79.2074 198.871 78.4087C198.432 77.6099 197.823 76.9909 197.044 76.5516C196.286 76.0923 195.397 75.8627 194.379 75.8627C193.38 75.8627 192.492 76.0923 191.713 76.5516C190.934 76.9909 190.325 77.6199 189.886 78.4386C189.446 79.2374 189.227 80.1559 189.227 81.1943V81.6735C189.227 82.7318 189.466 83.6803 189.946 84.519C190.445 85.3377 191.134 85.9767 192.012 86.436C192.891 86.8953 193.899 87.1249 195.038 87.1249C195.976 87.1249 196.825 86.9652 197.583 86.6457C198.362 86.3262 199.041 85.8469 199.62 85.2079L201.208 87.065C200.489 87.9037 199.59 88.5427 198.512 88.982C197.454 89.4213 196.266 89.6409 194.948 89.6409Z" fill="black"/>
<path d="M176.843 89.4612V73.5863H179.598V77.8995L179.329 76.8212C179.768 75.7229 180.507 74.8842 181.545 74.3052C182.584 73.7261 183.862 73.4365 185.379 73.4365V76.2221C185.259 76.2022 185.14 76.1922 185.02 76.1922C184.92 76.1922 184.82 76.1922 184.72 76.1922C183.183 76.1922 181.965 76.6514 181.066 77.57C180.168 78.4885 179.718 79.8164 179.718 81.5537V89.4612H176.843Z" fill="black"/>
<path d="M167.55 89.6409C165.932 89.6409 164.485 89.2915 163.207 88.5926C161.949 87.8937 160.96 86.9352 160.241 85.7171C159.523 84.499 159.163 83.1013 159.163 81.5237C159.163 79.9462 159.523 78.5484 160.241 77.3304C160.96 76.1123 161.949 75.1638 163.207 74.4849C164.485 73.786 165.932 73.4365 167.55 73.4365C168.988 73.4365 170.266 73.7261 171.384 74.3052C172.522 74.8643 173.401 75.7029 174.02 76.8212L171.833 78.229C171.314 77.4502 170.675 76.8811 169.916 76.5216C169.177 76.1422 168.379 75.9525 167.52 75.9525C166.482 75.9525 165.553 76.1822 164.734 76.6415C163.916 77.1007 163.267 77.7497 162.787 78.5884C162.308 79.4071 162.068 80.3855 162.068 81.5237C162.068 82.6619 162.308 83.6504 162.787 84.4891C163.267 85.3277 163.916 85.9767 164.734 86.436C165.553 86.8953 166.482 87.1249 167.52 87.1249C168.379 87.1249 169.177 86.9452 169.916 86.5857C170.675 86.2063 171.314 85.6273 171.833 84.8485L174.02 86.2263C173.401 87.3246 172.522 88.1732 171.384 88.7723C170.266 89.3514 168.988 89.6409 167.55 89.6409Z" fill="black"/>
<path d="M151.076 89.6409C149.758 89.6409 148.5 89.4612 147.302 89.1018C146.124 88.7423 145.196 88.303 144.517 87.7839L145.715 85.5075C146.394 85.9667 147.232 86.3561 148.231 86.6756C149.229 86.9951 150.248 87.1549 151.286 87.1549C152.624 87.1549 153.582 86.9651 154.161 86.5857C154.76 86.2063 155.06 85.6772 155.06 84.9983C155.06 84.499 154.88 84.1097 154.521 83.8301C154.161 83.5505 153.682 83.3409 153.083 83.2011C152.504 83.0613 151.855 82.9415 151.136 82.8417C150.417 82.7219 149.698 82.5821 148.98 82.4223C148.261 82.2426 147.602 82.003 147.003 81.7035C146.404 81.384 145.924 80.9546 145.565 80.4155C145.206 79.8564 145.026 79.1175 145.026 78.199C145.026 77.2405 145.295 76.4018 145.835 75.683C146.374 74.9641 147.132 74.415 148.111 74.0356C149.109 73.6362 150.287 73.4365 151.645 73.4365C152.684 73.4365 153.732 73.5663 154.79 73.8259C155.869 74.0655 156.747 74.415 157.426 74.8742L156.198 77.1507C155.479 76.6714 154.73 76.3419 153.952 76.1622C153.173 75.9825 152.394 75.8926 151.615 75.8926C150.357 75.8926 149.419 76.1023 148.8 76.5216C148.181 76.921 147.871 77.4402 147.871 78.0792C147.871 78.6183 148.051 79.0377 148.41 79.3372C148.79 79.6168 149.269 79.8364 149.848 79.9962C150.447 80.1559 151.106 80.2957 151.825 80.4155C152.544 80.5153 153.263 80.6551 153.982 80.8348C154.701 80.9946 155.349 81.2242 155.929 81.5237C156.528 81.8233 157.007 82.2426 157.366 82.7818C157.746 83.3209 157.935 84.0398 157.935 84.9384C157.935 85.8968 157.656 86.7255 157.097 87.4244C156.538 88.1233 155.749 88.6725 154.73 89.0718C153.712 89.4512 152.494 89.6409 151.076 89.6409Z" fill="black"/>
<path d="M239.402 63.7736V50.2949H242.607V63.7736H239.402ZM234.101 58.5319V55.5366H247.909V58.5319H234.101Z" fill="#FFD700"/>
<path d="M218.18 67.6976C216.862 67.6976 215.604 67.5179 214.406 67.1584C213.228 66.799 212.299 66.3597 211.62 65.8405L212.818 63.5641C213.497 64.0234 214.336 64.4128 215.334 64.7323C216.333 65.0517 217.351 65.2115 218.389 65.2115C219.727 65.2115 220.686 65.0218 221.265 64.6424C221.864 64.263 222.163 63.7338 222.163 63.0549C222.163 62.5557 221.984 62.1663 221.624 61.8867C221.265 61.6072 220.786 61.3975 220.187 61.2577C219.608 61.118 218.959 60.9981 218.24 60.8983C217.521 60.7785 216.802 60.6387 216.083 60.479C215.364 60.2993 214.705 60.0596 214.106 59.7601C213.507 59.4406 213.028 59.0113 212.668 58.4721C212.309 57.913 212.129 57.1742 212.129 56.2556C212.129 55.2972 212.399 54.4585 212.938 53.7396C213.477 53.0208 214.236 52.4716 215.214 52.0922C216.213 51.6928 217.391 51.4932 218.749 51.4932C219.787 51.4932 220.836 51.623 221.894 51.8825C222.972 52.1222 223.851 52.4716 224.53 52.9309L223.302 55.2073C222.583 54.7281 221.834 54.3986 221.055 54.2189C220.276 54.0391 219.498 53.9493 218.719 53.9493C217.461 53.9493 216.522 54.159 215.903 54.5783C215.284 54.9777 214.975 55.4968 214.975 56.1358C214.975 56.675 215.155 57.0943 215.514 57.3938C215.893 57.6734 216.373 57.8931 216.952 58.0528C217.551 58.2125 218.21 58.3523 218.929 58.4721C219.647 58.572 220.366 58.7118 221.085 58.8915C221.804 59.0512 222.453 59.2809 223.032 59.5804C223.631 59.8799 224.11 60.2993 224.47 60.8384C224.849 61.3776 225.039 62.0964 225.039 62.995C225.039 63.9535 224.759 64.7822 224.2 65.4811C223.641 66.18 222.852 66.7291 221.834 67.1285C220.816 67.5079 219.598 67.6976 218.18 67.6976Z" fill="black"/>
<path d="M202.271 67.5179V51.6429H205.026V55.9561L204.757 54.8778C205.196 53.7796 205.935 52.9409 206.973 52.3618C208.011 51.7827 209.289 51.4932 210.807 51.4932V54.2788C210.687 54.2588 210.567 54.2488 210.448 54.2488C210.348 54.2488 210.248 54.2488 210.148 54.2488C208.61 54.2488 207.392 54.7081 206.494 55.6266C205.595 56.5452 205.146 57.8731 205.146 59.6103V67.5179H202.271Z" fill="black"/>
<path d="M190.955 67.6976C189.358 67.6976 187.94 67.3481 186.702 66.6492C185.464 65.9503 184.486 64.9918 183.767 63.7738C183.048 62.5357 182.688 61.1379 182.688 59.5804C182.688 58.0029 183.048 56.6051 183.767 55.387C184.486 54.1689 185.464 53.2204 186.702 52.5415C187.94 51.8426 189.358 51.4932 190.955 51.4932C192.533 51.4932 193.941 51.8426 195.179 52.5415C196.437 53.2204 197.415 54.1689 198.114 55.387C198.833 56.5851 199.192 57.9829 199.192 59.5804C199.192 61.1579 198.833 62.5557 198.114 63.7738C197.415 64.9918 196.437 65.9503 195.179 66.6492C193.941 67.3481 192.533 67.6976 190.955 67.6976ZM190.955 65.1815C191.974 65.1815 192.882 64.9519 193.681 64.4926C194.5 64.0334 195.139 63.3844 195.598 62.5457C196.057 61.6871 196.287 60.6986 196.287 59.5804C196.287 58.4422 196.057 57.4637 195.598 56.645C195.139 55.8064 194.5 55.1574 193.681 54.6981C192.882 54.2388 191.974 54.0092 190.955 54.0092C189.937 54.0092 189.028 54.2388 188.23 54.6981C187.431 55.1574 186.792 55.8064 186.313 56.645C185.834 57.4637 185.594 58.4422 185.594 59.5804C185.594 60.6986 185.834 61.6871 186.313 62.5457C186.792 63.3844 187.431 64.0334 188.23 64.4926C189.028 64.9519 189.937 65.1815 190.955 65.1815Z" fill="black"/>
<path d="M172.84 67.6976C171.243 67.6976 169.825 67.3481 168.587 66.6492C167.349 65.9503 166.37 64.9918 165.652 63.7738C164.933 62.5357 164.573 61.1379 164.573 59.5804C164.573 58.0029 164.933 56.6051 165.652 55.387C166.37 54.1689 167.349 53.2204 168.587 52.5415C169.825 51.8426 171.243 51.4932 172.84 51.4932C174.418 51.4932 175.825 51.8426 177.064 52.5415C178.322 53.2204 179.3 54.1689 179.999 55.387C180.718 56.5851 181.077 57.9829 181.077 59.5804C181.077 61.1579 180.718 62.5557 179.999 63.7738C179.3 64.9918 178.322 65.9503 177.064 66.6492C175.825 67.3481 174.418 67.6976 172.84 67.6976ZM172.84 65.1815C173.859 65.1815 174.767 64.9519 175.566 64.4926C176.385 64.0334 177.024 63.3844 177.483 62.5457C177.942 61.6871 178.172 60.6986 178.172 59.5804C178.172 58.4422 177.942 57.4637 177.483 56.645C177.024 55.8064 176.385 55.1574 175.566 54.6981C174.767 54.2388 173.859 54.0092 172.84 54.0092C171.822 54.0092 170.913 54.2388 170.114 54.6981C169.316 55.1574 168.677 55.8064 168.198 56.645C167.718 57.4637 167.479 58.4422 167.479 59.5804C167.479 60.6986 167.718 61.6871 168.198 62.5457C168.677 63.3844 169.316 64.0334 170.114 64.4926C170.913 64.9519 171.822 65.1815 172.84 65.1815Z" fill="black"/>
<path d="M153.083 67.6976C151.545 67.6976 150.168 67.3581 148.95 66.6792C147.751 66.0003 146.803 65.0518 146.104 63.8337C145.405 62.6156 145.056 61.1978 145.056 59.5804C145.056 57.963 145.405 56.5552 146.104 55.3571C146.803 54.139 147.751 53.1905 148.95 52.5116C150.168 51.8326 151.545 51.4932 153.083 51.4932C154.421 51.4932 155.629 51.7927 156.707 52.3918C157.786 52.9908 158.644 53.8894 159.283 55.0875C159.942 56.2856 160.272 57.7832 160.272 59.5804C160.272 61.3776 159.952 62.8752 159.313 64.0733C158.694 65.2714 157.845 66.18 156.767 66.799C155.689 67.3981 154.461 67.6976 153.083 67.6976ZM153.323 65.1816C154.321 65.1816 155.22 64.9519 156.018 64.4926C156.837 64.0334 157.476 63.3844 157.935 62.5457C158.415 61.6871 158.654 60.6986 158.654 59.5804C158.654 58.4422 158.415 57.4637 157.935 56.645C157.476 55.8064 156.837 55.1574 156.018 54.6981C155.22 54.2388 154.321 54.0092 153.323 54.0092C152.304 54.0092 151.396 54.2388 150.597 54.6981C149.798 55.1574 149.159 55.8064 148.68 56.645C148.201 57.4637 147.961 58.4422 147.961 59.5804C147.961 60.6986 148.201 61.6871 148.68 62.5457C149.159 63.3844 149.798 64.0334 150.597 64.4926C151.396 64.9519 152.304 65.1816 153.323 65.1816ZM158.744 67.5179V63.2346L158.924 59.5504L158.624 55.8663V45.293H161.5V67.5179H158.744Z" fill="black"/>
<path d="M108.339 89.1806V83.98L129.997 57.7797L131.511 60.6104H108.734V54.0273H138.094V59.2279L116.436 85.4283L114.79 82.5976H138.687V89.1806H108.339Z" fill="black"/>
<path fill-rule="evenodd" clip-rule="evenodd" d="M94.1826 54.0269V89.1802H102.411V54.0269H94.1826Z" fill="black"/>
<path d="M98.3299 48.2339C96.7938 48.2339 95.5211 47.7511 94.5117 46.7856C93.5462 45.8201 93.0635 44.6571 93.0635 43.2966C93.0635 41.8923 93.5462 40.7293 94.5117 39.8076C95.5211 38.8421 96.7938 38.3594 98.3299 38.3594C99.8659 38.3594 101.117 38.8202 102.082 39.7418C103.092 40.6195 103.596 41.7387 103.596 43.0991C103.596 44.5474 103.114 45.7762 102.148 46.7856C101.183 47.7511 99.9098 48.2339 98.3299 48.2339Z" fill="#FFD700"/>
<path d="M68.835 89.1801V54.0268H76.6687V63.7038L75.7471 60.8731C76.8004 58.5033 78.4462 56.7039 80.6844 55.4751C82.9665 54.2463 85.7972 53.6318 89.1765 53.6318V61.4656C88.8254 61.3778 88.4962 61.334 88.189 61.334C87.8818 61.2901 87.5746 61.2681 87.2674 61.2681C84.1514 61.2681 81.6718 62.1897 79.8286 64.033C77.9853 65.8323 77.0637 68.5314 77.0637 72.1301V89.1801H68.835Z" fill="black"/>
<path d="M45.1664 89.6407C42.1821 89.6407 39.5269 88.9824 37.2009 87.6658C34.8749 86.3492 33.0317 84.3743 31.6712 81.7411C30.3546 79.064 29.6963 75.6847 29.6963 71.6033C29.6963 67.4779 30.3765 64.0986 31.737 61.4654C33.1414 58.8322 35.0066 56.8793 37.3326 55.6066C39.7025 54.29 42.3137 53.6317 45.1664 53.6317C48.6334 53.6317 51.6835 54.3777 54.3167 55.8699C56.9938 57.362 59.1004 59.4467 60.6364 62.1237C62.2164 64.8008 63.0063 67.9607 63.0063 71.6033C63.0063 75.2459 62.2164 78.4057 60.6364 81.0828C59.1004 83.7599 56.9938 85.8665 54.3167 87.4025C51.6835 88.8946 48.6334 89.6407 45.1664 89.6407ZM25.6807 89.1799V40.334H33.9094V62.1896L33.2511 71.5374L33.5144 80.8853V89.1799H25.6807ZM44.2447 82.5969C46.2196 82.5969 47.9751 82.158 49.5112 81.2803C51.0911 80.4026 52.3418 79.1298 53.2635 77.4622C54.1851 75.7945 54.6459 73.8415 54.6459 71.6033C54.6459 69.3212 54.1851 67.3682 53.2635 65.7444C52.3418 64.0767 51.0911 62.804 49.5112 61.9263C47.9751 61.0485 46.2196 60.6096 44.2447 60.6096C42.2698 60.6096 40.4924 61.0485 38.9125 61.9263C37.3326 62.804 36.0818 64.0767 35.1602 65.7444C34.2386 67.3682 33.7778 69.3212 33.7778 71.6033C33.7778 73.8415 34.2386 75.7945 35.1602 77.4622C36.0818 79.1298 37.3326 80.4026 38.9125 81.2803C40.4924 82.158 42.2698 82.5969 44.2447 82.5969Z" fill="black"/>
</svg>
