<svg width="2546" height="1167" viewBox="0 0 2546 1167" fill="none" xmlns="http://www.w3.org/2000/svg">
<path d="M2249.45 817.019C2237.43 817.019 2225.97 815.381 2215.05 812.105C2204.31 808.829 2195.85 804.825 2189.66 800.093L2200.58 779.345C2206.77 783.531 2214.41 787.08 2223.51 789.992C2232.61 792.904 2241.89 794.36 2251.36 794.36C2263.55 794.36 2272.29 792.631 2277.56 789.173C2283.02 785.715 2285.75 780.892 2285.75 774.704C2285.75 770.154 2284.12 766.605 2280.84 764.057C2277.56 761.509 2273.2 759.598 2267.74 758.324C2262.46 757.05 2256.54 755.958 2249.99 755.048C2243.44 753.956 2236.89 752.682 2230.34 751.226C2223.78 749.588 2217.78 747.404 2212.32 744.674C2206.86 741.762 2202.49 737.849 2199.21 732.935C2195.94 727.839 2194.3 721.105 2194.3 712.733C2194.3 703.997 2196.76 696.353 2201.67 689.801C2206.58 683.249 2213.5 678.244 2222.42 674.786C2231.52 671.146 2242.26 669.326 2254.63 669.326C2264.1 669.326 2273.65 670.509 2283.3 672.875C2293.13 675.059 2301.13 678.244 2307.32 682.43L2296.13 703.178C2289.58 698.81 2282.75 695.807 2275.65 694.169C2268.56 692.531 2261.46 691.712 2254.36 691.712C2242.89 691.712 2234.34 693.623 2228.7 697.445C2223.06 701.085 2220.23 705.817 2220.23 711.641C2220.23 716.555 2221.87 720.377 2225.15 723.107C2228.61 725.655 2232.97 727.657 2238.25 729.113C2243.71 730.569 2249.72 731.843 2256.27 732.935C2262.82 733.845 2269.37 735.119 2275.93 736.757C2282.48 738.213 2288.39 740.306 2293.67 743.036C2299.13 745.766 2303.5 749.588 2306.78 754.502C2310.23 759.416 2311.96 765.968 2311.96 774.158C2311.96 782.894 2309.41 790.447 2304.32 796.817C2299.22 803.187 2292.03 808.192 2282.75 811.832C2273.47 815.29 2262.37 817.019 2249.45 817.019Z" fill="black"/>
<path d="M2107.58 669.326C2119.41 669.326 2129.78 671.601 2138.7 676.151C2147.8 680.701 2154.9 687.617 2159.99 696.899C2165.09 706.181 2167.64 717.92 2167.64 732.116V815.381H2141.43V735.119C2141.43 721.105 2137.97 710.549 2131.06 703.451C2124.32 696.353 2114.77 692.804 2102.39 692.804C2093.11 692.804 2085.01 694.624 2078.09 698.264C2071.18 701.904 2065.81 707.273 2061.99 714.371C2058.35 721.469 2056.53 730.296 2056.53 740.852V815.381H2030.32V670.691H2055.43V709.73L2051.34 699.356C2056.07 689.892 2063.35 682.521 2073.18 677.243C2083.01 671.965 2094.47 669.326 2107.58 669.326Z" fill="black"/>
<path d="M1935.78 817.019C1920.31 817.019 1906.66 813.834 1894.83 807.464C1883.18 801.094 1874.08 792.358 1867.53 781.256C1861.16 770.154 1857.97 757.414 1857.97 743.036C1857.97 728.658 1861.06 715.918 1867.25 704.816C1873.62 693.714 1882.27 685.069 1893.19 678.881C1904.29 672.511 1916.76 669.326 1930.59 669.326C1944.6 669.326 1956.98 672.42 1967.72 678.608C1978.45 684.796 1986.83 693.532 1992.83 704.816C1999.02 715.918 2002.11 728.931 2002.11 743.855C2002.11 744.947 2002.02 746.221 2001.84 747.677C2001.84 749.133 2001.75 750.498 2001.57 751.772H1878.45V732.935H1987.92L1977.27 739.487C1977.45 730.205 1975.54 721.924 1971.54 714.644C1967.53 707.364 1961.98 701.722 1954.89 697.718C1947.97 693.532 1939.87 691.439 1930.59 691.439C1921.49 691.439 1913.39 693.532 1906.29 697.718C1899.19 701.722 1893.64 707.455 1889.64 714.917C1885.63 722.197 1883.63 730.569 1883.63 740.033V744.401C1883.63 754.047 1885.82 762.692 1890.18 770.336C1894.73 777.798 1901.01 783.622 1909.02 787.808C1917.03 791.994 1926.22 794.087 1936.59 794.087C1945.15 794.087 1952.88 792.631 1959.8 789.719C1966.9 786.807 1973.09 782.439 1978.36 776.615L1992.83 793.541C1986.28 801.185 1978.09 807.009 1968.26 811.013C1958.62 815.017 1947.79 817.019 1935.78 817.019Z" fill="black"/>
<path d="M1776.81 817.019C1761.34 817.019 1747.69 813.834 1735.86 807.464C1724.21 801.094 1715.11 792.358 1708.56 781.256C1702.19 770.154 1699 757.414 1699 743.036C1699 728.658 1702.1 715.918 1708.28 704.816C1714.65 693.714 1723.3 685.069 1734.22 678.881C1745.32 672.511 1757.79 669.326 1771.62 669.326C1785.63 669.326 1798.01 672.42 1808.75 678.608C1819.49 684.796 1827.86 693.532 1833.86 704.816C1840.05 715.918 1843.15 728.931 1843.15 743.855C1843.15 744.947 1843.05 746.221 1842.87 747.677C1842.87 749.133 1842.78 750.498 1842.6 751.772H1719.48V732.935H1828.95L1818.3 739.487C1818.48 730.205 1816.57 721.924 1812.57 714.644C1808.57 707.364 1803.01 701.722 1795.92 697.718C1789 693.532 1780.9 691.439 1771.62 691.439C1762.52 691.439 1754.42 693.532 1747.32 697.718C1740.22 701.722 1734.67 707.455 1730.67 714.917C1726.67 722.197 1724.66 730.569 1724.66 740.033V744.401C1724.66 754.047 1726.85 762.692 1731.22 770.336C1735.77 777.798 1742.04 783.622 1750.05 787.808C1758.06 791.994 1767.25 794.087 1777.63 794.087C1786.18 794.087 1793.91 792.631 1800.83 789.719C1807.93 786.807 1814.12 782.439 1819.39 776.615L1833.86 793.541C1827.31 801.185 1819.12 807.009 1809.29 811.013C1799.65 815.017 1788.82 817.019 1776.81 817.019Z" fill="black"/>
<path d="M1611.8 815.381V670.691H1636.91V710.003L1634.46 700.175C1638.46 690.165 1645.19 682.521 1654.66 677.243C1664.12 671.965 1675.77 669.326 1689.6 669.326V694.715C1688.51 694.533 1687.42 694.442 1686.33 694.442C1685.42 694.442 1684.51 694.442 1683.6 694.442C1669.58 694.442 1658.48 698.628 1650.29 707C1642.1 715.372 1638 727.475 1638 743.309V815.381H1611.8Z" fill="black"/>
<path d="M1527.09 817.019C1512.34 817.019 1499.15 813.834 1487.5 807.464C1476.04 801.094 1467.03 792.358 1460.47 781.256C1453.92 770.154 1450.65 757.414 1450.65 743.036C1450.65 728.658 1453.92 715.918 1460.47 704.816C1467.03 693.714 1476.04 685.069 1487.5 678.881C1499.15 672.511 1512.34 669.326 1527.09 669.326C1540.19 669.326 1551.84 671.965 1562.03 677.243C1572.4 682.339 1580.41 689.983 1586.05 700.175L1566.13 713.006C1561.39 705.908 1555.57 700.721 1548.65 697.445C1541.92 693.987 1534.64 692.258 1526.81 692.258C1517.35 692.258 1508.89 694.351 1501.42 698.537C1493.96 702.723 1488.05 708.638 1483.68 716.282C1479.31 723.744 1477.13 732.662 1477.13 743.036C1477.13 753.41 1479.31 762.419 1483.68 770.063C1488.05 777.707 1493.96 783.622 1501.42 787.808C1508.89 791.994 1517.35 794.087 1526.81 794.087C1534.64 794.087 1541.92 792.449 1548.65 789.173C1555.57 785.715 1561.39 780.437 1566.13 773.339L1586.05 785.897C1580.41 795.907 1572.4 803.642 1562.03 809.102C1551.84 814.38 1540.19 817.019 1527.09 817.019Z" fill="black"/>
<path d="M1376.94 817.019C1364.93 817.019 1353.47 815.381 1342.55 812.105C1331.81 808.829 1323.34 804.825 1317.16 800.093L1328.08 779.345C1334.26 783.531 1341.91 787.08 1351.01 789.992C1360.11 792.904 1369.39 794.36 1378.85 794.36C1391.05 794.36 1399.78 792.631 1405.06 789.173C1410.52 785.715 1413.25 780.892 1413.25 774.704C1413.25 770.154 1411.61 766.605 1408.34 764.057C1405.06 761.509 1400.69 759.598 1395.23 758.324C1389.96 757.05 1384.04 755.958 1377.49 755.048C1370.94 753.956 1364.39 752.682 1357.83 751.226C1351.28 749.588 1345.28 747.404 1339.82 744.674C1334.36 741.762 1329.99 737.849 1326.71 732.935C1323.44 727.839 1321.8 721.105 1321.8 712.733C1321.8 703.997 1324.25 696.353 1329.17 689.801C1334.08 683.249 1341 678.244 1349.92 674.786C1359.02 671.146 1369.75 669.326 1382.13 669.326C1391.59 669.326 1401.15 670.509 1410.8 672.875C1420.62 675.059 1428.63 678.244 1434.82 682.43L1423.63 703.178C1417.07 698.81 1410.25 695.807 1403.15 694.169C1396.05 692.531 1388.96 691.712 1381.86 691.712C1370.39 691.712 1361.84 693.623 1356.2 697.445C1350.55 701.085 1347.73 705.817 1347.73 711.641C1347.73 716.555 1349.37 720.377 1352.65 723.107C1356.1 725.655 1360.47 727.657 1365.75 729.113C1371.21 730.569 1377.22 731.843 1383.77 732.935C1390.32 733.845 1396.87 735.119 1403.42 736.757C1409.98 738.213 1415.89 740.306 1421.17 743.036C1426.63 745.766 1431 749.588 1434.27 754.502C1437.73 759.416 1439.46 765.968 1439.46 774.158C1439.46 782.894 1436.91 790.447 1431.82 796.817C1426.72 803.187 1419.53 808.192 1410.25 811.832C1400.97 815.29 1389.87 817.019 1376.94 817.019Z" fill="black"/>
<path d="M2181.99 581.256V458.406H2211.2V581.256H2181.99ZM2133.67 533.481V506.181H2259.52V533.481H2133.67Z" fill="#FFD700"/>
<path d="M1988.56 617.019C1976.55 617.019 1965.08 615.381 1954.16 612.105C1943.42 608.829 1934.96 604.825 1928.77 600.093L1939.69 579.345C1945.88 583.531 1953.53 587.08 1962.63 589.992C1971.73 592.904 1981.01 594.36 1990.47 594.36C2002.67 594.36 2011.4 592.631 2016.68 589.173C2022.14 585.715 2024.87 580.892 2024.87 574.704C2024.87 570.154 2023.23 566.605 2019.96 564.057C2016.68 561.509 2012.31 559.598 2006.85 558.324C2001.57 557.05 1995.66 555.958 1989.11 555.048C1982.55 553.956 1976 552.682 1969.45 551.226C1962.9 549.588 1956.89 547.404 1951.43 544.674C1945.97 541.762 1941.6 537.849 1938.33 532.935C1935.05 527.839 1933.41 521.105 1933.41 512.733C1933.41 503.997 1935.87 496.353 1940.79 489.801C1945.7 483.249 1952.62 478.244 1961.53 474.786C1970.63 471.146 1981.37 469.326 1993.75 469.326C2003.21 469.326 2012.77 470.509 2022.41 472.875C2032.24 475.059 2040.25 478.244 2046.44 482.43L2035.24 503.178C2028.69 498.81 2021.87 495.807 2014.77 494.169C2007.67 492.531 2000.57 491.712 1993.47 491.712C1982.01 491.712 1973.45 493.623 1967.81 497.445C1962.17 501.085 1959.35 505.817 1959.35 511.641C1959.35 516.555 1960.99 520.377 1964.26 523.107C1967.72 525.655 1972.09 527.657 1977.37 529.113C1982.83 530.569 1988.83 531.843 1995.39 532.935C2001.94 533.845 2008.49 535.119 2015.04 536.757C2021.59 538.213 2027.51 540.306 2032.79 543.036C2038.25 545.766 2042.61 549.588 2045.89 554.502C2049.35 559.416 2051.08 565.968 2051.08 574.158C2051.08 582.894 2048.53 590.447 2043.43 596.817C2038.34 603.187 2031.15 608.192 2021.87 611.832C2012.58 615.29 2001.48 617.019 1988.56 617.019Z" fill="black"/>
<path d="M1843.55 615.381V470.691H1868.66V510.003L1866.21 500.175C1870.21 490.165 1876.94 482.521 1886.41 477.243C1895.87 471.965 1907.52 469.326 1921.35 469.326V494.715C1920.26 494.533 1919.17 494.442 1918.08 494.442C1917.17 494.442 1916.26 494.442 1915.35 494.442C1901.33 494.442 1890.23 498.628 1882.04 507C1873.85 515.372 1869.75 527.475 1869.75 543.309V615.381H1843.55Z" fill="black"/>
<path d="M1740.42 617.019C1725.86 617.019 1712.94 613.834 1701.65 607.464C1690.37 601.094 1681.45 592.358 1674.9 581.256C1668.35 569.972 1665.07 557.232 1665.07 543.036C1665.07 528.658 1668.35 515.918 1674.9 504.816C1681.45 493.714 1690.37 485.069 1701.65 478.881C1712.94 472.511 1725.86 469.326 1740.42 469.326C1754.8 469.326 1767.63 472.511 1778.91 478.881C1790.38 485.069 1799.3 493.714 1805.67 504.816C1812.22 515.736 1815.49 528.476 1815.49 543.036C1815.49 557.414 1812.22 570.154 1805.67 581.256C1799.3 592.358 1790.38 601.094 1778.91 607.464C1767.63 613.834 1754.8 617.019 1740.42 617.019ZM1740.42 594.087C1749.7 594.087 1757.98 591.994 1765.26 587.808C1772.72 583.622 1778.55 577.707 1782.73 570.063C1786.92 562.237 1789.01 553.228 1789.01 543.036C1789.01 532.662 1786.92 523.744 1782.73 516.282C1778.55 508.638 1772.72 502.723 1765.26 498.537C1757.98 494.351 1749.7 492.258 1740.42 492.258C1731.14 492.258 1722.86 494.351 1715.58 498.537C1708.3 502.723 1702.47 508.638 1698.1 516.282C1693.74 523.744 1691.55 532.662 1691.55 543.036C1691.55 553.228 1693.74 562.237 1698.1 570.063C1702.47 577.707 1708.3 583.622 1715.58 587.808C1722.86 591.994 1731.14 594.087 1740.42 594.087Z" fill="black"/>
<path d="M1575.32 617.019C1560.76 617.019 1547.83 613.834 1536.55 607.464C1525.27 601.094 1516.35 592.358 1509.8 581.256C1503.24 569.972 1499.97 557.232 1499.97 543.036C1499.97 528.658 1503.24 515.918 1509.8 504.816C1516.35 493.714 1525.27 485.069 1536.55 478.881C1547.83 472.511 1560.76 469.326 1575.32 469.326C1589.69 469.326 1602.53 472.511 1613.81 478.881C1625.28 485.069 1634.19 493.714 1640.56 504.816C1647.12 515.736 1650.39 528.476 1650.39 543.036C1650.39 557.414 1647.12 570.154 1640.56 581.256C1634.19 592.358 1625.28 601.094 1613.81 607.464C1602.53 613.834 1589.69 617.019 1575.32 617.019ZM1575.32 594.087C1584.6 594.087 1592.88 591.994 1600.16 587.808C1607.62 583.622 1613.45 577.707 1617.63 570.063C1621.82 562.237 1623.91 553.228 1623.91 543.036C1623.91 532.662 1621.82 523.744 1617.63 516.282C1613.45 508.638 1607.62 502.723 1600.16 498.537C1592.88 494.351 1584.6 492.258 1575.32 492.258C1566.03 492.258 1557.75 494.351 1550.47 498.537C1543.19 502.723 1537.37 508.638 1533 516.282C1528.63 523.744 1526.45 532.662 1526.45 543.036C1526.45 553.228 1528.63 562.237 1533 570.063C1537.37 577.707 1543.19 583.622 1550.47 587.808C1557.75 591.994 1566.03 594.087 1575.32 594.087Z" fill="black"/>
<path d="M1395.23 617.019C1381.22 617.019 1368.66 613.925 1357.56 607.737C1346.64 601.549 1338 592.904 1331.63 581.802C1325.26 570.7 1322.07 557.778 1322.07 543.036C1322.07 528.294 1325.26 515.463 1331.63 504.543C1338 493.441 1346.64 484.796 1357.56 478.608C1368.66 472.42 1381.22 469.326 1395.23 469.326C1407.43 469.326 1418.44 472.056 1428.27 477.516C1438.1 482.976 1445.92 491.166 1451.75 502.086C1457.75 513.006 1460.75 526.656 1460.75 543.036C1460.75 559.416 1457.84 573.066 1452.02 583.986C1446.38 594.906 1438.64 603.187 1428.81 608.829C1418.99 614.289 1407.79 617.019 1395.23 617.019ZM1397.42 594.087C1406.52 594.087 1414.71 591.994 1421.99 587.808C1429.45 583.622 1435.27 577.707 1439.46 570.063C1443.83 562.237 1446.01 553.228 1446.01 543.036C1446.01 532.662 1443.83 523.744 1439.46 516.282C1435.27 508.638 1429.45 502.723 1421.99 498.537C1414.71 494.351 1406.52 492.258 1397.42 492.258C1388.14 492.258 1379.86 494.351 1372.58 498.537C1365.3 502.723 1359.47 508.638 1355.1 516.282C1350.74 523.744 1348.55 532.662 1348.55 543.036C1348.55 553.228 1350.74 562.237 1355.1 570.063C1359.47 577.707 1365.3 583.622 1372.58 587.808C1379.86 591.994 1388.14 594.087 1397.42 594.087ZM1446.83 615.381V576.342L1448.47 542.763L1445.74 509.184V412.815H1471.95V615.381H1446.83Z" fill="black"/>
<path d="M987.424 812.82V765.42L1184.82 526.62L1198.62 552.42H991.024V492.42H1258.62V539.82L1061.22 778.62L1046.22 752.82H1264.02V812.82H987.424Z" fill="black"/>
<path fill-rule="evenodd" clip-rule="evenodd" d="M858.388 492.42V812.82H933.388V492.42H858.388Z" fill="black"/>
<path d="M896.188 439.62C882.188 439.62 870.588 435.22 861.388 426.42C852.588 417.62 848.188 407.02 848.188 394.62C848.188 381.82 852.588 371.22 861.388 362.82C870.588 354.02 882.188 349.62 896.188 349.62C910.188 349.62 921.588 353.82 930.388 362.22C939.588 370.22 944.188 380.42 944.188 392.82C944.188 406.02 939.787 417.22 930.987 426.42C922.187 435.22 910.588 439.62 896.188 439.62Z" fill="#FFD700"/>
<path d="M627.363 812.82V492.42H698.763V580.62L690.363 554.82C699.963 533.22 714.963 516.82 735.363 505.62C756.163 494.42 781.963 488.82 812.763 488.82V560.22C809.563 559.42 806.563 559.02 803.763 559.02C800.963 558.62 798.163 558.42 795.363 558.42C766.963 558.42 744.363 566.82 727.563 583.62C710.763 600.02 702.363 624.62 702.363 657.42V812.82H627.363Z" fill="black"/>
<path d="M411.635 817.02C384.435 817.02 360.235 811.02 339.035 799.02C317.835 787.02 301.035 769.02 288.635 745.02C276.635 720.62 270.635 689.82 270.635 652.62C270.635 615.02 276.835 584.22 289.235 560.22C302.035 536.22 319.035 518.42 340.235 506.82C361.835 494.82 385.635 488.82 411.635 488.82C443.235 488.82 471.035 495.62 495.035 509.22C519.435 522.82 538.635 541.82 552.635 566.22C567.035 590.62 574.235 619.42 574.235 652.62C574.235 685.82 567.035 714.62 552.635 739.02C538.635 763.42 519.435 782.62 495.035 796.62C471.035 810.22 443.235 817.02 411.635 817.02ZM234.035 812.82V367.62H309.035V566.82L303.035 652.02L305.435 737.22V812.82H234.035ZM403.235 752.82C421.235 752.82 437.235 748.82 451.235 740.82C465.635 732.82 477.035 721.22 485.435 706.02C493.835 690.82 498.035 673.02 498.035 652.62C498.035 631.82 493.835 614.02 485.435 599.22C477.035 584.02 465.635 572.42 451.235 564.42C437.235 556.42 421.235 552.42 403.235 552.42C385.235 552.42 369.035 556.42 354.635 564.42C340.235 572.42 328.835 584.02 320.435 599.22C312.035 614.02 307.835 631.82 307.835 652.62C307.835 673.02 312.035 690.82 320.435 706.02C328.835 721.22 340.235 732.82 354.635 740.82C369.035 748.82 385.235 752.82 403.235 752.82Z" fill="black"/>
</svg>
