<svg width="404" height="77" viewBox="0 0 404 77" fill="none" xmlns="http://www.w3.org/2000/svg">
<path d="M202.172 32.126L208.461 18.238H210.425L216.734 32.126H214.651L209.036 19.349H209.83L204.215 32.126H202.172ZM204.85 28.654L205.386 27.0668H213.203L213.778 28.654H204.85ZM218.806 32.126V18.238H224.222C226.021 18.238 227.436 18.6678 228.468 19.5276C229.5 20.3741 230.015 21.5579 230.015 23.0789C230.015 24.0842 229.784 24.9505 229.321 25.678C228.858 26.3922 228.197 26.9411 227.337 27.3247C226.477 27.7083 225.439 27.9001 224.222 27.9001H219.897L220.79 26.9874V32.126H218.806ZM228.091 32.126L224.559 27.0866H226.682L230.254 32.126H228.091ZM220.79 27.1858L219.897 26.2137H224.163C225.432 26.2137 226.391 25.9425 227.039 25.4002C227.701 24.8447 228.031 24.0709 228.031 23.0789C228.031 22.0869 227.701 21.3198 227.039 20.7775C226.391 20.2352 225.432 19.9641 224.163 19.9641H219.897L220.79 18.9721V27.1858ZM239.431 32.2847C238.373 32.2847 237.394 32.1127 236.494 31.7689C235.608 31.4117 234.835 30.9157 234.173 30.2809C233.525 29.6327 233.016 28.8788 232.645 28.0191C232.275 27.1594 232.09 26.2137 232.09 25.182C232.09 24.1503 232.275 23.2046 232.645 22.3449C233.016 21.4851 233.532 20.7378 234.193 20.1029C234.854 19.4548 235.628 18.9588 236.514 18.6149C237.414 18.2578 238.392 18.0793 239.451 18.0793C240.522 18.0793 241.507 18.2644 242.407 18.6348C243.319 18.9919 244.093 19.5276 244.728 20.2418L243.438 21.4917C242.909 20.9362 242.314 20.5262 241.653 20.2617C240.992 19.9839 240.284 19.845 239.53 19.845C238.75 19.845 238.022 19.9773 237.348 20.2418C236.686 20.5063 236.111 20.8767 235.621 21.3529C235.132 21.829 234.749 22.3978 234.471 23.0591C234.206 23.7072 234.074 24.4148 234.074 25.182C234.074 25.9491 234.206 26.6634 234.471 27.3247C234.749 27.9728 235.132 28.5349 235.621 29.0111C236.111 29.4873 236.686 29.8576 237.348 30.1221C238.022 30.3867 238.75 30.5189 239.53 30.5189C240.284 30.5189 240.992 30.3867 241.653 30.1221C242.314 29.8444 242.909 29.4211 243.438 28.8524L244.728 30.1023C244.093 30.8165 243.319 31.3588 242.407 31.7292C241.507 32.0995 240.515 32.2847 239.431 32.2847ZM257.324 32.126V18.238H259.308V32.126H257.324ZM247.365 32.126V18.238H249.349V32.126H247.365ZM249.15 25.9359V24.2098H257.503V25.9359H249.15ZM263.465 32.126V18.238H265.449V32.126H263.465ZM272.365 32.126V19.9641H267.603V18.238H279.091V19.9641H274.329V32.126H272.365ZM281.251 32.126V18.238H291.052V19.9641H283.235V30.3999H291.33V32.126H281.251ZM283.057 25.9161V24.2297H290.199V25.9161H283.057ZM300.733 32.2847C299.675 32.2847 298.696 32.1127 297.797 31.7689C296.911 31.4117 296.137 30.9157 295.476 30.2809C294.828 29.6327 294.318 28.8788 293.948 28.0191C293.578 27.1594 293.392 26.2137 293.392 25.182C293.392 24.1503 293.578 23.2046 293.948 22.3449C294.318 21.4851 294.834 20.7378 295.496 20.1029C296.157 19.4548 296.931 18.9588 297.817 18.6149C298.716 18.2578 299.695 18.0793 300.753 18.0793C301.824 18.0793 302.81 18.2644 303.709 18.6348C304.622 18.9919 305.396 19.5276 306.031 20.2418L304.741 21.4917C304.212 20.9362 303.617 20.5262 302.955 20.2617C302.294 19.9839 301.586 19.845 300.832 19.845C300.052 19.845 299.325 19.9773 298.65 20.2418C297.989 20.5063 297.413 20.8767 296.924 21.3529C296.435 21.829 296.051 22.3978 295.773 23.0591C295.509 23.7072 295.376 24.4148 295.376 25.182C295.376 25.9491 295.509 26.6634 295.773 27.3247C296.051 27.9728 296.435 28.5349 296.924 29.0111C297.413 29.4873 297.989 29.8576 298.65 30.1221C299.325 30.3867 300.052 30.5189 300.832 30.5189C301.586 30.5189 302.294 30.3867 302.955 30.1221C303.617 29.8444 304.212 29.4211 304.741 28.8524L306.031 30.1023C305.396 30.8165 304.622 31.3588 303.709 31.7292C302.81 32.0995 301.818 32.2847 300.733 32.2847ZM311.095 32.126V19.9641H306.334V18.238H317.821V19.9641H313.06V32.126H311.095ZM325.484 32.2847C323.659 32.2847 322.223 31.7622 321.179 30.7173C320.134 29.6724 319.611 28.1447 319.611 26.1343V18.238H321.595V26.0549C321.595 27.6025 321.932 28.7333 322.607 29.4476C323.295 30.1618 324.26 30.5189 325.504 30.5189C326.76 30.5189 327.726 30.1618 328.4 29.4476C329.088 28.7333 329.432 27.6025 329.432 26.0549V18.238H331.356V26.1343C331.356 28.1447 330.834 29.6724 329.789 30.7173C328.757 31.7622 327.322 32.2847 325.484 32.2847ZM335.424 32.126V18.238H340.84C342.639 18.238 344.054 18.6678 345.086 19.5276C346.118 20.3741 346.634 21.5579 346.634 23.0789C346.634 24.0842 346.402 24.9505 345.939 25.678C345.476 26.3922 344.815 26.9411 343.955 27.3247C343.095 27.7083 342.057 27.9001 340.84 27.9001H336.515L337.408 26.9874V32.126H335.424ZM344.709 32.126L341.178 27.0866H343.3L346.872 32.126H344.709ZM337.408 27.1858L336.515 26.2137H340.781C342.051 26.2137 343.009 25.9425 343.658 25.4002C344.319 24.8447 344.65 24.0709 344.65 23.0789C344.65 22.0869 344.319 21.3198 343.658 20.7775C343.009 20.2352 342.051 19.9641 340.781 19.9641H336.515L337.408 18.9721V27.1858ZM347.736 32.126L354.025 18.238H355.989L362.299 32.126H360.215L354.601 19.349H355.394L349.779 32.126H347.736ZM350.414 28.654L350.95 27.0668H358.767L359.342 28.654H350.414ZM364.37 32.126V18.238H366.354V30.3999H373.874V32.126H364.37ZM204.275 59.126V45.238H210.504C212.105 45.238 213.335 45.562 214.195 46.2101C215.054 46.845 215.484 47.718 215.484 48.829C215.484 49.5829 215.312 50.2178 214.968 50.7337C214.638 51.2495 214.188 51.6463 213.619 51.9241C213.051 52.2018 212.435 52.3407 211.774 52.3407L212.131 51.7455C212.925 51.7455 213.626 51.8844 214.234 52.1621C214.843 52.4399 215.325 52.8499 215.683 53.3922C216.04 53.9213 216.218 54.5826 216.218 55.3762C216.218 56.5666 215.769 57.4925 214.869 58.1538C213.983 58.8019 212.66 59.126 210.901 59.126H204.275ZM206.259 57.5189H210.822C211.92 57.5189 212.76 57.3338 213.341 56.9634C213.923 56.5931 214.214 56.0111 214.214 55.2175C214.214 54.4107 213.923 53.8221 213.341 53.4517C212.76 53.0814 211.92 52.8962 210.822 52.8962H206.08V51.2892H210.326C211.331 51.2892 212.111 51.104 212.667 50.7337C213.222 50.3633 213.5 49.8078 213.5 49.0671C213.5 48.3264 213.222 47.7709 212.667 47.4005C212.111 47.0302 211.331 46.845 210.326 46.845H206.259V57.5189ZM225.044 59.2847C223.219 59.2847 221.783 58.7622 220.739 57.7173C219.694 56.6724 219.171 55.1447 219.171 53.1343V45.238H221.155V53.0549C221.155 54.6025 221.492 55.7333 222.167 56.4476C222.855 57.1618 223.82 57.5189 225.064 57.5189C226.32 57.5189 227.286 57.1618 227.96 56.4476C228.648 55.7333 228.992 54.6025 228.992 53.0549V45.238H230.916V53.1343C230.916 55.1447 230.394 56.6724 229.349 57.7173C228.317 58.7622 226.882 59.2847 225.044 59.2847ZM234.984 59.126V45.238H236.968V59.126H234.984ZM241.126 59.126V45.238H243.11V57.3999H250.629V59.126H241.126ZM252.906 59.126V45.238H258.759C260.24 45.238 261.543 45.529 262.667 46.1109C263.805 46.6929 264.684 47.5063 265.306 48.5513C265.941 49.5962 266.258 50.8064 266.258 52.182C266.258 53.5575 265.941 54.7678 265.306 55.8127C264.684 56.8576 263.805 57.671 262.667 58.253C261.543 58.835 260.24 59.126 258.759 59.126H252.906ZM254.89 57.3999H258.64C259.79 57.3999 260.782 57.1817 261.616 56.7452C262.462 56.3087 263.117 55.7003 263.58 54.9199C264.043 54.1263 264.274 53.2137 264.274 52.182C264.274 51.1371 264.043 50.2244 263.58 49.4441C263.117 48.6637 262.462 48.0553 261.616 47.6188C260.782 47.1823 259.79 46.9641 258.64 46.9641H254.89V57.3999ZM269.297 59.126V45.238H271.281V59.126H269.297ZM275.439 59.126V45.238H277.066L286.252 56.646H285.399V45.238H287.383V59.126H285.756L276.57 47.718H277.423V59.126H275.439ZM297.809 59.2847C296.738 59.2847 295.752 59.1127 294.853 58.7689C293.953 58.4117 293.173 57.9157 292.512 57.2809C291.85 56.6327 291.335 55.8788 290.964 55.0191C290.594 54.1594 290.409 53.2137 290.409 52.182C290.409 51.1503 290.594 50.2046 290.964 49.3449C291.335 48.4851 291.85 47.7378 292.512 47.1029C293.186 46.4548 293.973 45.9588 294.873 45.6149C295.772 45.2578 296.764 45.0793 297.849 45.0793C298.947 45.0793 299.952 45.2578 300.864 45.6149C301.777 45.9721 302.551 46.5077 303.186 47.222L301.956 48.4521C301.387 47.8965 300.765 47.4931 300.091 47.2418C299.429 46.9773 298.708 46.845 297.928 46.845C297.134 46.845 296.394 46.9773 295.706 47.2418C295.031 47.5063 294.443 47.8767 293.94 48.3529C293.451 48.829 293.067 49.3978 292.79 50.0591C292.525 50.7072 292.393 51.4148 292.393 52.182C292.393 52.9359 292.525 53.6435 292.79 54.3049C293.067 54.953 293.451 55.5217 293.94 56.0111C294.443 56.4873 295.031 56.8576 295.706 57.1221C296.381 57.3867 297.115 57.5189 297.908 57.5189C298.649 57.5189 299.357 57.4065 300.031 57.1817C300.719 56.9436 301.354 56.5534 301.936 56.0111L303.067 57.5189C302.379 58.1009 301.572 58.544 300.646 58.8482C299.734 59.1392 298.788 59.2847 297.809 59.2847ZM303.067 57.5189L301.162 57.261V52.1026H303.067V57.5189ZM316.241 59.2847C315.183 59.2847 314.171 59.126 313.205 58.8085C312.24 58.4779 311.479 58.0546 310.924 57.5388L311.658 55.9913C312.187 56.4542 312.861 56.8378 313.681 57.142C314.501 57.4462 315.355 57.5983 316.241 57.5983C317.048 57.5983 317.702 57.5057 318.205 57.3205C318.707 57.1354 319.078 56.8841 319.316 56.5666C319.554 56.2359 319.673 55.8656 319.673 55.4556C319.673 54.9794 319.514 54.5958 319.197 54.3049C318.893 54.0139 318.489 53.7824 317.987 53.6105C317.497 53.4253 316.955 53.2666 316.36 53.1343C315.765 53.002 315.163 52.8499 314.554 52.678C313.959 52.4928 313.41 52.2613 312.908 51.9836C312.418 51.7058 312.021 51.3355 311.717 50.8725C311.413 50.3964 311.261 49.7879 311.261 49.0473C311.261 48.333 311.446 47.6783 311.816 47.0831C312.2 46.4747 312.782 45.9919 313.562 45.6348C314.356 45.2644 315.361 45.0793 316.578 45.0793C317.385 45.0793 318.185 45.1851 318.979 45.3967C319.772 45.6083 320.46 45.9125 321.042 46.3093L320.387 47.8965C319.792 47.4997 319.164 47.2154 318.502 47.0434C317.841 46.8582 317.2 46.7657 316.578 46.7657C315.798 46.7657 315.156 46.8649 314.654 47.0633C314.151 47.2617 313.781 47.5262 313.542 47.8569C313.318 48.1875 313.205 48.5579 313.205 48.9679C313.205 49.4573 313.357 49.8475 313.662 50.1385C313.979 50.4294 314.382 50.6609 314.872 50.8329C315.374 51.0048 315.923 51.1635 316.518 51.309C317.114 51.4413 317.709 51.5934 318.304 51.7653C318.913 51.9373 319.461 52.1621 319.951 52.4399C320.453 52.7177 320.857 53.088 321.161 53.5509C321.465 54.0139 321.617 54.6091 321.617 55.3365C321.617 56.0375 321.426 56.6923 321.042 57.3007C320.658 57.8959 320.063 58.3787 319.256 58.749C318.463 59.1061 317.458 59.2847 316.241 59.2847ZM327.578 59.126V53.8089L328.035 55.0389L322.063 45.238H324.186L329.205 53.5113H328.054L333.094 45.238H335.058L329.106 55.0389L329.542 53.8089V59.126H327.578ZM340.828 59.2847C339.769 59.2847 338.758 59.126 337.792 58.8085C336.827 58.4779 336.066 58.0546 335.51 57.5388L336.245 55.9913C336.774 56.4542 337.448 56.8378 338.268 57.142C339.088 57.4462 339.941 57.5983 340.828 57.5983C341.634 57.5983 342.289 57.5057 342.792 57.3205C343.294 57.1354 343.665 56.8841 343.903 56.5666C344.141 56.2359 344.26 55.8656 344.26 55.4556C344.26 54.9794 344.101 54.5958 343.784 54.3049C343.48 54.0139 343.076 53.7824 342.574 53.6105C342.084 53.4253 341.542 53.2666 340.947 53.1343C340.351 53.002 339.75 52.8499 339.141 52.678C338.546 52.4928 337.997 52.2613 337.494 51.9836C337.005 51.7058 336.608 51.3355 336.304 50.8725C336 50.3964 335.848 49.7879 335.848 49.0473C335.848 48.333 336.033 47.6783 336.403 47.0831C336.787 46.4747 337.369 45.9919 338.149 45.6348C338.943 45.2644 339.948 45.0793 341.165 45.0793C341.972 45.0793 342.772 45.1851 343.566 45.3967C344.359 45.6083 345.047 45.9125 345.629 46.3093L344.974 47.8965C344.379 47.4997 343.751 47.2154 343.089 47.0434C342.428 46.8582 341.787 46.7657 341.165 46.7657C340.385 46.7657 339.743 46.8649 339.24 47.0633C338.738 47.2617 338.367 47.5262 338.129 47.8569C337.905 48.1875 337.792 48.5579 337.792 48.9679C337.792 49.4573 337.944 49.8475 338.248 50.1385C338.566 50.4294 338.969 50.6609 339.459 50.8329C339.961 51.0048 340.51 51.1635 341.105 51.309C341.701 51.4413 342.296 51.5934 342.891 51.7653C343.499 51.9373 344.048 52.1621 344.538 52.4399C345.04 52.7177 345.444 53.088 345.748 53.5509C346.052 54.0139 346.204 54.6091 346.204 55.3365C346.204 56.0375 346.012 56.6923 345.629 57.3007C345.245 57.8959 344.65 58.3787 343.843 58.749C343.05 59.1061 342.044 59.2847 340.828 59.2847ZM351.667 59.126V46.9641H346.905V45.238H358.393V46.9641H353.631V59.126H351.667ZM360.553 59.126V45.238H370.354V46.9641H362.537V57.3999H370.632V59.126H360.553ZM362.359 52.9161V51.2297H369.501V52.9161H362.359ZM373.845 59.126V45.238H375.471L381.701 55.7333H380.828L386.979 45.238H388.606L388.625 59.126H386.721L386.701 48.2338H387.157L381.681 57.4396H380.769L375.253 48.2338H375.749V59.126H373.845ZM396.841 59.2847C395.783 59.2847 394.771 59.126 393.805 58.8085C392.84 58.4779 392.079 58.0546 391.524 57.5388L392.258 55.9913C392.787 56.4542 393.461 56.8378 394.281 57.142C395.101 57.4462 395.955 57.5983 396.841 57.5983C397.648 57.5983 398.302 57.5057 398.805 57.3205C399.307 57.1354 399.678 56.8841 399.916 56.5666C400.154 56.2359 400.273 55.8656 400.273 55.4556C400.273 54.9794 400.114 54.5958 399.797 54.3049C399.493 54.0139 399.089 53.7824 398.587 53.6105C398.097 53.4253 397.555 53.2666 396.96 53.1343C396.365 53.002 395.763 52.8499 395.154 52.678C394.559 52.4928 394.01 52.2613 393.508 51.9836C393.018 51.7058 392.621 51.3355 392.317 50.8725C392.013 50.3964 391.861 49.7879 391.861 49.0473C391.861 48.333 392.046 47.6783 392.416 47.0831C392.8 46.4747 393.382 45.9919 394.162 45.6348C394.956 45.2644 395.961 45.0793 397.178 45.0793C397.985 45.0793 398.785 45.1851 399.579 45.3967C400.372 45.6083 401.06 45.9125 401.642 46.3093L400.987 47.8965C400.392 47.4997 399.764 47.2154 399.102 47.0434C398.441 46.8582 397.8 46.7657 397.178 46.7657C396.398 46.7657 395.756 46.8649 395.254 47.0633C394.751 47.2617 394.381 47.5262 394.142 47.8569C393.918 48.1875 393.805 48.5579 393.805 48.9679C393.805 49.4573 393.957 49.8475 394.262 50.1385C394.579 50.4294 394.982 50.6609 395.472 50.8329C395.974 51.0048 396.523 51.1635 397.118 51.309C397.714 51.4413 398.309 51.5934 398.904 51.7653C399.513 51.9373 400.061 52.1621 400.551 52.4399C401.053 52.7177 401.457 53.088 401.761 53.5509C402.065 54.0139 402.217 54.6091 402.217 55.3365C402.217 56.0375 402.026 56.6923 401.642 57.3007C401.258 57.8959 400.663 58.3787 399.856 58.749C399.063 59.1061 398.058 59.2847 396.841 59.2847Z" fill="#666666"/>
<line x1="179.958" y1="76.6559" x2="179.745" y2="0.00340101" stroke="#1DD45A" stroke-width="2.56"/>
<path d="M152.001 64.5006C148.059 64.5006 145.012 63.4926 142.862 61.4766C140.711 59.4158 139.636 56.3918 139.636 52.4046V20.2158H148.036V52.203C148.036 53.9054 148.462 55.227 149.313 56.1678C150.209 57.1086 151.441 57.579 153.009 57.579C154.891 57.579 156.459 57.0862 157.713 56.1006L160.065 62.0814C159.079 62.8878 157.87 63.4926 156.436 63.8958C155.003 64.299 153.524 64.5006 152.001 64.5006ZM133.723 34.8654V28.1454H157.646V34.8654H133.723Z" fill="black"/>
<path fill-rule="evenodd" clip-rule="evenodd" d="M121.088 28.1459V64.0307H129.488V28.1459H121.088Z" fill="black"/>
<path d="M125.321 22.2323C123.753 22.2323 122.454 21.7395 121.424 20.7539C120.438 19.7683 119.945 18.5811 119.945 17.1923C119.945 15.7587 120.438 14.5715 121.424 13.6307C122.454 12.6451 123.753 12.1523 125.321 12.1523C126.889 12.1523 128.166 12.6227 129.152 13.5635C130.182 14.4595 130.697 15.6019 130.697 16.9907C130.697 18.4691 130.205 19.7235 129.219 20.7539C128.233 21.7395 126.934 22.2323 125.321 22.2323Z" fill="#1DD45A"/>
<path d="M84.3789 64.0303V58.7215L106.488 31.9759L108.033 34.8655H84.7821V28.1455H114.753V33.4543L92.6445 60.1999L90.9645 57.3103H115.358V64.0303H84.3789Z" fill="black"/>
<path fill-rule="evenodd" clip-rule="evenodd" d="M69.9276 28.1459V64.0307H78.3276V28.1459H69.9276Z" fill="black"/>
<path d="M74.1612 22.2323C72.5932 22.2323 71.294 21.7395 70.2636 20.7539C69.278 19.7683 68.7852 18.5811 68.7852 17.1923C68.7852 15.7587 69.278 14.5715 70.2636 13.6307C71.294 12.6451 72.5932 12.1523 74.1612 12.1523C75.7292 12.1523 77.006 12.6227 77.9916 13.5635C79.022 14.4595 79.5372 15.6019 79.5372 16.9907C79.5372 18.4691 79.0444 19.7235 78.0588 20.7539C77.0732 21.7395 75.774 22.2323 74.1612 22.2323Z" fill="#1DD45A"/>
<path d="M44.0547 64.0302V28.1454H52.0515V38.0238L51.1107 35.1342C52.1859 32.715 53.8659 30.8782 56.1507 29.6238C58.4803 28.3694 61.3699 27.7422 64.8195 27.7422V35.739C64.4611 35.6494 64.1251 35.6046 63.8115 35.6046C63.4979 35.5598 63.1843 35.5374 62.8707 35.5374C59.6899 35.5374 57.1587 36.4782 55.2771 38.3598C53.3955 40.1966 52.4547 42.9518 52.4547 46.6254V64.0302H44.0547Z" fill="black"/>
<path d="M19.8912 64.5008C16.8448 64.5008 14.1344 63.8288 11.76 62.4848C9.3856 61.1408 7.504 59.1248 6.1152 56.4368C4.7712 53.704 4.0992 50.2544 4.0992 46.088C4.0992 41.8768 4.7936 38.4272 6.1824 35.7392C7.616 33.0512 9.52 31.0576 11.8944 29.7584C14.3136 28.4144 16.9792 27.7424 19.8912 27.7424C23.4304 27.7424 26.544 28.504 29.232 30.0272C31.9648 31.5504 34.1152 33.6784 35.6832 36.4112C37.296 39.144 38.1024 42.3696 38.1024 46.088C38.1024 49.8064 37.296 53.032 35.6832 55.7648C34.1152 58.4976 31.9648 60.648 29.232 62.216C26.544 63.7392 23.4304 64.5008 19.8912 64.5008ZM0 64.0304V14.168H8.4V36.4784L7.728 46.0208L7.9968 55.5632V64.0304H0ZM18.9504 57.3104C20.9664 57.3104 22.7584 56.8624 24.3264 55.9664C25.9392 55.0704 27.216 53.7712 28.1568 52.0688C29.0976 50.3664 29.568 48.3728 29.568 46.088C29.568 43.7584 29.0976 41.7648 28.1568 40.1072C27.216 38.4048 25.9392 37.1056 24.3264 36.2096C22.7584 35.3136 20.9664 34.8656 18.9504 34.8656C16.9344 34.8656 15.12 35.3136 13.5072 36.2096C11.8944 37.1056 10.6176 38.4048 9.6768 40.1072C8.736 41.7648 8.2656 43.7584 8.2656 46.088C8.2656 48.3728 8.736 50.3664 9.6768 52.0688C10.6176 53.7712 11.8944 55.0704 13.5072 55.9664C15.12 56.8624 16.9344 57.3104 18.9504 57.3104Z" fill="black"/>
</svg>
