<svg width="70" height="32" viewBox="0 0 70 32" fill="none" xmlns="http://www.w3.org/2000/svg">
<path d="M61.7014 22.4095C61.372 22.4095 61.0574 22.3646 60.7579 22.2747C60.4634 22.1849 60.2313 22.075 60.0615 21.9452L60.361 21.3761C60.5308 21.4909 60.7405 21.5883 60.9901 21.6682C61.2397 21.748 61.4943 21.788 61.7539 21.788C62.0883 21.788 62.3279 21.7406 62.4727 21.6457C62.6225 21.5509 62.6974 21.4186 62.6974 21.2488C62.6974 21.124 62.6524 21.0267 62.5626 20.9568C62.4727 20.8869 62.3529 20.8345 62.2031 20.7995C62.0584 20.7646 61.8961 20.7346 61.7164 20.7097C61.5367 20.6797 61.357 20.6448 61.1773 20.6048C60.9975 20.5599 60.8328 20.5 60.683 20.4251C60.5333 20.3453 60.4135 20.2379 60.3236 20.1031C60.2338 19.9634 60.1888 19.7787 60.1888 19.549C60.1888 19.3094 60.2562 19.0997 60.391 18.92C60.5258 18.7403 60.7155 18.603 60.9601 18.5082C61.2097 18.4083 61.5042 18.3584 61.8437 18.3584C62.1033 18.3584 62.3654 18.3908 62.63 18.4557C62.8995 18.5156 63.1192 18.603 63.2889 18.7178L62.9819 19.2869C62.8022 19.1671 62.615 19.0848 62.4203 19.0398C62.2256 18.9949 62.0309 18.9724 61.8362 18.9724C61.5217 18.9724 61.2871 19.0248 61.1323 19.1297C60.9776 19.2295 60.9002 19.3593 60.9002 19.5191C60.9002 19.6539 60.9451 19.7587 61.035 19.8336C61.1298 19.9035 61.2496 19.9584 61.3944 19.9983C61.5442 20.0382 61.7089 20.0732 61.8886 20.1031C62.0684 20.1281 62.2481 20.163 62.4278 20.208C62.6075 20.2479 62.7697 20.3053 62.9145 20.3802C63.0643 20.4551 63.1841 20.5599 63.2739 20.6947C63.3688 20.8295 63.4162 21.0092 63.4162 21.2339C63.4162 21.4735 63.3463 21.6806 63.2066 21.8554C63.0668 22.0301 62.8696 22.1674 62.615 22.2672C62.3604 22.3621 62.0559 22.4095 61.7014 22.4095Z" fill="black"/>
<path d="M57.8096 18.3584C58.1341 18.3584 58.4186 18.4208 58.6632 18.5456C58.9128 18.6704 59.1075 18.8601 59.2473 19.1147C59.3871 19.3693 59.457 19.6913 59.457 20.0807V22.3646H58.7381V20.163C58.7381 19.7787 58.6433 19.4891 58.4536 19.2944C58.2689 19.0997 58.0068 19.0024 57.6673 19.0024C57.4127 19.0024 57.1906 19.0523 57.0009 19.1521C56.8112 19.252 56.6639 19.3993 56.5591 19.5939C56.4592 19.7886 56.4093 20.0308 56.4093 20.3203V22.3646H55.6904V18.3958H56.3793V19.4666L56.267 19.1821C56.3968 18.9225 56.5965 18.7203 56.8661 18.5756C57.1356 18.4308 57.4501 18.3584 57.8096 18.3584Z" fill="black"/>
<path d="M53.096 22.4095C52.6717 22.4095 52.2973 22.3221 51.9728 22.1474C51.6533 21.9727 51.4037 21.7331 51.224 21.4285C51.0493 21.124 50.9619 20.7746 50.9619 20.3802C50.9619 19.9858 51.0468 19.6364 51.2165 19.3319C51.3912 19.0273 51.6284 18.7902 51.9279 18.6205C52.2324 18.4458 52.5744 18.3584 52.9538 18.3584C53.3382 18.3584 53.6776 18.4433 53.9722 18.613C54.2667 18.7827 54.4963 19.0223 54.6611 19.3319C54.8308 19.6364 54.9157 19.9933 54.9157 20.4027C54.9157 20.4326 54.9132 20.4676 54.9082 20.5075C54.9082 20.5474 54.9057 20.5849 54.9007 20.6198H51.5235V20.1031H54.5263L54.2342 20.2829C54.2392 20.0283 54.1868 19.8011 54.077 19.6014C53.9672 19.4018 53.8149 19.247 53.6202 19.1372C53.4305 19.0223 53.2084 18.9649 52.9538 18.9649C52.7042 18.9649 52.482 19.0223 52.2873 19.1372C52.0926 19.247 51.9404 19.4042 51.8305 19.6089C51.7207 19.8086 51.6658 20.0382 51.6658 20.2978V20.4176C51.6658 20.6822 51.7257 20.9194 51.8455 21.129C51.9703 21.3337 52.1425 21.4934 52.3622 21.6083C52.5819 21.7231 52.834 21.7805 53.1185 21.7805C53.3531 21.7805 53.5653 21.7406 53.755 21.6607C53.9497 21.5808 54.1194 21.461 54.2642 21.3012L54.6611 21.7655C54.4814 21.9752 54.2567 22.1349 53.9871 22.2448C53.7226 22.3546 53.4255 22.4095 53.096 22.4095Z" fill="black"/>
<path d="M48.7367 22.4095C48.3123 22.4095 47.9379 22.3221 47.6134 22.1474C47.2939 21.9727 47.0443 21.7331 46.8646 21.4285C46.6899 21.124 46.6025 20.7746 46.6025 20.3802C46.6025 19.9858 46.6874 19.6364 46.8571 19.3319C47.0319 19.0273 47.269 18.7902 47.5685 18.6205C47.873 18.4458 48.215 18.3584 48.5944 18.3584C48.9788 18.3584 49.3182 18.4433 49.6128 18.613C49.9073 18.7827 50.137 19.0223 50.3017 19.3319C50.4714 19.6364 50.5563 19.9933 50.5563 20.4027C50.5563 20.4326 50.5538 20.4676 50.5488 20.5075C50.5488 20.5474 50.5463 20.5849 50.5413 20.6198H47.1642V20.1031H50.1669L49.8749 20.2829C49.8799 20.0283 49.8274 19.8011 49.7176 19.6014C49.6078 19.4018 49.4555 19.247 49.2608 19.1372C49.0711 19.0223 48.849 18.9649 48.5944 18.9649C48.3448 18.9649 48.1226 19.0223 47.9279 19.1372C47.7333 19.247 47.581 19.4042 47.4712 19.6089C47.3613 19.8086 47.3064 20.0382 47.3064 20.2978V20.4176C47.3064 20.6822 47.3663 20.9194 47.4861 21.129C47.6109 21.3337 47.7832 21.4934 48.0028 21.6083C48.2225 21.7231 48.4746 21.7805 48.7591 21.7805C48.9938 21.7805 49.2059 21.7406 49.3956 21.6607C49.5903 21.5808 49.7601 21.461 49.9048 21.3012L50.3017 21.7655C50.122 21.9752 49.8973 22.1349 49.6278 22.2448C49.3632 22.3546 49.0661 22.4095 48.7367 22.4095Z" fill="black"/>
<path d="M44.21 22.3646V18.3958H44.8989V19.4741L44.8315 19.2046C44.9413 18.93 45.126 18.7203 45.3856 18.5756C45.6452 18.4308 45.9647 18.3584 46.3441 18.3584V19.0548C46.3141 19.0498 46.2842 19.0473 46.2542 19.0473C46.2293 19.0473 46.2043 19.0473 46.1794 19.0473C45.795 19.0473 45.4904 19.1621 45.2658 19.3918C45.0411 19.6214 44.9288 19.9534 44.9288 20.3877V22.3646H44.21Z" fill="black"/>
<path d="M41.8867 22.4095C41.4824 22.4095 41.1204 22.3221 40.8009 22.1474C40.4864 21.9727 40.2393 21.7331 40.0596 21.4285C39.8799 21.124 39.79 20.7746 39.79 20.3802C39.79 19.9858 39.8799 19.6364 40.0596 19.3319C40.2393 19.0273 40.4864 18.7902 40.8009 18.6205C41.1204 18.4458 41.4824 18.3584 41.8867 18.3584C42.2462 18.3584 42.5657 18.4308 42.8452 18.5756C43.1298 18.7153 43.3494 18.925 43.5042 19.2046L42.9575 19.5565C42.8277 19.3618 42.668 19.2195 42.4783 19.1297C42.2936 19.0348 42.0939 18.9874 41.8792 18.9874C41.6196 18.9874 41.3875 19.0448 41.1828 19.1596C40.9782 19.2745 40.8159 19.4367 40.6961 19.6464C40.5763 19.851 40.5164 20.0957 40.5164 20.3802C40.5164 20.6648 40.5763 20.9119 40.6961 21.1215C40.8159 21.3312 40.9782 21.4934 41.1828 21.6083C41.3875 21.7231 41.6196 21.7805 41.8792 21.7805C42.0939 21.7805 42.2936 21.7356 42.4783 21.6457C42.668 21.5509 42.8277 21.4061 42.9575 21.2114L43.5042 21.5558C43.3494 21.8304 43.1298 22.0426 42.8452 22.1923C42.5657 22.3371 42.2462 22.4095 41.8867 22.4095Z" fill="black"/>
<path d="M37.7678 22.4095C37.4384 22.4095 37.1239 22.3646 36.8243 22.2747C36.5298 22.1849 36.2977 22.075 36.1279 21.9452L36.4275 21.3761C36.5972 21.4909 36.8069 21.5883 37.0565 21.6682C37.3061 21.748 37.5607 21.788 37.8203 21.788C38.1547 21.788 38.3943 21.7406 38.5391 21.6457C38.6889 21.5509 38.7638 21.4186 38.7638 21.2488C38.7638 21.124 38.7188 21.0267 38.629 20.9568C38.5391 20.8869 38.4193 20.8345 38.2695 20.7995C38.1248 20.7646 37.9625 20.7346 37.7828 20.7097C37.6031 20.6797 37.4234 20.6448 37.2437 20.6048C37.064 20.5599 36.8992 20.5 36.7494 20.4251C36.5997 20.3453 36.4799 20.2379 36.39 20.1031C36.3002 19.9634 36.2552 19.7787 36.2552 19.549C36.2552 19.3094 36.3226 19.0997 36.4574 18.92C36.5922 18.7403 36.7819 18.603 37.0265 18.5082C37.2761 18.4083 37.5707 18.3584 37.9101 18.3584C38.1697 18.3584 38.4318 18.3908 38.6964 18.4557C38.9659 18.5156 39.1856 18.603 39.3553 18.7178L39.0483 19.2869C38.8686 19.1671 38.6814 19.0848 38.4867 19.0398C38.292 18.9949 38.0973 18.9724 37.9026 18.9724C37.5881 18.9724 37.3535 19.0248 37.1987 19.1297C37.044 19.2295 36.9666 19.3593 36.9666 19.5191C36.9666 19.6539 37.0115 19.7587 37.1014 19.8336C37.1962 19.9035 37.3161 19.9584 37.4608 19.9983C37.6106 20.0382 37.7753 20.0732 37.955 20.1031C38.1348 20.1281 38.3145 20.163 38.4942 20.208C38.6739 20.2479 38.8362 20.3053 38.9809 20.3802C39.1307 20.4551 39.2505 20.5599 39.3404 20.6947C39.4352 20.8295 39.4826 21.0092 39.4826 21.2339C39.4826 21.4735 39.4127 21.6806 39.273 21.8554C39.1332 22.0301 38.936 22.1674 38.6814 22.2672C38.4268 22.3621 38.1223 22.4095 37.7678 22.4095Z" fill="black"/>
<path d="M59.8498 15.9419V12.5723H60.6511V15.9419H59.8498ZM58.5244 14.6315V13.8827H61.9765V14.6315H58.5244Z" fill="#FFD700"/>
<path d="M54.5452 16.9232C54.2157 16.9232 53.9012 16.8782 53.6017 16.7884C53.3071 16.6985 53.075 16.5887 52.9053 16.4589L53.2048 15.8898C53.3745 16.0046 53.5842 16.102 53.8338 16.1818C54.0834 16.2617 54.338 16.3017 54.5976 16.3017C54.9321 16.3017 55.1717 16.2542 55.3165 16.1594C55.4662 16.0645 55.5411 15.9322 55.5411 15.7625C55.5411 15.6377 55.4962 15.5404 55.4063 15.4705C55.3165 15.4006 55.1967 15.3482 55.0469 15.3132C54.9021 15.2783 54.7399 15.2483 54.5602 15.2234C54.3804 15.1934 54.2007 15.1585 54.021 15.1185C53.8413 15.0736 53.6766 15.0137 53.5268 14.9388C53.377 14.8589 53.2572 14.7516 53.1674 14.6168C53.0775 14.477 53.0326 14.2923 53.0326 14.0627C53.0326 13.8231 53.1 13.6134 53.2348 13.4337C53.3695 13.254 53.5592 13.1167 53.8039 13.0218C54.0535 12.922 54.348 12.8721 54.6875 12.8721C54.947 12.8721 55.2091 12.9045 55.4737 12.9694C55.7433 13.0293 55.9629 13.1167 56.1327 13.2315L55.8257 13.8006C55.6459 13.6808 55.4587 13.5984 55.264 13.5535C55.0694 13.5086 54.8747 13.4861 54.68 13.4861C54.3655 13.4861 54.1308 13.5385 53.9761 13.6434C53.8213 13.7432 53.7439 13.873 53.7439 14.0327C53.7439 14.1675 53.7889 14.2724 53.8787 14.3472C53.9736 14.4171 54.0934 14.472 54.2382 14.512C54.3879 14.5519 54.5527 14.5869 54.7324 14.6168C54.9121 14.6418 55.0918 14.6767 55.2715 14.7216C55.4513 14.7616 55.6135 14.819 55.7583 14.8939C55.908 14.9688 56.0278 15.0736 56.1177 15.2084C56.2125 15.3432 56.26 15.5229 56.26 15.7475C56.26 15.9871 56.1901 16.1943 56.0503 16.369C55.9105 16.5438 55.7133 16.6811 55.4587 16.7809C55.2041 16.8757 54.8996 16.9232 54.5452 16.9232Z" fill="black"/>
<path d="M50.5674 16.8782V12.9095H51.2563V13.9878L51.1889 13.7182C51.2987 13.4437 51.4834 13.234 51.743 13.0892C52.0026 12.9445 52.3221 12.8721 52.7015 12.8721V13.5685C52.6716 13.5635 52.6416 13.561 52.6117 13.561C52.5867 13.561 52.5617 13.561 52.5368 13.561C52.1524 13.561 51.8479 13.6758 51.6232 13.9054C51.3986 14.1351 51.2862 14.4671 51.2862 14.9014V16.8782H50.5674Z" fill="black"/>
<path d="M47.7376 16.9232C47.3383 16.9232 46.9838 16.8358 46.6743 16.6611C46.3648 16.4864 46.1202 16.2467 45.9405 15.9422C45.7608 15.6327 45.6709 15.2833 45.6709 14.8939C45.6709 14.4995 45.7608 14.1501 45.9405 13.8455C46.1202 13.541 46.3648 13.3039 46.6743 13.1342C46.9838 12.9594 47.3383 12.8721 47.7376 12.8721C48.132 12.8721 48.484 12.9594 48.7935 13.1342C49.108 13.3039 49.3526 13.541 49.5273 13.8455C49.707 14.1451 49.7969 14.4945 49.7969 14.8939C49.7969 15.2883 49.707 15.6377 49.5273 15.9422C49.3526 16.2467 49.108 16.4864 48.7935 16.6611C48.484 16.8358 48.132 16.9232 47.7376 16.9232ZM47.7376 16.2942C47.9922 16.2942 48.2194 16.2368 48.4191 16.1219C48.6237 16.0071 48.7835 15.8449 48.8983 15.6352C49.0131 15.4205 49.0705 15.1734 49.0705 14.8939C49.0705 14.6093 49.0131 14.3647 48.8983 14.16C48.7835 13.9504 48.6237 13.7881 48.4191 13.6733C48.2194 13.5585 47.9922 13.5011 47.7376 13.5011C47.483 13.5011 47.2559 13.5585 47.0562 13.6733C46.8565 13.7881 46.6968 13.9504 46.577 14.16C46.4572 14.3647 46.3973 14.6093 46.3973 14.8939C46.3973 15.1734 46.4572 15.4205 46.577 15.6352C46.6968 15.8449 46.8565 16.0071 47.0562 16.1219C47.2559 16.2368 47.483 16.2942 47.7376 16.2942Z" fill="black"/>
<path d="M43.2103 16.9232C42.8109 16.9232 42.4565 16.8358 42.147 16.6611C41.8375 16.4864 41.5928 16.2467 41.4131 15.9422C41.2334 15.6327 41.1436 15.2833 41.1436 14.8939C41.1436 14.4995 41.2334 14.1501 41.4131 13.8455C41.5928 13.541 41.8375 13.3039 42.147 13.1342C42.4565 12.9594 42.8109 12.8721 43.2103 12.8721C43.6047 12.8721 43.9566 12.9594 44.2661 13.1342C44.5806 13.3039 44.8252 13.541 45 13.8455C45.1797 14.1451 45.2695 14.4945 45.2695 14.8939C45.2695 15.2883 45.1797 15.6377 45 15.9422C44.8252 16.2467 44.5806 16.4864 44.2661 16.6611C43.9566 16.8358 43.6047 16.9232 43.2103 16.9232ZM43.2103 16.2942C43.4649 16.2942 43.692 16.2368 43.8917 16.1219C44.0964 16.0071 44.2561 15.8449 44.371 15.6352C44.4858 15.4205 44.5432 15.1734 44.5432 14.8939C44.5432 14.6093 44.4858 14.3647 44.371 14.16C44.2561 13.9504 44.0964 13.7881 43.8917 13.6733C43.692 13.5585 43.4649 13.5011 43.2103 13.5011C42.9557 13.5011 42.7286 13.5585 42.5289 13.6733C42.3292 13.7881 42.1694 13.9504 42.0496 14.16C41.9298 14.3647 41.8699 14.6093 41.8699 14.8939C41.8699 15.1734 41.9298 15.4205 42.0496 15.6352C42.1694 15.8449 42.3292 16.0071 42.5289 16.1219C42.7286 16.2368 42.9557 16.2942 43.2103 16.2942Z" fill="black"/>
<path d="M38.2695 16.9234C37.8851 16.9234 37.5407 16.8386 37.2362 16.6688C36.9366 16.4991 36.6995 16.262 36.5248 15.9574C36.3501 15.6529 36.2627 15.2985 36.2627 14.8941C36.2627 14.4898 36.3501 14.1378 36.5248 13.8383C36.6995 13.5338 36.9366 13.2966 37.2362 13.1269C37.5407 12.9572 37.8851 12.8723 38.2695 12.8723C38.604 12.8723 38.906 12.9472 39.1756 13.097C39.4452 13.2467 39.6598 13.4714 39.8196 13.7709C39.9843 14.0704 40.0667 14.4448 40.0667 14.8941C40.0667 15.3434 39.9868 15.7178 39.8271 16.0173C39.6723 16.3169 39.4601 16.544 39.1906 16.6988C38.921 16.8485 38.614 16.9234 38.2695 16.9234ZM38.3294 16.2944C38.579 16.2944 38.8037 16.237 39.0034 16.1222C39.208 16.0074 39.3678 15.8451 39.4826 15.6355C39.6024 15.4208 39.6623 15.1737 39.6623 14.8941C39.6623 14.6096 39.6024 14.365 39.4826 14.1603C39.3678 13.9506 39.208 13.7884 39.0034 13.6736C38.8037 13.5587 38.579 13.5013 38.3294 13.5013C38.0748 13.5013 37.8477 13.5587 37.648 13.6736C37.4483 13.7884 37.2886 13.9506 37.1688 14.1603C37.049 14.365 36.989 14.6096 36.989 14.8941C36.989 15.1737 37.049 15.4208 37.1688 15.6355C37.2886 15.8451 37.4483 16.0074 37.648 16.1222C37.8477 16.237 38.0748 16.2944 38.3294 16.2944ZM39.6848 16.8785V15.8077L39.7297 14.8866L39.6548 13.9656V11.3223H40.3737V16.8785H39.6848Z" fill="black"/>
<path d="M27.083 22.2952V20.995L32.4975 14.4449L32.8761 15.1526H27.1818V13.5068H34.5218V14.807L29.1073 21.3571L28.6958 20.6494H34.6699V22.2952H27.083Z" fill="black"/>
<path fill-rule="evenodd" clip-rule="evenodd" d="M23.5425 13.5067V22.295H25.5997V13.5067H23.5425Z" fill="black"/>
<path d="M24.5793 12.0585C24.1953 12.0585 23.8771 11.9378 23.6248 11.6964C23.3834 11.455 23.2627 11.1643 23.2627 10.8242C23.2627 10.4731 23.3834 10.1823 23.6248 9.95191C23.8771 9.71053 24.1953 9.58984 24.5793 9.58984C24.9633 9.58984 25.276 9.70505 25.5174 9.93545C25.7697 10.1549 25.8959 10.4347 25.8959 10.7748C25.8959 11.1368 25.7752 11.4441 25.5338 11.6964C25.2925 11.9378 24.9743 12.0585 24.5793 12.0585Z" fill="#FFD700"/>
<path d="M17.2061 22.2953V13.5069H19.1645V15.9262L18.9341 15.2185C19.1974 14.6261 19.6089 14.1762 20.1684 13.869C20.7389 13.5618 21.4466 13.4082 22.2914 13.4082V15.3666C22.2037 15.3447 22.1214 15.3337 22.0446 15.3337C21.9678 15.3228 21.891 15.3173 21.8142 15.3173C21.0352 15.3173 20.4153 15.5477 19.9545 16.0085C19.4936 16.4583 19.2632 17.1331 19.2632 18.0328V22.2953H17.2061Z" fill="black"/>
<path d="M11.2884 22.4097C10.5423 22.4097 9.87856 22.2451 9.29706 21.916C8.71556 21.5868 8.25475 21.0931 7.91463 20.4348C7.58548 19.7655 7.4209 18.9207 7.4209 17.9003C7.4209 16.869 7.59096 16.0242 7.93108 15.3659C8.28218 14.7076 8.74847 14.2193 9.32997 13.9012C9.92244 13.572 10.5753 13.4074 11.2884 13.4074C12.1552 13.4074 12.9177 13.5939 13.576 13.967C14.2453 14.34 14.7719 14.8612 15.1559 15.5304C15.5509 16.1997 15.7484 16.9897 15.7484 17.9003C15.7484 18.811 15.5509 19.6009 15.1559 20.2702C14.7719 20.9395 14.2453 21.4661 13.576 21.8501C12.9177 22.2232 12.1552 22.4097 11.2884 22.4097ZM6.41699 22.2945V10.083H8.47418V15.5469L8.30961 17.8839L8.37544 20.2208V22.2945H6.41699ZM11.058 20.6487C11.5517 20.6487 11.9906 20.539 12.3746 20.3196C12.7696 20.1002 13.0823 19.782 13.3127 19.365C13.5431 18.9481 13.6583 18.4599 13.6583 17.9003C13.6583 17.3298 13.5431 16.8416 13.3127 16.4356C13.0823 16.0187 12.7696 15.7005 12.3746 15.4811C11.9906 15.2616 11.5517 15.1519 11.058 15.1519C10.5643 15.1519 10.1199 15.2616 9.72495 15.4811C9.32997 15.7005 9.01728 16.0187 8.78688 16.4356C8.55647 16.8416 8.44127 17.3298 8.44127 17.9003C8.44127 18.4599 8.55647 18.9481 8.78688 19.365C9.01728 19.782 9.32997 20.1002 9.72495 20.3196C10.1199 20.539 10.5643 20.6487 11.058 20.6487Z" fill="black"/>
</svg>
