<svg width="12596" height="2396" viewBox="0 0 12596 2396" fill="none" xmlns="http://www.w3.org/2000/svg">
<path d="M6317.84 994.695L6514.38 560.695H6575.76L6772.92 994.695H6707.82L6532.36 595.415H6557.16L6381.7 994.695H6317.84ZM6401.54 886.195L6418.28 836.595H6662.56L6680.54 886.195H6401.54ZM6837.66 994.695V560.695H7006.92C7063.14 560.695 7107.36 574.129 7139.6 600.995C7171.84 627.449 7187.96 664.442 7187.96 711.975C7187.96 743.389 7180.73 770.462 7166.26 793.195C7151.8 815.515 7131.13 832.669 7104.26 844.655C7077.4 856.642 7044.95 862.635 7006.92 862.635H6871.76L6899.66 834.115V994.695H6837.66ZM7127.82 994.695L7017.46 837.215H7083.8L7195.4 994.695H7127.82ZM6899.66 840.315L6871.76 809.935H7005.06C7044.74 809.935 7074.71 801.462 7094.96 784.515C7115.63 767.155 7125.96 742.975 7125.96 711.975C7125.96 680.975 7115.63 657.002 7094.96 640.055C7074.71 623.109 7044.74 614.635 7005.06 614.635H6871.76L6899.66 583.635V840.315ZM7482.19 999.655C7449.12 999.655 7418.54 994.282 7390.43 983.535C7362.74 972.375 7338.56 956.875 7317.89 937.035C7297.64 916.782 7281.72 893.222 7270.15 866.355C7258.58 839.489 7252.79 809.935 7252.79 777.695C7252.79 745.455 7258.58 715.902 7270.15 689.035C7281.72 662.169 7297.84 638.815 7318.51 618.975C7339.18 598.722 7363.36 583.222 7391.05 572.475C7419.16 561.315 7449.74 555.735 7482.81 555.735C7516.29 555.735 7547.08 561.522 7575.19 573.095C7603.71 584.255 7627.89 600.995 7647.73 623.315L7607.43 662.375C7590.9 645.015 7572.3 632.202 7551.63 623.935C7530.96 615.255 7508.85 610.915 7485.29 610.915C7460.9 610.915 7438.17 615.049 7417.09 623.315C7396.42 631.582 7378.44 643.155 7363.15 658.035C7347.86 672.915 7335.87 690.689 7327.19 711.355C7318.92 731.609 7314.79 753.722 7314.79 777.695C7314.79 801.669 7318.92 823.989 7327.19 844.655C7335.87 864.909 7347.86 882.475 7363.15 897.355C7378.44 912.235 7396.42 923.809 7417.09 932.075C7438.17 940.342 7460.9 944.475 7485.29 944.475C7508.85 944.475 7530.96 940.342 7551.63 932.075C7572.3 923.395 7590.9 910.169 7607.43 892.395L7647.73 931.455C7627.89 953.775 7603.71 970.722 7575.19 982.295C7547.08 993.869 7516.08 999.655 7482.19 999.655ZM8041.36 994.695V560.695H8103.36V994.695H8041.36ZM7730.12 994.695V560.695H7792.12V994.695H7730.12ZM7785.92 801.255V747.315H8046.94V801.255H7785.92ZM8233.27 994.695V560.695H8295.27V994.695H8233.27ZM8511.38 994.695V614.635H8362.58V560.695H8721.56V614.635H8572.76V994.695H8511.38ZM8789.09 994.695V560.695H9095.37V614.635H8851.09V940.755H9104.05V994.695H8789.09ZM8845.51 800.635V747.935H9068.71V800.635H8845.51ZM9397.89 999.655C9364.83 999.655 9334.24 994.282 9306.13 983.535C9278.44 972.375 9254.26 956.875 9233.59 937.035C9213.34 916.782 9197.43 893.222 9185.85 866.355C9174.28 839.489 9168.49 809.935 9168.49 777.695C9168.49 745.455 9174.28 715.902 9185.85 689.035C9197.43 662.169 9213.55 638.815 9234.21 618.975C9254.88 598.722 9279.06 583.222 9306.75 572.475C9334.86 561.315 9365.45 555.735 9398.51 555.735C9431.99 555.735 9462.79 561.522 9490.89 573.095C9519.41 584.255 9543.59 600.995 9563.43 623.315L9523.13 662.375C9506.6 645.015 9488 632.202 9467.33 623.935C9446.67 615.255 9424.55 610.915 9400.99 610.915C9376.61 610.915 9353.87 615.049 9332.79 623.315C9312.13 631.582 9294.15 643.155 9278.85 658.035C9263.56 672.915 9251.57 690.689 9242.89 711.355C9234.63 731.609 9230.49 753.722 9230.49 777.695C9230.49 801.669 9234.63 823.989 9242.89 844.655C9251.57 864.909 9263.56 882.475 9278.85 897.355C9294.15 912.235 9312.13 923.809 9332.79 932.075C9353.87 940.342 9376.61 944.475 9400.99 944.475C9424.55 944.475 9446.67 940.342 9467.33 932.075C9488 923.395 9506.6 910.169 9523.13 892.395L9563.43 931.455C9543.59 953.775 9519.41 970.722 9490.89 982.295C9462.79 993.869 9431.79 999.655 9397.89 999.655ZM9721.71 994.695V614.635H9572.91V560.695H9931.89V614.635H9783.09V994.695H9721.71ZM10171.3 999.655C10114.3 999.655 10069.5 983.329 10036.8 950.675C10004.2 918.022 9987.83 870.282 9987.83 807.455V560.695H10049.8V804.975C10049.8 853.335 10060.4 888.675 10081.4 910.995C10102.9 933.315 10133.1 944.475 10172 944.475C10211.2 944.475 10241.4 933.315 10262.5 910.995C10284 888.675 10294.7 853.335 10294.7 804.975V560.695H10354.9V807.455C10354.9 870.282 10338.5 918.022 10305.9 950.675C10273.6 983.329 10228.8 999.655 10171.3 999.655ZM10482 994.695V560.695H10651.2C10707.5 560.695 10751.7 574.129 10783.9 600.995C10816.2 627.449 10832.3 664.442 10832.3 711.975C10832.3 743.389 10825 770.462 10810.6 793.195C10796.1 815.515 10775.4 832.669 10748.6 844.655C10721.7 856.642 10689.3 862.635 10651.2 862.635H10516.1L10544 834.115V994.695H10482ZM10772.1 994.695L10661.8 837.215H10728.1L10839.7 994.695H10772.1ZM10544 840.315L10516.1 809.935H10649.4C10689.1 809.935 10719 801.462 10739.3 784.515C10759.9 767.155 10770.3 742.975 10770.3 711.975C10770.3 680.975 10759.9 657.002 10739.3 640.055C10719 623.109 10689.1 614.635 10649.4 614.635H10516.1L10544 583.635V840.315ZM10866.7 994.695L11063.3 560.695H11124.6L11321.8 994.695H11256.7L11081.2 595.415H11106L10930.6 994.695H10866.7ZM10950.4 886.195L10967.2 836.595H11211.4L11229.4 886.195H10950.4ZM11386.5 994.695V560.695H11448.5V940.755H11683.5V994.695H11386.5ZM6383.56 1844.7V1410.7H6578.24C6628.25 1410.7 6666.69 1420.82 6693.56 1441.08C6720.43 1460.92 6733.86 1488.2 6733.86 1522.92C6733.86 1546.48 6728.49 1566.32 6717.74 1582.44C6707.41 1598.56 6693.35 1610.96 6675.58 1619.64C6657.81 1628.32 6638.59 1632.66 6617.92 1632.66L6629.08 1614.06C6653.88 1614.06 6675.79 1618.4 6694.8 1627.08C6713.81 1635.76 6728.9 1648.57 6740.06 1665.52C6751.22 1682.05 6756.8 1702.72 6756.8 1727.52C6756.8 1764.72 6742.75 1793.65 6714.64 1814.32C6686.95 1834.57 6645.61 1844.7 6590.64 1844.7H6383.56ZM6445.56 1794.48H6588.16C6622.47 1794.48 6648.71 1788.69 6666.9 1777.12C6685.09 1765.54 6694.18 1747.36 6694.18 1722.56C6694.18 1697.34 6685.09 1678.95 6666.9 1667.38C6648.71 1655.8 6622.47 1650.02 6588.16 1650.02H6439.98V1599.8H6572.66C6604.07 1599.8 6628.46 1594.01 6645.82 1582.44C6663.18 1570.86 6671.86 1553.5 6671.86 1530.36C6671.86 1507.21 6663.18 1489.85 6645.82 1478.28C6628.46 1466.7 6604.07 1460.92 6572.66 1460.92H6445.56V1794.48ZM7032.6 1849.66C6975.56 1849.66 6930.71 1833.33 6898.06 1800.68C6865.41 1768.02 6849.08 1720.28 6849.08 1657.46V1410.7H6911.08V1654.98C6911.08 1703.34 6921.62 1738.68 6942.7 1761C6964.19 1783.32 6994.37 1794.48 7033.22 1794.48C7072.49 1794.48 7102.66 1783.32 7123.74 1761C7145.23 1738.68 7155.98 1703.34 7155.98 1654.98V1410.7H7216.12V1657.46C7216.12 1720.28 7199.79 1768.02 7167.14 1800.68C7134.9 1833.33 7090.05 1849.66 7032.6 1849.66ZM7343.23 1844.7V1410.7H7405.23V1844.7H7343.23ZM7535.16 1844.7V1410.7H7597.16V1790.76H7832.14V1844.7H7535.16ZM7903.29 1844.7V1410.7H8086.19C8132.48 1410.7 8173.19 1419.79 8208.33 1437.98C8243.87 1456.16 8271.36 1481.58 8290.79 1514.24C8310.63 1546.89 8320.55 1584.71 8320.55 1627.7C8320.55 1670.68 8310.63 1708.5 8290.79 1741.16C8271.36 1773.81 8243.87 1799.23 8208.33 1817.42C8173.19 1835.6 8132.48 1844.7 8086.19 1844.7H7903.29ZM7965.29 1790.76H8082.47C8118.43 1790.76 8149.43 1783.94 8175.47 1770.3C8201.92 1756.66 8222.38 1737.64 8236.85 1713.26C8251.31 1688.46 8258.55 1659.94 8258.55 1627.7C8258.55 1595.04 8251.31 1566.52 8236.85 1542.14C8222.38 1517.75 8201.92 1498.74 8175.47 1485.1C8149.43 1471.46 8118.43 1464.64 8082.47 1464.64H7965.29V1790.76ZM8415.51 1844.7V1410.7H8477.51V1844.7H8415.51ZM8607.45 1844.7V1410.7H8658.29L8945.35 1767.2H8918.69V1410.7H8980.69V1844.7H8929.85L8642.79 1488.2H8669.45V1844.7H8607.45ZM9306.51 1849.66C9273.03 1849.66 9242.24 1844.28 9214.13 1833.54C9186.03 1822.38 9161.64 1806.88 9140.97 1787.04C9120.31 1766.78 9104.19 1743.22 9092.61 1716.36C9081.04 1689.49 9075.25 1659.94 9075.25 1627.7C9075.25 1595.46 9081.04 1565.9 9092.61 1539.04C9104.19 1512.17 9120.31 1488.82 9140.97 1468.98C9162.05 1448.72 9186.65 1433.22 9214.75 1422.48C9242.86 1411.32 9273.86 1405.74 9307.75 1405.74C9342.06 1405.74 9373.47 1411.32 9401.99 1422.48C9430.51 1433.64 9454.69 1450.38 9474.53 1472.7L9436.09 1511.14C9418.32 1493.78 9398.89 1481.17 9377.81 1473.32C9357.15 1465.05 9334.62 1460.92 9310.23 1460.92C9285.43 1460.92 9262.29 1465.05 9240.79 1473.32C9219.71 1481.58 9201.32 1493.16 9185.61 1508.04C9170.32 1522.92 9158.33 1540.69 9149.65 1561.36C9141.39 1581.61 9137.25 1603.72 9137.25 1627.7C9137.25 1651.26 9141.39 1673.37 9149.65 1694.04C9158.33 1714.29 9170.32 1732.06 9185.61 1747.36C9201.32 1762.24 9219.71 1773.81 9240.79 1782.08C9261.87 1790.34 9284.81 1794.48 9309.61 1794.48C9332.76 1794.48 9354.87 1790.96 9375.95 1783.94C9397.45 1776.5 9417.29 1764.3 9435.47 1747.36L9470.81 1794.48C9449.32 1812.66 9424.11 1826.51 9395.17 1836.02C9366.65 1845.11 9337.1 1849.66 9306.51 1849.66ZM9470.81 1794.48L9411.29 1786.42V1625.22H9470.81V1794.48ZM9882.5 1849.66C9849.44 1849.66 9817.82 1844.7 9787.64 1834.78C9757.47 1824.44 9733.7 1811.22 9716.34 1795.1L9739.28 1746.74C9755.82 1761.2 9776.9 1773.19 9802.52 1782.7C9828.15 1792.2 9854.81 1796.96 9882.5 1796.96C9907.72 1796.96 9928.18 1794.06 9943.88 1788.28C9959.59 1782.49 9971.16 1774.64 9978.6 1764.72C9986.04 1754.38 9989.76 1742.81 9989.76 1730C9989.76 1715.12 9984.8 1703.13 9974.88 1694.04C9965.38 1684.94 9952.77 1677.71 9937.06 1672.34C9921.77 1666.55 9904.82 1661.59 9886.22 1657.46C9867.62 1653.32 9848.82 1648.57 9829.8 1643.2C9811.2 1637.41 9794.05 1630.18 9778.34 1621.5C9763.05 1612.82 9750.65 1601.24 9741.14 1586.78C9731.64 1571.9 9726.88 1552.88 9726.88 1529.74C9726.88 1507.42 9732.67 1486.96 9744.24 1468.36C9756.23 1449.34 9774.42 1434.26 9798.8 1423.1C9823.6 1411.52 9855.02 1405.74 9893.04 1405.74C9918.26 1405.74 9943.26 1409.04 9968.06 1415.66C9992.86 1422.27 10014.4 1431.78 10032.5 1444.18L10012.1 1493.78C9993.48 1481.38 9973.85 1472.49 9953.18 1467.12C9932.52 1461.33 9912.47 1458.44 9893.04 1458.44C9868.66 1458.44 9848.61 1461.54 9832.9 1467.74C9817.2 1473.94 9805.62 1482.2 9798.18 1492.54C9791.16 1502.87 9787.64 1514.44 9787.64 1527.26C9787.64 1542.55 9792.4 1554.74 9801.9 1563.84C9811.82 1572.93 9824.43 1580.16 9839.72 1585.54C9855.43 1590.91 9872.58 1595.87 9891.18 1600.42C9909.78 1604.55 9928.38 1609.3 9946.98 1614.68C9966 1620.05 9983.15 1627.08 9998.44 1635.76C10014.1 1644.44 10026.8 1656.01 10036.3 1670.48C10045.8 1684.94 10050.5 1703.54 10050.5 1726.28C10050.5 1748.18 10044.5 1768.64 10032.5 1787.66C10020.6 1806.26 10002 1821.34 9976.74 1832.92C9951.94 1844.08 9920.53 1849.66 9882.5 1849.66ZM10236.8 1844.7V1678.54L10251.1 1716.98L10064.4 1410.7H10130.8L10287.6 1669.24H10251.7L10409.2 1410.7H10470.5L10284.5 1716.98L10298.2 1678.54V1844.7H10236.8ZM10650.8 1849.66C10617.8 1849.66 10586.2 1844.7 10556 1834.78C10525.8 1824.44 10502 1811.22 10484.7 1795.1L10507.6 1746.74C10524.2 1761.2 10545.2 1773.19 10570.9 1782.7C10596.5 1792.2 10623.1 1796.96 10650.8 1796.96C10676.1 1796.96 10696.5 1794.06 10712.2 1788.28C10727.9 1782.49 10739.5 1774.64 10746.9 1764.72C10754.4 1754.38 10758.1 1742.81 10758.1 1730C10758.1 1715.12 10753.1 1703.13 10743.2 1694.04C10733.7 1684.94 10721.1 1677.71 10705.4 1672.34C10690.1 1666.55 10673.2 1661.59 10654.6 1657.46C10636 1653.32 10617.2 1648.57 10598.1 1643.2C10579.5 1637.41 10562.4 1630.18 10546.7 1621.5C10531.4 1612.82 10519 1601.24 10509.5 1586.78C10500 1571.9 10495.2 1552.88 10495.2 1529.74C10495.2 1507.42 10501 1486.96 10512.6 1468.36C10524.6 1449.34 10542.8 1434.26 10567.1 1423.1C10591.9 1411.52 10623.4 1405.74 10661.4 1405.74C10686.6 1405.74 10711.6 1409.04 10736.4 1415.66C10761.2 1422.27 10782.7 1431.78 10800.9 1444.18L10780.4 1493.78C10761.8 1481.38 10742.2 1472.49 10721.5 1467.12C10700.9 1461.33 10680.8 1458.44 10661.4 1458.44C10637 1458.44 10616.9 1461.54 10601.2 1467.74C10585.5 1473.94 10574 1482.2 10566.5 1492.54C10559.5 1502.87 10556 1514.44 10556 1527.26C10556 1542.55 10560.7 1554.74 10570.2 1563.84C10580.2 1572.93 10592.8 1580.16 10608.1 1585.54C10623.8 1590.91 10640.9 1595.87 10659.5 1600.42C10678.1 1604.55 10696.7 1609.3 10715.3 1614.68C10734.3 1620.05 10751.5 1627.08 10766.8 1635.76C10782.5 1644.44 10795.1 1656.01 10804.6 1670.48C10814.1 1684.94 10818.9 1703.54 10818.9 1726.28C10818.9 1748.18 10812.9 1768.64 10800.9 1787.66C10788.9 1806.26 10770.3 1821.34 10745.1 1832.92C10720.3 1844.08 10688.9 1849.66 10650.8 1849.66ZM10989.6 1844.7V1464.64H10840.8V1410.7H11199.7V1464.64H11050.9V1844.7H10989.6ZM11267.3 1844.7V1410.7H11573.6V1464.64H11329.3V1790.76H11582.2V1844.7H11267.3ZM11323.7 1650.64V1597.94H11546.9V1650.64H11323.7ZM11682.6 1844.7V1410.7H11733.5L11928.1 1738.68H11900.9L12093.1 1410.7H12143.9L12144.5 1844.7H12085L12084.4 1504.32H12098.6L11927.5 1792H11899L11726.6 1504.32H11742.1V1844.7H11682.6ZM12401.3 1849.66C12368.2 1849.66 12336.6 1844.7 12306.4 1834.78C12276.2 1824.44 12252.5 1811.22 12235.1 1795.1L12258 1746.74C12274.6 1761.2 12295.6 1773.19 12321.3 1782.7C12346.9 1792.2 12373.6 1796.96 12401.3 1796.96C12426.5 1796.96 12446.9 1794.06 12462.6 1788.28C12478.3 1782.49 12489.9 1774.64 12497.4 1764.72C12504.8 1754.38 12508.5 1742.81 12508.5 1730C12508.5 1715.12 12503.6 1703.13 12493.6 1694.04C12484.1 1684.94 12471.5 1677.71 12455.8 1672.34C12440.5 1666.55 12423.6 1661.59 12405 1657.46C12386.4 1653.32 12367.6 1648.57 12348.6 1643.2C12330 1637.41 12312.8 1630.18 12297.1 1621.5C12281.8 1612.82 12269.4 1601.24 12259.9 1586.78C12250.4 1571.9 12245.6 1552.88 12245.6 1529.74C12245.6 1507.42 12251.4 1486.96 12263 1468.36C12275 1449.34 12293.2 1434.26 12317.6 1423.1C12342.4 1411.52 12373.8 1405.74 12411.8 1405.74C12437 1405.74 12462 1409.04 12486.8 1415.66C12511.6 1422.27 12533.1 1431.78 12551.3 1444.18L12530.8 1493.78C12512.2 1481.38 12492.6 1472.49 12471.9 1467.12C12451.3 1461.33 12431.2 1458.44 12411.8 1458.44C12387.4 1458.44 12367.4 1461.54 12351.7 1467.74C12335.9 1473.94 12324.4 1482.2 12316.9 1492.54C12309.9 1502.87 12306.4 1514.44 12306.4 1527.26C12306.4 1542.55 12311.1 1554.74 12320.7 1563.84C12330.6 1572.93 12343.2 1580.16 12358.5 1585.54C12374.2 1590.91 12391.3 1595.87 12409.9 1600.42C12428.5 1604.55 12447.1 1609.3 12465.7 1614.68C12484.7 1620.05 12501.9 1627.08 12517.2 1635.76C12532.9 1644.44 12545.5 1656.01 12555 1670.48C12564.5 1684.94 12569.3 1703.54 12569.3 1726.28C12569.3 1748.18 12563.3 1768.64 12551.3 1787.66C12539.3 1806.26 12520.7 1821.34 12495.5 1832.92C12470.7 1844.08 12439.3 1849.66 12401.3 1849.66Z" fill="#666666"/>
<line x1="5623.72" y1="2395.5" x2="5617.07" y2="0.111071" stroke="#1DD45A" stroke-width="80"/>
<path d="M4750.07 2015.65C4626.87 2015.65 4531.67 1984.15 4464.47 1921.15C4397.27 1856.75 4363.67 1762.25 4363.67 1637.65V631.746H4626.17V1631.35C4626.17 1684.55 4639.47 1725.85 4666.07 1755.25C4694.07 1784.65 4732.57 1799.35 4781.57 1799.35C4840.37 1799.35 4889.37 1783.95 4928.57 1753.15L5002.07 1940.05C4971.27 1965.25 4933.47 1984.15 4888.67 1996.75C4843.87 2009.35 4797.67 2015.65 4750.07 2015.65ZM4178.87 1089.55V879.546H4926.47V1089.55H4178.87Z" fill="black"/>
<path fill-rule="evenodd" clip-rule="evenodd" d="M3783.94 879.546V2000.95H4046.44V879.546H3783.94Z" fill="black"/>
<path d="M3916.24 694.746C3867.24 694.746 3826.64 679.346 3794.44 648.546C3763.64 617.746 3748.24 580.646 3748.24 537.246C3748.24 492.446 3763.64 455.346 3794.44 425.946C3826.64 395.146 3867.24 379.746 3916.24 379.746C3965.24 379.746 4005.14 394.446 4035.94 423.846C4068.14 451.846 4084.24 487.546 4084.24 530.946C4084.24 577.146 4068.84 616.346 4038.04 648.546C4007.24 679.346 3966.64 694.746 3916.24 694.746Z" fill="#1DD45A"/>
<path d="M2636.86 2000.95V1835.05L3327.76 999.246L3376.06 1089.55H2649.46V879.546H3586.06V1045.45L2895.16 1881.25L2842.66 1790.95H3604.96V2000.95H2636.86Z" fill="black"/>
<path fill-rule="evenodd" clip-rule="evenodd" d="M2185.23 879.546V2000.95H2447.73V879.546H2185.23Z" fill="black"/>
<path d="M2317.53 694.746C2268.53 694.746 2227.93 679.346 2195.73 648.546C2164.93 617.746 2149.53 580.646 2149.53 537.246C2149.53 492.446 2164.93 455.346 2195.73 425.946C2227.93 395.146 2268.53 379.746 2317.53 379.746C2366.53 379.746 2406.43 394.446 2437.23 423.846C2469.43 451.846 2485.53 487.546 2485.53 530.946C2485.53 577.146 2470.13 616.346 2439.33 648.546C2408.53 679.346 2367.93 694.746 2317.53 694.746Z" fill="#1DD45A"/>
<path d="M1376.65 2000.95V879.545H1626.55V1188.25L1597.15 1097.95C1630.75 1022.35 1683.25 964.945 1754.65 925.745C1827.45 886.545 1917.75 866.945 2025.55 866.945V1116.85C2014.35 1114.05 2003.85 1112.65 1994.05 1112.65C1984.25 1111.25 1974.45 1110.55 1964.65 1110.55C1865.25 1110.55 1786.15 1139.95 1727.35 1198.75C1668.55 1256.15 1639.15 1342.25 1639.15 1457.05V2000.95H1376.65Z" fill="black"/>
<path d="M621.6 2015.65C526.4 2015.65 441.7 1994.65 367.5 1952.65C293.3 1910.65 234.5 1847.65 191.1 1763.65C149.1 1678.25 128.1 1570.45 128.1 1440.25C128.1 1308.65 149.8 1200.85 193.2 1116.85C238 1032.85 297.5 970.546 371.7 929.946C447.3 887.946 530.6 866.946 621.6 866.946C732.2 866.946 829.5 890.746 913.5 938.346C998.9 985.946 1066.1 1052.45 1115.1 1137.85C1165.5 1223.25 1190.7 1324.05 1190.7 1440.25C1190.7 1556.45 1165.5 1657.25 1115.1 1742.65C1066.1 1828.05 998.9 1895.25 913.5 1944.25C829.5 1991.85 732.2 2015.65 621.6 2015.65ZM0 2000.95V442.746H262.5V1139.95L241.5 1438.15L249.9 1736.35V2000.95H0ZM592.2 1790.95C655.2 1790.95 711.2 1776.95 760.2 1748.95C810.6 1720.95 850.5 1680.35 879.9 1627.15C909.3 1573.95 924 1511.65 924 1440.25C924 1367.45 909.3 1305.15 879.9 1253.35C850.5 1200.15 810.6 1159.55 760.2 1131.55C711.2 1103.55 655.2 1089.55 592.2 1089.55C529.2 1089.55 472.5 1103.55 422.1 1131.55C371.7 1159.55 331.8 1200.15 302.4 1253.35C273 1305.15 258.3 1367.45 258.3 1440.25C258.3 1511.65 273 1573.95 302.4 1627.15C331.8 1680.35 371.7 1720.95 422.1 1748.95C472.5 1776.95 529.2 1790.95 592.2 1790.95Z" fill="black"/>
</svg>
