<svg width="807" height="154" viewBox="0 0 807 154" fill="none" xmlns="http://www.w3.org/2000/svg">
<path d="M404.339 63.2529L416.918 35.4769H420.846L433.464 63.2529H429.298L418.069 37.699H419.656L408.426 63.2529H404.339ZM409.696 56.3089L410.767 53.1345H426.401L427.552 56.3089H409.696ZM437.608 63.2529V35.4769H448.44C452.038 35.4769 454.869 36.3367 456.932 38.0561C458.995 39.7491 460.027 42.1167 460.027 45.1588C460.027 47.1693 459.564 48.902 458.638 50.3569C457.712 51.7854 456.39 52.8832 454.67 53.6504C452.951 54.4175 450.874 54.8011 448.44 54.8011H439.79L441.576 52.9758V63.2529H437.608ZM456.178 63.2529L449.115 53.1742H453.361L460.503 63.2529H456.178ZM441.576 53.3726L439.79 51.4283H448.321C450.861 51.4283 452.779 50.886 454.075 49.8014C455.398 48.6904 456.059 47.1428 456.059 45.1588C456.059 43.1748 455.398 41.6406 454.075 40.556C452.779 39.4714 450.861 38.9291 448.321 38.9291H439.79L441.576 36.9451V53.3726ZM478.858 63.5704C476.741 63.5704 474.784 63.2265 472.985 62.5387C471.213 61.8244 469.665 60.8324 468.342 59.5627C467.046 58.2665 466.028 56.7586 465.287 55.0392C464.546 53.3197 464.176 51.4283 464.176 49.3649C464.176 47.3016 464.546 45.4102 465.287 43.6907C466.028 41.9712 467.059 40.4766 468.382 39.2068C469.705 37.9106 471.252 36.9186 473.025 36.2308C474.824 35.5166 476.781 35.1595 478.897 35.1595C481.04 35.1595 483.011 35.5298 484.81 36.2705C486.635 36.9848 488.182 38.0561 489.452 39.4846L486.873 41.9844C485.815 40.8734 484.624 40.0534 483.302 39.5243C481.979 38.9688 480.564 38.691 479.056 38.691C477.495 38.691 476.04 38.9555 474.691 39.4846C473.369 40.0137 472.218 40.7544 471.239 41.7067C470.26 42.659 469.493 43.7965 468.938 45.1192C468.409 46.4154 468.144 47.8306 468.144 49.3649C468.144 50.8992 468.409 52.3277 468.938 53.6504C469.493 54.9466 470.26 56.0708 471.239 57.0232C472.218 57.9755 473.369 58.7162 474.691 59.2452C476.04 59.7743 477.495 60.0388 479.056 60.0388C480.564 60.0388 481.979 59.7743 483.302 59.2452C484.624 58.6897 485.815 57.8432 486.873 56.7057L489.452 59.2056C488.182 60.634 486.635 61.7186 484.81 62.4593C483.011 63.2 481.027 63.5704 478.858 63.5704ZM514.645 63.2529V35.4769H518.613V63.2529H514.645ZM494.725 63.2529V35.4769H498.693V63.2529H494.725ZM498.297 50.8728V47.4206H515.002V50.8728H498.297ZM526.927 63.2529V35.4769H530.895V63.2529H526.927ZM544.726 63.2529V38.9291H535.203V35.4769H558.177V38.9291H548.654V63.2529H544.726ZM562.499 63.2529V35.4769H582.101V38.9291H566.467V59.8008H582.656V63.2529H562.499ZM566.11 50.8331V47.4603H580.395V50.8331H566.11ZM601.463 63.5704C599.346 63.5704 597.389 63.2265 595.59 62.5387C593.818 61.8244 592.27 60.8324 590.947 59.5627C589.651 58.2665 588.633 56.7586 587.892 55.0392C587.151 53.3197 586.781 51.4283 586.781 49.3649C586.781 47.3016 587.151 45.4102 587.892 43.6907C588.633 41.9712 589.664 40.4766 590.987 39.2068C592.31 37.9106 593.857 36.9186 595.63 36.2308C597.429 35.5166 599.386 35.1595 601.502 35.1595C603.645 35.1595 605.616 35.5298 607.415 36.2705C609.24 36.9848 610.787 38.0561 612.057 39.4846L609.478 41.9844C608.42 40.8734 607.229 40.0534 605.907 39.5243C604.584 38.9688 603.169 38.691 601.661 38.691C600.1 38.691 598.645 38.9555 597.296 39.4846C595.974 40.0137 594.823 40.7544 593.844 41.7067C592.865 42.659 592.098 43.7965 591.543 45.1192C591.014 46.4154 590.749 47.8306 590.749 49.3649C590.749 50.8992 591.014 52.3277 591.543 53.6504C592.098 54.9466 592.865 56.0708 593.844 57.0232C594.823 57.9755 595.974 58.7162 597.296 59.2452C598.645 59.7743 600.1 60.0388 601.661 60.0388C603.169 60.0388 604.584 59.7743 605.907 59.2452C607.229 58.6897 608.42 57.8432 609.478 56.7057L612.057 59.2056C610.787 60.634 609.24 61.7186 607.415 62.4593C605.616 63.2 603.632 63.5704 601.463 63.5704ZM622.187 63.2529V38.9291H612.664V35.4769H635.639V38.9291H626.115V63.2529H622.187ZM650.964 63.5704C647.313 63.5704 644.443 62.5255 642.353 60.4356C640.263 58.3458 639.218 55.2905 639.218 51.2696V35.4769H643.186V51.1108C643.186 54.2059 643.861 56.4676 645.21 57.8961C646.586 59.3246 648.517 60.0388 651.003 60.0388C653.517 60.0388 655.448 59.3246 656.797 57.8961C658.172 56.4676 658.86 54.2059 658.86 51.1108V35.4769H662.709V51.2696C662.709 55.2905 661.664 58.3458 659.574 60.4356C657.511 62.5255 654.641 63.5704 650.964 63.5704ZM670.844 63.2529V35.4769H681.677C685.274 35.4769 688.105 36.3367 690.168 38.0561C692.232 39.7491 693.263 42.1167 693.263 45.1588C693.263 47.1693 692.8 48.902 691.874 50.3569C690.949 51.7854 689.626 52.8832 687.906 53.6504C686.187 54.4175 684.11 54.8011 681.677 54.8011H673.026L674.812 52.9758V63.2529H670.844ZM689.414 63.2529L682.351 53.1742H686.597L693.739 63.2529H689.414ZM674.812 53.3726L673.026 51.4283H681.558C684.097 51.4283 686.015 50.886 687.311 49.8014C688.634 48.6904 689.295 47.1428 689.295 45.1588C689.295 43.1748 688.634 41.6406 687.311 40.556C686.015 39.4714 684.097 38.9291 681.558 38.9291H673.026L674.812 36.9451V53.3726ZM695.468 63.2529L708.047 35.4769H711.975L724.593 63.2529H720.427L709.197 37.699H710.784L699.555 63.2529H695.468ZM700.825 56.3089L701.896 53.1345H717.53L718.681 56.3089H700.825ZM728.737 63.2529V35.4769H732.705V59.8008H747.743V63.2529H728.737ZM408.545 118.253V90.4769H421.005C424.206 90.4769 426.666 91.125 428.385 92.4212C430.105 93.691 430.965 95.4369 430.965 97.659C430.965 99.1668 430.621 100.437 429.933 101.468C429.271 102.5 428.372 103.294 427.235 103.849C426.097 104.405 424.867 104.682 423.544 104.682L424.259 103.492C425.846 103.492 427.248 103.77 428.465 104.325C429.682 104.881 430.647 105.701 431.361 106.785C432.076 107.844 432.433 109.166 432.433 110.753C432.433 113.134 431.533 114.986 429.734 116.309C427.962 117.605 425.317 118.253 421.798 118.253H408.545ZM412.513 115.039H421.64C423.835 115.039 425.515 114.669 426.679 113.928C427.843 113.187 428.425 112.023 428.425 110.436C428.425 108.822 427.843 107.645 426.679 106.904C425.515 106.164 423.835 105.793 421.64 105.793H412.156V102.579H420.648C422.658 102.579 424.219 102.209 425.33 101.468C426.441 100.728 426.997 99.6166 426.997 98.1352C426.997 96.6538 426.441 95.5427 425.33 94.802C424.219 94.0614 422.658 93.691 420.648 93.691H412.513V115.039ZM450.084 118.57C446.433 118.57 443.563 117.525 441.473 115.436C439.383 113.346 438.338 110.29 438.338 106.27V90.4769H442.306V106.111C442.306 109.206 442.981 111.468 444.33 112.896C445.706 114.325 447.637 115.039 450.123 115.039C452.637 115.039 454.568 114.325 455.917 112.896C457.292 111.468 457.98 109.206 457.98 106.111V90.4769H461.829V106.27C461.829 110.29 460.784 113.346 458.694 115.436C456.631 117.525 453.761 118.57 450.084 118.57ZM469.964 118.253V90.4769H473.932V118.253H469.964ZM482.248 118.253V90.4769H486.216V114.801H501.255V118.253H482.248ZM505.808 118.253V90.4769H517.513C520.476 90.4769 523.082 91.0589 525.33 92.2228C527.605 93.3868 529.364 95.0137 530.608 97.1035C531.878 99.1933 532.512 101.614 532.512 104.365C532.512 107.116 531.878 109.537 530.608 111.626C529.364 113.716 527.605 115.343 525.33 116.507C523.082 117.671 520.476 118.253 517.513 118.253H505.808ZM509.776 114.801H517.275C519.577 114.801 521.561 114.364 523.227 113.491C524.92 112.618 526.23 111.402 527.156 109.841C528.082 108.254 528.544 106.428 528.544 104.365C528.544 102.275 528.082 100.45 527.156 98.8891C526.23 97.3283 524.92 96.1115 523.227 95.2385C521.561 94.3656 519.577 93.9291 517.275 93.9291H509.776V114.801ZM538.59 118.253V90.4769H542.558V118.253H538.59ZM550.874 118.253V90.4769H554.128L572.5 113.293H570.793V90.4769H574.761V118.253H571.508L553.136 95.4369H554.842V118.253H550.874ZM595.614 118.57C593.471 118.57 591.501 118.226 589.702 117.539C587.903 116.824 586.342 115.832 585.02 114.563C583.697 113.266 582.665 111.759 581.925 110.039C581.184 108.32 580.814 106.428 580.814 104.365C580.814 102.302 581.184 100.41 581.925 98.6907C582.665 96.9712 583.697 95.4766 585.02 94.2068C586.369 92.9106 587.943 91.9186 589.742 91.2308C591.54 90.5166 593.524 90.1595 595.694 90.1595C597.889 90.1595 599.9 90.5166 601.725 91.2308C603.55 91.9451 605.098 93.0164 606.367 94.4449L603.907 96.9051C602.77 95.794 601.527 94.9872 600.177 94.4846C598.855 93.9555 597.413 93.691 595.852 93.691C594.265 93.691 592.784 93.9555 591.408 94.4846C590.059 95.0137 588.882 95.7544 587.877 96.7067C586.898 97.659 586.131 98.7965 585.575 100.119C585.046 101.415 584.782 102.831 584.782 104.365C584.782 105.873 585.046 107.288 585.575 108.611C586.131 109.907 586.898 111.044 587.877 112.023C588.882 112.975 590.059 113.716 591.408 114.245C592.757 114.774 594.225 115.039 595.813 115.039C597.294 115.039 598.709 114.814 600.058 114.364C601.434 113.888 602.704 113.108 603.868 112.023L606.129 115.039C604.754 116.203 603.14 117.089 601.288 117.697C599.463 118.279 597.572 118.57 595.614 118.57ZM606.129 115.039L602.32 114.523V104.206H606.129V115.039ZM632.478 118.57C630.361 118.57 628.338 118.253 626.406 117.618C624.475 116.957 622.954 116.11 621.843 115.079L623.311 111.983C624.37 112.909 625.719 113.677 627.359 114.285C628.999 114.893 630.705 115.198 632.478 115.198C634.091 115.198 635.401 115.012 636.406 114.642C637.411 114.272 638.152 113.769 638.628 113.134C639.104 112.473 639.342 111.732 639.342 110.912C639.342 109.96 639.025 109.193 638.39 108.611C637.781 108.029 636.975 107.566 635.969 107.222C634.991 106.852 633.906 106.534 632.716 106.27C631.525 106.005 630.322 105.701 629.105 105.357C627.914 104.987 626.817 104.524 625.811 103.968C624.833 103.413 624.039 102.672 623.43 101.746C622.822 100.794 622.518 99.5769 622.518 98.0955C622.518 96.667 622.888 95.3576 623.629 94.1672C624.396 92.9503 625.56 91.9848 627.121 91.2705C628.708 90.5298 630.718 90.1595 633.152 90.1595C634.766 90.1595 636.366 90.3711 637.953 90.7944C639.541 91.2176 640.916 91.826 642.08 92.6196L640.771 95.794C639.58 95.0004 638.324 94.4317 637.001 94.0878C635.678 93.7175 634.395 93.5323 633.152 93.5323C631.591 93.5323 630.308 93.7307 629.303 94.1275C628.298 94.5243 627.557 95.0534 627.081 95.7147C626.631 96.376 626.406 97.1167 626.406 97.9368C626.406 98.9155 626.711 99.6959 627.319 100.278C627.954 100.86 628.761 101.323 629.74 101.667C630.745 102.011 631.843 102.328 633.033 102.619C634.223 102.884 635.414 103.188 636.604 103.532C637.821 103.876 638.919 104.325 639.898 104.881C640.903 105.436 641.71 106.177 642.318 107.103C642.927 108.029 643.231 109.219 643.231 110.674C643.231 112.076 642.847 113.386 642.08 114.602C641.313 115.793 640.123 116.758 638.509 117.499C636.922 118.213 634.911 118.57 632.478 118.57ZM655.152 118.253V107.619L656.065 110.079L644.121 90.4769H648.367L658.406 107.023H656.105L666.184 90.4769H670.112L658.208 110.079L659.081 107.619V118.253H655.152ZM681.651 118.57C679.535 118.57 677.511 118.253 675.58 117.618C673.649 116.957 672.128 116.11 671.017 115.079L672.485 111.983C673.543 112.909 674.892 113.677 676.533 114.285C678.173 114.893 679.879 115.198 681.651 115.198C683.265 115.198 684.574 115.012 685.58 114.642C686.585 114.272 687.326 113.769 687.802 113.134C688.278 112.473 688.516 111.732 688.516 110.912C688.516 109.96 688.198 109.193 687.564 108.611C686.955 108.029 686.148 107.566 685.143 107.222C684.164 106.852 683.08 106.534 681.889 106.27C680.699 106.005 679.495 105.701 678.278 105.357C677.088 104.987 675.99 104.524 674.985 103.968C674.006 103.413 673.213 102.672 672.604 101.746C671.996 100.794 671.692 99.5769 671.692 98.0955C671.692 96.667 672.062 95.3576 672.803 94.1672C673.57 92.9503 674.734 91.9848 676.294 91.2705C677.882 90.5298 679.892 90.1595 682.326 90.1595C683.94 90.1595 685.54 90.3711 687.127 90.7944C688.714 91.2176 690.09 91.826 691.254 92.6196L689.944 95.794C688.754 95.0004 687.497 94.4317 686.175 94.0878C684.852 93.7175 683.569 93.5323 682.326 93.5323C680.765 93.5323 679.482 93.7307 678.477 94.1275C677.472 94.5243 676.731 95.0534 676.255 95.7147C675.805 96.376 675.58 97.1167 675.58 97.9368C675.58 98.9155 675.884 99.6959 676.493 100.278C677.128 100.86 677.935 101.323 678.913 101.667C679.919 102.011 681.016 102.328 682.207 102.619C683.397 102.884 684.588 103.188 685.778 103.532C686.995 103.876 688.093 104.325 689.071 104.881C690.077 105.436 690.884 106.177 691.492 107.103C692.1 108.029 692.405 109.219 692.405 110.674C692.405 112.076 692.021 113.386 691.254 114.602C690.487 115.793 689.296 116.758 687.683 117.499C686.095 118.213 684.085 118.57 681.651 118.57ZM703.33 118.253V93.9291H693.806V90.4769H716.781V93.9291H707.258V118.253H703.33ZM721.103 118.253V90.4769H740.705V93.9291H725.071V114.801H741.26V118.253H721.103ZM724.714 105.833V102.46H738.998V105.833H724.714ZM747.685 118.253V90.4769H750.939L763.399 111.468H761.653L773.953 90.4769H777.207L777.247 118.253H773.438L773.398 96.4686H774.311L763.359 114.88H761.534L750.503 96.4686H751.495V118.253H747.685ZM793.678 118.57C791.561 118.57 789.538 118.253 787.606 117.618C785.675 116.957 784.154 116.11 783.043 115.079L784.511 111.983C785.57 112.909 786.919 113.677 788.559 114.285C790.199 114.893 791.905 115.198 793.678 115.198C795.291 115.198 796.601 115.012 797.606 114.642C798.611 114.272 799.352 113.769 799.828 113.134C800.304 112.473 800.542 111.732 800.542 110.912C800.542 109.96 800.225 109.193 799.59 108.611C798.981 108.029 798.175 107.566 797.169 107.222C796.191 106.852 795.106 106.534 793.916 106.27C792.725 106.005 791.522 105.701 790.305 105.357C789.114 104.987 788.017 104.524 787.011 103.968C786.033 103.413 785.239 102.672 784.63 101.746C784.022 100.794 783.718 99.5769 783.718 98.0955C783.718 96.667 784.088 95.3576 784.829 94.1672C785.596 92.9503 786.76 91.9848 788.321 91.2705C789.908 90.5298 791.918 90.1595 794.352 90.1595C795.966 90.1595 797.566 90.3711 799.153 90.7944C800.741 91.2176 802.116 91.826 803.28 92.6196L801.971 95.794C800.78 95.0004 799.524 94.4317 798.201 94.0878C796.878 93.7175 795.595 93.5323 794.352 93.5323C792.791 93.5323 791.508 93.7307 790.503 94.1275C789.498 94.5243 788.757 95.0534 788.281 95.7147C787.831 96.376 787.606 97.1167 787.606 97.9368C787.606 98.9155 787.911 99.6959 788.519 100.278C789.154 100.86 789.961 101.323 790.94 101.667C791.945 102.011 793.043 102.328 794.233 102.619C795.423 102.884 796.614 103.188 797.804 103.532C799.021 103.876 800.119 104.325 801.098 104.881C802.103 105.436 802.91 106.177 803.518 107.103C804.127 108.029 804.431 109.219 804.431 110.674C804.431 112.076 804.047 113.386 803.28 114.602C802.513 115.793 801.323 116.758 799.709 117.499C798.122 118.213 796.111 118.57 793.678 118.57Z" fill="#666666"/>
<line x1="359.917" y1="153.312" x2="359.491" y2="0.00680201" stroke="#1DD45A" stroke-width="5.12"/>
<path d="M304.002 129.001C296.117 129.001 290.025 126.985 285.724 122.953C281.423 118.832 279.272 112.784 279.272 104.809V40.4316H296.072V104.406C296.072 107.811 296.924 110.454 298.626 112.336C300.418 114.217 302.882 115.158 306.018 115.158C309.781 115.158 312.917 114.172 315.426 112.201L320.13 124.163C318.159 125.776 315.74 126.985 312.872 127.792C310.005 128.598 307.048 129.001 304.002 129.001ZM267.445 69.7308V56.2908H315.292V69.7308H267.445Z" fill="black"/>
<path fill-rule="evenodd" clip-rule="evenodd" d="M242.172 56.2919V128.061H258.972V56.2919H242.172Z" fill="black"/>
<path d="M250.639 44.4647C247.503 44.4647 244.904 43.4791 242.844 41.5079C240.872 39.5367 239.887 37.1623 239.887 34.3847C239.887 31.5175 240.872 29.1431 242.844 27.2615C244.904 25.2903 247.503 24.3047 250.639 24.3047C253.775 24.3047 256.328 25.2455 258.3 27.1271C260.36 28.9191 261.391 31.2039 261.391 33.9815C261.391 36.9383 260.405 39.4471 258.434 41.5079C256.463 43.4791 253.864 44.4647 250.639 44.4647Z" fill="#1DD45A"/>
<path d="M168.758 128.061V117.443L212.975 63.9518L216.067 69.731H169.564V56.291H229.507V66.9086L185.289 120.4L181.929 114.621H230.716V128.061H168.758Z" fill="black"/>
<path fill-rule="evenodd" clip-rule="evenodd" d="M139.851 56.2919V128.061H156.651V56.2919H139.851Z" fill="black"/>
<path d="M148.318 44.4647C145.182 44.4647 142.584 43.4791 140.523 41.5079C138.552 39.5367 137.566 37.1623 137.566 34.3847C137.566 31.5175 138.552 29.1431 140.523 27.2615C142.584 25.2903 145.182 24.3047 148.318 24.3047C151.454 24.3047 154.008 25.2455 155.979 27.1271C158.04 28.9191 159.07 31.2039 159.07 33.9815C159.07 36.9383 158.085 39.4471 156.114 41.5079C154.142 43.4791 151.544 44.4647 148.318 44.4647Z" fill="#1DD45A"/>
<path d="M88.1055 128.06V56.2908H104.099V76.0476L102.217 70.2684C104.368 65.43 107.728 61.7564 112.297 59.2476C116.957 56.7388 122.736 55.4844 129.635 55.4844V71.478C128.918 71.2988 128.246 71.2092 127.619 71.2092C126.992 71.1196 126.365 71.0748 125.737 71.0748C119.376 71.0748 114.313 72.9564 110.55 76.7196C106.787 80.3932 104.905 85.9036 104.905 93.2508V128.06H88.1055Z" fill="black"/>
<path d="M39.7824 129.002C33.6896 129.002 28.2688 127.658 23.52 124.97C18.7712 122.282 15.008 118.25 12.2304 112.874C9.5424 107.408 8.1984 100.509 8.1984 92.1759C8.1984 83.7535 9.5872 76.8543 12.3648 71.4783C15.232 66.1023 19.04 62.1151 23.7888 59.5167C28.6272 56.8287 33.9584 55.4847 39.7824 55.4847C46.8608 55.4847 53.088 57.0079 58.464 60.0543C63.9296 63.1007 68.2304 67.3567 71.3664 72.8223C74.592 78.2879 76.2048 84.7391 76.2048 92.1759C76.2048 99.6127 74.592 106.064 71.3664 111.53C68.2304 116.995 63.9296 121.296 58.464 124.432C53.088 127.478 46.8608 129.002 39.7824 129.002ZM0 128.061V28.3359H16.8V72.9567L15.456 92.0415L15.9936 111.126V128.061H0ZM37.9008 114.621C41.9328 114.621 45.5168 113.725 48.6528 111.933C51.8784 110.141 54.432 107.542 56.3136 104.138C58.1952 100.733 59.136 96.7455 59.136 92.1759C59.136 87.5167 58.1952 83.5295 56.3136 80.2143C54.432 76.8095 51.8784 74.2111 48.6528 72.4191C45.5168 70.6271 41.9328 69.7311 37.9008 69.7311C33.8688 69.7311 30.24 70.6271 27.0144 72.4191C23.7888 74.2111 21.2352 76.8095 19.3536 80.2143C17.472 83.5295 16.5312 87.5167 16.5312 92.1759C16.5312 96.7455 17.472 100.733 19.3536 104.138C21.2352 107.542 23.7888 110.141 27.0144 111.933C30.24 113.725 33.8688 114.621 37.9008 114.621Z" fill="black"/>
</svg>
