<svg width="52" height="10" viewBox="0 0 52 10" fill="none" xmlns="http://www.w3.org/2000/svg">
<path d="M25.271 4.39062L26.0571 2.65462H26.3026L27.0913 4.39062H26.8309L26.129 2.7935H26.2282L25.5264 4.39062H25.271ZM25.6058 3.95662L25.6727 3.75822H26.6498L26.7218 3.95662H25.6058ZM27.3502 4.39062V2.65462H28.0273C28.2521 2.65462 28.429 2.70836 28.558 2.81582C28.687 2.92164 28.7514 3.06961 28.7514 3.25974C28.7514 3.3854 28.7225 3.49369 28.6646 3.58462C28.6068 3.6739 28.5241 3.74252 28.4166 3.79046C28.3092 3.83841 28.1794 3.86238 28.0273 3.86238H27.4866L27.5982 3.7483V4.39062H27.3502ZM28.5109 4.39062L28.0694 3.7607H28.3348L28.7812 4.39062H28.5109ZM27.5982 3.7731L27.4866 3.65158H28.0198C28.1786 3.65158 28.2984 3.61769 28.3794 3.5499C28.4621 3.48046 28.5034 3.38374 28.5034 3.25974C28.5034 3.13574 28.4621 3.03985 28.3794 2.97206C28.2984 2.90428 28.1786 2.87038 28.0198 2.87038H27.4866L27.5982 2.74638V3.7731ZM29.9284 4.41047C29.7961 4.41047 29.6737 4.38897 29.5613 4.34598C29.4505 4.30134 29.3538 4.23934 29.2712 4.15998C29.1901 4.07897 29.1265 3.98473 29.0802 3.87726C29.0339 3.7698 29.0108 3.65158 29.0108 3.52262C29.0108 3.39366 29.0339 3.27545 29.0802 3.16798C29.1265 3.06052 29.191 2.9671 29.2736 2.88774C29.3563 2.80673 29.453 2.74473 29.5638 2.70174C29.6762 2.6571 29.7986 2.63478 29.9308 2.63478C30.0648 2.63478 30.1879 2.65793 30.3004 2.70422C30.4144 2.74886 30.5112 2.81582 30.5905 2.9051L30.4293 3.06134C30.3632 2.9919 30.2888 2.94065 30.2061 2.90758C30.1235 2.87286 30.035 2.8555 29.9408 2.8555C29.8432 2.8555 29.7523 2.87204 29.668 2.9051C29.5853 2.93817 29.5134 2.98446 29.4522 3.04398C29.391 3.1035 29.3431 3.1746 29.3084 3.25726C29.2753 3.33828 29.2588 3.42673 29.2588 3.52262C29.2588 3.61852 29.2753 3.7078 29.3084 3.79046C29.3431 3.87148 29.391 3.94174 29.4522 4.00126C29.5134 4.06078 29.5853 4.10708 29.668 4.14014C29.7523 4.17321 29.8432 4.18974 29.9408 4.18974C30.035 4.18974 30.1235 4.17321 30.2061 4.14014C30.2888 4.10542 30.3632 4.05252 30.4293 3.98142L30.5905 4.13766C30.5112 4.22694 30.4144 4.29473 30.3004 4.34102C30.1879 4.38732 30.0639 4.41047 29.9284 4.41047ZM32.165 4.39062V2.65462H32.413V4.39062H32.165ZM30.9201 4.39062V2.65462H31.1681V4.39062H30.9201ZM31.1433 3.61686V3.4011H32.1874V3.61686H31.1433ZM32.9327 4.39062V2.65462H33.1807V4.39062H32.9327ZM34.0451 4.39062V2.87038H33.4499V2.65462H34.8858V2.87038H34.2906V4.39062H34.0451ZM35.1559 4.39062V2.65462H36.3811V2.87038H35.4039V4.17486H36.4158V4.39062H35.1559ZM35.3816 3.61438V3.40358H36.2744V3.61438H35.3816ZM37.5912 4.41047C37.4589 4.41047 37.3366 4.38897 37.2241 4.34598C37.1134 4.30134 37.0166 4.23934 36.934 4.15998C36.853 4.07897 36.7893 3.98473 36.743 3.87726C36.6967 3.7698 36.6736 3.65158 36.6736 3.52262C36.6736 3.39366 36.6967 3.27545 36.743 3.16798C36.7893 3.06052 36.8538 2.9671 36.9365 2.88774C37.0191 2.80673 37.1158 2.74473 37.2266 2.70174C37.339 2.6571 37.4614 2.63478 37.5937 2.63478C37.7276 2.63478 37.8507 2.65793 37.9632 2.70422C38.0773 2.74886 38.174 2.81582 38.2533 2.9051L38.0921 3.06134C38.026 2.9919 37.9516 2.94065 37.8689 2.90758C37.7863 2.87286 37.6978 2.8555 37.6036 2.8555C37.506 2.8555 37.4151 2.87204 37.3308 2.9051C37.2481 2.93817 37.1762 2.98446 37.115 3.04398C37.0538 3.1035 37.0059 3.1746 36.9712 3.25726C36.9381 3.33828 36.9216 3.42673 36.9216 3.52262C36.9216 3.61852 36.9381 3.7078 36.9712 3.79046C37.0059 3.87148 37.0538 3.94174 37.115 4.00126C37.1762 4.06078 37.2481 4.10708 37.3308 4.14014C37.4151 4.17321 37.506 4.18974 37.6036 4.18974C37.6978 4.18974 37.7863 4.17321 37.8689 4.14014C37.9516 4.10542 38.026 4.05252 38.0921 3.98142L38.2533 4.13766C38.174 4.22694 38.0773 4.29473 37.9632 4.34102C37.8507 4.38732 37.7267 4.41047 37.5912 4.41047ZM38.8864 4.39062V2.87038H38.2912V2.65462H39.7272V2.87038H39.132V4.39062H38.8864ZM40.685 4.41047C40.4568 4.41047 40.2774 4.34516 40.1468 4.21454C40.0162 4.08393 39.9509 3.89297 39.9509 3.64166V2.65462H40.1989V3.63174C40.1989 3.82518 40.2411 3.96654 40.3254 4.05582C40.4114 4.1451 40.5321 4.18974 40.6875 4.18974C40.8445 4.18974 40.9652 4.1451 41.0496 4.05582C41.1355 3.96654 41.1785 3.82518 41.1785 3.63174V2.65462H41.4191V3.64166C41.4191 3.89297 41.3538 4.08393 41.2232 4.21454C41.0942 4.34516 40.9148 4.41047 40.685 4.41047ZM41.9275 4.39062V2.65462H42.6046C42.8294 2.65462 43.0063 2.70836 43.1353 2.81582C43.2642 2.92164 43.3287 3.06961 43.3287 3.25974C43.3287 3.3854 43.2998 3.49369 43.2419 3.58462C43.184 3.6739 43.1014 3.74252 42.9939 3.79046C42.8864 3.83841 42.7567 3.86238 42.6046 3.86238H42.0639L42.1755 3.7483V4.39062H41.9275ZM43.0882 4.39062L42.6467 3.7607H42.9121L43.3585 4.39062H43.0882ZM42.1755 3.7731L42.0639 3.65158H42.5971C42.7558 3.65158 42.8757 3.61769 42.9567 3.5499C43.0394 3.48046 43.0807 3.38374 43.0807 3.25974C43.0807 3.13574 43.0394 3.03985 42.9567 2.97206C42.8757 2.90428 42.7558 2.87038 42.5971 2.87038H42.0639L42.1755 2.74638V3.7731ZM43.4665 4.39062L44.2527 2.65462H44.4982L45.2868 4.39062H45.0264L44.3246 2.7935H44.4238L43.7219 4.39062H43.4665ZM43.8013 3.95662L43.8683 3.75822H44.8454L44.9173 3.95662H43.8013ZM45.5458 4.39062V2.65462H45.7938V4.17486H46.7337V4.39062H45.5458ZM25.5338 7.39062V5.65462H26.3126C26.5126 5.65462 26.6664 5.69513 26.7738 5.77614C26.8813 5.8555 26.935 5.96462 26.935 6.1035C26.935 6.19774 26.9135 6.2771 26.8706 6.34158C26.8292 6.40606 26.773 6.45566 26.7019 6.49038C26.6308 6.5251 26.5539 6.54246 26.4713 6.54246L26.5159 6.46806C26.6151 6.46806 26.7027 6.48542 26.7788 6.52014C26.8549 6.55486 26.9152 6.60612 26.9598 6.6739C27.0045 6.74004 27.0268 6.8227 27.0268 6.9219C27.0268 7.0707 26.9706 7.18644 26.8582 7.2691C26.7474 7.35012 26.5821 7.39062 26.3622 7.39062H25.5338ZM25.7818 7.18974H26.3522C26.4895 7.18974 26.5945 7.1666 26.6672 7.1203C26.7399 7.07401 26.7763 7.00126 26.7763 6.90206C26.7763 6.80121 26.7399 6.72764 26.6672 6.68134C26.5945 6.63505 26.4895 6.6119 26.3522 6.6119H25.7595V6.41102H26.2902C26.4159 6.41102 26.5134 6.38788 26.5829 6.34158C26.6523 6.29529 26.687 6.22585 26.687 6.13326C26.687 6.04068 26.6523 5.97124 26.5829 5.92494C26.5134 5.87865 26.4159 5.8555 26.2902 5.8555H25.7818V7.18974ZM28.13 7.41047C27.9018 7.41047 27.7224 7.34516 27.5918 7.21454C27.4612 7.08393 27.3959 6.89297 27.3959 6.64166V5.65462H27.6439V6.63174C27.6439 6.82518 27.6861 6.96654 27.7704 7.05582C27.8564 7.1451 27.9771 7.18974 28.1325 7.18974C28.2895 7.18974 28.4102 7.1451 28.4946 7.05582C28.5805 6.96654 28.6235 6.82518 28.6235 6.63174V5.65462H28.8641V6.64166C28.8641 6.89297 28.7988 7.08393 28.6682 7.21454C28.5392 7.34516 28.3598 7.41047 28.13 7.41047ZM29.3725 7.39062V5.65462H29.6205V7.39062H29.3725ZM30.1402 7.39062V5.65462H30.3882V7.17486H31.3282V7.39062H30.1402ZM31.6127 7.39062V5.65462H32.3443C32.5295 5.65462 32.6924 5.691 32.8329 5.76374C32.9751 5.83649 33.085 5.93817 33.1627 6.06878C33.2421 6.1994 33.2818 6.35068 33.2818 6.52262C33.2818 6.69457 33.2421 6.84585 33.1627 6.97646C33.085 7.10708 32.9751 7.20876 32.8329 7.2815C32.6924 7.35425 32.5295 7.39062 32.3443 7.39062H31.6127ZM31.8607 7.17486H32.3295C32.4733 7.17486 32.5973 7.14758 32.7015 7.09302C32.8073 7.03846 32.8891 6.96241 32.947 6.86486C33.0049 6.76566 33.0338 6.65158 33.0338 6.52262C33.0338 6.39201 33.0049 6.27793 32.947 6.18038C32.8891 6.08284 32.8073 6.00678 32.7015 5.95222C32.5973 5.89766 32.4733 5.87038 32.3295 5.87038H31.8607V7.17486ZM33.6616 7.39062V5.65462H33.9096V7.39062H33.6616ZM34.4294 7.39062V5.65462H34.6327L35.781 7.08062H35.6743V5.65462H35.9223V7.39062H35.719L34.5707 5.96462H34.6774V7.39062H34.4294ZM37.2256 7.41047C37.0917 7.41047 36.9685 7.38897 36.8561 7.34598C36.7437 7.30134 36.6461 7.23934 36.5635 7.15998C36.4808 7.07897 36.4163 6.98473 36.37 6.87726C36.3237 6.7698 36.3006 6.65158 36.3006 6.52262C36.3006 6.39366 36.3237 6.27545 36.37 6.16798C36.4163 6.06052 36.4808 5.9671 36.5635 5.88774C36.6478 5.80673 36.7462 5.74473 36.8586 5.70174C36.971 5.6571 37.095 5.63478 37.2306 5.63478C37.3678 5.63478 37.4935 5.6571 37.6076 5.70174C37.7216 5.74638 37.8184 5.81334 37.8977 5.90262L37.744 6.05638C37.6729 5.98694 37.5952 5.93652 37.5108 5.9051C37.4282 5.87204 37.3381 5.8555 37.2405 5.8555C37.1413 5.8555 37.0487 5.87204 36.9628 5.9051C36.8784 5.93817 36.8049 5.98446 36.742 6.04398C36.6809 6.1035 36.6329 6.1746 36.5982 6.25726C36.5651 6.33828 36.5486 6.42673 36.5486 6.52262C36.5486 6.61686 36.5651 6.70532 36.5982 6.78798C36.6329 6.869 36.6809 6.94009 36.742 7.00126C36.8049 7.06078 36.8784 7.10708 36.9628 7.14014C37.0471 7.17321 37.1388 7.18974 37.238 7.18974C37.3306 7.18974 37.4191 7.17569 37.5034 7.14758C37.5894 7.11782 37.6687 7.06905 37.7415 7.00126L37.8828 7.18974C37.7969 7.26249 37.696 7.31788 37.5803 7.3559C37.4662 7.39228 37.348 7.41047 37.2256 7.41047ZM37.8828 7.18974L37.6448 7.1575V6.5127H37.8828V7.18974ZM39.5296 7.41047C39.3973 7.41047 39.2709 7.39062 39.1502 7.35094C39.0295 7.30961 38.9344 7.2567 38.865 7.19222L38.9567 6.99878C39.0229 7.05665 39.1072 7.1046 39.2097 7.14262C39.3122 7.18065 39.4188 7.19966 39.5296 7.19966C39.6305 7.19966 39.7123 7.18809 39.7751 7.16494C39.8379 7.1418 39.8842 7.11038 39.914 7.0707C39.9438 7.02937 39.9586 6.98308 39.9586 6.93182C39.9586 6.8723 39.9388 6.82436 39.8991 6.78798C39.8611 6.75161 39.8107 6.72268 39.7478 6.70118C39.6867 6.67804 39.6189 6.6582 39.5445 6.64166C39.4701 6.62513 39.3949 6.60612 39.3188 6.58462C39.2444 6.56148 39.1758 6.53254 39.113 6.49782C39.0518 6.4631 39.0022 6.41681 38.9642 6.35894C38.9261 6.29942 38.9071 6.22337 38.9071 6.13078C38.9071 6.0415 38.9303 5.95966 38.9766 5.88526C39.0245 5.80921 39.0973 5.74886 39.1948 5.70422C39.294 5.65793 39.4197 5.63478 39.5718 5.63478C39.6726 5.63478 39.7726 5.64801 39.8718 5.67446C39.971 5.70092 40.057 5.73894 40.1298 5.78854L40.0479 5.98694C39.9735 5.93734 39.895 5.9018 39.8123 5.8803C39.7297 5.85716 39.6495 5.84558 39.5718 5.84558C39.4742 5.84558 39.394 5.85798 39.3312 5.88278C39.2684 5.90758 39.2221 5.94065 39.1923 5.98198C39.1642 6.02332 39.1502 6.06961 39.1502 6.12086C39.1502 6.18204 39.1692 6.23081 39.2072 6.26718C39.2469 6.30356 39.2973 6.33249 39.3585 6.35398C39.4213 6.37548 39.4899 6.39532 39.5643 6.4135C39.6387 6.43004 39.7131 6.44905 39.7875 6.47054C39.8636 6.49204 39.9322 6.52014 39.9934 6.55486C40.0562 6.58958 40.1066 6.63588 40.1446 6.69374C40.1827 6.75161 40.2017 6.82601 40.2017 6.91694C40.2017 7.00457 40.1777 7.08641 40.1298 7.16246C40.0818 7.23686 40.0074 7.29721 39.9066 7.3435C39.8074 7.38814 39.6817 7.41047 39.5296 7.41047ZM40.9468 7.39062V6.72598L41.0038 6.87974L40.2573 5.65462H40.5227L41.1501 6.68878H41.0063L41.6362 5.65462H41.8817L41.1377 6.87974L41.1923 6.72598V7.39062H40.9468ZM42.603 7.41047C42.4707 7.41047 42.3442 7.39062 42.2235 7.35094C42.1028 7.30961 42.0078 7.2567 41.9383 7.19222L42.0301 6.99878C42.0962 7.05665 42.1805 7.1046 42.283 7.14262C42.3855 7.18065 42.4922 7.19966 42.603 7.19966C42.7038 7.19966 42.7857 7.18809 42.8485 7.16494C42.9113 7.1418 42.9576 7.11038 42.9874 7.0707C43.0171 7.02937 43.032 6.98308 43.032 6.93182C43.032 6.8723 43.0122 6.82436 42.9725 6.78798C42.9345 6.75161 42.884 6.72268 42.8212 6.70118C42.76 6.67804 42.6922 6.6582 42.6178 6.64166C42.5434 6.62513 42.4682 6.60612 42.3922 6.58462C42.3178 6.56148 42.2491 6.53254 42.1863 6.49782C42.1251 6.4631 42.0755 6.41681 42.0375 6.35894C41.9995 6.29942 41.9805 6.22337 41.9805 6.13078C41.9805 6.0415 42.0036 5.95966 42.0499 5.88526C42.0979 5.80921 42.1706 5.74886 42.2682 5.70422C42.3674 5.65793 42.493 5.63478 42.6451 5.63478C42.746 5.63478 42.846 5.64801 42.9452 5.67446C43.0444 5.70092 43.1304 5.73894 43.2031 5.78854L43.1213 5.98694C43.0469 5.93734 42.9683 5.9018 42.8857 5.8803C42.803 5.85716 42.7228 5.84558 42.6451 5.84558C42.5476 5.84558 42.4674 5.85798 42.4046 5.88278C42.3417 5.90758 42.2954 5.94065 42.2657 5.98198C42.2376 6.02332 42.2235 6.06961 42.2235 6.12086C42.2235 6.18204 42.2425 6.23081 42.2806 6.26718C42.3202 6.30356 42.3707 6.33249 42.4318 6.35398C42.4947 6.37548 42.5633 6.39532 42.6377 6.4135C42.7121 6.43004 42.7865 6.44905 42.8609 6.47054C42.9369 6.49204 43.0055 6.52014 43.0667 6.55486C43.1295 6.58958 43.18 6.63588 43.218 6.69374C43.256 6.75161 43.275 6.82601 43.275 6.91694C43.275 7.00457 43.2511 7.08641 43.2031 7.16246C43.1552 7.23686 43.0808 7.29721 42.9799 7.3435C42.8807 7.38814 42.7551 7.41047 42.603 7.41047ZM43.9579 7.39062V5.87038H43.3627V5.65462H44.7986V5.87038H44.2034V7.39062H43.9579ZM45.0687 7.39062V5.65462H46.2938V5.87038H45.3167V7.17486H46.3285V7.39062H45.0687ZM45.2944 6.61438V6.40358H46.1872V6.61438H45.2944ZM46.7301 7.39062V5.65462H46.9334L47.7122 6.96654H47.603L48.3718 5.65462H48.5752L48.5777 7.39062H48.3396L48.3371 6.0291H48.3942L47.7097 7.17982H47.5956L46.9062 6.0291H46.9682V7.39062H46.7301ZM49.6046 7.41047C49.4723 7.41047 49.3459 7.39062 49.2252 7.35094C49.1045 7.30961 49.0094 7.2567 48.94 7.19222L49.0317 6.99878C49.0979 7.05665 49.1822 7.1046 49.2847 7.14262C49.3872 7.18065 49.4938 7.19966 49.6046 7.19966C49.7055 7.19966 49.7873 7.18809 49.8501 7.16494C49.9129 7.1418 49.9592 7.11038 49.989 7.0707C50.0188 7.02937 50.0336 6.98308 50.0336 6.93182C50.0336 6.8723 50.0138 6.82436 49.9741 6.78798C49.9361 6.75161 49.8857 6.72268 49.8228 6.70118C49.7617 6.67804 49.6939 6.6582 49.6195 6.64166C49.5451 6.62513 49.4699 6.60612 49.3938 6.58462C49.3194 6.56148 49.2508 6.53254 49.188 6.49782C49.1268 6.4631 49.0772 6.41681 49.0392 6.35894C49.0011 6.29942 48.9821 6.22337 48.9821 6.13078C48.9821 6.0415 49.0053 5.95966 49.0516 5.88526C49.0995 5.80921 49.1723 5.74886 49.2698 5.70422C49.369 5.65793 49.4947 5.63478 49.6468 5.63478C49.7476 5.63478 49.8476 5.64801 49.9468 5.67446C50.046 5.70092 50.132 5.73894 50.2048 5.78854L50.1229 5.98694C50.0485 5.93734 49.97 5.9018 49.8873 5.8803C49.8047 5.85716 49.7245 5.84558 49.6468 5.84558C49.5492 5.84558 49.469 5.85798 49.4062 5.88278C49.3434 5.90758 49.2971 5.94065 49.2673 5.98198C49.2392 6.02332 49.2252 6.06961 49.2252 6.12086C49.2252 6.18204 49.2442 6.23081 49.2822 6.26718C49.3219 6.30356 49.3723 6.33249 49.4335 6.35398C49.4963 6.37548 49.5649 6.39532 49.6393 6.4135C49.7137 6.43004 49.7881 6.44905 49.8625 6.47054C49.9386 6.49204 50.0072 6.52014 50.0684 6.55486C50.1312 6.58958 50.1816 6.63588 50.2196 6.69374C50.2577 6.75161 50.2767 6.82601 50.2767 6.91694C50.2767 7.00457 50.2527 7.08641 50.2048 7.16246C50.1568 7.23686 50.0824 7.29721 49.9816 7.3435C49.8824 7.38814 49.7567 7.41047 49.6046 7.41047Z" fill="#666666"/>
<line x1="22.4963" y1="9.58248" x2="22.4696" y2="0.000913407" stroke="#1DD45A" stroke-width="0.32"/>
<path d="M18.9996 8.06294C18.5068 8.06294 18.126 7.93694 17.8572 7.68494C17.5884 7.42734 17.454 7.04934 17.454 6.55094V2.52734H18.504V6.52574C18.504 6.73854 18.5572 6.90374 18.6636 7.02134C18.7756 7.13894 18.9296 7.19774 19.1256 7.19774C19.3608 7.19774 19.5568 7.13614 19.7136 7.01294L20.0076 7.76054C19.8844 7.86134 19.7332 7.93694 19.554 7.98734C19.3748 8.03774 19.19 8.06294 18.9996 8.06294ZM16.7148 4.35854V3.51854H19.7052V4.35854H16.7148Z" fill="black"/>
<path fill-rule="evenodd" clip-rule="evenodd" d="M15.135 3.51873V8.00433H16.185V3.51873H15.135Z" fill="black"/>
<path d="M15.6642 2.77953C15.4682 2.77953 15.3058 2.71793 15.177 2.59473C15.0538 2.47153 14.9922 2.32313 14.9922 2.14953C14.9922 1.97033 15.0538 1.82193 15.177 1.70433C15.3058 1.58113 15.4682 1.51953 15.6642 1.51953C15.8602 1.51953 16.0198 1.57833 16.143 1.69593C16.2718 1.80793 16.3362 1.95073 16.3362 2.12433C16.3362 2.30913 16.2746 2.46593 16.1514 2.59473C16.0282 2.71793 15.8658 2.77953 15.6642 2.77953Z" fill="#1DD45A"/>
<path d="M10.5469 8.00415V7.34055L13.3105 3.99735L13.5037 4.35855H10.5973V3.51855H14.3437V4.18215L11.5801 7.52535L11.3701 7.16415H14.4193V8.00415H10.5469Z" fill="black"/>
<path fill-rule="evenodd" clip-rule="evenodd" d="M8.74046 3.51873V8.00433H9.79046V3.51873H8.74046Z" fill="black"/>
<path d="M9.26966 2.77953C9.07366 2.77953 8.91126 2.71793 8.78246 2.59473C8.65926 2.47153 8.59766 2.32313 8.59766 2.14953C8.59766 1.97033 8.65926 1.82193 8.78246 1.70433C8.91126 1.58113 9.07366 1.51953 9.26966 1.51953C9.46566 1.51953 9.62526 1.57833 9.74846 1.69593C9.87726 1.80793 9.94166 1.95073 9.94166 2.12433C9.94166 2.30913 9.88006 2.46593 9.75686 2.59473C9.63366 2.71793 9.47126 2.77953 9.26966 2.77953Z" fill="#1DD45A"/>
<path d="M5.50781 8.00377V3.51817H6.50741V4.75297L6.38981 4.39177C6.52421 4.08937 6.73421 3.85977 7.01981 3.70297C7.31101 3.54617 7.67221 3.46777 8.10341 3.46777V4.46737C8.05861 4.45617 8.01661 4.45057 7.97741 4.45057C7.93821 4.44497 7.89901 4.44217 7.85981 4.44217C7.46221 4.44217 7.14581 4.55977 6.91061 4.79497C6.67541 5.02457 6.55781 5.36897 6.55781 5.82817V8.00377H5.50781Z" fill="black"/>
<path d="M2.4864 8.06308C2.1056 8.06308 1.7668 7.97908 1.47 7.81108C1.1732 7.64308 0.938 7.39108 0.7644 7.05508C0.5964 6.71348 0.5124 6.28228 0.5124 5.76148C0.5124 5.23508 0.5992 4.80388 0.7728 4.46788C0.952 4.13188 1.19 3.88268 1.4868 3.72028C1.7892 3.55228 2.1224 3.46828 2.4864 3.46828C2.9288 3.46828 3.318 3.56348 3.654 3.75388C3.9956 3.94428 4.2644 4.21028 4.4604 4.55188C4.662 4.89348 4.7628 5.29668 4.7628 5.76148C4.7628 6.22628 4.662 6.62948 4.4604 6.97108C4.2644 7.31268 3.9956 7.58149 3.654 7.77749C3.318 7.96789 2.9288 8.06308 2.4864 8.06308ZM0 8.00428V1.77148H1.05V4.56028L0.966 5.75308L0.9996 6.94589V8.00428H0ZM2.3688 7.16428C2.6208 7.16428 2.8448 7.10828 3.0408 6.99628C3.2424 6.88428 3.402 6.72188 3.5196 6.50908C3.6372 6.29628 3.696 6.04708 3.696 5.76148C3.696 5.47028 3.6372 5.22108 3.5196 5.01388C3.402 4.80108 3.2424 4.63868 3.0408 4.52668C2.8448 4.41468 2.6208 4.35868 2.3688 4.35868C2.1168 4.35868 1.89 4.41468 1.6884 4.52668C1.4868 4.63868 1.3272 4.80108 1.2096 5.01388C1.092 5.22108 1.0332 5.47028 1.0332 5.76148C1.0332 6.04708 1.092 6.29628 1.2096 6.50908C1.3272 6.72188 1.4868 6.88428 1.6884 6.99628C1.89 7.10828 2.1168 7.16428 2.3688 7.16428Z" fill="black"/>
</svg>
