<svg width="6450" height="1227" viewBox="0 0 6450 1227" fill="none" xmlns="http://www.w3.org/2000/svg">
<path d="M3234.73 509.021L3335.36 286.812H3366.79L3467.73 509.021H3434.4L3344.57 304.589H3357.27L3267.43 509.021H3234.73ZM3277.59 453.469L3286.16 428.073H3411.23L3420.44 453.469H3277.59ZM3500.88 509.021V286.812H3587.54C3616.32 286.812 3638.97 293.69 3655.48 307.446C3671.98 320.99 3680.24 339.931 3680.24 364.268C3680.24 380.351 3676.53 394.213 3669.13 405.853C3661.72 417.28 3651.14 426.063 3637.38 432.2C3623.63 438.337 3607.01 441.406 3587.54 441.406H3518.34L3532.63 426.804V509.021H3500.88ZM3649.44 509.021L3592.94 428.391H3626.91L3684.04 509.021H3649.44ZM3532.63 429.978L3518.34 414.423H3586.59C3606.91 414.423 3622.25 410.085 3632.62 401.408C3643.2 392.52 3648.49 380.14 3648.49 364.268C3648.49 348.396 3643.2 336.122 3632.62 327.445C3622.25 318.768 3606.91 314.43 3586.59 314.43H3518.34L3532.63 298.558V429.978ZM3830.88 511.56C3813.95 511.56 3798.29 508.809 3783.9 503.307C3769.72 497.593 3757.34 489.657 3746.76 479.499C3736.39 469.129 3728.24 457.066 3722.32 443.31C3716.39 429.555 3713.43 414.423 3713.43 397.916C3713.43 381.41 3716.39 366.278 3722.32 352.523C3728.24 338.767 3736.5 326.81 3747.08 316.652C3757.66 306.282 3770.04 298.346 3784.22 292.844C3798.61 287.13 3814.27 284.273 3831.2 284.273C3848.34 284.273 3864.11 287.236 3878.5 293.161C3893.1 298.875 3905.48 307.446 3915.64 318.874L3895 338.873C3886.54 329.984 3877.02 323.424 3866.43 319.191C3855.85 314.747 3844.53 312.525 3832.47 312.525C3819.98 312.525 3808.34 314.641 3797.55 318.874C3786.97 323.106 3777.76 329.032 3769.93 336.651C3762.1 344.269 3755.96 353.369 3751.52 363.95C3747.29 374.32 3745.17 385.642 3745.17 397.916C3745.17 410.191 3747.29 421.619 3751.52 432.2C3755.96 442.57 3762.1 451.564 3769.93 459.182C3777.76 466.801 3786.97 472.727 3797.55 476.959C3808.34 481.192 3819.98 483.308 3832.47 483.308C3844.53 483.308 3855.85 481.192 3866.43 476.959C3877.02 472.515 3886.54 465.743 3895 456.643L3915.64 476.642C3905.48 488.069 3893.1 496.746 3878.5 502.672C3864.11 508.597 3848.23 511.56 3830.88 511.56ZM4117.18 509.021V286.812H4148.92V509.021H4117.18ZM3957.82 509.021V286.812H3989.57V509.021H3957.82ZM3986.39 409.979V382.362H4120.03V409.979H3986.39ZM4215.43 509.021V286.812H4247.18V509.021H4215.43ZM4357.83 509.021V314.43H4281.64V286.812H4465.44V314.43H4389.25V509.021H4357.83ZM4500.01 509.021V286.812H4656.83V314.43H4531.76V481.403H4661.27V509.021H4500.01ZM4528.9 409.662V382.679H4643.18V409.662H4528.9ZM4811.72 511.56C4794.79 511.56 4779.13 508.809 4764.74 503.307C4750.56 497.593 4738.18 489.657 4727.6 479.499C4717.23 469.129 4709.08 457.066 4703.16 443.31C4697.23 429.555 4694.27 414.423 4694.27 397.916C4694.27 381.41 4697.23 366.278 4703.16 352.523C4709.08 338.767 4717.34 326.81 4727.92 316.652C4738.5 306.282 4750.88 298.346 4765.06 292.844C4779.45 287.13 4795.11 284.273 4812.04 284.273C4829.18 284.273 4844.95 287.236 4859.34 293.161C4873.94 298.875 4886.32 307.446 4896.48 318.874L4875.84 338.873C4867.38 329.984 4857.86 323.424 4847.27 319.191C4836.69 314.747 4825.37 312.525 4813.31 312.525C4800.82 312.525 4789.18 314.641 4778.39 318.874C4767.81 323.106 4758.6 329.032 4750.77 336.651C4742.94 344.269 4736.8 353.369 4732.36 363.95C4728.13 374.32 4726.01 385.642 4726.01 397.916C4726.01 410.191 4728.13 421.619 4732.36 432.2C4736.8 442.57 4742.94 451.564 4750.77 459.182C4758.6 466.801 4767.81 472.727 4778.39 476.959C4789.18 481.192 4800.82 483.308 4813.31 483.308C4825.37 483.308 4836.69 481.192 4847.27 476.959C4857.86 472.515 4867.38 465.743 4875.84 456.643L4896.48 476.642C4886.32 488.069 4873.94 496.746 4859.34 502.672C4844.95 508.597 4829.07 511.56 4811.72 511.56ZM4977.52 509.021V314.43H4901.33V286.812H5085.13V314.43H5008.94V509.021H4977.52ZM5207.73 511.56C5178.53 511.56 5155.56 503.201 5138.85 486.482C5122.13 469.764 5113.77 445.321 5113.77 413.154V286.812H5145.51V411.884C5145.51 436.644 5150.91 454.738 5161.7 466.166C5172.71 477.594 5188.15 483.308 5208.05 483.308C5228.15 483.308 5243.6 477.594 5254.39 466.166C5265.4 454.738 5270.9 436.644 5270.9 411.884V286.812H5301.69V413.154C5301.69 445.321 5293.33 469.764 5276.61 486.482C5260.11 503.201 5237.15 511.56 5207.73 511.56ZM5366.77 509.021V286.812H5453.43C5482.21 286.812 5504.86 293.69 5521.37 307.446C5537.87 320.99 5546.13 339.931 5546.13 364.268C5546.13 380.351 5542.42 394.213 5535.02 405.853C5527.61 417.28 5517.03 426.063 5503.27 432.2C5489.52 438.337 5472.9 441.406 5453.43 441.406H5384.23L5398.52 426.804V509.021H5366.77ZM5515.33 509.021L5458.83 428.391H5492.8L5549.94 509.021H5515.33ZM5398.52 429.978L5384.23 414.423H5452.48C5472.8 414.423 5488.14 410.085 5498.51 401.408C5509.09 392.52 5514.38 380.14 5514.38 364.268C5514.38 348.396 5509.09 336.122 5498.51 327.445C5488.14 318.768 5472.8 314.43 5452.48 314.43H5384.23L5398.52 298.558V429.978ZM5563.76 509.021L5664.39 286.812H5695.82L5796.76 509.021H5763.43L5673.6 304.589H5686.3L5596.46 509.021H5563.76ZM5606.62 453.469L5615.19 428.073H5740.26L5749.47 453.469H5606.62ZM5829.91 509.021V286.812H5861.66V481.403H5981.97V509.021H5829.91ZM3268.38 945.021V722.812H3368.06C3393.66 722.812 3413.35 727.997 3427.1 738.367C3440.86 748.525 3447.74 762.492 3447.74 780.269C3447.74 792.332 3444.98 802.49 3439.48 810.743C3434.19 818.997 3427 825.346 3417.9 829.79C3408.8 834.234 3398.96 836.456 3388.37 836.456L3394.09 826.933C3406.79 826.933 3418 829.155 3427.74 833.599C3437.47 838.043 3445.2 844.604 3450.91 853.28C3456.62 861.745 3459.48 872.327 3459.48 885.024C3459.48 904.071 3452.29 918.885 3437.89 929.466C3423.72 939.836 3402.55 945.021 3374.41 945.021H3268.38ZM3300.13 919.308H3373.14C3390.7 919.308 3404.14 916.345 3413.45 910.42C3422.76 904.494 3427.42 895.182 3427.42 882.485C3427.42 869.576 3422.76 860.158 3413.45 854.233C3404.14 848.307 3390.7 845.344 3373.14 845.344H3297.27V819.632H3365.2C3381.28 819.632 3393.77 816.669 3402.66 810.743C3411.55 804.818 3415.99 795.93 3415.99 784.078C3415.99 772.227 3411.55 763.339 3402.66 757.413C3393.77 751.488 3381.28 748.525 3365.2 748.525H3300.13V919.308ZM3600.69 947.56C3571.49 947.56 3548.52 939.201 3531.81 922.482C3515.09 905.764 3506.73 881.321 3506.73 849.154V722.812H3538.47V847.884C3538.47 872.644 3543.87 890.738 3554.66 902.166C3565.67 913.594 3581.11 919.308 3601.01 919.308C3621.11 919.308 3636.56 913.594 3647.35 902.166C3658.36 890.738 3663.86 872.644 3663.86 847.884V722.812H3694.65V849.154C3694.65 881.321 3686.29 905.764 3669.57 922.482C3653.07 939.201 3630.11 947.56 3600.69 947.56ZM3759.73 945.021V722.812H3791.48V945.021H3759.73ZM3858 945.021V722.812H3889.75V917.403H4010.06V945.021H3858ZM4046.48 945.021V722.812H4140.13C4163.83 722.812 4184.67 727.468 4202.66 736.78C4220.86 746.091 4234.94 759.106 4244.88 775.825C4255.04 792.543 4260.12 811.907 4260.12 833.916C4260.12 855.926 4255.04 875.29 4244.88 892.008C4234.94 908.727 4220.86 921.742 4202.66 931.053C4184.67 940.365 4163.83 945.021 4140.13 945.021H4046.48ZM4078.23 917.403H4138.22C4156.63 917.403 4172.51 913.911 4185.84 906.928C4199.38 899.944 4209.86 890.209 4217.26 877.723C4224.67 865.026 4228.38 850.423 4228.38 833.916C4228.38 817.198 4224.67 802.596 4217.26 790.11C4209.86 777.624 4199.38 767.889 4185.84 760.905C4172.51 753.922 4156.63 750.43 4138.22 750.43H4078.23V917.403ZM4308.74 945.021V722.812H4340.49V945.021H4308.74ZM4407.01 945.021V722.812H4433.04L4580.02 905.341H4566.37V722.812H4598.11V945.021H4572.08L4425.11 762.492H4438.76V945.021H4407.01ZM4764.93 947.56C4747.79 947.56 4732.03 944.809 4717.63 939.307C4703.24 933.593 4690.76 925.657 4680.18 915.499C4669.6 905.129 4661.34 893.066 4655.42 879.31C4649.49 865.555 4646.53 850.423 4646.53 833.916C4646.53 817.41 4649.49 802.278 4655.42 788.523C4661.34 774.767 4669.6 762.81 4680.18 752.652C4690.97 742.282 4703.56 734.346 4717.95 728.844C4732.34 723.13 4748.21 720.273 4765.57 720.273C4783.13 720.273 4799.22 723.13 4813.82 728.844C4828.42 734.558 4840.8 743.129 4850.96 754.556L4831.28 774.238C4822.18 765.349 4812.23 758.895 4801.44 754.874C4790.86 750.641 4779.32 748.525 4766.84 748.525C4754.14 748.525 4742.29 750.641 4731.28 754.874C4720.49 759.106 4711.07 765.032 4703.03 772.651C4695.2 780.269 4689.06 789.369 4684.62 799.95C4680.39 810.32 4678.27 821.642 4678.27 833.916C4678.27 845.979 4680.39 857.301 4684.62 867.883C4689.06 878.252 4695.2 887.352 4703.03 895.182C4711.07 902.801 4720.49 908.727 4731.28 912.959C4742.08 917.192 4753.82 919.308 4766.52 919.308C4778.37 919.308 4789.69 917.509 4800.49 913.911C4811.49 910.102 4821.65 903.859 4830.96 895.182L4849.05 919.308C4838.05 928.619 4825.14 935.709 4810.33 940.576C4795.72 945.232 4780.59 947.56 4764.93 947.56ZM4849.05 919.308L4818.58 915.181V832.647H4849.05V919.308ZM5059.84 947.56C5042.91 947.56 5026.72 945.021 5011.27 939.941C4995.82 934.651 4983.65 927.879 4974.77 919.625L4986.51 894.865C4994.98 902.272 5005.77 908.409 5018.89 913.277C5032.01 918.144 5045.66 920.578 5059.84 920.578C5072.75 920.578 5083.22 919.096 5091.27 916.133C5099.31 913.171 5105.23 909.15 5109.04 904.071C5112.85 898.78 5114.76 892.855 5114.76 886.294C5114.76 878.676 5112.22 872.538 5107.14 867.883C5102.27 863.227 5095.82 859.523 5087.77 856.772C5079.94 853.809 5071.27 851.27 5061.74 849.154C5052.22 847.037 5042.59 844.604 5032.86 841.853C5023.33 838.89 5014.55 835.186 5006.51 830.742C4998.68 826.298 4992.33 820.372 4987.46 812.965C4982.6 805.347 4980.16 795.612 4980.16 783.761C4980.16 772.333 4983.13 761.858 4989.05 752.334C4995.19 742.6 5004.5 734.875 5016.99 729.161C5029.68 723.236 5045.77 720.273 5065.24 720.273C5078.15 720.273 5090.95 721.966 5103.65 725.352C5116.34 728.738 5127.35 733.605 5136.66 739.954L5126.18 765.349C5116.66 759.001 5106.61 754.451 5096.03 751.7C5085.45 748.737 5075.18 747.255 5065.24 747.255C5052.75 747.255 5042.49 748.843 5034.44 752.017C5026.4 755.191 5020.48 759.424 5016.67 764.715C5013.07 770.005 5011.27 775.931 5011.27 782.491C5011.27 790.321 5013.71 796.564 5018.57 801.22C5023.65 805.876 5030.11 809.579 5037.94 812.331C5045.98 815.082 5054.76 817.621 5064.28 819.949C5073.81 822.065 5083.33 824.499 5092.85 827.25C5102.59 830.001 5111.37 833.599 5119.2 838.043C5127.24 842.487 5133.7 848.413 5138.56 855.82C5143.43 863.227 5145.87 872.75 5145.87 884.389C5145.87 895.606 5142.8 906.081 5136.66 915.816C5130.52 925.339 5121 933.064 5108.09 938.989C5095.39 944.703 5079.31 947.56 5059.84 947.56ZM5241.24 945.021V859.947L5248.54 879.628L5152.99 722.812H5186.96L5267.27 855.185H5248.86L5329.49 722.812H5360.91L5265.68 879.628L5272.67 859.947V945.021H5241.24ZM5453.23 947.56C5436.3 947.56 5420.11 945.021 5404.66 939.941C5389.21 934.651 5377.04 927.879 5368.16 919.625L5379.9 894.865C5388.37 902.272 5399.16 908.409 5412.28 913.277C5425.4 918.144 5439.05 920.578 5453.23 920.578C5466.14 920.578 5476.61 919.096 5484.66 916.133C5492.7 913.171 5498.62 909.15 5502.43 904.071C5506.24 898.78 5508.15 892.855 5508.15 886.294C5508.15 878.676 5505.61 872.538 5500.53 867.883C5495.66 863.227 5489.21 859.523 5481.16 856.772C5473.33 853.809 5464.66 851.27 5455.13 849.154C5445.61 847.037 5435.98 844.604 5426.25 841.853C5416.72 838.89 5407.94 835.186 5399.9 830.742C5392.07 826.298 5385.72 820.372 5380.85 812.965C5375.99 805.347 5373.55 795.612 5373.55 783.761C5373.55 772.333 5376.52 761.858 5382.44 752.334C5388.58 742.6 5397.89 734.875 5410.38 729.161C5423.07 723.236 5439.16 720.273 5458.63 720.273C5471.54 720.273 5484.34 721.966 5497.04 725.352C5509.73 728.738 5520.74 733.605 5530.05 739.954L5519.57 765.349C5510.05 759.001 5500 754.451 5489.42 751.7C5478.84 748.737 5468.57 747.255 5458.63 747.255C5446.14 747.255 5435.88 748.843 5427.83 752.017C5419.79 755.191 5413.87 759.424 5410.06 764.715C5406.46 770.005 5404.66 775.931 5404.66 782.491C5404.66 790.321 5407.1 796.564 5411.96 801.22C5417.04 805.876 5423.5 809.579 5431.33 812.331C5439.37 815.082 5448.15 817.621 5457.67 819.949C5467.2 822.065 5476.72 824.499 5486.24 827.25C5495.98 830.001 5504.76 833.599 5512.59 838.043C5520.63 842.487 5527.09 848.413 5531.95 855.82C5536.82 863.227 5539.26 872.75 5539.26 884.389C5539.26 895.606 5536.19 906.081 5530.05 915.816C5523.91 925.339 5514.39 933.064 5501.48 938.989C5488.78 944.703 5472.7 947.56 5453.23 947.56ZM5626.66 945.021V750.43H5550.47V722.812H5734.27V750.43H5658.08V945.021H5626.66ZM5768.84 945.021V722.812H5925.66V750.43H5800.59V917.403H5930.1V945.021H5768.84ZM5797.73 845.662V818.679H5912.01V845.662H5797.73ZM5981.5 945.021V722.812H6007.53L6107.21 890.738H6093.24L6191.65 722.812H6217.68L6217.99 945.021H6187.52L6187.2 770.746H6194.5L6106.89 918.038H6092.29L6004.04 770.746H6011.98V945.021H5981.5ZM6349.44 947.56C6332.51 947.56 6316.32 945.021 6300.87 939.941C6285.42 934.651 6273.25 927.879 6264.37 919.625L6276.11 894.865C6284.58 902.272 6295.37 908.409 6308.49 913.277C6321.61 918.144 6335.26 920.578 6349.44 920.578C6362.35 920.578 6372.82 919.096 6380.87 916.133C6388.91 913.171 6394.83 909.15 6398.64 904.071C6402.45 898.78 6404.36 892.855 6404.36 886.294C6404.36 878.676 6401.82 872.538 6396.74 867.883C6391.87 863.227 6385.42 859.523 6377.37 856.772C6369.54 853.809 6360.87 851.27 6351.34 849.154C6341.82 847.037 6332.19 844.604 6322.46 841.853C6312.93 838.89 6304.15 835.186 6296.11 830.742C6288.28 826.298 6281.93 820.372 6277.06 812.965C6272.2 805.347 6269.76 795.612 6269.76 783.761C6269.76 772.333 6272.73 761.858 6278.65 752.334C6284.79 742.6 6294.1 734.875 6306.59 729.161C6319.28 723.236 6335.37 720.273 6354.84 720.273C6367.75 720.273 6380.55 721.966 6393.25 725.352C6405.94 728.738 6416.95 733.605 6426.26 739.954L6415.78 765.349C6406.26 759.001 6396.21 754.451 6385.63 751.7C6375.05 748.737 6364.78 747.255 6354.84 747.255C6342.35 747.255 6332.09 748.843 6324.04 752.017C6316 755.191 6310.08 759.424 6306.27 764.715C6302.67 770.005 6300.87 775.931 6300.87 782.491C6300.87 790.321 6303.31 796.564 6308.17 801.22C6313.25 805.876 6319.71 809.579 6327.54 812.331C6335.58 815.082 6344.36 817.621 6353.88 819.949C6363.41 822.065 6372.93 824.499 6382.45 827.25C6392.19 830.001 6400.97 833.599 6408.8 838.043C6416.84 842.487 6423.3 848.413 6428.16 855.82C6433.03 863.227 6435.47 872.75 6435.47 884.389C6435.47 895.606 6432.4 906.081 6426.26 915.816C6420.12 925.339 6410.6 933.064 6397.69 938.989C6384.99 944.703 6368.91 947.56 6349.44 947.56Z" fill="#666666"/>
<line x1="2879.34" y1="1226.5" x2="2875.94" y2="0.0573458" stroke="#1DD45A" stroke-width="40.96"/>
<path d="M2432.03 1032.01C2368.95 1032.01 2320.21 1015.88 2285.81 983.627C2251.4 950.654 2234.2 902.27 2234.2 838.475V323.454H2368.6V835.249C2368.6 862.488 2375.41 883.633 2389.02 898.686C2403.36 913.739 2423.07 921.265 2448.16 921.265C2478.27 921.265 2503.35 913.38 2523.42 897.611L2561.06 993.304C2545.29 1006.21 2525.93 1015.88 2503 1022.33C2480.06 1028.79 2456.4 1032.01 2432.03 1032.01ZM2139.58 557.848V450.328H2522.35V557.848H2139.58Z" fill="black"/>
<path fill-rule="evenodd" clip-rule="evenodd" d="M1937.38 450.328V1024.49H2071.78V450.328H1937.38Z" fill="black"/>
<path d="M2005.11 355.711C1980.03 355.711 1959.24 347.826 1942.75 332.056C1926.98 316.287 1919.1 297.291 1919.1 275.071C1919.1 252.133 1926.98 233.138 1942.75 218.085C1959.24 202.315 1980.03 194.431 2005.11 194.431C2030.2 194.431 2050.63 201.957 2066.4 217.01C2082.89 231.346 2091.13 249.624 2091.13 271.845C2091.13 295.499 2083.24 315.57 2067.48 332.056C2051.71 347.826 2030.92 355.711 2005.11 355.711Z" fill="#1DD45A"/>
<path d="M1350.07 1024.48V939.544L1703.81 511.615L1728.54 557.848H1356.52V450.328H1836.06V535.269L1482.32 963.199L1455.44 916.965H1845.74V1024.48H1350.07Z" fill="black"/>
<path fill-rule="evenodd" clip-rule="evenodd" d="M1118.84 450.328V1024.49H1253.24V450.328H1118.84Z" fill="black"/>
<path d="M1186.57 355.711C1161.49 355.711 1140.7 347.826 1124.21 332.056C1108.44 316.287 1100.56 297.291 1100.56 275.071C1100.56 252.133 1108.44 233.138 1124.21 218.085C1140.7 202.315 1161.49 194.431 1186.57 194.431C1211.66 194.431 1232.09 201.957 1247.86 217.01C1264.35 231.346 1272.59 249.624 1272.59 271.845C1272.59 295.499 1264.71 315.57 1248.94 332.056C1233.17 347.826 1212.38 355.711 1186.57 355.711Z" fill="#1DD45A"/>
<path d="M704.844 1024.48V450.327H832.793V608.382L817.74 562.148C834.943 523.441 861.823 494.052 898.38 473.982C935.653 453.911 981.887 443.876 1037.08 443.876V571.825C1031.35 570.391 1025.97 569.674 1020.95 569.674C1015.94 568.958 1010.92 568.599 1005.9 568.599C955.007 568.599 914.508 583.652 884.402 613.758C854.297 643.146 839.244 687.23 839.244 746.007V1024.48H704.844Z" fill="black"/>
<path d="M318.259 1032.01C269.517 1032.01 226.15 1021.26 188.16 999.755C150.17 978.251 120.064 945.995 97.8432 902.987C76.3392 859.263 65.5872 804.069 65.5872 737.407C65.5872 670.027 76.6976 614.834 98.9184 571.826C121.856 528.818 152.32 496.92 190.31 476.133C229.018 454.629 271.667 443.877 318.259 443.877C374.886 443.877 424.704 456.063 467.712 480.434C511.437 504.805 545.843 538.853 570.931 582.578C596.736 626.303 609.638 677.912 609.638 737.407C609.638 796.901 596.736 848.511 570.931 892.235C545.843 935.96 511.437 970.367 467.712 995.455C424.704 1019.83 374.886 1032.01 318.259 1032.01ZM0 1024.48V226.687H134.4V583.653L123.648 736.331L127.949 889.01V1024.48H0ZM303.206 916.965C335.462 916.965 364.134 909.797 389.222 895.461C415.027 881.125 435.456 860.338 450.509 833.099C465.562 805.861 473.088 773.963 473.088 737.407C473.088 700.133 465.562 668.235 450.509 641.714C435.456 614.475 415.027 593.688 389.222 579.352C364.134 565.016 335.462 557.848 303.206 557.848C270.95 557.848 241.92 565.016 216.115 579.352C190.31 593.688 169.882 614.475 154.829 641.714C139.776 668.235 132.25 700.133 132.25 737.407C132.25 773.963 139.776 805.861 154.829 833.099C169.882 860.338 190.31 881.125 216.115 895.461C241.92 909.797 270.95 916.965 303.206 916.965Z" fill="black"/>
</svg>
