<svg width="1613" height="307" viewBox="0 0 1613 307" fill="none" xmlns="http://www.w3.org/2000/svg">
<path d="M808.682 127.506L833.839 71.9539H841.696L866.933 127.506H858.6L836.141 76.398H839.315L816.856 127.506H808.682ZM819.396 113.618L821.539 107.269H852.807L855.108 113.618H819.396ZM875.22 127.506V71.9539H896.885C904.08 71.9539 909.741 73.6733 913.868 77.1123C917.995 80.4983 920.058 85.2334 920.058 91.3177C920.058 95.3386 919.132 98.804 917.28 101.714C915.429 104.571 912.783 106.766 909.344 108.301C905.905 109.835 901.752 110.602 896.885 110.602H879.584L883.156 106.952V127.506H875.22ZM912.36 127.506L898.234 107.348H906.725L921.01 127.506H912.36ZM883.156 107.745L879.584 103.857H896.647C901.726 103.857 905.561 102.772 908.154 100.603C910.799 98.3807 912.122 95.2857 912.122 91.3177C912.122 87.3497 910.799 84.2811 908.154 82.1119C905.561 79.9428 901.726 78.8582 896.647 78.8582H879.584L883.156 74.8902V107.745ZM957.719 128.141C953.487 128.141 949.572 127.453 945.974 126.077C942.429 124.649 939.334 122.665 936.689 120.125C934.096 117.533 932.059 114.517 930.578 111.078C929.097 107.639 928.356 103.857 928.356 99.7299C928.356 95.6031 929.097 91.8203 930.578 88.3814C932.059 84.9424 934.123 81.9532 936.768 79.4137C939.413 76.8213 942.509 74.8373 946.053 73.4617C949.651 72.0332 953.566 71.319 957.799 71.319C962.084 71.319 966.026 72.0597 969.623 73.5411C973.274 74.9695 976.369 77.1123 978.908 79.9692L973.75 84.9689C971.634 82.7468 969.253 81.1067 966.608 80.0486C963.962 78.9375 961.132 78.382 958.116 78.382C954.995 78.382 952.085 78.9111 949.386 79.9692C946.741 81.0273 944.44 82.5087 942.482 84.4134C940.525 86.318 938.99 88.593 937.879 91.2383C936.821 93.8308 936.292 96.6613 936.292 99.7299C936.292 102.798 936.821 105.655 937.879 108.301C938.99 110.893 940.525 113.142 942.482 115.046C944.44 116.951 946.741 118.432 949.386 119.49C952.085 120.549 954.995 121.078 958.116 121.078C961.132 121.078 963.962 120.549 966.608 119.49C969.253 118.379 971.634 116.686 973.75 114.411L978.908 119.411C976.369 122.268 973.274 124.437 969.623 125.919C966.026 127.4 962.058 128.141 957.719 128.141ZM1029.29 127.506V71.9539H1037.23V127.506H1029.29ZM989.455 127.506V71.9539H997.391V127.506H989.455ZM996.597 102.746V95.8412H1030.01V102.746H996.597ZM1053.86 127.506V71.9539H1061.79V127.506H1053.86ZM1089.46 127.506V78.8582H1070.41V71.9539H1116.36V78.8582H1097.31V127.506H1089.46ZM1125 127.506V71.9539H1164.21V78.8582H1132.94V120.602H1165.32V127.506H1125ZM1132.22 102.666V95.9206H1160.79V102.666H1132.22ZM1202.93 128.141C1198.7 128.141 1194.78 127.453 1191.18 126.077C1187.64 124.649 1184.54 122.665 1181.9 120.125C1179.31 117.533 1177.27 114.517 1175.79 111.078C1174.31 107.639 1173.57 103.857 1173.57 99.7299C1173.57 95.6031 1174.31 91.8203 1175.79 88.3814C1177.27 84.9424 1179.33 81.9532 1181.98 79.4137C1184.62 76.8213 1187.72 74.8373 1191.26 73.4617C1194.86 72.0332 1198.78 71.319 1203.01 71.319C1207.29 71.319 1211.24 72.0597 1214.83 73.5411C1218.48 74.9695 1221.58 77.1123 1224.12 79.9692L1218.96 84.9689C1216.84 82.7468 1214.46 81.1067 1211.82 80.0486C1209.17 78.9375 1206.34 78.382 1203.33 78.382C1200.2 78.382 1197.29 78.9111 1194.6 79.9692C1191.95 81.0273 1189.65 82.5087 1187.69 84.4134C1185.73 86.318 1184.2 88.593 1183.09 91.2383C1182.03 93.8308 1181.5 96.6613 1181.5 99.7299C1181.5 102.798 1182.03 105.655 1183.09 108.301C1184.2 110.893 1185.73 113.142 1187.69 115.046C1189.65 116.951 1191.95 118.432 1194.6 119.49C1197.29 120.549 1200.2 121.078 1203.33 121.078C1206.34 121.078 1209.17 120.549 1211.82 119.49C1214.46 118.379 1216.84 116.686 1218.96 114.411L1224.12 119.411C1221.58 122.268 1218.48 124.437 1214.83 125.919C1211.24 127.4 1207.27 128.141 1202.93 128.141ZM1244.38 127.506V78.8582H1225.33V71.9539H1271.28V78.8582H1252.23V127.506H1244.38ZM1301.93 128.141C1294.63 128.141 1288.89 126.051 1284.71 121.871C1280.53 117.692 1278.44 111.581 1278.44 103.539V71.9539H1286.38V103.222C1286.38 109.412 1287.73 113.935 1290.42 116.792C1293.18 119.649 1297.04 121.078 1302.01 121.078C1307.04 121.078 1310.9 119.649 1313.6 116.792C1316.35 113.935 1317.72 109.412 1317.72 103.222V71.9539H1325.42V103.539C1325.42 111.581 1323.33 117.692 1319.15 121.871C1315.03 126.051 1309.29 128.141 1301.93 128.141ZM1341.69 127.506V71.9539H1363.36C1370.55 71.9539 1376.21 73.6733 1380.34 77.1123C1384.47 80.4983 1386.53 85.2334 1386.53 91.3177C1386.53 95.3386 1385.6 98.804 1383.75 101.714C1381.9 104.571 1379.26 106.766 1375.82 108.301C1372.38 109.835 1368.22 110.602 1363.36 110.602H1346.06L1349.63 106.952V127.506H1341.69ZM1378.83 127.506L1364.71 107.348H1373.2L1387.48 127.506H1378.83ZM1349.63 107.745L1346.06 103.857H1363.12C1368.2 103.857 1372.03 102.772 1374.63 100.603C1377.27 98.3807 1378.59 95.2857 1378.59 91.3177C1378.59 87.3497 1377.27 84.2811 1374.63 82.1119C1372.03 79.9428 1368.2 78.8582 1363.12 78.8582H1346.06L1349.63 74.8902V107.745ZM1390.94 127.506L1416.1 71.9539H1423.95L1449.19 127.506H1440.86L1418.4 76.398H1421.57L1399.11 127.506H1390.94ZM1401.65 113.618L1403.8 107.269H1435.06L1437.37 113.618H1401.65ZM1457.48 127.506V71.9539H1465.41V120.602H1495.49V127.506H1457.48ZM817.095 236.506V180.954H842.014C848.415 180.954 853.336 182.25 856.775 184.842C860.213 187.382 861.933 190.874 861.933 195.318C861.933 198.334 861.245 200.873 859.87 202.937C858.547 205 856.748 206.587 854.473 207.698C852.198 208.809 849.738 209.365 847.093 209.365L848.521 206.984C851.695 206.984 854.5 207.539 856.933 208.65C859.367 209.762 861.298 211.402 862.727 213.571C864.155 215.687 864.869 218.332 864.869 221.507C864.869 226.268 863.07 229.972 859.473 232.617C855.928 235.21 850.637 236.506 843.601 236.506H817.095ZM825.031 230.078H843.283C847.675 230.078 851.034 229.337 853.362 227.856C855.69 226.374 856.854 224.046 856.854 220.872C856.854 217.645 855.69 215.29 853.362 213.809C851.034 212.328 847.675 211.587 843.283 211.587H824.316V205.159H841.299C845.32 205.159 848.442 204.418 850.664 202.937C852.886 201.455 853.997 199.233 853.997 196.27C853.997 193.308 852.886 191.085 850.664 189.604C848.442 188.123 845.32 187.382 841.299 187.382H825.031V230.078ZM900.171 237.141C892.87 237.141 887.13 235.051 882.95 230.871C878.771 226.692 876.681 220.581 876.681 212.539V180.954H884.617V212.222C884.617 218.412 885.966 222.935 888.664 225.792C891.415 228.649 895.278 230.078 900.251 230.078C905.277 230.078 909.139 228.649 911.837 225.792C914.588 222.935 915.964 218.412 915.964 212.222V180.954H923.662V212.539C923.662 220.581 921.572 226.692 917.393 230.871C913.266 235.051 907.525 237.141 900.171 237.141ZM939.932 236.506V180.954H947.868V236.506H939.932ZM964.5 236.506V180.954H972.436V229.602H1002.51V236.506H964.5ZM1011.62 236.506V180.954H1035.03C1040.96 180.954 1046.17 182.118 1050.66 184.446C1055.21 186.774 1058.73 190.027 1061.22 194.207C1063.76 198.387 1065.03 203.228 1065.03 208.73C1065.03 214.232 1063.76 219.073 1061.22 223.253C1058.73 227.432 1055.21 230.686 1050.66 233.014C1046.17 235.342 1040.96 236.506 1035.03 236.506H1011.62ZM1019.56 229.602H1034.55C1039.16 229.602 1043.13 228.729 1046.46 226.983C1049.84 225.237 1052.46 222.803 1054.32 219.682C1056.17 216.507 1057.09 212.857 1057.09 208.73C1057.09 204.55 1056.17 200.9 1054.32 197.778C1052.46 194.657 1049.84 192.223 1046.46 190.477C1043.13 188.731 1039.16 187.858 1034.55 187.858H1019.56V229.602ZM1077.18 236.506V180.954H1085.12V236.506H1077.18ZM1101.75 236.506V180.954H1108.26L1145 226.586H1141.59V180.954H1149.53V236.506H1143.02L1106.28 190.874H1109.69V236.506H1101.75ZM1191.23 237.141C1186.95 237.141 1183.01 236.453 1179.41 235.077C1175.81 233.649 1172.69 231.665 1170.04 229.125C1167.4 226.533 1165.33 223.517 1163.85 220.078C1162.37 216.639 1161.63 212.857 1161.63 208.73C1161.63 204.603 1162.37 200.82 1163.85 197.381C1165.33 193.942 1167.4 190.953 1170.04 188.414C1172.74 185.821 1175.89 183.837 1179.49 182.462C1183.08 181.033 1187.05 180.319 1191.39 180.319C1195.78 180.319 1199.8 181.033 1203.45 182.462C1207.1 183.89 1210.2 186.033 1212.74 188.89L1207.82 193.81C1205.54 191.588 1203.06 189.974 1200.36 188.969C1197.71 187.911 1194.83 187.382 1191.71 187.382C1188.53 187.382 1185.57 187.911 1182.82 188.969C1180.12 190.027 1177.77 191.509 1175.76 193.413C1173.8 195.318 1172.27 197.593 1171.15 200.238C1170.1 202.831 1169.57 205.661 1169.57 208.73C1169.57 211.746 1170.1 214.576 1171.15 217.221C1172.27 219.814 1173.8 222.089 1175.76 224.046C1177.77 225.951 1180.12 227.432 1182.82 228.49C1185.52 229.549 1188.45 230.078 1191.63 230.078C1194.59 230.078 1197.42 229.628 1200.12 228.729C1202.87 227.776 1205.41 226.216 1207.74 224.046L1212.26 230.078C1209.51 232.406 1206.28 234.178 1202.58 235.395C1198.93 236.559 1195.15 237.141 1191.23 237.141ZM1212.26 230.078L1204.64 229.046V208.412H1212.26V230.078ZM1264.96 237.141C1260.73 237.141 1256.68 236.506 1252.82 235.236C1248.95 233.913 1245.91 232.22 1243.69 230.157L1246.63 223.967C1248.74 225.819 1251.44 227.353 1254.72 228.57C1258 229.787 1261.41 230.395 1264.96 230.395C1268.19 230.395 1270.81 230.025 1272.82 229.284C1274.83 228.543 1276.31 227.538 1277.26 226.268C1278.21 224.946 1278.69 223.464 1278.69 221.824C1278.69 219.92 1278.05 218.385 1276.78 217.221C1275.57 216.057 1273.95 215.132 1271.94 214.444C1269.99 213.703 1267.82 213.068 1265.44 212.539C1263.05 212.01 1260.65 211.402 1258.21 210.714C1255.83 209.973 1253.64 209.047 1251.63 207.936C1249.67 206.825 1248.08 205.344 1246.86 203.492C1245.65 201.587 1245.04 199.154 1245.04 196.191C1245.04 193.334 1245.78 190.715 1247.26 188.334C1248.8 185.901 1251.12 183.97 1254.25 182.541C1257.42 181.06 1261.44 180.319 1266.31 180.319C1269.54 180.319 1272.74 180.742 1275.91 181.589C1279.09 182.435 1281.84 183.652 1284.16 185.239L1281.55 191.588C1279.16 190.001 1276.65 188.863 1274.01 188.176C1271.36 187.435 1268.79 187.065 1266.31 187.065C1263.19 187.065 1260.62 187.461 1258.61 188.255C1256.6 189.049 1255.12 190.107 1254.17 191.429C1253.27 192.752 1252.82 194.233 1252.82 195.874C1252.82 197.831 1253.43 199.392 1254.64 200.556C1255.91 201.72 1257.53 202.646 1259.48 203.333C1261.49 204.021 1263.69 204.656 1266.07 205.238C1268.45 205.767 1270.83 206.376 1273.21 207.063C1275.65 207.751 1277.84 208.65 1279.8 209.762C1281.81 210.873 1283.42 212.354 1284.64 214.206C1285.86 216.057 1286.47 218.438 1286.47 221.348C1286.47 224.152 1285.7 226.771 1284.16 229.205C1282.63 231.586 1280.25 233.517 1277.02 234.998C1273.85 236.426 1269.83 237.141 1264.96 237.141ZM1310.31 236.506V215.237L1312.13 220.158L1288.25 180.954H1296.74L1316.82 214.047H1312.21L1332.37 180.954H1340.23L1316.42 220.158L1318.17 215.237V236.506H1310.31ZM1363.31 237.141C1359.07 237.141 1355.03 236.506 1351.16 235.236C1347.3 233.913 1344.26 232.22 1342.04 230.157L1344.97 223.967C1347.09 225.819 1349.79 227.353 1353.07 228.57C1356.35 229.787 1359.76 230.395 1363.31 230.395C1366.53 230.395 1369.15 230.025 1371.16 229.284C1373.17 228.543 1374.65 227.538 1375.61 226.268C1376.56 224.946 1377.04 223.464 1377.04 221.824C1377.04 219.92 1376.4 218.385 1375.13 217.221C1373.91 216.057 1372.3 215.132 1370.29 214.444C1368.33 213.703 1366.16 213.068 1363.78 212.539C1361.4 212.01 1358.99 211.402 1356.56 210.714C1354.18 209.973 1351.98 209.047 1349.97 207.936C1348.02 206.825 1346.43 205.344 1345.21 203.492C1344 201.587 1343.39 199.154 1343.39 196.191C1343.39 193.334 1344.13 190.715 1345.61 188.334C1347.14 185.901 1349.47 183.97 1352.59 182.541C1355.77 181.06 1359.79 180.319 1364.66 180.319C1367.88 180.319 1371.08 180.742 1374.26 181.589C1377.43 182.435 1380.18 183.652 1382.51 185.239L1379.89 191.588C1377.51 190.001 1375 188.863 1372.35 188.176C1369.71 187.435 1367.14 187.065 1364.66 187.065C1361.53 187.065 1358.97 187.461 1356.96 188.255C1354.95 189.049 1353.47 190.107 1352.51 191.429C1351.61 192.752 1351.16 194.233 1351.16 195.874C1351.16 197.831 1351.77 199.392 1352.99 200.556C1354.26 201.72 1355.87 202.646 1357.83 203.333C1359.84 204.021 1362.04 204.656 1364.42 205.238C1366.8 205.767 1369.18 206.376 1371.56 207.063C1373.99 207.751 1376.19 208.65 1378.15 209.762C1380.16 210.873 1381.77 212.354 1382.99 214.206C1384.2 216.057 1384.81 218.438 1384.81 221.348C1384.81 224.152 1384.05 226.771 1382.51 229.205C1380.98 231.586 1378.6 233.517 1375.37 234.998C1372.19 236.426 1368.17 237.141 1363.31 237.141ZM1406.66 236.506V187.858H1387.62V180.954H1433.57V187.858H1414.52V236.506H1406.66ZM1442.21 236.506V180.954H1481.41V187.858H1450.15V229.602H1482.52V236.506H1442.21ZM1449.43 211.666V204.921H1478V211.666H1449.43ZM1495.37 236.506V180.954H1501.88L1526.8 222.935H1523.31L1547.91 180.954H1554.42L1554.5 236.506H1546.88L1546.8 192.937H1548.63L1526.72 229.76H1523.07L1501.01 192.937H1502.99V236.506H1495.37ZM1587.36 237.141C1583.13 237.141 1579.08 236.506 1575.22 235.236C1571.35 233.913 1568.31 232.22 1566.09 230.157L1569.03 223.967C1571.14 225.819 1573.84 227.353 1577.12 228.57C1580.4 229.787 1583.81 230.395 1587.36 230.395C1590.59 230.395 1593.21 230.025 1595.22 229.284C1597.23 228.543 1598.71 227.538 1599.66 226.268C1600.61 224.946 1601.09 223.464 1601.09 221.824C1601.09 219.92 1600.45 218.385 1599.18 217.221C1597.97 216.057 1596.35 215.132 1594.34 214.444C1592.39 213.703 1590.22 213.068 1587.84 212.539C1585.45 212.01 1583.05 211.402 1580.61 210.714C1578.23 209.973 1576.04 209.047 1574.03 207.936C1572.07 206.825 1570.48 205.344 1569.26 203.492C1568.05 201.587 1567.44 199.154 1567.44 196.191C1567.44 193.334 1568.18 190.715 1569.66 188.334C1571.2 185.901 1573.52 183.97 1576.65 182.541C1579.82 181.06 1583.84 180.319 1588.71 180.319C1591.94 180.319 1595.14 180.742 1598.31 181.589C1601.49 182.435 1604.24 183.652 1606.56 185.239L1603.95 191.588C1601.56 190.001 1599.05 188.863 1596.41 188.176C1593.76 187.435 1591.19 187.065 1588.71 187.065C1585.59 187.065 1583.02 187.461 1581.01 188.255C1579 189.049 1577.52 190.107 1576.57 191.429C1575.67 192.752 1575.22 194.233 1575.22 195.874C1575.22 197.831 1575.83 199.392 1577.04 200.556C1578.31 201.72 1579.93 202.646 1581.88 203.333C1583.89 204.021 1586.09 204.656 1588.47 205.238C1590.85 205.767 1593.23 206.376 1595.61 207.063C1598.05 207.751 1600.24 208.65 1602.2 209.762C1604.21 210.873 1605.82 212.354 1607.04 214.206C1608.26 216.057 1608.87 218.438 1608.87 221.348C1608.87 224.152 1608.1 226.771 1606.56 229.205C1605.03 231.586 1602.65 233.517 1599.42 234.998C1596.25 236.426 1592.23 237.141 1587.36 237.141Z" fill="#666666"/>
<line x1="719.833" y1="306.625" x2="718.982" y2="0.0145806" stroke="#1DD45A" stroke-width="10.24"/>
<path d="M608.004 258.003C592.235 258.003 580.049 253.971 571.447 245.907C562.846 237.664 558.545 225.568 558.545 209.619V80.8643H592.145V208.813C592.145 215.623 593.847 220.909 597.252 224.672C600.836 228.435 605.764 230.317 612.036 230.317C619.563 230.317 625.835 228.346 630.852 224.403L640.26 248.327C636.318 251.552 631.479 253.971 625.745 255.584C620.011 257.197 614.097 258.003 608.004 258.003ZM534.891 139.463V112.583H630.583V139.463H534.891Z" fill="black"/>
<path fill-rule="evenodd" clip-rule="evenodd" d="M484.343 112.583V256.122H517.943V112.583H484.343Z" fill="black"/>
<path d="M501.277 88.9284C495.005 88.9284 489.809 86.9572 485.687 83.0148C481.745 79.0724 479.773 74.3236 479.773 68.7684C479.773 63.034 481.745 58.2852 485.687 54.522C489.809 50.5796 495.005 48.6084 501.277 48.6084C507.549 48.6084 512.657 50.49 516.599 54.2532C520.721 57.8372 522.781 62.4068 522.781 67.962C522.781 73.8756 520.81 78.8932 516.868 83.0148C512.925 86.9572 507.729 88.9284 501.277 88.9284Z" fill="#1DD45A"/>
<path d="M337.516 256.122V234.887L425.951 127.905L432.133 139.463H339.128V112.583H459.013V133.818L370.578 240.801L363.858 229.242H461.432V256.122H337.516Z" fill="black"/>
<path fill-rule="evenodd" clip-rule="evenodd" d="M279.706 112.583V256.122H313.306V112.583H279.706Z" fill="black"/>
<path d="M296.641 88.9284C290.369 88.9284 285.172 86.9572 281.05 83.0148C277.108 79.0724 275.137 74.3236 275.137 68.7684C275.137 63.034 277.108 58.2852 281.05 54.522C285.172 50.5796 290.369 48.6084 296.641 48.6084C302.913 48.6084 308.02 50.49 311.962 54.2532C316.084 57.8372 318.145 62.4068 318.145 67.962C318.145 73.8756 316.174 78.8932 312.231 83.0148C308.289 86.9572 303.092 88.9284 296.641 88.9284Z" fill="#1DD45A"/>
<path d="M176.211 256.122V112.583H208.198V152.096L204.435 140.538C208.736 130.861 215.456 123.514 224.595 118.496C233.913 113.479 245.472 110.97 259.27 110.97V142.957C257.837 142.599 256.493 142.419 255.238 142.419C253.984 142.24 252.729 142.151 251.475 142.151C238.752 142.151 228.627 145.914 221.101 153.44C213.574 160.787 209.811 171.808 209.811 186.503V256.122H176.211Z" fill="black"/>
<path d="M79.5648 258.004C67.3792 258.004 56.5376 255.316 47.04 249.94C37.5424 244.564 30.016 236.5 24.4608 225.748C19.0848 214.817 16.3968 201.018 16.3968 184.353C16.3968 167.508 19.1744 153.71 24.7296 142.958C30.464 132.206 38.08 124.231 47.5776 119.034C57.2544 113.658 67.9168 110.97 79.5648 110.97C93.7216 110.97 106.176 114.017 116.928 120.11C127.859 126.202 136.461 134.714 142.733 145.646C149.184 156.577 152.41 169.479 152.41 184.353C152.41 199.226 149.184 212.129 142.733 223.06C136.461 233.991 127.859 242.593 116.928 248.865C106.176 254.958 93.7216 258.004 79.5648 258.004ZM0 256.122V56.6729H33.6V145.914L30.912 184.084L31.9872 222.254V256.122H0ZM75.8016 229.242C83.8656 229.242 91.0336 227.45 97.3056 223.866C103.757 220.282 108.864 215.086 112.627 208.276C116.39 201.466 118.272 193.492 118.272 184.353C118.272 175.034 116.39 167.06 112.627 160.43C108.864 153.62 103.757 148.423 97.3056 144.839C91.0336 141.255 83.8656 139.463 75.8016 139.463C67.7376 139.463 60.48 141.255 54.0288 144.839C47.5776 148.423 42.4704 153.62 38.7072 160.43C34.944 167.06 33.0624 175.034 33.0624 184.353C33.0624 193.492 34.944 201.466 38.7072 208.276C42.4704 215.086 47.5776 220.282 54.0288 223.866C60.48 227.45 67.7376 229.242 75.8016 229.242Z" fill="black"/>
</svg>
