<svg width="203" height="39" viewBox="0 0 203 39" fill="none" xmlns="http://www.w3.org/2000/svg">
<path d="M101.088 15.5625L104.232 8.6185H105.214L108.369 15.5625H107.327L104.52 9.17402H104.917L102.109 15.5625H101.088ZM102.427 13.8265L102.695 13.0329H106.603L106.891 13.8265H102.427ZM109.405 15.5625V8.6185H112.113C113.012 8.6185 113.72 8.83343 114.236 9.2633C114.752 9.68655 115.01 10.2784 115.01 11.039C115.01 11.5416 114.894 11.9748 114.662 12.3385C114.431 12.6956 114.1 12.9701 113.67 13.1619C113.241 13.3536 112.721 13.4495 112.113 13.4495H109.95L110.397 12.9932V15.5625H109.405ZM114.047 15.5625L112.282 13.0428H113.343L115.129 15.5625H114.047ZM110.397 13.0924L109.95 12.6063H112.083C112.718 12.6063 113.198 12.4708 113.522 12.1996C113.852 11.9219 114.018 11.535 114.018 11.039C114.018 10.543 113.852 10.1594 113.522 9.88826C113.198 9.61711 112.718 9.48154 112.083 9.48154H109.95L110.397 8.98554V13.0924ZM119.717 15.6419C119.188 15.6419 118.699 15.5559 118.249 15.3839C117.806 15.2054 117.419 14.9574 117.089 14.6399C116.764 14.3159 116.51 13.9389 116.325 13.5091C116.14 13.0792 116.047 12.6063 116.047 12.0905C116.047 11.5747 116.14 11.1018 116.325 10.6719C116.51 10.2421 116.768 9.86842 117.098 9.55098C117.429 9.22693 117.816 8.97893 118.259 8.80698C118.709 8.62842 119.198 8.53914 119.727 8.53914C120.263 8.53914 120.756 8.63173 121.205 8.8169C121.662 8.99546 122.049 9.2633 122.366 9.62042L121.721 10.2454C121.457 9.96762 121.159 9.76261 120.828 9.63034C120.498 9.49146 120.144 9.42202 119.767 9.42202C119.377 9.42202 119.013 9.48815 118.676 9.62042C118.345 9.75269 118.057 9.93786 117.813 10.1759C117.568 10.414 117.376 10.6984 117.237 11.0291C117.105 11.3531 117.039 11.7069 117.039 12.0905C117.039 12.4741 117.105 12.8312 117.237 13.1619C117.376 13.4859 117.568 13.767 117.813 14.0051C118.057 14.2431 118.345 14.4283 118.676 14.5606C119.013 14.6928 119.377 14.759 119.767 14.759C120.144 14.759 120.498 14.6928 120.828 14.5606C121.159 14.4217 121.457 14.2101 121.721 13.9257L122.366 14.5507C122.049 14.9078 121.662 15.1789 121.205 15.3641C120.756 15.5493 120.26 15.6419 119.717 15.6419ZM128.664 15.5625V8.6185H129.656V15.5625H128.664ZM123.684 15.5625V8.6185H124.676V15.5625H123.684ZM124.577 12.4675V11.6044H128.753V12.4675H124.577ZM131.735 15.5625V8.6185H132.727V15.5625H131.735ZM136.184 15.5625V9.48154H133.804V8.6185H139.547V9.48154H137.166V15.5625H136.184ZM140.628 15.5625V8.6185H145.528V9.48154H141.62V14.6995H145.667V15.5625H140.628ZM141.53 12.4575V11.6143H145.102V12.4575H141.53ZM150.369 15.6419C149.84 15.6419 149.35 15.5559 148.9 15.3839C148.457 15.2054 148.07 14.9574 147.74 14.6399C147.416 14.3159 147.161 13.9389 146.976 13.5091C146.791 13.0792 146.698 12.6063 146.698 12.0905C146.698 11.5747 146.791 11.1018 146.976 10.6719C147.161 10.2421 147.419 9.86842 147.75 9.55098C148.08 9.22693 148.467 8.97893 148.91 8.80698C149.36 8.62842 149.849 8.53914 150.379 8.53914C150.914 8.53914 151.407 8.63173 151.857 8.8169C152.313 8.99546 152.7 9.2633 153.017 9.62042L152.372 10.2454C152.108 9.96762 151.81 9.76261 151.48 9.63034C151.149 9.49146 150.795 9.42202 150.418 9.42202C150.028 9.42202 149.664 9.48815 149.327 9.62042C148.996 9.75269 148.709 9.93786 148.464 10.1759C148.219 10.414 148.027 10.6984 147.889 11.0291C147.756 11.3531 147.69 11.7069 147.69 12.0905C147.69 12.4741 147.756 12.8312 147.889 13.1619C148.027 13.4859 148.219 13.767 148.464 14.0051C148.709 14.2431 148.996 14.4283 149.327 14.5606C149.664 14.6928 150.028 14.759 150.418 14.759C150.795 14.759 151.149 14.6928 151.48 14.5606C151.81 14.4217 152.108 14.2101 152.372 13.9257L153.017 14.5507C152.7 14.9078 152.313 15.1789 151.857 15.3641C151.407 15.5493 150.911 15.6419 150.369 15.6419ZM155.55 15.5625V9.48154H153.169V8.6185H158.913V9.48154H156.532V15.5625H155.55ZM162.744 15.6419C161.831 15.6419 161.114 15.3806 160.591 14.8582C160.069 14.3357 159.808 13.5719 159.808 12.5667V8.6185H160.8V12.527C160.8 13.3007 160.968 13.8662 161.305 14.2233C161.649 14.5804 162.132 14.759 162.754 14.759C163.382 14.759 163.865 14.5804 164.202 14.2233C164.546 13.8662 164.718 13.3007 164.718 12.527V8.6185H165.68V12.5667C165.68 13.5719 165.419 14.3357 164.897 14.8582C164.381 15.3806 163.663 15.6419 162.744 15.6419ZM167.714 15.5625V8.6185H170.422C171.322 8.6185 172.029 8.83343 172.545 9.2633C173.061 9.68655 173.319 10.2784 173.319 11.039C173.319 11.5416 173.203 11.9748 172.972 12.3385C172.74 12.6956 172.409 12.9701 171.98 13.1619C171.55 13.3536 171.031 13.4495 170.422 13.4495H168.26L168.706 12.9932V15.5625H167.714ZM172.357 15.5625L170.591 13.0428H171.652L173.438 15.5625H172.357ZM168.706 13.0924L168.26 12.6063H170.392C171.027 12.6063 171.507 12.4708 171.831 12.1996C172.161 11.9219 172.327 11.535 172.327 11.039C172.327 10.543 172.161 10.1594 171.831 9.88826C171.507 9.61711 171.027 9.48154 170.392 9.48154H168.26L168.706 8.98554V13.0924ZM173.87 15.5625L177.015 8.6185H177.997L181.151 15.5625H180.11L177.302 9.17402H177.699L174.892 15.5625H173.87ZM175.209 13.8265L175.477 13.0329H179.385L179.673 13.8265H175.209ZM182.187 15.5625V8.6185H183.179V14.6995H186.939V15.5625H182.187ZM102.139 29.5625V22.6185H105.254C106.054 22.6185 106.669 22.7805 107.099 23.1046C107.529 23.422 107.744 23.8585 107.744 24.414C107.744 24.791 107.658 25.1084 107.486 25.3663C107.321 25.6243 107.096 25.8227 106.812 25.9615C106.527 26.1004 106.22 26.1699 105.889 26.1699L106.068 25.8723C106.464 25.8723 106.815 25.9417 107.119 26.0806C107.423 26.2195 107.665 26.4245 107.843 26.6956C108.022 26.9602 108.111 27.2908 108.111 27.6876C108.111 28.2828 107.886 28.7458 107.437 29.0764C106.993 29.4005 106.332 29.5625 105.453 29.5625H102.139ZM103.131 28.759H105.413C105.962 28.759 106.382 28.6664 106.673 28.4812C106.964 28.296 107.109 28.0051 107.109 27.6083C107.109 27.2048 106.964 26.9106 106.673 26.7254C106.382 26.5402 105.962 26.4476 105.413 26.4476H103.042V25.6441H105.165C105.667 25.6441 106.058 25.5515 106.335 25.3663C106.613 25.1812 106.752 24.9034 106.752 24.5331C106.752 24.1627 106.613 23.885 106.335 23.6998C106.058 23.5146 105.667 23.422 105.165 23.422H103.131V28.759ZM112.524 29.6419C111.611 29.6419 110.894 29.3806 110.371 28.8582C109.849 28.3357 109.588 27.5719 109.588 26.5667V22.6185H110.58V26.527C110.58 27.3007 110.748 27.8662 111.085 28.2233C111.429 28.5804 111.912 28.759 112.534 28.759C113.162 28.759 113.645 28.5804 113.982 28.2233C114.326 27.8662 114.498 27.3007 114.498 26.527V22.6185H115.46V26.5667C115.46 27.5719 115.199 28.3357 114.677 28.8582C114.161 29.3806 113.443 29.6419 112.524 29.6419ZM117.494 29.5625V22.6185H118.486V29.5625H117.494ZM120.565 29.5625V22.6185H121.557V28.6995H125.317V29.5625H120.565ZM126.455 29.5625V22.6185H129.381C130.122 22.6185 130.773 22.764 131.336 23.055C131.904 23.346 132.344 23.7527 132.655 24.2751C132.972 24.7976 133.131 25.4027 133.131 26.0905C133.131 26.7783 132.972 27.3834 132.655 27.9059C132.344 28.4283 131.904 28.835 131.336 29.126C130.773 29.417 130.122 29.5625 129.381 29.5625H126.455ZM127.447 28.6995H129.322C129.897 28.6995 130.393 28.5903 130.81 28.3721C131.233 28.1539 131.56 27.8496 131.792 27.4595C132.023 27.0627 132.139 26.6063 132.139 26.0905C132.139 25.568 132.023 25.1117 131.792 24.7215C131.56 24.3314 131.233 24.0271 130.81 23.8089C130.393 23.5907 129.897 23.4815 129.322 23.4815H127.447V28.6995ZM134.651 29.5625V22.6185H135.643V29.5625H134.651ZM137.721 29.5625V22.6185H138.535L143.128 28.3225H142.701V22.6185H143.693V29.5625H142.88L138.287 23.8585H138.713V29.5625H137.721ZM148.906 29.6419C148.371 29.6419 147.878 29.5559 147.428 29.3839C146.979 29.2054 146.589 28.9574 146.258 28.6399C145.927 28.3159 145.669 27.9389 145.484 27.5091C145.299 27.0792 145.206 26.6063 145.206 26.0905C145.206 25.5747 145.299 25.1018 145.484 24.6719C145.669 24.2421 145.927 23.8684 146.258 23.551C146.595 23.2269 146.989 22.9789 147.438 22.807C147.888 22.6284 148.384 22.5391 148.926 22.5391C149.475 22.5391 149.978 22.6284 150.434 22.807C150.89 22.9855 151.277 23.2534 151.595 23.6105L150.98 24.2255C150.695 23.9478 150.385 23.7461 150.047 23.6204C149.717 23.4882 149.356 23.422 148.966 23.422C148.569 23.422 148.199 23.4882 147.855 23.6204C147.518 23.7527 147.223 23.9379 146.972 24.1759C146.727 24.414 146.536 24.6984 146.397 25.0291C146.264 25.3531 146.198 25.7069 146.198 26.0905C146.198 26.4675 146.264 26.8213 146.397 27.1519C146.536 27.476 146.727 27.7604 146.972 28.0051C147.223 28.2431 147.518 28.4283 147.855 28.5606C148.192 28.6928 148.559 28.759 148.956 28.759C149.326 28.759 149.68 28.7028 150.018 28.5903C150.361 28.4713 150.679 28.2762 150.97 28.0051L151.535 28.759C151.191 29.05 150.788 29.2715 150.325 29.4236C149.869 29.5691 149.396 29.6419 148.906 29.6419ZM151.535 28.759L150.583 28.63V26.0508H151.535V28.759ZM158.122 29.6419C157.593 29.6419 157.087 29.5625 156.605 29.4038C156.122 29.2384 155.742 29.0268 155.464 28.7689L155.831 27.9951C156.095 28.2266 156.433 28.4184 156.843 28.5705C157.253 28.7226 157.679 28.7987 158.122 28.7987C158.526 28.7987 158.853 28.7524 159.104 28.6598C159.356 28.5672 159.541 28.4415 159.66 28.2828C159.779 28.1175 159.838 27.9323 159.838 27.7273C159.838 27.4892 159.759 27.2974 159.6 27.1519C159.448 27.0064 159.247 26.8907 158.995 26.8047C158.751 26.7122 158.479 26.6328 158.182 26.5667C157.884 26.5005 157.583 26.4245 157.279 26.3385C156.982 26.2459 156.707 26.1302 156.456 25.9913C156.211 25.8524 156.013 25.6672 155.861 25.4358C155.708 25.1977 155.632 24.8935 155.632 24.5231C155.632 24.166 155.725 23.8387 155.91 23.5411C156.102 23.2368 156.393 22.9955 156.783 22.8169C157.18 22.6317 157.683 22.5391 158.291 22.5391C158.694 22.5391 159.094 22.592 159.491 22.6979C159.888 22.8037 160.232 22.9558 160.523 23.1542L160.196 23.9478C159.898 23.7494 159.584 23.6072 159.253 23.5212C158.923 23.4286 158.602 23.3823 158.291 23.3823C157.901 23.3823 157.58 23.4319 157.329 23.5311C157.077 23.6303 156.892 23.7626 156.773 23.9279C156.661 24.0933 156.605 24.2784 156.605 24.4835C156.605 24.7282 156.681 24.9232 156.833 25.0687C156.991 25.2142 157.193 25.33 157.438 25.4159C157.689 25.5019 157.964 25.5813 158.261 25.654C158.559 25.7202 158.856 25.7962 159.154 25.8822C159.458 25.9682 159.733 26.0806 159.977 26.2195C160.229 26.3583 160.43 26.5435 160.582 26.775C160.735 27.0064 160.811 27.304 160.811 27.6678C160.811 28.0183 160.715 28.3456 160.523 28.6499C160.331 28.9475 160.034 29.1888 159.63 29.374C159.233 29.5526 158.731 29.6419 158.122 29.6419ZM163.791 29.5625V26.9039L164.019 27.519L161.033 22.6185H162.095L164.604 26.7551H164.029L166.549 22.6185H167.531L164.555 27.519L164.773 26.9039V29.5625H163.791ZM170.416 29.6419C169.887 29.6419 169.381 29.5625 168.898 29.4038C168.415 29.2384 168.035 29.0268 167.757 28.7689L168.124 27.9951C168.389 28.2266 168.726 28.4184 169.136 28.5705C169.546 28.7226 169.973 28.7987 170.416 28.7987C170.819 28.7987 171.147 28.7524 171.398 28.6598C171.649 28.5672 171.834 28.4415 171.953 28.2828C172.072 28.1175 172.132 27.9323 172.132 27.7273C172.132 27.4892 172.053 27.2974 171.894 27.1519C171.742 27.0064 171.54 26.8907 171.289 26.8047C171.044 26.7122 170.773 26.6328 170.475 26.5667C170.178 26.5005 169.877 26.4245 169.573 26.3385C169.275 26.2459 169 26.1302 168.749 25.9913C168.504 25.8524 168.306 25.6672 168.154 25.4358C168.002 25.1977 167.926 24.8935 167.926 24.5231C167.926 24.166 168.018 23.8387 168.204 23.5411C168.395 23.2368 168.686 22.9955 169.077 22.8169C169.473 22.6317 169.976 22.5391 170.584 22.5391C170.988 22.5391 171.388 22.592 171.785 22.6979C172.182 22.8037 172.525 22.9558 172.816 23.1542L172.489 23.9478C172.191 23.7494 171.877 23.6072 171.547 23.5212C171.216 23.4286 170.895 23.3823 170.584 23.3823C170.194 23.3823 169.873 23.4319 169.622 23.5311C169.371 23.6303 169.186 23.7626 169.067 23.9279C168.954 24.0933 168.898 24.2784 168.898 24.4835C168.898 24.7282 168.974 24.9232 169.126 25.0687C169.285 25.2142 169.487 25.33 169.731 25.4159C169.983 25.5019 170.257 25.5813 170.555 25.654C170.852 25.7202 171.15 25.7962 171.447 25.8822C171.752 25.9682 172.026 26.0806 172.271 26.2195C172.522 26.3583 172.724 26.5435 172.876 26.775C173.028 27.0064 173.104 27.304 173.104 27.6678C173.104 28.0183 173.008 28.3456 172.816 28.6499C172.625 28.9475 172.327 29.1888 171.924 29.374C171.527 29.5526 171.024 29.6419 170.416 29.6419ZM175.835 29.5625V23.4815H173.455V22.6185H179.198V23.4815H176.817V29.5625H175.835ZM180.279 29.5625V22.6185H185.179V23.4815H181.271V28.6995H185.318V29.5625H180.279ZM181.181 26.4575V25.6143H184.753V26.4575H181.181ZM186.924 29.5625V22.6185H187.738L190.853 27.8662H190.416L193.491 22.6185H194.305L194.315 29.5625H193.362L193.352 24.1164H193.581L190.843 28.7193H190.386L187.629 24.1164H187.877V29.5625H186.924ZM198.422 29.6419C197.893 29.6419 197.387 29.5625 196.905 29.4038C196.422 29.2384 196.042 29.0268 195.764 28.7689L196.131 27.9951C196.395 28.2266 196.733 28.4184 197.143 28.5705C197.553 28.7226 197.979 28.7987 198.422 28.7987C198.826 28.7987 199.153 28.7524 199.404 28.6598C199.656 28.5672 199.841 28.4415 199.96 28.2828C200.079 28.1175 200.138 27.9323 200.138 27.7273C200.138 27.4892 200.059 27.2974 199.9 27.1519C199.748 27.0064 199.547 26.8907 199.295 26.8047C199.051 26.7122 198.779 26.6328 198.482 26.5667C198.184 26.5005 197.883 26.4245 197.579 26.3385C197.282 26.2459 197.007 26.1302 196.756 25.9913C196.511 25.8524 196.313 25.6672 196.161 25.4358C196.008 25.1977 195.932 24.8935 195.932 24.5231C195.932 24.166 196.025 23.8387 196.21 23.5411C196.402 23.2368 196.693 22.9955 197.083 22.8169C197.48 22.6317 197.983 22.5391 198.591 22.5391C198.994 22.5391 199.394 22.592 199.791 22.6979C200.188 22.8037 200.532 22.9558 200.823 23.1542L200.496 23.9478C200.198 23.7494 199.884 23.6072 199.553 23.5212C199.223 23.4286 198.902 23.3823 198.591 23.3823C198.201 23.3823 197.88 23.4319 197.629 23.5311C197.377 23.6303 197.192 23.7626 197.073 23.9279C196.961 24.0933 196.905 24.2784 196.905 24.4835C196.905 24.7282 196.981 24.9232 197.133 25.0687C197.291 25.2142 197.493 25.33 197.738 25.4159C197.989 25.5019 198.264 25.5813 198.561 25.654C198.859 25.7202 199.156 25.7962 199.454 25.8822C199.758 25.9682 200.033 26.0806 200.277 26.2195C200.529 26.3583 200.73 26.5435 200.882 26.775C201.035 27.0064 201.111 27.304 201.111 27.6678C201.111 28.0183 201.015 28.3456 200.823 28.6499C200.631 28.9475 200.334 29.1888 199.93 29.374C199.533 29.5526 199.031 29.6419 198.422 29.6419Z" fill="#666666"/>
<line x1="89.9811" y1="38.3279" x2="89.8747" y2="0.0017005" stroke="#1DD45A" stroke-width="1.28"/>
<path d="M76.0025 32.2498C74.0313 32.2498 72.5081 31.7458 71.4329 30.7378C70.3577 29.7074 69.8201 28.1954 69.8201 26.2018V10.1074H74.0201V26.101C74.0201 26.9522 74.2329 27.613 74.6585 28.0834C75.1065 28.5538 75.7225 28.789 76.5065 28.789C77.4473 28.789 78.2313 28.5426 78.8585 28.0498L80.0345 31.0402C79.5417 31.4434 78.9369 31.7458 78.2201 31.9474C77.5033 32.149 76.7641 32.2498 76.0025 32.2498ZM66.8633 17.4322V14.0722H78.8249V17.4322H66.8633Z" fill="black"/>
<path fill-rule="evenodd" clip-rule="evenodd" d="M60.5439 14.073V32.0154H64.7439V14.073H60.5439Z" fill="black"/>
<path d="M62.6607 11.1162C61.8767 11.1162 61.2271 10.8698 60.7119 10.377C60.2191 9.88417 59.9727 9.29057 59.9727 8.59617C59.9727 7.87937 60.2191 7.28577 60.7119 6.81537C61.2271 6.32257 61.8767 6.07617 62.6607 6.07617C63.4447 6.07617 64.0831 6.31137 64.5759 6.78177C65.0911 7.22977 65.3487 7.80097 65.3487 8.49537C65.3487 9.23457 65.1023 9.86177 64.6095 10.377C64.1167 10.8698 63.4671 11.1162 62.6607 11.1162Z" fill="#1DD45A"/>
<path d="M42.1914 32.0147V29.3603L53.2458 15.9875L54.0186 17.4323H42.393V14.0723H57.3786V16.7267L46.3242 30.0995L45.4842 28.6547H57.681V32.0147H42.1914Z" fill="black"/>
<path fill-rule="evenodd" clip-rule="evenodd" d="M34.9657 14.073V32.0154H39.1657V14.073H34.9657Z" fill="black"/>
<path d="M37.0825 11.1162C36.2985 11.1162 35.6489 10.8698 35.1337 10.377C34.6409 9.88417 34.3945 9.29057 34.3945 8.59617C34.3945 7.87937 34.6409 7.28577 35.1337 6.81537C35.6489 6.32257 36.2985 6.07617 37.0825 6.07617C37.8665 6.07617 38.5049 6.31137 38.9977 6.78177C39.5129 7.22977 39.7705 7.80097 39.7705 8.49537C39.7705 9.23457 39.5241 9.86177 39.0313 10.377C38.5385 10.8698 37.8889 11.1162 37.0825 11.1162Z" fill="#1DD45A"/>
<path d="M22.0273 32.0151V14.0727H26.0257V19.0119L25.5553 17.5671C26.0929 16.3575 26.9329 15.4391 28.0753 14.8119C29.2401 14.1847 30.6849 13.8711 32.4097 13.8711V17.8695C32.2305 17.8247 32.0625 17.8023 31.9057 17.8023C31.7489 17.7799 31.5921 17.7687 31.4353 17.7687C29.8449 17.7687 28.5793 18.2391 27.6385 19.1799C26.6977 20.0983 26.2273 21.4759 26.2273 23.3127V32.0151H22.0273Z" fill="black"/>
<path d="M9.9456 32.2504C8.4224 32.2504 7.0672 31.9144 5.88 31.2424C4.6928 30.5704 3.752 29.5624 3.0576 28.2184C2.3856 26.852 2.0496 25.1272 2.0496 23.044C2.0496 20.9384 2.3968 19.2136 3.0912 17.8696C3.808 16.5256 4.76 15.5288 5.9472 14.8792C7.1568 14.2072 8.4896 13.8712 9.9456 13.8712C11.7152 13.8712 13.272 14.252 14.616 15.0136C15.9824 15.7752 17.0576 16.8392 17.8416 18.2056C18.648 19.572 19.0512 21.1848 19.0512 23.044C19.0512 24.9032 18.648 26.516 17.8416 27.8824C17.0576 29.2488 15.9824 30.324 14.616 31.108C13.272 31.8696 11.7152 32.2504 9.9456 32.2504ZM0 32.0152V7.08398H4.2V18.2392L3.864 23.0104L3.9984 27.7816V32.0152H0ZM9.4752 28.6552C10.4832 28.6552 11.3792 28.4312 12.1632 27.9832C12.9696 27.5352 13.608 26.8856 14.0784 26.0344C14.5488 25.1832 14.784 24.1864 14.784 23.044C14.784 21.8792 14.5488 20.8824 14.0784 20.0536C13.608 19.2024 12.9696 18.5528 12.1632 18.1048C11.3792 17.6568 10.4832 17.4328 9.4752 17.4328C8.4672 17.4328 7.56 17.6568 6.7536 18.1048C5.9472 18.5528 5.3088 19.2024 4.8384 20.0536C4.368 20.8824 4.1328 21.8792 4.1328 23.044C4.1328 24.1864 4.368 25.1832 4.8384 26.0344C5.3088 26.8856 5.9472 27.5352 6.7536 27.9832C7.56 28.4312 8.4672 28.6552 9.4752 28.6552Z" fill="black"/>
</svg>
