<svg width="303" height="58" viewBox="0 0 303 58" fill="none" xmlns="http://www.w3.org/2000/svg">
<path d="M151.63 24.3447L156.347 13.9287H157.82L162.552 24.3447H160.989L156.778 14.762H157.373L153.162 24.3447H151.63ZM153.638 21.7407L154.04 20.5503H159.903L160.334 21.7407H153.638ZM164.105 24.3447V13.9287H168.168C169.517 13.9287 170.578 14.2511 171.352 14.8959C172.126 15.5308 172.513 16.4186 172.513 17.5594C172.513 18.3134 172.339 18.9631 171.992 19.5087C171.645 20.0444 171.149 20.4561 170.504 20.7438C169.859 21.0314 169.08 21.1753 168.168 21.1753H164.924L165.593 20.4908V24.3447H164.105ZM171.069 24.3447L168.421 20.5652H170.013L172.691 24.3447H171.069ZM165.593 20.6396L164.924 19.9105H168.123C169.075 19.9105 169.794 19.7071 170.281 19.3004C170.777 18.8838 171.025 18.3034 171.025 17.5594C171.025 16.8154 170.777 16.2401 170.281 15.8334C169.794 15.4266 169.075 15.2233 168.123 15.2233H164.924L165.593 14.4793V20.6396ZM179.574 24.4638C178.78 24.4638 178.046 24.3348 177.372 24.0769C176.707 23.809 176.127 23.437 175.631 22.9609C175.145 22.4748 174.763 21.9094 174.485 21.2646C174.207 20.6198 174.068 19.9105 174.068 19.1367C174.068 18.363 174.207 17.6537 174.485 17.0089C174.763 16.3641 175.15 15.8036 175.646 15.3274C176.142 14.8414 176.722 14.4694 177.387 14.2114C178.061 13.9436 178.795 13.8097 179.589 13.8097C180.392 13.8097 181.131 13.9486 181.806 14.2263C182.491 14.4942 183.071 14.8959 183.547 15.4316L182.58 16.369C182.183 15.9524 181.737 15.6449 181.241 15.4465C180.745 15.2382 180.214 15.134 179.648 15.134C179.063 15.134 178.518 15.2332 178.012 15.4316C177.516 15.63 177.084 15.9078 176.717 16.2649C176.35 16.622 176.062 17.0486 175.854 17.5446C175.656 18.0306 175.556 18.5614 175.556 19.1367C175.556 19.7121 175.656 20.2478 175.854 20.7438C176.062 21.2298 176.35 21.6514 176.717 22.0086C177.084 22.3657 177.516 22.6434 178.012 22.8418C178.518 23.0402 179.063 23.1394 179.648 23.1394C180.214 23.1394 180.745 23.0402 181.241 22.8418C181.737 22.6335 182.183 22.3161 182.58 21.8895L183.547 22.827C183.071 23.3626 182.491 23.7694 181.806 24.0471C181.131 24.3249 180.387 24.4638 179.574 24.4638ZM192.994 24.3447V13.9287H194.482V24.3447H192.994ZM185.524 24.3447V13.9287H187.012V24.3447H185.524ZM186.864 19.7022V18.4076H193.128V19.7022H186.864ZM197.6 24.3447V13.9287H199.088V24.3447H197.6ZM204.275 24.3447V15.2233H200.703V13.9287H209.319V15.2233H205.748V24.3447H204.275ZM210.94 24.3447V13.9287H218.29V15.2233H212.428V23.0502H218.499V24.3447H210.94ZM212.294 19.6873V18.4225H217.65V19.6873H212.294ZM225.551 24.4638C224.757 24.4638 224.023 24.3348 223.349 24.0769C222.684 23.809 222.104 23.437 221.608 22.9609C221.122 22.4748 220.74 21.9094 220.462 21.2646C220.184 20.6198 220.045 19.9105 220.045 19.1367C220.045 18.363 220.184 17.6537 220.462 17.0089C220.74 16.3641 221.127 15.8036 221.623 15.3274C222.119 14.8414 222.699 14.4694 223.364 14.2114C224.038 13.9436 224.772 13.8097 225.566 13.8097C226.369 13.8097 227.108 13.9486 227.783 14.2263C228.467 14.4942 229.048 14.8959 229.524 15.4316L228.557 16.369C228.16 15.9524 227.713 15.6449 227.217 15.4465C226.721 15.2382 226.191 15.134 225.625 15.134C225.04 15.134 224.494 15.2332 223.989 15.4316C223.493 15.63 223.061 15.9078 222.694 16.2649C222.327 16.622 222.039 17.0486 221.831 17.5446C221.633 18.0306 221.533 18.5614 221.533 19.1367C221.533 19.7121 221.633 20.2478 221.831 20.7438C222.039 21.2298 222.327 21.6514 222.694 22.0086C223.061 22.3657 223.493 22.6434 223.989 22.8418C224.494 23.0402 225.04 23.1394 225.625 23.1394C226.191 23.1394 226.721 23.0402 227.217 22.8418C227.713 22.6335 228.16 22.3161 228.557 21.8895L229.524 22.827C229.048 23.3626 228.467 23.7694 227.783 24.0471C227.108 24.3249 226.364 24.4638 225.551 24.4638ZM233.323 24.3447V15.2233H229.751V13.9287H238.367V15.2233H234.796V24.3447H233.323ZM244.114 24.4638C242.745 24.4638 241.669 24.0719 240.885 23.2882C240.101 22.5046 239.709 21.3588 239.709 19.851V13.9287H241.197V19.7914C241.197 20.9521 241.45 21.8002 241.956 22.3359C242.472 22.8716 243.196 23.1394 244.129 23.1394C245.071 23.1394 245.795 22.8716 246.301 22.3359C246.817 21.8002 247.075 20.9521 247.075 19.7914V13.9287H248.518V19.851C248.518 21.3588 248.126 22.5046 247.343 23.2882C246.569 24.0719 245.493 24.4638 244.114 24.4638ZM251.569 24.3447V13.9287H255.631C256.98 13.9287 258.042 14.2511 258.816 14.8959C259.589 15.5308 259.976 16.4186 259.976 17.5594C259.976 18.3134 259.803 18.9631 259.455 19.5087C259.108 20.0444 258.612 20.4561 257.967 20.7438C257.323 21.0314 256.544 21.1753 255.631 21.1753H252.387L253.057 20.4908V24.3447H251.569ZM258.533 24.3447L255.884 20.5652H257.476L260.155 24.3447H258.533ZM253.057 20.6396L252.387 19.9105H255.587C256.539 19.9105 257.258 19.7071 257.744 19.3004C258.24 18.8838 258.488 18.3034 258.488 17.5594C258.488 16.8154 258.24 16.2401 257.744 15.8334C257.258 15.4266 256.539 15.2233 255.587 15.2233H252.387L253.057 14.4793V20.6396ZM260.803 24.3447L265.52 13.9287H266.993L271.725 24.3447H270.162L265.951 14.762H266.547L262.336 24.3447H260.803ZM262.812 21.7407L263.213 20.5503H269.076L269.508 21.7407H262.812ZM273.279 24.3447V13.9287H274.767V23.0502H280.406V24.3447H273.279ZM153.207 44.3447V33.9287H157.879C159.08 33.9287 160.002 34.1718 160.647 34.6578C161.292 35.134 161.614 35.7887 161.614 36.622C161.614 37.1874 161.485 37.6636 161.227 38.0505C160.979 38.4374 160.642 38.735 160.215 38.9433C159.789 39.1516 159.328 39.2558 158.832 39.2558L159.099 38.8094C159.695 38.8094 160.22 38.9135 160.677 39.1218C161.133 39.3302 161.495 39.6377 161.763 40.0444C162.031 40.4412 162.165 40.9372 162.165 41.5324C162.165 42.4252 161.827 43.1196 161.153 43.6156C160.488 44.1017 159.496 44.3447 158.177 44.3447H153.207ZM154.695 43.1394H158.117C158.941 43.1394 159.571 43.0006 160.007 42.7228C160.444 42.445 160.662 42.0086 160.662 41.4134C160.662 40.8082 160.444 40.3668 160.007 40.089C159.571 39.8113 158.941 39.6724 158.117 39.6724H154.561V38.4671H157.745C158.499 38.4671 159.085 38.3282 159.501 38.0505C159.918 37.7727 160.126 37.3561 160.126 36.8006C160.126 36.245 159.918 35.8284 159.501 35.5506C159.085 35.2729 158.499 35.134 157.745 35.134H154.695V43.1394ZM168.784 44.4638C167.415 44.4638 166.339 44.0719 165.555 43.2882C164.771 42.5046 164.379 41.3588 164.379 39.851V33.9287H165.867V39.7914C165.867 40.9521 166.12 41.8002 166.626 42.3359C167.142 42.8716 167.866 43.1394 168.799 43.1394C169.741 43.1394 170.465 42.8716 170.971 42.3359C171.487 41.8002 171.745 40.9521 171.745 39.7914V33.9287H173.188V39.851C173.188 41.3588 172.796 42.5046 172.013 43.2882C171.239 44.0719 170.163 44.4638 168.784 44.4638ZM176.239 44.3447V33.9287H177.727V44.3447H176.239ZM180.845 44.3447V33.9287H182.333V43.0502H187.973V44.3447H180.845ZM189.68 44.3447V33.9287H194.07C195.181 33.9287 196.158 34.147 197.001 34.5834C197.854 35.0199 198.514 35.63 198.98 36.4137C199.457 37.1974 199.695 38.105 199.695 39.1367C199.695 40.1684 199.457 41.0761 198.98 41.8598C198.514 42.6434 197.854 43.2535 197.001 43.69C196.158 44.1265 195.181 44.3447 194.07 44.3447H189.68ZM191.168 43.0502H193.981C194.844 43.0502 195.588 42.8865 196.213 42.5591C196.848 42.2318 197.339 41.7754 197.686 41.1902C198.033 40.595 198.207 39.9105 198.207 39.1367C198.207 38.353 198.033 37.6686 197.686 37.0833C197.339 36.498 196.848 36.0417 196.213 35.7143C195.588 35.387 194.844 35.2233 193.981 35.2233H191.168V43.0502ZM201.974 44.3447V33.9287H203.462V44.3447H201.974ZM206.58 44.3447V33.9287H207.8L214.69 42.4847H214.05V33.9287H215.538V44.3447H214.318L207.428 35.7887H208.068V44.3447H206.58ZM223.358 44.4638C222.554 44.4638 221.815 44.3348 221.141 44.0769C220.466 43.809 219.881 43.437 219.385 42.9609C218.889 42.4748 218.502 41.9094 218.224 41.2646C217.946 40.6198 217.808 39.9105 217.808 39.1367C217.808 38.363 217.946 37.6537 218.224 37.0089C218.502 36.3641 218.889 35.8036 219.385 35.3274C219.891 34.8414 220.481 34.4694 221.156 34.2114C221.83 33.9436 222.574 33.8097 223.388 33.8097C224.211 33.8097 224.965 33.9436 225.649 34.2114C226.334 34.4793 226.914 34.881 227.39 35.4167L226.468 36.3393C226.041 35.9226 225.575 35.6201 225.069 35.4316C224.573 35.2332 224.032 35.134 223.447 35.134C222.852 35.134 222.296 35.2332 221.78 35.4316C221.275 35.63 220.833 35.9078 220.456 36.2649C220.089 36.622 219.801 37.0486 219.593 37.5446C219.395 38.0306 219.296 38.5614 219.296 39.1367C219.296 39.7022 219.395 40.2329 219.593 40.7289C219.801 41.215 220.089 41.6415 220.456 42.0086C220.833 42.3657 221.275 42.6434 221.78 42.8418C222.286 43.0402 222.837 43.1394 223.432 43.1394C223.988 43.1394 224.518 43.0551 225.024 42.8865C225.54 42.7079 226.016 42.4153 226.453 42.0086L227.301 43.1394C226.785 43.5759 226.18 43.9082 225.486 44.1364C224.801 44.3546 224.092 44.4638 223.358 44.4638ZM227.301 43.1394L225.872 42.946V39.0772H227.301V43.1394ZM237.182 44.4638C236.388 44.4638 235.629 44.3447 234.905 44.1066C234.181 43.8586 233.61 43.5412 233.194 43.1543L233.744 41.9937C234.141 42.3409 234.647 42.6286 235.262 42.8567C235.877 43.0849 236.517 43.199 237.182 43.199C237.787 43.199 238.278 43.1295 238.655 42.9906C239.032 42.8518 239.309 42.6633 239.488 42.4252C239.666 42.1772 239.756 41.8994 239.756 41.5919C239.756 41.2348 239.637 40.9471 239.399 40.7289C239.17 40.5106 238.868 40.337 238.491 40.2081C238.124 40.0692 237.717 39.9502 237.271 39.851C236.824 39.7518 236.373 39.6377 235.917 39.5087C235.47 39.3698 235.059 39.1962 234.682 38.9879C234.315 38.7796 234.017 38.5018 233.789 38.1546C233.561 37.7975 233.447 37.3412 233.447 36.7857C233.447 36.25 233.586 35.759 233.863 35.3126C234.151 34.8562 234.587 34.4942 235.173 34.2263C235.768 33.9486 236.522 33.8097 237.434 33.8097C238.04 33.8097 238.64 33.889 239.235 34.0478C239.83 34.2065 240.346 34.4346 240.782 34.7322L240.291 35.9226C239.845 35.625 239.374 35.4118 238.878 35.2828C238.382 35.1439 237.901 35.0745 237.434 35.0745C236.849 35.0745 236.368 35.1489 235.991 35.2977C235.614 35.4465 235.336 35.6449 235.158 35.8929C234.989 36.1409 234.905 36.4186 234.905 36.7262C234.905 37.0932 235.019 37.3858 235.247 37.6041C235.485 37.8223 235.788 37.9959 236.155 38.1249C236.532 38.2538 236.943 38.3729 237.39 38.482C237.836 38.5812 238.283 38.6953 238.729 38.8242C239.185 38.9532 239.597 39.1218 239.964 39.3302C240.341 39.5385 240.644 39.8162 240.872 40.1634C241.1 40.5106 241.214 40.957 241.214 41.5026C241.214 42.0284 241.07 42.5194 240.782 42.9758C240.495 43.4222 240.048 43.7842 239.443 44.062C238.848 44.3298 238.094 44.4638 237.182 44.4638ZM245.685 44.3447V40.3569L246.027 41.2794L241.548 33.9287H243.14L246.905 40.1337H246.042L249.821 33.9287H251.294L246.83 41.2794L247.158 40.3569V44.3447H245.685ZM255.622 44.4638C254.828 44.4638 254.069 44.3447 253.345 44.1066C252.621 43.8586 252.05 43.5412 251.634 43.1543L252.184 41.9937C252.581 42.3409 253.087 42.6286 253.702 42.8567C254.317 43.0849 254.957 43.199 255.622 43.199C256.227 43.199 256.718 43.1295 257.095 42.9906C257.472 42.8518 257.75 42.6633 257.928 42.4252C258.107 42.1772 258.196 41.8994 258.196 41.5919C258.196 41.2348 258.077 40.9471 257.839 40.7289C257.611 40.5106 257.308 40.337 256.931 40.2081C256.564 40.0692 256.157 39.9502 255.711 39.851C255.265 39.7518 254.813 39.6377 254.357 39.5087C253.91 39.3698 253.499 39.1962 253.122 38.9879C252.755 38.7796 252.457 38.5018 252.229 38.1546C252.001 37.7975 251.887 37.3412 251.887 36.7857C251.887 36.25 252.026 35.759 252.303 35.3126C252.591 34.8562 253.028 34.4942 253.613 34.2263C254.208 33.9486 254.962 33.8097 255.875 33.8097C256.48 33.8097 257.08 33.889 257.675 34.0478C258.27 34.2065 258.786 34.4346 259.223 34.7322L258.732 35.9226C258.285 35.625 257.814 35.4118 257.318 35.2828C256.822 35.1439 256.341 35.0745 255.875 35.0745C255.289 35.0745 254.808 35.1489 254.431 35.2977C254.054 35.4465 253.777 35.6449 253.598 35.8929C253.429 36.1409 253.345 36.4186 253.345 36.7262C253.345 37.0932 253.459 37.3858 253.687 37.6041C253.925 37.8223 254.228 37.9959 254.595 38.1249C254.972 38.2538 255.384 38.3729 255.83 38.482C256.276 38.5812 256.723 38.6953 257.169 38.8242C257.626 38.9532 258.037 39.1218 258.404 39.3302C258.781 39.5385 259.084 39.8162 259.312 40.1634C259.54 40.5106 259.654 40.957 259.654 41.5026C259.654 42.0284 259.51 42.5194 259.223 42.9758C258.935 43.4222 258.489 43.7842 257.883 44.062C257.288 44.3298 256.534 44.4638 255.622 44.4638ZM263.751 44.3447V35.2233H260.18V33.9287H268.795V35.2233H265.224V44.3447H263.751ZM270.416 44.3447V33.9287H277.767V35.2233H271.904V43.0502H277.975V44.3447H270.416ZM271.77 39.6873V38.4225H277.127V39.6873H271.77ZM280.384 44.3447V33.9287H281.605L286.277 41.8002H285.622L290.235 33.9287H291.455L291.47 44.3447H290.042L290.027 36.1756H290.369L286.262 43.0799H285.578L281.441 36.1756H281.813V44.3447H280.384ZM297.632 44.4638C296.838 44.4638 296.079 44.3447 295.355 44.1066C294.631 43.8586 294.06 43.5412 293.644 43.1543L294.194 41.9937C294.591 42.3409 295.097 42.6286 295.712 42.8567C296.327 43.0849 296.967 43.199 297.632 43.199C298.237 43.199 298.728 43.1295 299.105 42.9906C299.482 42.8518 299.759 42.6633 299.938 42.4252C300.116 42.1772 300.206 41.8994 300.206 41.5919C300.206 41.2348 300.087 40.9471 299.849 40.7289C299.62 40.5106 299.318 40.337 298.941 40.2081C298.574 40.0692 298.167 39.9502 297.721 39.851C297.274 39.7518 296.823 39.6377 296.367 39.5087C295.92 39.3698 295.509 39.1962 295.132 38.9879C294.765 38.7796 294.467 38.5018 294.239 38.1546C294.011 37.7975 293.897 37.3412 293.897 36.7857C293.897 36.25 294.036 35.759 294.313 35.3126C294.601 34.8562 295.037 34.4942 295.623 34.2263C296.218 33.9486 296.972 33.8097 297.884 33.8097C298.49 33.8097 299.09 33.889 299.685 34.0478C300.28 34.2065 300.796 34.4346 301.232 34.7322L300.741 35.9226C300.295 35.625 299.824 35.4118 299.328 35.2828C298.832 35.1439 298.351 35.0745 297.884 35.0745C297.299 35.0745 296.818 35.1489 296.441 35.2977C296.064 35.4465 295.786 35.6449 295.608 35.8929C295.439 36.1409 295.355 36.4186 295.355 36.7262C295.355 37.0932 295.469 37.3858 295.697 37.6041C295.935 37.8223 296.238 37.9959 296.605 38.1249C296.982 38.2538 297.393 38.3729 297.84 38.482C298.286 38.5812 298.733 38.6953 299.179 38.8242C299.635 38.9532 300.047 39.1218 300.414 39.3302C300.791 39.5385 301.094 39.8162 301.322 40.1634C301.55 40.5106 301.664 40.957 301.664 41.5026C301.664 42.0284 301.52 42.5194 301.232 42.9758C300.945 43.4222 300.498 43.7842 299.893 44.062C299.298 44.3298 298.544 44.4638 297.632 44.4638Z" fill="#666666"/>
<line x1="134.97" y1="57.4919" x2="134.81" y2="0.00254885" stroke="#1DD45A" stroke-width="1.92"/>
<path d="M114.002 48.3747C111.045 48.3747 108.76 47.6187 107.147 46.1067C105.535 44.5611 104.728 42.2931 104.728 39.3027V15.1611H111.028V39.1515C111.028 40.4283 111.347 41.4195 111.986 42.1251C112.658 42.8307 113.582 43.1835 114.758 43.1835C116.169 43.1835 117.345 42.8139 118.286 42.0747L120.05 46.5603C119.311 47.1651 118.403 47.6187 117.328 47.9211C116.253 48.2235 115.144 48.3747 114.002 48.3747ZM100.293 26.1483V21.1083H118.235V26.1483H100.293Z" fill="black"/>
<path fill-rule="evenodd" clip-rule="evenodd" d="M90.8177 21.1095V48.0231H97.1177V21.1095H90.8177Z" fill="black"/>
<path d="M93.9929 16.6743C92.8169 16.6743 91.8425 16.3047 91.0697 15.5655C90.3305 14.8263 89.9609 13.9359 89.9609 12.8943C89.9609 11.8191 90.3305 10.9287 91.0697 10.2231C91.8425 9.48386 92.8169 9.11426 93.9929 9.11426C95.1689 9.11426 96.1265 9.46706 96.8657 10.1727C97.6385 10.8447 98.0249 11.7015 98.0249 12.7431C98.0249 13.8519 97.6553 14.7927 96.9161 15.5655C96.1769 16.3047 95.2025 16.6743 93.9929 16.6743Z" fill="#1DD45A"/>
<path d="M63.2852 48.022V44.0404L79.8668 23.9812L81.026 26.1484H63.5876V21.1084H86.066V25.09L69.4844 45.1492L68.2244 42.982H86.5196V48.022H63.2852Z" fill="black"/>
<path fill-rule="evenodd" clip-rule="evenodd" d="M52.4466 21.1095V48.0231H58.7466V21.1095H52.4466Z" fill="black"/>
<path d="M55.6218 16.6743C54.4458 16.6743 53.4714 16.3047 52.6986 15.5655C51.9594 14.8263 51.5898 13.9359 51.5898 12.8943C51.5898 11.8191 51.9594 10.9287 52.6986 10.2231C53.4714 9.48386 54.4458 9.11426 55.6218 9.11426C56.7978 9.11426 57.7554 9.46706 58.4946 10.1727C59.2674 10.8447 59.6538 11.7015 59.6538 12.7431C59.6538 13.8519 59.2842 14.7927 58.545 15.5655C57.8058 16.3047 56.8314 16.6743 55.6218 16.6743Z" fill="#1DD45A"/>
<path d="M33.0391 48.0226V21.109H39.0367V28.5178L38.3311 26.3506C39.1375 24.5362 40.3975 23.1586 42.1111 22.2178C43.8583 21.277 46.0255 20.8066 48.6127 20.8066V26.8042C48.3439 26.737 48.0919 26.7034 47.8567 26.7034C47.6215 26.6698 47.3863 26.653 47.1511 26.653C44.7655 26.653 42.8671 27.3586 41.4559 28.7698C40.0447 30.1474 39.3391 32.2138 39.3391 34.969V48.0226H33.0391Z" fill="black"/>
<path d="M14.9184 48.3756C12.6336 48.3756 10.6008 47.8716 8.82 46.8636C7.0392 45.8556 5.628 44.3436 4.5864 42.3276C3.5784 40.278 3.0744 37.6908 3.0744 34.566C3.0744 31.4076 3.5952 28.8204 4.6368 26.8044C5.712 24.7884 7.14 23.2932 8.9208 22.3188C10.7352 21.3108 12.7344 20.8068 14.9184 20.8068C17.5728 20.8068 19.908 21.378 21.924 22.5204C23.9736 23.6628 25.5864 25.2588 26.7624 27.3084C27.972 29.358 28.5768 31.7772 28.5768 34.566C28.5768 37.3548 27.972 39.774 26.7624 41.8236C25.5864 43.8732 23.9736 45.486 21.924 46.662C19.908 47.8044 17.5728 48.3756 14.9184 48.3756ZM0 48.0228V10.626H6.3V27.3588L5.796 34.5156L5.9976 41.6724V48.0228H0ZM14.2128 42.9828C15.7248 42.9828 17.0688 42.6468 18.2448 41.9748C19.4544 41.3028 20.412 40.3284 21.1176 39.0516C21.8232 37.7748 22.176 36.2796 22.176 34.566C22.176 32.8188 21.8232 31.3236 21.1176 30.0804C20.412 28.8036 19.4544 27.8292 18.2448 27.1572C17.0688 26.4852 15.7248 26.1492 14.2128 26.1492C12.7008 26.1492 11.34 26.4852 10.1304 27.1572C8.9208 27.8292 7.9632 28.8036 7.2576 30.0804C6.552 31.3236 6.1992 32.8188 6.1992 34.566C6.1992 36.2796 6.552 37.7748 7.2576 39.0516C7.9632 40.3284 8.9208 41.3028 10.1304 41.9748C11.34 42.6468 12.7008 42.9828 14.2128 42.9828Z" fill="black"/>
</svg>
