<svg width="3225" height="614" viewBox="0 0 3225 614" fill="none" xmlns="http://www.w3.org/2000/svg">
<path d="M1617.36 255.01L1667.68 143.906H1683.39L1733.87 255.01H1717.2L1672.28 152.794H1678.63L1633.71 255.01H1617.36ZM1638.79 227.234L1643.08 214.536H1705.61L1710.22 227.234H1638.79ZM1750.44 255.01V143.906H1793.77C1808.16 143.906 1819.48 147.345 1827.74 154.223C1835.99 160.995 1840.12 170.465 1840.12 182.633C1840.12 190.675 1838.26 197.606 1834.56 203.426C1830.86 209.14 1825.57 213.531 1818.69 216.6C1811.81 219.668 1803.5 221.202 1793.77 221.202H1759.17L1766.31 213.901V255.01H1750.44ZM1824.72 255.01L1796.47 214.695H1813.45L1842.02 255.01H1824.72ZM1766.31 215.488L1759.17 207.711H1793.29C1803.45 207.711 1811.12 205.542 1816.31 201.204C1821.6 196.76 1824.24 190.569 1824.24 182.633C1824.24 174.697 1821.6 168.56 1816.31 164.222C1811.12 159.884 1803.45 157.714 1793.29 157.714H1759.17L1766.31 149.778V215.488ZM1915.44 256.28C1906.97 256.28 1899.14 254.904 1891.95 252.153C1884.86 249.296 1878.67 245.328 1873.38 240.249C1868.19 235.064 1864.12 229.033 1861.16 222.155C1858.19 215.277 1856.71 207.711 1856.71 199.458C1856.71 191.204 1858.19 183.639 1861.16 176.761C1864.12 169.883 1868.25 163.904 1873.54 158.825C1878.83 153.641 1885.02 149.673 1892.11 146.921C1899.3 144.064 1907.13 142.636 1915.6 142.636C1924.17 142.636 1932.05 144.117 1939.25 147.08C1946.55 149.937 1952.74 154.223 1957.82 159.936L1947.5 169.936C1943.27 165.492 1938.51 162.211 1933.22 160.095C1927.92 157.873 1922.26 156.762 1916.23 156.762C1909.99 156.762 1904.17 157.82 1898.77 159.936C1893.48 162.053 1888.88 165.016 1884.96 168.825C1881.05 172.634 1877.98 177.184 1875.76 182.475C1873.64 187.66 1872.58 193.321 1872.58 199.458C1872.58 205.595 1873.64 211.309 1875.76 216.6C1877.98 221.784 1881.05 226.281 1884.96 230.091C1888.88 233.9 1893.48 236.863 1898.77 238.979C1904.17 241.095 1909.99 242.153 1916.23 242.153C1922.26 242.153 1927.92 241.095 1933.22 238.979C1938.51 236.757 1943.27 233.371 1947.5 228.821L1957.82 238.82C1952.74 244.534 1946.55 248.873 1939.25 251.835C1932.05 254.798 1924.12 256.28 1915.44 256.28ZM2058.59 255.01V143.906H2074.46V255.01H2058.59ZM1978.91 255.01V143.906H1994.78V255.01H1978.91ZM1993.19 205.489V191.68H2060.01V205.489H1993.19ZM2107.71 255.01V143.906H2123.59V255.01H2107.71ZM2178.91 255.01V157.714H2140.82V143.906H2232.72V157.714H2194.62V255.01H2178.91ZM2250 255.01V143.906H2328.41V157.714H2265.88V241.201H2330.63V255.01H2250ZM2264.45 205.33V191.839H2321.59V205.33H2264.45ZM2405.86 256.28C2397.39 256.28 2389.56 254.904 2382.37 252.153C2375.28 249.296 2369.09 245.328 2363.8 240.249C2358.61 235.064 2354.54 229.033 2351.58 222.155C2348.61 215.277 2347.13 207.711 2347.13 199.458C2347.13 191.204 2348.61 183.639 2351.58 176.761C2354.54 169.883 2358.67 163.904 2363.96 158.825C2369.25 153.641 2375.44 149.673 2382.53 146.921C2389.72 144.064 2397.55 142.636 2406.02 142.636C2414.59 142.636 2422.47 144.117 2429.67 147.08C2436.97 149.937 2443.16 154.223 2448.24 159.936L2437.92 169.936C2433.69 165.492 2428.93 162.211 2423.64 160.095C2418.34 157.873 2412.68 156.762 2406.65 156.762C2400.41 156.762 2394.59 157.82 2389.19 159.936C2383.9 162.053 2379.3 165.016 2375.38 168.825C2371.47 172.634 2368.4 177.184 2366.18 182.475C2364.06 187.66 2363 193.321 2363 199.458C2363 205.595 2364.06 211.309 2366.18 216.6C2368.4 221.784 2371.47 226.281 2375.38 230.091C2379.3 233.9 2383.9 236.863 2389.19 238.979C2394.59 241.095 2400.41 242.153 2406.65 242.153C2412.68 242.153 2418.34 241.095 2423.64 238.979C2428.93 236.757 2433.69 233.371 2437.92 228.821L2448.24 238.82C2443.16 244.534 2436.97 248.873 2429.67 251.835C2422.47 254.798 2414.54 256.28 2405.86 256.28ZM2488.76 255.01V157.714H2450.66V143.906H2542.56V157.714H2504.47V255.01H2488.76ZM2603.86 256.28C2589.26 256.28 2577.78 252.1 2569.42 243.741C2561.06 235.381 2556.88 223.16 2556.88 207.076V143.906H2572.75V206.441C2572.75 218.822 2575.45 227.869 2580.85 233.583C2586.35 239.296 2594.08 242.153 2604.02 242.153C2614.07 242.153 2621.8 239.296 2627.19 233.583C2632.7 227.869 2635.45 218.822 2635.45 206.441V143.906H2650.84V207.076C2650.84 223.16 2646.66 235.381 2638.31 243.741C2630.05 252.1 2618.57 256.28 2603.86 256.28ZM2683.38 255.01V143.906H2726.71C2741.11 143.906 2752.43 147.345 2760.68 154.223C2768.93 160.995 2773.06 170.465 2773.06 182.633C2773.06 190.675 2771.21 197.606 2767.51 203.426C2763.8 209.14 2758.51 213.531 2751.63 216.6C2744.76 219.668 2736.45 221.202 2726.71 221.202H2692.11L2699.26 213.901V255.01H2683.38ZM2757.67 255.01L2729.41 214.695H2746.4L2774.97 255.01H2757.67ZM2699.26 215.488L2692.11 207.711H2726.24C2736.4 207.711 2744.07 205.542 2749.25 201.204C2754.54 196.76 2757.19 190.569 2757.19 182.633C2757.19 174.697 2754.54 168.56 2749.25 164.222C2744.07 159.884 2736.4 157.714 2726.24 157.714H2692.11L2699.26 149.778V215.488ZM2781.88 255.01L2832.19 143.906H2847.91L2898.38 255.01H2881.71L2836.8 152.794H2843.15L2798.23 255.01H2781.88ZM2803.31 227.234L2807.59 214.536H2870.13L2874.73 227.234H2803.31ZM2914.95 255.01V143.906H2930.83V241.201H2990.98V255.01H2914.95ZM1634.19 472.01V360.906H1684.03C1696.83 360.906 1706.67 363.498 1713.55 368.683C1720.43 373.762 1723.87 380.746 1723.87 389.634C1723.87 395.665 1722.49 400.744 1719.74 404.871C1717.09 408.998 1713.5 412.172 1708.95 414.394C1704.4 416.616 1699.48 417.728 1694.19 417.728L1697.04 412.966C1703.39 412.966 1709 414.077 1713.87 416.299C1718.73 418.521 1722.6 421.801 1725.45 426.14C1728.31 430.372 1729.74 435.663 1729.74 442.012C1729.74 451.535 1726.14 458.942 1718.95 464.232C1711.86 469.417 1701.27 472.01 1687.2 472.01H1634.19ZM1650.06 459.153H1686.57C1695.35 459.153 1702.07 457.672 1706.72 454.709C1711.38 451.747 1713.71 447.091 1713.71 440.742C1713.71 434.287 1711.38 429.579 1706.72 426.616C1702.07 423.653 1695.35 422.172 1686.57 422.172H1648.63V409.315H1682.6C1690.64 409.315 1696.88 407.834 1701.33 404.871C1705.77 401.908 1707.99 397.464 1707.99 391.539C1707.99 385.613 1705.77 381.169 1701.33 378.206C1696.88 375.243 1690.64 373.762 1682.6 373.762H1650.06V459.153ZM1800.34 473.28C1785.74 473.28 1774.26 469.1 1765.9 460.741C1757.54 452.381 1753.36 440.16 1753.36 424.076V360.906H1769.23V423.441C1769.23 435.822 1771.93 444.869 1777.33 450.583C1782.83 456.296 1790.56 459.153 1800.5 459.153C1810.55 459.153 1818.28 456.296 1823.67 450.583C1829.18 444.869 1831.93 435.822 1831.93 423.441V360.906H1847.32V424.076C1847.32 440.16 1843.14 452.381 1834.79 460.741C1826.53 469.1 1815.05 473.28 1800.34 473.28ZM1879.86 472.01V360.906H1895.74V472.01H1879.86ZM1929 472.01V360.906H1944.87V458.201H2005.03V472.01H1929ZM2023.24 472.01V360.906H2070.06C2081.91 360.906 2092.34 363.234 2101.33 367.889C2110.43 372.545 2117.47 379.053 2122.44 387.412C2127.52 395.771 2130.06 405.453 2130.06 416.458C2130.06 427.462 2127.52 437.144 2122.44 445.504C2117.47 453.863 2110.43 460.37 2101.33 465.026C2092.34 469.682 2081.91 472.01 2070.06 472.01H2023.24ZM2039.11 458.201H2069.11C2078.31 458.201 2086.25 456.455 2092.92 452.963C2099.69 449.472 2104.93 444.604 2108.63 438.361C2112.33 432.012 2114.19 424.711 2114.19 416.458C2114.19 408.099 2112.33 400.797 2108.63 394.554C2104.93 388.311 2099.69 383.444 2092.92 379.952C2086.25 376.46 2078.31 374.714 2069.11 374.714H2039.11V458.201ZM2154.37 472.01V360.906H2170.24V472.01H2154.37ZM2203.5 472.01V360.906H2216.52L2290.01 452.17H2283.18V360.906H2299.05V472.01H2286.04L2212.55 380.746H2219.38V472.01H2203.5ZM2382.46 473.28C2373.89 473.28 2366.01 471.904 2358.82 469.153C2351.62 466.296 2345.38 462.328 2340.09 457.249C2334.8 452.064 2330.67 446.033 2327.71 439.155C2324.74 432.277 2323.26 424.711 2323.26 416.458C2323.26 408.204 2324.74 400.639 2327.71 393.761C2330.67 386.883 2334.8 380.904 2340.09 375.825C2345.48 370.641 2351.78 366.673 2358.97 363.921C2366.17 361.064 2374.11 359.636 2382.78 359.636C2391.56 359.636 2399.61 361.064 2406.91 363.921C2414.21 366.778 2420.4 371.064 2425.48 376.778L2415.64 386.618C2411.09 382.174 2406.11 378.947 2400.72 376.936C2395.43 374.82 2389.66 373.762 2383.42 373.762C2377.07 373.762 2371.14 374.82 2365.64 376.936C2360.24 379.053 2355.54 382.016 2351.51 385.825C2347.6 389.634 2344.53 394.184 2342.31 399.475C2340.19 404.66 2339.13 410.321 2339.13 416.458C2339.13 422.489 2340.19 428.15 2342.31 433.441C2344.53 438.626 2347.6 443.176 2351.51 447.091C2355.54 450.9 2360.24 453.863 2365.64 455.979C2371.04 458.095 2376.91 459.153 2383.26 459.153C2389.18 459.153 2394.84 458.254 2400.24 456.455C2405.74 454.551 2410.82 451.429 2415.48 447.091L2424.53 459.153C2419.02 463.809 2412.57 467.354 2405.16 469.788C2397.86 472.116 2390.29 473.28 2382.46 473.28ZM2424.53 459.153L2409.29 457.09V415.823H2424.53V459.153ZM2529.92 473.28C2521.45 473.28 2513.36 472.01 2505.63 469.47C2497.91 466.825 2491.83 463.439 2487.38 459.312L2493.25 446.932C2497.49 450.635 2502.88 453.704 2509.44 456.138C2516 458.571 2522.83 459.788 2529.92 459.788C2536.37 459.788 2541.61 459.048 2545.63 457.566C2549.65 456.085 2552.61 454.074 2554.52 451.535C2556.42 448.89 2557.38 445.927 2557.38 442.647C2557.38 438.837 2556.11 435.769 2553.57 433.441C2551.13 431.113 2547.91 429.261 2543.89 427.886C2539.97 426.404 2535.63 425.134 2530.87 424.076C2526.11 423.018 2521.29 421.801 2516.43 420.426C2511.67 418.944 2507.27 417.093 2503.25 414.871C2499.34 412.648 2496.16 409.686 2493.73 405.982C2491.3 402.173 2490.08 397.306 2490.08 391.38C2490.08 385.666 2491.56 380.428 2494.52 375.667C2497.59 370.799 2502.25 366.937 2508.49 364.08C2514.84 361.117 2522.88 359.636 2532.62 359.636C2539.07 359.636 2545.47 360.483 2551.82 362.176C2558.17 363.869 2563.67 366.302 2568.33 369.477L2563.09 382.174C2558.33 379 2553.3 376.725 2548.01 375.349C2542.72 373.868 2537.59 373.127 2532.62 373.127C2526.37 373.127 2521.24 373.921 2517.22 375.508C2513.2 377.095 2510.24 379.211 2508.33 381.857C2506.53 384.502 2505.63 387.465 2505.63 390.745C2505.63 394.66 2506.85 397.782 2509.28 400.11C2511.82 402.437 2515.05 404.289 2518.97 405.665C2522.99 407.04 2527.38 408.31 2532.14 409.474C2536.9 410.532 2541.66 411.749 2546.42 413.125C2551.29 414.5 2555.68 416.299 2559.6 418.521C2563.62 420.743 2566.85 423.706 2569.28 427.409C2571.71 431.113 2572.93 435.875 2572.93 441.694C2572.93 447.302 2571.4 452.54 2568.33 457.408C2565.26 462.169 2560.5 466.031 2554.04 468.994C2547.69 471.851 2539.65 473.28 2529.92 473.28ZM2620.62 472.01V429.473L2624.27 439.313L2576.49 360.906H2593.48L2633.63 427.092H2624.43L2664.74 360.906H2680.46L2632.84 439.313L2636.33 429.473V472.01H2620.62ZM2726.61 473.28C2718.15 473.28 2710.05 472.01 2702.33 469.47C2694.6 466.825 2688.52 463.439 2684.08 459.312L2689.95 446.932C2694.18 450.635 2699.58 453.704 2706.14 456.138C2712.7 458.571 2719.52 459.788 2726.61 459.788C2733.07 459.788 2738.31 459.048 2742.33 457.566C2746.35 456.085 2749.31 454.074 2751.21 451.535C2753.12 448.89 2754.07 445.927 2754.07 442.647C2754.07 438.837 2752.8 435.769 2750.26 433.441C2747.83 431.113 2744.6 429.261 2740.58 427.886C2736.67 426.404 2732.33 425.134 2727.57 424.076C2722.8 423.018 2717.99 421.801 2713.12 420.426C2708.36 418.944 2703.97 417.093 2699.95 414.871C2696.03 412.648 2692.86 409.686 2690.42 405.982C2687.99 402.173 2686.77 397.306 2686.77 391.38C2686.77 385.666 2688.26 380.428 2691.22 375.667C2694.29 370.799 2698.94 366.937 2705.19 364.08C2711.53 361.117 2719.58 359.636 2729.31 359.636C2735.77 359.636 2742.17 360.483 2748.52 362.176C2754.87 363.869 2760.37 366.302 2765.02 369.477L2759.79 382.174C2755.02 379 2750 376.725 2744.71 375.349C2739.42 373.868 2734.28 373.127 2729.31 373.127C2723.07 373.127 2717.94 373.921 2713.92 375.508C2709.89 377.095 2706.93 379.211 2705.03 381.857C2703.23 384.502 2702.33 387.465 2702.33 390.745C2702.33 394.66 2703.55 397.782 2705.98 400.11C2708.52 402.437 2711.75 404.289 2715.66 405.665C2719.68 407.04 2724.07 408.31 2728.84 409.474C2733.6 410.532 2738.36 411.749 2743.12 413.125C2747.99 414.5 2752.38 416.299 2756.29 418.521C2760.31 420.743 2763.54 423.706 2765.98 427.409C2768.41 431.113 2769.63 435.875 2769.63 441.694C2769.63 447.302 2768.09 452.54 2765.02 457.408C2761.95 462.169 2757.19 466.031 2750.74 468.994C2744.39 471.851 2736.35 473.28 2726.61 473.28ZM2813.33 472.01V374.714H2775.23V360.906H2867.13V374.714H2829.04V472.01H2813.33ZM2884.42 472.01V360.906H2962.83V374.714H2900.29V458.201H2965.05V472.01H2884.42ZM2898.86 422.33V408.839H2956V422.33H2898.86ZM2990.75 472.01V360.906H3003.76L3053.6 444.869H3046.62L3095.82 360.906H3108.84L3109 472.01H3093.76L3093.6 384.872H3097.25L3053.44 458.519H3046.14L3002.02 384.872H3005.99V472.01H2990.75ZM3174.72 473.28C3166.25 473.28 3158.16 472.01 3150.43 469.47C3142.71 466.825 3136.63 463.439 3132.18 459.312L3138.05 446.932C3142.29 450.635 3147.68 453.704 3154.24 456.138C3160.8 458.571 3167.63 459.788 3174.72 459.788C3181.17 459.788 3186.41 459.048 3190.43 457.566C3194.45 456.085 3197.41 454.074 3199.32 451.535C3201.22 448.89 3202.18 445.927 3202.18 442.647C3202.18 438.837 3200.91 435.769 3198.37 433.441C3195.93 431.113 3192.71 429.261 3188.69 427.886C3184.77 426.404 3180.43 425.134 3175.67 424.076C3170.91 423.018 3166.09 421.801 3161.23 420.426C3156.47 418.944 3152.07 417.093 3148.05 414.871C3144.14 412.648 3140.96 409.686 3138.53 405.982C3136.1 402.173 3134.88 397.306 3134.88 391.38C3134.88 385.666 3136.36 380.428 3139.32 375.667C3142.39 370.799 3147.05 366.937 3153.29 364.08C3159.64 361.117 3167.68 359.636 3177.42 359.636C3183.87 359.636 3190.27 360.483 3196.62 362.176C3202.97 363.869 3208.47 366.302 3213.13 369.477L3207.89 382.174C3203.13 379 3198.1 376.725 3192.81 375.349C3187.52 373.868 3182.39 373.127 3177.42 373.127C3171.17 373.127 3166.04 373.921 3162.02 375.508C3158 377.095 3155.04 379.211 3153.13 381.857C3151.33 384.502 3150.43 387.465 3150.43 390.745C3150.43 394.66 3151.65 397.782 3154.08 400.11C3156.62 402.437 3159.85 404.289 3163.77 405.665C3167.79 407.04 3172.18 408.31 3176.94 409.474C3181.7 410.532 3186.46 411.749 3191.22 413.125C3196.09 414.5 3200.48 416.299 3204.4 418.521C3208.42 420.743 3211.65 423.706 3214.08 427.409C3216.51 431.113 3217.73 435.875 3217.73 441.694C3217.73 447.302 3216.2 452.54 3213.13 457.408C3210.06 462.169 3205.3 466.031 3198.84 468.994C3192.49 471.851 3184.45 473.28 3174.72 473.28Z" fill="#666666"/>
<line x1="1439.67" y1="613.248" x2="1437.97" y2="0.0281846" stroke="#1DD45A" stroke-width="20.48"/>
<path d="M1216.02 516.005C1184.48 516.005 1160.11 507.941 1142.9 491.813C1125.7 475.327 1117.1 451.135 1117.1 419.237V161.727H1184.3V417.624C1184.3 431.243 1187.7 441.816 1194.51 449.343C1201.68 456.869 1211.54 460.632 1224.08 460.632C1239.13 460.632 1251.68 456.69 1261.71 448.805L1280.53 496.651C1272.64 503.103 1262.97 507.941 1251.5 511.167C1240.03 514.392 1228.2 516.005 1216.02 516.005ZM1069.79 278.923V225.163H1261.17V278.923H1069.79Z" fill="black"/>
<path fill-rule="evenodd" clip-rule="evenodd" d="M968.686 225.164V512.242H1035.89V225.164H968.686Z" fill="black"/>
<path d="M1002.55 177.855C990.011 177.855 979.617 173.912 971.374 166.028C963.489 158.143 959.547 148.645 959.547 137.535C959.547 126.066 963.489 116.568 971.374 109.042C979.617 101.157 990.011 97.2148 1002.55 97.2148C1015.1 97.2148 1025.31 100.978 1033.2 108.504C1041.44 115.672 1045.56 124.812 1045.56 135.922C1045.56 147.749 1041.62 157.784 1033.74 166.028C1025.85 173.912 1015.46 177.855 1002.55 177.855Z" fill="#1DD45A"/>
<path d="M675.035 512.242V469.772L851.906 255.807L864.27 278.924H678.261V225.164H918.03V267.634L741.16 481.599L727.72 458.482H922.869V512.242H675.035Z" fill="black"/>
<path fill-rule="evenodd" clip-rule="evenodd" d="M559.42 225.164V512.242H626.62V225.164H559.42Z" fill="black"/>
<path d="M593.289 177.855C580.745 177.855 570.352 173.912 562.108 166.028C554.224 158.143 550.281 148.645 550.281 137.535C550.281 126.066 554.224 116.568 562.108 109.042C570.352 101.157 580.745 97.2148 593.289 97.2148C605.833 97.2148 616.048 100.978 623.932 108.504C632.176 115.672 636.297 124.812 636.297 135.922C636.297 147.749 632.355 157.784 624.47 166.028C616.585 173.912 606.192 177.855 593.289 177.855Z" fill="#1DD45A"/>
<path d="M352.422 512.241V225.163H416.396V304.19L408.87 281.074C417.472 261.72 430.912 247.025 449.19 236.99C467.827 226.955 490.944 221.938 518.54 221.938V285.912C515.673 285.195 512.985 284.837 510.476 284.837C507.968 284.478 505.459 284.299 502.95 284.299C477.503 284.299 457.254 291.825 442.201 306.878C427.148 321.573 419.622 343.614 419.622 373.003V512.241H352.422Z" fill="black"/>
<path d="M159.13 516.005C134.758 516.005 113.075 510.629 94.08 499.877C75.0848 489.125 60.032 472.997 48.9216 451.493C38.1696 429.631 32.7936 402.034 32.7936 368.703C32.7936 335.013 38.3488 307.416 49.4592 285.912C60.928 264.408 76.16 248.46 95.1552 238.066C114.509 227.314 135.834 221.938 159.13 221.938C187.443 221.938 212.352 228.031 233.856 240.216C255.718 252.402 272.922 269.426 285.466 291.288C298.368 313.151 304.819 338.956 304.819 368.703C304.819 398.45 298.368 424.255 285.466 446.117C272.922 467.98 255.718 485.183 233.856 497.727C212.352 509.912 187.443 516.005 159.13 516.005ZM0 512.242V113.343H67.2V291.826L61.824 368.165L63.9744 444.504V512.242H0ZM151.603 458.482C167.731 458.482 182.067 454.898 194.611 447.73C207.514 440.562 217.728 430.168 225.254 416.549C232.781 402.93 236.544 386.981 236.544 368.703C236.544 350.066 232.781 334.117 225.254 320.856C217.728 307.237 207.514 296.844 194.611 289.676C182.067 282.508 167.731 278.924 151.603 278.924C135.475 278.924 120.96 282.508 108.058 289.676C95.1552 296.844 84.9408 307.237 77.4144 320.856C69.888 334.117 66.1248 350.066 66.1248 368.703C66.1248 386.981 69.888 402.93 77.4144 416.549C84.9408 430.168 95.1552 440.562 108.058 447.73C120.96 454.898 135.475 458.482 151.603 458.482Z" fill="black"/>
</svg>
