<svg width="7382" height="1227" viewBox="0 0 7382 1227" fill="none" xmlns="http://www.w3.org/2000/svg">
<path d="M4166.95 509.024L4267.58 286.816H4299.01L4399.95 509.024H4366.62L4276.79 304.593H4289.48L4199.65 509.024H4166.95ZM4209.81 453.472L4218.38 428.077H4343.45L4352.65 453.472H4209.81ZM4433.1 509.024V286.816H4519.76C4548.54 286.816 4571.19 293.694 4587.69 307.45C4604.2 320.994 4612.45 339.935 4612.45 364.272C4612.45 380.355 4608.75 394.217 4601.34 405.856C4593.94 417.284 4583.36 426.067 4569.6 432.204C4555.84 438.341 4539.23 441.41 4519.76 441.41H4450.56L4464.84 426.807V509.024H4433.1ZM4581.66 509.024L4525.16 428.395H4559.12L4616.26 509.024H4581.66ZM4464.84 429.982L4450.56 414.427H4518.81C4539.13 414.427 4554.47 410.089 4564.84 401.412C4575.42 392.524 4580.71 380.144 4580.71 364.272C4580.71 348.4 4575.42 336.125 4564.84 327.449C4554.47 318.772 4539.13 314.434 4518.81 314.434H4450.56L4464.84 298.562V429.982ZM4763.1 511.564C4746.17 511.564 4730.51 508.813 4716.12 503.31C4701.94 497.597 4689.56 489.661 4678.98 479.502C4668.61 469.133 4660.46 457.07 4654.53 443.314C4648.61 429.559 4645.65 414.427 4645.65 397.92C4645.65 381.414 4648.61 366.282 4654.53 352.526C4660.46 338.771 4668.71 326.814 4679.3 316.656C4689.88 306.286 4702.26 298.35 4716.44 292.848C4730.83 287.134 4746.49 284.277 4763.42 284.277C4780.56 284.277 4796.32 287.24 4810.72 293.165C4825.32 298.879 4837.7 307.45 4847.86 318.878L4827.22 338.877C4818.76 329.988 4809.23 323.428 4798.65 319.195C4788.07 314.751 4776.75 312.529 4764.69 312.529C4752.2 312.529 4740.56 314.645 4729.77 318.878C4719.19 323.11 4709.98 329.036 4702.15 336.654C4694.32 344.273 4688.18 353.373 4683.74 363.954C4679.51 374.324 4677.39 385.646 4677.39 397.92C4677.39 410.195 4679.51 421.623 4683.74 432.204C4688.18 442.574 4694.32 451.568 4702.15 459.186C4709.98 466.805 4719.19 472.73 4729.77 476.963C4740.56 481.196 4752.2 483.312 4764.69 483.312C4776.75 483.312 4788.07 481.196 4798.65 476.963C4809.23 472.519 4818.76 465.747 4827.22 456.647L4847.86 476.646C4837.7 488.073 4825.32 496.75 4810.72 502.676C4796.32 508.601 4780.45 511.564 4763.1 511.564ZM5049.4 509.024V286.816H5081.14V509.024H5049.4ZM4890.04 509.024V286.816H4921.78V509.024H4890.04ZM4918.61 409.983V382.366H5052.25V409.983H4918.61ZM5147.65 509.024V286.816H5179.39V509.024H5147.65ZM5290.04 509.024V314.434H5213.86V286.816H5397.66V314.434H5321.47V509.024H5290.04ZM5432.23 509.024V286.816H5589.05V314.434H5463.97V481.407H5593.49V509.024H5432.23ZM5461.12 409.666V382.683H5575.4V409.666H5461.12ZM5743.94 511.564C5727.01 511.564 5711.35 508.813 5696.96 503.31C5682.78 497.597 5670.4 489.661 5659.82 479.502C5649.45 469.133 5641.3 457.07 5635.37 443.314C5629.45 429.559 5626.49 414.427 5626.49 397.92C5626.49 381.414 5629.45 366.282 5635.37 352.526C5641.3 338.771 5649.55 326.814 5660.14 316.656C5670.72 306.286 5683.1 298.35 5697.28 292.848C5711.67 287.134 5727.33 284.277 5744.26 284.277C5761.4 284.277 5777.16 287.24 5791.56 293.165C5806.16 298.879 5818.54 307.45 5828.7 318.878L5808.06 338.877C5799.6 329.988 5790.07 323.428 5779.49 319.195C5768.91 314.751 5757.59 312.529 5745.53 312.529C5733.04 312.529 5721.4 314.645 5710.61 318.878C5700.03 323.11 5690.82 329.036 5682.99 336.654C5675.16 344.273 5669.02 353.373 5664.58 363.954C5660.35 374.324 5658.23 385.646 5658.23 397.92C5658.23 410.195 5660.35 421.623 5664.58 432.204C5669.02 442.574 5675.16 451.568 5682.99 459.186C5690.82 466.805 5700.03 472.73 5710.61 476.963C5721.4 481.196 5733.04 483.312 5745.53 483.312C5757.59 483.312 5768.91 481.196 5779.49 476.963C5790.07 472.519 5799.6 465.747 5808.06 456.647L5828.7 476.646C5818.54 488.073 5806.16 496.75 5791.56 502.676C5777.16 508.601 5761.29 511.564 5743.94 511.564ZM5909.73 509.024V314.434H5833.55V286.816H6017.35V314.434H5941.16V509.024H5909.73ZM6139.95 511.564C6110.74 511.564 6087.78 503.205 6071.06 486.486C6054.35 469.768 6045.99 445.325 6045.99 413.158V286.816H6077.73V411.888C6077.73 436.648 6083.13 454.742 6093.92 466.17C6104.92 477.598 6120.37 483.312 6140.27 483.312C6160.37 483.312 6175.82 477.598 6186.61 466.17C6197.62 454.742 6203.12 436.648 6203.12 411.888V286.816H6233.91V413.158C6233.91 445.325 6225.55 469.768 6208.83 486.486C6192.33 503.205 6169.36 511.564 6139.95 511.564ZM6298.99 509.024V286.816H6385.65C6414.43 286.816 6437.08 293.694 6453.58 307.45C6470.09 320.994 6478.34 339.935 6478.34 364.272C6478.34 380.355 6474.64 394.217 6467.23 405.856C6459.83 417.284 6449.25 426.067 6435.49 432.204C6421.73 438.341 6405.12 441.41 6385.65 441.41H6316.45L6330.73 426.807V509.024H6298.99ZM6447.55 509.024L6391.05 428.395H6425.01L6482.15 509.024H6447.55ZM6330.73 429.982L6316.45 414.427H6384.7C6405.02 414.427 6420.36 410.089 6430.73 401.412C6441.31 392.524 6446.6 380.144 6446.6 364.272C6446.6 348.4 6441.31 336.125 6430.73 327.449C6420.36 318.772 6405.02 314.434 6384.7 314.434H6316.45L6330.73 298.562V429.982ZM6495.98 509.024L6596.61 286.816H6628.04L6728.98 509.024H6695.65L6605.82 304.593H6618.51L6528.68 509.024H6495.98ZM6538.84 453.472L6547.41 428.077H6672.48L6681.68 453.472H6538.84ZM6762.13 509.024V286.816H6793.87V481.407H6914.18V509.024H6762.13ZM4200.6 945.024V722.816H4300.28C4325.88 722.816 4345.57 728.001 4359.32 738.371C4373.08 748.529 4379.95 762.496 4379.95 780.273C4379.95 792.336 4377.2 802.494 4371.7 810.747C4366.41 819.001 4359.21 825.35 4350.11 829.794C4341.02 834.238 4331.17 836.46 4320.59 836.46L4326.31 826.937C4339 826.937 4350.22 829.159 4359.96 833.603C4369.69 838.047 4377.41 844.608 4383.13 853.284C4388.84 861.749 4391.7 872.331 4391.7 885.028C4391.7 904.075 4384.5 918.889 4370.11 929.47C4355.93 939.84 4334.77 945.024 4306.63 945.024H4200.6ZM4232.34 919.312H4305.36C4322.92 919.312 4336.36 916.349 4345.67 910.423C4354.98 904.498 4359.64 895.186 4359.64 882.489C4359.64 869.58 4354.98 860.162 4345.67 854.237C4336.36 848.311 4322.92 845.348 4305.36 845.348H4229.49V819.636H4297.42C4313.5 819.636 4325.99 816.673 4334.88 810.747C4343.77 804.822 4348.21 795.933 4348.21 784.082C4348.21 772.231 4343.77 763.343 4334.88 757.417C4325.99 751.492 4313.5 748.529 4297.42 748.529H4232.34V919.312ZM4532.91 947.564C4503.7 947.564 4480.74 939.205 4464.02 922.486C4447.31 905.768 4438.95 881.325 4438.95 849.158V722.816H4470.69V847.888C4470.69 872.648 4476.09 890.742 4486.88 902.17C4497.88 913.598 4513.33 919.312 4533.23 919.312C4553.33 919.312 4568.78 913.598 4579.57 902.17C4590.58 890.742 4596.08 872.648 4596.08 847.888V722.816H4626.87V849.158C4626.87 881.325 4618.51 905.768 4601.79 922.486C4585.29 939.205 4562.32 947.564 4532.91 947.564ZM4691.95 945.024V722.816H4723.69V945.024H4691.95ZM4790.22 945.024V722.816H4821.96V917.407H4942.27V945.024H4790.22ZM4978.7 945.024V722.816H5072.35C5096.05 722.816 5116.89 727.472 5134.88 736.784C5153.08 746.095 5167.15 759.11 5177.1 775.829C5187.26 792.547 5192.34 811.911 5192.34 833.92C5192.34 855.93 5187.26 875.293 5177.1 892.012C5167.15 908.73 5153.08 921.745 5134.88 931.057C5116.89 940.369 5096.05 945.024 5072.35 945.024H4978.7ZM5010.44 917.407H5070.44C5088.85 917.407 5104.72 913.915 5118.06 906.932C5131.6 899.948 5142.08 890.213 5149.48 877.727C5156.89 865.03 5160.59 850.427 5160.59 833.92C5160.59 817.202 5156.89 802.6 5149.48 790.114C5142.08 777.628 5131.6 767.893 5118.06 760.909C5104.72 753.926 5088.85 750.434 5070.44 750.434H5010.44V917.407ZM5240.96 945.024V722.816H5272.7V945.024H5240.96ZM5339.23 945.024V722.816H5365.26L5512.24 905.344H5498.59V722.816H5530.33V945.024H5504.3L5357.32 762.496H5370.97V945.024H5339.23ZM5697.15 947.564C5680.01 947.564 5664.24 944.813 5649.85 939.31C5635.46 933.597 5622.98 925.661 5612.4 915.502C5601.81 905.133 5593.56 893.07 5587.63 879.314C5581.71 865.559 5578.75 850.427 5578.75 833.92C5578.75 817.414 5581.71 802.282 5587.63 788.526C5593.56 774.771 5601.81 762.814 5612.4 752.656C5623.19 742.286 5635.78 734.35 5650.17 728.848C5664.56 723.134 5680.43 720.277 5697.79 720.277C5715.35 720.277 5731.44 723.134 5746.04 728.848C5760.64 734.562 5773.02 743.133 5783.18 754.56L5763.5 774.242C5754.4 765.353 5744.45 758.899 5733.66 754.878C5723.08 750.645 5711.54 748.529 5699.06 748.529C5686.36 748.529 5674.51 750.645 5663.5 754.878C5652.71 759.11 5643.29 765.036 5635.25 772.654C5627.42 780.273 5621.28 789.373 5616.84 799.954C5612.61 810.324 5610.49 821.646 5610.49 833.92C5610.49 845.983 5612.61 857.305 5616.84 867.886C5621.28 878.256 5627.42 887.356 5635.25 895.186C5643.29 902.805 5652.71 908.73 5663.5 912.963C5674.3 917.196 5686.04 919.312 5698.74 919.312C5710.59 919.312 5721.91 917.513 5732.71 913.915C5743.71 910.106 5753.87 903.863 5763.18 895.186L5781.27 919.312C5770.27 928.623 5757.36 935.713 5742.55 940.58C5727.94 945.236 5712.81 947.564 5697.15 947.564ZM5781.27 919.312L5750.8 915.185V832.651H5781.27V919.312ZM5992.06 947.564C5975.13 947.564 5958.94 945.024 5943.49 939.945C5928.04 934.655 5915.87 927.883 5906.98 919.629L5918.73 894.869C5927.19 902.276 5937.99 908.413 5951.11 913.28C5964.23 918.148 5977.88 920.582 5992.06 920.582C6004.97 920.582 6015.44 919.1 6023.49 916.137C6031.53 913.175 6037.45 909.154 6041.26 904.075C6045.07 898.784 6046.98 892.858 6046.98 886.298C6046.98 878.679 6044.44 872.542 6039.36 867.886C6034.49 863.231 6028.04 859.527 6019.99 856.776C6012.16 853.813 6003.49 851.274 5993.96 849.158C5984.44 847.041 5974.81 844.608 5965.08 841.856C5955.55 838.894 5946.77 835.19 5938.73 830.746C5930.9 826.302 5924.55 820.376 5919.68 812.969C5914.81 805.351 5912.38 795.616 5912.38 783.765C5912.38 772.337 5915.34 761.862 5921.27 752.338C5927.41 742.603 5936.72 734.879 5949.2 729.165C5961.9 723.24 5977.99 720.277 5997.46 720.277C6010.36 720.277 6023.17 721.97 6035.87 725.356C6048.56 728.742 6059.57 733.609 6068.88 739.958L6058.4 765.353C6048.88 759.005 6038.83 754.455 6028.25 751.703C6017.67 748.741 6007.4 747.259 5997.46 747.259C5984.97 747.259 5974.71 748.846 5966.66 752.021C5958.62 755.195 5952.7 759.428 5948.89 764.718C5945.29 770.009 5943.49 775.935 5943.49 782.495C5943.49 790.325 5945.92 796.568 5950.79 801.224C5955.87 805.88 5962.33 809.583 5970.16 812.334C5978.2 815.086 5986.98 817.625 5996.5 819.953C6006.03 822.069 6015.55 824.503 6025.07 827.254C6034.81 830.005 6043.59 833.603 6051.42 838.047C6059.46 842.491 6065.92 848.417 6070.78 855.824C6075.65 863.231 6078.08 872.754 6078.08 884.393C6078.08 895.61 6075.02 906.085 6068.88 915.82C6062.74 925.343 6053.22 933.068 6040.31 938.993C6027.61 944.707 6011.53 947.564 5992.06 947.564ZM6173.46 945.024V859.95L6180.76 879.632L6085.21 722.816H6119.18L6199.49 855.189H6181.08L6261.71 722.816H6293.13L6197.9 879.632L6204.88 859.95V945.024H6173.46ZM6385.45 947.564C6368.52 947.564 6352.33 945.024 6336.88 939.945C6321.43 934.655 6309.26 927.883 6300.37 919.629L6312.12 894.869C6320.59 902.276 6331.38 908.413 6344.5 913.28C6357.62 918.148 6371.27 920.582 6385.45 920.582C6398.36 920.582 6408.83 919.1 6416.88 916.137C6424.92 913.175 6430.84 909.154 6434.65 904.075C6438.46 898.784 6440.37 892.858 6440.37 886.298C6440.37 878.679 6437.83 872.542 6432.75 867.886C6427.88 863.231 6421.43 859.527 6413.38 856.776C6405.55 853.813 6396.88 851.274 6387.35 849.158C6377.83 847.041 6368.2 844.608 6358.47 841.856C6348.94 838.894 6340.16 835.19 6332.12 830.746C6324.29 826.302 6317.94 820.376 6313.07 812.969C6308.2 805.351 6305.77 795.616 6305.77 783.765C6305.77 772.337 6308.73 761.862 6314.66 752.338C6320.8 742.603 6330.11 734.879 6342.59 729.165C6355.29 723.24 6371.38 720.277 6390.85 720.277C6403.75 720.277 6416.56 721.97 6429.26 725.356C6441.95 728.742 6452.96 733.609 6462.27 739.958L6451.79 765.353C6442.27 759.005 6432.22 754.455 6421.64 751.703C6411.06 748.741 6400.79 747.259 6390.85 747.259C6378.36 747.259 6368.1 748.846 6360.05 752.021C6352.01 755.195 6346.09 759.428 6342.28 764.718C6338.68 770.009 6336.88 775.935 6336.88 782.495C6336.88 790.325 6339.31 796.568 6344.18 801.224C6349.26 805.88 6355.72 809.583 6363.55 812.334C6371.59 815.086 6380.37 817.625 6389.89 819.953C6399.42 822.069 6408.94 824.503 6418.46 827.254C6428.2 830.005 6436.98 833.603 6444.81 838.047C6452.85 842.491 6459.31 848.417 6464.17 855.824C6469.04 863.231 6471.47 872.754 6471.47 884.393C6471.47 895.61 6468.41 906.085 6462.27 915.82C6456.13 925.343 6446.61 933.068 6433.7 938.993C6421 944.707 6404.92 947.564 6385.45 947.564ZM6558.88 945.024V750.434H6482.69V722.816H6666.49V750.434H6590.3V945.024H6558.88ZM6701.06 945.024V722.816H6857.88V750.434H6732.8V917.407H6862.32V945.024H6701.06ZM6729.95 845.666V818.683H6844.23V845.666H6729.95ZM6913.72 945.024V722.816H6939.75L7039.43 890.742H7025.46L7123.87 722.816H7149.9L7150.21 945.024H7119.74L7119.42 770.75H7126.72L7039.11 918.042H7024.51L6936.26 770.75H6944.2V945.024H6913.72ZM7281.66 947.564C7264.73 947.564 7248.54 945.024 7233.09 939.945C7217.64 934.655 7205.47 927.883 7196.58 919.629L7208.33 894.869C7216.79 902.276 7227.59 908.413 7240.71 913.28C7253.83 918.148 7267.48 920.582 7281.66 920.582C7294.57 920.582 7305.04 919.1 7313.09 916.137C7321.13 913.175 7327.05 909.154 7330.86 904.075C7334.67 898.784 7336.58 892.858 7336.58 886.298C7336.58 878.679 7334.04 872.542 7328.96 867.886C7324.09 863.231 7317.64 859.527 7309.59 856.776C7301.76 853.813 7293.09 851.274 7283.56 849.158C7274.04 847.041 7264.41 844.608 7254.68 841.856C7245.15 838.894 7236.37 835.19 7228.33 830.746C7220.5 826.302 7214.15 820.376 7209.28 812.969C7204.41 805.351 7201.98 795.616 7201.98 783.765C7201.98 772.337 7204.94 761.862 7210.87 752.338C7217.01 742.603 7226.32 734.879 7238.8 729.165C7251.5 723.24 7267.59 720.277 7287.06 720.277C7299.96 720.277 7312.77 721.97 7325.47 725.356C7338.16 728.742 7349.17 733.609 7358.48 739.958L7348 765.353C7338.48 759.005 7328.43 754.455 7317.85 751.703C7307.27 748.741 7297 747.259 7287.06 747.259C7274.57 747.259 7264.31 748.846 7256.26 752.021C7248.22 755.195 7242.3 759.428 7238.49 764.718C7234.89 770.009 7233.09 775.935 7233.09 782.495C7233.09 790.325 7235.52 796.568 7240.39 801.224C7245.47 805.88 7251.92 809.583 7259.76 812.334C7267.8 815.086 7276.58 817.625 7286.1 819.953C7295.63 822.069 7305.15 824.503 7314.67 827.254C7324.41 830.005 7333.19 833.603 7341.02 838.047C7349.06 842.491 7355.52 848.417 7360.38 855.824C7365.25 863.231 7367.68 872.754 7367.68 884.393C7367.68 895.61 7364.62 906.085 7358.48 915.82C7352.34 925.343 7342.82 933.068 7329.91 938.993C7317.21 944.707 7301.13 947.564 7281.66 947.564Z" fill="#666666"/>
<line x1="3811.56" y1="1226.5" x2="3808.16" y2="0.061252" stroke="#1DD45A" stroke-width="40.96"/>
<path d="M3364.25 1032.01C3301.17 1032.01 3252.43 1015.89 3218.02 983.631C3183.62 950.658 3166.41 902.274 3166.41 838.479V323.458H3300.81V835.253C3300.81 862.492 3307.62 883.637 3321.24 898.69C3335.58 913.743 3355.29 921.269 3380.38 921.269C3410.48 921.269 3435.57 913.384 3455.64 897.615L3493.28 993.308C3477.51 1006.21 3458.15 1015.89 3435.21 1022.34C3412.28 1028.79 3388.62 1032.01 3364.25 1032.01ZM3071.8 557.852V450.332H3454.57V557.852H3071.8Z" fill="black"/>
<path fill-rule="evenodd" clip-rule="evenodd" d="M2869.59 450.332V1024.49H3003.99V450.332H2869.59Z" fill="black"/>
<path d="M2937.33 355.715C2912.24 355.715 2891.46 347.83 2874.97 332.06C2859.2 316.291 2851.32 297.295 2851.32 275.075C2851.32 252.137 2859.2 233.142 2874.97 218.089C2891.46 202.319 2912.24 194.435 2937.33 194.435C2962.42 194.435 2982.85 201.961 2998.62 217.014C3015.11 231.35 3023.35 249.628 3023.35 271.849C3023.35 295.503 3015.46 315.574 2999.69 332.06C2983.92 347.83 2963.14 355.715 2937.33 355.715Z" fill="#1DD45A"/>
<path d="M2282.29 1024.49V939.548L2636.03 511.618L2660.76 557.852H2288.74V450.332H2768.28V535.273L2414.54 963.202L2387.66 916.969H2777.96V1024.49H2282.29Z" fill="black"/>
<path fill-rule="evenodd" clip-rule="evenodd" d="M2051.06 450.332V1024.49H2185.46V450.332H2051.06Z" fill="black"/>
<path d="M2118.79 355.715C2093.71 355.715 2072.92 347.83 2056.43 332.06C2040.66 316.291 2032.78 297.295 2032.78 275.075C2032.78 252.137 2040.66 233.142 2056.43 218.089C2072.92 202.319 2093.71 194.435 2118.79 194.435C2143.88 194.435 2164.31 201.961 2180.08 217.014C2196.57 231.35 2204.81 249.628 2204.81 271.849C2204.81 295.503 2196.92 315.574 2181.15 332.06C2165.39 347.83 2144.6 355.715 2118.79 355.715Z" fill="#1DD45A"/>
<path d="M1637.06 1024.49V450.331H1765.01V608.385L1749.96 562.152C1767.16 523.445 1794.04 494.056 1830.6 473.985C1867.87 453.915 1914.11 443.88 1969.3 443.88V571.829C1963.56 570.395 1958.19 569.678 1953.17 569.678C1948.15 568.961 1943.14 568.603 1938.12 568.603C1887.23 568.603 1846.73 583.656 1816.62 613.761C1786.52 643.15 1771.46 687.233 1771.46 746.011V1024.49H1637.06Z" fill="black"/>
<path d="M1250.48 1032.02C1201.74 1032.02 1158.37 1021.26 1120.38 999.759C1082.39 978.255 1052.28 945.999 1030.06 902.991C1008.56 859.266 997.806 804.073 997.806 737.41C997.806 670.031 1008.92 614.838 1031.14 571.83C1054.07 528.822 1084.54 496.924 1122.53 476.137C1161.24 454.633 1203.89 443.881 1250.48 443.881C1307.11 443.881 1356.92 456.066 1399.93 480.438C1443.66 504.809 1478.06 538.857 1503.15 582.582C1528.95 626.306 1541.86 677.916 1541.86 737.41C1541.86 796.905 1528.95 848.514 1503.15 892.239C1478.06 935.964 1443.66 970.371 1399.93 995.459C1356.92 1019.83 1307.11 1032.02 1250.48 1032.02ZM932.219 1024.49V226.69H1066.62V583.657L1055.87 736.335L1060.17 889.014V1024.49H932.219ZM1235.43 916.969C1267.68 916.969 1296.35 909.801 1321.44 895.465C1347.25 881.129 1367.67 860.342 1382.73 833.103C1397.78 805.865 1405.31 773.967 1405.31 737.41C1405.31 700.137 1397.78 668.239 1382.73 641.718C1367.67 614.479 1347.25 593.692 1321.44 579.356C1296.35 565.02 1267.68 557.852 1235.43 557.852C1203.17 557.852 1174.14 565.02 1148.33 579.356C1122.53 593.692 1102.1 614.479 1087.05 641.718C1071.99 668.239 1064.47 700.137 1064.47 737.41C1064.47 773.967 1071.99 805.865 1087.05 833.103C1102.1 860.342 1122.53 881.129 1148.33 895.465C1174.14 909.801 1203.17 916.969 1235.43 916.969Z" fill="black"/>
<path d="M433.336 3.60933C523.647 -15.5869 596.859 43.6991 596.859 136.028V963.551C596.859 1055.88 523.647 1146.29 433.336 1165.48L163.523 1222.84C73.2122 1242.03 0.000108539 1182.75 0 1090.42V262.894C0 170.565 73.2121 80.1561 163.523 60.9599L433.336 3.60933ZM449.688 250.896C449.688 195.5 405.761 159.929 351.574 171.447L245.285 194.04C191.098 205.557 147.171 259.802 147.171 315.2V975.546C147.171 1030.94 191.098 1066.52 245.285 1055L351.574 1032.4C405.761 1020.89 449.688 966.64 449.688 911.243V250.896Z" fill="#1DD45A"/>
</svg>
