<svg width="232" height="39" viewBox="0 0 232 39" fill="none" xmlns="http://www.w3.org/2000/svg">
<path d="M130.221 15.5625L133.365 8.6185H134.347L137.502 15.5625H136.46L133.653 9.17402H134.05L131.242 15.5625H130.221ZM131.56 13.8265L131.828 13.0329H135.736L136.024 13.8265H131.56ZM138.538 15.5625V8.6185H141.246C142.145 8.6185 142.853 8.83343 143.369 9.2633C143.885 9.68655 144.142 10.2784 144.142 11.039C144.142 11.5416 144.027 11.9748 143.795 12.3385C143.564 12.6956 143.233 12.9701 142.803 13.1619C142.373 13.3536 141.854 13.4495 141.246 13.4495H139.083L139.53 12.9932V15.5625H138.538ZM143.18 15.5625L141.414 13.0428H142.476L144.262 15.5625H143.18ZM139.53 13.0924L139.083 12.6063H141.216C141.851 12.6063 142.33 12.4708 142.654 12.1996C142.985 11.9219 143.15 11.535 143.15 11.039C143.15 10.543 142.985 10.1594 142.654 9.88826C142.33 9.61711 141.851 9.48154 141.216 9.48154H139.083L139.53 8.98554V13.0924ZM148.85 15.6419C148.321 15.6419 147.832 15.5559 147.382 15.3839C146.939 15.2054 146.552 14.9574 146.221 14.6399C145.897 14.3159 145.643 13.9389 145.458 13.5091C145.272 13.0792 145.18 12.6063 145.18 12.0905C145.18 11.5747 145.272 11.1018 145.458 10.6719C145.643 10.2421 145.901 9.86842 146.231 9.55098C146.562 9.22693 146.949 8.97893 147.392 8.80698C147.842 8.62842 148.331 8.53914 148.86 8.53914C149.396 8.53914 149.888 8.63173 150.338 8.8169C150.794 8.99546 151.181 9.2633 151.499 9.62042L150.854 10.2454C150.589 9.96762 150.292 9.76261 149.961 9.63034C149.631 9.49146 149.277 9.42202 148.9 9.42202C148.51 9.42202 148.146 9.48815 147.809 9.62042C147.478 9.75269 147.19 9.93786 146.946 10.1759C146.701 10.414 146.509 10.6984 146.37 11.0291C146.238 11.3531 146.172 11.7069 146.172 12.0905C146.172 12.4741 146.238 12.8312 146.37 13.1619C146.509 13.4859 146.701 13.767 146.946 14.0051C147.19 14.2431 147.478 14.4283 147.809 14.5606C148.146 14.6928 148.51 14.759 148.9 14.759C149.277 14.759 149.631 14.6928 149.961 14.5606C150.292 14.4217 150.589 14.2101 150.854 13.9257L151.499 14.5507C151.181 14.9078 150.794 15.1789 150.338 15.3641C149.888 15.5493 149.392 15.6419 148.85 15.6419ZM157.797 15.5625V8.6185H158.789V15.5625H157.797ZM152.817 15.5625V8.6185H153.809V15.5625H152.817ZM153.71 12.4675V11.6044H157.886V12.4675H153.71ZM160.867 15.5625V8.6185H161.859V15.5625H160.867ZM165.317 15.5625V9.48154H162.936V8.6185H168.68V9.48154H166.299V15.5625H165.317ZM169.761 15.5625V8.6185H174.661V9.48154H170.753V14.6995H174.8V15.5625H169.761ZM170.663 12.4575V11.6143H174.234V12.4575H170.663ZM179.501 15.6419C178.972 15.6419 178.483 15.5559 178.033 15.3839C177.59 15.2054 177.203 14.9574 176.873 14.6399C176.549 14.3159 176.294 13.9389 176.109 13.5091C175.924 13.0792 175.831 12.6063 175.831 12.0905C175.831 11.5747 175.924 11.1018 176.109 10.6719C176.294 10.2421 176.552 9.86842 176.883 9.55098C177.213 9.22693 177.6 8.97893 178.043 8.80698C178.493 8.62842 178.982 8.53914 179.511 8.53914C180.047 8.53914 180.54 8.63173 180.989 8.8169C181.446 8.99546 181.833 9.2633 182.15 9.62042L181.505 10.2454C181.241 9.96762 180.943 9.76261 180.612 9.63034C180.282 9.49146 179.928 9.42202 179.551 9.42202C179.161 9.42202 178.797 9.48815 178.46 9.62042C178.129 9.75269 177.841 9.93786 177.597 10.1759C177.352 10.414 177.16 10.6984 177.021 11.0291C176.889 11.3531 176.823 11.7069 176.823 12.0905C176.823 12.4741 176.889 12.8312 177.021 13.1619C177.16 13.4859 177.352 13.767 177.597 14.0051C177.841 14.2431 178.129 14.4283 178.46 14.5606C178.797 14.6928 179.161 14.759 179.551 14.759C179.928 14.759 180.282 14.6928 180.612 14.5606C180.943 14.4217 181.241 14.2101 181.505 13.9257L182.15 14.5507C181.833 14.9078 181.446 15.1789 180.989 15.3641C180.54 15.5493 180.044 15.6419 179.501 15.6419ZM184.683 15.5625V9.48154H182.302V8.6185H188.045V9.48154H185.665V15.5625H184.683ZM191.877 15.6419C190.964 15.6419 190.246 15.3806 189.724 14.8582C189.202 14.3357 188.94 13.5719 188.94 12.5667V8.6185H189.932V12.527C189.932 13.3007 190.101 13.8662 190.438 14.2233C190.782 14.5804 191.265 14.759 191.887 14.759C192.515 14.759 192.998 14.5804 193.335 14.2233C193.679 13.8662 193.851 13.3007 193.851 12.527V8.6185H194.813V12.5667C194.813 13.5719 194.552 14.3357 194.029 14.8582C193.513 15.3806 192.796 15.6419 191.877 15.6419ZM196.847 15.5625V8.6185H199.555C200.454 8.6185 201.162 8.83343 201.678 9.2633C202.194 9.68655 202.452 10.2784 202.452 11.039C202.452 11.5416 202.336 11.9748 202.104 12.3385C201.873 12.6956 201.542 12.9701 201.112 13.1619C200.682 13.3536 200.163 13.4495 199.555 13.4495H197.392L197.839 12.9932V15.5625H196.847ZM201.489 15.5625L199.724 13.0428H200.785L202.571 15.5625H201.489ZM197.839 13.0924L197.392 12.6063H199.525C200.16 12.6063 200.64 12.4708 200.964 12.1996C201.294 11.9219 201.46 11.535 201.46 11.039C201.46 10.543 201.294 10.1594 200.964 9.88826C200.64 9.61711 200.16 9.48154 199.525 9.48154H197.392L197.839 8.98554V13.0924ZM203.003 15.5625L206.147 8.6185H207.129L210.284 15.5625H209.242L206.435 9.17402H206.832L204.024 15.5625H203.003ZM204.342 13.8265L204.61 13.0329H208.518L208.806 13.8265H204.342ZM211.32 15.5625V8.6185H212.312V14.6995H216.072V15.5625H211.32ZM131.272 29.5625V22.6185H134.387C135.187 22.6185 135.802 22.7805 136.232 23.1046C136.662 23.422 136.877 23.8585 136.877 24.414C136.877 24.791 136.791 25.1084 136.619 25.3663C136.454 25.6243 136.229 25.8227 135.944 25.9615C135.66 26.1004 135.352 26.1699 135.022 26.1699L135.2 25.8723C135.597 25.8723 135.948 25.9417 136.252 26.0806C136.556 26.2195 136.798 26.4245 136.976 26.6956C137.155 26.9602 137.244 27.2908 137.244 27.6876C137.244 28.2828 137.019 28.7458 136.569 29.0764C136.126 29.4005 135.465 29.5625 134.585 29.5625H131.272ZM132.264 28.759H134.546C135.095 28.759 135.515 28.6664 135.806 28.4812C136.096 28.296 136.242 28.0051 136.242 27.6083C136.242 27.2048 136.096 26.9106 135.806 26.7254C135.515 26.5402 135.095 26.4476 134.546 26.4476H132.175V25.6441H134.298C134.8 25.6441 135.19 25.5515 135.468 25.3663C135.746 25.1812 135.885 24.9034 135.885 24.5331C135.885 24.1627 135.746 23.885 135.468 23.6998C135.19 23.5146 134.8 23.422 134.298 23.422H132.264V28.759ZM141.657 29.6419C140.744 29.6419 140.026 29.3806 139.504 28.8582C138.982 28.3357 138.72 27.5719 138.72 26.5667V22.6185H139.712V26.527C139.712 27.3007 139.881 27.8662 140.218 28.2233C140.562 28.5804 141.045 28.759 141.667 28.759C142.295 28.759 142.778 28.5804 143.115 28.2233C143.459 27.8662 143.631 27.3007 143.631 26.527V22.6185H144.593V26.5667C144.593 27.5719 144.332 28.3357 143.809 28.8582C143.293 29.3806 142.576 29.6419 141.657 29.6419ZM146.627 29.5625V22.6185H147.619V29.5625H146.627ZM149.698 29.5625V22.6185H150.69V28.6995H154.449V29.5625H149.698ZM155.588 29.5625V22.6185H158.514C159.255 22.6185 159.906 22.764 160.468 23.055C161.037 23.346 161.477 23.7527 161.788 24.2751C162.105 24.7976 162.264 25.4027 162.264 26.0905C162.264 26.7783 162.105 27.3834 161.788 27.9059C161.477 28.4283 161.037 28.835 160.468 29.126C159.906 29.417 159.255 29.5625 158.514 29.5625H155.588ZM156.58 28.6995H158.455C159.03 28.6995 159.526 28.5903 159.943 28.3721C160.366 28.1539 160.693 27.8496 160.925 27.4595C161.156 27.0627 161.272 26.6063 161.272 26.0905C161.272 25.568 161.156 25.1117 160.925 24.7215C160.693 24.3314 160.366 24.0271 159.943 23.8089C159.526 23.5907 159.03 23.4815 158.455 23.4815H156.58V28.6995ZM163.783 29.5625V22.6185H164.775V29.5625H163.783ZM166.854 29.5625V22.6185H167.668L172.261 28.3225H171.834V22.6185H172.826V29.5625H172.013L167.42 23.8585H167.846V29.5625H166.854ZM178.039 29.6419C177.504 29.6419 177.011 29.5559 176.561 29.3839C176.112 29.2054 175.721 28.9574 175.391 28.6399C175.06 28.3159 174.802 27.9389 174.617 27.5091C174.432 27.0792 174.339 26.6063 174.339 26.0905C174.339 25.5747 174.432 25.1018 174.617 24.6719C174.802 24.2421 175.06 23.8684 175.391 23.551C175.728 23.2269 176.121 22.9789 176.571 22.807C177.021 22.6284 177.517 22.5391 178.059 22.5391C178.608 22.5391 179.111 22.6284 179.567 22.807C180.023 22.9855 180.41 23.2534 180.728 23.6105L180.113 24.2255C179.828 23.9478 179.517 23.7461 179.18 23.6204C178.849 23.4882 178.489 23.422 178.099 23.422C177.702 23.422 177.332 23.4882 176.988 23.6204C176.65 23.7527 176.356 23.9379 176.105 24.1759C175.86 24.414 175.668 24.6984 175.53 25.0291C175.397 25.3531 175.331 25.7069 175.331 26.0905C175.331 26.4675 175.397 26.8213 175.53 27.1519C175.668 27.476 175.86 27.7604 176.105 28.0051C176.356 28.2431 176.65 28.4283 176.988 28.5606C177.325 28.6928 177.692 28.759 178.089 28.759C178.459 28.759 178.813 28.7028 179.15 28.5903C179.494 28.4713 179.812 28.2762 180.103 28.0051L180.668 28.759C180.324 29.05 179.921 29.2715 179.458 29.4236C179.002 29.5691 178.529 29.6419 178.039 29.6419ZM180.668 28.759L179.716 28.63V26.0508H180.668V28.759ZM187.255 29.6419C186.726 29.6419 186.22 29.5625 185.737 29.4038C185.255 29.2384 184.874 29.0268 184.597 28.7689L184.964 27.9951C185.228 28.2266 185.565 28.4184 185.975 28.5705C186.385 28.7226 186.812 28.7987 187.255 28.7987C187.659 28.7987 187.986 28.7524 188.237 28.6598C188.489 28.5672 188.674 28.4415 188.793 28.2828C188.912 28.1175 188.971 27.9323 188.971 27.7273C188.971 27.4892 188.892 27.2974 188.733 27.1519C188.581 27.0064 188.379 26.8907 188.128 26.8047C187.883 26.7122 187.612 26.6328 187.315 26.5667C187.017 26.5005 186.716 26.4245 186.412 26.3385C186.114 26.2459 185.84 26.1302 185.589 25.9913C185.344 25.8524 185.145 25.6672 184.993 25.4358C184.841 25.1977 184.765 24.8935 184.765 24.5231C184.765 24.166 184.858 23.8387 185.043 23.5411C185.235 23.2368 185.526 22.9955 185.916 22.8169C186.313 22.6317 186.815 22.5391 187.424 22.5391C187.827 22.5391 188.227 22.592 188.624 22.6979C189.021 22.8037 189.365 22.9558 189.656 23.1542L189.328 23.9478C189.031 23.7494 188.717 23.6072 188.386 23.5212C188.055 23.4286 187.735 23.3823 187.424 23.3823C187.034 23.3823 186.713 23.4319 186.462 23.5311C186.21 23.6303 186.025 23.7626 185.906 23.9279C185.794 24.0933 185.737 24.2784 185.737 24.4835C185.737 24.7282 185.813 24.9232 185.966 25.0687C186.124 25.2142 186.326 25.33 186.571 25.4159C186.822 25.5019 187.096 25.5813 187.394 25.654C187.692 25.7202 187.989 25.7962 188.287 25.8822C188.591 25.9682 188.865 26.0806 189.11 26.2195C189.361 26.3583 189.563 26.5435 189.715 26.775C189.867 27.0064 189.943 27.304 189.943 27.6678C189.943 28.0183 189.848 28.3456 189.656 28.6499C189.464 28.9475 189.166 29.1888 188.763 29.374C188.366 29.5526 187.864 29.6419 187.255 29.6419ZM192.924 29.5625V26.9039L193.152 27.519L190.166 22.6185H191.228L193.737 26.7551H193.162L195.682 22.6185H196.664L193.688 27.519L193.906 26.9039V29.5625H192.924ZM199.549 29.6419C199.019 29.6419 198.514 29.5625 198.031 29.4038C197.548 29.2384 197.168 29.0268 196.89 28.7689L197.257 27.9951C197.522 28.2266 197.859 28.4184 198.269 28.5705C198.679 28.7226 199.105 28.7987 199.549 28.7987C199.952 28.7987 200.279 28.7524 200.531 28.6598C200.782 28.5672 200.967 28.4415 201.086 28.2828C201.205 28.1175 201.265 27.9323 201.265 27.7273C201.265 27.4892 201.185 27.2974 201.027 27.1519C200.875 27.0064 200.673 26.8907 200.422 26.8047C200.177 26.7122 199.906 26.6328 199.608 26.5667C199.31 26.5005 199.01 26.4245 198.705 26.3385C198.408 26.2459 198.133 26.1302 197.882 25.9913C197.637 25.8524 197.439 25.6672 197.287 25.4358C197.135 25.1977 197.059 24.8935 197.059 24.5231C197.059 24.166 197.151 23.8387 197.336 23.5411C197.528 23.2368 197.819 22.9955 198.209 22.8169C198.606 22.6317 199.109 22.5391 199.717 22.5391C200.121 22.5391 200.521 22.592 200.918 22.6979C201.314 22.8037 201.658 22.9558 201.949 23.1542L201.622 23.9478C201.324 23.7494 201.01 23.6072 200.679 23.5212C200.349 23.4286 200.028 23.3823 199.717 23.3823C199.327 23.3823 199.006 23.4319 198.755 23.5311C198.504 23.6303 198.318 23.7626 198.199 23.9279C198.087 24.0933 198.031 24.2784 198.031 24.4835C198.031 24.7282 198.107 24.9232 198.259 25.0687C198.418 25.2142 198.619 25.33 198.864 25.4159C199.115 25.5019 199.39 25.5813 199.687 25.654C199.985 25.7202 200.283 25.7962 200.58 25.8822C200.884 25.9682 201.159 26.0806 201.404 26.2195C201.655 26.3583 201.857 26.5435 202.009 26.775C202.161 27.0064 202.237 27.304 202.237 27.6678C202.237 28.0183 202.141 28.3456 201.949 28.6499C201.757 28.9475 201.46 29.1888 201.056 29.374C200.66 29.5526 200.157 29.6419 199.549 29.6419ZM204.968 29.5625V23.4815H202.587V22.6185H208.331V23.4815H205.95V29.5625H204.968ZM209.411 29.5625V22.6185H214.312V23.4815H210.403V28.6995H214.451V29.5625H209.411ZM210.314 26.4575V25.6143H213.885V26.4575H210.314ZM216.057 29.5625V22.6185H216.871L219.985 27.8662H219.549L222.624 22.6185H223.438L223.447 29.5625H222.495L222.485 24.1164H222.713L219.975 28.7193H219.519L216.761 24.1164H217.009V29.5625H216.057ZM227.555 29.6419C227.026 29.6419 226.52 29.5625 226.037 29.4038C225.555 29.2384 225.174 29.0268 224.897 28.7689L225.264 27.9951C225.528 28.2266 225.865 28.4184 226.275 28.5705C226.685 28.7226 227.112 28.7987 227.555 28.7987C227.959 28.7987 228.286 28.7524 228.537 28.6598C228.789 28.5672 228.974 28.4415 229.093 28.2828C229.212 28.1175 229.271 27.9323 229.271 27.7273C229.271 27.4892 229.192 27.2974 229.033 27.1519C228.881 27.0064 228.679 26.8907 228.428 26.8047C228.183 26.7122 227.912 26.6328 227.615 26.5667C227.317 26.5005 227.016 26.4245 226.712 26.3385C226.414 26.2459 226.14 26.1302 225.889 25.9913C225.644 25.8524 225.445 25.6672 225.293 25.4358C225.141 25.1977 225.065 24.8935 225.065 24.5231C225.065 24.166 225.158 23.8387 225.343 23.5411C225.535 23.2368 225.826 22.9955 226.216 22.8169C226.613 22.6317 227.115 22.5391 227.724 22.5391C228.127 22.5391 228.527 22.592 228.924 22.6979C229.321 22.8037 229.665 22.9558 229.956 23.1542L229.628 23.9478C229.331 23.7494 229.017 23.6072 228.686 23.5212C228.355 23.4286 228.035 23.3823 227.724 23.3823C227.334 23.3823 227.013 23.4319 226.762 23.5311C226.51 23.6303 226.325 23.7626 226.206 23.9279C226.094 24.0933 226.037 24.2784 226.037 24.4835C226.037 24.7282 226.113 24.9232 226.266 25.0687C226.424 25.2142 226.626 25.33 226.871 25.4159C227.122 25.5019 227.396 25.5813 227.694 25.654C227.992 25.7202 228.289 25.7962 228.587 25.8822C228.891 25.9682 229.165 26.0806 229.41 26.2195C229.661 26.3583 229.863 26.5435 230.015 26.775C230.167 27.0064 230.243 27.304 230.243 27.6678C230.243 28.0183 230.148 28.3456 229.956 28.6499C229.764 28.9475 229.466 29.1888 229.063 29.374C228.666 29.5526 228.164 29.6419 227.555 29.6419Z" fill="#666666"/>
<line x1="119.114" y1="38.3279" x2="119.007" y2="0.0017005" stroke="#1DD45A" stroke-width="1.28"/>
<path d="M105.135 32.2498C103.164 32.2498 101.641 31.7458 100.566 30.7378C99.4905 29.7074 98.9529 28.1954 98.9529 26.2018V10.1074H103.153V26.101C103.153 26.9522 103.366 27.613 103.791 28.0834C104.239 28.5538 104.855 28.789 105.639 28.789C106.58 28.789 107.364 28.5426 107.991 28.0498L109.167 31.0402C108.674 31.4434 108.07 31.7458 107.353 31.9474C106.636 32.149 105.897 32.2498 105.135 32.2498ZM95.9961 17.4322V14.0722H107.958V17.4322H95.9961Z" fill="black"/>
<path fill-rule="evenodd" clip-rule="evenodd" d="M89.6767 14.073V32.0154H93.8767V14.073H89.6767Z" fill="black"/>
<path d="M91.7935 11.1162C91.0095 11.1162 90.3599 10.8698 89.8447 10.377C89.3519 9.88417 89.1055 9.29057 89.1055 8.59617C89.1055 7.87937 89.3519 7.28577 89.8447 6.81537C90.3599 6.32257 91.0095 6.07617 91.7935 6.07617C92.5775 6.07617 93.2159 6.31137 93.7087 6.78177C94.2239 7.22977 94.4815 7.80097 94.4815 8.49537C94.4815 9.23457 94.2351 9.86177 93.7423 10.377C93.2495 10.8698 92.5999 11.1162 91.7935 11.1162Z" fill="#1DD45A"/>
<path d="M71.3242 32.0147V29.3603L82.3786 15.9875L83.1514 17.4323H71.5258V14.0723H86.5114V16.7267L75.457 30.0995L74.617 28.6547H86.8138V32.0147H71.3242Z" fill="black"/>
<path fill-rule="evenodd" clip-rule="evenodd" d="M64.0985 14.073V32.0154H68.2985V14.073H64.0985Z" fill="black"/>
<path d="M66.2153 11.1162C65.4313 11.1162 64.7817 10.8698 64.2665 10.377C63.7737 9.88417 63.5273 9.29057 63.5273 8.59617C63.5273 7.87937 63.7737 7.28577 64.2665 6.81537C64.7817 6.32257 65.4313 6.07617 66.2153 6.07617C66.9993 6.07617 67.6377 6.31137 68.1305 6.78177C68.6457 7.22977 68.9033 7.80097 68.9033 8.49537C68.9033 9.23457 68.6569 9.86177 68.1641 10.377C67.6713 10.8698 67.0217 11.1162 66.2153 11.1162Z" fill="#1DD45A"/>
<path d="M51.1602 32.0151V14.0727H55.1586V19.0119L54.6882 17.5671C55.2258 16.3575 56.0658 15.4391 57.2082 14.8119C58.373 14.1847 59.8178 13.8711 61.5426 13.8711V17.8695C61.3634 17.8247 61.1954 17.8023 61.0386 17.8023C60.8818 17.7799 60.725 17.7687 60.5682 17.7687C58.9778 17.7687 57.7122 18.2391 56.7714 19.1799C55.8306 20.0983 55.3602 21.4759 55.3602 23.3127V32.0151H51.1602Z" fill="black"/>
<path d="M39.0784 32.2504C37.5552 32.2504 36.2 31.9144 35.0128 31.2424C33.8256 30.5704 32.8848 29.5624 32.1904 28.2184C31.5184 26.852 31.1824 25.1272 31.1824 23.044C31.1824 20.9384 31.5296 19.2136 32.224 17.8696C32.9408 16.5256 33.8928 15.5288 35.08 14.8792C36.2896 14.2072 37.6224 13.8712 39.0784 13.8712C40.848 13.8712 42.4048 14.252 43.7488 15.0136C45.1152 15.7752 46.1904 16.8392 46.9744 18.2056C47.7808 19.572 48.184 21.1848 48.184 23.044C48.184 24.9032 47.7808 26.516 46.9744 27.8824C46.1904 29.2488 45.1152 30.324 43.7488 31.108C42.4048 31.8696 40.848 32.2504 39.0784 32.2504ZM29.1328 32.0152V7.08398H33.3328V18.2392L32.9968 23.0104L33.1312 27.7816V32.0152H29.1328ZM38.608 28.6552C39.616 28.6552 40.512 28.4312 41.296 27.9832C42.1024 27.5352 42.7408 26.8856 43.2112 26.0344C43.6816 25.1832 43.9168 24.1864 43.9168 23.044C43.9168 21.8792 43.6816 20.8824 43.2112 20.0536C42.7408 19.2024 42.1024 18.5528 41.296 18.1048C40.512 17.6568 39.616 17.4328 38.608 17.4328C37.6 17.4328 36.6928 17.6568 35.8864 18.1048C35.08 18.5528 34.4416 19.2024 33.9712 20.0536C33.5008 20.8824 33.2656 21.8792 33.2656 23.044C33.2656 24.1864 33.5008 25.1832 33.9712 26.0344C34.4416 26.8856 35.08 27.5352 35.8864 27.9832C36.6928 28.4312 37.6 28.6552 38.608 28.6552Z" fill="black"/>
<path d="M13.5417 0.112792C16.364 -0.487092 18.6519 1.3656 18.6519 4.25087V30.111C18.6518 32.9962 16.364 35.8215 13.5417 36.4214L5.11011 38.2136C2.28788 38.8135 3.39186e-06 36.9608 0 34.0755V8.21543C0 5.33015 2.28788 2.50488 5.11011 1.905L13.5417 0.112792ZM14.0528 7.84051C14.0527 6.10936 12.68 4.99779 10.9867 5.35771L7.66516 6.06374C5.97182 6.42367 4.5991 8.11882 4.5991 9.84999V30.4858C4.5991 32.217 5.97182 33.3286 7.66516 32.9687L10.9867 32.2626C12.68 31.9027 14.0528 30.2075 14.0528 28.4763V7.84051Z" fill="#1DD45A"/>
</svg>
