<svg width="3691" height="614" viewBox="0 0 3691 614" fill="none" xmlns="http://www.w3.org/2000/svg">
<path d="M2083.47 255.012L2133.79 143.908H2149.5L2199.97 255.012H2183.31L2138.39 152.796H2144.74L2099.82 255.012H2083.47ZM2104.9 227.236L2109.19 214.538H2171.72L2176.33 227.236H2104.9ZM2216.55 255.012V143.908H2259.88C2274.27 143.908 2285.59 147.347 2293.85 154.225C2302.1 160.997 2306.23 170.467 2306.23 182.635C2306.23 190.677 2304.37 197.608 2300.67 203.428C2296.97 209.142 2291.68 213.533 2284.8 216.601C2277.92 219.67 2269.61 221.204 2259.88 221.204H2225.28L2232.42 213.903V255.012H2216.55ZM2290.83 255.012L2262.58 214.697H2279.56L2308.13 255.012H2290.83ZM2232.42 215.49L2225.28 207.713H2259.4C2269.56 207.713 2277.23 205.544 2282.42 201.206C2287.71 196.761 2290.35 190.571 2290.35 182.635C2290.35 174.699 2287.71 168.562 2282.42 164.224C2277.23 159.886 2269.56 157.716 2259.4 157.716H2225.28L2232.42 149.78V215.49ZM2381.55 256.281C2373.08 256.281 2365.25 254.906 2358.06 252.155C2350.97 249.298 2344.78 245.33 2339.49 240.251C2334.3 235.066 2330.23 229.035 2327.27 222.157C2324.3 215.279 2322.82 207.713 2322.82 199.46C2322.82 191.206 2324.3 183.641 2327.27 176.763C2330.23 169.885 2334.36 163.906 2339.65 158.827C2344.94 153.643 2351.13 149.675 2358.22 146.923C2365.41 144.066 2373.24 142.638 2381.71 142.638C2390.28 142.638 2398.16 144.119 2405.36 147.082C2412.66 149.939 2418.85 154.225 2423.93 159.938L2413.61 169.938C2409.38 165.494 2404.62 162.213 2399.32 160.097C2394.03 157.875 2388.37 156.764 2382.34 156.764C2376.1 156.764 2370.28 157.822 2364.88 159.938C2359.59 162.055 2354.99 165.017 2351.07 168.827C2347.16 172.636 2344.09 177.186 2341.87 182.477C2339.75 187.662 2338.69 193.323 2338.69 199.46C2338.69 205.597 2339.75 211.311 2341.87 216.601C2344.09 221.786 2347.16 226.283 2351.07 230.093C2354.99 233.902 2359.59 236.865 2364.88 238.981C2370.28 241.097 2376.1 242.155 2382.34 242.155C2388.37 242.155 2394.03 241.097 2399.32 238.981C2404.62 236.759 2409.38 233.373 2413.61 228.823L2423.93 238.822C2418.85 244.536 2412.66 248.875 2405.36 251.837C2398.16 254.8 2390.22 256.281 2381.55 256.281ZM2524.7 255.012V143.908H2540.57V255.012H2524.7ZM2445.02 255.012V143.908H2460.89V255.012H2445.02ZM2459.3 205.491V191.682H2526.12V205.491H2459.3ZM2573.82 255.012V143.908H2589.7V255.012H2573.82ZM2645.02 255.012V157.716H2606.93V143.908H2698.83V157.716H2660.73V255.012H2645.02ZM2716.11 255.012V143.908H2794.52V157.716H2731.99V241.203H2796.74V255.012H2716.11ZM2730.56 205.332V191.841H2787.7V205.332H2730.56ZM2871.97 256.281C2863.5 256.281 2855.67 254.906 2848.48 252.155C2841.39 249.298 2835.2 245.33 2829.91 240.251C2824.72 235.066 2820.65 229.035 2817.69 222.157C2814.72 215.279 2813.24 207.713 2813.24 199.46C2813.24 191.206 2814.72 183.641 2817.69 176.763C2820.65 169.885 2824.78 163.906 2830.07 158.827C2835.36 153.643 2841.55 149.675 2848.64 146.923C2855.83 144.066 2863.66 142.638 2872.13 142.638C2880.7 142.638 2888.58 144.119 2895.78 147.082C2903.08 149.939 2909.27 154.225 2914.35 159.938L2904.03 169.938C2899.8 165.494 2895.04 162.213 2889.74 160.097C2884.45 157.875 2878.79 156.764 2872.76 156.764C2866.52 156.764 2860.7 157.822 2855.3 159.938C2850.01 162.055 2845.41 165.017 2841.49 168.827C2837.58 172.636 2834.51 177.186 2832.29 182.477C2830.17 187.662 2829.11 193.323 2829.11 199.46C2829.11 205.597 2830.17 211.311 2832.29 216.601C2834.51 221.786 2837.58 226.283 2841.49 230.093C2845.41 233.902 2850.01 236.865 2855.3 238.981C2860.7 241.097 2866.52 242.155 2872.76 242.155C2878.79 242.155 2884.45 241.097 2889.74 238.981C2895.04 236.759 2899.8 233.373 2904.03 228.823L2914.35 238.822C2909.27 244.536 2903.08 248.875 2895.78 251.837C2888.58 254.8 2880.64 256.281 2871.97 256.281ZM2954.87 255.012V157.716H2916.77V143.908H3008.67V157.716H2970.58V255.012H2954.87ZM3069.97 256.281C3055.37 256.281 3043.89 252.102 3035.53 243.743C3027.17 235.383 3022.99 223.162 3022.99 207.078V143.908H3038.86V206.443C3038.86 218.824 3041.56 227.871 3046.96 233.585C3052.46 239.298 3060.18 242.155 3070.13 242.155C3080.18 242.155 3087.91 239.298 3093.3 233.585C3098.81 227.871 3101.56 218.824 3101.56 206.443V143.908H3116.95V207.078C3116.95 223.162 3112.77 235.383 3104.41 243.743C3096.16 252.102 3084.68 256.281 3069.97 256.281ZM3149.49 255.012V143.908H3192.82C3207.21 143.908 3218.54 147.347 3226.79 154.225C3235.04 160.997 3239.17 170.467 3239.17 182.635C3239.17 190.677 3237.32 197.608 3233.62 203.428C3229.91 209.142 3224.62 213.533 3217.74 216.601C3210.87 219.67 3202.56 221.204 3192.82 221.204H3158.22L3165.37 213.903V255.012H3149.49ZM3223.77 255.012L3195.52 214.697H3212.51L3241.07 255.012H3223.77ZM3165.37 215.49L3158.22 207.713H3192.35C3202.51 207.713 3210.18 205.544 3215.36 201.206C3220.65 196.761 3223.3 190.571 3223.3 182.635C3223.3 174.699 3220.65 168.562 3215.36 164.224C3210.18 159.886 3202.51 157.716 3192.35 157.716H3158.22L3165.37 149.78V215.49ZM3247.99 255.012L3298.3 143.908H3314.02L3364.49 255.012H3347.82L3302.91 152.796H3309.26L3264.34 255.012H3247.99ZM3269.42 227.236L3273.7 214.538H3336.24L3340.84 227.236H3269.42ZM3381.06 255.012V143.908H3396.94V241.203H3457.09V255.012H3381.06ZM2100.3 472.012V360.908H2150.14C2162.94 360.908 2172.78 363.5 2179.66 368.685C2186.54 373.764 2189.98 380.748 2189.98 389.636C2189.98 395.667 2188.6 400.746 2185.85 404.873C2183.2 409 2179.61 412.174 2175.06 414.396C2170.51 416.618 2165.59 417.729 2160.29 417.729L2163.15 412.968C2169.5 412.968 2175.11 414.079 2179.98 416.301C2184.84 418.523 2188.71 421.803 2191.56 426.142C2194.42 430.374 2195.85 435.665 2195.85 442.014C2195.85 451.537 2192.25 458.944 2185.05 464.234C2177.97 469.419 2167.38 472.012 2153.31 472.012H2100.3ZM2116.17 459.155H2152.68C2161.46 459.155 2168.18 457.674 2172.83 454.711C2177.49 451.748 2179.82 447.093 2179.82 440.744C2179.82 434.289 2177.49 429.581 2172.83 426.618C2168.18 423.655 2161.46 422.174 2152.68 422.174H2114.74V409.317H2148.71C2156.75 409.317 2162.99 407.836 2167.44 404.873C2171.88 401.91 2174.1 397.466 2174.1 391.541C2174.1 385.615 2171.88 381.171 2167.44 378.208C2162.99 375.245 2156.75 373.764 2148.71 373.764H2116.17V459.155ZM2266.45 473.281C2251.85 473.281 2240.37 469.102 2232.01 460.743C2223.65 452.383 2219.47 440.162 2219.47 424.078V360.908H2235.34V423.443C2235.34 435.824 2238.04 444.871 2243.44 450.585C2248.94 456.298 2256.66 459.155 2266.61 459.155C2276.66 459.155 2284.39 456.298 2289.78 450.585C2295.29 444.871 2298.04 435.824 2298.04 423.443V360.908H2313.43V424.078C2313.43 440.162 2309.25 452.383 2300.89 460.743C2292.64 469.102 2281.16 473.281 2266.45 473.281ZM2345.97 472.012V360.908H2361.85V472.012H2345.97ZM2395.11 472.012V360.908H2410.98V458.203H2471.14V472.012H2395.11ZM2489.35 472.012V360.908H2536.17C2548.02 360.908 2558.44 363.236 2567.44 367.891C2576.54 372.547 2583.58 379.055 2588.55 387.414C2593.63 395.773 2596.17 405.455 2596.17 416.46C2596.17 427.464 2593.63 437.146 2588.55 445.505C2583.58 453.865 2576.54 460.372 2567.44 465.028C2558.44 469.684 2548.02 472.012 2536.17 472.012H2489.35ZM2505.22 458.203H2535.22C2544.42 458.203 2552.36 456.457 2559.03 452.965C2565.8 449.473 2571.04 444.606 2574.74 438.363C2578.44 432.014 2580.29 424.713 2580.29 416.46C2580.29 408.1 2578.44 400.799 2574.74 394.556C2571.04 388.313 2565.8 383.446 2559.03 379.954C2552.36 376.462 2544.42 374.716 2535.22 374.716H2505.22V458.203ZM2620.48 472.012V360.908H2636.35V472.012H2620.48ZM2669.61 472.012V360.908H2682.63L2756.12 452.172H2749.29V360.908H2765.16V472.012H2752.15L2678.66 380.748H2685.49V472.012H2669.61ZM2848.57 473.281C2840 473.281 2832.12 471.906 2824.92 469.155C2817.73 466.298 2811.49 462.33 2806.2 457.251C2800.91 452.066 2796.78 446.035 2793.82 439.157C2790.85 432.279 2789.37 424.713 2789.37 416.46C2789.37 408.206 2790.85 400.641 2793.82 393.763C2796.78 386.885 2800.91 380.906 2806.2 375.827C2811.59 370.643 2817.89 366.675 2825.08 363.923C2832.28 361.066 2840.21 359.638 2848.89 359.638C2857.67 359.638 2865.72 361.066 2873.02 363.923C2880.32 366.78 2886.51 371.066 2891.59 376.78L2881.75 386.62C2877.2 382.176 2872.22 378.949 2866.83 376.938C2861.54 374.822 2855.77 373.764 2849.53 373.764C2843.18 373.764 2837.25 374.822 2831.75 376.938C2826.35 379.055 2821.64 382.017 2817.62 385.827C2813.71 389.636 2810.64 394.186 2808.42 399.477C2806.3 404.662 2805.24 410.323 2805.24 416.46C2805.24 422.491 2806.3 428.152 2808.42 433.443C2810.64 438.628 2813.71 443.178 2817.62 447.093C2821.64 450.902 2826.35 453.865 2831.75 455.981C2837.15 458.097 2843.02 459.155 2849.37 459.155C2855.29 459.155 2860.95 458.256 2866.35 456.457C2871.85 454.553 2876.93 451.431 2881.59 447.093L2890.63 459.155C2885.13 463.811 2878.68 467.356 2871.27 469.79C2863.97 472.118 2856.4 473.281 2848.57 473.281ZM2890.63 459.155L2875.4 457.092V415.825H2890.63V459.155ZM2996.03 473.281C2987.56 473.281 2979.47 472.012 2971.74 469.472C2964.02 466.827 2957.93 463.441 2953.49 459.314L2959.36 446.934C2963.6 450.637 2968.99 453.706 2975.55 456.14C2982.11 458.573 2988.94 459.79 2996.03 459.79C3002.48 459.79 3007.72 459.05 3011.74 457.568C3015.76 456.087 3018.72 454.076 3020.63 451.537C3022.53 448.892 3023.49 445.929 3023.49 442.649C3023.49 438.839 3022.22 435.771 3019.68 433.443C3017.24 431.115 3014.02 429.263 3009.99 427.888C3006.08 426.406 3001.74 425.136 2996.98 424.078C2992.22 423.02 2987.4 421.803 2982.54 420.428C2977.77 418.946 2973.38 417.095 2969.36 414.873C2965.45 412.65 2962.27 409.688 2959.84 405.984C2957.41 402.175 2956.19 397.308 2956.19 391.382C2956.19 385.668 2957.67 380.43 2960.63 375.669C2963.7 370.801 2968.36 366.939 2974.6 364.082C2980.95 361.119 2988.99 359.638 2998.73 359.638C3005.18 359.638 3011.58 360.484 3017.93 362.177C3024.28 363.87 3029.78 366.304 3034.44 369.479L3029.2 382.176C3024.44 379.002 3019.41 376.727 3014.12 375.351C3008.83 373.87 3003.7 373.129 2998.73 373.129C2992.48 373.129 2987.35 373.923 2983.33 375.51C2979.31 377.097 2976.35 379.213 2974.44 381.859C2972.64 384.504 2971.74 387.467 2971.74 390.747C2971.74 394.662 2972.96 397.784 2975.39 400.112C2977.93 402.439 2981.16 404.291 2985.08 405.667C2989.1 407.042 2993.49 408.312 2998.25 409.476C3003.01 410.534 3007.77 411.751 3012.53 413.127C3017.4 414.502 3021.79 416.301 3025.71 418.523C3029.73 420.745 3032.96 423.708 3035.39 427.411C3037.82 431.115 3039.04 435.876 3039.04 441.696C3039.04 447.304 3037.51 452.542 3034.44 457.409C3031.37 462.171 3026.61 466.033 3020.15 468.996C3013.8 471.853 3005.76 473.281 2996.03 473.281ZM3086.73 472.012V429.475L3090.38 439.315L3042.6 360.908H3059.59L3099.74 427.094H3090.54L3130.85 360.908H3146.56L3098.95 439.315L3102.44 429.475V472.012H3086.73ZM3192.72 473.281C3184.26 473.281 3176.16 472.012 3168.44 469.472C3160.71 466.827 3154.63 463.441 3150.19 459.314L3156.06 446.934C3160.29 450.637 3165.69 453.706 3172.25 456.14C3178.81 458.573 3185.63 459.79 3192.72 459.79C3199.18 459.79 3204.41 459.05 3208.44 457.568C3212.46 456.087 3215.42 454.076 3217.32 451.537C3219.23 448.892 3220.18 445.929 3220.18 442.649C3220.18 438.839 3218.91 435.771 3216.37 433.443C3213.94 431.115 3210.71 429.263 3206.69 427.888C3202.77 426.406 3198.44 425.136 3193.67 424.078C3188.91 423.02 3184.1 421.803 3179.23 420.428C3174.47 418.946 3170.08 417.095 3166.06 414.873C3162.14 412.65 3158.97 409.688 3156.53 405.984C3154.1 402.175 3152.88 397.308 3152.88 391.382C3152.88 385.668 3154.37 380.43 3157.33 375.669C3160.4 370.801 3165.05 366.939 3171.3 364.082C3177.64 361.119 3185.69 359.638 3195.42 359.638C3201.88 359.638 3208.28 360.484 3214.63 362.177C3220.97 363.87 3226.48 366.304 3231.13 369.479L3225.89 382.176C3221.13 379.002 3216.11 376.727 3210.82 375.351C3205.53 373.87 3200.39 373.129 3195.42 373.129C3189.18 373.129 3184.05 373.923 3180.02 375.51C3176 377.097 3173.04 379.213 3171.14 381.859C3169.34 384.504 3168.44 387.467 3168.44 390.747C3168.44 394.662 3169.66 397.784 3172.09 400.112C3174.63 402.439 3177.86 404.291 3181.77 405.667C3185.79 407.042 3190.18 408.312 3194.94 409.476C3199.71 410.534 3204.47 411.751 3209.23 413.127C3214.1 414.502 3218.49 416.301 3222.4 418.523C3226.42 420.745 3229.65 423.708 3232.08 427.411C3234.52 431.115 3235.74 435.876 3235.74 441.696C3235.74 447.304 3234.2 452.542 3231.13 457.409C3228.06 462.171 3223.3 466.033 3216.85 468.996C3210.5 471.853 3202.46 473.281 3192.72 473.281ZM3279.44 472.012V374.716H3241.34V360.908H3333.24V374.716H3295.15V472.012H3279.44ZM3350.53 472.012V360.908H3428.94V374.716H3366.4V458.203H3431.16V472.012H3350.53ZM3364.97 422.332V408.841H3422.11V422.332H3364.97ZM3456.86 472.012V360.908H3469.87L3519.71 444.871H3512.73L3561.93 360.908H3574.95L3575.1 472.012H3559.87L3559.71 384.874H3563.36L3519.55 458.521H3512.25L3468.13 384.874H3472.1V472.012H3456.86ZM3640.83 473.281C3632.36 473.281 3624.27 472.012 3616.54 469.472C3608.82 466.827 3602.73 463.441 3598.29 459.314L3604.16 446.934C3608.4 450.637 3613.79 453.706 3620.35 456.14C3626.91 458.573 3633.74 459.79 3640.83 459.79C3647.28 459.79 3652.52 459.05 3656.54 457.568C3660.56 456.087 3663.52 454.076 3665.43 451.537C3667.33 448.892 3668.29 445.929 3668.29 442.649C3668.29 438.839 3667.02 435.771 3664.48 433.443C3662.04 431.115 3658.82 429.263 3654.79 427.888C3650.88 426.406 3646.54 425.136 3641.78 424.078C3637.02 423.02 3632.2 421.803 3627.34 420.428C3622.57 418.946 3618.18 417.095 3614.16 414.873C3610.25 412.65 3607.07 409.688 3604.64 405.984C3602.21 402.175 3600.99 397.308 3600.99 391.382C3600.99 385.668 3602.47 380.43 3605.43 375.669C3608.5 370.801 3613.16 366.939 3619.4 364.082C3625.75 361.119 3633.79 359.638 3643.53 359.638C3649.98 359.638 3656.38 360.484 3662.73 362.177C3669.08 363.87 3674.58 366.304 3679.24 369.479L3674 382.176C3669.24 379.002 3664.21 376.727 3658.92 375.351C3653.63 373.87 3648.5 373.129 3643.53 373.129C3637.28 373.129 3632.15 373.923 3628.13 375.51C3624.11 377.097 3621.15 379.213 3619.24 381.859C3617.44 384.504 3616.54 387.467 3616.54 390.747C3616.54 394.662 3617.76 397.784 3620.19 400.112C3622.73 402.439 3625.96 404.291 3629.88 405.667C3633.9 407.042 3638.29 408.312 3643.05 409.476C3647.81 410.534 3652.57 411.751 3657.33 413.127C3662.2 414.502 3666.59 416.301 3670.51 418.523C3674.53 420.745 3677.76 423.708 3680.19 427.411C3682.62 431.115 3683.84 435.876 3683.84 441.696C3683.84 447.304 3682.31 452.542 3679.24 457.409C3676.17 462.171 3671.41 466.033 3664.95 468.996C3658.6 471.853 3650.56 473.281 3640.83 473.281Z" fill="#666666"/>
<line x1="1905.78" y1="613.25" x2="1904.08" y2="0.0301377" stroke="#1DD45A" stroke-width="20.48"/>
<path d="M1682.13 516.007C1650.59 516.007 1626.22 507.943 1609.01 491.815C1591.81 475.329 1583.21 451.137 1583.21 419.239V161.729H1650.41V417.626C1650.41 431.245 1653.81 441.818 1660.62 449.345C1667.79 456.871 1677.65 460.634 1690.19 460.634C1705.24 460.634 1717.79 456.692 1727.82 448.807L1746.64 496.653C1738.75 503.105 1729.08 507.943 1717.61 511.169C1706.14 514.394 1694.31 516.007 1682.13 516.007ZM1535.9 278.925V225.165H1727.28V278.925H1535.9Z" fill="black"/>
<path fill-rule="evenodd" clip-rule="evenodd" d="M1434.8 225.166V512.244H1502V225.166H1434.8Z" fill="black"/>
<path d="M1468.66 177.857C1456.12 177.857 1445.73 173.914 1437.48 166.03C1429.6 158.145 1425.66 148.647 1425.66 137.537C1425.66 126.068 1429.6 116.57 1437.48 109.044C1445.73 101.159 1456.12 97.2168 1468.66 97.2168C1481.21 97.2168 1491.42 100.98 1499.31 108.506C1507.55 115.674 1511.67 124.814 1511.67 135.924C1511.67 147.751 1507.73 157.786 1499.84 166.03C1491.96 173.914 1481.57 177.857 1468.66 177.857Z" fill="#1DD45A"/>
<path d="M1141.14 512.244V469.774L1318.01 255.809L1330.38 278.926H1144.37V225.166H1384.14V267.636L1207.27 481.601L1193.83 458.484H1388.98V512.244H1141.14Z" fill="black"/>
<path fill-rule="evenodd" clip-rule="evenodd" d="M1025.53 225.166V512.244H1092.73V225.166H1025.53Z" fill="black"/>
<path d="M1059.4 177.857C1046.85 177.857 1036.46 173.914 1028.22 166.03C1020.33 158.145 1016.39 148.647 1016.39 137.537C1016.39 126.068 1020.33 116.57 1028.22 109.044C1036.46 101.159 1046.85 97.2168 1059.4 97.2168C1071.94 97.2168 1082.16 100.98 1090.04 108.506C1098.29 115.674 1102.41 124.814 1102.41 135.924C1102.41 147.751 1098.46 157.786 1090.58 166.03C1082.69 173.914 1072.3 177.857 1059.4 177.857Z" fill="#1DD45A"/>
<path d="M818.531 512.243V225.165H882.506V304.192L874.979 281.075C883.581 261.722 897.021 247.027 915.299 236.992C933.936 226.957 957.053 221.939 984.65 221.939V285.914C981.782 285.197 979.094 284.839 976.586 284.839C974.077 284.48 971.568 284.301 969.059 284.301C943.613 284.301 923.363 291.827 908.31 306.88C893.258 321.575 885.731 343.616 885.731 373.005V512.243H818.531Z" fill="black"/>
<path d="M625.239 516.007C600.868 516.007 579.185 510.631 560.189 499.879C541.194 489.127 526.141 472.999 515.031 451.495C504.279 429.633 498.903 402.036 498.903 368.705C498.903 335.015 504.458 307.418 515.569 285.914C527.037 264.41 542.269 248.462 561.265 238.068C580.618 227.316 601.943 221.94 625.239 221.94C653.553 221.94 678.461 228.033 699.965 240.218C721.828 252.404 739.031 269.428 751.575 291.29C764.477 313.153 770.929 338.958 770.929 368.705C770.929 398.452 764.477 424.257 751.575 446.119C739.031 467.982 721.828 485.185 699.965 497.729C678.461 509.914 653.553 516.007 625.239 516.007ZM466.109 512.244V113.345H533.309V291.828L527.933 368.167L530.084 444.506V512.244H466.109ZM617.713 458.484C633.841 458.484 648.177 454.9 660.721 447.732C673.623 440.564 683.837 430.17 691.364 416.551C698.89 402.932 702.653 386.983 702.653 368.705C702.653 350.068 698.89 334.119 691.364 320.858C683.837 307.239 673.623 296.846 660.721 289.678C648.177 282.51 633.841 278.926 617.713 278.926C601.585 278.926 587.069 282.51 574.167 289.678C561.265 296.846 551.05 307.239 543.524 320.858C535.997 334.119 532.234 350.068 532.234 368.705C532.234 386.983 535.997 402.932 543.524 416.551C551.05 430.17 561.265 440.564 574.167 447.732C587.069 454.9 601.585 458.484 617.713 458.484Z" fill="black"/>
<path d="M216.668 1.80467C261.824 -7.79346 298.43 21.8495 298.43 68.014V481.775C298.429 527.94 261.824 573.144 216.668 582.742L81.7617 611.418C36.6061 621.016 5.42697e-05 591.373 0 545.208V131.447C0 85.2825 36.606 40.0781 81.7617 30.4799L216.668 1.80467ZM224.844 125.448C224.844 97.7498 202.88 79.9646 175.787 85.7234L122.643 97.0198C95.5492 102.779 73.5855 129.901 73.5855 157.6V487.773C73.5856 515.472 95.5492 533.258 122.643 527.499L175.787 516.202C202.881 510.443 224.844 483.32 224.844 455.621V125.448Z" fill="#1DD45A"/>
</svg>
