<svg width="14417" height="2396" viewBox="0 0 14417 2396" fill="none" xmlns="http://www.w3.org/2000/svg">
<path d="M8138.58 994.704L8335.12 560.704H8396.5L8593.66 994.704H8528.56L8353.1 595.424H8377.9L8202.44 994.704H8138.58ZM8222.28 886.204L8239.02 836.604H8483.3L8501.28 886.204H8222.28ZM8658.4 994.704V560.704H8827.66C8883.88 560.704 8928.1 574.137 8960.34 601.004C8992.58 627.457 9008.7 664.451 9008.7 711.984C9008.7 743.397 9001.47 770.471 8987 793.204C8972.54 815.524 8951.87 832.677 8925 844.664C8898.14 856.651 8865.69 862.644 8827.66 862.644H8692.5L8720.4 834.124V994.704H8658.4ZM8948.56 994.704L8838.2 837.224H8904.54L9016.14 994.704H8948.56ZM8720.4 840.324L8692.5 809.944H8825.8C8865.48 809.944 8895.45 801.471 8915.7 784.524C8936.37 767.164 8946.7 742.984 8946.7 711.984C8946.7 680.984 8936.37 657.011 8915.7 640.064C8895.45 623.117 8865.48 614.644 8825.8 614.644H8692.5L8720.4 583.644V840.324ZM9302.93 999.664C9269.86 999.664 9239.28 994.291 9211.17 983.544C9183.48 972.384 9159.3 956.884 9138.63 937.044C9118.38 916.791 9102.46 893.231 9090.89 866.364C9079.32 839.497 9073.53 809.944 9073.53 777.704C9073.53 745.464 9079.32 715.911 9090.89 689.044C9102.46 662.177 9118.58 638.824 9139.25 618.984C9159.92 598.731 9184.1 583.231 9211.79 572.484C9239.9 561.324 9270.48 555.744 9303.55 555.744C9337.03 555.744 9367.82 561.531 9395.93 573.104C9424.45 584.264 9448.63 601.004 9468.47 623.324L9428.17 662.384C9411.64 645.024 9393.04 632.211 9372.37 623.944C9351.7 615.264 9329.59 610.924 9306.03 610.924C9281.64 610.924 9258.91 615.057 9237.83 623.324C9217.16 631.591 9199.18 643.164 9183.89 658.044C9168.6 672.924 9156.61 690.697 9147.93 711.364C9139.66 731.617 9135.53 753.731 9135.53 777.704C9135.53 801.677 9139.66 823.997 9147.93 844.664C9156.61 864.917 9168.6 882.484 9183.89 897.364C9199.18 912.244 9217.16 923.817 9237.83 932.084C9258.91 940.351 9281.64 944.484 9306.03 944.484C9329.59 944.484 9351.7 940.351 9372.37 932.084C9393.04 923.404 9411.64 910.177 9428.17 892.404L9468.47 931.464C9448.63 953.784 9424.45 970.731 9395.93 982.304C9367.82 993.877 9336.82 999.664 9302.93 999.664ZM9862.1 994.704V560.704H9924.1V994.704H9862.1ZM9550.86 994.704V560.704H9612.86V994.704H9550.86ZM9606.66 801.264V747.324H9867.68V801.264H9606.66ZM10054 994.704V560.704H10116V994.704H10054ZM10332.1 994.704V614.644H10183.3V560.704H10542.3V614.644H10393.5V994.704H10332.1ZM10609.8 994.704V560.704H10916.1V614.644H10671.8V940.764H10924.8V994.704H10609.8ZM10666.2 800.644V747.944H10889.4V800.644H10666.2ZM11218.6 999.664C11185.6 999.664 11155 994.291 11126.9 983.544C11099.2 972.384 11075 956.884 11054.3 937.044C11034.1 916.791 11018.2 893.231 11006.6 866.364C10995 839.497 10989.2 809.944 10989.2 777.704C10989.2 745.464 10995 715.911 11006.6 689.044C11018.2 662.177 11034.3 638.824 11055 618.984C11075.6 598.731 11099.8 583.231 11127.5 572.484C11155.6 561.324 11186.2 555.744 11219.3 555.744C11252.7 555.744 11283.5 561.531 11311.6 573.104C11340.2 584.264 11364.3 601.004 11384.2 623.324L11343.9 662.384C11327.3 645.024 11308.7 632.211 11288.1 623.944C11267.4 615.264 11245.3 610.924 11221.7 610.924C11197.3 610.924 11174.6 615.057 11153.5 623.324C11132.9 631.591 11114.9 643.164 11099.6 658.044C11084.3 672.924 11072.3 690.697 11063.6 711.364C11055.4 731.617 11051.2 753.731 11051.2 777.704C11051.2 801.677 11055.4 823.997 11063.6 844.664C11072.3 864.917 11084.3 882.484 11099.6 897.364C11114.9 912.244 11132.9 923.817 11153.5 932.084C11174.6 940.351 11197.3 944.484 11221.7 944.484C11245.3 944.484 11267.4 940.351 11288.1 932.084C11308.7 923.404 11327.3 910.177 11343.9 892.404L11384.2 931.464C11364.3 953.784 11340.2 970.731 11311.6 982.304C11283.5 993.877 11252.5 999.664 11218.6 999.664ZM11542.5 994.704V614.644H11393.7V560.704H11752.6V614.644H11603.8V994.704H11542.5ZM11992.1 999.664C11935 999.664 11890.2 983.337 11857.5 950.684C11824.9 918.031 11808.6 870.291 11808.6 807.464V560.704H11870.6V804.984C11870.6 853.344 11881.1 888.684 11902.2 911.004C11923.7 933.324 11953.9 944.484 11992.7 944.484C12032 944.484 12062.1 933.324 12083.2 911.004C12104.7 888.684 12115.5 853.344 12115.5 804.984V560.704H12175.6V807.464C12175.6 870.291 12159.3 918.031 12126.6 950.684C12094.4 983.337 12049.5 999.664 11992.1 999.664ZM12302.7 994.704V560.704H12472C12528.2 560.704 12572.4 574.137 12604.7 601.004C12636.9 627.457 12653 664.451 12653 711.984C12653 743.397 12645.8 770.471 12631.3 793.204C12616.9 815.524 12596.2 832.677 12569.3 844.664C12542.5 856.651 12510 862.644 12472 862.644H12336.8L12364.7 834.124V994.704H12302.7ZM12592.9 994.704L12482.5 837.224H12548.9L12660.5 994.704H12592.9ZM12364.7 840.324L12336.8 809.944H12470.1C12509.8 809.944 12539.8 801.471 12560 784.524C12580.7 767.164 12591 742.984 12591 711.984C12591 680.984 12580.7 657.011 12560 640.064C12539.8 623.117 12509.8 614.644 12470.1 614.644H12336.8L12364.7 583.644V840.324ZM12687.5 994.704L12884 560.704H12945.4L13142.5 994.704H13077.4L12902 595.424H12926.8L12751.3 994.704H12687.5ZM12771.2 886.204L12787.9 836.604H13032.2L13050.2 886.204H12771.2ZM13207.3 994.704V560.704H13269.3V940.764H13504.3V994.704H13207.3ZM8204.3 1844.7V1410.7H8398.98C8448.99 1410.7 8487.43 1420.83 8514.3 1441.08C8541.17 1460.92 8554.6 1488.2 8554.6 1522.92C8554.6 1546.48 8549.23 1566.32 8538.48 1582.44C8528.15 1598.56 8514.09 1610.96 8496.32 1619.64C8478.55 1628.32 8459.33 1632.66 8438.66 1632.66L8449.82 1614.06C8474.62 1614.06 8496.53 1618.4 8515.54 1627.08C8534.55 1635.76 8549.64 1648.58 8560.8 1665.52C8571.96 1682.06 8577.54 1702.72 8577.54 1727.52C8577.54 1764.72 8563.49 1793.66 8535.38 1814.32C8507.69 1834.58 8466.35 1844.7 8411.38 1844.7H8204.3ZM8266.3 1794.48H8408.9C8443.21 1794.48 8469.45 1788.7 8487.64 1777.12C8505.83 1765.55 8514.92 1747.36 8514.92 1722.56C8514.92 1697.35 8505.83 1678.96 8487.64 1667.38C8469.45 1655.81 8443.21 1650.02 8408.9 1650.02H8260.72V1599.8H8393.4C8424.81 1599.8 8449.2 1594.02 8466.56 1582.44C8483.92 1570.87 8492.6 1553.51 8492.6 1530.36C8492.6 1507.22 8483.92 1489.86 8466.56 1478.28C8449.2 1466.71 8424.81 1460.92 8393.4 1460.92H8266.3V1794.48ZM8853.34 1849.66C8796.3 1849.66 8751.45 1833.34 8718.8 1800.68C8686.15 1768.03 8669.82 1720.29 8669.82 1657.46V1410.7H8731.82V1654.98C8731.82 1703.34 8742.36 1738.68 8763.44 1761C8784.93 1783.32 8815.11 1794.48 8853.96 1794.48C8893.23 1794.48 8923.4 1783.32 8944.48 1761C8965.97 1738.68 8976.72 1703.34 8976.72 1654.98V1410.7H9036.86V1657.46C9036.86 1720.29 9020.53 1768.03 8987.88 1800.68C8955.64 1833.34 8910.79 1849.66 8853.34 1849.66ZM9163.97 1844.7V1410.7H9225.97V1844.7H9163.97ZM9355.9 1844.7V1410.7H9417.9V1790.76H9652.88V1844.7H9355.9ZM9724.03 1844.7V1410.7H9906.93C9953.22 1410.7 9993.93 1419.8 10029.1 1437.98C10064.6 1456.17 10092.1 1481.59 10111.5 1514.24C10131.4 1546.9 10141.3 1584.72 10141.3 1627.7C10141.3 1670.69 10131.4 1708.51 10111.5 1741.16C10092.1 1773.82 10064.6 1799.24 10029.1 1817.42C9993.93 1835.61 9953.22 1844.7 9906.93 1844.7H9724.03ZM9786.03 1790.76H9903.21C9939.17 1790.76 9970.17 1783.94 9996.21 1770.3C10022.7 1756.66 10043.1 1737.65 10057.6 1713.26C10072.1 1688.46 10079.3 1659.94 10079.3 1627.7C10079.3 1595.05 10072.1 1566.53 10057.6 1542.14C10043.1 1517.76 10022.7 1498.74 9996.21 1485.1C9970.17 1471.46 9939.17 1464.64 9903.21 1464.64H9786.03V1790.76ZM10236.3 1844.7V1410.7H10298.3V1844.7H10236.3ZM10428.2 1844.7V1410.7H10479L10766.1 1767.2H10739.4V1410.7H10801.4V1844.7H10750.6L10463.5 1488.2H10490.2V1844.7H10428.2ZM11127.3 1849.66C11093.8 1849.66 11063 1844.29 11034.9 1833.54C11006.8 1822.38 10982.4 1806.88 10961.7 1787.04C10941 1766.79 10924.9 1743.23 10913.4 1716.36C10901.8 1689.5 10896 1659.94 10896 1627.7C10896 1595.46 10901.8 1565.91 10913.4 1539.04C10924.9 1512.18 10941 1488.82 10961.7 1468.98C10982.8 1448.73 11007.4 1433.23 11035.5 1422.48C11063.6 1411.32 11094.6 1405.74 11128.5 1405.74C11162.8 1405.74 11194.2 1411.32 11222.7 1422.48C11251.3 1433.64 11275.4 1450.38 11295.3 1472.7L11256.8 1511.14C11239.1 1493.78 11219.6 1481.18 11198.6 1473.32C11177.9 1465.06 11155.4 1460.92 11131 1460.92C11106.2 1460.92 11083 1465.06 11061.5 1473.32C11040.5 1481.59 11022.1 1493.16 11006.4 1508.04C10991.1 1522.92 10979.1 1540.7 10970.4 1561.36C10962.1 1581.62 10958 1603.73 10958 1627.7C10958 1651.26 10962.1 1673.38 10970.4 1694.04C10979.1 1714.3 10991.1 1732.07 11006.4 1747.36C11022.1 1762.24 11040.5 1773.82 11061.5 1782.08C11082.6 1790.35 11105.6 1794.48 11130.4 1794.48C11153.5 1794.48 11175.6 1790.97 11196.7 1783.94C11218.2 1776.5 11238 1764.31 11256.2 1747.36L11291.6 1794.48C11270.1 1812.67 11244.8 1826.52 11215.9 1836.02C11187.4 1845.12 11157.8 1849.66 11127.3 1849.66ZM11291.6 1794.48L11232 1786.42V1625.22H11291.6V1794.48ZM11703.2 1849.66C11670.2 1849.66 11638.6 1844.7 11608.4 1834.78C11578.2 1824.45 11554.4 1811.22 11537.1 1795.1L11560 1746.74C11576.6 1761.21 11597.6 1773.2 11623.3 1782.7C11648.9 1792.21 11675.5 1796.96 11703.2 1796.96C11728.5 1796.96 11748.9 1794.07 11764.6 1788.28C11780.3 1782.5 11791.9 1774.64 11799.3 1764.72C11806.8 1754.39 11810.5 1742.82 11810.5 1730C11810.5 1715.12 11805.5 1703.14 11795.6 1694.04C11786.1 1684.95 11773.5 1677.72 11757.8 1672.34C11742.5 1666.56 11725.6 1661.6 11707 1657.46C11688.4 1653.33 11669.6 1648.58 11650.5 1643.2C11631.9 1637.42 11614.8 1630.18 11599.1 1621.5C11583.8 1612.82 11571.4 1601.25 11561.9 1586.78C11552.4 1571.9 11547.6 1552.89 11547.6 1529.74C11547.6 1507.42 11553.4 1486.96 11565 1468.36C11577 1449.35 11595.2 1434.26 11619.5 1423.1C11644.3 1411.53 11675.8 1405.74 11713.8 1405.74C11739 1405.74 11764 1409.05 11788.8 1415.66C11813.6 1422.28 11835.1 1431.78 11853.3 1444.18L11832.8 1493.78C11814.2 1481.38 11794.6 1472.5 11773.9 1467.12C11753.3 1461.34 11733.2 1458.44 11713.8 1458.44C11689.4 1458.44 11669.3 1461.54 11653.6 1467.74C11637.9 1473.94 11626.4 1482.21 11618.9 1492.54C11611.9 1502.88 11608.4 1514.45 11608.4 1527.26C11608.4 1542.56 11613.1 1554.75 11622.6 1563.84C11632.6 1572.94 11645.2 1580.17 11660.5 1585.54C11676.2 1590.92 11693.3 1595.88 11711.9 1600.42C11730.5 1604.56 11749.1 1609.31 11767.7 1614.68C11786.7 1620.06 11803.9 1627.08 11819.2 1635.76C11834.9 1644.44 11847.5 1656.02 11857 1670.48C11866.5 1684.95 11871.3 1703.55 11871.3 1726.28C11871.3 1748.19 11865.3 1768.65 11853.3 1787.66C11841.3 1806.26 11822.7 1821.35 11797.5 1832.92C11772.7 1844.08 11741.3 1849.66 11703.2 1849.66ZM12057.5 1844.7V1678.54L12071.8 1716.98L11885.2 1410.7H11951.5L12108.4 1669.24H12072.4L12229.9 1410.7H12291.3L12105.3 1716.98L12118.9 1678.54V1844.7H12057.5ZM12471.6 1849.66C12438.5 1849.66 12406.9 1844.7 12376.7 1834.78C12346.5 1824.45 12322.8 1811.22 12305.4 1795.1L12328.4 1746.74C12344.9 1761.21 12366 1773.2 12391.6 1782.7C12417.2 1792.21 12443.9 1796.96 12471.6 1796.96C12496.8 1796.96 12517.3 1794.07 12533 1788.28C12548.7 1782.5 12560.2 1774.64 12567.7 1764.72C12575.1 1754.39 12578.8 1742.82 12578.8 1730C12578.8 1715.12 12573.9 1703.14 12564 1694.04C12554.5 1684.95 12541.8 1677.72 12526.1 1672.34C12510.8 1666.56 12493.9 1661.6 12475.3 1657.46C12456.7 1653.33 12437.9 1648.58 12418.9 1643.2C12400.3 1637.42 12383.1 1630.18 12367.4 1621.5C12352.1 1612.82 12339.7 1601.25 12330.2 1586.78C12320.7 1571.9 12316 1552.89 12316 1529.74C12316 1507.42 12321.7 1486.96 12333.3 1468.36C12345.3 1449.35 12363.5 1434.26 12387.9 1423.1C12412.7 1411.53 12444.1 1405.74 12482.1 1405.74C12507.3 1405.74 12532.3 1409.05 12557.1 1415.66C12581.9 1422.28 12603.4 1431.78 12621.6 1444.18L12601.2 1493.78C12582.6 1481.38 12562.9 1472.5 12542.3 1467.12C12521.6 1461.34 12501.5 1458.44 12482.1 1458.44C12457.7 1458.44 12437.7 1461.54 12422 1467.74C12406.3 1473.94 12394.7 1482.21 12387.3 1492.54C12380.2 1502.88 12376.7 1514.45 12376.7 1527.26C12376.7 1542.56 12381.5 1554.75 12391 1563.84C12400.9 1572.94 12413.5 1580.17 12428.8 1585.54C12444.5 1590.92 12461.7 1595.88 12480.3 1600.42C12498.9 1604.56 12517.5 1609.31 12536.1 1614.68C12555.1 1620.06 12572.2 1627.08 12587.5 1635.76C12603.2 1644.44 12615.8 1656.02 12625.3 1670.48C12634.8 1684.95 12639.6 1703.55 12639.6 1726.28C12639.6 1748.19 12633.6 1768.65 12621.6 1787.66C12609.6 1806.26 12591 1821.35 12565.8 1832.92C12541 1844.08 12509.6 1849.66 12471.6 1849.66ZM12810.3 1844.7V1464.64H12661.5V1410.7H13020.5V1464.64H12871.7V1844.7H12810.3ZM13088 1844.7V1410.7H13394.3V1464.64H13150V1790.76H13403V1844.7H13088ZM13144.4 1650.64V1597.94H13367.6V1650.64H13144.4ZM13503.4 1844.7V1410.7H13554.2L13748.9 1738.68H13721.6L13913.8 1410.7H13964.6L13965.3 1844.7H13905.7L13905.1 1504.32H13919.4L13748.3 1792H13719.7L13547.4 1504.32H13562.9V1844.7H13503.4ZM14222 1849.66C14188.9 1849.66 14157.3 1844.7 14127.1 1834.78C14097 1824.45 14073.2 1811.22 14055.8 1795.1L14078.8 1746.74C14095.3 1761.21 14116.4 1773.2 14142 1782.7C14167.6 1792.21 14194.3 1796.96 14222 1796.96C14247.2 1796.96 14267.7 1794.07 14283.4 1788.28C14299.1 1782.5 14310.7 1774.64 14318.1 1764.72C14325.5 1754.39 14329.3 1742.82 14329.3 1730C14329.3 1715.12 14324.3 1703.14 14314.4 1694.04C14304.9 1684.95 14292.3 1677.72 14276.6 1672.34C14261.3 1666.56 14244.3 1661.6 14225.7 1657.46C14207.1 1653.33 14188.3 1648.58 14169.3 1643.2C14150.7 1637.42 14133.5 1630.18 14117.8 1621.5C14102.5 1612.82 14090.1 1601.25 14080.6 1586.78C14071.1 1571.9 14066.4 1552.89 14066.4 1529.74C14066.4 1507.42 14072.2 1486.96 14083.7 1468.36C14095.7 1449.35 14113.9 1434.26 14138.3 1423.1C14163.1 1411.53 14194.5 1405.74 14232.5 1405.74C14257.7 1405.74 14282.8 1409.05 14307.6 1415.66C14332.4 1422.28 14353.8 1431.78 14372 1444.18L14351.6 1493.78C14333 1481.38 14313.3 1472.5 14292.7 1467.12C14272 1461.34 14252 1458.44 14232.5 1458.44C14208.1 1458.44 14188.1 1461.54 14172.4 1467.74C14156.7 1473.94 14145.1 1482.21 14137.7 1492.54C14130.6 1502.88 14127.1 1514.45 14127.1 1527.26C14127.1 1542.56 14131.9 1554.75 14141.4 1563.84C14151.3 1572.94 14163.9 1580.17 14179.2 1585.54C14194.9 1590.92 14212.1 1595.88 14230.7 1600.42C14249.3 1604.56 14267.9 1609.31 14286.5 1614.68C14305.5 1620.06 14322.6 1627.08 14337.9 1635.76C14353.6 1644.44 14366.2 1656.02 14375.8 1670.48C14385.3 1684.95 14390 1703.55 14390 1726.28C14390 1748.19 14384 1768.65 14372 1787.66C14360 1806.26 14341.4 1821.35 14316.2 1832.92C14291.4 1844.08 14260 1849.66 14222 1849.66Z" fill="#666666"/>
<line x1="7444.46" y1="2395.51" x2="7437.81" y2="0.11986" stroke="#1DD45A" stroke-width="80"/>
<path d="M6570.81 2015.65C6447.61 2015.65 6352.41 1984.15 6285.21 1921.15C6218.01 1856.75 6184.41 1762.25 6184.41 1637.65V631.755H6446.91V1631.35C6446.91 1684.55 6460.21 1725.85 6486.81 1755.25C6514.81 1784.65 6553.31 1799.35 6602.31 1799.35C6661.11 1799.35 6710.11 1783.95 6749.31 1753.15L6822.81 1940.05C6792.01 1965.25 6754.21 1984.15 6709.41 1996.75C6664.61 2009.35 6618.41 2015.65 6570.81 2015.65ZM5999.61 1089.55V879.555H6747.21V1089.55H5999.61Z" fill="black"/>
<path fill-rule="evenodd" clip-rule="evenodd" d="M5604.68 879.555V2000.95H5867.18V879.555H5604.68Z" fill="black"/>
<path d="M5736.98 694.755C5687.98 694.755 5647.38 679.355 5615.18 648.555C5584.38 617.755 5568.98 580.655 5568.98 537.255C5568.98 492.455 5584.38 455.355 5615.18 425.955C5647.38 395.155 5687.98 379.755 5736.98 379.755C5785.98 379.755 5825.88 394.455 5856.68 423.855C5888.88 451.855 5904.98 487.555 5904.98 530.955C5904.98 577.155 5889.58 616.355 5858.78 648.555C5827.98 679.355 5787.38 694.755 5736.98 694.755Z" fill="#1DD45A"/>
<path d="M4457.6 2000.95V1835.05L5148.5 999.255L5196.8 1089.55H4470.2V879.555H5406.8V1045.45L4715.9 1881.25L4663.4 1790.95H5425.7V2000.95H4457.6Z" fill="black"/>
<path fill-rule="evenodd" clip-rule="evenodd" d="M4005.97 879.555V2000.95H4268.47V879.555H4005.97Z" fill="black"/>
<path d="M4138.27 694.755C4089.27 694.755 4048.67 679.355 4016.47 648.555C3985.67 617.755 3970.27 580.655 3970.27 537.255C3970.27 492.455 3985.67 455.355 4016.47 425.955C4048.67 395.155 4089.27 379.755 4138.27 379.755C4187.27 379.755 4227.17 394.455 4257.97 423.855C4290.17 451.855 4306.27 487.555 4306.27 530.955C4306.27 577.155 4290.87 616.355 4260.07 648.555C4229.27 679.355 4188.67 694.755 4138.27 694.755Z" fill="#1DD45A"/>
<path d="M3197.39 2000.95V879.554H3447.29V1188.25L3417.89 1097.95C3451.49 1022.35 3503.99 964.954 3575.39 925.754C3648.19 886.554 3738.49 866.954 3846.29 866.954V1116.85C3835.09 1114.05 3824.59 1112.65 3814.79 1112.65C3804.99 1111.25 3795.19 1110.55 3785.39 1110.55C3685.99 1110.55 3606.89 1139.95 3548.09 1198.75C3489.29 1256.15 3459.89 1342.25 3459.89 1457.05V2000.95H3197.39Z" fill="black"/>
<path d="M2442.34 2015.65C2347.14 2015.65 2262.44 1994.65 2188.24 1952.65C2114.04 1910.65 2055.24 1847.65 2011.84 1763.65C1969.84 1678.25 1948.84 1570.45 1948.84 1440.25C1948.84 1308.65 1970.54 1200.85 2013.94 1116.85C2058.74 1032.85 2118.24 970.555 2192.44 929.955C2268.04 887.955 2351.34 866.955 2442.34 866.955C2552.94 866.955 2650.24 890.755 2734.24 938.355C2819.64 985.955 2886.84 1052.45 2935.84 1137.85C2986.24 1223.25 3011.44 1324.05 3011.44 1440.25C3011.44 1556.45 2986.24 1657.25 2935.84 1742.65C2886.84 1828.05 2819.64 1895.26 2734.24 1944.26C2650.24 1991.86 2552.94 2015.65 2442.34 2015.65ZM1820.74 2000.95V442.755H2083.24V1139.95L2062.24 1438.15L2070.64 1736.35V2000.95H1820.74ZM2412.94 1790.95C2475.94 1790.95 2531.94 1776.95 2580.94 1748.95C2631.34 1720.95 2671.24 1680.35 2700.64 1627.15C2730.04 1573.95 2744.74 1511.65 2744.74 1440.25C2744.74 1367.45 2730.04 1305.15 2700.64 1253.35C2671.24 1200.15 2631.34 1159.55 2580.94 1131.55C2531.94 1103.55 2475.94 1089.55 2412.94 1089.55C2349.94 1089.55 2293.24 1103.55 2242.84 1131.55C2192.44 1159.55 2152.54 1200.15 2123.14 1253.35C2093.74 1305.15 2079.04 1367.45 2079.04 1440.25C2079.04 1511.65 2093.74 1573.95 2123.14 1627.15C2152.54 1680.35 2192.44 1720.95 2242.84 1748.95C2293.24 1776.95 2349.94 1790.95 2412.94 1790.95Z" fill="black"/>
<path d="M846.359 7.04948C1022.75 -30.4432 1165.74 85.3497 1165.74 265.68V1881.93C1165.74 2062.26 1022.75 2238.84 846.359 2276.34L319.382 2388.35C142.993 2425.84 0.000211991 2310.05 0 2129.72V513.464C0 333.135 142.992 156.555 319.382 119.062L846.359 7.04948ZM878.298 490.032C878.297 381.835 792.502 312.362 686.669 334.857L479.072 378.984C373.239 401.479 287.443 507.426 287.443 615.624V1905.36C287.444 2013.56 373.239 2083.04 479.072 2060.54L686.669 2016.42C792.502 1993.92 878.298 1887.97 878.298 1779.77V490.032Z" fill="#1DD45A"/>
</svg>
