<svg width="923" height="154" viewBox="0 0 923 154" fill="none" xmlns="http://www.w3.org/2000/svg">
<g opacity="0.56">
<path d="M520.867 63.2529L533.445 35.4769H537.373L549.992 63.2529H545.825L534.596 37.699H536.183L524.954 63.2529H520.867ZM526.223 56.3089L527.295 53.1345H542.929L544.079 56.3089H526.223ZM554.135 63.2529V35.4769H564.968C568.565 35.4769 571.396 36.3367 573.459 38.0561C575.523 39.7491 576.554 42.1167 576.554 45.1588C576.554 47.1693 576.091 48.902 575.166 50.3569C574.24 51.7854 572.917 52.8832 571.198 53.6504C569.478 54.4175 567.401 54.8011 564.968 54.8011H556.318L558.103 52.9758V63.2529H554.135ZM572.705 63.2529L565.642 53.1742H569.888L577.031 63.2529H572.705ZM558.103 53.3726L556.318 51.4283H564.849C567.388 51.4283 569.306 50.886 570.602 49.8014C571.925 48.6904 572.586 47.1428 572.586 45.1588C572.586 43.1748 571.925 41.6406 570.602 40.556C569.306 39.4714 567.388 38.9291 564.849 38.9291H556.318L558.103 36.9451V53.3726ZM595.385 63.5704C593.269 63.5704 591.311 63.2265 589.512 62.5387C587.74 61.8244 586.192 60.8324 584.87 59.5627C583.574 58.2665 582.555 56.7586 581.814 55.0392C581.074 53.3197 580.703 51.4283 580.703 49.3649C580.703 47.3016 581.074 45.4102 581.814 43.6907C582.555 41.9712 583.587 40.4766 584.909 39.2068C586.232 37.9106 587.78 36.9186 589.552 36.2308C591.351 35.5166 593.308 35.1595 595.425 35.1595C597.567 35.1595 599.538 35.5298 601.337 36.2705C603.162 36.9848 604.71 38.0561 605.98 39.4846L603.4 41.9844C602.342 40.8734 601.152 40.0534 599.829 39.5243C598.506 38.9688 597.091 38.691 595.583 38.691C594.023 38.691 592.568 38.9555 591.219 39.4846C589.896 40.0137 588.745 40.7544 587.766 41.7067C586.788 42.659 586.021 43.7965 585.465 45.1192C584.936 46.4154 584.671 47.8306 584.671 49.3649C584.671 50.8992 584.936 52.3277 585.465 53.6504C586.021 54.9466 586.788 56.0708 587.766 57.0232C588.745 57.9755 589.896 58.7162 591.219 59.2452C592.568 59.7743 594.023 60.0388 595.583 60.0388C597.091 60.0388 598.506 59.7743 599.829 59.2452C601.152 58.6897 602.342 57.8432 603.4 56.7057L605.98 59.2056C604.71 60.634 603.162 61.7186 601.337 62.4593C599.538 63.2 597.554 63.5704 595.385 63.5704ZM631.172 63.2529V35.4769H635.14V63.2529H631.172ZM611.253 63.2529V35.4769H615.221V63.2529H611.253ZM614.824 50.8728V47.4206H631.529V50.8728H614.824ZM643.454 63.2529V35.4769H647.422V63.2529H643.454ZM661.253 63.2529V38.9291H651.73V35.4769H674.705V38.9291H665.181V63.2529H661.253ZM679.026 63.2529V35.4769H698.628V38.9291H682.994V59.8008H699.184V63.2529H679.026ZM682.637 50.8331V47.4603H696.922V50.8331H682.637ZM717.99 63.5704C715.874 63.5704 713.916 63.2265 712.117 62.5387C710.345 61.8244 708.797 60.8324 707.475 59.5627C706.179 58.2665 705.16 56.7586 704.419 55.0392C703.679 53.3197 703.308 51.4283 703.308 49.3649C703.308 47.3016 703.679 45.4102 704.419 43.6907C705.16 41.9712 706.192 40.4766 707.514 39.2068C708.837 37.9106 710.385 36.9186 712.157 36.2308C713.956 35.5166 715.913 35.1595 718.03 35.1595C720.172 35.1595 722.143 35.5298 723.942 36.2705C725.767 36.9848 727.315 38.0561 728.585 39.4846L726.005 41.9844C724.947 40.8734 723.757 40.0534 722.434 39.5243C721.111 38.9688 719.696 38.691 718.188 38.691C716.628 38.691 715.173 38.9555 713.824 39.4846C712.501 40.0137 711.35 40.7544 710.371 41.7067C709.393 42.659 708.626 43.7965 708.07 45.1192C707.541 46.4154 707.276 47.8306 707.276 49.3649C707.276 50.8992 707.541 52.3277 708.07 53.6504C708.626 54.9466 709.393 56.0708 710.371 57.0232C711.35 57.9755 712.501 58.7162 713.824 59.2452C715.173 59.7743 716.628 60.0388 718.188 60.0388C719.696 60.0388 721.111 59.7743 722.434 59.2452C723.757 58.6897 724.947 57.8432 726.005 56.7057L728.585 59.2056C727.315 60.634 725.767 61.7186 723.942 62.4593C722.143 63.2 720.159 63.5704 717.99 63.5704ZM738.714 63.2529V38.9291H729.191V35.4769H752.166V38.9291H742.643V63.2529H738.714ZM767.491 63.5704C763.841 63.5704 760.97 62.5255 758.881 60.4356C756.791 58.3458 755.746 55.2905 755.746 51.2696V35.4769H759.714V51.1108C759.714 54.2059 760.388 56.4676 761.738 57.8961C763.113 59.3246 765.044 60.0388 767.531 60.0388C770.044 60.0388 771.975 59.3246 773.324 57.8961C774.7 56.4676 775.387 54.2059 775.387 51.1108V35.4769H779.236V51.2696C779.236 55.2905 778.191 58.3458 776.102 60.4356C774.038 62.5255 771.168 63.5704 767.491 63.5704ZM787.371 63.2529V35.4769H798.204C801.802 35.4769 804.632 36.3367 806.696 38.0561C808.759 39.7491 809.791 42.1167 809.791 45.1588C809.791 47.1693 809.328 48.902 808.402 50.3569C807.476 51.7854 806.153 52.8832 804.434 53.6504C802.714 54.4175 800.638 54.8011 798.204 54.8011H789.554L791.339 52.9758V63.2529H787.371ZM805.942 63.2529L798.879 53.1742H803.124L810.267 63.2529H805.942ZM791.339 53.3726L789.554 51.4283H798.085C800.625 51.4283 802.542 50.886 803.839 49.8014C805.161 48.6904 805.823 47.1428 805.823 45.1588C805.823 43.1748 805.161 41.6406 803.839 40.556C802.542 39.4714 800.625 38.9291 798.085 38.9291H789.554L791.339 36.9451V53.3726ZM811.995 63.2529L824.574 35.4769H828.502L841.12 63.2529H836.954L825.725 37.699H827.312L816.082 63.2529H811.995ZM817.352 56.3089L818.423 53.1345H834.057L835.208 56.3089H817.352ZM845.264 63.2529V35.4769H849.232V59.8008H864.271V63.2529H845.264ZM525.073 118.253V90.4769H537.532C540.733 90.4769 543.193 91.125 544.913 92.4212C546.632 93.691 547.492 95.4369 547.492 97.659C547.492 99.1668 547.148 100.437 546.46 101.468C545.799 102.5 544.899 103.294 543.762 103.849C542.624 104.405 541.394 104.682 540.072 104.682L540.786 103.492C542.373 103.492 543.775 103.77 544.992 104.325C546.209 104.881 547.174 105.701 547.889 106.785C548.603 107.844 548.96 109.166 548.96 110.753C548.96 113.134 548.061 114.986 546.262 116.309C544.489 117.605 541.844 118.253 538.326 118.253H525.073ZM529.041 115.039H538.167C540.363 115.039 542.042 114.669 543.206 113.928C544.37 113.187 544.952 112.023 544.952 110.436C544.952 108.822 544.37 107.645 543.206 106.904C542.042 106.164 540.363 105.793 538.167 105.793H528.684V102.579H537.175C539.186 102.579 540.746 102.209 541.857 101.468C542.968 100.728 543.524 99.6166 543.524 98.1352C543.524 96.6538 542.968 95.5427 541.857 94.802C540.746 94.0614 539.186 93.691 537.175 93.691H529.041V115.039ZM566.611 118.57C562.961 118.57 560.09 117.525 558.001 115.436C555.911 113.346 554.866 110.29 554.866 106.27V90.4769H558.834V106.111C558.834 109.206 559.508 111.468 560.858 112.896C562.233 114.325 564.164 115.039 566.651 115.039C569.164 115.039 571.095 114.325 572.444 112.896C573.82 111.468 574.507 109.206 574.507 106.111V90.4769H578.356V106.27C578.356 110.29 577.311 113.346 575.222 115.436C573.158 117.525 570.288 118.57 566.611 118.57ZM586.491 118.253V90.4769H590.459V118.253H586.491ZM598.775 118.253V90.4769H602.743V114.801H617.782V118.253H598.775ZM622.335 118.253V90.4769H634.041C637.004 90.4769 639.609 91.0589 641.858 92.2228C644.133 93.3868 645.892 95.0137 647.135 97.1035C648.405 99.1933 649.04 101.614 649.04 104.365C649.04 107.116 648.405 109.537 647.135 111.626C645.892 113.716 644.133 115.343 641.858 116.507C639.609 117.671 637.004 118.253 634.041 118.253H622.335ZM626.303 114.801H633.803C636.104 114.801 638.088 114.364 639.755 113.491C641.448 112.618 642.757 111.402 643.683 109.841C644.609 108.254 645.072 106.428 645.072 104.365C645.072 102.275 644.609 100.45 643.683 98.8891C642.757 97.3283 641.448 96.1115 639.755 95.2385C638.088 94.3656 636.104 93.9291 633.803 93.9291H626.303V114.801ZM655.118 118.253V90.4769H659.086V118.253H655.118ZM667.401 118.253V90.4769H670.655L689.027 113.293H687.321V90.4769H691.289V118.253H688.035L669.663 95.4369H671.369V118.253H667.401ZM712.142 118.57C709.999 118.57 708.028 118.226 706.229 117.539C704.43 116.824 702.87 115.832 701.547 114.563C700.224 113.266 699.193 111.759 698.452 110.039C697.711 108.32 697.341 106.428 697.341 104.365C697.341 102.302 697.711 100.41 698.452 98.6907C699.193 96.9712 700.224 95.4766 701.547 94.2068C702.896 92.9106 704.47 91.9186 706.269 91.2308C708.068 90.5166 710.052 90.1595 712.221 90.1595C714.417 90.1595 716.427 90.5166 718.252 91.2308C720.078 91.9451 721.625 93.0164 722.895 94.4449L720.435 96.9051C719.297 95.794 718.054 94.9872 716.705 94.4846C715.382 93.9555 713.94 93.691 712.38 93.691C710.792 93.691 709.311 93.9555 707.935 94.4846C706.586 95.0137 705.409 95.7544 704.404 96.7067C703.425 97.659 702.658 98.7965 702.102 100.119C701.573 101.415 701.309 102.831 701.309 104.365C701.309 105.873 701.573 107.288 702.102 108.611C702.658 109.907 703.425 111.044 704.404 112.023C705.409 112.975 706.586 113.716 707.935 114.245C709.285 114.774 710.753 115.039 712.34 115.039C713.821 115.039 715.237 114.814 716.586 114.364C717.961 113.888 719.231 113.108 720.395 112.023L722.657 115.039C721.281 116.203 719.668 117.089 717.816 117.697C715.99 118.279 714.099 118.57 712.142 118.57ZM722.657 115.039L718.847 114.523V104.206H722.657V115.039ZM749.005 118.57C746.889 118.57 744.865 118.253 742.934 117.618C741.003 116.957 739.482 116.11 738.371 115.079L739.839 111.983C740.897 112.909 742.246 113.677 743.886 114.285C745.526 114.893 747.233 115.198 749.005 115.198C750.619 115.198 751.928 115.012 752.933 114.642C753.938 114.272 754.679 113.769 755.155 113.134C755.631 112.473 755.87 111.732 755.87 110.912C755.87 109.96 755.552 109.193 754.917 108.611C754.309 108.029 753.502 107.566 752.497 107.222C751.518 106.852 750.433 106.534 749.243 106.27C748.053 106.005 746.849 105.701 745.632 105.357C744.442 104.987 743.344 104.524 742.339 103.968C741.36 103.413 740.566 102.672 739.958 101.746C739.349 100.794 739.045 99.5769 739.045 98.0955C739.045 96.667 739.416 95.3576 740.156 94.1672C740.923 92.9503 742.087 91.9848 743.648 91.2705C745.235 90.5298 747.246 90.1595 749.679 90.1595C751.293 90.1595 752.894 90.3711 754.481 90.7944C756.068 91.2176 757.443 91.826 758.607 92.6196L757.298 95.794C756.108 95.0004 754.851 94.4317 753.528 94.0878C752.206 93.7175 750.923 93.5323 749.679 93.5323C748.119 93.5323 746.836 93.7307 745.83 94.1275C744.825 94.5243 744.085 95.0534 743.608 95.7147C743.159 96.376 742.934 97.1167 742.934 97.9368C742.934 98.9155 743.238 99.6959 743.846 100.278C744.481 100.86 745.288 101.323 746.267 101.667C747.272 102.011 748.37 102.328 749.56 102.619C750.751 102.884 751.941 103.188 753.132 103.532C754.348 103.876 755.446 104.325 756.425 104.881C757.43 105.436 758.237 106.177 758.846 107.103C759.454 108.029 759.758 109.219 759.758 110.674C759.758 112.076 759.375 113.386 758.607 114.602C757.84 115.793 756.65 116.758 755.036 117.499C753.449 118.213 751.439 118.57 749.005 118.57ZM771.68 118.253V107.619L772.592 110.079L760.649 90.4769H764.895L774.934 107.023H772.632L782.711 90.4769H786.639L774.735 110.079L775.608 107.619V118.253H771.68ZM798.179 118.57C796.062 118.57 794.039 118.253 792.108 117.618C790.176 116.957 788.655 116.11 787.544 115.079L789.013 111.983C790.071 112.909 791.42 113.677 793.06 114.285C794.7 114.893 796.406 115.198 798.179 115.198C799.792 115.198 801.102 115.012 802.107 114.642C803.112 114.272 803.853 113.769 804.329 113.134C804.805 112.473 805.043 111.732 805.043 110.912C805.043 109.96 804.726 109.193 804.091 108.611C803.483 108.029 802.676 107.566 801.67 107.222C800.692 106.852 799.607 106.534 798.417 106.27C797.226 106.005 796.023 105.701 794.806 105.357C793.615 104.987 792.518 104.524 791.512 103.968C790.534 103.413 789.74 102.672 789.132 101.746C788.523 100.794 788.219 99.5769 788.219 98.0955C788.219 96.667 788.589 95.3576 789.33 94.1672C790.097 92.9503 791.261 91.9848 792.822 91.2705C794.409 90.5298 796.419 90.1595 798.853 90.1595C800.467 90.1595 802.067 90.3711 803.654 90.7944C805.242 91.2176 806.617 91.826 807.781 92.6196L806.472 95.794C805.281 95.0004 804.025 94.4317 802.702 94.0878C801.379 93.7175 800.096 93.5323 798.853 93.5323C797.292 93.5323 796.009 93.7307 795.004 94.1275C793.999 94.5243 793.258 95.0534 792.782 95.7147C792.332 96.376 792.108 97.1167 792.108 97.9368C792.108 98.9155 792.412 99.6959 793.02 100.278C793.655 100.86 794.462 101.323 795.441 101.667C796.446 102.011 797.544 102.328 798.734 102.619C799.925 102.884 801.115 103.188 802.305 103.532C803.522 103.876 804.62 104.325 805.599 104.881C806.604 105.436 807.411 106.177 808.019 107.103C808.628 108.029 808.932 109.219 808.932 110.674C808.932 112.076 808.548 113.386 807.781 114.602C807.014 115.793 805.824 116.758 804.21 117.499C802.623 118.213 800.612 118.57 798.179 118.57ZM819.857 118.253V93.9291H810.334V90.4769H833.308V93.9291H823.785V118.253H819.857ZM837.63 118.253V90.4769H857.232V93.9291H841.598V114.801H857.788V118.253H837.63ZM841.241 105.833V102.46H855.526V105.833H841.241ZM864.213 118.253V90.4769H867.466L879.926 111.468H878.18L890.481 90.4769H893.735L893.774 118.253H889.965L889.925 96.4686H890.838L879.886 114.88H878.061L867.03 96.4686H868.022V118.253H864.213ZM910.205 118.57C908.089 118.57 906.065 118.253 904.134 117.618C902.203 116.957 900.682 116.11 899.571 115.079L901.039 111.983C902.097 112.909 903.446 113.677 905.086 114.285C906.726 114.893 908.433 115.198 910.205 115.198C911.819 115.198 913.128 115.012 914.133 114.642C915.138 114.272 915.879 113.769 916.355 113.134C916.831 112.473 917.07 111.732 917.07 110.912C917.07 109.96 916.752 109.193 916.117 108.611C915.509 108.029 914.702 107.566 913.697 107.222C912.718 106.852 911.633 106.534 910.443 106.27C909.253 106.005 908.049 105.701 906.832 105.357C905.642 104.987 904.544 104.524 903.539 103.968C902.56 103.413 901.766 102.672 901.158 101.746C900.549 100.794 900.245 99.5769 900.245 98.0955C900.245 96.667 900.616 95.3576 901.356 94.1672C902.123 92.9503 903.287 91.9848 904.848 91.2705C906.435 90.5298 908.446 90.1595 910.879 90.1595C912.493 90.1595 914.094 90.3711 915.681 90.7944C917.268 91.2176 918.643 91.826 919.807 92.6196L918.498 95.794C917.308 95.0004 916.051 94.4317 914.728 94.0878C913.406 93.7175 912.123 93.5323 910.879 93.5323C909.319 93.5323 908.036 93.7307 907.03 94.1275C906.025 94.5243 905.285 95.0534 904.808 95.7147C904.359 96.376 904.134 97.1167 904.134 97.9368C904.134 98.9155 904.438 99.6959 905.046 100.278C905.681 100.86 906.488 101.323 907.467 101.667C908.472 102.011 909.57 102.328 910.76 102.619C911.951 102.884 913.141 103.188 914.332 103.532C915.548 103.876 916.646 104.325 917.625 104.881C918.63 105.436 919.437 106.177 920.046 107.103C920.654 108.029 920.958 109.219 920.958 110.674C920.958 112.076 920.575 113.386 919.807 114.602C919.04 115.793 917.85 116.758 916.236 117.499C914.649 118.213 912.639 118.57 910.205 118.57Z" fill="#666666"/>
<line x1="476.444" y1="153.312" x2="476.018" y2="0.00680201" stroke="#1DD45A" stroke-width="5.12"/>
<path d="M420.529 129.001C412.645 129.001 406.552 126.985 402.251 122.953C397.95 118.832 395.8 112.784 395.8 104.809V40.4316H412.6V104.406C412.6 107.811 413.451 110.454 415.153 112.336C416.945 114.217 419.409 115.158 422.545 115.158C426.309 115.158 429.445 114.172 431.953 112.201L436.657 124.163C434.686 125.776 432.267 126.985 429.4 127.792C426.533 128.598 423.576 129.001 420.529 129.001ZM383.973 69.7308V56.2908H431.819V69.7308H383.973Z" fill="black"/>
<path fill-rule="evenodd" clip-rule="evenodd" d="M358.699 56.2919V128.061H375.499V56.2919H358.699Z" fill="black"/>
<path d="M367.166 44.4647C364.03 44.4647 361.432 43.4791 359.371 41.5079C357.4 39.5367 356.414 37.1623 356.414 34.3847C356.414 31.5175 357.4 29.1431 359.371 27.2615C361.432 25.2903 364.03 24.3047 367.166 24.3047C370.302 24.3047 372.856 25.2455 374.827 27.1271C376.888 28.9191 377.918 31.2039 377.918 33.9815C377.918 36.9383 376.932 39.4471 374.961 41.5079C372.99 43.4791 370.392 44.4647 367.166 44.4647Z" fill="#1DD45A"/>
<path d="M285.285 128.061V117.443L329.503 63.9518L332.594 69.731H286.092V56.291H346.034V66.9086L301.816 120.4L298.456 114.621H347.244V128.061H285.285Z" fill="black"/>
<path fill-rule="evenodd" clip-rule="evenodd" d="M256.379 56.2919V128.061H273.179V56.2919H256.379Z" fill="black"/>
<path d="M264.846 44.4647C261.71 44.4647 259.111 43.4791 257.051 41.5079C255.079 39.5367 254.094 37.1623 254.094 34.3847C254.094 31.5175 255.079 29.1431 257.051 27.2615C259.111 25.2903 261.71 24.3047 264.846 24.3047C267.982 24.3047 270.535 25.2455 272.507 27.1271C274.567 28.9191 275.598 31.2039 275.598 33.9815C275.598 36.9383 274.612 39.4471 272.641 41.5079C270.67 43.4791 268.071 44.4647 264.846 44.4647Z" fill="#1DD45A"/>
<path d="M204.633 128.06V56.2908H220.626V76.0476L218.745 70.2684C220.895 65.43 224.255 61.7564 228.825 59.2476C233.484 56.7388 239.263 55.4844 246.162 55.4844V71.478C245.446 71.2988 244.774 71.2092 244.146 71.2092C243.519 71.1196 242.892 71.0748 242.265 71.0748C235.903 71.0748 230.841 72.9564 227.078 76.7196C223.314 80.3932 221.433 85.9036 221.433 93.2508V128.06H204.633Z" fill="black"/>
<path d="M156.31 129.002C150.217 129.002 144.796 127.658 140.047 124.97C135.299 122.282 131.535 118.25 128.758 112.874C126.07 107.408 124.726 100.509 124.726 92.1759C124.726 83.7535 126.115 76.8543 128.892 71.4783C131.759 66.1023 135.567 62.1151 140.316 59.5167C145.155 56.8287 150.486 55.4847 156.31 55.4847C163.388 55.4847 169.615 57.0079 174.991 60.0543C180.457 63.1007 184.758 67.3567 187.894 72.8223C191.119 78.2879 192.732 84.7391 192.732 92.1759C192.732 99.6127 191.119 106.064 187.894 111.53C184.758 116.995 180.457 121.296 174.991 124.432C169.615 127.478 163.388 129.002 156.31 129.002ZM116.527 128.061V28.3359H133.327V72.9567L131.983 92.0415L132.521 111.126V128.061H116.527ZM154.428 114.621C158.46 114.621 162.044 113.725 165.18 111.933C168.406 110.141 170.959 107.542 172.841 104.138C174.723 100.733 175.663 96.7455 175.663 92.1759C175.663 87.5167 174.723 83.5295 172.841 80.2143C170.959 76.8095 168.406 74.2111 165.18 72.4191C162.044 70.6271 158.46 69.7311 154.428 69.7311C150.396 69.7311 146.767 70.6271 143.542 72.4191C140.316 74.2111 137.763 76.8095 135.881 80.2143C133.999 83.5295 133.059 87.5167 133.059 92.1759C133.059 96.7455 133.999 100.733 135.881 104.138C137.763 107.542 140.316 110.141 143.542 111.933C146.767 113.725 150.396 114.621 154.428 114.621Z" fill="black"/>
<path d="M54.167 0.451167C65.4559 -1.94837 74.6074 5.46238 74.6074 17.0035V120.444C74.6074 131.985 65.4559 143.286 54.167 145.686L20.4404 152.854C9.15152 155.254 1.35674e-05 147.843 0 136.302V32.8617C0 21.3206 9.15151 10.0195 20.4404 7.61998L54.167 0.451167ZM56.211 31.362C56.211 24.4374 50.7201 19.9911 43.9468 21.4309L30.6606 24.255C23.8873 25.6947 18.3964 32.4753 18.3964 39.4V121.943C18.3964 128.868 23.8873 133.314 30.6606 131.875L43.9468 129.051C50.7201 127.611 56.211 120.83 56.211 113.905V31.362Z" fill="#1DD45A"/>
</g>
</svg>
