<svg width="1846" height="307" viewBox="0 0 1846 307" fill="none" xmlns="http://www.w3.org/2000/svg">
<path d="M1041.74 127.506L1066.89 71.9539H1074.75L1099.99 127.506H1091.65L1069.2 76.398H1072.37L1049.91 127.506H1041.74ZM1052.45 113.618L1054.59 107.269H1085.86L1088.16 113.618H1052.45ZM1108.27 127.506V71.9539H1129.94C1137.13 71.9539 1142.8 73.6733 1146.92 77.1123C1151.05 80.4983 1153.11 85.2334 1153.11 91.3177C1153.11 95.3386 1152.19 98.804 1150.34 101.714C1148.48 104.571 1145.84 106.766 1142.4 108.301C1138.96 109.835 1134.81 110.602 1129.94 110.602H1112.64L1116.21 106.952V127.506H1108.27ZM1145.41 127.506L1131.29 107.348H1139.78L1154.06 127.506H1145.41ZM1116.21 107.745L1112.64 103.857H1129.7C1134.78 103.857 1138.62 102.772 1141.21 100.603C1143.85 98.3807 1145.18 95.2857 1145.18 91.3177C1145.18 87.3497 1143.85 84.2811 1141.21 82.1119C1138.62 79.9428 1134.78 78.8582 1129.7 78.8582H1112.64L1116.21 74.8902V107.745ZM1190.77 128.141C1186.54 128.141 1182.63 127.453 1179.03 126.077C1175.48 124.649 1172.39 122.665 1169.74 120.125C1167.15 117.533 1165.11 114.517 1163.63 111.078C1162.15 107.639 1161.41 103.857 1161.41 99.7299C1161.41 95.6031 1162.15 91.8203 1163.63 88.3814C1165.11 84.9424 1167.18 81.9532 1169.82 79.4137C1172.47 76.8213 1175.56 74.8373 1179.11 73.4617C1182.71 72.0332 1186.62 71.319 1190.85 71.319C1195.14 71.319 1199.08 72.0597 1202.68 73.5411C1206.33 74.9695 1209.42 77.1123 1211.96 79.9692L1206.8 84.9689C1204.69 82.7468 1202.31 81.1067 1199.66 80.0486C1197.02 78.9375 1194.19 78.382 1191.17 78.382C1188.05 78.382 1185.14 78.9111 1182.44 79.9692C1179.8 81.0273 1177.49 82.5087 1175.54 84.4134C1173.58 86.318 1172.04 88.593 1170.93 91.2383C1169.88 93.8308 1169.35 96.6613 1169.35 99.7299C1169.35 102.798 1169.88 105.655 1170.93 108.301C1172.04 110.893 1173.58 113.142 1175.54 115.046C1177.49 116.951 1179.8 118.432 1182.44 119.49C1185.14 120.549 1188.05 121.078 1191.17 121.078C1194.19 121.078 1197.02 120.549 1199.66 119.49C1202.31 118.379 1204.69 116.686 1206.8 114.411L1211.96 119.411C1209.42 122.268 1206.33 124.437 1202.68 125.919C1199.08 127.4 1195.11 128.141 1190.77 128.141ZM1262.35 127.506V71.9539H1270.28V127.506H1262.35ZM1222.51 127.506V71.9539H1230.45V127.506H1222.51ZM1229.65 102.746V95.8412H1263.06V102.746H1229.65ZM1286.91 127.506V71.9539H1294.85V127.506H1286.91ZM1322.51 127.506V78.8582H1303.46V71.9539H1349.41V78.8582H1330.37V127.506H1322.51ZM1358.06 127.506V71.9539H1397.26V78.8582H1365.99V120.602H1398.37V127.506H1358.06ZM1365.28 102.666V95.9206H1393.85V102.666H1365.28ZM1435.98 128.141C1431.75 128.141 1427.84 127.453 1424.24 126.077C1420.69 124.649 1417.6 122.665 1414.95 120.125C1412.36 117.533 1410.32 114.517 1408.84 111.078C1407.36 107.639 1406.62 103.857 1406.62 99.7299C1406.62 95.6031 1407.36 91.8203 1408.84 88.3814C1410.32 84.9424 1412.39 81.9532 1415.03 79.4137C1417.68 76.8213 1420.77 74.8373 1424.32 73.4617C1427.92 72.0332 1431.83 71.319 1436.06 71.319C1440.35 71.319 1444.29 72.0597 1447.89 73.5411C1451.54 74.9695 1454.63 77.1123 1457.17 79.9692L1452.01 84.9689C1449.9 82.7468 1447.52 81.1067 1444.87 80.0486C1442.23 78.9375 1439.4 78.382 1436.38 78.382C1433.26 78.382 1430.35 78.9111 1427.65 79.9692C1425.01 81.0273 1422.7 82.5087 1420.75 84.4134C1418.79 86.318 1417.25 88.593 1416.14 91.2383C1415.09 93.8308 1414.56 96.6613 1414.56 99.7299C1414.56 102.798 1415.09 105.655 1416.14 108.301C1417.25 110.893 1418.79 113.142 1420.75 115.046C1422.7 116.951 1425.01 118.432 1427.65 119.49C1430.35 120.549 1433.26 121.078 1436.38 121.078C1439.4 121.078 1442.23 120.549 1444.87 119.49C1447.52 118.379 1449.9 116.686 1452.01 114.411L1457.17 119.411C1454.63 122.268 1451.54 124.437 1447.89 125.919C1444.29 127.4 1440.32 128.141 1435.98 128.141ZM1477.43 127.506V78.8582H1458.39V71.9539H1504.34V78.8582H1485.29V127.506H1477.43ZM1534.99 128.141C1527.68 128.141 1521.94 126.051 1517.76 121.871C1513.59 117.692 1511.5 111.581 1511.5 103.539V71.9539H1519.43V103.222C1519.43 109.412 1520.78 113.935 1523.48 116.792C1526.23 119.649 1530.09 121.078 1535.07 121.078C1540.09 121.078 1543.95 119.649 1546.65 116.792C1549.4 113.935 1550.78 109.412 1550.78 103.222V71.9539H1558.48V103.539C1558.48 111.581 1556.39 117.692 1552.21 121.871C1548.08 126.051 1542.34 128.141 1534.99 128.141ZM1574.75 127.506V71.9539H1596.41C1603.61 71.9539 1609.27 73.6733 1613.4 77.1123C1617.52 80.4983 1619.59 85.2334 1619.59 91.3177C1619.59 95.3386 1618.66 98.804 1616.81 101.714C1614.96 104.571 1612.31 106.766 1608.87 108.301C1605.43 109.835 1601.28 110.602 1596.41 110.602H1579.11L1582.68 106.952V127.506H1574.75ZM1611.89 127.506L1597.76 107.348H1606.25L1620.54 127.506H1611.89ZM1582.68 107.745L1579.11 103.857H1596.17C1601.25 103.857 1605.09 102.772 1607.68 100.603C1610.33 98.3807 1611.65 95.2857 1611.65 91.3177C1611.65 87.3497 1610.33 84.2811 1607.68 82.1119C1605.09 79.9428 1601.25 78.8582 1596.17 78.8582H1579.11L1582.68 74.8902V107.745ZM1623.99 127.506L1649.15 71.9539H1657.01L1682.24 127.506H1673.91L1651.45 76.398H1654.63L1632.17 127.506H1623.99ZM1634.71 113.618L1636.85 107.269H1668.12L1670.42 113.618H1634.71ZM1690.53 127.506V71.9539H1698.47V120.602H1728.55V127.506H1690.53ZM1050.15 236.506V180.954H1075.07C1081.47 180.954 1086.39 182.25 1089.83 184.842C1093.27 187.382 1094.99 190.874 1094.99 195.318C1094.99 198.334 1094.3 200.873 1092.92 202.937C1091.6 205 1089.8 206.587 1087.53 207.698C1085.25 208.809 1082.79 209.365 1080.15 209.365L1081.58 206.984C1084.75 206.984 1087.55 207.539 1089.99 208.65C1092.42 209.762 1094.35 211.402 1095.78 213.571C1097.21 215.687 1097.92 218.332 1097.92 221.507C1097.92 226.268 1096.13 229.972 1092.53 232.617C1088.98 235.21 1083.69 236.506 1076.66 236.506H1050.15ZM1058.09 230.078H1076.34C1080.73 230.078 1084.09 229.337 1086.42 227.856C1088.74 226.374 1089.91 224.046 1089.91 220.872C1089.91 217.645 1088.74 215.29 1086.42 213.809C1084.09 212.328 1080.73 211.587 1076.34 211.587H1057.37V205.159H1074.35C1078.37 205.159 1081.5 204.418 1083.72 202.937C1085.94 201.455 1087.05 199.233 1087.05 196.27C1087.05 193.308 1085.94 191.085 1083.72 189.604C1081.5 188.123 1078.37 187.382 1074.35 187.382H1058.09V230.078ZM1133.23 237.141C1125.92 237.141 1120.18 235.051 1116 230.871C1111.83 226.692 1109.74 220.581 1109.74 212.539V180.954H1117.67V212.222C1117.67 218.412 1119.02 222.935 1121.72 225.792C1124.47 228.649 1128.33 230.078 1133.31 230.078C1138.33 230.078 1142.19 228.649 1144.89 225.792C1147.64 222.935 1149.02 218.412 1149.02 212.222V180.954H1156.72V212.539C1156.72 220.581 1154.63 226.692 1150.45 230.871C1146.32 235.051 1140.58 237.141 1133.23 237.141ZM1172.99 236.506V180.954H1180.92V236.506H1172.99ZM1197.55 236.506V180.954H1205.49V229.602H1235.57V236.506H1197.55ZM1244.67 236.506V180.954H1268.09C1274.01 180.954 1279.22 182.118 1283.72 184.446C1288.27 186.774 1291.79 190.027 1294.27 194.207C1296.81 198.387 1298.08 203.228 1298.08 208.73C1298.08 214.232 1296.81 219.073 1294.27 223.253C1291.79 227.432 1288.27 230.686 1283.72 233.014C1279.22 235.342 1274.01 236.506 1268.09 236.506H1244.67ZM1252.61 229.602H1267.61C1272.21 229.602 1276.18 228.729 1279.51 226.983C1282.9 225.237 1285.52 222.803 1287.37 219.682C1289.22 216.507 1290.15 212.857 1290.15 208.73C1290.15 204.55 1289.22 200.9 1287.37 197.778C1285.52 194.657 1282.9 192.223 1279.51 190.477C1276.18 188.731 1272.21 187.858 1267.61 187.858H1252.61V229.602ZM1310.24 236.506V180.954H1318.18V236.506H1310.24ZM1334.81 236.506V180.954H1341.31L1378.06 226.586H1374.65V180.954H1382.58V236.506H1376.07L1339.33 190.874H1342.74V236.506H1334.81ZM1424.29 237.141C1420 237.141 1416.06 236.453 1412.46 235.077C1408.86 233.649 1405.74 231.665 1403.1 229.125C1400.45 226.533 1398.39 223.517 1396.91 220.078C1395.43 216.639 1394.69 212.857 1394.69 208.73C1394.69 204.603 1395.43 200.82 1396.91 197.381C1398.39 193.942 1400.45 190.953 1403.1 188.414C1405.8 185.821 1408.94 183.837 1412.54 182.462C1416.14 181.033 1420.11 180.319 1424.45 180.319C1428.84 180.319 1432.86 181.033 1436.51 182.462C1440.16 183.89 1443.25 186.033 1445.79 188.89L1440.87 193.81C1438.6 191.588 1436.11 189.974 1433.41 188.969C1430.77 187.911 1427.88 187.382 1424.76 187.382C1421.59 187.382 1418.63 187.911 1415.87 188.969C1413.18 190.027 1410.82 191.509 1408.81 193.413C1406.85 195.318 1405.32 197.593 1404.21 200.238C1403.15 202.831 1402.62 205.661 1402.62 208.73C1402.62 211.746 1403.15 214.576 1404.21 217.221C1405.32 219.814 1406.85 222.089 1408.81 224.046C1410.82 225.951 1413.18 227.432 1415.87 228.49C1418.57 229.549 1421.51 230.078 1424.68 230.078C1427.65 230.078 1430.48 229.628 1433.18 228.729C1435.93 227.776 1438.47 226.216 1440.79 224.046L1445.32 230.078C1442.57 232.406 1439.34 234.178 1435.64 235.395C1431.98 236.559 1428.2 237.141 1424.29 237.141ZM1445.32 230.078L1437.7 229.046V208.412H1445.32V230.078ZM1498.01 237.141C1493.78 237.141 1489.73 236.506 1485.87 235.236C1482.01 233.913 1478.97 232.22 1476.75 230.157L1479.68 223.967C1481.8 225.819 1484.5 227.353 1487.78 228.57C1491.06 229.787 1494.47 230.395 1498.01 230.395C1501.24 230.395 1503.86 230.025 1505.87 229.284C1507.88 228.543 1509.36 227.538 1510.31 226.268C1511.27 224.946 1511.74 223.464 1511.74 221.824C1511.74 219.92 1511.11 218.385 1509.84 217.221C1508.62 216.057 1507.01 215.132 1505 214.444C1503.04 213.703 1500.87 213.068 1498.49 212.539C1496.11 212.01 1493.7 211.402 1491.27 210.714C1488.89 209.973 1486.69 209.047 1484.68 207.936C1482.72 206.825 1481.14 205.344 1479.92 203.492C1478.7 201.587 1478.09 199.154 1478.09 196.191C1478.09 193.334 1478.83 190.715 1480.32 188.334C1481.85 185.901 1484.18 183.97 1487.3 182.541C1490.47 181.06 1494.5 180.319 1499.36 180.319C1502.59 180.319 1505.79 180.742 1508.97 181.589C1512.14 182.435 1514.89 183.652 1517.22 185.239L1514.6 191.588C1512.22 190.001 1509.71 188.863 1507.06 188.176C1504.42 187.435 1501.85 187.065 1499.36 187.065C1496.24 187.065 1493.68 187.461 1491.66 188.255C1489.65 189.049 1488.17 190.107 1487.22 191.429C1486.32 192.752 1485.87 194.233 1485.87 195.874C1485.87 197.831 1486.48 199.392 1487.7 200.556C1488.97 201.72 1490.58 202.646 1492.54 203.333C1494.55 204.021 1496.74 204.656 1499.12 205.238C1501.51 205.767 1503.89 206.376 1506.27 207.063C1508.7 207.751 1510.9 208.65 1512.85 209.762C1514.86 210.873 1516.48 212.354 1517.69 214.206C1518.91 216.057 1519.52 218.438 1519.52 221.348C1519.52 224.152 1518.75 226.771 1517.22 229.205C1515.68 231.586 1513.3 233.517 1510.08 234.998C1506.9 236.426 1502.88 237.141 1498.01 237.141ZM1543.36 236.506V215.237L1545.19 220.158L1521.3 180.954H1529.79L1549.87 214.047H1545.27L1565.43 180.954H1573.28L1549.47 220.158L1551.22 215.237V236.506H1543.36ZM1596.36 237.141C1592.13 237.141 1588.08 236.506 1584.22 235.236C1580.36 233.913 1577.31 232.22 1575.09 230.157L1578.03 223.967C1580.15 225.819 1582.84 227.353 1586.12 228.57C1589.4 229.787 1592.82 230.395 1596.36 230.395C1599.59 230.395 1602.21 230.025 1604.22 229.284C1606.23 228.543 1607.71 227.538 1608.66 226.268C1609.61 224.946 1610.09 223.464 1610.09 221.824C1610.09 219.92 1609.46 218.385 1608.19 217.221C1606.97 216.057 1605.36 215.132 1603.34 214.444C1601.39 213.703 1599.22 213.068 1596.84 212.539C1594.46 212.01 1592.05 211.402 1589.62 210.714C1587.23 209.973 1585.04 209.047 1583.03 207.936C1581.07 206.825 1579.48 205.344 1578.27 203.492C1577.05 201.587 1576.44 199.154 1576.44 196.191C1576.44 193.334 1577.18 190.715 1578.66 188.334C1580.2 185.901 1582.53 183.97 1585.65 182.541C1588.82 181.06 1592.84 180.319 1597.71 180.319C1600.94 180.319 1604.14 180.742 1607.31 181.589C1610.49 182.435 1613.24 183.652 1615.57 185.239L1612.95 191.588C1610.57 190.001 1608.05 188.863 1605.41 188.176C1602.76 187.435 1600.2 187.065 1597.71 187.065C1594.59 187.065 1592.02 187.461 1590.01 188.255C1588 189.049 1586.52 190.107 1585.57 191.429C1584.67 192.752 1584.22 194.233 1584.22 195.874C1584.22 197.831 1584.83 199.392 1586.04 200.556C1587.31 201.72 1588.93 202.646 1590.89 203.333C1592.9 204.021 1595.09 204.656 1597.47 205.238C1599.85 205.767 1602.23 206.376 1604.61 207.063C1607.05 207.751 1609.24 208.65 1611.2 209.762C1613.21 210.873 1614.83 212.354 1616.04 214.206C1617.26 216.057 1617.87 218.438 1617.87 221.348C1617.87 224.152 1617.1 226.771 1615.57 229.205C1614.03 231.586 1611.65 233.517 1608.42 234.998C1605.25 236.426 1601.23 237.141 1596.36 237.141ZM1639.72 236.506V187.858H1620.67V180.954H1666.62V187.858H1647.57V236.506H1639.72ZM1675.26 236.506V180.954H1714.47V187.858H1683.2V229.602H1715.58V236.506H1675.26ZM1682.49 211.666V204.921H1711.06V211.666H1682.49ZM1728.43 236.506V180.954H1734.94L1759.86 222.935H1756.36L1780.97 180.954H1787.47L1787.55 236.506H1779.93L1779.85 192.937H1781.68L1759.78 229.76H1756.13L1734.06 192.937H1736.05V236.506H1728.43ZM1820.41 237.141C1816.18 237.141 1812.13 236.506 1808.27 235.236C1804.41 233.913 1801.37 232.22 1799.15 230.157L1802.08 223.967C1804.2 225.819 1806.9 227.353 1810.18 228.57C1813.46 229.787 1816.87 230.395 1820.41 230.395C1823.64 230.395 1826.26 230.025 1828.27 229.284C1830.28 228.543 1831.76 227.538 1832.71 226.268C1833.67 224.946 1834.14 223.464 1834.14 221.824C1834.14 219.92 1833.51 218.385 1832.24 217.221C1831.02 216.057 1829.41 215.132 1827.4 214.444C1825.44 213.703 1823.27 213.068 1820.89 212.539C1818.51 212.01 1816.1 211.402 1813.67 210.714C1811.29 209.973 1809.09 209.047 1807.08 207.936C1805.12 206.825 1803.54 205.344 1802.32 203.492C1801.1 201.587 1800.49 199.154 1800.49 196.191C1800.49 193.334 1801.23 190.715 1802.72 188.334C1804.25 185.901 1806.58 183.97 1809.7 182.541C1812.87 181.06 1816.9 180.319 1821.76 180.319C1824.99 180.319 1828.19 180.742 1831.37 181.589C1834.54 182.435 1837.29 183.652 1839.62 185.239L1837 191.588C1834.62 190.001 1832.11 188.863 1829.46 188.176C1826.82 187.435 1824.25 187.065 1821.76 187.065C1818.64 187.065 1816.08 187.461 1814.06 188.255C1812.05 189.049 1810.57 190.107 1809.62 191.429C1808.72 192.752 1808.27 194.233 1808.27 195.874C1808.27 197.831 1808.88 199.392 1810.1 200.556C1811.37 201.72 1812.98 202.646 1814.94 203.333C1816.95 204.021 1819.14 204.656 1821.52 205.238C1823.91 205.767 1826.29 206.376 1828.67 207.063C1831.1 207.751 1833.3 208.65 1835.25 209.762C1837.26 210.873 1838.88 212.354 1840.09 214.206C1841.31 216.057 1841.92 218.438 1841.92 221.348C1841.92 224.152 1841.15 226.771 1839.62 229.205C1838.08 231.586 1835.7 233.517 1832.48 234.998C1829.3 236.426 1825.28 237.141 1820.41 237.141Z" fill="#666666"/>
<line x1="952.888" y1="306.625" x2="952.036" y2="0.0145806" stroke="#1DD45A" stroke-width="10.24"/>
<path d="M841.059 258.003C825.289 258.003 813.104 253.971 804.502 245.907C795.901 237.664 791.6 225.568 791.6 209.619V80.8643H825.2V208.813C825.2 215.623 826.902 220.909 830.307 224.672C833.891 228.435 838.819 230.317 845.091 230.317C852.617 230.317 858.889 228.346 863.907 224.403L873.315 248.327C869.373 251.552 864.534 253.971 858.8 255.584C853.065 257.197 847.152 258.003 841.059 258.003ZM767.945 139.463V112.583H863.638V139.463H767.945Z" fill="black"/>
<path fill-rule="evenodd" clip-rule="evenodd" d="M717.398 112.583V256.122H750.998V112.583H717.398Z" fill="black"/>
<path d="M734.332 88.9284C728.06 88.9284 722.863 86.9572 718.742 83.0148C714.799 79.0724 712.828 74.3236 712.828 68.7684C712.828 63.034 714.799 58.2852 718.742 54.522C722.863 50.5796 728.06 48.6084 734.332 48.6084C740.604 48.6084 745.711 50.49 749.654 54.2532C753.775 57.8372 755.836 62.4068 755.836 67.962C755.836 73.8756 753.865 78.8932 749.922 83.0148C745.98 86.9572 740.783 88.9284 734.332 88.9284Z" fill="#1DD45A"/>
<path d="M570.57 256.122V234.887L659.005 127.905L665.188 139.463H572.183V112.583H692.068V133.818L603.633 240.801L596.913 229.242H694.487V256.122H570.57Z" fill="black"/>
<path fill-rule="evenodd" clip-rule="evenodd" d="M512.761 112.583V256.122H546.361V112.583H512.761Z" fill="black"/>
<path d="M529.695 88.9284C523.423 88.9284 518.227 86.9572 514.105 83.0148C510.163 79.0724 508.191 74.3236 508.191 68.7684C508.191 63.034 510.163 58.2852 514.105 54.522C518.227 50.5796 523.423 48.6084 529.695 48.6084C535.967 48.6084 541.075 50.49 545.017 54.2532C549.139 57.8372 551.199 62.4068 551.199 67.962C551.199 73.8756 549.228 78.8932 545.286 83.0148C541.343 86.9572 536.147 88.9284 529.695 88.9284Z" fill="#1DD45A"/>
<path d="M409.266 256.122V112.583H441.253V152.096L437.49 140.538C441.79 130.861 448.51 123.514 457.65 118.496C466.968 113.479 478.526 110.97 492.325 110.97V142.957C490.891 142.599 489.547 142.419 488.293 142.419C487.038 142.24 485.784 142.151 484.53 142.151C471.806 142.151 461.682 145.914 454.155 153.44C446.629 160.787 442.866 171.808 442.866 186.503V256.122H409.266Z" fill="black"/>
<path d="M312.619 258.004C300.434 258.004 289.592 255.316 280.095 249.94C270.597 244.564 263.071 236.5 257.515 225.748C252.139 214.817 249.451 201.018 249.451 184.353C249.451 167.508 252.229 153.71 257.784 142.958C263.519 132.206 271.135 124.231 280.632 119.034C290.309 113.658 300.971 110.97 312.619 110.97C326.776 110.97 339.231 114.017 349.983 120.11C360.914 126.202 369.515 134.714 375.787 145.646C382.239 156.577 385.464 169.479 385.464 184.353C385.464 199.226 382.239 212.129 375.787 223.06C369.515 233.991 360.914 242.593 349.983 248.865C339.231 254.958 326.776 258.004 312.619 258.004ZM233.055 256.122V56.6729H266.655V145.914L263.967 184.084L265.042 222.254V256.122H233.055ZM308.856 229.242C316.92 229.242 324.088 227.45 330.36 223.866C336.811 220.282 341.919 215.086 345.682 208.276C349.445 201.466 351.327 193.492 351.327 184.353C351.327 175.034 349.445 167.06 345.682 160.43C341.919 153.62 336.811 148.423 330.36 144.839C324.088 141.255 316.92 139.463 308.856 139.463C300.792 139.463 293.535 141.255 287.083 144.839C280.632 148.423 275.525 153.62 271.762 160.43C267.999 167.06 266.117 175.034 266.117 184.353C266.117 193.492 267.999 201.466 271.762 208.276C275.525 215.086 280.632 220.282 287.083 223.866C293.535 227.45 300.792 229.242 308.856 229.242Z" fill="black"/>
<path d="M108.334 0.902333C130.912 -3.89673 149.215 10.9248 149.215 34.007V240.888C149.215 263.97 130.912 286.572 108.334 291.371L40.8809 305.709C18.303 310.508 2.71348e-05 295.686 0 272.604V65.7235C0 42.6412 18.303 20.039 40.8809 15.24L108.334 0.902333ZM112.422 62.7241C112.422 48.8749 101.44 39.9823 87.8936 42.8617L61.3213 48.5099C47.7746 51.3894 36.7928 64.9506 36.7928 78.7999V243.887C36.7928 257.736 47.7746 266.629 61.3213 263.749L87.8936 258.101C101.44 255.222 112.422 241.66 112.422 227.811V62.7241Z" fill="#1DD45A"/>
</svg>
