<svg width="117" height="20" viewBox="0 0 117 20" fill="none" xmlns="http://www.w3.org/2000/svg">
<path d="M65.1083 7.78223L66.6806 4.31023H67.1717L68.749 7.78223H68.2282L66.8245 4.58799H67.0229L65.6192 7.78223H65.1083ZM65.7779 6.91423L65.9118 6.51743H67.8661L68.0099 6.91423H65.7779ZM69.2669 7.78223V4.31023H70.621C71.0707 4.31023 71.4245 4.41769 71.6824 4.63263C71.9403 4.84425 72.0693 5.1402 72.0693 5.52047C72.0693 5.77177 72.0114 5.98836 71.8957 6.17023C71.78 6.34879 71.6146 6.48601 71.3997 6.58191C71.1848 6.6778 70.9252 6.72575 70.621 6.72575H69.5397L69.7629 6.49759V7.78223H69.2669ZM71.5882 7.78223L70.7053 6.52239H71.236L72.1288 7.78223H71.5882ZM69.7629 6.54719L69.5397 6.30415H70.6061C70.9235 6.30415 71.1633 6.23636 71.3253 6.10079C71.4906 5.96191 71.5733 5.76847 71.5733 5.52047C71.5733 5.27247 71.4906 5.08068 71.3253 4.94511C71.1633 4.80953 70.9235 4.74175 70.6061 4.74175H69.5397L69.7629 4.49375V6.54719ZM74.4231 7.82191C74.1586 7.82191 73.9139 7.77892 73.689 7.69295C73.4675 7.60367 73.2741 7.47967 73.1087 7.32095C72.9467 7.15892 72.8194 6.97044 72.7268 6.75551C72.6342 6.54057 72.5879 6.30415 72.5879 6.04623C72.5879 5.78831 72.6342 5.55188 72.7268 5.33695C72.8194 5.12201 72.9484 4.93519 73.1137 4.77647C73.279 4.61444 73.4725 4.49044 73.694 4.40447C73.9189 4.31519 74.1636 4.27055 74.4281 4.27055C74.6959 4.27055 74.9423 4.31684 75.1671 4.40943C75.3953 4.49871 75.5887 4.63263 75.7474 4.81119L75.425 5.12367C75.2928 4.98479 75.144 4.88228 74.9786 4.81615C74.8133 4.74671 74.6364 4.71199 74.4479 4.71199C74.2528 4.71199 74.071 4.74505 73.9023 4.81119C73.737 4.87732 73.5932 4.96991 73.4708 5.08895C73.3485 5.20799 73.2526 5.35017 73.1831 5.51551C73.117 5.67753 73.0839 5.85444 73.0839 6.04623C73.0839 6.23801 73.117 6.41657 73.1831 6.58191C73.2526 6.74393 73.3485 6.88447 73.4708 7.00351C73.5932 7.12255 73.737 7.21513 73.9023 7.28127C74.071 7.3474 74.2528 7.38047 74.4479 7.38047C74.6364 7.38047 74.8133 7.3474 74.9786 7.28127C75.144 7.21183 75.2928 7.10601 75.425 6.96383L75.7474 7.27631C75.5887 7.45487 75.3953 7.59044 75.1671 7.68303C74.9423 7.77561 74.6943 7.82191 74.4231 7.82191ZM78.8965 7.78223V4.31023H79.3925V7.78223H78.8965ZM76.4066 7.78223V4.31023H76.9026V7.78223H76.4066ZM76.853 6.23471V5.80319H78.9411V6.23471H76.853ZM80.4317 7.78223V4.31023H80.9277V7.78223H80.4317ZM82.6566 7.78223V4.74175H81.4662V4.31023H84.3381V4.74175H83.1477V7.78223H82.6566ZM84.8783 7.78223V4.31023H87.3285V4.74175H85.3743V7.35071H87.398V7.78223H84.8783ZM85.3297 6.22975V5.80815H87.1153V6.22975H85.3297ZM89.7487 7.82191C89.4842 7.82191 89.2395 7.77892 89.0147 7.69295C88.7931 7.60367 88.5997 7.47967 88.4343 7.32095C88.2723 7.15892 88.145 6.97044 88.0524 6.75551C87.9598 6.54057 87.9135 6.30415 87.9135 6.04623C87.9135 5.78831 87.9598 5.55188 88.0524 5.33695C88.145 5.12201 88.274 4.93519 88.4393 4.77647C88.6046 4.61444 88.7981 4.49044 89.0196 4.40447C89.2445 4.31519 89.4892 4.27055 89.7537 4.27055C90.0215 4.27055 90.2679 4.31684 90.4927 4.40943C90.7209 4.49871 90.9143 4.63263 91.0731 4.81119L90.7507 5.12367C90.6184 4.98479 90.4696 4.88228 90.3043 4.81615C90.1389 4.74671 89.962 4.71199 89.7735 4.71199C89.5785 4.71199 89.3966 4.74505 89.2279 4.81119C89.0626 4.87732 88.9188 4.96991 88.7964 5.08895C88.6741 5.20799 88.5782 5.35017 88.5087 5.51551C88.4426 5.67753 88.4095 5.85444 88.4095 6.04623C88.4095 6.23801 88.4426 6.41657 88.5087 6.58191C88.5782 6.74393 88.6741 6.88447 88.7964 7.00351C88.9188 7.12255 89.0626 7.21513 89.2279 7.28127C89.3966 7.3474 89.5785 7.38047 89.7735 7.38047C89.962 7.38047 90.1389 7.3474 90.3043 7.28127C90.4696 7.21183 90.6184 7.10601 90.7507 6.96383L91.0731 7.27631C90.9143 7.45487 90.7209 7.59044 90.4927 7.68303C90.2679 7.77561 90.0199 7.82191 89.7487 7.82191ZM92.3393 7.78223V4.74175H91.1489V4.31023H94.0207V4.74175H92.8303V7.78223H92.3393ZM95.9364 7.82191C95.4801 7.82191 95.1213 7.69129 94.8601 7.43007C94.5988 7.16884 94.4682 6.78692 94.4682 6.28431V4.31023H94.9642V6.26447C94.9642 6.65135 95.0485 6.93407 95.2172 7.11263C95.3891 7.29119 95.6305 7.38047 95.9413 7.38047C96.2555 7.38047 96.4969 7.29119 96.6655 7.11263C96.8375 6.93407 96.9234 6.65135 96.9234 6.26447V4.31023H97.4045V6.28431C97.4045 6.78692 97.2739 7.16884 97.0127 7.43007C96.7548 7.69129 96.396 7.82191 95.9364 7.82191ZM98.4214 7.78223V4.31023H99.7755C100.225 4.31023 100.579 4.41769 100.837 4.63263C101.095 4.84425 101.224 5.1402 101.224 5.52047C101.224 5.77177 101.166 5.98836 101.05 6.17023C100.934 6.34879 100.769 6.48601 100.554 6.58191C100.339 6.6778 100.08 6.72575 99.7755 6.72575H98.6942L98.9174 6.49759V7.78223H98.4214ZM100.743 7.78223L99.8598 6.52239H100.391L101.283 7.78223H100.743ZM98.9174 6.54719L98.6942 6.30415H99.7606C100.078 6.30415 100.318 6.23636 100.48 6.10079C100.645 5.96191 100.728 5.76847 100.728 5.52047C100.728 5.27247 100.645 5.08068 100.48 4.94511C100.318 4.80953 100.078 4.74175 99.7606 4.74175H98.6942L98.9174 4.49375V6.54719ZM101.499 7.78223L103.072 4.31023H103.563L105.14 7.78223H104.619L103.216 4.58799H103.414L102.01 7.78223H101.499ZM102.169 6.91423L102.303 6.51743H104.257L104.401 6.91423H102.169ZM105.658 7.78223V4.31023H106.154V7.35071H108.034V7.78223H105.658ZM65.6341 14.7822V11.3102H67.1915C67.5916 11.3102 67.8991 11.3912 68.1141 11.5533C68.329 11.712 68.4365 11.9302 68.4365 12.208C68.4365 12.3965 68.3935 12.5552 68.3075 12.6841C68.2249 12.8131 68.1124 12.9123 67.9702 12.9817C67.8281 13.0512 67.6743 13.0859 67.509 13.0859L67.5982 12.9371C67.7966 12.9371 67.9719 12.9718 68.124 13.0413C68.2761 13.1107 68.3968 13.2132 68.4861 13.3488C68.5754 13.4811 68.62 13.6464 68.62 13.8448C68.62 14.1424 68.5076 14.3739 68.2827 14.5392C68.0612 14.7012 67.7305 14.7822 67.2907 14.7822H65.6341ZM66.1301 14.3805H67.2709C67.5453 14.3805 67.7553 14.3342 67.9008 14.2416C68.0463 14.149 68.119 14.0035 68.119 13.8051C68.119 13.6034 68.0463 13.4563 67.9008 13.3637C67.7553 13.2711 67.5453 13.2248 67.2709 13.2248H66.0854V12.823H67.1469C67.3982 12.823 67.5933 12.7767 67.7322 12.6841C67.871 12.5916 67.9405 12.4527 67.9405 12.2675C67.9405 12.0823 67.871 11.9435 67.7322 11.8509C67.5933 11.7583 67.3982 11.712 67.1469 11.712H66.1301V14.3805ZM70.8264 14.8219C70.3701 14.8219 70.0113 14.6913 69.7501 14.4301C69.4888 14.1688 69.3582 13.7869 69.3582 13.2843V11.3102H69.8542V13.2645C69.8542 13.6513 69.9385 13.9341 70.1072 14.1126C70.2791 14.2912 70.5205 14.3805 70.8313 14.3805C71.1455 14.3805 71.3869 14.2912 71.5555 14.1126C71.7275 13.9341 71.8134 13.6513 71.8134 13.2645V11.3102H72.2945V13.2843C72.2945 13.7869 72.1639 14.1688 71.9027 14.4301C71.6448 14.6913 71.286 14.8219 70.8264 14.8219ZM73.3114 14.7822V11.3102H73.8074V14.7822H73.3114ZM74.8469 14.7822V11.3102H75.3429V14.3507H77.2227V14.7822H74.8469ZM77.7919 14.7822V11.3102H79.2551C79.6254 11.3102 79.9511 11.383 80.2322 11.5285C80.5166 11.674 80.7365 11.8773 80.8919 12.1385C81.0506 12.3998 81.13 12.7023 81.13 13.0462C81.13 13.3901 81.0506 13.6927 80.8919 13.9539C80.7365 14.2151 80.5166 14.4185 80.2322 14.564C79.9511 14.7095 79.6254 14.7822 79.2551 14.7822H77.7919ZM78.2879 14.3507H79.2253C79.513 14.3507 79.761 14.2961 79.9693 14.187C80.181 14.0779 80.3446 13.9258 80.4604 13.7307C80.5761 13.5323 80.634 13.3041 80.634 13.0462C80.634 12.785 80.5761 12.5568 80.4604 12.3617C80.3446 12.1667 80.181 12.0145 79.9693 11.9054C79.761 11.7963 79.513 11.7417 79.2253 11.7417H78.2879V14.3507ZM81.8897 14.7822V11.3102H82.3857V14.7822H81.8897ZM83.4252 14.7822V11.3102H83.8319L86.1284 14.1622H85.9151V11.3102H86.4111V14.7822H86.0044L83.7079 11.9302H83.9212V14.7822H83.4252ZM89.0177 14.8219C88.7499 14.8219 88.5035 14.7789 88.2787 14.6929C88.0538 14.6037 87.8587 14.4797 87.6934 14.3209C87.528 14.1589 87.3991 13.9704 87.3065 13.7555C87.2139 13.5406 87.1676 13.3041 87.1676 13.0462C87.1676 12.7883 87.2139 12.5519 87.3065 12.3369C87.3991 12.122 87.528 11.9352 87.6934 11.7765C87.862 11.6144 88.0588 11.4904 88.2836 11.4045C88.5085 11.3152 88.7565 11.2705 89.0276 11.2705C89.3021 11.2705 89.5534 11.3152 89.7815 11.4045C90.0097 11.4937 90.2031 11.6277 90.3619 11.8062L90.0543 12.1137C89.9121 11.9749 89.7567 11.874 89.5881 11.8112C89.4228 11.7451 89.2425 11.712 89.0475 11.712C88.8491 11.712 88.6639 11.7451 88.4919 11.8112C88.3233 11.8773 88.1761 11.9699 88.0505 12.0889C87.9281 12.208 87.8323 12.3502 87.7628 12.5155C87.6967 12.6775 87.6636 12.8544 87.6636 13.0462C87.6636 13.2347 87.6967 13.4116 87.7628 13.5769C87.8323 13.739 87.9281 13.8812 88.0505 14.0035C88.1761 14.1225 88.3233 14.2151 88.4919 14.2813C88.6606 14.3474 88.8441 14.3805 89.0425 14.3805C89.2277 14.3805 89.4046 14.3524 89.5732 14.2961C89.7452 14.2366 89.9039 14.1391 90.0494 14.0035L90.3321 14.3805C90.1601 14.526 89.9584 14.6367 89.727 14.7128C89.4988 14.7855 89.2624 14.8219 89.0177 14.8219ZM90.3321 14.3805L89.8559 14.316V13.0264H90.3321V14.3805ZM93.6256 14.8219C93.3611 14.8219 93.1081 14.7822 92.8667 14.7029C92.6253 14.6202 92.4352 14.5144 92.2963 14.3854L92.4798 13.9985C92.6121 14.1143 92.7808 14.2102 92.9858 14.2862C93.1908 14.3623 93.4041 14.4003 93.6256 14.4003C93.8273 14.4003 93.991 14.3772 94.1167 14.3309C94.2423 14.2846 94.3349 14.2217 94.3944 14.1424C94.4539 14.0597 94.4837 13.9671 94.4837 13.8646C94.4837 13.7456 94.444 13.6497 94.3647 13.5769C94.2886 13.5042 94.1877 13.4463 94.0621 13.4033C93.9397 13.3571 93.8042 13.3174 93.6554 13.2843C93.5066 13.2512 93.3561 13.2132 93.204 13.1702C93.0552 13.1239 92.918 13.0661 92.7923 12.9966C92.67 12.9272 92.5708 12.8346 92.4947 12.7189C92.4187 12.5998 92.3806 12.4477 92.3806 12.2625C92.3806 12.084 92.4269 11.9203 92.5195 11.7715C92.6154 11.6194 92.7609 11.4987 92.956 11.4094C93.1544 11.3168 93.4057 11.2705 93.7099 11.2705C93.9116 11.2705 94.1117 11.297 94.3101 11.3499C94.5085 11.4028 94.6804 11.4789 94.8259 11.5781L94.6622 11.9749C94.5134 11.8757 94.3564 11.8046 94.191 11.7616C94.0257 11.7153 93.8653 11.6921 93.7099 11.6921C93.5148 11.6921 93.3545 11.7169 93.2288 11.7665C93.1032 11.8161 93.0106 11.8823 92.951 11.9649C92.8948 12.0476 92.8667 12.1402 92.8667 12.2427C92.8667 12.3651 92.9048 12.4626 92.9808 12.5353C93.0602 12.6081 93.161 12.666 93.2834 12.7089C93.409 12.7519 93.5463 12.7916 93.695 12.828C93.8439 12.8611 93.9927 12.8991 94.1414 12.9421C94.2936 12.9851 94.4308 13.0413 94.5531 13.1107C94.6788 13.1801 94.7796 13.2727 94.8557 13.3885C94.9317 13.5042 94.9698 13.653 94.9698 13.8349C94.9698 14.0101 94.9218 14.1738 94.8259 14.3259C94.73 14.4747 94.5812 14.5954 94.3795 14.688C94.1811 14.7773 93.9298 14.8219 93.6256 14.8219ZM96.46 14.7822V13.4529L96.5741 13.7605L95.0811 11.3102H95.6118L96.8667 13.3785H96.579L97.8389 11.3102H98.3299L96.8419 13.7605L96.951 13.4529V14.7822H96.46ZM99.7723 14.8219C99.5078 14.8219 99.2548 14.7822 99.0134 14.7029C98.7721 14.6202 98.5819 14.5144 98.443 14.3854L98.6266 13.9985C98.7588 14.1143 98.9275 14.2102 99.1325 14.2862C99.3375 14.3623 99.5508 14.4003 99.7723 14.4003C99.974 14.4003 100.138 14.3772 100.263 14.3309C100.389 14.2846 100.482 14.2217 100.541 14.1424C100.601 14.0597 100.63 13.9671 100.63 13.8646C100.63 13.7456 100.591 13.6497 100.511 13.5769C100.435 13.5042 100.334 13.4463 100.209 13.4033C100.086 13.3571 99.9509 13.3174 99.8021 13.2843C99.6533 13.2512 99.5028 13.2132 99.3507 13.1702C99.2019 13.1239 99.0647 13.0661 98.939 12.9966C98.8167 12.9272 98.7175 12.8346 98.6414 12.7189C98.5654 12.5998 98.5274 12.4477 98.5274 12.2625C98.5274 12.084 98.5737 11.9203 98.6662 11.7715C98.7621 11.6194 98.9076 11.4987 99.1027 11.4094C99.3011 11.3168 99.5524 11.2705 99.8566 11.2705C100.058 11.2705 100.258 11.297 100.457 11.3499C100.655 11.4028 100.827 11.4789 100.973 11.5781L100.809 11.9749C100.66 11.8757 100.503 11.8046 100.338 11.7616C100.172 11.7153 100.012 11.6921 99.8566 11.6921C99.6616 11.6921 99.5012 11.7169 99.3755 11.7665C99.2499 11.8161 99.1573 11.8823 99.0978 11.9649C99.0416 12.0476 99.0134 12.1402 99.0134 12.2427C99.0134 12.3651 99.0515 12.4626 99.1275 12.5353C99.2069 12.6081 99.3077 12.666 99.4301 12.7089C99.5557 12.7519 99.693 12.7916 99.8418 12.828C99.9906 12.8611 100.139 12.8991 100.288 12.9421C100.44 12.9851 100.578 13.0413 100.7 13.1107C100.826 13.1801 100.926 13.2727 101.002 13.3885C101.078 13.5042 101.116 13.653 101.116 13.8349C101.116 14.0101 101.069 14.1738 100.973 14.3259C100.877 14.4747 100.728 14.5954 100.526 14.688C100.328 14.7773 100.077 14.8219 99.7723 14.8219ZM102.482 14.7822V11.7417H101.292V11.3102H104.164V11.7417H102.973V14.7822H102.482ZM104.704 14.7822V11.3102H107.154V11.7417H105.2V14.3507H107.223V14.7822H104.704ZM105.155 13.2297V12.8081H106.941V13.2297H105.155ZM108.027 14.7822V11.3102H108.433L109.991 13.9341H109.773L111.31 11.3102H111.717L111.722 14.7822H111.246L111.241 12.0592H111.355L109.986 14.3606H109.758L108.379 12.0592H108.503V14.7822H108.027ZM113.776 14.8219C113.511 14.8219 113.258 14.7822 113.017 14.7029C112.775 14.6202 112.585 14.5144 112.446 14.3854L112.63 13.9985C112.762 14.1143 112.931 14.2102 113.136 14.2862C113.341 14.3623 113.554 14.4003 113.776 14.4003C113.977 14.4003 114.141 14.3772 114.267 14.3309C114.392 14.2846 114.485 14.2217 114.544 14.1424C114.604 14.0597 114.634 13.9671 114.634 13.8646C114.634 13.7456 114.594 13.6497 114.515 13.5769C114.439 13.5042 114.338 13.4463 114.212 13.4033C114.09 13.3571 113.954 13.3174 113.805 13.2843C113.657 13.2512 113.506 13.2132 113.354 13.1702C113.205 13.1239 113.068 13.0661 112.942 12.9966C112.82 12.9272 112.721 12.8346 112.645 12.7189C112.569 12.5998 112.531 12.4477 112.531 12.2625C112.531 12.084 112.577 11.9203 112.67 11.7715C112.765 11.6194 112.911 11.4987 113.106 11.4094C113.304 11.3168 113.556 11.2705 113.86 11.2705C114.062 11.2705 114.262 11.297 114.46 11.3499C114.658 11.4028 114.83 11.4789 114.976 11.5781L114.812 11.9749C114.663 11.8757 114.506 11.8046 114.341 11.7616C114.176 11.7153 114.015 11.6921 113.86 11.6921C113.665 11.6921 113.504 11.7169 113.379 11.7665C113.253 11.8161 113.161 11.8823 113.101 11.9649C113.045 12.0476 113.017 12.1402 113.017 12.2427C113.017 12.3651 113.055 12.4626 113.131 12.5353C113.21 12.6081 113.311 12.666 113.433 12.7089C113.559 12.7519 113.696 12.7916 113.845 12.828C113.994 12.8611 114.143 12.8991 114.291 12.9421C114.444 12.9851 114.581 13.0413 114.703 13.1107C114.829 13.1801 114.93 13.2727 115.006 13.3885C115.082 13.5042 115.12 13.653 115.12 13.8349C115.12 14.0101 115.072 14.1738 114.976 14.3259C114.88 14.4747 114.731 14.5954 114.53 14.688C114.331 14.7773 114.08 14.8219 113.776 14.8219Z" fill="#666666"/>
<line x1="59.5589" y1="19.165" x2="59.5057" y2="0.00182681" stroke="#1DD45A" stroke-width="0.64"/>
<path d="M52.5657 16.1259C51.5801 16.1259 50.8185 15.8739 50.2809 15.3699C49.7433 14.8547 49.4745 14.0987 49.4745 13.1019V5.05469H51.5745V13.0515C51.5745 13.4771 51.6809 13.8075 51.8937 14.0427C52.1177 14.2779 52.4257 14.3955 52.8177 14.3955C53.2881 14.3955 53.6801 14.2723 53.9937 14.0259L54.5817 15.5211C54.3353 15.7227 54.0329 15.8739 53.6745 15.9747C53.3161 16.0755 52.9465 16.1259 52.5657 16.1259ZM47.9961 8.71709V7.03709H53.9769V8.71709H47.9961Z" fill="black"/>
<path fill-rule="evenodd" clip-rule="evenodd" d="M44.8364 7.03746V16.0087H46.9364V7.03746H44.8364Z" fill="black"/>
<path d="M45.8948 5.55906C45.5028 5.55906 45.178 5.43586 44.9204 5.18946C44.674 4.94306 44.5508 4.64626 44.5508 4.29906C44.5508 3.94066 44.674 3.64386 44.9204 3.40866C45.178 3.16226 45.5028 3.03906 45.8948 3.03906C46.2868 3.03906 46.606 3.15666 46.8524 3.39186C47.11 3.61586 47.2388 3.90146 47.2388 4.24866C47.2388 4.61826 47.1156 4.93186 46.8692 5.18946C46.6228 5.43586 46.298 5.55906 45.8948 5.55906Z" fill="#1DD45A"/>
<path d="M35.6602 16.0083V14.6811L41.1874 7.99471L41.5738 8.71711H35.761V7.03711H43.2538V8.36431L37.7266 15.0507L37.3066 14.3283H43.405V16.0083H35.6602Z" fill="black"/>
<path fill-rule="evenodd" clip-rule="evenodd" d="M32.0473 7.03746V16.0087H34.1473V7.03746H32.0473Z" fill="black"/>
<path d="M33.1057 5.55906C32.7137 5.55906 32.3889 5.43586 32.1313 5.18946C31.8849 4.94306 31.7617 4.64626 31.7617 4.29906C31.7617 3.94066 31.8849 3.64386 32.1313 3.40866C32.3889 3.16226 32.7137 3.03906 33.1057 3.03906C33.4977 3.03906 33.8169 3.15666 34.0633 3.39186C34.3209 3.61586 34.4497 3.90146 34.4497 4.24866C34.4497 4.61826 34.3265 4.93186 34.0801 5.18946C33.8337 5.43586 33.5089 5.55906 33.1057 5.55906Z" fill="#1DD45A"/>
<path d="M25.582 16.0075V7.03635H27.5812V9.50595L27.346 8.78355C27.6148 8.17875 28.0348 7.71955 28.606 7.40595C29.1884 7.09235 29.9108 6.93555 30.7732 6.93555V8.93475C30.6836 8.91235 30.5996 8.90115 30.5212 8.90115C30.4428 8.88995 30.3644 8.88435 30.286 8.88435C29.4908 8.88435 28.858 9.11955 28.3876 9.58995C27.9172 10.0491 27.682 10.7379 27.682 11.6563V16.0075H25.582Z" fill="black"/>
<path d="M19.5392 16.1262C18.7776 16.1262 18.1 15.9582 17.5064 15.6222C16.9128 15.2862 16.4424 14.7822 16.0952 14.1102C15.7592 13.427 15.5912 12.5646 15.5912 11.523C15.5912 10.4702 15.7648 9.60777 16.112 8.93577C16.4704 8.26377 16.9464 7.76537 17.54 7.44057C18.1448 7.10457 18.8112 6.93657 19.5392 6.93657C20.424 6.93657 21.2024 7.12697 21.8744 7.50777C22.5576 7.88857 23.0952 8.42057 23.4872 9.10377C23.8904 9.78697 24.092 10.5934 24.092 11.523C24.092 12.4526 23.8904 13.259 23.4872 13.9422C23.0952 14.6254 22.5576 15.163 21.8744 15.555C21.2024 15.9358 20.424 16.1262 19.5392 16.1262ZM14.5664 16.0086V3.54297H16.6664V9.12057L16.4984 11.5062L16.5656 13.8918V16.0086H14.5664ZM19.304 14.3286C19.808 14.3286 20.256 14.2166 20.648 13.9926C21.0512 13.7686 21.3704 13.4438 21.6056 13.0182C21.8408 12.5926 21.9584 12.0942 21.9584 11.523C21.9584 10.9406 21.8408 10.4422 21.6056 10.0278C21.3704 9.60217 21.0512 9.27737 20.648 9.05337C20.256 8.82937 19.808 8.71737 19.304 8.71737C18.8 8.71737 18.3464 8.82937 17.9432 9.05337C17.54 9.27737 17.2208 9.60217 16.9856 10.0278C16.7504 10.4422 16.6328 10.9406 16.6328 11.523C16.6328 12.0942 16.7504 12.5926 16.9856 13.0182C17.2208 13.4438 17.54 13.7686 17.9432 13.9926C18.3464 14.2166 18.8 14.3286 19.304 14.3286Z" fill="black"/>
<path d="M6.77087 0.0563958C8.18199 -0.243546 9.32593 0.682798 9.32593 2.12544V15.0555C9.32592 16.4981 8.18199 17.9108 6.77087 18.2107L2.55505 19.1068C1.14394 19.4067 1.69593e-06 18.4804 0 17.0378V4.10772C0 2.66508 1.14394 1.25244 2.55505 0.952498L6.77087 0.0563958ZM7.02638 3.92026C7.02637 3.05468 6.34001 2.49889 5.49335 2.67886L3.83258 3.03187C2.98591 3.21184 2.29955 4.05941 2.29955 4.92499V15.2429C2.29955 16.1085 2.98591 16.6643 3.83258 16.4843L5.49335 16.1313C6.34002 15.9514 7.02638 15.1038 7.02638 14.2382V3.92026Z" fill="#1DD45A"/>
</svg>
