<svg width="347" height="58" viewBox="0 0 347 58" fill="none" xmlns="http://www.w3.org/2000/svg">
<path d="M195.329 24.3447L200.046 13.9287H201.519L206.251 24.3447H204.688L200.477 14.762H201.073L196.862 24.3447H195.329ZM197.338 21.7407L197.739 20.5503H203.602L204.034 21.7407H197.338ZM207.805 24.3447V13.9287H211.867C213.216 13.9287 214.277 14.2511 215.051 14.8959C215.825 15.5308 216.212 16.4186 216.212 17.5594C216.212 18.3134 216.038 18.9631 215.691 19.5087C215.344 20.0444 214.848 20.4561 214.203 20.7438C213.558 21.0314 212.779 21.1753 211.867 21.1753H208.623L209.293 20.4908V24.3447H207.805ZM214.768 24.3447L212.12 20.5652H213.712L216.39 24.3447H214.768ZM209.293 20.6396L208.623 19.9105H211.822C212.775 19.9105 213.494 19.7071 213.98 19.3004C214.476 18.8838 214.724 18.3034 214.724 17.5594C214.724 16.8154 214.476 16.2401 213.98 15.8334C213.494 15.4266 212.775 15.2233 211.822 15.2233H208.623L209.293 14.4793V20.6396ZM223.273 24.4638C222.48 24.4638 221.746 24.3348 221.071 24.0769C220.406 23.809 219.826 23.437 219.33 22.9609C218.844 22.4748 218.462 21.9094 218.184 21.2646C217.907 20.6198 217.768 19.9105 217.768 19.1367C217.768 18.363 217.907 17.6537 218.184 17.0089C218.462 16.3641 218.849 15.8036 219.345 15.3274C219.841 14.8414 220.421 14.4694 221.086 14.2114C221.76 13.9436 222.495 13.8097 223.288 13.8097C224.092 13.8097 224.831 13.9486 225.505 14.2263C226.19 14.4942 226.77 14.8959 227.246 15.4316L226.279 16.369C225.882 15.9524 225.436 15.6449 224.94 15.4465C224.444 15.2382 223.913 15.134 223.348 15.134C222.762 15.134 222.217 15.2332 221.711 15.4316C221.215 15.63 220.783 15.9078 220.416 16.2649C220.049 16.622 219.762 17.0486 219.553 17.5446C219.355 18.0306 219.256 18.5614 219.256 19.1367C219.256 19.7121 219.355 20.2478 219.553 20.7438C219.762 21.2298 220.049 21.6514 220.416 22.0086C220.783 22.3657 221.215 22.6434 221.711 22.8418C222.217 23.0402 222.762 23.1394 223.348 23.1394C223.913 23.1394 224.444 23.0402 224.94 22.8418C225.436 22.6335 225.882 22.3161 226.279 21.8895L227.246 22.827C226.77 23.3626 226.19 23.7694 225.505 24.0471C224.831 24.3249 224.087 24.4638 223.273 24.4638ZM236.693 24.3447V13.9287H238.181V24.3447H236.693ZM229.224 24.3447V13.9287H230.712V24.3447H229.224ZM230.563 19.7022V18.4076H236.827V19.7022H230.563ZM241.299 24.3447V13.9287H242.787V24.3447H241.299ZM247.974 24.3447V15.2233H244.403V13.9287H253.018V15.2233H249.447V24.3447H247.974ZM254.639 24.3447V13.9287H261.99V15.2233H256.127V23.0502H262.198V24.3447H254.639ZM255.993 19.6873V18.4225H261.35V19.6873H255.993ZM269.25 24.4638C268.457 24.4638 267.722 24.3348 267.048 24.0769C266.383 23.809 265.803 23.437 265.307 22.9609C264.821 22.4748 264.439 21.9094 264.161 21.2646C263.883 20.6198 263.745 19.9105 263.745 19.1367C263.745 18.363 263.883 17.6537 264.161 17.0089C264.439 16.3641 264.826 15.8036 265.322 15.3274C265.818 14.8414 266.398 14.4694 267.063 14.2114C267.737 13.9436 268.471 13.8097 269.265 13.8097C270.069 13.8097 270.808 13.9486 271.482 14.2263C272.167 14.4942 272.747 14.8959 273.223 15.4316L272.256 16.369C271.859 15.9524 271.413 15.6449 270.917 15.4465C270.421 15.2382 269.89 15.134 269.325 15.134C268.739 15.134 268.194 15.2332 267.688 15.4316C267.192 15.63 266.76 15.9078 266.393 16.2649C266.026 16.622 265.738 17.0486 265.53 17.5446C265.332 18.0306 265.233 18.5614 265.233 19.1367C265.233 19.7121 265.332 20.2478 265.53 20.7438C265.738 21.2298 266.026 21.6514 266.393 22.0086C266.76 22.3657 267.192 22.6434 267.688 22.8418C268.194 23.0402 268.739 23.1394 269.325 23.1394C269.89 23.1394 270.421 23.0402 270.917 22.8418C271.413 22.6335 271.859 22.3161 272.256 21.8895L273.223 22.827C272.747 23.3626 272.167 23.7694 271.482 24.0471C270.808 24.3249 270.064 24.4638 269.25 24.4638ZM277.022 24.3447V15.2233H273.451V13.9287H282.066V15.2233H278.495V24.3447H277.022ZM287.813 24.4638C286.444 24.4638 285.368 24.0719 284.584 23.2882C283.8 22.5046 283.409 21.3588 283.409 19.851V13.9287H284.897V19.7914C284.897 20.9521 285.15 21.8002 285.655 22.3359C286.171 22.8716 286.895 23.1394 287.828 23.1394C288.77 23.1394 289.495 22.8716 290 22.3359C290.516 21.8002 290.774 20.9521 290.774 19.7914V13.9287H292.218V19.851C292.218 21.3588 291.826 22.5046 291.042 23.2882C290.268 24.0719 289.192 24.4638 287.813 24.4638ZM295.268 24.3447V13.9287H299.33C300.68 13.9287 301.741 14.2511 302.515 14.8959C303.289 15.5308 303.675 16.4186 303.675 17.5594C303.675 18.3134 303.502 18.9631 303.155 19.5087C302.807 20.0444 302.311 20.4561 301.667 20.7438C301.022 21.0314 300.243 21.1753 299.33 21.1753H296.087L296.756 20.4908V24.3447H295.268ZM302.232 24.3447L299.583 20.5652H301.176L303.854 24.3447H302.232ZM296.756 20.6396L296.087 19.9105H299.286C300.238 19.9105 300.957 19.7071 301.443 19.3004C301.939 18.8838 302.187 18.3034 302.187 17.5594C302.187 16.8154 301.939 16.2401 301.443 15.8334C300.957 15.4266 300.238 15.2233 299.286 15.2233H296.087L296.756 14.4793V20.6396ZM304.502 24.3447L309.219 13.9287H310.692L315.424 24.3447H313.862L309.651 14.762H310.246L306.035 24.3447H304.502ZM306.511 21.7407L306.913 20.5503H312.775L313.207 21.7407H306.511ZM316.978 24.3447V13.9287H318.466V23.0502H324.105V24.3447H316.978ZM196.906 44.3447V33.9287H201.578C202.779 33.9287 203.701 34.1718 204.346 34.6578C204.991 35.134 205.313 35.7887 205.313 36.622C205.313 37.1874 205.184 37.6636 204.926 38.0505C204.678 38.4374 204.341 38.735 203.915 38.9433C203.488 39.1516 203.027 39.2558 202.531 39.2558L202.799 38.8094C203.394 38.8094 203.92 38.9135 204.376 39.1218C204.832 39.3302 205.194 39.6377 205.462 40.0444C205.73 40.4412 205.864 40.9372 205.864 41.5324C205.864 42.4252 205.527 43.1196 204.852 43.6156C204.187 44.1017 203.195 44.3447 201.876 44.3447H196.906ZM198.394 43.1394H201.817C202.64 43.1394 203.27 43.0006 203.706 42.7228C204.143 42.445 204.361 42.0086 204.361 41.4134C204.361 40.8082 204.143 40.3668 203.706 40.089C203.27 39.8113 202.64 39.6724 201.817 39.6724H198.26V38.4671H201.445C202.198 38.4671 202.784 38.3282 203.2 38.0505C203.617 37.7727 203.825 37.3561 203.825 36.8006C203.825 36.245 203.617 35.8284 203.2 35.5506C202.784 35.2729 202.198 35.134 201.445 35.134H198.394V43.1394ZM212.483 44.4638C211.114 44.4638 210.038 44.0719 209.254 43.2882C208.47 42.5046 208.079 41.3588 208.079 39.851V33.9287H209.567V39.7914C209.567 40.9521 209.82 41.8002 210.325 42.3359C210.841 42.8716 211.565 43.1394 212.498 43.1394C213.44 43.1394 214.165 42.8716 214.67 42.3359C215.186 41.8002 215.444 40.9521 215.444 39.7914V33.9287H216.888V39.851C216.888 41.3588 216.496 42.5046 215.712 43.2882C214.938 44.0719 213.862 44.4638 212.483 44.4638ZM219.938 44.3447V33.9287H221.426V44.3447H219.938ZM224.545 44.3447V33.9287H226.033V43.0502H231.672V44.3447H224.545ZM233.38 44.3447V33.9287H237.769C238.88 33.9287 239.857 34.147 240.701 34.5834C241.554 35.0199 242.213 35.63 242.68 36.4137C243.156 37.1974 243.394 38.105 243.394 39.1367C243.394 40.1684 243.156 41.0761 242.68 41.8598C242.213 42.6434 241.554 43.2535 240.701 43.69C239.857 44.1265 238.88 44.3447 237.769 44.3447H233.38ZM234.868 43.0502H237.68C238.543 43.0502 239.287 42.8865 239.912 42.5591C240.547 42.2318 241.038 41.7754 241.385 41.1902C241.732 40.595 241.906 39.9105 241.906 39.1367C241.906 38.353 241.732 37.6686 241.385 37.0833C241.038 36.498 240.547 36.0417 239.912 35.7143C239.287 35.387 238.543 35.2233 237.68 35.2233H234.868V43.0502ZM245.673 44.3447V33.9287H247.161V44.3447H245.673ZM250.279 44.3447V33.9287H251.5L258.389 42.4847H257.749V33.9287H259.237V44.3447H258.017L251.128 35.7887H251.767V44.3447H250.279ZM267.057 44.4638C266.253 44.4638 265.514 44.3348 264.84 44.0769C264.165 43.809 263.58 43.437 263.084 42.9609C262.588 42.4748 262.201 41.9094 261.923 41.2646C261.646 40.6198 261.507 39.9105 261.507 39.1367C261.507 38.363 261.646 37.6537 261.923 37.0089C262.201 36.3641 262.588 35.8036 263.084 35.3274C263.59 34.8414 264.18 34.4694 264.855 34.2114C265.529 33.9436 266.273 33.8097 267.087 33.8097C267.91 33.8097 268.664 33.9436 269.349 34.2114C270.033 34.4793 270.613 34.881 271.089 35.4167L270.167 36.3393C269.74 35.9226 269.274 35.6201 268.768 35.4316C268.272 35.2332 267.732 35.134 267.146 35.134C266.551 35.134 265.996 35.2332 265.48 35.4316C264.974 35.63 264.532 35.9078 264.155 36.2649C263.788 36.622 263.501 37.0486 263.292 37.5446C263.094 38.0306 262.995 38.5614 262.995 39.1367C262.995 39.7022 263.094 40.2329 263.292 40.7289C263.501 41.215 263.788 41.6415 264.155 42.0086C264.532 42.3657 264.974 42.6434 265.48 42.8418C265.986 43.0402 266.536 43.1394 267.131 43.1394C267.687 43.1394 268.218 43.0551 268.724 42.8865C269.239 42.7079 269.716 42.4153 270.152 42.0086L271 43.1394C270.484 43.5759 269.879 43.9082 269.185 44.1364C268.5 44.3546 267.791 44.4638 267.057 44.4638ZM271 43.1394L269.572 42.946V39.0772H271V43.1394ZM280.881 44.4638C280.087 44.4638 279.328 44.3447 278.604 44.1066C277.88 43.8586 277.31 43.5412 276.893 43.1543L277.443 41.9937C277.84 42.3409 278.346 42.6286 278.961 42.8567C279.576 43.0849 280.216 43.199 280.881 43.199C281.486 43.199 281.977 43.1295 282.354 42.9906C282.731 42.8518 283.009 42.6633 283.187 42.4252C283.366 42.1772 283.455 41.8994 283.455 41.5919C283.455 41.2348 283.336 40.9471 283.098 40.7289C282.87 40.5106 282.567 40.337 282.19 40.2081C281.823 40.0692 281.416 39.9502 280.97 39.851C280.524 39.7518 280.072 39.6377 279.616 39.5087C279.17 39.3698 278.758 39.1962 278.381 38.9879C278.014 38.7796 277.716 38.5018 277.488 38.1546C277.26 37.7975 277.146 37.3412 277.146 36.7857C277.146 36.25 277.285 35.759 277.562 35.3126C277.85 34.8562 278.287 34.4942 278.872 34.2263C279.467 33.9486 280.221 33.8097 281.134 33.8097C281.739 33.8097 282.339 33.889 282.934 34.0478C283.529 34.2065 284.045 34.4346 284.482 34.7322L283.991 35.9226C283.544 35.625 283.073 35.4118 282.577 35.2828C282.081 35.1439 281.6 35.0745 281.134 35.0745C280.548 35.0745 280.067 35.1489 279.69 35.2977C279.313 35.4465 279.036 35.6449 278.857 35.8929C278.688 36.1409 278.604 36.4186 278.604 36.7262C278.604 37.0932 278.718 37.3858 278.946 37.6041C279.184 37.8223 279.487 37.9959 279.854 38.1249C280.231 38.2538 280.643 38.3729 281.089 38.482C281.535 38.5812 281.982 38.6953 282.428 38.8242C282.885 38.9532 283.296 39.1218 283.663 39.3302C284.04 39.5385 284.343 39.8162 284.571 40.1634C284.799 40.5106 284.913 40.957 284.913 41.5026C284.913 42.0284 284.769 42.5194 284.482 42.9758C284.194 43.4222 283.748 43.7842 283.142 44.062C282.547 44.3298 281.793 44.4638 280.881 44.4638ZM289.384 44.3447V40.3569L289.726 41.2794L285.247 33.9287H286.839L290.604 40.1337H289.741L293.52 33.9287H294.994L290.53 41.2794L290.857 40.3569V44.3447H289.384ZM299.321 44.4638C298.527 44.4638 297.768 44.3447 297.044 44.1066C296.32 43.8586 295.75 43.5412 295.333 43.1543L295.884 41.9937C296.28 42.3409 296.786 42.6286 297.401 42.8567C298.016 43.0849 298.656 43.199 299.321 43.199C299.926 43.199 300.417 43.1295 300.794 42.9906C301.171 42.8518 301.449 42.6633 301.627 42.4252C301.806 42.1772 301.895 41.8994 301.895 41.5919C301.895 41.2348 301.776 40.9471 301.538 40.7289C301.31 40.5106 301.007 40.337 300.63 40.2081C300.263 40.0692 299.857 39.9502 299.41 39.851C298.964 39.7518 298.512 39.6377 298.056 39.5087C297.61 39.3698 297.198 39.1962 296.821 38.9879C296.454 38.7796 296.156 38.5018 295.928 38.1546C295.7 37.7975 295.586 37.3412 295.586 36.7857C295.586 36.25 295.725 35.759 296.003 35.3126C296.29 34.8562 296.727 34.4942 297.312 34.2263C297.907 33.9486 298.661 33.8097 299.574 33.8097C300.179 33.8097 300.779 33.889 301.374 34.0478C301.97 34.2065 302.485 34.4346 302.922 34.7322L302.431 35.9226C301.984 35.625 301.513 35.4118 301.017 35.2828C300.521 35.1439 300.04 35.0745 299.574 35.0745C298.989 35.0745 298.507 35.1489 298.13 35.2977C297.754 35.4465 297.476 35.6449 297.297 35.8929C297.129 36.1409 297.044 36.4186 297.044 36.7262C297.044 37.0932 297.158 37.3858 297.386 37.6041C297.625 37.8223 297.927 37.9959 298.294 38.1249C298.671 38.2538 299.083 38.3729 299.529 38.482C299.976 38.5812 300.422 38.6953 300.868 38.8242C301.325 38.9532 301.736 39.1218 302.103 39.3302C302.48 39.5385 302.783 39.8162 303.011 40.1634C303.239 40.5106 303.353 40.957 303.353 41.5026C303.353 42.0284 303.21 42.5194 302.922 42.9758C302.634 43.4222 302.188 43.7842 301.583 44.062C300.987 44.3298 300.234 44.4638 299.321 44.4638ZM307.45 44.3447V35.2233H303.879V33.9287H312.495V35.2233H308.923V44.3447H307.45ZM314.115 44.3447V33.9287H321.466V35.2233H315.603V43.0502H321.674V44.3447H314.115ZM315.469 39.6873V38.4225H320.826V39.6873H315.469ZM324.084 44.3447V33.9287H325.304L329.976 41.8002H329.321L333.934 33.9287H335.154L335.169 44.3447H333.741L333.726 36.1756H334.068L329.961 43.0799H329.277L325.14 36.1756H325.512V44.3447H324.084ZM341.331 44.4638C340.537 44.4638 339.778 44.3447 339.054 44.1066C338.33 43.8586 337.76 43.5412 337.343 43.1543L337.893 41.9937C338.29 42.3409 338.796 42.6286 339.411 42.8567C340.026 43.0849 340.666 43.199 341.331 43.199C341.936 43.199 342.427 43.1295 342.804 42.9906C343.181 42.8518 343.459 42.6633 343.637 42.4252C343.816 42.1772 343.905 41.8994 343.905 41.5919C343.905 41.2348 343.786 40.9471 343.548 40.7289C343.32 40.5106 343.017 40.337 342.64 40.2081C342.273 40.0692 341.866 39.9502 341.42 39.851C340.974 39.7518 340.522 39.6377 340.066 39.5087C339.62 39.3698 339.208 39.1962 338.831 38.9879C338.464 38.7796 338.166 38.5018 337.938 38.1546C337.71 37.7975 337.596 37.3412 337.596 36.7857C337.596 36.25 337.735 35.759 338.012 35.3126C338.3 34.8562 338.737 34.4942 339.322 34.2263C339.917 33.9486 340.671 33.8097 341.584 33.8097C342.189 33.8097 342.789 33.889 343.384 34.0478C343.979 34.2065 344.495 34.4346 344.932 34.7322L344.441 35.9226C343.994 35.625 343.523 35.4118 343.027 35.2828C342.531 35.1439 342.05 35.0745 341.584 35.0745C340.998 35.0745 340.517 35.1489 340.14 35.2977C339.763 35.4465 339.486 35.6449 339.307 35.8929C339.138 36.1409 339.054 36.4186 339.054 36.7262C339.054 37.0932 339.168 37.3858 339.396 37.6041C339.634 37.8223 339.937 37.9959 340.304 38.1249C340.681 38.2538 341.093 38.3729 341.539 38.482C341.985 38.5812 342.432 38.6953 342.878 38.8242C343.335 38.9532 343.746 39.1218 344.113 39.3302C344.49 39.5385 344.793 39.8162 345.021 40.1634C345.249 40.5106 345.363 40.957 345.363 41.5026C345.363 42.0284 345.219 42.5194 344.932 42.9758C344.644 43.4222 344.198 43.7842 343.592 44.062C342.997 44.3298 342.243 44.4638 341.331 44.4638Z" fill="#666666"/>
<line x1="178.669" y1="57.4919" x2="178.509" y2="0.00254885" stroke="#1DD45A" stroke-width="1.92"/>
<path d="M157.701 48.3747C154.744 48.3747 152.459 47.6187 150.847 46.1067C149.234 44.5611 148.427 42.2931 148.427 39.3027V15.1611H154.727V39.1515C154.727 40.4283 155.047 41.4195 155.685 42.1251C156.357 42.8307 157.281 43.1835 158.457 43.1835C159.868 43.1835 161.044 42.8139 161.985 42.0747L163.749 46.5603C163.01 47.1651 162.103 47.6187 161.027 47.9211C159.952 48.2235 158.843 48.3747 157.701 48.3747ZM143.992 26.1483V21.1083H161.935V26.1483H143.992Z" fill="black"/>
<path fill-rule="evenodd" clip-rule="evenodd" d="M134.517 21.1095V48.0231H140.817V21.1095H134.517Z" fill="black"/>
<path d="M137.692 16.6743C136.516 16.6743 135.542 16.3047 134.769 15.5655C134.03 14.8263 133.66 13.9359 133.66 12.8943C133.66 11.8191 134.03 10.9287 134.769 10.2231C135.542 9.48386 136.516 9.11426 137.692 9.11426C138.868 9.11426 139.826 9.46706 140.565 10.1727C141.338 10.8447 141.724 11.7015 141.724 12.7431C141.724 13.8519 141.355 14.7927 140.615 15.5655C139.876 16.3047 138.902 16.6743 137.692 16.6743Z" fill="#1DD45A"/>
<path d="M106.984 48.022V44.0404L123.566 23.9812L124.725 26.1484H107.287V21.1084H129.765V25.09L113.184 45.1492L111.924 42.982H130.219V48.022H106.984Z" fill="black"/>
<path fill-rule="evenodd" clip-rule="evenodd" d="M96.1459 21.1095V48.0231H102.446V21.1095H96.1459Z" fill="black"/>
<path d="M99.3211 16.6743C98.1451 16.6743 97.1707 16.3047 96.3979 15.5655C95.6587 14.8263 95.2891 13.9359 95.2891 12.8943C95.2891 11.8191 95.6587 10.9287 96.3979 10.2231C97.1707 9.48386 98.1451 9.11426 99.3211 9.11426C100.497 9.11426 101.455 9.46706 102.194 10.1727C102.967 10.8447 103.353 11.7015 103.353 12.7431C103.353 13.8519 102.983 14.7927 102.244 15.5655C101.505 16.3047 100.531 16.6743 99.3211 16.6743Z" fill="#1DD45A"/>
<path d="M76.7383 48.0226V21.109H82.7359V28.5178L82.0303 26.3506C82.8367 24.5362 84.0967 23.1586 85.8103 22.2178C87.5575 21.277 89.7247 20.8066 92.3119 20.8066V26.8042C92.0431 26.737 91.7911 26.7034 91.5559 26.7034C91.3207 26.6698 91.0855 26.653 90.8503 26.653C88.4647 26.653 86.5663 27.3586 85.1551 28.7698C83.7439 30.1474 83.0383 32.2138 83.0383 34.969V48.0226H76.7383Z" fill="black"/>
<path d="M58.6176 48.3756C56.3328 48.3756 54.3 47.8716 52.5192 46.8636C50.7384 45.8556 49.3272 44.3436 48.2856 42.3276C47.2776 40.278 46.7736 37.6908 46.7736 34.566C46.7736 31.4076 47.2944 28.8204 48.336 26.8044C49.4112 24.7884 50.8392 23.2932 52.62 22.3188C54.4344 21.3108 56.4336 20.8068 58.6176 20.8068C61.272 20.8068 63.6072 21.378 65.6232 22.5204C67.6728 23.6628 69.2856 25.2588 70.4616 27.3084C71.6712 29.358 72.276 31.7772 72.276 34.566C72.276 37.3548 71.6712 39.774 70.4616 41.8236C69.2856 43.8732 67.6728 45.486 65.6232 46.662C63.6072 47.8044 61.272 48.3756 58.6176 48.3756ZM43.6992 48.0228V10.626H49.9992V27.3588L49.4952 34.5156L49.6968 41.6724V48.0228H43.6992ZM57.912 42.9828C59.424 42.9828 60.768 42.6468 61.944 41.9748C63.1536 41.3028 64.1112 40.3284 64.8168 39.0516C65.5224 37.7748 65.8752 36.2796 65.8752 34.566C65.8752 32.8188 65.5224 31.3236 64.8168 30.0804C64.1112 28.8036 63.1536 27.8292 61.944 27.1572C60.768 26.4852 59.424 26.1492 57.912 26.1492C56.4 26.1492 55.0392 26.4852 53.8296 27.1572C52.62 27.8292 51.6624 28.8036 50.9568 30.0804C50.2512 31.3236 49.8984 32.8188 49.8984 34.566C49.8984 36.2796 50.2512 37.7748 50.9568 39.0516C51.6624 40.3284 52.62 41.3028 53.8296 41.9748C55.0392 42.6468 56.4 42.9828 57.912 42.9828Z" fill="black"/>
<path d="M20.3126 0.169187C24.546 -0.730637 27.9778 2.04839 27.9778 6.37631V45.1664C27.9778 49.4943 24.546 53.7323 20.3126 54.6321L7.66516 57.3204C3.43182 58.2202 5.08778e-06 55.4412 0 51.1133V12.3231C0 7.99523 3.43182 3.75732 7.66516 2.85749L20.3126 0.169187ZM21.0791 11.7608C21.0791 9.16404 19.02 7.49668 16.48 8.03657L11.4977 9.09561C8.95773 9.63551 6.89864 12.1782 6.89864 14.775V45.7287C6.89865 48.3255 8.95774 49.9929 11.4977 49.453L16.48 48.394C19.0201 47.8541 21.0791 45.3113 21.0791 42.7145V11.7608Z" fill="#1DD45A"/>
</svg>
