<svg width="462" height="77" viewBox="0 0 462 77" fill="none" xmlns="http://www.w3.org/2000/svg">
<path d="M260.437 32.126L266.726 18.238H268.691L275 32.126H272.917L267.302 19.349H268.095L262.481 32.126H260.437ZM263.116 28.654L263.651 27.0668H271.468L272.044 28.654H263.116ZM277.071 32.126V18.238H282.488C284.287 18.238 285.702 18.6678 286.734 19.5276C287.765 20.3741 288.281 21.5579 288.281 23.0789C288.281 24.0842 288.05 24.9505 287.587 25.678C287.124 26.3922 286.462 26.9411 285.603 27.3247C284.743 27.7083 283.705 27.9001 282.488 27.9001H278.163L279.055 26.9874V32.126H277.071ZM286.357 32.126L282.825 27.0866H284.948L288.519 32.126H286.357ZM279.055 27.1858L278.163 26.2137H282.428C283.698 26.2137 284.657 25.9425 285.305 25.4002C285.966 24.8447 286.297 24.0709 286.297 23.0789C286.297 22.0869 285.966 21.3198 285.305 20.7775C284.657 20.2352 283.698 19.9641 282.428 19.9641H278.163L279.055 18.9721V27.1858ZM297.696 32.2847C296.638 32.2847 295.659 32.1127 294.76 31.7689C293.874 31.4117 293.1 30.9157 292.439 30.2809C291.791 29.6327 291.281 28.8788 290.911 28.0191C290.541 27.1594 290.356 26.2137 290.356 25.182C290.356 24.1503 290.541 23.2046 290.911 22.3449C291.281 21.4851 291.797 20.7378 292.459 20.1029C293.12 19.4548 293.894 18.9588 294.78 18.6149C295.679 18.2578 296.658 18.0793 297.716 18.0793C298.788 18.0793 299.773 18.2644 300.672 18.6348C301.585 18.9919 302.359 19.5276 302.994 20.2418L301.704 21.4917C301.175 20.9362 300.58 20.5262 299.918 20.2617C299.257 19.9839 298.55 19.845 297.796 19.845C297.015 19.845 296.288 19.9773 295.613 20.2418C294.952 20.5063 294.377 20.8767 293.887 21.3529C293.398 21.829 293.014 22.3978 292.736 23.0591C292.472 23.7072 292.34 24.4148 292.34 25.182C292.34 25.9491 292.472 26.6634 292.736 27.3247C293.014 27.9728 293.398 28.5349 293.887 29.0111C294.377 29.4873 294.952 29.8576 295.613 30.1221C296.288 30.3867 297.015 30.5189 297.796 30.5189C298.55 30.5189 299.257 30.3867 299.918 30.1221C300.58 29.8444 301.175 29.4211 301.704 28.8524L302.994 30.1023C302.359 30.8165 301.585 31.3588 300.672 31.7292C299.773 32.0995 298.781 32.2847 297.696 32.2847ZM315.59 32.126V18.238H317.574V32.126H315.59ZM305.63 32.126V18.238H307.614V32.126H305.63ZM307.416 25.9359V24.2098H315.768V25.9359H307.416ZM321.731 32.126V18.238H323.715V32.126H321.731ZM330.63 32.126V19.9641H325.869V18.238H337.356V19.9641H332.595V32.126H330.63ZM339.517 32.126V18.238H349.318V19.9641H341.501V30.3999H349.596V32.126H339.517ZM341.323 25.9161V24.2297H348.465V25.9161H341.323ZM358.999 32.2847C357.941 32.2847 356.962 32.1127 356.063 31.7689C355.176 31.4117 354.403 30.9157 353.741 30.2809C353.093 29.6327 352.584 28.8788 352.214 28.0191C351.843 27.1594 351.658 26.2137 351.658 25.182C351.658 24.1503 351.843 23.2046 352.214 22.3449C352.584 21.4851 353.1 20.7378 353.761 20.1029C354.422 19.4548 355.196 18.9588 356.082 18.6149C356.982 18.2578 357.961 18.0793 359.019 18.0793C360.09 18.0793 361.075 18.2644 361.975 18.6348C362.888 18.9919 363.661 19.5276 364.296 20.2418L363.007 21.4917C362.478 20.9362 361.882 20.5262 361.221 20.2617C360.56 19.9839 359.852 19.845 359.098 19.845C358.318 19.845 357.59 19.9773 356.916 20.2418C356.254 20.5063 355.679 20.8767 355.19 21.3529C354.7 21.829 354.317 22.3978 354.039 23.0591C353.774 23.7072 353.642 24.4148 353.642 25.182C353.642 25.9491 353.774 26.6634 354.039 27.3247C354.317 27.9728 354.7 28.5349 355.19 29.0111C355.679 29.4873 356.254 29.8576 356.916 30.1221C357.59 30.3867 358.318 30.5189 359.098 30.5189C359.852 30.5189 360.56 30.3867 361.221 30.1221C361.882 29.8444 362.478 29.4211 363.007 28.8524L364.296 30.1023C363.661 30.8165 362.888 31.3588 361.975 31.7292C361.075 32.0995 360.083 32.2847 358.999 32.2847ZM369.361 32.126V19.9641H364.6V18.238H376.087V19.9641H371.325V32.126H369.361ZM383.749 32.2847C381.924 32.2847 380.489 31.7622 379.444 30.7173C378.399 29.6724 377.877 28.1447 377.877 26.1343V18.238H379.861V26.0549C379.861 27.6025 380.198 28.7333 380.873 29.4476C381.56 30.1618 382.526 30.5189 383.769 30.5189C385.026 30.5189 385.991 30.1618 386.666 29.4476C387.354 28.7333 387.698 27.6025 387.698 26.0549V18.238H389.622V26.1343C389.622 28.1447 389.1 29.6724 388.055 30.7173C387.023 31.7622 385.588 32.2847 383.749 32.2847ZM393.69 32.126V18.238H399.106C400.905 18.238 402.32 18.6678 403.352 19.5276C404.383 20.3741 404.899 21.5579 404.899 23.0789C404.899 24.0842 404.668 24.9505 404.205 25.678C403.742 26.3922 403.081 26.9411 402.221 27.3247C401.361 27.7083 400.323 27.9001 399.106 27.9001H394.781L395.674 26.9874V32.126H393.69ZM402.975 32.126L399.443 27.0866H401.566L405.137 32.126H402.975ZM395.674 27.1858L394.781 26.2137H399.046C400.316 26.2137 401.275 25.9425 401.923 25.4002C402.585 24.8447 402.915 24.0709 402.915 23.0789C402.915 22.0869 402.585 21.3198 401.923 20.7775C401.275 20.2352 400.316 19.9641 399.046 19.9641H394.781L395.674 18.9721V27.1858ZM406.002 32.126L412.291 18.238H414.255L420.564 32.126H418.481L412.866 19.349H413.66L408.045 32.126H406.002ZM408.68 28.654L409.216 27.0668H417.033L417.608 28.654H408.68ZM422.636 32.126V18.238H424.62V30.3999H432.139V32.126H422.636ZM262.54 59.126V45.238H268.77C270.37 45.238 271.6 45.562 272.46 46.2101C273.32 46.845 273.75 47.718 273.75 48.829C273.75 49.5829 273.578 50.2178 273.234 50.7337C272.903 51.2495 272.454 51.6463 271.885 51.9241C271.316 52.2018 270.701 52.3407 270.04 52.3407L270.397 51.7455C271.19 51.7455 271.891 51.8844 272.5 52.1621C273.108 52.4399 273.591 52.8499 273.948 53.3922C274.305 53.9213 274.484 54.5826 274.484 55.3762C274.484 56.5666 274.034 57.4925 273.135 58.1538C272.249 58.8019 270.926 59.126 269.167 59.126H262.54ZM264.524 57.5189H269.087C270.185 57.5189 271.025 57.3338 271.607 56.9634C272.189 56.5931 272.48 56.0111 272.48 55.2175C272.48 54.4107 272.189 53.8221 271.607 53.4517C271.025 53.0814 270.185 52.8962 269.087 52.8962H264.346V51.2892H268.591C269.597 51.2892 270.377 51.104 270.933 50.7337C271.488 50.3633 271.766 49.8078 271.766 49.0671C271.766 48.3264 271.488 47.7709 270.933 47.4005C270.377 47.0302 269.597 46.845 268.591 46.845H264.524V57.5189ZM283.309 59.2847C281.484 59.2847 280.049 58.7622 279.004 57.7173C277.959 56.6724 277.437 55.1447 277.437 53.1343V45.238H279.421V53.0549C279.421 54.6025 279.758 55.7333 280.433 56.4476C281.12 57.1618 282.086 57.5189 283.329 57.5189C284.586 57.5189 285.551 57.1618 286.226 56.4476C286.914 55.7333 287.258 54.6025 287.258 53.0549V45.238H289.182V53.1343C289.182 55.1447 288.66 56.6724 287.615 57.7173C286.583 58.7622 285.148 59.2847 283.309 59.2847ZM293.25 59.126V45.238H295.234V59.126H293.25ZM299.391 59.126V45.238H301.375V57.3999H308.895V59.126H299.391ZM311.171 59.126V45.238H317.024C318.506 45.238 319.808 45.529 320.933 46.1109C322.07 46.6929 322.95 47.5063 323.571 48.5513C324.206 49.5962 324.524 50.8064 324.524 52.182C324.524 53.5575 324.206 54.7678 323.571 55.8127C322.95 56.8576 322.07 57.671 320.933 58.253C319.808 58.835 318.506 59.126 317.024 59.126H311.171ZM313.155 57.3999H316.905C318.056 57.3999 319.048 57.1817 319.881 56.7452C320.728 56.3087 321.382 55.7003 321.845 54.9199C322.308 54.1263 322.54 53.2137 322.54 52.182C322.54 51.1371 322.308 50.2244 321.845 49.4441C321.382 48.6637 320.728 48.0553 319.881 47.6188C319.048 47.1823 318.056 46.9641 316.905 46.9641H313.155V57.3999ZM327.563 59.126V45.238H329.547V59.126H327.563ZM333.705 59.126V45.238H335.331L344.517 56.646H343.664V45.238H345.648V59.126H344.021L334.835 47.718H335.689V59.126H333.705ZM356.075 59.2847C355.003 59.2847 354.018 59.1127 353.119 58.7689C352.219 58.4117 351.439 57.9157 350.777 57.2809C350.116 56.6327 349.6 55.8788 349.23 55.0191C348.86 54.1594 348.674 53.2137 348.674 52.182C348.674 51.1503 348.86 50.2046 349.23 49.3449C349.6 48.4851 350.116 47.7378 350.777 47.1029C351.452 46.4548 352.239 45.9588 353.138 45.6149C354.038 45.2578 355.03 45.0793 356.114 45.0793C357.212 45.0793 358.217 45.2578 359.13 45.6149C360.043 45.9721 360.816 46.5077 361.451 47.222L360.221 48.4521C359.652 47.8965 359.031 47.4931 358.356 47.2418C357.695 46.9773 356.974 46.845 356.194 46.845C355.4 46.845 354.659 46.9773 353.972 47.2418C353.297 47.5063 352.708 47.8767 352.206 48.3529C351.716 48.829 351.333 49.3978 351.055 50.0591C350.791 50.7072 350.658 51.4148 350.658 52.182C350.658 52.9359 350.791 53.6435 351.055 54.3049C351.333 54.953 351.716 55.5217 352.206 56.0111C352.708 56.4873 353.297 56.8576 353.972 57.1221C354.646 57.3867 355.38 57.5189 356.174 57.5189C356.915 57.5189 357.622 57.4065 358.297 57.1817C358.985 56.9436 359.619 56.5534 360.201 56.0111L361.332 57.5189C360.644 58.1009 359.838 58.544 358.912 58.8482C357.999 59.1392 357.053 59.2847 356.075 59.2847ZM361.332 57.5189L359.428 57.261V52.1026H361.332V57.5189ZM374.506 59.2847C373.448 59.2847 372.436 59.126 371.471 58.8085C370.505 58.4779 369.745 58.0546 369.189 57.5388L369.923 55.9913C370.452 56.4542 371.127 56.8378 371.947 57.142C372.767 57.4462 373.62 57.5983 374.506 57.5983C375.313 57.5983 375.968 57.5057 376.471 57.3205C376.973 57.1354 377.343 56.8841 377.582 56.5666C377.82 56.2359 377.939 55.8656 377.939 55.4556C377.939 54.9794 377.78 54.5958 377.463 54.3049C377.158 54.0139 376.755 53.7824 376.252 53.6105C375.763 53.4253 375.221 53.2666 374.625 53.1343C374.03 53.002 373.428 52.8499 372.82 52.678C372.225 52.4928 371.676 52.2613 371.173 51.9836C370.684 51.7058 370.287 51.3355 369.983 50.8725C369.679 50.3964 369.527 49.7879 369.527 49.0473C369.527 48.333 369.712 47.6783 370.082 47.0831C370.466 46.4747 371.048 45.9919 371.828 45.6348C372.622 45.2644 373.627 45.0793 374.844 45.0793C375.65 45.0793 376.451 45.1851 377.244 45.3967C378.038 45.6083 378.726 45.9125 379.308 46.3093L378.653 47.8965C378.058 47.4997 377.429 47.2154 376.768 47.0434C376.107 46.8582 375.465 46.7657 374.844 46.7657C374.063 46.7657 373.422 46.8649 372.919 47.0633C372.417 47.2617 372.046 47.5262 371.808 47.8569C371.583 48.1875 371.471 48.5579 371.471 48.9679C371.471 49.4573 371.623 49.8475 371.927 50.1385C372.245 50.4294 372.648 50.6609 373.137 50.8329C373.64 51.0048 374.189 51.1635 374.784 51.309C375.379 51.4413 375.975 51.5934 376.57 51.7653C377.178 51.9373 377.727 52.1621 378.216 52.4399C378.719 52.7177 379.122 53.088 379.427 53.5509C379.731 54.0139 379.883 54.6091 379.883 55.3365C379.883 56.0375 379.691 56.6923 379.308 57.3007C378.924 57.8959 378.329 58.3787 377.522 58.749C376.728 59.1061 375.723 59.2847 374.506 59.2847ZM385.844 59.126V53.8089L386.3 55.0389L380.328 45.238H382.451L387.471 53.5113H386.32L391.359 45.238H393.324L387.372 55.0389L387.808 53.8089V59.126H385.844ZM399.093 59.2847C398.035 59.2847 397.023 59.126 396.058 58.8085C395.092 58.4779 394.332 58.0546 393.776 57.5388L394.51 55.9913C395.039 56.4542 395.714 56.8378 396.534 57.142C397.354 57.4462 398.207 57.5983 399.093 57.5983C399.9 57.5983 400.555 57.5057 401.057 57.3205C401.56 57.1354 401.93 56.8841 402.168 56.5666C402.407 56.2359 402.526 55.8656 402.526 55.4556C402.526 54.9794 402.367 54.5958 402.049 54.3049C401.745 54.0139 401.342 53.7824 400.839 53.6105C400.35 53.4253 399.807 53.2666 399.212 53.1343C398.617 53.002 398.015 52.8499 397.407 52.678C396.812 52.4928 396.263 52.2613 395.76 51.9836C395.271 51.7058 394.874 51.3355 394.57 50.8725C394.265 50.3964 394.113 49.7879 394.113 49.0473C394.113 48.333 394.299 47.6783 394.669 47.0831C395.052 46.4747 395.634 45.9919 396.415 45.6348C397.208 45.2644 398.214 45.0793 399.431 45.0793C400.237 45.0793 401.038 45.1851 401.831 45.3967C402.625 45.6083 403.313 45.9125 403.895 46.3093L403.24 47.8965C402.645 47.4997 402.016 47.2154 401.355 47.0434C400.694 46.8582 400.052 46.7657 399.431 46.7657C398.65 46.7657 398.009 46.8649 397.506 47.0633C397.003 47.2617 396.633 47.5262 396.395 47.8569C396.17 48.1875 396.058 48.5579 396.058 48.9679C396.058 49.4573 396.21 49.8475 396.514 50.1385C396.831 50.4294 397.235 50.6609 397.724 50.8329C398.227 51.0048 398.776 51.1635 399.371 51.309C399.966 51.4413 400.561 51.5934 401.157 51.7653C401.765 51.9373 402.314 52.1621 402.803 52.4399C403.306 52.7177 403.709 53.088 404.014 53.5509C404.318 54.0139 404.47 54.6091 404.47 55.3365C404.47 56.0375 404.278 56.6923 403.895 57.3007C403.511 57.8959 402.916 58.3787 402.109 58.749C401.315 59.1061 400.31 59.2847 399.093 59.2847ZM409.932 59.126V46.9641H405.171V45.238H416.658V46.9641H411.897V59.126H409.932ZM418.819 59.126V45.238H428.62V46.9641H420.803V57.3999H428.898V59.126H418.819ZM420.624 52.9161V51.2297H427.767V52.9161H420.624ZM432.11 59.126V45.238H433.737L439.967 55.7333H439.094L445.244 45.238H446.871L446.891 59.126H444.986L444.967 48.2338H445.423L439.947 57.4396H439.034L433.519 48.2338H434.015V59.126H432.11ZM455.106 59.2847C454.048 59.2847 453.036 59.126 452.071 58.8085C451.105 58.4779 450.345 58.0546 449.789 57.5388L450.523 55.9913C451.052 56.4542 451.727 56.8378 452.547 57.142C453.367 57.4462 454.22 57.5983 455.106 57.5983C455.913 57.5983 456.568 57.5057 457.071 57.3205C457.573 57.1354 457.943 56.8841 458.182 56.5666C458.42 56.2359 458.539 55.8656 458.539 55.4556C458.539 54.9794 458.38 54.5958 458.063 54.3049C457.758 54.0139 457.355 53.7824 456.852 53.6105C456.363 53.4253 455.821 53.2666 455.225 53.1343C454.63 53.002 454.028 52.8499 453.42 52.678C452.825 52.4928 452.276 52.2613 451.773 51.9836C451.284 51.7058 450.887 51.3355 450.583 50.8725C450.279 50.3964 450.127 49.7879 450.127 49.0473C450.127 48.333 450.312 47.6783 450.682 47.0831C451.066 46.4747 451.648 45.9919 452.428 45.6348C453.222 45.2644 454.227 45.0793 455.444 45.0793C456.25 45.0793 457.051 45.1851 457.844 45.3967C458.638 45.6083 459.326 45.9125 459.908 46.3093L459.253 47.8965C458.658 47.4997 458.029 47.2154 457.368 47.0434C456.707 46.8582 456.065 46.7657 455.444 46.7657C454.663 46.7657 454.022 46.8649 453.519 47.0633C453.017 47.2617 452.646 47.5262 452.408 47.8569C452.183 48.1875 452.071 48.5579 452.071 48.9679C452.071 49.4573 452.223 49.8475 452.527 50.1385C452.845 50.4294 453.248 50.6609 453.737 50.8329C454.24 51.0048 454.789 51.1635 455.384 51.309C455.979 51.4413 456.575 51.5934 457.17 51.7653C457.778 51.9373 458.327 52.1621 458.816 52.4399C459.319 52.7177 459.722 53.088 460.027 53.5509C460.331 54.0139 460.483 54.6091 460.483 55.3365C460.483 56.0375 460.291 56.6923 459.908 57.3007C459.524 57.8959 458.929 58.3787 458.122 58.749C457.328 59.1061 456.323 59.2847 455.106 59.2847Z" fill="#666666"/>
<line x1="238.224" y1="76.6559" x2="238.011" y2="0.00340101" stroke="#1DD45A" stroke-width="2.56"/>
<path d="M210.267 64.5006C206.324 64.5006 203.278 63.4926 201.127 61.4766C198.977 59.4158 197.902 56.3918 197.902 52.4046V20.2158H206.302V52.203C206.302 53.9054 206.727 55.227 207.579 56.1678C208.475 57.1086 209.707 57.579 211.275 57.579C213.156 57.579 214.724 57.0862 215.979 56.1006L218.331 62.0814C217.345 62.8878 216.135 63.4926 214.702 63.8958C213.268 64.299 211.79 64.5006 210.267 64.5006ZM191.988 34.8654V28.1454H215.911V34.8654H191.988Z" fill="black"/>
<path fill-rule="evenodd" clip-rule="evenodd" d="M179.353 28.1459V64.0307H187.753V28.1459H179.353Z" fill="black"/>
<path d="M183.587 22.2323C182.019 22.2323 180.72 21.7395 179.689 20.7539C178.704 19.7683 178.211 18.5811 178.211 17.1923C178.211 15.7587 178.704 14.5715 179.689 13.6307C180.72 12.6451 182.019 12.1523 183.587 12.1523C185.155 12.1523 186.432 12.6227 187.417 13.5635C188.448 14.4595 188.963 15.6019 188.963 16.9907C188.963 18.4691 188.47 19.7235 187.485 20.7539C186.499 21.7395 185.2 22.2323 183.587 22.2323Z" fill="#1DD45A"/>
<path d="M142.645 64.0303V58.7215L164.753 31.9759L166.299 34.8655H143.048V28.1455H173.019V33.4543L150.91 60.1999L149.23 57.3103H173.624V64.0303H142.645Z" fill="black"/>
<path fill-rule="evenodd" clip-rule="evenodd" d="M128.193 28.1459V64.0307H136.593V28.1459H128.193Z" fill="black"/>
<path d="M132.427 22.2323C130.859 22.2323 129.56 21.7395 128.529 20.7539C127.544 19.7683 127.051 18.5811 127.051 17.1923C127.051 15.7587 127.544 14.5715 128.529 13.6307C129.56 12.6451 130.859 12.1523 132.427 12.1523C133.995 12.1523 135.272 12.6227 136.257 13.5635C137.288 14.4595 137.803 15.6019 137.803 16.9907C137.803 18.4691 137.31 19.7235 136.324 20.7539C135.339 21.7395 134.04 22.2323 132.427 22.2323Z" fill="#1DD45A"/>
<path d="M102.32 64.0302V28.1454H110.317V38.0238L109.376 35.1342C110.452 32.715 112.132 30.8782 114.416 29.6238C116.746 28.3694 119.636 27.7422 123.085 27.7422V35.739C122.727 35.6494 122.391 35.6046 122.077 35.6046C121.764 35.5598 121.45 35.5374 121.136 35.5374C117.956 35.5374 115.424 36.4782 113.543 38.3598C111.661 40.1966 110.72 42.9518 110.72 46.6254V64.0302H102.32Z" fill="black"/>
<path d="M78.1568 64.5008C75.1104 64.5008 72.4 63.8288 70.0256 62.4848C67.6512 61.1408 65.7696 59.1248 64.3808 56.4368C63.0368 53.704 62.3648 50.2544 62.3648 46.088C62.3648 41.8768 63.0592 38.4272 64.448 35.7392C65.8816 33.0512 67.7856 31.0576 70.16 29.7584C72.5792 28.4144 75.2448 27.7424 78.1568 27.7424C81.696 27.7424 84.8096 28.504 87.4976 30.0272C90.2304 31.5504 92.3808 33.6784 93.9488 36.4112C95.5616 39.144 96.368 42.3696 96.368 46.088C96.368 49.8064 95.5616 53.032 93.9488 55.7648C92.3808 58.4976 90.2304 60.648 87.4976 62.216C84.8096 63.7392 81.696 64.5008 78.1568 64.5008ZM58.2656 64.0304V14.168H66.6656V36.4784L65.9936 46.0208L66.2624 55.5632V64.0304H58.2656ZM77.216 57.3104C79.232 57.3104 81.024 56.8624 82.592 55.9664C84.2048 55.0704 85.4816 53.7712 86.4224 52.0688C87.3632 50.3664 87.8336 48.3728 87.8336 46.088C87.8336 43.7584 87.3632 41.7648 86.4224 40.1072C85.4816 38.4048 84.2048 37.1056 82.592 36.2096C81.024 35.3136 79.232 34.8656 77.216 34.8656C75.2 34.8656 73.3856 35.3136 71.7728 36.2096C70.16 37.1056 68.8832 38.4048 67.9424 40.1072C67.0016 41.7648 66.5312 43.7584 66.5312 46.088C66.5312 48.3728 67.0016 50.3664 67.9424 52.0688C68.8832 53.7712 70.16 55.0704 71.7728 55.9664C73.3856 56.8624 75.2 57.3104 77.216 57.3104Z" fill="black"/>
<path d="M27.0835 0.225583C32.728 -0.974183 37.3037 2.73119 37.3037 8.50175V60.2219C37.3037 65.9925 32.7279 71.643 27.0835 72.8428L10.2202 76.4272C4.57576 77.627 6.78371e-06 73.9216 0 68.151V16.4309C0 10.6603 4.57576 5.00976 10.2202 3.80999L27.0835 0.225583ZM28.1055 15.681C28.1055 12.2187 25.36 9.99557 21.9734 10.7154L15.3303 12.1275C11.9436 12.8473 9.19819 16.2376 9.19819 19.7V60.9716C9.1982 64.434 11.9436 66.6572 15.3303 65.9373L21.9734 64.5253C25.3601 63.8054 28.1055 60.415 28.1055 56.9527V15.681Z" fill="#1DD45A"/>
</svg>
