<svg width="254" height="96" viewBox="0 0 254 96" fill="none" xmlns="http://www.w3.org/2000/svg">
<path d="M228.79 66.7375C227.801 66.7375 226.858 66.6027 225.959 66.3331C225.076 66.0635 224.379 65.7341 223.87 65.3447L224.769 63.6374C225.278 63.9818 225.907 64.2739 226.656 64.5135C227.405 64.7531 228.168 64.8729 228.947 64.8729C229.951 64.8729 230.669 64.7306 231.104 64.4461C231.553 64.1615 231.778 63.7647 231.778 63.2555C231.778 62.8811 231.643 62.589 231.373 62.3794C231.104 62.1697 230.744 62.0124 230.295 61.9076C229.861 61.8028 229.374 61.7129 228.835 61.638C228.296 61.5482 227.756 61.4433 227.217 61.3235C226.678 61.1887 226.184 61.009 225.735 60.7844C225.285 60.5448 224.926 60.2228 224.656 59.8184C224.387 59.3991 224.252 58.8449 224.252 58.156C224.252 57.4372 224.454 56.8082 224.859 56.269C225.263 55.7299 225.832 55.318 226.566 55.0335C227.315 54.7339 228.198 54.5842 229.217 54.5842C229.995 54.5842 230.782 54.6815 231.575 54.8762C232.384 55.0559 233.043 55.318 233.552 55.6625L232.631 57.3698C232.092 57.0103 231.531 56.7632 230.946 56.6284C230.362 56.4937 229.778 56.4263 229.194 56.4263C228.251 56.4263 227.547 56.5835 227.083 56.898C226.618 57.1975 226.386 57.5869 226.386 58.0662C226.386 58.4705 226.521 58.785 226.791 59.0097C227.075 59.2193 227.434 59.3841 227.869 59.5039C228.318 59.6237 228.812 59.7285 229.351 59.8184C229.891 59.8933 230.43 59.9981 230.969 60.1329C231.508 60.2527 231.995 60.4249 232.429 60.6496C232.878 60.8742 233.238 61.1887 233.507 61.5931C233.792 61.9975 233.934 62.5366 233.934 63.2105C233.934 63.9294 233.725 64.5509 233.305 65.0751C232.886 65.5993 232.294 66.0111 231.531 66.3106C230.767 66.5952 229.853 66.7375 228.79 66.7375Z" fill="black"/>
<path d="M217.115 54.5842C218.089 54.5842 218.942 54.7714 219.676 55.1458C220.425 55.5202 221.009 56.0893 221.428 56.8531C221.848 57.6169 222.057 58.5828 222.057 59.751V66.6027H219.901V59.9981C219.901 58.8449 219.616 57.9763 219.047 57.3922C218.493 56.8082 217.707 56.5161 216.688 56.5161C215.925 56.5161 215.258 56.6659 214.689 56.9654C214.12 57.2649 213.678 57.7067 213.364 58.2908C213.064 58.8749 212.914 59.6012 212.914 60.4699V66.6027H210.758V54.6965H212.825V57.9089L212.488 57.0553C212.877 56.2765 213.476 55.67 214.285 55.2356C215.093 54.8013 216.037 54.5842 217.115 54.5842Z" fill="black"/>
<path d="M202.978 66.7375C201.705 66.7375 200.581 66.4754 199.608 65.9512C198.649 65.427 197.901 64.7082 197.361 63.7946C196.837 62.8811 196.575 61.8327 196.575 60.6496C196.575 59.4665 196.83 58.4181 197.339 57.5046C197.863 56.591 198.575 55.8796 199.473 55.3704C200.387 54.8463 201.413 54.5842 202.551 54.5842C203.704 54.5842 204.722 54.8388 205.606 55.348C206.49 55.8572 207.178 56.576 207.673 57.5046C208.182 58.4181 208.436 59.4889 208.436 60.717C208.436 60.8068 208.429 60.9117 208.414 61.0315C208.414 61.1513 208.407 61.2636 208.392 61.3684H198.26V59.8184H207.268L206.392 60.3575C206.407 59.5938 206.25 58.9123 205.92 58.3133C205.591 57.7142 205.134 57.25 204.55 56.9205C203.981 56.576 203.315 56.4038 202.551 56.4038C201.802 56.4038 201.135 56.576 200.551 56.9205C199.967 57.25 199.511 57.7217 199.181 58.3357C198.852 58.9348 198.687 59.6237 198.687 60.4025V60.7619C198.687 61.5557 198.867 62.267 199.226 62.896C199.6 63.5101 200.117 63.9893 200.776 64.3338C201.435 64.6782 202.191 64.8504 203.045 64.8504C203.749 64.8504 204.385 64.7306 204.954 64.491C205.539 64.2514 206.048 63.892 206.482 63.4127L207.673 64.8055C207.134 65.4345 206.46 65.9138 205.651 66.2432C204.857 66.5727 203.966 66.7375 202.978 66.7375Z" fill="black"/>
<path d="M189.897 66.7375C188.624 66.7375 187.5 66.4754 186.527 65.9512C185.568 65.427 184.82 64.7082 184.28 63.7946C183.756 62.8811 183.494 61.8327 183.494 60.6496C183.494 59.4665 183.749 58.4181 184.258 57.5046C184.782 56.591 185.493 55.8796 186.392 55.3704C187.306 54.8463 188.332 54.5842 189.47 54.5842C190.623 54.5842 191.641 54.8388 192.525 55.348C193.408 55.8572 194.097 56.576 194.592 57.5046C195.101 58.4181 195.355 59.4889 195.355 60.717C195.355 60.8068 195.348 60.9117 195.333 61.0315C195.333 61.1513 195.325 61.2636 195.31 61.3684H185.179V59.8184H194.187L193.311 60.3575C193.326 59.5938 193.169 58.9123 192.839 58.3133C192.51 57.7142 192.053 57.25 191.469 56.9205C190.9 56.576 190.233 56.4038 189.47 56.4038C188.721 56.4038 188.054 56.576 187.47 56.9205C186.886 57.25 186.43 57.7217 186.1 58.3357C185.771 58.9348 185.606 59.6237 185.606 60.4025V60.7619C185.606 61.5557 185.786 62.267 186.145 62.896C186.519 63.5101 187.036 63.9893 187.695 64.3338C188.354 64.6782 189.11 64.8504 189.964 64.8504C190.668 64.8504 191.304 64.7306 191.873 64.491C192.457 64.2514 192.967 63.892 193.401 63.4127L194.592 64.8055C194.052 65.4345 193.379 65.9138 192.57 66.2432C191.776 66.5727 190.885 66.7375 189.897 66.7375Z" fill="black"/>
<path d="M176.319 66.6027V54.6965H178.386V57.9314L178.184 57.1227C178.513 56.299 179.067 55.67 179.846 55.2356C180.625 54.8013 181.584 54.5842 182.722 54.5842V56.6734C182.632 56.6584 182.542 56.6509 182.452 56.6509C182.377 56.6509 182.302 56.6509 182.228 56.6509C181.074 56.6509 180.161 56.9954 179.487 57.6843C178.813 58.3732 178.476 59.3691 178.476 60.6721V66.6027H176.319Z" fill="black"/>
<path d="M169.349 66.7375C168.136 66.7375 167.05 66.4754 166.091 65.9512C165.148 65.427 164.406 64.7082 163.867 63.7946C163.328 62.8811 163.059 61.8327 163.059 60.6496C163.059 59.4665 163.328 58.4181 163.867 57.5046C164.406 56.591 165.148 55.8796 166.091 55.3704C167.05 54.8463 168.136 54.5842 169.349 54.5842C170.427 54.5842 171.385 54.8013 172.224 55.2356C173.078 55.655 173.737 56.284 174.201 57.1227L172.561 58.1785C172.172 57.5944 171.692 57.1676 171.123 56.898C170.569 56.6135 169.97 56.4712 169.326 56.4712C168.547 56.4712 167.851 56.6434 167.237 56.9879C166.623 57.3323 166.136 57.8191 165.777 58.4481C165.417 59.0621 165.238 59.7959 165.238 60.6496C165.238 61.5032 165.417 62.2446 165.777 62.8736C166.136 63.5026 166.623 63.9893 167.237 64.3338C167.851 64.6782 168.547 64.8504 169.326 64.8504C169.97 64.8504 170.569 64.7157 171.123 64.4461C171.692 64.1615 172.172 63.7272 172.561 63.1431L174.201 64.1765C173.737 65.0002 173.078 65.6367 172.224 66.086C171.385 66.5203 170.427 66.7375 169.349 66.7375Z" fill="black"/>
<path d="M156.993 66.7375C156.005 66.7375 155.061 66.6027 154.162 66.3331C153.279 66.0635 152.582 65.7341 152.073 65.3447L152.972 63.6374C153.481 63.9818 154.11 64.2739 154.859 64.5135C155.608 64.7531 156.371 64.8729 157.15 64.8729C158.154 64.8729 158.873 64.7306 159.307 64.4461C159.756 64.1615 159.981 63.7647 159.981 63.2555C159.981 62.8811 159.846 62.589 159.576 62.3794C159.307 62.1697 158.947 62.0124 158.498 61.9076C158.064 61.8028 157.577 61.7129 157.038 61.638C156.499 61.5482 155.96 61.4433 155.42 61.3235C154.881 61.1887 154.387 61.009 153.938 60.7844C153.489 60.5448 153.129 60.2228 152.86 59.8184C152.59 59.3991 152.455 58.8449 152.455 58.156C152.455 57.4372 152.657 56.8082 153.062 56.269C153.466 55.7299 154.035 55.318 154.769 55.0335C155.518 54.7339 156.401 54.5842 157.42 54.5842C158.199 54.5842 158.985 54.6815 159.779 54.8762C160.587 55.0559 161.246 55.318 161.755 55.6625L160.834 57.3698C160.295 57.0103 159.734 56.7632 159.15 56.6284C158.565 56.4937 157.981 56.4263 157.397 56.4263C156.454 56.4263 155.75 56.5835 155.286 56.898C154.821 57.1975 154.589 57.5869 154.589 58.0662C154.589 58.4705 154.724 58.785 154.994 59.0097C155.278 59.2193 155.638 59.3841 156.072 59.5039C156.521 59.6237 157.015 59.7285 157.555 59.8184C158.094 59.8933 158.633 59.9981 159.172 60.1329C159.711 60.2527 160.198 60.4249 160.632 60.6496C161.082 60.8742 161.441 61.1887 161.711 61.5931C161.995 61.9975 162.137 62.5366 162.137 63.2105C162.137 63.9294 161.928 64.5509 161.508 65.0751C161.089 65.5993 160.497 66.0111 159.734 66.3106C158.97 66.5952 158.056 66.7375 156.993 66.7375Z" fill="black"/>
<path d="M223.239 47.3358V37.2268H225.643V47.3358H223.239ZM219.263 43.4045V41.1581H229.619V43.4045H219.263Z" fill="#FFD700"/>
<path d="M207.323 50.2798C206.335 50.2798 205.391 50.145 204.493 49.8754C203.609 49.6058 202.913 49.2764 202.403 48.887L203.302 47.1797C203.811 47.5241 204.44 47.8162 205.189 48.0558C205.938 48.2954 206.702 48.4152 207.48 48.4152C208.484 48.4152 209.203 48.2729 209.637 47.9884C210.086 47.7038 210.311 47.307 210.311 46.7978C210.311 46.4234 210.176 46.1313 209.906 45.9217C209.637 45.712 209.277 45.5547 208.828 45.4499C208.394 45.3451 207.907 45.2552 207.368 45.1803C206.829 45.0905 206.29 44.9856 205.751 44.8658C205.211 44.731 204.717 44.5513 204.268 44.3267C203.819 44.087 203.459 43.7651 203.19 43.3607C202.92 42.9414 202.785 42.3872 202.785 41.6983C202.785 40.9795 202.987 40.3505 203.392 39.8113C203.796 39.2722 204.365 38.8603 205.099 38.5758C205.848 38.2762 206.731 38.1265 207.75 38.1265C208.529 38.1265 209.315 38.2238 210.109 38.4185C210.917 38.5982 211.576 38.8603 212.086 39.2048L211.164 40.9121C210.625 40.5526 210.064 40.3055 209.48 40.1707C208.896 40.0359 208.311 39.9686 207.727 39.9686C206.784 39.9686 206.08 40.1258 205.616 40.4403C205.151 40.7398 204.919 41.1292 204.919 41.6085C204.919 42.0128 205.054 42.3273 205.324 42.552C205.608 42.7616 205.968 42.9264 206.402 43.0462C206.851 43.166 207.346 43.2708 207.885 43.3607C208.424 43.4356 208.963 43.5404 209.502 43.6752C210.041 43.795 210.528 43.9672 210.962 44.1919C211.412 44.4165 211.771 44.731 212.041 45.1354C212.325 45.5398 212.467 46.0789 212.467 46.7528C212.467 47.4717 212.258 48.0932 211.838 48.6174C211.419 49.1416 210.828 49.5534 210.064 49.8529C209.3 50.1375 208.386 50.2798 207.323 50.2798Z" fill="black"/>
<path d="M195.389 50.145V38.2388H197.455V41.4737L197.253 40.665C197.583 39.8413 198.137 39.2122 198.916 38.7779C199.694 38.3436 200.653 38.1265 201.791 38.1265V40.2157C201.701 40.2007 201.611 40.1932 201.521 40.1932C201.447 40.1932 201.372 40.1932 201.297 40.1932C200.144 40.1932 199.23 40.5377 198.556 41.2266C197.882 41.9155 197.545 42.9114 197.545 44.2143V50.145H195.389Z" fill="black"/>
<path d="M186.903 50.2798C185.705 50.2798 184.642 50.0177 183.713 49.4935C182.785 48.9693 182.051 48.2505 181.512 47.3369C180.973 46.4084 180.703 45.36 180.703 44.1919C180.703 43.0088 180.973 41.9604 181.512 41.0469C182.051 40.1333 182.785 39.4219 183.713 38.9127C184.642 38.3886 185.705 38.1265 186.903 38.1265C188.086 38.1265 189.142 38.3886 190.071 38.9127C191.014 39.4219 191.748 40.1333 192.272 41.0469C192.811 41.9454 193.081 42.9938 193.081 44.1919C193.081 45.375 192.811 46.4234 192.272 47.3369C191.748 48.2505 191.014 48.9693 190.071 49.4935C189.142 50.0177 188.086 50.2798 186.903 50.2798ZM186.903 48.3927C187.667 48.3927 188.349 48.2205 188.948 47.8761C189.562 47.5316 190.041 47.0449 190.385 46.4159C190.73 45.7719 190.902 45.0306 190.902 44.1919C190.902 43.3382 190.73 42.6044 190.385 41.9904C190.041 41.3614 189.562 40.8746 188.948 40.5302C188.349 40.1857 187.667 40.0135 186.903 40.0135C186.14 40.0135 185.458 40.1857 184.859 40.5302C184.26 40.8746 183.781 41.3614 183.421 41.9904C183.062 42.6044 182.882 43.3382 182.882 44.1919C182.882 45.0306 183.062 45.7719 183.421 46.4159C183.781 47.0449 184.26 47.5316 184.859 47.8761C185.458 48.2205 186.14 48.3927 186.903 48.3927Z" fill="black"/>
<path d="M173.317 50.2798C172.119 50.2798 171.056 50.0177 170.127 49.4935C169.199 48.9693 168.465 48.2505 167.926 47.3369C167.387 46.4084 167.117 45.36 167.117 44.1919C167.117 43.0088 167.387 41.9604 167.926 41.0469C168.465 40.1333 169.199 39.4219 170.127 38.9127C171.056 38.3886 172.119 38.1265 173.317 38.1265C174.501 38.1265 175.556 38.3886 176.485 38.9127C177.428 39.4219 178.162 40.1333 178.686 41.0469C179.226 41.9454 179.495 42.9938 179.495 44.1919C179.495 45.375 179.226 46.4234 178.686 47.3369C178.162 48.2505 177.428 48.9693 176.485 49.4935C175.556 50.0177 174.501 50.2798 173.317 50.2798ZM173.317 48.3927C174.081 48.3927 174.763 48.2205 175.362 47.8761C175.976 47.5316 176.455 47.0449 176.799 46.4159C177.144 45.7719 177.316 45.0306 177.316 44.1919C177.316 43.3382 177.144 42.6044 176.799 41.9904C176.455 41.3614 175.976 40.8746 175.362 40.5302C174.763 40.1857 174.081 40.0135 173.317 40.0135C172.554 40.0135 171.872 40.1857 171.273 40.5302C170.674 40.8746 170.195 41.3614 169.835 41.9904C169.476 42.6044 169.296 43.3382 169.296 44.1919C169.296 45.0306 169.476 45.7719 169.835 46.4159C170.195 47.0449 170.674 47.5316 171.273 47.8761C171.872 48.2205 172.554 48.3927 173.317 48.3927Z" fill="black"/>
<path d="M158.499 50.2787C157.346 50.2787 156.312 50.0241 155.399 49.5149C154.5 49.0057 153.789 48.2944 153.265 47.3808C152.741 46.4673 152.479 45.4039 152.479 44.1909C152.479 42.9778 152.741 41.9219 153.265 41.0234C153.789 40.1098 154.5 39.3984 155.399 38.8892C156.312 38.38 157.346 38.1254 158.499 38.1254C159.502 38.1254 160.408 38.3501 161.217 38.7994C162.026 39.2487 162.67 39.9226 163.149 40.8212C163.643 41.7198 163.89 42.843 163.89 44.1909C163.89 45.5387 163.651 46.662 163.172 47.5605C162.707 48.4591 162.071 49.1405 161.262 49.6048C160.453 50.0541 159.532 50.2787 158.499 50.2787ZM158.679 48.3917C159.428 48.3917 160.101 48.2195 160.701 47.875C161.315 47.5306 161.794 47.0438 162.138 46.4148C162.498 45.7709 162.677 45.0295 162.677 44.1909C162.677 43.3372 162.498 42.6034 162.138 41.9893C161.794 41.3603 161.315 40.8736 160.701 40.5291C160.101 40.1847 159.428 40.0125 158.679 40.0125C157.915 40.0125 157.234 40.1847 156.634 40.5291C156.035 40.8736 155.556 41.3603 155.197 41.9893C154.837 42.6034 154.658 43.3372 154.658 44.1909C154.658 45.0295 154.837 45.7709 155.197 46.4148C155.556 47.0438 156.035 47.5306 156.634 47.875C157.234 48.2195 157.915 48.3917 158.679 48.3917ZM162.745 50.1439V46.9315L162.88 44.1684L162.655 41.4053V33.4753H164.812V50.1439H162.745Z" fill="black"/>
<path d="M124.94 66.737V62.8366L141.184 43.1863L142.32 45.3093H125.237V40.3721H147.257V44.2725L131.013 63.9228L129.779 61.7998H147.701V66.737H124.94Z" fill="black"/>
<path fill-rule="evenodd" clip-rule="evenodd" d="M114.323 40.3707V66.7357H120.494V40.3707H114.323Z" fill="black"/>
<path d="M117.433 36.0259C116.281 36.0259 115.327 35.6639 114.57 34.9397C113.845 34.2156 113.483 33.3434 113.483 32.323C113.483 31.2697 113.845 30.3975 114.57 29.7063C115.327 28.9821 116.281 28.6201 117.433 28.6201C118.585 28.6201 119.523 28.9657 120.247 29.6569C121.004 30.3152 121.383 31.1545 121.383 32.1749C121.383 33.2611 121.021 34.1827 120.297 34.9397C119.573 35.6639 118.618 36.0259 117.433 36.0259Z" fill="#FFD700"/>
<path d="M95.3105 66.7369V40.3719H101.186V47.6297L100.495 45.5067C101.285 43.7293 102.519 42.3797 104.198 41.4581C105.909 40.5365 108.032 40.0757 110.567 40.0757V45.951C110.303 45.8852 110.056 45.8523 109.826 45.8523C109.596 45.8194 109.365 45.8029 109.135 45.8029C106.798 45.8029 104.938 46.4941 103.556 47.8765C102.173 49.2261 101.482 51.2503 101.482 53.9494V66.7369H95.3105Z" fill="black"/>
<path d="M77.5606 67.082C75.3223 67.082 73.331 66.5883 71.5865 65.6008C69.842 64.6133 68.4596 63.1322 67.4392 61.1573C66.4517 59.1495 65.958 56.615 65.958 53.5539C65.958 50.4599 66.4682 47.9254 67.4886 45.9505C68.5418 43.9756 69.9407 42.5109 71.6852 41.5564C73.4626 40.5689 75.4211 40.0752 77.5606 40.0752C80.1609 40.0752 82.4484 40.6347 84.4234 41.7539C86.4312 42.873 88.0111 44.4364 89.1631 46.4442C90.3481 48.4521 90.9405 50.8219 90.9405 53.5539C90.9405 56.2858 90.3481 58.6557 89.1631 60.6635C88.0111 62.6714 86.4312 64.2513 84.4234 65.4033C82.4484 66.5224 80.1609 67.082 77.5606 67.082ZM62.9463 66.7364V30.1019H69.1179V46.4936L68.6241 53.5045L68.8216 60.5154V66.7364H62.9463ZM76.8694 61.7991C78.3505 61.7991 79.6671 61.47 80.8192 60.8117C82.0041 60.1534 82.9422 59.1988 83.6334 57.9481C84.3246 56.6973 84.6702 55.2326 84.6702 53.5539C84.6702 51.8423 84.3246 50.3776 83.6334 49.1597C82.9422 47.909 82.0041 46.9544 80.8192 46.2961C79.6671 45.6378 78.3505 45.3087 76.8694 45.3087C75.3882 45.3087 74.0551 45.6378 72.8702 46.2961C71.6852 46.9544 70.7472 47.909 70.0559 49.1597C69.3647 50.3776 69.0191 51.8423 69.0191 53.5539C69.0191 55.2326 69.3647 56.6973 70.0559 57.9481C70.7472 59.1988 71.6852 60.1534 72.8702 60.8117C74.0551 61.47 75.3882 61.7991 76.8694 61.7991Z" fill="black"/>
<path d="M39.5656 19.4227C43.7989 18.5228 47.2307 21.3019 47.2307 25.6298V64.4199C47.2307 68.7478 43.7989 72.9857 39.5656 73.8856L26.9181 76.5739C22.6847 77.4737 19.2529 74.6947 19.2529 70.3667V31.5766C19.2529 27.2487 22.6847 23.0108 26.9181 22.111L39.5656 19.4227ZM40.3321 31.0142C40.332 28.4175 38.273 26.7502 35.733 27.29L30.7507 28.3491C28.2107 28.889 26.1516 31.4317 26.1516 34.0285V64.9822C26.1516 67.5789 28.2107 69.2464 30.7507 68.7065L35.733 67.6474C38.273 67.1076 40.3321 64.5647 40.3321 61.968V31.0142Z" fill="#1D1D1F"/>
</svg>
