<svg width="600" height="180" viewBox="0 0 600 180" fill="none" xmlns="http://www.w3.org/2000/svg">
<path d="M285.301 46.488L290.341 35.288H292.389L297.445 46.488H295.269L290.933 36.392H291.765L287.445 46.488H285.301ZM287.621 43.896L288.181 42.264H294.229L294.789 43.896H287.621ZM302.519 46.6C301.623 46.6 300.823 46.4134 300.119 46.04C299.426 45.656 298.882 45.1334 298.487 44.472C298.092 43.8107 297.895 43.0587 297.895 42.216C297.895 41.3627 298.092 40.6107 298.487 39.96C298.882 39.2987 299.426 38.7814 300.119 38.408C300.823 38.0347 301.623 37.848 302.519 37.848C303.351 37.848 304.082 38.0187 304.711 38.36C305.351 38.6907 305.836 39.1814 306.167 39.832L304.631 40.728C304.375 40.3227 304.06 40.024 303.687 39.832C303.324 39.64 302.93 39.544 302.503 39.544C302.012 39.544 301.57 39.6507 301.175 39.864C300.78 40.0774 300.471 40.3867 300.247 40.792C300.023 41.1867 299.911 41.6614 299.911 42.216C299.911 42.7707 300.023 43.2507 300.247 43.656C300.471 44.0507 300.78 44.3547 301.175 44.568C301.57 44.7814 302.012 44.888 302.503 44.888C302.93 44.888 303.324 44.792 303.687 44.6C304.06 44.408 304.375 44.1094 304.631 43.704L306.167 44.6C305.836 45.24 305.351 45.736 304.711 46.088C304.082 46.4294 303.351 46.6 302.519 46.6ZM311.691 46.6C310.795 46.6 309.995 46.4134 309.291 46.04C308.598 45.656 308.054 45.1334 307.659 44.472C307.264 43.8107 307.067 43.0587 307.067 42.216C307.067 41.3627 307.264 40.6107 307.659 39.96C308.054 39.2987 308.598 38.7814 309.291 38.408C309.995 38.0347 310.795 37.848 311.691 37.848C312.523 37.848 313.254 38.0187 313.883 38.36C314.523 38.6907 315.008 39.1814 315.339 39.832L313.803 40.728C313.547 40.3227 313.232 40.024 312.859 39.832C312.496 39.64 312.102 39.544 311.675 39.544C311.184 39.544 310.742 39.6507 310.347 39.864C309.952 40.0774 309.643 40.3867 309.419 40.792C309.195 41.1867 309.083 41.6614 309.083 42.216C309.083 42.7707 309.195 43.2507 309.419 43.656C309.643 44.0507 309.952 44.3547 310.347 44.568C310.742 44.7814 311.184 44.888 311.675 44.888C312.102 44.888 312.496 44.792 312.859 44.6C313.232 44.408 313.547 44.1094 313.803 43.704L315.339 44.6C315.008 45.24 314.523 45.736 313.883 46.088C313.254 46.4294 312.523 46.6 311.691 46.6ZM320.783 46.6C319.908 46.6 319.13 46.4134 318.447 46.04C317.764 45.656 317.226 45.1334 316.831 44.472C316.436 43.8107 316.239 43.0587 316.239 42.216C316.239 41.3627 316.436 40.6107 316.831 39.96C317.226 39.2987 317.764 38.7814 318.447 38.408C319.13 38.0347 319.908 37.848 320.783 37.848C321.668 37.848 322.452 38.0347 323.135 38.408C323.828 38.7814 324.367 39.2934 324.751 39.944C325.146 40.5947 325.343 41.352 325.343 42.216C325.343 43.0587 325.146 43.8107 324.751 44.472C324.367 45.1334 323.828 45.656 323.135 46.04C322.452 46.4134 321.668 46.6 320.783 46.6ZM320.783 44.888C321.274 44.888 321.711 44.7814 322.095 44.568C322.479 44.3547 322.778 44.0454 322.991 43.64C323.215 43.2347 323.327 42.76 323.327 42.216C323.327 41.6614 323.215 41.1867 322.991 40.792C322.778 40.3867 322.479 40.0774 322.095 39.864C321.711 39.6507 321.279 39.544 320.799 39.544C320.308 39.544 319.871 39.6507 319.487 39.864C319.114 40.0774 318.815 40.3867 318.591 40.792C318.367 41.1867 318.255 41.6614 318.255 42.216C318.255 42.76 318.367 43.2347 318.591 43.64C318.815 44.0454 319.114 44.3547 319.487 44.568C319.871 44.7814 320.303 44.888 320.783 44.888ZM330.871 46.6C330.146 46.6 329.506 46.4667 328.951 46.2C328.397 45.9227 327.965 45.5067 327.655 44.952C327.346 44.3867 327.191 43.6774 327.191 42.824V37.944H329.191V42.552C329.191 43.32 329.362 43.896 329.703 44.28C330.055 44.6534 330.551 44.84 331.191 44.84C331.661 44.84 332.066 44.744 332.407 44.552C332.759 44.36 333.031 44.072 333.223 43.688C333.426 43.304 333.527 42.8294 333.527 42.264V37.944H335.527V46.488H333.623V44.184L333.959 44.888C333.671 45.4427 333.25 45.8694 332.695 46.168C332.141 46.456 331.533 46.6 330.871 46.6ZM342.994 37.848C343.677 37.848 344.285 37.9814 344.818 38.248C345.362 38.5147 345.789 38.9254 346.098 39.48C346.407 40.024 346.562 40.728 346.562 41.592V46.488H344.562V41.848C344.562 41.0907 344.381 40.5254 344.018 40.152C343.666 39.7787 343.17 39.592 342.53 39.592C342.061 39.592 341.645 39.688 341.282 39.88C340.919 40.072 340.637 40.36 340.434 40.744C340.242 41.1174 340.146 41.592 340.146 42.168V46.488H338.146V37.944H340.05V40.248L339.714 39.544C340.013 39 340.445 38.584 341.01 38.296C341.586 37.9974 342.247 37.848 342.994 37.848ZM352.315 46.6C351.376 46.6 350.651 46.36 350.139 45.88C349.627 45.3894 349.371 44.6694 349.371 43.72V36.056H351.371V43.672C351.371 44.0774 351.472 44.392 351.675 44.616C351.888 44.84 352.182 44.952 352.555 44.952C353.003 44.952 353.376 44.8347 353.675 44.6L354.235 46.024C354 46.216 353.712 46.36 353.371 46.456C353.03 46.552 352.678 46.6 352.315 46.6ZM347.963 39.608V38.008H353.659V39.608H347.963ZM358.52 46.6C357.806 46.6 357.118 46.5094 356.456 46.328C355.806 46.136 355.288 45.9067 354.904 45.64L355.672 44.12C356.056 44.3654 356.515 44.568 357.048 44.728C357.582 44.888 358.115 44.968 358.648 44.968C359.278 44.968 359.731 44.8827 360.008 44.712C360.296 44.5414 360.44 44.312 360.44 44.024C360.44 43.7894 360.344 43.6134 360.152 43.496C359.96 43.368 359.71 43.272 359.4 43.208C359.091 43.144 358.744 43.0854 358.36 43.032C357.987 42.9787 357.608 42.9094 357.224 42.824C356.851 42.728 356.51 42.5947 356.2 42.424C355.891 42.2427 355.64 42.0027 355.448 41.704C355.256 41.4054 355.16 41.0107 355.16 40.52C355.16 39.976 355.315 39.5067 355.624 39.112C355.934 38.7067 356.366 38.3974 356.92 38.184C357.486 37.96 358.152 37.848 358.92 37.848C359.496 37.848 360.078 37.912 360.664 38.04C361.251 38.168 361.736 38.3494 362.12 38.584L361.352 40.104C360.947 39.8587 360.536 39.6934 360.12 39.608C359.715 39.512 359.31 39.464 358.904 39.464C358.296 39.464 357.843 39.5547 357.544 39.736C357.256 39.9174 357.112 40.1467 357.112 40.424C357.112 40.68 357.208 40.872 357.4 41C357.592 41.128 357.843 41.2294 358.152 41.304C358.462 41.3787 358.803 41.4427 359.176 41.496C359.56 41.5387 359.939 41.608 360.312 41.704C360.686 41.8 361.027 41.9334 361.336 42.104C361.656 42.264 361.912 42.4934 362.104 42.792C362.296 43.0907 362.392 43.48 362.392 43.96C362.392 44.4934 362.232 44.9574 361.912 45.352C361.603 45.7467 361.16 46.056 360.584 46.28C360.008 46.4934 359.32 46.6 358.52 46.6ZM291.373 83.488V81.864L291.331 81.598V78.882C291.331 78.2567 291.154 77.776 290.799 77.44C290.454 77.104 289.936 76.936 289.245 76.936C288.769 76.936 288.316 77.0154 287.887 77.174C287.458 77.3327 287.094 77.5427 286.795 77.804L286.347 77.062C286.72 76.7447 287.168 76.502 287.691 76.334C288.214 76.1567 288.764 76.068 289.343 76.068C290.295 76.068 291.028 76.306 291.541 76.782C292.064 77.2487 292.325 77.9627 292.325 78.924V83.488H291.373ZM288.839 83.558C288.288 83.558 287.808 83.4694 287.397 83.292C286.996 83.1054 286.688 82.8534 286.473 82.536C286.258 82.2094 286.151 81.836 286.151 81.416C286.151 81.0334 286.24 80.688 286.417 80.38C286.604 80.0627 286.902 79.8107 287.313 79.624C287.733 79.428 288.293 79.33 288.993 79.33H291.527V80.072H289.021C288.312 80.072 287.817 80.198 287.537 80.45C287.266 80.702 287.131 81.0147 287.131 81.388C287.131 81.808 287.294 82.144 287.621 82.396C287.948 82.648 288.405 82.774 288.993 82.774C289.553 82.774 290.034 82.648 290.435 82.396C290.846 82.1347 291.144 81.7614 291.331 81.276L291.555 81.962C291.368 82.4474 291.042 82.8347 290.575 83.124C290.118 83.4134 289.539 83.558 288.839 83.558ZM298.077 83.558C297.349 83.558 296.695 83.3994 296.117 83.082C295.547 82.7554 295.099 82.312 294.773 81.752C294.446 81.1827 294.283 80.534 294.283 79.806C294.283 79.0687 294.446 78.42 294.773 77.86C295.099 77.3 295.547 76.8614 296.117 76.544C296.695 76.2267 297.349 76.068 298.077 76.068C298.702 76.068 299.267 76.1894 299.771 76.432C300.275 76.6747 300.671 77.0387 300.961 77.524L300.219 78.028C299.967 77.6547 299.654 77.3794 299.281 77.202C298.907 77.0247 298.501 76.936 298.063 76.936C297.54 76.936 297.069 77.0574 296.649 77.3C296.229 77.5334 295.897 77.8647 295.655 78.294C295.412 78.7234 295.291 79.2274 295.291 79.806C295.291 80.3847 295.412 80.8887 295.655 81.318C295.897 81.7474 296.229 82.0834 296.649 82.326C297.069 82.5594 297.54 82.676 298.063 82.676C298.501 82.676 298.907 82.5874 299.281 82.41C299.654 82.2327 299.967 81.962 300.219 81.598L300.961 82.102C300.671 82.578 300.275 82.942 299.771 83.194C299.267 83.4367 298.702 83.558 298.077 83.558ZM305.842 83.558C305.114 83.558 304.461 83.3994 303.882 83.082C303.313 82.7554 302.865 82.312 302.538 81.752C302.212 81.1827 302.048 80.534 302.048 79.806C302.048 79.0687 302.212 78.42 302.538 77.86C302.865 77.3 303.313 76.8614 303.882 76.544C304.461 76.2267 305.114 76.068 305.842 76.068C306.468 76.068 307.032 76.1894 307.536 76.432C308.04 76.6747 308.437 77.0387 308.726 77.524L307.984 78.028C307.732 77.6547 307.42 77.3794 307.046 77.202C306.673 77.0247 306.267 76.936 305.828 76.936C305.306 76.936 304.834 77.0574 304.414 77.3C303.994 77.5334 303.663 77.8647 303.42 78.294C303.178 78.7234 303.056 79.2274 303.056 79.806C303.056 80.3847 303.178 80.8887 303.42 81.318C303.663 81.7474 303.994 82.0834 304.414 82.326C304.834 82.5594 305.306 82.676 305.828 82.676C306.267 82.676 306.673 82.5874 307.046 82.41C307.42 82.2327 307.732 81.962 307.984 81.598L308.726 82.102C308.437 82.578 308.04 82.942 307.536 83.194C307.032 83.4367 306.468 83.558 305.842 83.558ZM313.552 83.558C312.843 83.558 312.203 83.3994 311.634 83.082C311.074 82.7554 310.631 82.312 310.304 81.752C309.977 81.1827 309.814 80.534 309.814 79.806C309.814 79.0687 309.977 78.42 310.304 77.86C310.631 77.3 311.074 76.8614 311.634 76.544C312.194 76.2267 312.833 76.068 313.552 76.068C314.28 76.068 314.924 76.2267 315.484 76.544C316.053 76.8614 316.497 77.3 316.814 77.86C317.141 78.42 317.304 79.0687 317.304 79.806C317.304 80.534 317.141 81.1827 316.814 81.752C316.497 82.312 316.053 82.7554 315.484 83.082C314.915 83.3994 314.271 83.558 313.552 83.558ZM313.552 82.676C314.084 82.676 314.555 82.5594 314.966 82.326C315.377 82.0834 315.699 81.7474 315.932 81.318C316.175 80.8794 316.296 80.3754 316.296 79.806C316.296 79.2274 316.175 78.7234 315.932 78.294C315.699 77.8647 315.377 77.5334 314.966 77.3C314.555 77.0574 314.089 76.936 313.566 76.936C313.043 76.936 312.577 77.0574 312.166 77.3C311.755 77.5334 311.429 77.8647 311.186 78.294C310.943 78.7234 310.822 79.2274 310.822 79.806C310.822 80.3754 310.943 80.8794 311.186 81.318C311.429 81.7474 311.755 82.0834 312.166 82.326C312.577 82.5594 313.039 82.676 313.552 82.676ZM322.371 83.558C321.746 83.558 321.2 83.4414 320.733 83.208C320.267 82.9747 319.903 82.6247 319.641 82.158C319.389 81.6914 319.263 81.108 319.263 80.408V76.138H320.257V80.296C320.257 81.08 320.449 81.6727 320.831 82.074C321.223 82.466 321.769 82.662 322.469 82.662C322.983 82.662 323.426 82.5594 323.799 82.354C324.182 82.1394 324.471 81.8314 324.667 81.43C324.873 81.0287 324.975 80.548 324.975 79.988V76.138H325.969V83.488H325.017V81.472L325.171 81.836C324.938 82.3774 324.574 82.802 324.079 83.11C323.594 83.4087 323.025 83.558 322.371 83.558ZM332.492 76.068C333.089 76.068 333.612 76.1847 334.06 76.418C334.517 76.642 334.872 76.9874 335.124 77.454C335.385 77.9207 335.516 78.5087 335.516 79.218V83.488H334.522V79.316C334.522 78.5414 334.326 77.958 333.934 77.566C333.551 77.1647 333.01 76.964 332.31 76.964C331.787 76.964 331.33 77.0714 330.938 77.286C330.555 77.4914 330.256 77.7947 330.042 78.196C329.836 78.588 329.734 79.064 329.734 79.624V83.488H328.74V76.138H329.692V78.154L329.538 77.776C329.771 77.244 330.144 76.8287 330.658 76.53C331.171 76.222 331.782 76.068 332.492 76.068ZM340.524 83.558C339.834 83.558 339.302 83.3714 338.928 82.998C338.555 82.6247 338.368 82.0974 338.368 81.416V74.514H339.362V81.36C339.362 81.7894 339.47 82.1207 339.684 82.354C339.908 82.5874 340.226 82.704 340.636 82.704C341.075 82.704 341.439 82.578 341.728 82.326L342.078 83.04C341.882 83.2174 341.644 83.348 341.364 83.432C341.094 83.516 340.814 83.558 340.524 83.558ZM337.052 76.964V76.138H341.602V76.964H337.052ZM345.862 83.558C345.255 83.558 344.681 83.474 344.14 83.306C343.599 83.1287 343.174 82.9094 342.866 82.648L343.314 81.864C343.613 82.088 343.995 82.284 344.462 82.452C344.929 82.6107 345.419 82.69 345.932 82.69C346.632 82.69 347.136 82.5827 347.444 82.368C347.752 82.144 347.906 81.85 347.906 81.486C347.906 81.2154 347.817 81.0054 347.64 80.856C347.472 80.6974 347.248 80.5807 346.968 80.506C346.688 80.422 346.375 80.352 346.03 80.296C345.685 80.24 345.339 80.1747 344.994 80.1C344.658 80.0254 344.35 79.918 344.07 79.778C343.79 79.6287 343.561 79.428 343.384 79.176C343.216 78.924 343.132 78.588 343.132 78.168C343.132 77.7667 343.244 77.4074 343.468 77.09C343.692 76.7727 344.019 76.5254 344.448 76.348C344.887 76.1614 345.419 76.068 346.044 76.068C346.52 76.068 346.996 76.1334 347.472 76.264C347.948 76.3854 348.34 76.5487 348.648 76.754L348.214 77.552C347.887 77.328 347.537 77.1694 347.164 77.076C346.791 76.9734 346.417 76.922 346.044 76.922C345.381 76.922 344.891 77.0387 344.574 77.272C344.266 77.496 344.112 77.7854 344.112 78.14C344.112 78.42 344.196 78.6394 344.364 78.798C344.541 78.9567 344.77 79.0827 345.05 79.176C345.339 79.26 345.652 79.33 345.988 79.386C346.333 79.442 346.674 79.512 347.01 79.596C347.355 79.6707 347.668 79.778 347.948 79.918C348.237 80.0487 348.466 80.24 348.634 80.492C348.811 80.7347 348.9 81.0567 348.9 81.458C348.9 81.8874 348.779 82.2607 348.536 82.578C348.303 82.886 347.957 83.1287 347.5 83.306C347.052 83.474 346.506 83.558 345.862 83.558ZM356.548 86.288C355.587 86.288 354.709 86.1294 353.916 85.812C353.123 85.504 352.437 85.0654 351.858 84.496C351.289 83.936 350.845 83.2687 350.528 82.494C350.22 81.71 350.066 80.856 350.066 79.932C350.066 78.9987 350.22 78.1494 350.528 77.384C350.845 76.6094 351.293 75.942 351.872 75.382C352.46 74.8127 353.155 74.374 353.958 74.066C354.761 73.758 355.643 73.604 356.604 73.604C357.556 73.604 358.424 73.7534 359.208 74.052C360.001 74.3507 360.687 74.7754 361.266 75.326C361.845 75.8674 362.288 76.516 362.596 77.272C362.913 78.028 363.072 78.8634 363.072 79.778C363.072 80.562 362.979 81.2387 362.792 81.808C362.615 82.368 362.353 82.802 362.008 83.11C361.663 83.4087 361.247 83.558 360.762 83.558C360.286 83.558 359.903 83.4134 359.614 83.124C359.325 82.8347 359.18 82.4287 359.18 81.906V80.8L359.292 79.904L359.152 78.504V76.39H360.062V81.696C360.062 82.088 360.146 82.3634 360.314 82.522C360.482 82.6807 360.687 82.76 360.93 82.76C361.219 82.76 361.471 82.6434 361.686 82.41C361.901 82.1767 362.064 81.8407 362.176 81.402C362.297 80.954 362.358 80.4174 362.358 79.792C362.358 78.9707 362.218 78.224 361.938 77.552C361.658 76.88 361.261 76.3014 360.748 75.816C360.235 75.3307 359.628 74.962 358.928 74.71C358.228 74.4487 357.453 74.318 356.604 74.318C355.755 74.318 354.975 74.4534 354.266 74.724C353.557 74.9947 352.945 75.382 352.432 75.886C351.928 76.3807 351.536 76.9734 351.256 77.664C350.976 78.3454 350.836 79.1014 350.836 79.932C350.836 80.7627 350.971 81.5234 351.242 82.214C351.522 82.9047 351.914 83.4974 352.418 83.992C352.922 84.496 353.524 84.8834 354.224 85.154C354.924 85.434 355.699 85.574 356.548 85.574C356.968 85.574 357.416 85.5227 357.892 85.42C358.377 85.3174 358.825 85.1634 359.236 84.958L359.474 85.644C359.054 85.8587 358.578 86.0174 358.046 86.12C357.514 86.232 357.015 86.288 356.548 86.288ZM356.38 83.558C355.717 83.558 355.125 83.404 354.602 83.096C354.079 82.7787 353.664 82.3494 353.356 81.808C353.057 81.2574 352.908 80.632 352.908 79.932C352.908 79.232 353.057 78.6114 353.356 78.07C353.664 77.5287 354.079 77.104 354.602 76.796C355.125 76.488 355.717 76.334 356.38 76.334C357.024 76.334 357.593 76.4787 358.088 76.768C358.592 77.0574 358.984 77.4727 359.264 78.014C359.553 78.546 359.698 79.1854 359.698 79.932C359.698 80.6787 359.553 81.3227 359.264 81.864C358.984 82.4054 358.597 82.8254 358.102 83.124C357.607 83.4134 357.033 83.558 356.38 83.558ZM356.506 82.746C357.01 82.746 357.463 82.6294 357.864 82.396C358.275 82.1627 358.592 81.836 358.816 81.416C359.049 80.9867 359.166 80.492 359.166 79.932C359.166 79.3627 359.049 78.8727 358.816 78.462C358.592 78.042 358.275 77.72 357.864 77.496C357.463 77.2627 357.01 77.146 356.506 77.146C355.983 77.146 355.521 77.2627 355.12 77.496C354.719 77.72 354.401 78.042 354.168 78.462C353.944 78.882 353.832 79.372 353.832 79.932C353.832 80.492 353.944 80.982 354.168 81.402C354.401 81.822 354.719 82.1534 355.12 82.396C355.521 82.6294 355.983 82.746 356.506 82.746ZM368.983 83.558C368.339 83.558 367.76 83.4134 367.247 83.124C366.733 82.8254 366.327 82.396 366.029 81.836C365.73 81.276 365.581 80.5994 365.581 79.806C365.581 79.0034 365.73 78.3267 366.029 77.776C366.337 77.216 366.747 76.7914 367.261 76.502C367.774 76.2127 368.348 76.068 368.983 76.068C369.683 76.068 370.308 76.2267 370.859 76.544C371.419 76.852 371.857 77.286 372.175 77.846C372.492 78.406 372.651 79.0594 372.651 79.806C372.651 80.5434 372.492 81.1967 372.175 81.766C371.857 82.326 371.419 82.7647 370.859 83.082C370.308 83.3994 369.683 83.558 368.983 83.558ZM365.189 83.488V73.1H366.183V78.308L366.043 79.792L366.141 81.276V83.488H365.189ZM368.913 82.676C369.435 82.676 369.902 82.5594 370.313 82.326C370.723 82.0834 371.05 81.7474 371.293 81.318C371.535 80.8794 371.657 80.3754 371.657 79.806C371.657 79.2274 371.535 78.7234 371.293 78.294C371.05 77.8647 370.723 77.5334 370.313 77.3C369.902 77.0574 369.435 76.936 368.913 76.936C368.39 76.936 367.919 77.0574 367.499 77.3C367.088 77.5334 366.761 77.8647 366.519 78.294C366.285 78.7234 366.169 79.2274 366.169 79.806C366.169 80.3754 366.285 80.8794 366.519 81.318C366.761 81.7474 367.088 82.0834 367.499 82.326C367.919 82.5594 368.39 82.676 368.913 82.676ZM374.677 83.488V76.138H375.629V78.14L375.531 77.79C375.736 77.23 376.082 76.8054 376.567 76.516C377.052 76.2174 377.654 76.068 378.373 76.068V77.034C378.336 77.034 378.298 77.034 378.261 77.034C378.224 77.0247 378.186 77.02 378.149 77.02C377.374 77.02 376.768 77.258 376.329 77.734C375.89 78.2007 375.671 78.868 375.671 79.736V83.488H374.677ZM380.187 83.488V76.138H381.181V83.488H380.187ZM380.691 74.514C380.485 74.514 380.313 74.444 380.173 74.304C380.033 74.164 379.963 73.996 379.963 73.8C379.963 73.604 380.033 73.4407 380.173 73.31C380.313 73.17 380.485 73.1 380.691 73.1C380.896 73.1 381.069 73.1654 381.209 73.296C381.349 73.4267 381.419 73.59 381.419 73.786C381.419 73.9914 381.349 74.164 381.209 74.304C381.078 74.444 380.905 74.514 380.691 74.514ZM383.149 83.488V82.83L388.049 76.628L388.259 76.964H383.233V76.138H389.043V76.782L384.157 82.998L383.905 82.662H389.141V83.488H383.149ZM393.9 83.558C393.2 83.558 392.57 83.3994 392.01 83.082C391.459 82.7647 391.025 82.326 390.708 81.766C390.391 81.1967 390.232 80.5434 390.232 79.806C390.232 79.0594 390.391 78.406 390.708 77.846C391.025 77.286 391.459 76.852 392.01 76.544C392.57 76.2267 393.2 76.068 393.9 76.068C394.544 76.068 395.118 76.2127 395.622 76.502C396.135 76.7914 396.541 77.216 396.84 77.776C397.148 78.3267 397.302 79.0034 397.302 79.806C397.302 80.5994 397.153 81.276 396.854 81.836C396.555 82.396 396.149 82.8254 395.636 83.124C395.132 83.4134 394.553 83.558 393.9 83.558ZM393.97 82.676C394.493 82.676 394.959 82.5594 395.37 82.326C395.79 82.0834 396.117 81.7474 396.35 81.318C396.593 80.8794 396.714 80.3754 396.714 79.806C396.714 79.2274 396.593 78.7234 396.35 78.294C396.117 77.8647 395.79 77.5334 395.37 77.3C394.959 77.0574 394.493 76.936 393.97 76.936C393.457 76.936 392.995 77.0574 392.584 77.3C392.173 77.5334 391.847 77.8647 391.604 78.294C391.361 78.7234 391.24 79.2274 391.24 79.806C391.24 80.3754 391.361 80.8794 391.604 81.318C391.847 81.7474 392.173 82.0834 392.584 82.326C392.995 82.5594 393.457 82.676 393.97 82.676ZM396.742 83.488V81.276L396.84 79.792L396.7 78.308V73.1H397.694V83.488H396.742ZM402.436 83.558C401.83 83.558 401.256 83.474 400.714 83.306C400.173 83.1287 399.748 82.9094 399.44 82.648L399.888 81.864C400.187 82.088 400.57 82.284 401.036 82.452C401.503 82.6107 401.993 82.69 402.506 82.69C403.206 82.69 403.71 82.5827 404.018 82.368C404.326 82.144 404.48 81.85 404.48 81.486C404.48 81.2154 404.392 81.0054 404.214 80.856C404.046 80.6974 403.822 80.5807 403.542 80.506C403.262 80.422 402.95 80.352 402.604 80.296C402.259 80.24 401.914 80.1747 401.568 80.1C401.232 80.0254 400.924 79.918 400.644 79.778C400.364 79.6287 400.136 79.428 399.958 79.176C399.79 78.924 399.706 78.588 399.706 78.168C399.706 77.7667 399.818 77.4074 400.042 77.09C400.266 76.7727 400.593 76.5254 401.022 76.348C401.461 76.1614 401.993 76.068 402.618 76.068C403.094 76.068 403.57 76.1334 404.046 76.264C404.522 76.3854 404.914 76.5487 405.222 76.754L404.788 77.552C404.462 77.328 404.112 77.1694 403.738 77.076C403.365 76.9734 402.992 76.922 402.618 76.922C401.956 76.922 401.466 77.0387 401.148 77.272C400.84 77.496 400.686 77.7854 400.686 78.14C400.686 78.42 400.77 78.6394 400.938 78.798C401.116 78.9567 401.344 79.0827 401.624 79.176C401.914 79.26 402.226 79.33 402.562 79.386C402.908 79.442 403.248 79.512 403.584 79.596C403.93 79.6707 404.242 79.778 404.522 79.918C404.812 80.0487 405.04 80.24 405.208 80.492C405.386 80.7347 405.474 81.0567 405.474 81.458C405.474 81.8874 405.353 82.2607 405.11 82.578C404.877 82.886 404.532 83.1287 404.074 83.306C403.626 83.474 403.08 83.558 402.436 83.558ZM407.396 83.558C407.191 83.558 407.013 83.4834 406.864 83.334C406.724 83.1847 406.654 83.0027 406.654 82.788C406.654 82.564 406.724 82.382 406.864 82.242C407.013 82.102 407.191 82.032 407.396 82.032C407.601 82.032 407.774 82.102 407.914 82.242C408.063 82.382 408.138 82.564 408.138 82.788C408.138 83.0027 408.063 83.1847 407.914 83.334C407.774 83.4834 407.601 83.558 407.396 83.558ZM413.112 83.558C412.384 83.558 411.73 83.3994 411.152 83.082C410.582 82.7554 410.134 82.312 409.808 81.752C409.481 81.1827 409.318 80.534 409.318 79.806C409.318 79.0687 409.481 78.42 409.808 77.86C410.134 77.3 410.582 76.8614 411.152 76.544C411.73 76.2267 412.384 76.068 413.112 76.068C413.737 76.068 414.302 76.1894 414.806 76.432C415.31 76.6747 415.706 77.0387 415.996 77.524L415.254 78.028C415.002 77.6547 414.689 77.3794 414.316 77.202C413.942 77.0247 413.536 76.936 413.098 76.936C412.575 76.936 412.104 77.0574 411.684 77.3C411.264 77.5334 410.932 77.8647 410.69 78.294C410.447 78.7234 410.326 79.2274 410.326 79.806C410.326 80.3847 410.447 80.8887 410.69 81.318C410.932 81.7474 411.264 82.0834 411.684 82.326C412.104 82.5594 412.575 82.676 413.098 82.676C413.536 82.676 413.942 82.5874 414.316 82.41C414.689 82.2327 415.002 81.962 415.254 81.598L415.996 82.102C415.706 82.578 415.31 82.942 414.806 83.194C414.302 83.4367 413.737 83.558 413.112 83.558ZM420.821 83.558C420.112 83.558 419.473 83.3994 418.903 83.082C418.343 82.7554 417.9 82.312 417.573 81.752C417.247 81.1827 417.083 80.534 417.083 79.806C417.083 79.0687 417.247 78.42 417.573 77.86C417.9 77.3 418.343 76.8614 418.903 76.544C419.463 76.2267 420.103 76.068 420.821 76.068C421.549 76.068 422.193 76.2267 422.753 76.544C423.323 76.8614 423.766 77.3 424.083 77.86C424.41 78.42 424.573 79.0687 424.573 79.806C424.573 80.534 424.41 81.1827 424.083 81.752C423.766 82.312 423.323 82.7554 422.753 83.082C422.184 83.3994 421.54 83.558 420.821 83.558ZM420.821 82.676C421.353 82.676 421.825 82.5594 422.235 82.326C422.646 82.0834 422.968 81.7474 423.201 81.318C423.444 80.8794 423.565 80.3754 423.565 79.806C423.565 79.2274 423.444 78.7234 423.201 78.294C422.968 77.8647 422.646 77.5334 422.235 77.3C421.825 77.0574 421.358 76.936 420.835 76.936C420.313 76.936 419.846 77.0574 419.435 77.3C419.025 77.5334 418.698 77.8647 418.455 78.294C418.213 78.7234 418.091 79.2274 418.091 79.806C418.091 80.3754 418.213 80.8794 418.455 81.318C418.698 81.7474 419.025 82.0834 419.435 82.326C419.846 82.5594 420.308 82.676 420.821 82.676ZM435.787 76.068C436.384 76.068 436.902 76.1847 437.341 76.418C437.789 76.642 438.134 76.9874 438.377 77.454C438.629 77.9207 438.755 78.5087 438.755 79.218V83.488H437.761V79.316C437.761 78.5414 437.574 77.958 437.201 77.566C436.837 77.1647 436.319 76.964 435.647 76.964C435.143 76.964 434.704 77.0714 434.331 77.286C433.967 77.4914 433.682 77.7947 433.477 78.196C433.281 78.588 433.183 79.064 433.183 79.624V83.488H432.189V79.316C432.189 78.5414 432.002 77.958 431.629 77.566C431.255 77.1647 430.733 76.964 430.061 76.964C429.566 76.964 429.132 77.0714 428.759 77.286C428.385 77.4914 428.096 77.7947 427.891 78.196C427.695 78.588 427.597 79.064 427.597 79.624V83.488H426.603V76.138H427.555V78.126L427.401 77.776C427.625 77.244 427.984 76.8287 428.479 76.53C428.983 76.222 429.575 76.068 430.257 76.068C430.975 76.068 431.587 76.25 432.091 76.614C432.595 76.9687 432.921 77.5054 433.071 78.224L432.679 78.07C432.893 77.4727 433.271 76.992 433.813 76.628C434.363 76.2547 435.021 76.068 435.787 76.068ZM441.548 83.558C441.343 83.558 441.166 83.4834 441.016 83.334C440.876 83.1847 440.806 83.0027 440.806 82.788C440.806 82.564 440.876 82.382 441.016 82.242C441.166 82.102 441.343 82.032 441.548 82.032C441.754 82.032 441.926 82.102 442.066 82.242C442.216 82.382 442.29 82.564 442.29 82.788C442.29 83.0027 442.216 83.1847 442.066 83.334C441.926 83.4834 441.754 83.558 441.548 83.558ZM449.16 83.488V81.864L449.118 81.598V78.882C449.118 78.2567 448.941 77.776 448.586 77.44C448.241 77.104 447.723 76.936 447.032 76.936C446.556 76.936 446.103 77.0154 445.674 77.174C445.245 77.3327 444.881 77.5427 444.582 77.804L444.134 77.062C444.507 76.7447 444.955 76.502 445.478 76.334C446.001 76.1567 446.551 76.068 447.13 76.068C448.082 76.068 448.815 76.306 449.328 76.782C449.851 77.2487 450.112 77.9627 450.112 78.924V83.488H449.16ZM446.626 83.558C446.075 83.558 445.595 83.4694 445.184 83.292C444.783 83.1054 444.475 82.8534 444.26 82.536C444.045 82.2094 443.938 81.836 443.938 81.416C443.938 81.0334 444.027 80.688 444.204 80.38C444.391 80.0627 444.689 79.8107 445.1 79.624C445.52 79.428 446.08 79.33 446.78 79.33H449.314V80.072H446.808C446.099 80.072 445.604 80.198 445.324 80.45C445.053 80.702 444.918 81.0147 444.918 81.388C444.918 81.808 445.081 82.144 445.408 82.396C445.735 82.648 446.192 82.774 446.78 82.774C447.34 82.774 447.821 82.648 448.222 82.396C448.633 82.1347 448.931 81.7614 449.118 81.276L449.342 81.962C449.155 82.4474 448.829 82.8347 448.362 83.124C447.905 83.4134 447.326 83.558 446.626 83.558ZM455.85 83.558C455.224 83.558 454.678 83.4414 454.212 83.208C453.745 82.9747 453.381 82.6247 453.12 82.158C452.868 81.6914 452.742 81.108 452.742 80.408V76.138H453.736V80.296C453.736 81.08 453.927 81.6727 454.31 82.074C454.702 82.466 455.248 82.662 455.948 82.662C456.461 82.662 456.904 82.5594 457.278 82.354C457.66 82.1394 457.95 81.8314 458.146 81.43C458.351 81.0287 458.454 80.548 458.454 79.988V76.138H459.448V83.488H458.496V81.472L458.65 81.836C458.416 82.3774 458.052 82.802 457.558 83.11C457.072 83.4087 456.503 83.558 455.85 83.558ZM290.561 100.558C289.917 100.558 289.338 100.413 288.825 100.124C288.312 99.8254 287.906 99.396 287.607 98.836C287.308 98.276 287.159 97.5994 287.159 96.806C287.159 96.0034 287.308 95.3267 287.607 94.776C287.915 94.216 288.326 93.7914 288.839 93.502C289.352 93.2127 289.926 93.068 290.561 93.068C291.261 93.068 291.886 93.2267 292.437 93.544C292.997 93.852 293.436 94.286 293.753 94.846C294.07 95.406 294.229 96.0594 294.229 96.806C294.229 97.5434 294.07 98.1967 293.753 98.766C293.436 99.326 292.997 99.7647 292.437 100.082C291.886 100.399 291.261 100.558 290.561 100.558ZM286.767 100.488V90.1H287.761V95.308L287.621 96.792L287.719 98.276V100.488H286.767ZM290.491 99.676C291.014 99.676 291.48 99.5594 291.891 99.326C292.302 99.0834 292.628 98.7474 292.871 98.318C293.114 97.8794 293.235 97.3754 293.235 96.806C293.235 96.2274 293.114 95.7234 292.871 95.294C292.628 94.8647 292.302 94.5334 291.891 94.3C291.48 94.0574 291.014 93.936 290.491 93.936C289.968 93.936 289.497 94.0574 289.077 94.3C288.666 94.5334 288.34 94.8647 288.097 95.294C287.864 95.7234 287.747 96.2274 287.747 96.806C287.747 97.3754 287.864 97.8794 288.097 98.318C288.34 98.7474 288.666 99.0834 289.077 99.326C289.497 99.5594 289.968 99.676 290.491 99.676ZM296.255 100.488V93.138H297.207V95.14L297.109 94.79C297.314 94.23 297.66 93.8054 298.145 93.516C298.63 93.2174 299.232 93.068 299.951 93.068V94.034C299.914 94.034 299.876 94.034 299.839 94.034C299.802 94.0247 299.764 94.02 299.727 94.02C298.952 94.02 298.346 94.258 297.907 94.734C297.468 95.2007 297.249 95.868 297.249 96.736V100.488H296.255ZM301.765 100.488V93.138H302.759V100.488H301.765ZM302.269 91.514C302.064 91.514 301.891 91.444 301.751 91.304C301.611 91.164 301.541 90.996 301.541 90.8C301.541 90.604 301.611 90.4407 301.751 90.31C301.891 90.17 302.064 90.1 302.269 90.1C302.474 90.1 302.647 90.1654 302.787 90.296C302.927 90.4267 302.997 90.59 302.997 90.786C302.997 90.9914 302.927 91.164 302.787 91.304C302.656 91.444 302.484 91.514 302.269 91.514ZM304.727 100.488V99.83L309.627 93.628L309.837 93.964H304.811V93.138H310.621V93.782L305.735 99.998L305.483 99.662H310.719V100.488H304.727ZM315.478 100.558C314.778 100.558 314.148 100.399 313.588 100.082C313.037 99.7647 312.603 99.326 312.286 98.766C311.969 98.1967 311.81 97.5434 311.81 96.806C311.81 96.0594 311.969 95.406 312.286 94.846C312.603 94.286 313.037 93.852 313.588 93.544C314.148 93.2267 314.778 93.068 315.478 93.068C316.122 93.068 316.696 93.2127 317.2 93.502C317.713 93.7914 318.119 94.216 318.418 94.776C318.726 95.3267 318.88 96.0034 318.88 96.806C318.88 97.5994 318.731 98.276 318.432 98.836C318.133 99.396 317.727 99.8254 317.214 100.124C316.71 100.413 316.131 100.558 315.478 100.558ZM315.548 99.676C316.071 99.676 316.537 99.5594 316.948 99.326C317.368 99.0834 317.695 98.7474 317.928 98.318C318.171 97.8794 318.292 97.3754 318.292 96.806C318.292 96.2274 318.171 95.7234 317.928 95.294C317.695 94.8647 317.368 94.5334 316.948 94.3C316.537 94.0574 316.071 93.936 315.548 93.936C315.035 93.936 314.573 94.0574 314.162 94.3C313.751 94.5334 313.425 94.8647 313.182 95.294C312.939 95.7234 312.818 96.2274 312.818 96.806C312.818 97.3754 312.939 97.8794 313.182 98.318C313.425 98.7474 313.751 99.0834 314.162 99.326C314.573 99.5594 315.035 99.676 315.548 99.676ZM318.32 100.488V98.276L318.418 96.792L318.278 95.308V90.1H319.272V100.488H318.32ZM324.014 100.558C323.408 100.558 322.834 100.474 322.292 100.306C321.751 100.129 321.326 99.9094 321.018 99.648L321.466 98.864C321.765 99.088 322.148 99.284 322.614 99.452C323.081 99.6107 323.571 99.69 324.084 99.69C324.784 99.69 325.288 99.5827 325.596 99.368C325.904 99.144 326.058 98.85 326.058 98.486C326.058 98.2154 325.97 98.0054 325.792 97.856C325.624 97.6974 325.4 97.5807 325.12 97.506C324.84 97.422 324.528 97.352 324.182 97.296C323.837 97.24 323.492 97.1747 323.146 97.1C322.81 97.0254 322.502 96.918 322.222 96.778C321.942 96.6287 321.714 96.428 321.536 96.176C321.368 95.924 321.284 95.588 321.284 95.168C321.284 94.7667 321.396 94.4074 321.62 94.09C321.844 93.7727 322.171 93.5254 322.6 93.348C323.039 93.1614 323.571 93.068 324.196 93.068C324.672 93.068 325.148 93.1334 325.624 93.264C326.1 93.3854 326.492 93.5487 326.8 93.754L326.366 94.552C326.04 94.328 325.69 94.1694 325.316 94.076C324.943 93.9734 324.57 93.922 324.196 93.922C323.534 93.922 323.044 94.0387 322.726 94.272C322.418 94.496 322.264 94.7854 322.264 95.14C322.264 95.42 322.348 95.6394 322.516 95.798C322.694 95.9567 322.922 96.0827 323.202 96.176C323.492 96.26 323.804 96.33 324.14 96.386C324.486 96.442 324.826 96.512 325.162 96.596C325.508 96.6707 325.82 96.778 326.1 96.918C326.39 97.0487 326.618 97.24 326.786 97.492C326.964 97.7347 327.052 98.0567 327.052 98.458C327.052 98.8874 326.931 99.2607 326.688 99.578C326.455 99.886 326.11 100.129 325.652 100.306C325.204 100.474 324.658 100.558 324.014 100.558ZM328.974 100.558C328.769 100.558 328.592 100.483 328.442 100.334C328.302 100.185 328.232 100.003 328.232 99.788C328.232 99.564 328.302 99.382 328.442 99.242C328.592 99.102 328.769 99.032 328.974 99.032C329.18 99.032 329.352 99.102 329.492 99.242C329.642 99.382 329.716 99.564 329.716 99.788C329.716 100.003 329.642 100.185 329.492 100.334C329.352 100.483 329.18 100.558 328.974 100.558ZM334.69 100.558C333.962 100.558 333.309 100.399 332.73 100.082C332.161 99.7554 331.713 99.312 331.386 98.752C331.059 98.1827 330.896 97.534 330.896 96.806C330.896 96.0687 331.059 95.42 331.386 94.86C331.713 94.3 332.161 93.8614 332.73 93.544C333.309 93.2267 333.962 93.068 334.69 93.068C335.315 93.068 335.88 93.1894 336.384 93.432C336.888 93.6747 337.285 94.0387 337.574 94.524L336.832 95.028C336.58 94.6547 336.267 94.3794 335.894 94.202C335.521 94.0247 335.115 93.936 334.676 93.936C334.153 93.936 333.682 94.0574 333.262 94.3C332.842 94.5334 332.511 94.8647 332.268 95.294C332.025 95.7234 331.904 96.2274 331.904 96.806C331.904 97.3847 332.025 97.8887 332.268 98.318C332.511 98.7474 332.842 99.0834 333.262 99.326C333.682 99.5594 334.153 99.676 334.676 99.676C335.115 99.676 335.521 99.5874 335.894 99.41C336.267 99.2327 336.58 98.962 336.832 98.598L337.574 99.102C337.285 99.578 336.888 99.942 336.384 100.194C335.88 100.437 335.315 100.558 334.69 100.558ZM342.4 100.558C341.69 100.558 341.051 100.399 340.482 100.082C339.922 99.7554 339.478 99.312 339.152 98.752C338.825 98.1827 338.662 97.534 338.662 96.806C338.662 96.0687 338.825 95.42 339.152 94.86C339.478 94.3 339.922 93.8614 340.482 93.544C341.042 93.2267 341.681 93.068 342.4 93.068C343.128 93.068 343.772 93.2267 344.332 93.544C344.901 93.8614 345.344 94.3 345.662 94.86C345.988 95.42 346.152 96.0687 346.152 96.806C346.152 97.534 345.988 98.1827 345.662 98.752C345.344 99.312 344.901 99.7554 344.332 100.082C343.762 100.399 343.118 100.558 342.4 100.558ZM342.4 99.676C342.932 99.676 343.403 99.5594 343.814 99.326C344.224 99.0834 344.546 98.7474 344.78 98.318C345.022 97.8794 345.144 97.3754 345.144 96.806C345.144 96.2274 345.022 95.7234 344.78 95.294C344.546 94.8647 344.224 94.5334 343.814 94.3C343.403 94.0574 342.936 93.936 342.414 93.936C341.891 93.936 341.424 94.0574 341.014 94.3C340.603 94.5334 340.276 94.8647 340.034 95.294C339.791 95.7234 339.67 96.2274 339.67 96.806C339.67 97.3754 339.791 97.8794 340.034 98.318C340.276 98.7474 340.603 99.0834 341.014 99.326C341.424 99.5594 341.886 99.676 342.4 99.676ZM357.365 93.068C357.962 93.068 358.48 93.1847 358.919 93.418C359.367 93.642 359.712 93.9874 359.955 94.454C360.207 94.9207 360.333 95.5087 360.333 96.218V100.488H359.339V96.316C359.339 95.5414 359.152 94.958 358.779 94.566C358.415 94.1647 357.897 93.964 357.225 93.964C356.721 93.964 356.282 94.0714 355.909 94.286C355.545 94.4914 355.26 94.7947 355.055 95.196C354.859 95.588 354.761 96.064 354.761 96.624V100.488H353.767V96.316C353.767 95.5414 353.58 94.958 353.207 94.566C352.834 94.1647 352.311 93.964 351.639 93.964C351.144 93.964 350.71 94.0714 350.337 94.286C349.964 94.4914 349.674 94.7947 349.469 95.196C349.273 95.588 349.175 96.064 349.175 96.624V100.488H348.181V93.138H349.133V95.126L348.979 94.776C349.203 94.244 349.562 93.8287 350.057 93.53C350.561 93.222 351.154 93.068 351.835 93.068C352.554 93.068 353.165 93.25 353.669 93.614C354.173 93.9687 354.5 94.5054 354.649 95.224L354.257 95.07C354.472 94.4727 354.85 93.992 355.391 93.628C355.942 93.2547 356.6 93.068 357.365 93.068ZM363.127 100.558C362.921 100.558 362.744 100.483 362.595 100.334C362.455 100.185 362.385 100.003 362.385 99.788C362.385 99.564 362.455 99.382 362.595 99.242C362.744 99.102 362.921 99.032 363.127 99.032C363.332 99.032 363.505 99.102 363.645 99.242C363.794 99.382 363.869 99.564 363.869 99.788C363.869 100.003 363.794 100.185 363.645 100.334C363.505 100.483 363.332 100.558 363.127 100.558ZM370.738 100.488V98.864L370.696 98.598V95.882C370.696 95.2567 370.519 94.776 370.164 94.44C369.819 94.104 369.301 93.936 368.61 93.936C368.134 93.936 367.681 94.0154 367.252 94.174C366.823 94.3327 366.459 94.5427 366.16 94.804L365.712 94.062C366.085 93.7447 366.533 93.502 367.056 93.334C367.579 93.1567 368.129 93.068 368.708 93.068C369.66 93.068 370.393 93.306 370.906 93.782C371.429 94.2487 371.69 94.9627 371.69 95.924V100.488H370.738ZM368.204 100.558C367.653 100.558 367.173 100.469 366.762 100.292C366.361 100.105 366.053 99.8534 365.838 99.536C365.623 99.2094 365.516 98.836 365.516 98.416C365.516 98.0334 365.605 97.688 365.782 97.38C365.969 97.0627 366.267 96.8107 366.678 96.624C367.098 96.428 367.658 96.33 368.358 96.33H370.892V97.072H368.386C367.677 97.072 367.182 97.198 366.902 97.45C366.631 97.702 366.496 98.0147 366.496 98.388C366.496 98.808 366.659 99.144 366.986 99.396C367.313 99.648 367.77 99.774 368.358 99.774C368.918 99.774 369.399 99.648 369.8 99.396C370.211 99.1347 370.509 98.7614 370.696 98.276L370.92 98.962C370.733 99.4474 370.407 99.8347 369.94 100.124C369.483 100.413 368.904 100.558 368.204 100.558ZM377.428 100.558C376.803 100.558 376.257 100.441 375.79 100.208C375.323 99.9747 374.959 99.6247 374.698 99.158C374.446 98.6914 374.32 98.108 374.32 97.408V93.138H375.314V97.296C375.314 98.08 375.505 98.6727 375.888 99.074C376.28 99.466 376.826 99.662 377.526 99.662C378.039 99.662 378.483 99.5594 378.856 99.354C379.239 99.1394 379.528 98.8314 379.724 98.43C379.929 98.0287 380.032 97.548 380.032 96.988V93.138H381.026V100.488H380.074V98.472L380.228 98.836C379.995 99.3774 379.631 99.802 379.136 100.11C378.651 100.409 378.081 100.558 377.428 100.558Z" fill="black"/>
<line x1="261.129" y1="156.002" x2="261.129" y2="23.9982" stroke="black" stroke-width="0.5"/>
<path d="M230.958 71.9954C229.724 71.9954 228.547 71.8272 227.425 71.4908C226.323 71.1544 225.454 70.7432 224.818 70.2573L225.94 68.1267C226.575 68.5566 227.36 68.921 228.295 69.22C229.229 69.519 230.182 69.6686 231.154 69.6686C232.406 69.6686 233.303 69.491 233.845 69.1359C234.406 68.7808 234.686 68.2856 234.686 67.6501C234.686 67.1829 234.518 66.8185 234.182 66.5568C233.845 66.2952 233.397 66.0989 232.836 65.9681C232.294 65.8373 231.687 65.7251 231.014 65.6317C230.341 65.5196 229.668 65.3887 228.995 65.2392C228.323 65.071 227.706 64.8468 227.145 64.5664C226.584 64.2674 226.136 63.8656 225.8 63.361C225.463 62.8377 225.295 62.1462 225.295 61.2865C225.295 60.3894 225.547 59.6044 226.052 58.9316C226.556 58.2588 227.267 57.7449 228.182 57.3898C229.117 57.016 230.22 56.8291 231.49 56.8291C232.462 56.8291 233.443 56.9506 234.434 57.1935C235.443 57.4178 236.265 57.7449 236.901 58.1747L235.752 60.3053C235.079 59.8567 234.378 59.5484 233.649 59.3802C232.92 59.212 232.191 59.1279 231.462 59.1279C230.285 59.1279 229.407 59.3241 228.827 59.7166C228.248 60.0904 227.958 60.5763 227.958 61.1743C227.958 61.6789 228.126 62.0714 228.463 62.3517C228.818 62.6134 229.266 62.819 229.808 62.9685C230.369 63.118 230.986 63.2488 231.659 63.361C232.331 63.4544 233.004 63.5852 233.677 63.7534C234.35 63.903 234.957 64.1179 235.499 64.3982C236.06 64.6786 236.508 65.071 236.845 65.5756C237.2 66.0802 237.377 66.7531 237.377 67.5941C237.377 68.4911 237.116 69.2667 236.593 69.9209C236.069 70.575 235.331 71.0889 234.378 71.4627C233.425 71.8178 232.285 71.9954 230.958 71.9954Z" fill="black"/>
<path d="M216.389 56.8291C217.603 56.8291 218.669 57.0627 219.584 57.5299C220.519 57.9972 221.248 58.7074 221.771 59.6605C222.294 60.6137 222.556 61.8191 222.556 63.2769V71.8272H219.865V63.5852C219.865 62.1462 219.51 61.0622 218.8 60.3333C218.108 59.6044 217.127 59.24 215.856 59.24C214.903 59.24 214.071 59.4269 213.361 59.8007C212.651 60.1745 212.099 60.7258 211.707 61.4547C211.333 62.1835 211.146 63.09 211.146 64.1739V71.8272H208.455V56.9693H211.034V60.9781L210.614 59.9128C211.1 58.941 211.847 58.1841 212.856 57.6421C213.866 57.1001 215.043 56.8291 216.389 56.8291Z" fill="black"/>
<path d="M198.747 71.9954C197.159 71.9954 195.757 71.6683 194.542 71.0142C193.346 70.3601 192.412 69.463 191.739 68.3229C191.085 67.1829 190.758 65.8747 190.758 64.3982C190.758 62.9218 191.076 61.6135 191.711 60.4735C192.365 59.3335 193.253 58.4457 194.374 57.8103C195.514 57.1562 196.794 56.8291 198.215 56.8291C199.654 56.8291 200.925 57.1468 202.027 57.7822C203.13 58.4177 203.99 59.3148 204.606 60.4735C205.242 61.6135 205.56 62.9498 205.56 64.4823C205.56 64.5945 205.55 64.7253 205.532 64.8748C205.532 65.0243 205.522 65.1645 205.504 65.2953H192.86V63.361H204.102L203.009 64.0338C203.027 63.0806 202.831 62.2303 202.42 61.4827C202.009 60.7351 201.439 60.1558 200.71 59.7446C200 59.3148 199.168 59.0998 198.215 59.0998C197.28 59.0998 196.449 59.3148 195.72 59.7446C194.991 60.1558 194.421 60.7445 194.01 61.5107C193.599 62.2583 193.393 63.118 193.393 64.0898V64.5384C193.393 65.5289 193.617 66.4166 194.066 67.2016C194.533 67.9678 195.178 68.5659 196 68.9958C196.822 69.4256 197.766 69.6405 198.832 69.6405C199.71 69.6405 200.504 69.491 201.214 69.192C201.943 68.893 202.579 68.4444 203.121 67.8464L204.606 69.5845C203.934 70.3694 203.093 70.9675 202.083 71.3786C201.093 71.7898 199.981 71.9954 198.747 71.9954Z" fill="black"/>
<path d="M182.423 71.9954C180.835 71.9954 179.433 71.6683 178.218 71.0142C177.022 70.3601 176.088 69.463 175.415 68.3229C174.761 67.1829 174.434 65.8747 174.434 64.3982C174.434 62.9218 174.751 61.6135 175.387 60.4735C176.041 59.3335 176.929 58.4457 178.05 57.8103C179.19 57.1562 180.47 56.8291 181.891 56.8291C183.33 56.8291 184.601 57.1468 185.703 57.7822C186.806 58.4177 187.666 59.3148 188.282 60.4735C188.918 61.6135 189.235 62.9498 189.235 64.4823C189.235 64.5945 189.226 64.7253 189.207 64.8748C189.207 65.0243 189.198 65.1645 189.179 65.2953H176.536V63.361H187.778L186.684 64.0338C186.703 63.0806 186.507 62.2303 186.096 61.4827C185.684 60.7351 185.114 60.1558 184.386 59.7446C183.675 59.3148 182.844 59.0998 181.891 59.0998C180.956 59.0998 180.124 59.3148 179.396 59.7446C178.667 60.1558 178.097 60.7445 177.686 61.5107C177.274 62.2583 177.069 63.118 177.069 64.0898V64.5384C177.069 65.5289 177.293 66.4166 177.742 67.2016C178.209 67.9678 178.854 68.5659 179.676 68.9958C180.498 69.4256 181.442 69.6405 182.507 69.6405C183.386 69.6405 184.18 69.491 184.89 69.192C185.619 68.893 186.254 68.4444 186.796 67.8464L188.282 69.5845C187.609 70.3694 186.768 70.9675 185.759 71.3786C184.769 71.7898 183.657 71.9954 182.423 71.9954Z" fill="black"/>
<path d="M165.479 71.8272V56.9693H168.058V61.0061L167.805 59.9969C168.216 58.969 168.908 58.1841 169.88 57.6421C170.852 57.1001 172.048 56.8291 173.468 56.8291V59.4362C173.356 59.4176 173.244 59.4082 173.132 59.4082C173.038 59.4082 172.945 59.4082 172.851 59.4082C171.412 59.4082 170.272 59.8381 169.431 60.6978C168.59 61.5575 168.17 62.8003 168.17 64.4263V71.8272H165.479Z" fill="black"/>
<path d="M156.779 71.9954C155.265 71.9954 153.91 71.6683 152.714 71.0142C151.537 70.3601 150.612 69.463 149.939 68.3229C149.266 67.1829 148.93 65.8747 148.93 64.3982C148.93 62.9218 149.266 61.6135 149.939 60.4735C150.612 59.3335 151.537 58.4457 152.714 57.8103C153.91 57.1562 155.265 56.8291 156.779 56.8291C158.125 56.8291 159.321 57.1001 160.367 57.6421C161.433 58.1654 162.255 58.9503 162.834 59.9969L160.788 61.3145C160.302 60.5856 159.704 60.053 158.994 59.7166C158.302 59.3615 157.555 59.1839 156.751 59.1839C155.779 59.1839 154.91 59.3989 154.144 59.8287C153.378 60.2586 152.77 60.866 152.322 61.6509C151.873 62.4172 151.649 63.3329 151.649 64.3982C151.649 65.4635 151.873 66.3886 152.322 67.1736C152.77 67.9585 153.378 68.5659 154.144 68.9958C154.91 69.4256 155.779 69.6405 156.751 69.6405C157.555 69.6405 158.302 69.4723 158.994 69.1359C159.704 68.7808 160.302 68.2388 160.788 67.51L162.834 68.7995C162.255 69.8274 161.433 70.6217 160.367 71.1824C159.321 71.7244 158.125 71.9954 156.779 71.9954Z" fill="black"/>
<path d="M141.362 71.9954C140.129 71.9954 138.951 71.8272 137.83 71.4908C136.727 71.1544 135.858 70.7432 135.223 70.2573L136.344 68.1267C136.979 68.5566 137.764 68.921 138.699 69.22C139.633 69.519 140.586 69.6686 141.558 69.6686C142.81 69.6686 143.708 69.491 144.25 69.1359C144.81 68.7808 145.091 68.2856 145.091 67.6501C145.091 67.1829 144.922 66.8185 144.586 66.5568C144.25 66.2952 143.801 66.0989 143.24 65.9681C142.698 65.8373 142.091 65.7251 141.418 65.6317C140.745 65.5196 140.072 65.3887 139.4 65.2392C138.727 65.071 138.11 64.8468 137.549 64.5664C136.989 64.2674 136.54 63.8656 136.204 63.361C135.867 62.8377 135.699 62.1462 135.699 61.2865C135.699 60.3894 135.952 59.6044 136.456 58.9316C136.961 58.2588 137.671 57.7449 138.587 57.3898C139.521 57.016 140.624 56.8291 141.895 56.8291C142.867 56.8291 143.848 56.9506 144.838 57.1935C145.847 57.4178 146.67 57.7449 147.305 58.1747L146.156 60.3053C145.483 59.8567 144.782 59.5484 144.053 59.3802C143.324 59.212 142.596 59.1279 141.867 59.1279C140.689 59.1279 139.811 59.3241 139.231 59.7166C138.652 60.0904 138.362 60.5763 138.362 61.1743C138.362 61.6789 138.531 62.0714 138.867 62.3517C139.222 62.6134 139.671 62.819 140.213 62.9685C140.773 63.118 141.39 63.2488 142.063 63.361C142.736 63.4544 143.409 63.5852 144.081 63.7534C144.754 63.903 145.362 64.1179 145.904 64.3982C146.464 64.6786 146.913 65.071 147.249 65.5756C147.604 66.0802 147.782 66.7531 147.782 67.5941C147.782 68.4911 147.52 69.2667 146.997 69.9209C146.474 70.575 145.735 71.0889 144.782 71.4627C143.829 71.8178 142.689 71.9954 141.362 71.9954Z" fill="black"/>
<path d="M224.03 47.786V35.1708H227.03V47.786H224.03ZM219.068 42.8801V40.0767H231.992V42.8801H219.068Z" fill="#FFD700"/>
<path d="M204.167 51.4572C202.933 51.4572 201.756 51.289 200.634 50.9526C199.532 50.6161 198.663 50.205 198.027 49.7191L199.149 47.5885C199.784 48.0184 200.569 48.3828 201.504 48.6818C202.438 48.9808 203.391 49.1304 204.363 49.1304C205.615 49.1304 206.512 48.9528 207.054 48.5977C207.615 48.2426 207.895 47.7474 207.895 47.1119C207.895 46.6447 207.727 46.2803 207.391 46.0186C207.054 45.757 206.606 45.5607 206.045 45.4299C205.503 45.2991 204.896 45.1869 204.223 45.0935C203.55 44.9814 202.877 44.8505 202.204 44.701C201.532 44.5328 200.915 44.3085 200.354 44.0282C199.793 43.7292 199.345 43.3274 199.009 42.8228C198.672 42.2995 198.504 41.608 198.504 40.7483C198.504 39.8512 198.756 39.0662 199.261 38.3934C199.765 37.7206 200.476 37.2067 201.391 36.8516C202.326 36.4778 203.429 36.2909 204.699 36.2909C205.671 36.2909 206.652 36.4124 207.643 36.6553C208.652 36.8796 209.474 37.2067 210.11 37.6365L208.961 39.7671C208.288 39.3185 207.587 39.0102 206.858 38.842C206.129 38.6738 205.4 38.5897 204.671 38.5897C203.494 38.5897 202.616 38.7859 202.036 39.1784C201.457 39.5522 201.167 40.0381 201.167 40.6361C201.167 41.1407 201.335 41.5332 201.672 41.8135C202.027 42.0752 202.475 42.2808 203.017 42.4303C203.578 42.5798 204.195 42.7106 204.868 42.8228C205.54 42.9162 206.213 43.047 206.886 43.2152C207.559 43.3647 208.166 43.5797 208.708 43.86C209.269 44.1403 209.717 44.5328 210.054 45.0374C210.409 45.542 210.586 46.2148 210.586 47.0559C210.586 47.9529 210.325 48.7285 209.802 49.3827C209.278 50.0368 208.54 50.5507 207.587 50.9245C206.634 51.2796 205.494 51.4572 204.167 51.4572Z" fill="black"/>
<path d="M189.275 51.289V36.4311H191.854V40.4679L191.602 39.4587C192.013 38.4308 192.705 37.6459 193.677 37.1039C194.649 36.5619 195.845 36.2909 197.265 36.2909V38.898C197.153 38.8793 197.041 38.87 196.929 38.87C196.835 38.87 196.742 38.87 196.648 38.87C195.209 38.87 194.069 39.2999 193.228 40.1596C192.387 41.0193 191.967 42.2621 191.967 43.888V51.289H189.275Z" fill="black"/>
<path d="M178.687 51.4572C177.191 51.4572 175.864 51.1301 174.706 50.476C173.547 49.8219 172.631 48.9248 171.958 47.7847C171.286 46.626 170.949 45.3178 170.949 43.86C170.949 42.3836 171.286 41.0753 171.958 39.9353C172.631 38.7952 173.547 37.9075 174.706 37.2721C175.864 36.618 177.191 36.2909 178.687 36.2909C180.163 36.2909 181.481 36.618 182.639 37.2721C183.817 37.9075 184.732 38.7952 185.387 39.9353C186.059 41.0566 186.396 42.3649 186.396 43.86C186.396 45.3365 186.059 46.6447 185.387 47.7847C184.732 48.9248 183.817 49.8219 182.639 50.476C181.481 51.1301 180.163 51.4572 178.687 51.4572ZM178.687 49.1023C179.64 49.1023 180.49 48.8874 181.238 48.4575C182.004 48.0277 182.602 47.4203 183.032 46.6354C183.462 45.8317 183.677 44.9066 183.677 43.86C183.677 42.7947 183.462 41.879 183.032 41.1127C182.602 40.3278 182.004 39.7204 181.238 39.2905C180.49 38.8607 179.64 38.6457 178.687 38.6457C177.733 38.6457 176.883 38.8607 176.135 39.2905C175.388 39.7204 174.79 40.3278 174.341 41.1127C173.893 41.879 173.668 42.7947 173.668 43.86C173.668 44.9066 173.893 45.8317 174.341 46.6354C174.79 47.4203 175.388 48.0277 176.135 48.4575C176.883 48.8874 177.733 49.1023 178.687 49.1023Z" fill="black"/>
<path d="M161.731 51.4572C160.236 51.4572 158.909 51.1301 157.751 50.476C156.592 49.8219 155.676 48.9248 155.003 47.7847C154.331 46.626 153.994 45.3178 153.994 43.86C153.994 42.3836 154.331 41.0753 155.003 39.9353C155.676 38.7952 156.592 37.9075 157.751 37.2721C158.909 36.618 160.236 36.2909 161.731 36.2909C163.208 36.2909 164.525 36.618 165.684 37.2721C166.862 37.9075 167.777 38.7952 168.432 39.9353C169.104 41.0566 169.441 42.3649 169.441 43.86C169.441 45.3365 169.104 46.6447 168.432 47.7847C167.777 48.9248 166.862 49.8219 165.684 50.476C164.525 51.1301 163.208 51.4572 161.731 51.4572ZM161.731 49.1023C162.685 49.1023 163.535 48.8874 164.283 48.4575C165.049 48.0277 165.647 47.4203 166.077 46.6354C166.507 45.8317 166.721 44.9066 166.721 43.86C166.721 42.7947 166.507 41.879 166.077 41.1127C165.647 40.3278 165.049 39.7204 164.283 39.2905C163.535 38.8607 162.685 38.6457 161.731 38.6457C160.778 38.6457 159.928 38.8607 159.18 39.2905C158.433 39.7204 157.835 40.3278 157.386 41.1127C156.938 41.879 156.713 42.7947 156.713 43.86C156.713 44.9066 156.938 45.8317 157.386 46.6354C157.835 47.4203 158.433 48.0277 159.18 48.4575C159.928 48.8874 160.778 49.1023 161.731 49.1023Z" fill="black"/>
<path d="M143.24 51.4573C141.801 51.4573 140.511 51.1396 139.371 50.5041C138.25 49.8687 137.362 48.981 136.708 47.8409C136.054 46.7009 135.727 45.374 135.727 43.8601C135.727 42.3463 136.054 41.0287 136.708 39.9074C137.362 38.7673 138.25 37.8796 139.371 37.2442C140.511 36.6087 141.801 36.291 143.24 36.291C144.492 36.291 145.622 36.5714 146.632 37.132C147.641 37.6927 148.445 38.5337 149.043 39.6551C149.659 40.7764 149.968 42.1781 149.968 43.8601C149.968 45.5422 149.669 46.9439 149.071 48.0652C148.491 49.1866 147.697 50.0369 146.688 50.6163C145.679 51.177 144.529 51.4573 143.24 51.4573ZM143.464 49.1025C144.398 49.1025 145.239 48.8875 145.987 48.4577C146.753 48.0278 147.351 47.4204 147.781 46.6355C148.23 45.8318 148.454 44.9067 148.454 43.8601C148.454 42.7949 148.23 41.8791 147.781 41.1128C147.351 40.3279 146.753 39.7205 145.987 39.2906C145.239 38.8608 144.398 38.6459 143.464 38.6459C142.511 38.6459 141.66 38.8608 140.913 39.2906C140.165 39.7205 139.567 40.3279 139.119 41.1128C138.67 41.8791 138.446 42.7949 138.446 43.8601C138.446 44.9067 138.67 45.8318 139.119 46.6355C139.567 47.4204 140.165 48.0278 140.913 48.4577C141.66 48.8875 142.511 49.1025 143.464 49.1025ZM148.538 51.2891V47.2803L148.706 43.8321L148.426 40.384V30.488H151.117V51.2891H148.538Z" fill="black"/>
<path d="M101.363 71.5649V66.6975L121.634 42.1756L123.051 44.825H101.733V38.6637H129.212V43.5311L108.942 68.0529L107.401 65.4036H129.767V71.5649H101.363Z" fill="black"/>
<path fill-rule="evenodd" clip-rule="evenodd" d="M88.1138 38.6638V71.565H95.8154V38.6638H88.1138Z" fill="black"/>
<path d="M91.9954 33.2419C90.5578 33.2419 89.3666 32.7901 88.4219 31.8864C87.5182 30.9828 87.0664 29.8943 87.0664 28.6209C87.0664 27.3065 87.5182 26.2181 88.4219 25.3555C89.3666 24.4518 90.5578 24 91.9954 24C93.433 24 94.6037 24.4313 95.5073 25.2939C96.4521 26.1154 96.9244 27.1628 96.9244 28.4361C96.9244 29.7916 96.4726 30.9417 95.569 31.8864C94.6653 32.7901 93.4741 33.2419 91.9954 33.2419Z" fill="#FFD700"/>
<path d="M64.3906 71.5642V38.663H71.7225V47.7201L70.86 45.0707C71.8458 42.8527 73.3861 41.1686 75.4809 40.0185C77.6168 38.8684 80.2662 38.2933 83.4289 38.2933V45.6252C83.1003 45.5431 82.7923 45.502 82.5047 45.502C82.2172 45.4609 81.9297 45.4404 81.6422 45.4404C78.7258 45.4404 76.4051 46.303 74.6799 48.0281C72.9548 49.7122 72.0922 52.2383 72.0922 55.6065V71.5642H64.3906Z" fill="black"/>
<path d="M42.2374 71.9963C39.4442 71.9963 36.9592 71.3801 34.7822 70.1479C32.6052 68.9156 30.8801 67.0673 29.6068 64.6028C28.3745 62.0972 27.7584 58.9344 27.7584 55.1144C27.7584 51.2533 28.395 48.0906 29.6684 45.6261C30.9828 43.1615 32.7285 41.3337 34.9054 40.1425C37.1235 38.9103 39.5675 38.2941 42.2374 38.2941C45.4823 38.2941 48.337 38.9924 50.8015 40.389C53.3071 41.7855 55.2787 43.7366 56.7163 46.2422C58.195 48.7478 58.9344 51.7052 58.9344 55.1144C58.9344 58.5236 58.195 61.481 56.7163 63.9866C55.2787 66.4922 53.3071 68.4638 50.8015 69.9014C48.337 71.298 45.4823 71.9963 42.2374 71.9963ZM24 71.565V25.8484H31.7016V46.3038L31.0855 55.0528L31.3319 63.8018V71.565H24ZM41.3748 65.4037C43.2232 65.4037 44.8662 64.993 46.3038 64.1715C47.7825 63.35 48.9531 62.1588 49.8157 60.5979C50.6783 59.0371 51.1096 57.2092 51.1096 55.1144C51.1096 52.9785 50.6783 51.1507 49.8157 49.6309C48.9531 48.07 47.7825 46.8788 46.3038 46.0573C44.8662 45.2358 43.2232 44.8251 41.3748 44.8251C39.5264 44.8251 37.8629 45.2358 36.3841 46.0573C34.9054 46.8788 33.7348 48.07 32.8722 49.6309C32.0096 51.1507 31.5784 52.9785 31.5784 55.1144C31.5784 57.2092 32.0096 59.0371 32.8722 60.5979C33.7348 62.1588 34.9054 63.35 36.3841 64.1715C37.8629 64.993 39.5264 65.4037 41.3748 65.4037Z" fill="black"/>
</svg>
