<svg width="328" height="124" viewBox="0 0 328 124" fill="none" xmlns="http://www.w3.org/2000/svg">
<path d="M295.52 86.2031C294.243 86.2031 293.024 86.029 291.864 85.6808C290.722 85.3326 289.823 84.907 289.165 84.404L290.326 82.1988C290.983 82.6437 291.796 83.0209 292.763 83.3304C293.73 83.6399 294.717 83.7947 295.723 83.7947C297.019 83.7947 297.947 83.6109 298.508 83.2434C299.089 82.8758 299.379 82.3632 299.379 81.7055C299.379 81.2219 299.205 80.8447 298.857 80.5738C298.508 80.303 298.044 80.0999 297.464 79.9645C296.903 79.8291 296.274 79.713 295.578 79.6163C294.881 79.5002 294.185 79.3648 293.489 79.2101C292.792 79.036 292.154 78.8038 291.573 78.5137C290.993 78.2042 290.529 77.7882 290.181 77.2659C289.832 76.7243 289.658 76.0086 289.658 75.1187C289.658 74.1902 289.919 73.3777 290.442 72.6813C290.964 71.9849 291.699 71.4529 292.647 71.0854C293.614 70.6985 294.756 70.5051 296.071 70.5051C297.077 70.5051 298.092 70.6308 299.118 70.8823C300.162 71.1144 301.014 71.4529 301.671 71.8979L300.482 74.1031C299.785 73.6389 299.06 73.3197 298.305 73.1456C297.551 72.9715 296.796 72.8844 296.042 72.8844C294.823 72.8844 293.914 73.0875 293.314 73.4938C292.715 73.8807 292.415 74.3836 292.415 75.0026C292.415 75.5249 292.589 75.9312 292.937 76.2213C293.305 76.4922 293.769 76.705 294.33 76.8597C294.91 77.0145 295.549 77.1499 296.245 77.2659C296.942 77.3627 297.638 77.4981 298.334 77.6722C299.031 77.8269 299.659 78.0494 300.22 78.3396C300.801 78.6297 301.265 79.036 301.613 79.5583C301.981 80.0806 302.165 80.777 302.165 81.6475C302.165 82.576 301.894 83.3788 301.352 84.0558C300.81 84.7329 300.046 85.2649 299.06 85.6518C298.073 86.0193 296.893 86.2031 295.52 86.2031Z" fill="black"/>
<path d="M280.441 70.5051C281.699 70.5051 282.801 70.7469 283.749 71.2305C284.716 71.7141 285.471 72.4492 286.012 73.4357C286.554 74.4223 286.825 75.67 286.825 77.1789V86.029H284.039V77.4981C284.039 76.0086 283.672 74.8866 282.937 74.1321C282.221 73.3777 281.205 73.0005 279.89 73.0005C278.903 73.0005 278.042 73.1939 277.307 73.5808C276.572 73.9677 276.002 74.5384 275.595 75.2928C275.209 76.0472 275.015 76.9855 275.015 78.1074V86.029H272.229V70.6501H274.899V74.7995L274.464 73.6969C274.967 72.691 275.741 71.9075 276.785 71.3465C277.83 70.7856 279.048 70.5051 280.441 70.5051Z" fill="black"/>
<path d="M262.18 86.2031C260.536 86.2031 259.085 85.8646 257.827 85.1875C256.589 84.5104 255.622 83.5819 254.926 82.4019C254.249 81.2219 253.91 79.8678 253.91 78.3396C253.91 76.8114 254.239 75.4572 254.897 74.2772C255.574 73.0972 256.493 72.1784 257.653 71.5206C258.833 70.8436 260.158 70.5051 261.629 70.5051C263.118 70.5051 264.434 70.8339 265.575 71.4916C266.716 72.1493 267.606 73.0779 268.244 74.2772C268.902 75.4572 269.231 76.8404 269.231 78.4266C269.231 78.5427 269.221 78.6781 269.202 78.8328C269.202 78.9876 269.192 79.1327 269.173 79.2681H256.086V77.2659H267.722L266.59 77.9623C266.61 76.9758 266.407 76.0956 265.981 75.3218C265.556 74.5481 264.966 73.9484 264.211 73.5228C263.476 73.0779 262.615 72.8554 261.629 72.8554C260.661 72.8554 259.801 73.0779 259.046 73.5228C258.292 73.9484 257.702 74.5577 257.276 75.3508C256.851 76.1246 256.638 77.0145 256.638 78.0204V78.4846C256.638 79.5099 256.87 80.4288 257.334 81.2412C257.818 82.0344 258.485 82.6534 259.336 83.0983C260.187 83.5432 261.164 83.7657 262.267 83.7657C263.176 83.7657 263.998 83.6109 264.733 83.3014C265.488 82.9919 266.146 82.5276 266.707 81.9086L268.244 83.7076C267.548 84.5201 266.677 85.1391 265.633 85.5647C264.608 85.9903 263.457 86.2031 262.18 86.2031Z" fill="black"/>
<path d="M245.283 86.2031C243.639 86.2031 242.188 85.8646 240.931 85.1875C239.693 84.5104 238.726 83.5819 238.029 82.4019C237.352 81.2219 237.014 79.8678 237.014 78.3396C237.014 76.8114 237.343 75.4572 238 74.2772C238.677 73.0972 239.596 72.1784 240.757 71.5206C241.937 70.8436 243.262 70.5051 244.732 70.5051C246.222 70.5051 247.537 70.8339 248.678 71.4916C249.82 72.1493 250.71 73.0779 251.348 74.2772C252.006 75.4572 252.334 76.8404 252.334 78.4266C252.334 78.5427 252.325 78.6781 252.305 78.8328C252.305 78.9876 252.296 79.1327 252.276 79.2681H239.19V77.2659H250.826L249.694 77.9623C249.713 76.9758 249.51 76.0956 249.085 75.3218C248.659 74.5481 248.069 73.9484 247.315 73.5228C246.58 73.0779 245.719 72.8554 244.732 72.8554C243.765 72.8554 242.904 73.0779 242.15 73.5228C241.395 73.9484 240.805 74.5577 240.38 75.3508C239.954 76.1246 239.741 77.0145 239.741 78.0204V78.4846C239.741 79.5099 239.973 80.4288 240.438 81.2412C240.921 82.0344 241.589 82.6534 242.44 83.0983C243.291 83.5432 244.268 83.7657 245.37 83.7657C246.28 83.7657 247.102 83.6109 247.837 83.3014C248.591 82.9919 249.249 82.5276 249.81 81.9086L251.348 83.7076C250.652 84.5201 249.781 85.1391 248.736 85.5647C247.711 85.9903 246.56 86.2031 245.283 86.2031Z" fill="black"/>
<path d="M227.746 86.029V70.6501H230.416V74.8285L230.154 73.7839C230.58 72.72 231.296 71.9075 232.302 71.3465C233.308 70.7856 234.546 70.5051 236.016 70.5051V73.2036C235.9 73.1843 235.784 73.1746 235.668 73.1746C235.571 73.1746 235.474 73.1746 235.377 73.1746C233.888 73.1746 232.708 73.6195 231.837 74.5094C230.967 75.3992 230.532 76.6856 230.532 78.3686V86.029H227.746Z" fill="black"/>
<path d="M218.742 86.2031C217.175 86.2031 215.772 85.8646 214.534 85.1875C213.316 84.5104 212.358 83.5819 211.662 82.4019C210.965 81.2219 210.617 79.8678 210.617 78.3396C210.617 76.8114 210.965 75.4572 211.662 74.2772C212.358 73.0972 213.316 72.1784 214.534 71.5206C215.772 70.8436 217.175 70.5051 218.742 70.5051C220.135 70.5051 221.373 70.7856 222.456 71.3465C223.559 71.8882 224.41 72.7007 225.009 73.7839L222.891 75.1477C222.388 74.3933 221.769 73.842 221.034 73.4938C220.318 73.1262 219.545 72.9425 218.713 72.9425C217.707 72.9425 216.807 73.1649 216.014 73.6098C215.221 74.0548 214.592 74.6835 214.128 75.4959C213.664 76.2891 213.432 77.2369 213.432 78.3396C213.432 79.4422 213.664 80.3997 214.128 81.2122C214.592 82.0247 215.221 82.6534 216.014 83.0983C216.807 83.5432 217.707 83.7657 218.713 83.7657C219.545 83.7657 220.318 83.5916 221.034 83.2434C221.769 82.8758 222.388 82.3148 222.891 81.5604L225.009 82.8952C224.41 83.9591 223.559 84.7813 222.456 85.3616C221.373 85.9226 220.135 86.2031 218.742 86.2031Z" fill="black"/>
<path d="M202.783 86.2031C201.507 86.2031 200.288 86.029 199.127 85.6808C197.986 85.3326 197.086 84.907 196.429 84.404L197.589 82.1988C198.247 82.6437 199.06 83.0209 200.027 83.3304C200.994 83.6399 201.981 83.7947 202.986 83.7947C204.283 83.7947 205.211 83.6109 205.772 83.2434C206.352 82.8758 206.643 82.3632 206.643 81.7055C206.643 81.2219 206.468 80.8447 206.12 80.5738C205.772 80.303 205.308 80.0999 204.727 79.9645C204.166 79.8291 203.538 79.713 202.841 79.6163C202.145 79.5002 201.449 79.3648 200.752 79.2101C200.056 79.036 199.417 78.8038 198.837 78.5137C198.257 78.2042 197.792 77.7882 197.444 77.2659C197.096 76.7243 196.922 76.0086 196.922 75.1187C196.922 74.1902 197.183 73.3777 197.705 72.6813C198.228 71.9849 198.963 71.4529 199.911 71.0854C200.878 70.6985 202.019 70.5051 203.335 70.5051C204.341 70.5051 205.356 70.6308 206.381 70.8823C207.426 71.1144 208.277 71.4529 208.935 71.8979L207.745 74.1031C207.049 73.6389 206.323 73.3197 205.569 73.1456C204.815 72.9715 204.06 72.8844 203.306 72.8844C202.087 72.8844 201.178 73.0875 200.578 73.4938C199.978 73.8807 199.679 74.3836 199.679 75.0026C199.679 75.5249 199.853 75.9312 200.201 76.2213C200.568 76.4922 201.033 76.705 201.594 76.8597C202.174 77.0145 202.812 77.1499 203.509 77.2659C204.205 77.3627 204.902 77.4981 205.598 77.6722C206.294 77.8269 206.923 78.0494 207.484 78.3396C208.064 78.6297 208.529 79.036 208.877 79.5583C209.244 80.0806 209.428 80.777 209.428 81.6475C209.428 82.576 209.157 83.3788 208.616 84.0558C208.074 84.7329 207.31 85.2649 206.323 85.6518C205.337 86.0193 204.157 86.2031 202.783 86.2031Z" fill="black"/>
<path d="M288.351 61.1442V48.0867H291.456V61.1442H288.351ZM283.215 56.0663V53.1646H296.592V56.0663H283.215Z" fill="#FFD700"/>
<path d="M267.791 64.9455C266.514 64.9455 265.296 64.7714 264.135 64.4232C262.994 64.075 262.094 63.6494 261.437 63.1464L262.597 60.9412C263.255 61.3861 264.067 61.7633 265.035 62.0728C266.002 62.3823 266.988 62.5371 267.994 62.5371C269.29 62.5371 270.219 62.3533 270.78 61.9858C271.36 61.6182 271.65 61.1056 271.65 60.4479C271.65 59.9643 271.476 59.587 271.128 59.3162C270.78 59.0454 270.316 58.8423 269.735 58.7069C269.174 58.5715 268.546 58.4554 267.849 58.3587C267.153 58.2426 266.456 58.1072 265.76 57.9524C265.064 57.7783 264.425 57.5462 263.845 57.256C263.265 56.9465 262.8 56.5306 262.452 56.0083C262.104 55.4667 261.93 54.7509 261.93 53.8611C261.93 52.9326 262.191 52.1201 262.713 51.4237C263.236 50.7273 263.971 50.1953 264.919 49.8278C265.886 49.4409 267.027 49.2474 268.342 49.2474C269.348 49.2474 270.364 49.3732 271.389 49.6247C272.434 49.8568 273.285 50.1953 273.943 50.6402L272.753 52.8455C272.057 52.3812 271.331 52.0621 270.577 51.888C269.822 51.7139 269.068 51.6268 268.313 51.6268C267.095 51.6268 266.186 51.8299 265.586 52.2362C264.986 52.623 264.686 53.126 264.686 53.745C264.686 54.2673 264.86 54.6736 265.209 54.9637C265.576 55.2345 266.041 55.4473 266.601 55.6021C267.182 55.7568 267.82 55.8923 268.517 56.0083C269.213 56.105 269.909 56.2405 270.606 56.4146C271.302 56.5693 271.931 56.7918 272.492 57.0819C273.072 57.3721 273.536 57.7783 273.885 58.3006C274.252 58.8229 274.436 59.5193 274.436 60.3898C274.436 61.3184 274.165 62.1212 273.624 62.7982C273.082 63.4753 272.318 64.0072 271.331 64.3941C270.345 64.7617 269.165 64.9455 267.791 64.9455Z" fill="black"/>
<path d="M252.377 64.7714V49.3925H255.046V53.5709L254.785 52.5263C255.211 51.4624 255.927 50.6499 256.933 50.0889C257.938 49.5279 259.177 49.2474 260.647 49.2474V51.946C260.531 51.9266 260.415 51.917 260.299 51.917C260.202 51.917 260.105 51.917 260.008 51.917C258.519 51.917 257.339 52.3619 256.468 53.2517C255.598 54.1416 255.163 55.428 255.163 57.111V64.7714H252.377Z" fill="black"/>
<path d="M241.416 64.9455C239.868 64.9455 238.495 64.6069 237.295 63.9299C236.096 63.2528 235.148 62.3243 234.452 61.1443C233.755 59.9449 233.407 58.5908 233.407 57.0819C233.407 55.5537 233.755 54.1996 234.452 53.0196C235.148 51.8396 236.096 50.9207 237.295 50.263C238.495 49.586 239.868 49.2474 241.416 49.2474C242.944 49.2474 244.308 49.586 245.507 50.263C246.726 50.9207 247.674 51.8396 248.351 53.0196C249.047 54.1803 249.395 55.5344 249.395 57.0819C249.395 58.6101 249.047 59.9643 248.351 61.1443C247.674 62.3243 246.726 63.2528 245.507 63.9299C244.308 64.6069 242.944 64.9455 241.416 64.9455ZM241.416 62.5081C242.402 62.5081 243.283 62.2856 244.056 61.8407C244.849 61.3957 245.468 60.7671 245.913 59.9546C246.358 59.1228 246.581 58.1652 246.581 57.0819C246.581 55.9793 246.358 55.0314 245.913 54.2383C245.468 53.4258 244.849 52.7971 244.056 52.3522C243.283 51.9073 242.402 51.6848 241.416 51.6848C240.429 51.6848 239.549 51.9073 238.775 52.3522C238.002 52.7971 237.383 53.4258 236.918 54.2383C236.454 55.0314 236.222 55.9793 236.222 57.0819C236.222 58.1652 236.454 59.1228 236.918 59.9546C237.383 60.7671 238.002 61.3957 238.775 61.8407C239.549 62.2856 240.429 62.5081 241.416 62.5081Z" fill="black"/>
<path d="M223.869 64.9455C222.321 64.9455 220.948 64.6069 219.749 63.9299C218.549 63.2528 217.601 62.3243 216.905 61.1443C216.209 59.9449 215.86 58.5908 215.86 57.0819C215.86 55.5537 216.209 54.1996 216.905 53.0196C217.601 51.8396 218.549 50.9207 219.749 50.263C220.948 49.586 222.321 49.2474 223.869 49.2474C225.397 49.2474 226.761 49.586 227.96 50.263C229.179 50.9207 230.127 51.8396 230.804 53.0196C231.5 54.1803 231.849 55.5344 231.849 57.0819C231.849 58.6101 231.5 59.9643 230.804 61.1443C230.127 62.3243 229.179 63.2528 227.96 63.9299C226.761 64.6069 225.397 64.9455 223.869 64.9455ZM223.869 62.5081C224.856 62.5081 225.736 62.2856 226.509 61.8407C227.303 61.3957 227.922 60.7671 228.367 59.9546C228.811 59.1228 229.034 58.1652 229.034 57.0819C229.034 55.9793 228.811 55.0314 228.367 54.2383C227.922 53.4258 227.303 52.7971 226.509 52.3522C225.736 51.9073 224.856 51.6848 223.869 51.6848C222.882 51.6848 222.002 51.9073 221.228 52.3522C220.455 52.7971 219.836 53.4258 219.371 54.2383C218.907 55.0314 218.675 55.9793 218.675 57.0819C218.675 58.1652 218.907 59.1228 219.371 59.9546C219.836 60.7671 220.455 61.3957 221.228 61.8407C222.002 62.2856 222.882 62.5081 223.869 62.5081Z" fill="black"/>
<path d="M204.727 64.9445C203.237 64.9445 201.902 64.6157 200.722 63.958C199.562 63.3002 198.643 62.3814 197.966 61.2014C197.289 60.0214 196.95 58.6479 196.95 57.081C196.95 55.5141 197.289 54.1503 197.966 52.9897C198.643 51.8096 199.562 50.8908 200.722 50.2331C201.902 49.5754 203.237 49.2465 204.727 49.2465C206.023 49.2465 207.193 49.5367 208.238 50.117C209.282 50.6973 210.114 51.5678 210.733 52.7285C211.371 53.8892 211.691 55.34 211.691 57.081C211.691 58.822 211.381 60.2728 210.762 61.4335C210.162 62.5942 209.34 63.4743 208.296 64.074C207.251 64.6544 206.061 64.9445 204.727 64.9445ZM204.959 62.5071C205.926 62.5071 206.797 62.2847 207.57 61.8397C208.363 61.3948 208.982 60.7661 209.427 59.9536C209.892 59.1218 210.124 58.1643 210.124 57.081C210.124 55.9784 209.892 55.0305 209.427 54.2374C208.982 53.4249 208.363 52.7962 207.57 52.3513C206.797 51.9064 205.926 51.6839 204.959 51.6839C203.972 51.6839 203.092 51.9064 202.318 52.3513C201.545 52.7962 200.925 53.4249 200.461 54.2374C199.997 55.0305 199.765 55.9784 199.765 57.081C199.765 58.1643 199.997 59.1218 200.461 59.9536C200.925 60.7661 201.545 61.3948 202.318 61.8397C203.092 62.2847 203.972 62.5071 204.959 62.5071ZM210.211 64.7704V60.621L210.385 57.052L210.095 53.4829V43.2401H212.88V64.7704H210.211Z" fill="black"/>
<path d="M161.381 86.2038V81.1658L182.362 55.7842L183.829 58.5264H161.764V52.1491H190.206V57.1872L169.225 82.5688L167.631 79.8265H190.78V86.2038H161.381Z" fill="black"/>
<path fill-rule="evenodd" clip-rule="evenodd" d="M147.665 52.1487V86.2034H155.637V52.1487H147.665Z" fill="black"/>
<path d="M151.683 46.5367C150.195 46.5367 148.962 46.069 147.984 45.1337C147.049 44.1984 146.581 43.0717 146.581 41.7537C146.581 40.3932 147.049 39.2666 147.984 38.3738C148.962 37.4384 150.195 36.9708 151.683 36.9708C153.171 36.9708 154.383 37.4172 155.318 38.31C156.296 39.1603 156.785 40.2444 156.785 41.5624C156.785 42.9654 156.317 44.1558 155.382 45.1337C154.446 46.069 153.213 46.5367 151.683 46.5367Z" fill="#FFD700"/>
<path d="M123.109 86.2034V52.1486H130.698V61.5232L129.806 58.781C130.826 56.4852 132.42 54.7421 134.588 53.5516C136.799 52.3612 139.542 51.766 142.815 51.766V59.355C142.475 59.2699 142.156 59.2274 141.859 59.2274C141.561 59.1849 141.263 59.1636 140.966 59.1636C137.947 59.1636 135.545 60.0565 133.759 61.8421C131.974 63.5852 131.081 66.1999 131.081 69.6862V86.2034H123.109Z" fill="black"/>
<path d="M100.18 86.6496C97.2894 86.6496 94.7173 86.0118 92.464 84.7364C90.2107 83.4609 88.425 81.5477 87.107 78.9968C85.8316 76.4034 85.1939 73.1297 85.1939 69.1758C85.1939 65.1794 85.8528 61.9057 87.1708 59.3548C88.5313 56.8039 90.3382 54.9119 92.5915 53.679C94.8873 52.4035 97.417 51.7658 100.18 51.7658C103.539 51.7658 106.494 52.4886 109.045 53.9341C111.638 55.3796 113.679 57.3991 115.167 59.9925C116.698 62.5859 117.463 65.647 117.463 69.1758C117.463 72.7046 116.698 75.7657 115.167 78.3591C113.679 80.9525 111.638 82.9932 109.045 84.4813C106.494 85.9268 103.539 86.6496 100.18 86.6496ZM81.3037 86.2032V38.8837H89.2753V60.0563L88.6376 69.112L88.8927 78.1678V86.2032H81.3037ZM99.2877 79.8259C101.201 79.8259 102.901 79.4007 104.389 78.5504C105.92 77.7001 107.132 76.4672 108.025 74.8516C108.917 73.236 109.364 71.3441 109.364 69.1758C109.364 66.965 108.917 65.0731 108.025 63.5C107.132 61.8844 105.92 60.6515 104.389 59.8012C102.901 58.9509 101.201 58.5257 99.2877 58.5257C97.3745 58.5257 95.6526 58.9509 94.1221 59.8012C92.5915 60.6515 91.3798 61.8844 90.487 63.5C89.5942 65.0731 89.1478 66.965 89.1478 69.1758C89.1478 71.3441 89.5942 73.236 90.487 74.8516C91.3798 76.4672 92.5915 77.7001 94.1221 78.5504C95.6526 79.4007 97.3745 79.8259 99.2877 79.8259Z" fill="black"/>
<path d="M51.1053 25.0909C56.5734 23.9286 61.0061 27.5182 61.0061 33.1084V83.2124C61.0061 88.8026 56.5734 94.2766 51.1053 95.4388L34.769 98.9112C29.3009 100.073 24.8682 96.4839 24.8682 90.8937V40.7898C24.8682 35.1995 29.3009 29.7256 34.769 28.5633L51.1053 25.0909ZM52.0954 40.0634C52.0954 36.7093 49.4357 34.5556 46.1549 35.2529L39.7194 36.6209C36.4386 37.3182 33.7789 40.6026 33.7789 43.9567V83.9386C33.7789 87.2928 36.4386 89.4465 39.7194 88.7492L46.1549 87.3813C49.4357 86.6839 52.0954 83.3994 52.0954 80.0453V40.0634Z" fill="#1D1D1F"/>
</svg>
