<svg width="2701" height="1024" viewBox="0 0 2701 1024" fill="none" xmlns="http://www.w3.org/2000/svg">
<path d="M2440.42 711.868C2429.88 711.868 2419.81 710.43 2410.23 707.554C2400.8 704.679 2393.38 701.165 2387.95 697.011L2397.53 678.8C2402.96 682.474 2409.67 685.589 2417.66 688.145C2425.65 690.701 2433.79 691.979 2442.1 691.979C2452.8 691.979 2460.47 690.461 2465.1 687.426C2469.9 684.391 2472.29 680.158 2472.29 674.726C2472.29 670.733 2470.85 667.618 2467.98 665.381C2465.1 663.145 2461.27 661.467 2456.48 660.349C2451.84 659.231 2446.65 658.272 2440.9 657.474C2435.15 656.515 2429.4 655.397 2423.65 654.119C2417.9 652.681 2412.63 650.764 2407.83 648.368C2403.04 645.812 2399.21 642.377 2396.33 638.064C2393.46 633.591 2392.02 627.681 2392.02 620.332C2392.02 612.664 2394.18 605.955 2398.49 600.204C2402.8 594.453 2408.87 590.06 2416.7 587.025C2424.69 583.83 2434.11 582.232 2444.98 582.232C2453.28 582.232 2461.67 583.271 2470.14 585.347C2478.76 587.264 2485.79 590.06 2491.22 593.734L2481.4 611.945C2475.65 608.112 2469.66 605.476 2463.43 604.038C2457.2 602.6 2450.97 601.881 2444.74 601.881C2434.67 601.881 2427.16 603.559 2422.21 606.913C2417.26 610.108 2414.78 614.262 2414.78 619.374C2414.78 623.687 2416.22 627.042 2419.1 629.438C2422.13 631.674 2425.97 633.432 2430.6 634.71C2435.39 635.987 2440.66 637.106 2446.41 638.064C2452.16 638.863 2457.91 639.981 2463.67 641.419C2469.42 642.697 2474.61 644.534 2479.24 646.93C2484.03 649.326 2487.87 652.681 2490.74 656.994C2493.78 661.308 2495.3 667.058 2495.3 674.247C2495.3 681.915 2493.06 688.544 2488.59 694.136C2484.11 699.727 2477.8 704.12 2469.66 707.315C2461.51 710.35 2451.76 711.868 2440.42 711.868Z" fill="black"/>
<path d="M2315.9 582.232C2326.28 582.232 2335.39 584.229 2343.22 588.223C2351.2 592.217 2357.43 598.287 2361.91 606.434C2366.38 614.581 2368.62 624.885 2368.62 637.345V710.43H2345.61V639.981C2345.61 627.681 2342.58 618.415 2336.51 612.185C2330.6 605.955 2322.21 602.84 2311.35 602.84C2303.2 602.84 2296.09 604.437 2290.02 607.632C2283.95 610.827 2279.24 615.54 2275.88 621.77C2272.69 628 2271.09 635.748 2271.09 645.013V710.43H2248.09V583.431H2270.13V617.696L2266.54 608.591C2270.69 600.284 2277.08 593.814 2285.71 589.181C2294.33 584.549 2304.4 582.232 2315.9 582.232Z" fill="black"/>
<path d="M2165.1 711.868C2151.53 711.868 2139.54 709.072 2129.16 703.481C2118.94 697.89 2110.95 690.222 2105.2 680.477C2099.61 670.733 2096.81 659.55 2096.81 646.93C2096.81 634.31 2099.53 623.128 2104.96 613.383C2110.55 603.639 2118.14 596.051 2127.72 590.619C2137.47 585.028 2148.41 582.232 2160.55 582.232C2172.85 582.232 2183.71 584.948 2193.14 590.38C2202.56 595.811 2209.91 603.479 2215.18 613.383C2220.62 623.128 2223.33 634.55 2223.33 647.649C2223.33 648.608 2223.25 649.726 2223.09 651.004C2223.09 652.282 2223.01 653.48 2222.85 654.598H2114.78V638.064H2210.87L2201.53 643.815C2201.69 635.668 2200.01 628.399 2196.49 622.01C2192.98 615.62 2188.11 610.668 2181.88 607.153C2175.81 603.479 2168.7 601.642 2160.55 601.642C2152.56 601.642 2145.45 603.479 2139.22 607.153C2132.99 610.668 2128.12 615.7 2124.61 622.249C2121.09 628.639 2119.34 635.988 2119.34 644.294V648.128C2119.34 656.595 2121.25 664.183 2125.09 670.892C2129.08 677.442 2134.59 682.554 2141.62 686.228C2148.65 689.902 2156.72 691.739 2165.82 691.739C2173.33 691.739 2180.12 690.461 2186.19 687.905C2192.42 685.35 2197.85 681.516 2202.48 676.404L2215.18 691.26C2209.43 697.97 2202.24 703.081 2193.62 706.596C2185.15 710.11 2175.65 711.868 2165.1 711.868Z" fill="black"/>
<path d="M2025.57 711.868C2011.99 711.868 2000.01 709.072 1989.63 703.481C1979.41 697.89 1971.42 690.222 1965.67 680.477C1960.08 670.733 1957.28 659.55 1957.28 646.93C1957.28 634.31 1960 623.128 1965.43 613.383C1971.02 603.639 1978.61 596.051 1988.19 590.619C1997.94 585.028 2008.88 582.232 2021.02 582.232C2033.32 582.232 2044.18 584.948 2053.61 590.38C2063.03 595.811 2070.38 603.479 2075.65 613.383C2081.08 623.128 2083.8 634.55 2083.8 647.649C2083.8 648.608 2083.72 649.726 2083.56 651.004C2083.56 652.282 2083.48 653.48 2083.32 654.598H1975.25V638.064H2071.34L2061.99 643.815C2062.15 635.668 2060.48 628.399 2056.96 622.01C2053.45 615.62 2048.58 610.668 2042.35 607.153C2036.28 603.479 2029.17 601.642 2021.02 601.642C2013.03 601.642 2005.92 603.479 1999.69 607.153C1993.46 610.668 1988.59 615.7 1985.08 622.249C1981.56 628.639 1979.8 635.988 1979.8 644.294V648.128C1979.8 656.595 1981.72 664.183 1985.56 670.892C1989.55 677.442 1995.06 682.554 2002.09 686.228C2009.12 689.902 2017.19 691.739 2026.29 691.739C2033.8 691.739 2040.59 690.461 2046.66 687.905C2052.89 685.35 2058.32 681.516 2062.95 676.404L2075.65 691.26C2069.9 697.97 2062.71 703.081 2054.09 706.596C2045.62 710.11 2036.12 711.868 2025.57 711.868Z" fill="black"/>
<path d="M1880.74 710.43V583.431H1902.78V617.936L1900.62 609.31C1904.14 600.524 1910.05 593.814 1918.36 589.181C1926.66 584.549 1936.89 582.232 1949.03 582.232V604.517C1948.07 604.357 1947.11 604.278 1946.15 604.278C1945.35 604.278 1944.55 604.278 1943.76 604.278C1931.46 604.278 1921.71 607.952 1914.52 615.3C1907.33 622.649 1903.74 633.272 1903.74 647.17V710.43H1880.74Z" fill="black"/>
<path d="M1806.38 711.868C1793.44 711.868 1781.86 709.072 1771.64 703.481C1761.57 697.89 1753.67 690.222 1747.92 680.477C1742.16 670.733 1739.29 659.55 1739.29 646.93C1739.29 634.31 1742.16 623.128 1747.92 613.383C1753.67 603.639 1761.57 596.051 1771.64 590.619C1781.86 585.028 1793.44 582.232 1806.38 582.232C1817.88 582.232 1828.11 584.549 1837.05 589.181C1846.16 593.654 1853.19 600.364 1858.14 609.31L1840.65 620.572C1836.5 614.342 1831.38 609.789 1825.31 606.913C1819.4 603.878 1813.01 602.361 1806.14 602.361C1797.84 602.361 1790.41 604.198 1783.86 607.872C1777.31 611.546 1772.12 616.738 1768.28 623.447C1764.45 629.997 1762.53 637.825 1762.53 646.93C1762.53 656.036 1764.45 663.943 1768.28 670.653C1772.12 677.362 1777.31 682.554 1783.86 686.228C1790.41 689.902 1797.84 691.739 1806.14 691.739C1813.01 691.739 1819.4 690.302 1825.31 687.426C1831.38 684.391 1836.5 679.758 1840.65 673.528L1858.14 684.551C1853.19 693.337 1846.16 700.126 1837.05 704.919C1828.11 709.551 1817.88 711.868 1806.38 711.868Z" fill="black"/>
<path d="M1674.6 711.868C1664.05 711.868 1653.99 710.43 1644.4 707.554C1634.98 704.679 1627.55 701.165 1622.12 697.011L1631.7 678.8C1637.14 682.474 1643.85 685.589 1651.83 688.145C1659.82 690.701 1667.97 691.979 1676.27 691.979C1686.98 691.979 1694.65 690.461 1699.28 687.426C1704.07 684.391 1706.47 680.158 1706.47 674.726C1706.47 670.733 1705.03 667.618 1702.15 665.381C1699.28 663.145 1695.44 661.467 1690.65 660.349C1686.02 659.231 1680.83 658.272 1675.08 657.474C1669.33 656.515 1663.57 655.397 1657.82 654.119C1652.07 652.681 1646.8 650.764 1642.01 648.368C1637.22 645.812 1633.38 642.377 1630.51 638.064C1627.63 633.591 1626.19 627.681 1626.19 620.332C1626.19 612.664 1628.35 605.955 1632.66 600.204C1636.98 594.453 1643.05 590.06 1650.87 587.025C1658.86 583.83 1668.29 582.232 1679.15 582.232C1687.46 582.232 1695.84 583.271 1704.31 585.347C1712.94 587.264 1719.97 590.06 1725.4 593.734L1715.57 611.945C1709.82 608.112 1703.83 605.476 1697.6 604.038C1691.37 602.6 1685.14 601.881 1678.91 601.881C1668.85 601.881 1661.34 603.559 1656.39 606.913C1651.43 610.108 1648.96 614.262 1648.96 619.374C1648.96 623.687 1650.4 627.042 1653.27 629.438C1656.31 631.674 1660.14 633.432 1664.77 634.71C1669.57 635.987 1674.84 637.106 1680.59 638.064C1686.34 638.863 1692.09 639.981 1697.84 641.419C1703.59 642.697 1708.78 644.534 1713.42 646.93C1718.21 649.326 1722.04 652.681 1724.92 656.994C1727.95 661.308 1729.47 667.058 1729.47 674.247C1729.47 681.915 1727.23 688.544 1722.76 694.136C1718.29 699.727 1711.98 704.12 1703.83 707.315C1695.68 710.35 1685.94 711.868 1674.6 711.868Z" fill="black"/>
<path d="M2381.21 504.93V397.101H2406.85V504.93H2381.21ZM2338.8 462.996V439.034H2449.27V462.996H2338.8Z" fill="#FFD700"/>
<path d="M2211.43 536.32C2200.89 536.32 2190.83 534.882 2181.24 532.007C2171.82 529.131 2164.39 525.617 2158.96 521.463L2168.54 503.252C2173.97 506.926 2180.68 510.041 2188.67 512.597C2196.66 515.153 2204.8 516.431 2213.11 516.431C2223.81 516.431 2231.48 514.914 2236.11 511.878C2240.91 508.843 2243.3 504.61 2243.3 499.178C2243.3 495.185 2241.87 492.07 2238.99 489.833C2236.11 487.597 2232.28 485.919 2227.49 484.801C2222.86 483.683 2217.66 482.724 2211.91 481.926C2206.16 480.967 2200.41 479.849 2194.66 478.571C2188.91 477.133 2183.64 475.216 2178.84 472.82C2174.05 470.264 2170.22 466.83 2167.34 462.516C2164.47 458.043 2163.03 452.133 2163.03 444.784C2163.03 437.116 2165.19 430.407 2169.5 424.656C2173.81 418.905 2179.88 414.512 2187.71 411.477C2195.7 408.282 2205.12 406.685 2215.99 406.685C2224.29 406.685 2232.68 407.723 2241.15 409.8C2249.77 411.717 2256.8 414.512 2262.23 418.186L2252.41 436.398C2246.66 432.564 2240.67 429.928 2234.44 428.49C2228.21 427.052 2221.98 426.334 2215.75 426.334C2205.68 426.334 2198.17 428.011 2193.22 431.366C2188.27 434.561 2185.79 438.714 2185.79 443.826C2185.79 448.139 2187.23 451.494 2190.11 453.89C2193.14 456.126 2196.98 457.884 2201.61 459.162C2206.4 460.44 2211.67 461.558 2217.42 462.516C2223.17 463.315 2228.93 464.433 2234.68 465.871C2240.43 467.149 2245.62 468.986 2250.25 471.382C2255.04 473.779 2258.88 477.133 2261.75 481.446C2264.79 485.76 2266.31 491.511 2266.31 498.699C2266.31 506.367 2264.07 512.997 2259.6 518.588C2255.12 524.179 2248.81 528.572 2240.67 531.767C2232.52 534.802 2222.78 536.32 2211.43 536.32Z" fill="black"/>
<path d="M2084.15 534.882V407.883H2106.2V442.388L2104.04 433.762C2107.56 424.976 2113.47 418.266 2121.77 413.634C2130.08 409.001 2140.3 406.685 2152.44 406.685V428.969C2151.49 428.81 2150.53 428.73 2149.57 428.73C2148.77 428.73 2147.97 428.73 2147.17 428.73C2134.87 428.73 2125.13 432.404 2117.94 439.752C2110.75 447.101 2107.16 457.724 2107.16 471.622V534.882H2084.15Z" fill="black"/>
<path d="M1993.63 536.32C1980.85 536.32 1969.51 533.524 1959.6 527.933C1949.7 522.342 1941.87 514.674 1936.12 504.929C1930.37 495.025 1927.5 483.843 1927.5 471.382C1927.5 458.762 1930.37 447.58 1936.12 437.835C1941.87 428.091 1949.7 420.503 1959.6 415.071C1969.51 409.48 1980.85 406.685 1993.63 406.685C2006.25 406.685 2017.51 409.48 2027.42 415.071C2037.48 420.503 2045.31 428.091 2050.9 437.835C2056.65 447.42 2059.53 458.603 2059.53 471.382C2059.53 484.002 2056.65 495.185 2050.9 504.929C2045.31 514.674 2037.48 522.342 2027.42 527.933C2017.51 533.524 2006.25 536.32 1993.63 536.32ZM1993.63 516.192C2001.78 516.192 2009.05 514.354 2015.44 510.68C2021.99 507.006 2027.1 501.814 2030.77 495.105C2034.45 488.236 2036.28 480.328 2036.28 471.382C2036.28 462.277 2034.45 454.449 2030.77 447.899C2027.1 441.19 2021.99 435.998 2015.44 432.324C2009.05 428.65 2001.78 426.813 1993.63 426.813C1985.48 426.813 1978.22 428.65 1971.83 432.324C1965.44 435.998 1960.32 441.19 1956.49 447.899C1952.66 454.449 1950.74 462.277 1950.74 471.382C1950.74 480.328 1952.66 488.236 1956.49 495.105C1960.32 501.814 1965.44 507.006 1971.83 510.68C1978.22 514.354 1985.48 516.192 1993.63 516.192Z" fill="black"/>
<path d="M1848.72 536.32C1835.94 536.32 1824.59 533.524 1814.69 527.933C1804.78 522.342 1796.96 514.674 1791.21 504.929C1785.46 495.025 1782.58 483.843 1782.58 471.382C1782.58 458.762 1785.46 447.58 1791.21 437.835C1796.96 428.091 1804.78 420.503 1814.69 415.071C1824.59 409.48 1835.94 406.685 1848.72 406.685C1861.34 406.685 1872.6 409.48 1882.5 415.071C1892.57 420.503 1900.39 428.091 1905.99 437.835C1911.74 447.42 1914.61 458.603 1914.61 471.382C1914.61 484.002 1911.74 495.185 1905.99 504.929C1900.39 514.674 1892.57 522.342 1882.5 527.933C1872.6 533.524 1861.34 536.32 1848.72 536.32ZM1848.72 516.192C1856.86 516.192 1864.13 514.354 1870.52 510.68C1877.07 507.006 1882.18 501.814 1885.86 495.105C1889.53 488.236 1891.37 480.328 1891.37 471.382C1891.37 462.277 1889.53 454.449 1885.86 447.899C1882.18 441.19 1877.07 435.998 1870.52 432.324C1864.13 428.65 1856.86 426.813 1848.72 426.813C1840.57 426.813 1833.3 428.65 1826.91 432.324C1820.52 435.998 1815.41 441.19 1811.57 447.899C1807.74 454.449 1805.82 462.277 1805.82 471.382C1805.82 480.328 1807.74 488.236 1811.57 495.105C1815.41 501.814 1820.52 507.006 1826.91 510.68C1833.3 514.354 1840.57 516.192 1848.72 516.192Z" fill="black"/>
<path d="M1690.65 536.32C1678.35 536.32 1667.33 533.604 1657.58 528.173C1648 522.741 1640.41 515.153 1634.82 505.409C1629.23 495.664 1626.43 484.322 1626.43 471.382C1626.43 458.443 1629.23 447.181 1634.82 437.596C1640.41 427.851 1648 420.263 1657.58 414.832C1667.33 409.4 1678.35 406.685 1690.65 406.685C1701.35 406.685 1711.02 409.081 1719.65 413.873C1728.27 418.666 1735.14 425.854 1740.25 435.439C1745.52 445.024 1748.16 457.005 1748.16 471.382C1748.16 485.76 1745.6 497.741 1740.49 507.326C1735.54 516.911 1728.75 524.179 1720.12 529.131C1711.5 533.924 1701.67 536.32 1690.65 536.32ZM1692.57 516.192C1700.56 516.192 1707.74 514.355 1714.13 510.68C1720.68 507.006 1725.8 501.814 1729.47 495.105C1733.3 488.236 1735.22 480.328 1735.22 471.382C1735.22 462.277 1733.3 454.449 1729.47 447.9C1725.8 441.19 1720.68 435.998 1714.13 432.324C1707.74 428.65 1700.56 426.813 1692.57 426.813C1684.42 426.813 1677.15 428.65 1670.76 432.324C1664.37 435.998 1659.26 441.19 1655.43 447.9C1651.59 454.449 1649.68 462.277 1649.68 471.382C1649.68 480.328 1651.59 488.236 1655.43 495.105C1659.26 501.814 1664.37 507.006 1670.76 510.68C1677.15 514.355 1684.42 516.192 1692.57 516.192ZM1735.94 534.882V500.616L1737.38 471.143L1734.98 441.669V357.083H1757.98V534.882H1735.94Z" fill="black"/>
<path d="M1332.7 711.867V670.262L1505.97 460.659L1518.08 483.305H1335.86V430.641H1570.75V472.245L1397.48 681.848L1384.31 659.203H1575.49V711.867H1332.7Z" fill="black"/>
<path fill-rule="evenodd" clip-rule="evenodd" d="M1219.44 430.64V711.866H1285.27V430.64H1219.44Z" fill="black"/>
<path d="M1252.62 384.296C1240.33 384.296 1230.15 380.434 1222.08 372.71C1214.35 364.986 1210.49 355.682 1210.49 344.798C1210.49 333.563 1214.35 324.259 1222.08 316.886C1230.15 309.162 1240.33 305.3 1252.62 305.3C1264.91 305.3 1274.92 308.986 1282.64 316.359C1290.72 323.381 1294.75 332.334 1294.75 343.218C1294.75 354.804 1290.89 364.635 1283.17 372.71C1275.44 380.434 1265.26 384.296 1252.62 384.296Z" fill="#FFD700"/>
<path d="M1016.67 711.865V430.639H1079.34V508.056L1071.96 485.41C1080.39 466.451 1093.56 452.056 1111.46 442.225C1129.72 432.395 1152.36 427.479 1179.4 427.479V490.15C1176.59 489.448 1173.96 489.096 1171.5 489.096C1169.04 488.745 1166.58 488.57 1164.13 488.57C1139.2 488.57 1119.36 495.943 1104.62 510.689C1089.87 525.084 1082.5 546.676 1082.5 575.466V711.865H1016.67Z" fill="black"/>
<path d="M827.314 715.552C803.44 715.552 782.199 710.286 763.591 699.753C744.983 689.22 730.237 673.421 719.353 652.356C708.82 630.939 703.554 603.905 703.554 571.253C703.554 538.25 708.996 511.216 719.88 490.15C731.115 469.085 746.036 453.461 764.644 443.279C783.603 432.746 804.493 427.48 827.314 427.48C855.051 427.48 879.452 433.449 900.517 445.386C921.934 457.323 938.787 474 951.075 495.417C963.714 516.833 970.034 542.112 970.034 571.253C970.034 600.394 963.714 625.672 951.075 647.089C938.787 668.506 921.934 685.358 900.517 697.647C879.452 709.584 855.051 715.552 827.314 715.552ZM671.429 711.866V321.099H737.259V495.943L731.992 570.726L734.099 645.509V711.866H671.429ZM819.941 659.202C835.741 659.202 849.784 655.691 862.073 648.669C874.712 641.647 884.718 631.466 892.091 618.124C899.464 604.782 903.151 589.159 903.151 571.253C903.151 552.996 899.464 537.372 892.091 524.382C884.718 511.04 874.712 500.859 862.073 493.837C849.784 486.815 835.741 483.304 819.941 483.304C804.142 483.304 789.923 486.815 777.283 493.837C764.644 500.859 754.638 511.04 747.265 524.382C739.892 537.372 736.206 552.996 736.206 571.253C736.206 589.159 739.892 604.782 747.265 618.124C754.638 631.466 764.644 641.647 777.283 648.669C789.923 655.691 804.142 659.202 819.941 659.202Z" fill="black"/>
<path d="M422.054 207.194C467.209 197.596 503.815 227.239 503.815 273.404V687.165C503.815 733.329 467.209 778.534 422.054 788.132L287.147 816.807C241.992 826.405 205.386 796.762 205.386 750.598V336.837C205.386 290.672 241.992 245.468 287.147 235.87L422.054 207.194ZM430.23 330.838C430.23 303.139 408.266 285.354 381.173 291.113L328.028 302.41C300.935 308.168 278.971 335.291 278.971 362.989V693.163C278.971 720.861 300.935 738.647 328.028 732.888L381.173 721.592C408.266 715.833 430.23 688.71 430.23 661.011V330.838Z" fill="#1D1D1F"/>
</svg>
