<svg width="1351" height="512" viewBox="0 0 1351 512" fill="none" xmlns="http://www.w3.org/2000/svg">
<path d="M1220.21 355.933C1214.94 355.933 1209.91 355.214 1205.12 353.776C1200.4 352.339 1196.69 350.581 1193.97 348.505L1198.77 339.399C1201.48 341.236 1204.84 342.794 1208.83 344.072C1212.82 345.35 1216.9 345.989 1221.05 345.989C1226.4 345.989 1230.24 345.23 1232.55 343.712C1234.95 342.195 1236.15 340.078 1236.15 337.362C1236.15 335.365 1235.43 333.808 1233.99 332.69C1232.55 331.571 1230.63 330.733 1228.24 330.174C1225.92 329.614 1223.33 329.135 1220.45 328.736C1217.58 328.257 1214.7 327.697 1211.82 327.058C1208.95 326.34 1206.31 325.381 1203.92 324.183C1201.52 322.905 1199.6 321.188 1198.17 319.031C1196.73 316.795 1196.01 313.839 1196.01 310.165C1196.01 306.331 1197.09 302.976 1199.24 300.101C1201.4 297.226 1204.44 295.029 1208.35 293.511C1212.34 291.914 1217.06 291.115 1222.49 291.115C1226.64 291.115 1230.83 291.634 1235.07 292.673C1239.38 293.631 1242.9 295.029 1245.61 296.866L1240.7 305.972C1237.82 304.055 1234.83 302.737 1231.71 302.018C1228.6 301.299 1225.48 300.94 1222.37 300.94C1217.34 300.94 1213.58 301.778 1211.11 303.456C1208.63 305.053 1207.39 307.13 1207.39 309.686C1207.39 311.842 1208.11 313.52 1209.55 314.718C1211.07 315.836 1212.98 316.715 1215.3 317.354C1217.7 317.993 1220.33 318.552 1223.21 319.031C1226.08 319.43 1228.96 319.99 1231.83 320.708C1234.71 321.347 1237.3 322.266 1239.62 323.464C1242.02 324.662 1243.93 326.34 1245.37 328.496C1246.89 330.653 1247.65 333.528 1247.65 337.123C1247.65 340.957 1246.53 344.271 1244.29 347.067C1242.06 349.862 1238.9 352.059 1234.83 353.656C1230.75 355.174 1225.88 355.933 1220.21 355.933Z" fill="black"/>
<path d="M1157.95 291.115C1163.14 291.115 1167.69 292.114 1171.61 294.11C1175.6 296.107 1178.72 299.143 1180.95 303.216C1183.19 307.29 1184.31 312.442 1184.31 318.672V355.214H1172.81V319.99C1172.81 313.839 1171.29 309.207 1168.25 306.092C1165.3 302.976 1161.1 301.419 1155.67 301.419C1151.6 301.419 1148.05 302.218 1145.01 303.815C1141.97 305.413 1139.62 307.769 1137.94 310.884C1136.34 313.999 1135.54 317.873 1135.54 322.506V355.214H1124.04V291.714H1135.07V308.847L1133.27 304.294C1135.35 300.141 1138.54 296.906 1142.85 294.59C1147.17 292.273 1152.2 291.115 1157.95 291.115Z" fill="black"/>
<path d="M1082.55 355.933C1075.76 355.933 1069.77 354.535 1064.58 351.739C1059.47 348.944 1055.47 345.11 1052.6 340.238C1049.8 335.365 1048.41 329.774 1048.41 323.464C1048.41 317.154 1049.76 311.563 1052.48 306.691C1055.27 301.818 1059.07 298.024 1063.86 295.309C1068.73 292.513 1074.2 291.115 1080.27 291.115C1086.43 291.115 1091.86 292.473 1096.57 295.189C1101.28 297.905 1104.96 301.738 1107.59 306.691C1110.31 311.563 1111.67 317.274 1111.67 323.824C1111.67 324.303 1111.63 324.862 1111.55 325.501C1111.55 326.14 1111.51 326.739 1111.43 327.298H1057.39V319.031H1105.44L1100.76 321.907C1100.84 317.833 1100 314.199 1098.25 311.004C1096.49 307.809 1094.05 305.333 1090.94 303.576C1087.9 301.738 1084.35 300.82 1080.27 300.82C1076.28 300.82 1072.73 301.738 1069.61 303.576C1066.5 305.333 1064.06 307.849 1062.3 311.124C1060.55 314.319 1059.67 317.993 1059.67 322.146V324.063C1059.67 328.296 1060.63 332.09 1062.54 335.445C1064.54 338.72 1067.3 341.276 1070.81 343.113C1074.32 344.95 1078.36 345.869 1082.91 345.869C1086.66 345.869 1090.06 345.23 1093.09 343.952C1096.21 342.674 1098.93 340.757 1101.24 338.201L1107.59 345.629C1104.72 348.984 1101.12 351.54 1096.81 353.297C1092.58 355.054 1087.82 355.933 1082.55 355.933Z" fill="black"/>
<path d="M1012.79 355.933C1006 355.933 1000.01 354.535 994.814 351.739C989.702 348.944 985.708 345.11 982.833 340.238C980.037 335.365 978.64 329.774 978.64 323.464C978.64 317.154 979.998 311.563 982.713 306.691C985.509 301.818 989.303 298.024 994.095 295.309C998.968 292.513 1004.44 291.115 1010.51 291.115C1016.66 291.115 1022.09 292.473 1026.8 295.189C1031.52 297.905 1035.19 301.738 1037.83 306.691C1040.54 311.563 1041.9 317.274 1041.9 323.824C1041.9 324.303 1041.86 324.862 1041.78 325.501C1041.78 326.14 1041.74 326.739 1041.66 327.298H987.625V319.031H1035.67L1031 321.907C1031.08 317.833 1030.24 314.199 1028.48 311.004C1026.72 307.809 1024.29 305.333 1021.17 303.576C1018.14 301.738 1014.58 300.82 1010.51 300.82C1006.52 300.82 1002.96 301.738 999.846 303.576C996.731 305.333 994.295 307.849 992.538 311.124C990.78 314.319 989.902 317.993 989.902 322.146V324.063C989.902 328.296 990.86 332.09 992.777 335.445C994.774 338.72 997.53 341.276 1001.04 343.113C1004.56 344.95 1008.59 345.869 1013.15 345.869C1016.9 345.869 1020.29 345.23 1023.33 343.952C1026.44 342.674 1029.16 340.757 1031.48 338.201L1037.83 345.629C1034.95 348.984 1031.36 351.54 1027.04 353.297C1022.81 355.054 1018.06 355.933 1012.79 355.933Z" fill="black"/>
<path d="M940.368 355.214V291.714H951.391V308.967L950.312 304.654C952.07 300.261 955.025 296.906 959.178 294.59C963.332 292.273 968.444 291.115 974.514 291.115V302.258C974.035 302.178 973.556 302.138 973.077 302.138C972.677 302.138 972.278 302.138 971.878 302.138C965.728 302.138 960.856 303.975 957.261 307.649C953.667 311.323 951.87 316.635 951.87 323.584V355.214H940.368Z" fill="black"/>
<path d="M903.192 355.933C896.722 355.933 890.931 354.535 885.819 351.739C880.787 348.944 876.833 345.11 873.958 340.238C871.082 335.365 869.645 329.774 869.645 323.464C869.645 317.154 871.082 311.563 873.958 306.691C876.833 301.818 880.787 298.024 885.819 295.309C890.931 292.513 896.722 291.115 903.192 291.115C908.942 291.115 914.054 292.273 918.527 294.59C923.08 296.826 926.595 300.181 929.071 304.654L920.324 310.285C918.248 307.17 915.692 304.893 912.657 303.456C909.701 301.938 906.506 301.179 903.072 301.179C898.918 301.179 895.204 302.098 891.929 303.935C888.654 305.772 886.059 308.368 884.142 311.723C882.225 314.998 881.266 318.911 881.266 323.464C881.266 328.017 882.225 331.971 884.142 335.325C886.059 338.68 888.654 341.276 891.929 343.113C895.204 344.95 898.918 345.869 903.072 345.869C906.506 345.869 909.701 345.15 912.657 343.712C915.692 342.195 918.248 339.878 920.324 336.763L929.071 342.274C926.595 346.667 923.08 350.062 918.527 352.458C914.054 354.775 908.942 355.933 903.192 355.933Z" fill="black"/>
<path d="M837.298 355.933C832.026 355.933 826.994 355.214 822.202 353.776C817.489 352.339 813.775 350.581 811.06 348.505L815.852 339.399C818.568 341.236 821.922 342.794 825.916 344.072C829.91 345.35 833.983 345.989 838.137 345.989C843.488 345.989 847.322 345.23 849.639 343.712C852.035 342.195 853.233 340.078 853.233 337.362C853.233 335.365 852.514 333.808 851.076 332.69C849.639 331.571 847.722 330.733 845.325 330.174C843.009 329.614 840.413 329.135 837.538 328.736C834.662 328.257 831.787 327.697 828.911 327.058C826.036 326.34 823.4 325.381 821.004 324.183C818.608 322.905 816.691 321.188 815.253 319.031C813.815 316.795 813.096 313.839 813.096 310.165C813.096 306.331 814.175 302.976 816.331 300.101C818.488 297.226 821.523 295.029 825.437 293.511C829.431 291.914 834.143 291.115 839.575 291.115C843.728 291.115 847.921 291.634 852.155 292.673C856.468 293.631 859.982 295.029 862.698 296.866L857.786 305.972C854.91 304.055 851.915 302.737 848.8 302.018C845.685 301.299 842.57 300.94 839.455 300.94C834.423 300.94 830.669 301.778 828.193 303.456C825.716 305.053 824.478 307.13 824.478 309.686C824.478 311.842 825.197 313.52 826.635 314.718C828.153 315.836 830.07 316.715 832.386 317.354C834.782 317.993 837.418 318.552 840.293 319.031C843.169 319.43 846.044 319.99 848.92 320.708C851.795 321.347 854.391 322.266 856.707 323.464C859.104 324.662 861.021 326.34 862.458 328.496C863.976 330.653 864.735 333.528 864.735 337.123C864.735 340.957 863.617 344.271 861.38 347.067C859.144 349.862 855.989 352.059 851.915 353.656C847.841 355.174 842.969 355.933 837.298 355.933Z" fill="black"/>
<path d="M1190.61 252.465V198.55H1203.43V252.465H1190.61ZM1169.4 231.498V219.517H1224.63V231.498H1169.4Z" fill="#FFD700"/>
<path d="M1105.72 268.159C1100.44 268.159 1095.41 267.441 1090.62 266.003C1085.91 264.565 1082.19 262.808 1079.48 260.731L1084.27 251.626C1086.99 253.463 1090.34 255.02 1094.33 256.298C1098.33 257.576 1102.4 258.215 1106.55 258.215C1111.91 258.215 1115.74 257.456 1118.06 255.939C1120.45 254.421 1121.65 252.304 1121.65 249.589C1121.65 247.592 1120.93 246.034 1119.49 244.916C1118.06 243.798 1116.14 242.959 1113.74 242.4C1111.43 241.841 1108.83 241.362 1105.96 240.962C1103.08 240.483 1100.2 239.924 1097.33 239.285C1094.45 238.566 1091.82 237.608 1089.42 236.41C1087.03 235.132 1085.11 233.414 1083.67 231.258C1082.23 229.021 1081.51 226.066 1081.51 222.392C1081.51 218.558 1082.59 215.203 1084.75 212.328C1086.91 209.452 1089.94 207.256 1093.85 205.738C1097.85 204.141 1102.56 203.342 1107.99 203.342C1112.15 203.342 1116.34 203.861 1120.57 204.899C1124.89 205.858 1128.4 207.256 1131.12 209.093L1126.2 218.198C1123.33 216.281 1120.33 214.963 1117.22 214.245C1114.1 213.526 1110.99 213.166 1107.87 213.166C1102.84 213.166 1099.09 214.005 1096.61 215.682C1094.13 217.28 1092.9 219.356 1092.9 221.912C1092.9 224.069 1093.62 225.746 1095.05 226.945C1096.57 228.063 1098.49 228.941 1100.8 229.58C1103.2 230.219 1105.84 230.778 1108.71 231.258C1111.59 231.657 1114.46 232.216 1117.34 232.935C1120.21 233.574 1122.81 234.493 1125.13 235.691C1127.52 236.889 1129.44 238.566 1130.88 240.723C1132.39 242.879 1133.15 245.755 1133.15 249.349C1133.15 253.183 1132.03 256.498 1129.8 259.293C1127.56 262.089 1124.41 264.286 1120.33 265.883C1116.26 267.401 1111.39 268.159 1105.72 268.159Z" fill="black"/>
<path d="M1042.08 267.441V203.941H1053.1V221.194L1052.02 216.88C1053.78 212.487 1056.73 209.133 1060.89 206.816C1065.04 204.5 1070.15 203.342 1076.22 203.342V214.484C1075.74 214.404 1075.26 214.364 1074.78 214.364C1074.39 214.364 1073.99 214.364 1073.59 214.364C1067.44 214.364 1062.56 216.201 1058.97 219.876C1055.38 223.55 1053.58 228.861 1053.58 235.811V267.441H1042.08Z" fill="black"/>
<path d="M996.815 268.159C990.425 268.159 984.754 266.762 979.802 263.966C974.85 261.17 970.936 257.337 968.06 252.464C965.185 247.512 963.747 241.921 963.747 235.691C963.747 229.381 965.185 223.789 968.06 218.917C970.936 214.045 974.85 210.251 979.802 207.535C984.754 204.74 990.425 203.342 996.815 203.342C1003.12 203.342 1008.76 204.74 1013.71 207.535C1018.74 210.251 1022.65 214.045 1025.45 218.917C1028.33 223.71 1029.76 229.301 1029.76 235.691C1029.76 242.001 1028.33 247.592 1025.45 252.464C1022.65 257.337 1018.74 261.17 1013.71 263.966C1008.76 266.762 1003.12 268.159 996.815 268.159ZM996.815 258.095C1000.89 258.095 1004.52 257.177 1007.72 255.34C1010.99 253.503 1013.55 250.907 1015.39 247.552C1017.22 244.117 1018.14 240.164 1018.14 235.691C1018.14 231.138 1017.22 227.224 1015.39 223.949C1013.55 220.595 1010.99 217.999 1007.72 216.162C1004.52 214.324 1000.89 213.406 996.815 213.406C992.741 213.406 989.107 214.324 985.912 216.162C982.717 217.999 980.161 220.595 978.244 223.949C976.327 227.224 975.369 231.138 975.369 235.691C975.369 240.164 976.327 244.117 978.244 247.552C980.161 250.907 982.717 253.503 985.912 255.34C989.107 257.177 992.741 258.095 996.815 258.095Z" fill="black"/>
<path d="M924.358 268.159C917.968 268.159 912.297 266.762 907.345 263.966C902.392 261.17 898.479 257.337 895.603 252.464C892.728 247.512 891.29 241.921 891.29 235.691C891.29 229.381 892.728 223.789 895.603 218.917C898.479 214.045 902.392 210.251 907.345 207.535C912.297 204.74 917.968 203.342 924.358 203.342C930.668 203.342 936.299 204.74 941.251 207.535C946.283 210.251 950.197 214.045 952.993 218.917C955.868 223.71 957.306 229.301 957.306 235.691C957.306 242.001 955.868 247.592 952.993 252.464C950.197 257.337 946.283 261.17 941.251 263.966C936.299 266.762 930.668 268.159 924.358 268.159ZM924.358 258.095C928.431 258.095 932.066 257.177 935.261 255.34C938.535 253.503 941.091 250.907 942.928 247.552C944.766 244.117 945.684 240.164 945.684 235.691C945.684 231.138 944.766 227.224 942.928 223.949C941.091 220.595 938.535 217.999 935.261 216.162C932.066 214.324 928.431 213.406 924.358 213.406C920.284 213.406 916.65 214.324 913.455 216.162C910.26 217.999 907.704 220.595 905.787 223.949C903.87 227.224 902.912 231.138 902.912 235.691C902.912 240.164 903.87 244.117 905.787 247.552C907.704 250.907 910.26 253.503 913.455 255.34C916.65 257.177 920.284 258.095 924.358 258.095Z" fill="black"/>
<path d="M845.325 268.159C839.175 268.159 833.664 266.802 828.791 264.086C823.999 261.37 820.205 257.576 817.409 252.704C814.614 247.832 813.216 242.161 813.216 235.691C813.216 229.221 814.614 223.59 817.409 218.797C820.205 213.925 823.999 210.131 828.791 207.415C833.664 204.7 839.175 203.342 845.325 203.342C850.677 203.342 855.509 204.54 859.822 206.936C864.135 209.332 867.57 212.927 870.126 217.719C872.762 222.512 874.08 228.502 874.08 235.691C874.08 242.879 872.802 248.87 870.246 253.662C867.77 258.455 864.375 262.089 860.062 264.565C855.749 266.961 850.836 268.159 845.325 268.159ZM846.284 258.095C850.277 258.095 853.872 257.177 857.067 255.34C860.341 253.503 862.897 250.907 864.734 247.552C866.651 244.117 867.61 240.164 867.61 235.691C867.61 231.138 866.651 227.224 864.734 223.949C862.897 220.595 860.341 217.999 857.067 216.162C853.872 214.324 850.277 213.406 846.284 213.406C842.21 213.406 838.576 214.324 835.381 216.162C832.186 217.999 829.63 220.595 827.713 223.949C825.796 227.224 824.837 231.138 824.837 235.691C824.837 240.164 825.796 244.117 827.713 247.552C829.63 250.907 832.186 253.503 835.381 255.34C838.576 257.177 842.21 258.095 846.284 258.095ZM867.969 267.441V250.308L868.688 235.571L867.49 220.834V178.541H878.992V267.441H867.969Z" fill="black"/>
<path d="M666.354 355.934V335.132L752.986 230.331L759.042 241.653H667.933V215.321H785.374V236.124L698.742 340.925L692.159 329.602H787.744V355.934H666.354Z" fill="black"/>
<path fill-rule="evenodd" clip-rule="evenodd" d="M609.723 215.321V355.934H642.638V215.321H609.723Z" fill="black"/>
<path d="M626.312 192.148C620.168 192.148 615.077 190.217 611.039 186.355C607.177 182.493 605.246 177.841 605.246 172.399C605.246 166.782 607.177 162.13 611.039 158.443C615.077 154.581 620.168 152.65 626.312 152.65C632.456 152.65 637.459 154.494 641.321 158.18C645.359 161.691 647.377 166.167 647.377 171.609C647.377 177.402 645.446 182.318 641.584 186.355C637.722 190.217 632.631 192.148 626.312 192.148Z" fill="#FFD700"/>
<path d="M508.334 355.933V215.32H539.669V254.028L535.983 242.705C540.196 233.226 546.779 226.029 555.732 221.113C564.86 216.198 576.183 213.74 589.7 213.74V245.075C588.296 244.724 586.979 244.549 585.75 244.549C584.521 244.373 583.292 244.285 582.064 244.285C569.6 244.285 559.681 247.972 552.308 255.345C544.936 262.542 541.249 273.338 541.249 287.733V355.933H508.334Z" fill="black"/>
<path d="M413.659 357.777C401.721 357.777 391.101 355.144 381.797 349.877C372.493 344.611 365.12 336.711 359.678 326.178C354.412 315.47 351.778 301.953 351.778 285.627C351.778 269.126 354.499 255.608 359.941 245.076C365.559 234.543 373.02 226.731 382.324 221.64C391.803 216.374 402.248 213.741 413.659 213.741C427.527 213.741 439.727 216.725 450.26 222.693C460.969 228.662 469.395 237 475.539 247.709C481.859 258.417 485.018 271.057 485.018 285.627C485.018 300.197 481.859 312.837 475.539 323.545C469.395 334.253 460.969 342.68 450.26 348.824C439.727 354.792 427.527 357.777 413.659 357.777ZM335.716 355.933V160.55H368.631V247.972L365.998 285.364L367.051 322.755V355.933H335.716ZM409.972 329.601C417.872 329.601 424.894 327.846 431.038 324.335C437.357 320.824 442.361 315.733 446.047 309.062C449.734 302.392 451.577 294.58 451.577 285.627C451.577 276.499 449.734 268.687 446.047 262.191C442.361 255.521 437.357 250.43 431.038 246.919C424.894 243.408 417.872 241.652 409.972 241.652C402.073 241.652 394.963 243.408 388.643 246.919C382.324 250.43 377.32 255.521 373.634 262.191C369.947 268.687 368.104 276.499 368.104 285.627C368.104 294.58 369.947 302.392 373.634 309.062C377.32 315.733 382.324 320.824 388.643 324.335C394.963 327.846 402.073 329.601 409.972 329.601Z" fill="black"/>
<path d="M211.03 103.596C233.608 98.7966 251.911 113.618 251.911 136.7V343.581C251.911 366.663 233.608 389.265 211.03 394.064L143.577 408.402C120.999 413.201 102.696 398.38 102.696 375.297V168.417C102.696 145.335 120.999 122.732 143.577 117.933L211.03 103.596ZM215.118 165.417C215.118 151.568 204.136 142.676 190.59 145.555L164.018 151.203C150.471 154.083 139.489 167.644 139.489 181.493V346.58C139.489 360.429 150.471 369.322 164.018 366.443L190.59 360.795C204.137 357.915 215.118 344.353 215.118 330.504V165.417Z" fill="#1D1D1F"/>
</svg>
