<svg width="5402" height="2048" viewBox="0 0 5402 2048" fill="none" xmlns="http://www.w3.org/2000/svg">
<path d="M4880.84 1423.73C4859.76 1423.73 4839.63 1420.86 4820.46 1415.11C4801.61 1409.36 4786.75 1402.33 4775.89 1394.02L4795.06 1357.6C4805.92 1364.95 4819.34 1371.18 4835.32 1376.29C4851.29 1381.4 4867.58 1383.96 4884.2 1383.96C4905.6 1383.96 4920.94 1380.92 4930.21 1374.85C4939.79 1368.78 4944.58 1360.31 4944.58 1349.45C4944.58 1341.46 4941.71 1335.23 4935.96 1330.76C4930.21 1326.29 4922.54 1322.93 4912.95 1320.7C4903.69 1318.46 4893.3 1316.54 4881.8 1314.94C4870.3 1313.03 4858.8 1310.79 4847.3 1308.24C4835.8 1305.36 4825.25 1301.53 4815.67 1296.73C4806.08 1291.62 4798.41 1284.75 4792.66 1276.13C4786.91 1267.18 4784.04 1255.36 4784.04 1240.66C4784.04 1225.33 4788.35 1211.91 4796.98 1200.41C4805.6 1188.9 4817.74 1180.12 4833.4 1174.05C4849.37 1167.66 4868.22 1164.46 4889.95 1164.46C4906.56 1164.46 4923.34 1166.54 4940.27 1170.69C4957.52 1174.53 4971.58 1180.12 4982.44 1187.47L4962.79 1223.89C4951.29 1216.22 4939.31 1210.95 4926.85 1208.07C4914.39 1205.2 4901.93 1203.76 4889.47 1203.76C4869.34 1203.76 4854.33 1207.12 4844.42 1213.82C4834.52 1220.21 4829.56 1228.52 4829.56 1238.75C4829.56 1247.37 4832.44 1254.08 4838.19 1258.87C4844.26 1263.35 4851.93 1266.86 4861.19 1269.42C4870.78 1271.97 4881.32 1274.21 4892.82 1276.13C4904.33 1277.72 4915.83 1279.96 4927.33 1282.84C4938.83 1285.39 4949.22 1289.07 4958.48 1293.86C4968.07 1298.65 4975.73 1305.36 4981.48 1313.99C4987.56 1322.61 4990.59 1334.11 4990.59 1348.49C4990.59 1363.83 4986.12 1377.09 4977.17 1388.27C4968.23 1399.45 4955.61 1408.24 4939.31 1414.63C4923.02 1420.7 4903.53 1423.73 4880.84 1423.73Z" fill="black"/>
<path d="M4631.8 1164.46C4652.56 1164.46 4670.78 1168.46 4686.43 1176.44C4702.41 1184.43 4714.87 1196.57 4723.81 1212.87C4732.76 1229.16 4737.23 1249.77 4737.23 1274.69V1420.86H4691.22V1279.96C4691.22 1255.36 4685.15 1236.83 4673.01 1224.37C4661.19 1211.91 4644.42 1205.68 4622.69 1205.68C4606.4 1205.68 4592.18 1208.87 4580.04 1215.26C4567.9 1221.65 4558.47 1231.08 4551.76 1243.54C4545.37 1256 4542.18 1271.49 4542.18 1290.02V1420.86H4496.17V1166.86H4540.26V1235.39L4533.07 1217.18C4541.38 1200.57 4554.16 1187.63 4571.41 1178.36C4588.67 1169.1 4608.79 1164.46 4631.8 1164.46Z" fill="black"/>
<path d="M4330.21 1423.73C4303.05 1423.73 4279.09 1418.14 4258.32 1406.96C4237.87 1395.78 4221.9 1380.44 4210.4 1360.95C4199.22 1341.46 4193.62 1319.1 4193.62 1293.86C4193.62 1268.62 4199.06 1246.25 4209.92 1226.76C4221.1 1207.27 4236.28 1192.1 4255.45 1181.24C4274.94 1170.05 4296.82 1164.46 4321.1 1164.46C4345.7 1164.46 4367.43 1169.89 4386.28 1180.76C4405.13 1191.62 4419.83 1206.96 4430.37 1226.76C4441.23 1246.25 4446.66 1269.1 4446.66 1295.3C4446.66 1297.21 4446.5 1299.45 4446.19 1302.01C4446.19 1304.56 4446.03 1306.96 4445.71 1309.19H4229.57V1276.13H4421.74L4403.05 1287.63C4403.37 1271.33 4400.02 1256.8 4392.99 1244.02C4385.96 1231.24 4376.22 1221.33 4363.76 1214.3C4351.61 1206.96 4337.4 1203.28 4321.1 1203.28C4305.13 1203.28 4290.91 1206.96 4278.45 1214.3C4265.99 1221.33 4256.25 1231.4 4249.22 1244.5C4242.19 1257.28 4238.67 1271.97 4238.67 1288.59V1296.25C4238.67 1313.19 4242.51 1328.36 4250.17 1341.78C4258.16 1354.88 4269.18 1365.11 4283.24 1372.45C4297.3 1379.8 4313.43 1383.48 4331.65 1383.48C4346.66 1383.48 4360.24 1380.92 4372.38 1375.81C4384.84 1370.7 4395.7 1363.03 4404.97 1352.81L4430.37 1382.52C4418.87 1395.94 4404.49 1406.16 4387.24 1413.19C4370.3 1420.22 4351.29 1423.73 4330.21 1423.73Z" fill="black"/>
<path d="M4051.14 1423.73C4023.99 1423.73 4000.02 1418.14 3979.26 1406.96C3958.81 1395.78 3942.83 1380.44 3931.33 1360.95C3920.15 1341.46 3914.56 1319.1 3914.56 1293.86C3914.56 1268.62 3919.99 1246.25 3930.85 1226.76C3942.04 1207.27 3957.21 1192.1 3976.38 1181.24C3995.87 1170.05 4017.76 1164.46 4042.04 1164.46C4066.64 1164.46 4088.37 1169.89 4107.22 1180.76C4126.07 1191.62 4140.76 1206.96 4151.31 1226.76C4162.17 1246.25 4167.6 1269.1 4167.6 1295.3C4167.6 1297.21 4167.44 1299.45 4167.12 1302.01C4167.12 1304.56 4166.96 1306.96 4166.64 1309.19H3950.5V1276.13H4142.68L4123.99 1287.63C4124.31 1271.33 4120.95 1256.8 4113.92 1244.02C4106.9 1231.24 4097.15 1221.33 4084.69 1214.3C4072.55 1206.96 4058.33 1203.28 4042.04 1203.28C4026.06 1203.28 4011.85 1206.96 3999.39 1214.3C3986.93 1221.33 3977.18 1231.4 3970.15 1244.5C3963.12 1257.28 3959.61 1271.97 3959.61 1288.59V1296.25C3959.61 1313.19 3963.44 1328.36 3971.11 1341.78C3979.1 1354.88 3990.12 1365.11 4004.18 1372.45C4018.24 1379.8 4034.37 1383.48 4052.58 1383.48C4067.6 1383.48 4081.18 1380.92 4093.32 1375.81C4105.78 1370.7 4116.64 1363.03 4125.91 1352.81L4151.31 1382.52C4139.8 1395.94 4125.43 1406.16 4108.17 1413.19C4091.24 1420.22 4072.23 1423.73 4051.14 1423.73Z" fill="black"/>
<path d="M3761.47 1420.86V1166.86H3805.56V1235.87L3801.25 1218.62C3808.28 1201.04 3820.1 1187.63 3836.71 1178.36C3853.33 1169.1 3873.77 1164.46 3898.05 1164.46V1209.03C3896.14 1208.71 3894.22 1208.55 3892.3 1208.55C3890.71 1208.55 3889.11 1208.55 3887.51 1208.55C3862.91 1208.55 3843.42 1215.9 3829.04 1230.6C3814.67 1245.29 3807.48 1266.54 3807.48 1294.34V1420.86H3761.47Z" fill="black"/>
<path d="M3612.77 1423.73C3586.89 1423.73 3563.72 1418.14 3543.28 1406.96C3523.15 1395.78 3507.33 1380.44 3495.83 1360.95C3484.33 1341.46 3478.58 1319.1 3478.58 1293.86C3478.58 1268.62 3484.33 1246.25 3495.83 1226.76C3507.33 1207.27 3523.15 1192.1 3543.28 1181.24C3563.72 1170.05 3586.89 1164.46 3612.77 1164.46C3635.77 1164.46 3656.22 1169.1 3674.11 1178.36C3692.32 1187.31 3706.38 1200.73 3716.28 1218.62L3681.3 1241.14C3672.99 1228.68 3662.77 1219.58 3650.63 1213.82C3638.81 1207.75 3626.03 1204.72 3612.29 1204.72C3595.67 1204.72 3580.82 1208.39 3567.72 1215.74C3554.62 1223.09 3544.24 1233.47 3536.57 1246.89C3528.9 1259.99 3525.07 1275.65 3525.07 1293.86C3525.07 1312.07 3528.9 1327.88 3536.57 1341.3C3544.24 1354.72 3554.62 1365.11 3567.72 1372.45C3580.82 1379.8 3595.67 1383.48 3612.29 1383.48C3626.03 1383.48 3638.81 1380.6 3650.63 1374.85C3662.77 1368.78 3672.99 1359.51 3681.3 1347.05L3716.28 1369.1C3706.38 1386.67 3692.32 1400.25 3674.11 1409.83C3656.22 1419.1 3635.77 1423.73 3612.77 1423.73Z" fill="black"/>
<path d="M3349.19 1423.73C3328.11 1423.73 3307.98 1420.86 3288.81 1415.11C3269.96 1409.36 3255.1 1402.33 3244.24 1394.02L3263.41 1357.6C3274.27 1364.95 3287.69 1371.18 3303.67 1376.29C3319.64 1381.4 3335.94 1383.96 3352.55 1383.96C3373.96 1383.96 3389.29 1380.92 3398.56 1374.85C3408.14 1368.78 3412.93 1360.31 3412.93 1349.45C3412.93 1341.46 3410.06 1335.23 3404.31 1330.76C3398.56 1326.29 3390.89 1322.93 3381.3 1320.7C3372.04 1318.46 3361.65 1316.54 3350.15 1314.94C3338.65 1313.03 3327.15 1310.79 3315.65 1308.24C3304.15 1305.36 3293.6 1301.53 3284.02 1296.73C3274.43 1291.62 3266.76 1284.75 3261.01 1276.13C3255.26 1267.18 3252.39 1255.36 3252.39 1240.66C3252.39 1225.33 3256.7 1211.91 3265.33 1200.41C3273.95 1188.9 3286.09 1180.12 3301.75 1174.05C3317.72 1167.66 3336.57 1164.46 3358.3 1164.46C3374.91 1164.46 3391.69 1166.54 3408.62 1170.69C3425.87 1174.53 3439.93 1180.12 3450.79 1187.47L3431.14 1223.89C3419.64 1216.22 3407.66 1210.95 3395.2 1208.07C3382.74 1205.2 3370.28 1203.76 3357.82 1203.76C3337.69 1203.76 3322.68 1207.12 3312.77 1213.82C3302.87 1220.21 3297.92 1228.52 3297.92 1238.75C3297.92 1247.37 3300.79 1254.08 3306.54 1258.87C3312.61 1263.35 3320.28 1266.86 3329.55 1269.42C3339.13 1271.97 3349.67 1274.21 3361.18 1276.13C3372.68 1277.72 3384.18 1279.96 3395.68 1282.84C3407.18 1285.39 3417.57 1289.07 3426.83 1293.86C3436.42 1298.65 3444.08 1305.36 3449.84 1313.99C3455.91 1322.61 3458.94 1334.11 3458.94 1348.49C3458.94 1363.83 3454.47 1377.09 3445.52 1388.27C3436.58 1399.45 3423.96 1408.24 3407.66 1414.63C3391.37 1420.7 3371.88 1423.73 3349.19 1423.73Z" fill="black"/>
<path d="M4762.42 1009.86V794.2H4813.7V1009.86H4762.42ZM4677.6 925.991V878.067H4898.53V925.991H4677.6Z" fill="#FFD700"/>
<path d="M4422.87 1072.64C4401.78 1072.64 4381.65 1069.76 4362.48 1064.01C4343.63 1058.26 4328.78 1051.23 4317.91 1042.93L4337.08 1006.5C4347.95 1013.85 4361.36 1020.08 4377.34 1025.19C4393.31 1030.31 4409.61 1032.86 4426.22 1032.86C4447.63 1032.86 4462.96 1029.83 4472.23 1023.76C4481.81 1017.69 4486.61 1009.22 4486.61 998.356C4486.61 990.369 4483.73 984.139 4477.98 979.666C4472.23 975.193 4464.56 971.838 4454.98 969.602C4445.71 967.365 4435.33 965.448 4423.83 963.851C4412.32 961.934 4400.82 959.697 4389.32 957.141C4377.82 954.266 4367.28 950.432 4357.69 945.64C4348.11 940.528 4340.44 933.659 4334.69 925.032C4328.94 916.086 4326.06 904.265 4326.06 889.568C4326.06 874.232 4330.37 860.814 4339 849.312C4347.63 837.81 4359.77 829.024 4375.42 822.953C4391.4 816.564 4410.25 813.369 4431.97 813.369C4448.59 813.369 4465.36 815.445 4482.29 819.599C4499.55 823.433 4513.6 829.024 4524.47 836.372L4504.82 872.795C4493.32 865.127 4481.33 859.855 4468.87 856.98C4456.41 854.104 4443.95 852.666 4431.49 852.666C4411.37 852.666 4396.35 856.021 4386.44 862.731C4376.54 869.12 4371.59 877.427 4371.59 887.651C4371.59 896.278 4374.46 902.987 4380.21 907.779C4386.29 912.252 4393.95 915.767 4403.22 918.323C4412.8 920.879 4423.35 923.115 4434.85 925.032C4446.35 926.63 4457.85 928.866 4469.35 931.742C4480.86 934.298 4491.24 937.972 4500.5 942.764C4510.09 947.557 4517.76 954.266 4523.51 962.892C4529.58 971.519 4532.61 983.021 4532.61 997.398C4532.61 1012.73 4528.14 1025.99 4519.2 1037.18C4510.25 1048.36 4497.63 1057.14 4481.33 1063.53C4465.04 1069.6 4445.55 1072.64 4422.87 1072.64Z" fill="black"/>
<path d="M4168.3 1069.76V815.765H4212.39V884.776L4208.08 867.523C4215.11 849.951 4226.93 836.532 4243.54 827.267C4260.16 818.001 4280.61 813.369 4304.89 813.369V857.938C4302.97 857.619 4301.05 857.459 4299.14 857.459C4297.54 857.459 4295.94 857.459 4294.34 857.459C4269.74 857.459 4250.25 864.807 4235.88 879.504C4221.5 894.201 4214.31 915.447 4214.31 943.243V1069.76H4168.3Z" fill="black"/>
<path d="M3987.26 1072.64C3961.7 1072.64 3939.02 1067.05 3919.21 1055.87C3899.4 1044.68 3883.74 1029.35 3872.24 1009.86C3860.74 990.049 3854.99 967.685 3854.99 942.764C3854.99 917.524 3860.74 895.159 3872.24 875.67C3883.74 856.181 3899.4 841.005 3919.21 830.142C3939.02 818.96 3961.7 813.369 3987.26 813.369C4012.5 813.369 4035.03 818.96 4054.83 830.142C4074.96 841.005 4090.62 856.181 4101.8 875.67C4113.3 894.84 4119.05 917.205 4119.05 942.764C4119.05 968.004 4113.3 990.369 4101.8 1009.86C4090.62 1029.35 4074.96 1044.68 4054.83 1055.87C4035.03 1067.05 4012.5 1072.64 3987.26 1072.64ZM3987.26 1032.38C4003.56 1032.38 4018.09 1028.71 4030.87 1021.36C4043.97 1014.01 4054.2 1003.63 4061.54 990.209C4068.89 976.471 4072.57 960.656 4072.57 942.764C4072.57 924.553 4068.89 908.898 4061.54 895.798C4054.2 882.38 4043.97 871.996 4030.87 864.648C4018.09 857.299 4003.56 853.625 3987.26 853.625C3970.97 853.625 3956.43 857.299 3943.65 864.648C3930.87 871.996 3920.65 882.38 3912.98 895.798C3905.31 908.898 3901.48 924.553 3901.48 942.764C3901.48 960.656 3905.31 976.471 3912.98 990.209C3920.65 1003.63 3930.87 1014.01 3943.65 1021.36C3956.43 1028.71 3970.97 1032.38 3987.26 1032.38Z" fill="black"/>
<path d="M3697.43 1072.64C3671.87 1072.64 3649.19 1067.05 3629.38 1055.87C3609.57 1044.68 3593.91 1029.35 3582.41 1009.86C3570.91 990.049 3565.16 967.685 3565.16 942.764C3565.16 917.524 3570.91 895.159 3582.41 875.67C3593.91 856.181 3609.57 841.005 3629.38 830.142C3649.19 818.96 3671.87 813.369 3697.43 813.369C3722.67 813.369 3745.2 818.96 3765 830.142C3785.13 841.005 3800.79 856.181 3811.97 875.67C3823.47 894.84 3829.22 917.205 3829.22 942.764C3829.22 968.004 3823.47 990.369 3811.97 1009.86C3800.79 1029.35 3785.13 1044.68 3765 1055.87C3745.2 1067.05 3722.67 1072.64 3697.43 1072.64ZM3697.43 1032.38C3713.73 1032.38 3728.26 1028.71 3741.04 1021.36C3754.14 1014.01 3764.37 1003.63 3771.71 990.209C3779.06 976.471 3782.74 960.656 3782.74 942.764C3782.74 924.553 3779.06 908.898 3771.71 895.798C3764.37 882.38 3754.14 871.996 3741.04 864.648C3728.26 857.299 3713.73 853.625 3697.43 853.625C3681.14 853.625 3666.6 857.299 3653.82 864.648C3641.04 871.996 3630.82 882.38 3623.15 895.798C3615.48 908.898 3611.65 924.553 3611.65 942.764C3611.65 960.656 3615.48 976.471 3623.15 990.209C3630.82 1003.63 3641.04 1014.01 3653.82 1021.36C3666.6 1028.71 3681.14 1032.38 3697.43 1032.38Z" fill="black"/>
<path d="M3381.3 1072.64C3356.7 1072.64 3334.66 1067.21 3315.17 1056.34C3296 1045.48 3280.82 1030.31 3269.64 1010.82C3258.46 991.327 3252.87 968.643 3252.87 942.763C3252.87 916.884 3258.46 894.36 3269.64 875.19C3280.82 855.701 3296 840.525 3315.17 829.662C3334.66 818.799 3356.7 813.368 3381.3 813.368C3402.71 813.368 3422.04 818.16 3439.29 827.745C3456.54 837.33 3470.28 851.707 3480.51 870.877C3491.05 890.047 3496.32 914.009 3496.32 942.763C3496.32 971.518 3491.21 995.48 3480.98 1014.65C3471.08 1033.82 3457.5 1048.36 3440.25 1058.26C3423 1067.85 3403.35 1072.64 3381.3 1072.64ZM3385.14 1032.38C3401.11 1032.38 3415.49 1028.71 3428.27 1021.36C3441.37 1014.01 3451.59 1003.63 3458.94 990.208C3466.61 976.47 3470.44 960.655 3470.44 942.763C3470.44 924.552 3466.61 908.897 3458.94 895.798C3451.59 882.379 3441.37 871.995 3428.27 864.647C3415.49 857.298 3401.11 853.624 3385.14 853.624C3368.84 853.624 3354.31 857.298 3341.53 864.647C3328.75 871.995 3318.52 882.379 3310.85 895.798C3303.19 908.897 3299.35 924.552 3299.35 942.763C3299.35 960.655 3303.19 976.47 3310.85 990.208C3318.52 1003.63 3328.75 1014.01 3341.53 1021.36C3354.31 1028.71 3368.84 1032.38 3385.14 1032.38ZM3471.88 1069.76V1001.23L3474.75 942.284L3469.96 883.337V714.165H3515.97V1069.76H3471.88Z" fill="black"/>
<path d="M2665.41 1423.73V1340.52L3011.94 921.318L3036.17 966.609H2671.73V861.281H3141.49V944.49L2794.96 1363.7L2768.63 1318.41H3150.97V1423.73H2665.41Z" fill="black"/>
<path fill-rule="evenodd" clip-rule="evenodd" d="M2438.89 861.28V1423.73H2570.55V861.28H2438.89Z" fill="black"/>
<path d="M2505.24 768.591C2480.67 768.591 2460.3 760.867 2444.15 745.419C2428.71 729.971 2420.98 711.363 2420.98 689.595C2420.98 667.125 2428.71 648.517 2444.15 633.771C2460.3 618.323 2480.67 610.599 2505.24 610.599C2529.82 610.599 2549.83 617.972 2565.28 632.718C2581.43 646.762 2589.51 664.667 2589.51 686.435C2589.51 709.607 2581.78 729.269 2566.34 745.419C2550.89 760.867 2530.52 768.591 2505.24 768.591Z" fill="#FFD700"/>
<path d="M2033.33 1423.73V861.279H2158.67V1016.11L2143.93 970.82C2160.78 932.902 2187.11 904.112 2222.92 884.451C2259.44 864.79 2304.73 854.959 2358.8 854.959V980.299C2353.18 978.895 2347.91 978.193 2343 978.193C2338.08 977.491 2333.17 977.14 2328.25 977.14C2278.4 977.14 2238.72 991.886 2209.23 1021.38C2179.74 1050.17 2164.99 1093.35 2164.99 1150.93V1423.73H2033.33Z" fill="black"/>
<path d="M1654.63 1431.1C1606.88 1431.1 1564.4 1420.57 1527.18 1399.51C1489.97 1378.44 1460.48 1346.84 1438.71 1304.71C1417.64 1261.88 1407.11 1207.81 1407.11 1142.51C1407.11 1076.5 1417.99 1022.43 1439.76 980.3C1462.23 938.169 1492.07 906.922 1529.29 886.558C1567.21 865.493 1608.99 854.96 1654.63 854.96C1710.1 854.96 1758.91 866.897 1801.04 890.771C1843.87 914.646 1877.58 948 1902.15 990.833C1927.43 1033.67 1940.07 1084.22 1940.07 1142.51C1940.07 1200.79 1927.43 1251.34 1902.15 1294.18C1877.58 1337.01 1843.87 1370.72 1801.04 1395.29C1758.91 1419.17 1710.1 1431.1 1654.63 1431.1ZM1342.86 1423.73V642.197H1474.52V991.886L1463.99 1141.45L1468.2 1291.02V1423.73H1342.86ZM1639.88 1318.4C1671.48 1318.4 1699.57 1311.38 1724.15 1297.34C1749.43 1283.29 1769.44 1262.93 1784.18 1236.25C1798.93 1209.56 1806.3 1178.32 1806.3 1142.51C1806.3 1105.99 1798.93 1074.74 1784.18 1048.76C1769.44 1022.08 1749.43 1001.72 1724.15 987.673C1699.57 973.629 1671.48 966.608 1639.88 966.608C1608.29 966.608 1579.85 973.629 1554.57 987.673C1529.29 1001.72 1509.28 1022.08 1494.53 1048.76C1479.79 1074.74 1472.41 1105.99 1472.41 1142.51C1472.41 1178.32 1479.79 1209.56 1494.53 1236.25C1509.28 1262.93 1529.29 1283.29 1554.57 1297.34C1579.85 1311.38 1608.29 1318.4 1639.88 1318.4Z" fill="black"/>
<path d="M844.111 414.387C934.423 395.19 1007.63 454.476 1007.63 546.805V1374.33C1007.63 1466.66 934.422 1557.07 844.111 1576.26L574.299 1633.61C483.988 1652.81 410.775 1593.52 410.775 1501.19V673.671C410.775 581.342 483.987 490.933 574.299 471.737L844.111 414.387ZM860.464 661.674C860.463 606.277 816.536 570.706 762.35 582.224L656.06 604.817C601.874 616.335 557.946 670.58 557.946 725.977V1386.32C557.947 1441.72 601.874 1477.29 656.06 1465.77L762.35 1443.18C816.536 1431.66 860.464 1377.42 860.464 1322.02V661.674Z" fill="#1D1D1F"/>
</svg>
