<svg width="3077" height="1167" viewBox="0 0 3077 1167" fill="none" xmlns="http://www.w3.org/2000/svg">
<path d="M2780.36 811.027C2768.35 811.027 2756.89 809.389 2745.97 806.113C2735.23 802.837 2726.76 798.833 2720.58 794.101L2731.5 773.353C2737.68 777.539 2745.33 781.088 2754.43 784C2763.53 786.912 2772.81 788.368 2782.27 788.368C2794.47 788.368 2803.2 786.639 2808.48 783.181C2813.94 779.723 2816.67 774.9 2816.67 768.712C2816.67 764.162 2815.03 760.613 2811.76 758.065C2808.48 755.517 2804.11 753.606 2798.65 752.332C2793.38 751.058 2787.46 749.966 2780.91 749.056C2774.36 747.964 2767.81 746.69 2761.25 745.234C2754.7 743.596 2748.7 741.412 2743.24 738.682C2737.78 735.77 2733.41 731.857 2730.13 726.943C2726.86 721.847 2725.22 715.113 2725.22 706.741C2725.22 698.005 2727.67 690.361 2732.59 683.809C2737.5 677.257 2744.42 672.252 2753.34 668.794C2762.44 665.154 2773.17 663.334 2785.55 663.334C2795.01 663.334 2804.57 664.517 2814.22 666.883C2824.04 669.067 2832.05 672.252 2838.24 676.438L2827.05 697.186C2820.49 692.818 2813.67 689.815 2806.57 688.177C2799.47 686.539 2792.38 685.72 2785.28 685.72C2773.81 685.72 2765.26 687.631 2759.62 691.453C2753.97 695.093 2751.15 699.825 2751.15 705.649C2751.15 710.563 2752.79 714.385 2756.07 717.115C2759.52 719.663 2763.89 721.665 2769.17 723.121C2774.63 724.577 2780.64 725.851 2787.19 726.943C2793.74 727.853 2800.29 729.127 2806.84 730.765C2813.4 732.221 2819.31 734.314 2824.59 737.044C2830.05 739.774 2834.42 743.596 2837.69 748.51C2841.15 753.424 2842.88 759.976 2842.88 768.166C2842.88 776.902 2840.33 784.455 2835.24 790.825C2830.14 797.195 2822.95 802.2 2813.67 805.84C2804.39 809.298 2793.29 811.027 2780.36 811.027Z" fill="black"/>
<path d="M2638.5 663.334C2650.33 663.334 2660.7 665.609 2669.62 670.159C2678.72 674.709 2685.82 681.625 2690.91 690.907C2696.01 700.189 2698.56 711.928 2698.56 726.124V809.389H2672.35V729.127C2672.35 715.113 2668.89 704.557 2661.97 697.459C2655.24 690.361 2645.68 686.812 2633.31 686.812C2624.03 686.812 2615.93 688.632 2609.01 692.272C2602.1 695.912 2596.73 701.281 2592.9 708.379C2589.26 715.477 2587.44 724.304 2587.44 734.86V809.389H2561.24V664.699H2586.35V703.738L2582.26 693.364C2586.99 683.9 2594.27 676.529 2604.1 671.251C2613.93 665.973 2625.39 663.334 2638.5 663.334Z" fill="black"/>
<path d="M2466.69 811.027C2451.22 811.027 2437.57 807.842 2425.74 801.472C2414.1 795.102 2405 786.366 2398.44 775.264C2392.07 764.162 2388.89 751.422 2388.89 737.044C2388.89 722.666 2391.98 709.926 2398.17 698.824C2404.54 687.722 2413.19 679.077 2424.11 672.889C2435.21 666.519 2447.67 663.334 2461.51 663.334C2475.52 663.334 2487.9 666.428 2498.63 672.616C2509.37 678.804 2517.74 687.54 2523.75 698.824C2529.94 709.926 2533.03 722.939 2533.03 737.863C2533.03 738.955 2532.94 740.229 2532.76 741.685C2532.76 743.141 2532.67 744.506 2532.49 745.78H2409.36V726.943H2518.84L2508.19 733.495C2508.37 724.213 2506.46 715.932 2502.46 708.652C2498.45 701.372 2492.9 695.73 2485.8 691.726C2478.89 687.54 2470.79 685.447 2461.51 685.447C2452.41 685.447 2444.31 687.54 2437.21 691.726C2430.11 695.73 2424.56 701.463 2420.56 708.925C2416.55 716.205 2414.55 724.577 2414.55 734.041V738.409C2414.55 748.055 2416.73 756.7 2421.1 764.344C2425.65 771.806 2431.93 777.63 2439.94 781.816C2447.95 786.002 2457.14 788.095 2467.51 788.095C2476.07 788.095 2483.8 786.639 2490.72 783.727C2497.82 780.815 2504 776.447 2509.28 770.623L2523.75 787.549C2517.2 795.193 2509.01 801.017 2499.18 805.021C2489.53 809.025 2478.71 811.027 2466.69 811.027Z" fill="black"/>
<path d="M2307.72 811.027C2292.25 811.027 2278.6 807.842 2266.77 801.472C2255.13 795.102 2246.03 786.366 2239.47 775.264C2233.1 764.162 2229.92 751.422 2229.92 737.044C2229.92 722.666 2233.01 709.926 2239.2 698.824C2245.57 687.722 2254.22 679.077 2265.14 672.889C2276.24 666.519 2288.71 663.334 2302.54 663.334C2316.55 663.334 2328.93 666.428 2339.67 672.616C2350.4 678.804 2358.78 687.54 2364.78 698.824C2370.97 709.926 2374.06 722.939 2374.06 737.863C2374.06 738.955 2373.97 740.229 2373.79 741.685C2373.79 743.141 2373.7 744.506 2373.52 745.78H2250.39V726.943H2359.87L2349.22 733.495C2349.4 724.213 2347.49 715.932 2343.49 708.652C2339.48 701.372 2333.93 695.73 2326.83 691.726C2319.92 687.54 2311.82 685.447 2302.54 685.447C2293.44 685.447 2285.34 687.54 2278.24 691.726C2271.14 695.73 2265.59 701.463 2261.59 708.925C2257.58 716.205 2255.58 724.577 2255.58 734.041V738.409C2255.58 748.055 2257.77 756.7 2262.13 764.344C2266.68 771.806 2272.96 777.63 2280.97 781.816C2288.98 786.002 2298.17 788.095 2308.54 788.095C2317.1 788.095 2324.83 786.639 2331.75 783.727C2338.85 780.815 2345.03 776.447 2350.31 770.623L2364.78 787.549C2358.23 795.193 2350.04 801.017 2340.21 805.021C2330.57 809.025 2319.74 811.027 2307.72 811.027Z" fill="black"/>
<path d="M2142.71 809.389V664.699H2167.83V704.011L2165.37 694.183C2169.38 684.173 2176.11 676.529 2185.58 671.251C2195.04 665.973 2206.69 663.334 2220.52 663.334V688.723C2219.43 688.541 2218.34 688.45 2217.24 688.45C2216.33 688.45 2215.42 688.45 2214.51 688.45C2200.5 688.45 2189.4 692.636 2181.21 701.008C2173.02 709.38 2168.92 721.483 2168.92 737.317V809.389H2142.71Z" fill="black"/>
<path d="M2058 811.027C2043.26 811.027 2030.07 807.842 2018.42 801.472C2006.95 795.102 1997.94 786.366 1991.39 775.264C1984.84 764.162 1981.56 751.422 1981.56 737.044C1981.56 722.666 1984.84 709.926 1991.39 698.824C1997.94 687.722 2006.95 679.077 2018.42 672.889C2030.07 666.519 2043.26 663.334 2058 663.334C2071.11 663.334 2082.76 665.973 2092.95 671.251C2103.32 676.347 2111.33 683.991 2116.97 694.183L2097.04 707.014C2092.31 699.916 2086.49 694.729 2079.57 691.453C2072.84 687.995 2065.56 686.266 2057.73 686.266C2048.27 686.266 2039.8 688.359 2032.34 692.545C2024.88 696.731 2018.97 702.646 2014.6 710.29C2010.23 717.752 2008.05 726.67 2008.05 737.044C2008.05 747.418 2010.23 756.427 2014.6 764.071C2018.97 771.715 2024.88 777.63 2032.34 781.816C2039.8 786.002 2048.27 788.095 2057.73 788.095C2065.56 788.095 2072.84 786.457 2079.57 783.181C2086.49 779.723 2092.31 774.445 2097.04 767.347L2116.97 779.905C2111.33 789.915 2103.32 797.65 2092.95 803.11C2082.76 808.388 2071.11 811.027 2058 811.027Z" fill="black"/>
<path d="M1907.86 811.027C1895.85 811.027 1884.38 809.389 1873.46 806.113C1862.73 802.837 1854.26 798.833 1848.07 794.101L1858.99 773.353C1865.18 777.539 1872.83 781.088 1881.93 784C1891.03 786.912 1900.31 788.368 1909.77 788.368C1921.97 788.368 1930.7 786.639 1935.98 783.181C1941.44 779.723 1944.17 774.9 1944.17 768.712C1944.17 764.162 1942.53 760.613 1939.26 758.065C1935.98 755.517 1931.61 753.606 1926.15 752.332C1920.87 751.058 1914.96 749.966 1908.41 749.056C1901.86 747.964 1895.3 746.69 1888.75 745.234C1882.2 743.596 1876.19 741.412 1870.73 738.682C1865.27 735.77 1860.91 731.857 1857.63 726.943C1854.35 721.847 1852.72 715.113 1852.72 706.741C1852.72 698.005 1855.17 690.361 1860.09 683.809C1865 677.257 1871.92 672.252 1880.83 668.794C1889.93 665.154 1900.67 663.334 1913.05 663.334C1922.51 663.334 1932.07 664.517 1941.71 666.883C1951.54 669.067 1959.55 672.252 1965.74 676.438L1954.54 697.186C1947.99 692.818 1941.17 689.815 1934.07 688.177C1926.97 686.539 1919.87 685.72 1912.78 685.72C1901.31 685.72 1892.76 687.631 1887.11 691.453C1881.47 695.093 1878.65 699.825 1878.65 705.649C1878.65 710.563 1880.29 714.385 1883.56 717.115C1887.02 719.663 1891.39 721.665 1896.67 723.121C1902.13 724.577 1908.13 725.851 1914.69 726.943C1921.24 727.853 1927.79 729.127 1934.34 730.765C1940.89 732.221 1946.81 734.314 1952.09 737.044C1957.55 739.774 1961.92 743.596 1965.19 748.51C1968.65 753.424 1970.38 759.976 1970.38 768.166C1970.38 776.902 1967.83 784.455 1962.73 790.825C1957.64 797.195 1950.45 802.2 1941.17 805.84C1931.89 809.298 1920.78 811.027 1907.86 811.027Z" fill="black"/>
<path d="M2712.91 575.264V452.414H2742.12V575.264H2712.91ZM2664.59 527.489V500.189H2790.44V527.489H2664.59Z" fill="#FFD700"/>
<path d="M2519.48 611.027C2507.47 611.027 2496 609.389 2485.08 606.113C2474.34 602.837 2465.88 598.833 2459.69 594.101L2470.61 573.353C2476.8 577.539 2484.44 581.088 2493.54 584C2502.64 586.912 2511.93 588.368 2521.39 588.368C2533.58 588.368 2542.32 586.639 2547.6 583.181C2553.06 579.723 2555.79 574.9 2555.79 568.712C2555.79 564.162 2554.15 560.613 2550.87 558.065C2547.6 555.517 2543.23 553.606 2537.77 552.332C2532.49 551.058 2526.58 549.966 2520.02 549.056C2513.47 547.964 2506.92 546.69 2500.37 545.234C2493.82 543.596 2487.81 541.412 2482.35 538.682C2476.89 535.77 2472.52 531.857 2469.25 526.943C2465.97 521.847 2464.33 515.113 2464.33 506.741C2464.33 498.005 2466.79 490.361 2471.7 483.809C2476.62 477.257 2483.53 472.252 2492.45 468.794C2501.55 465.154 2512.29 463.334 2524.67 463.334C2534.13 463.334 2543.68 464.517 2553.33 466.883C2563.16 469.067 2571.17 472.252 2577.35 476.438L2566.16 497.186C2559.61 492.818 2552.78 489.815 2545.69 488.177C2538.59 486.539 2531.49 485.72 2524.39 485.72C2512.93 485.72 2504.37 487.631 2498.73 491.453C2493.09 495.093 2490.27 499.825 2490.27 505.649C2490.27 510.563 2491.91 514.385 2495.18 517.115C2498.64 519.663 2503.01 521.665 2508.29 523.121C2513.75 524.577 2519.75 525.851 2526.3 526.943C2532.86 527.853 2539.41 529.127 2545.96 530.765C2552.51 532.221 2558.43 534.314 2563.7 537.044C2569.16 539.774 2573.53 543.596 2576.81 548.51C2580.27 553.424 2582 559.976 2582 568.166C2582 576.902 2579.45 584.455 2574.35 590.825C2569.26 597.195 2562.07 602.2 2552.78 605.84C2543.5 609.298 2532.4 611.027 2519.48 611.027Z" fill="black"/>
<path d="M2374.46 609.389V464.699H2399.58V504.011L2397.12 494.183C2401.13 484.173 2407.86 476.529 2417.33 471.251C2426.79 465.973 2438.44 463.334 2452.27 463.334V488.723C2451.18 488.541 2450.09 488.45 2448.99 488.45C2448.08 488.45 2447.17 488.45 2446.26 488.45C2432.25 488.45 2421.15 492.636 2412.96 501.008C2404.77 509.38 2400.67 521.483 2400.67 537.317V609.389H2374.46Z" fill="black"/>
<path d="M2271.34 611.027C2256.78 611.027 2243.85 607.842 2232.57 601.472C2221.29 595.102 2212.37 586.366 2205.82 575.264C2199.26 563.98 2195.99 551.24 2195.99 537.044C2195.99 522.666 2199.26 509.926 2205.82 498.824C2212.37 487.722 2221.29 479.077 2232.57 472.889C2243.85 466.519 2256.78 463.334 2271.34 463.334C2285.71 463.334 2298.55 466.519 2309.83 472.889C2321.3 479.077 2330.21 487.722 2336.58 498.824C2343.14 509.744 2346.41 522.484 2346.41 537.044C2346.41 551.422 2343.14 564.162 2336.58 575.264C2330.21 586.366 2321.3 595.102 2309.83 601.472C2298.55 607.842 2285.71 611.027 2271.34 611.027ZM2271.34 588.095C2280.62 588.095 2288.9 586.002 2296.18 581.816C2303.64 577.63 2309.47 571.715 2313.65 564.071C2317.84 556.245 2319.93 547.236 2319.93 537.044C2319.93 526.67 2317.84 517.752 2313.65 510.29C2309.47 502.646 2303.64 496.731 2296.18 492.545C2288.9 488.359 2280.62 486.266 2271.34 486.266C2262.05 486.266 2253.77 488.359 2246.49 492.545C2239.21 496.731 2233.39 502.646 2229.02 510.29C2224.65 517.752 2222.47 526.67 2222.47 537.044C2222.47 547.236 2224.65 556.245 2229.02 564.071C2233.39 571.715 2239.21 577.63 2246.49 581.816C2253.77 586.002 2262.05 588.095 2271.34 588.095Z" fill="black"/>
<path d="M2106.23 611.027C2091.67 611.027 2078.75 607.842 2067.47 601.472C2056.18 595.102 2047.27 586.366 2040.71 575.264C2034.16 563.98 2030.89 551.24 2030.89 537.044C2030.89 522.666 2034.16 509.926 2040.71 498.824C2047.27 487.722 2056.18 479.077 2067.47 472.889C2078.75 466.519 2091.67 463.334 2106.23 463.334C2120.61 463.334 2133.44 466.519 2144.73 472.889C2156.19 479.077 2165.11 487.722 2171.48 498.824C2178.03 509.744 2181.31 522.484 2181.31 537.044C2181.31 551.422 2178.03 564.162 2171.48 575.264C2165.11 586.366 2156.19 595.102 2144.73 601.472C2133.44 607.842 2120.61 611.027 2106.23 611.027ZM2106.23 588.095C2115.52 588.095 2123.8 586.002 2131.08 581.816C2138.54 577.63 2144.36 571.715 2148.55 564.071C2152.74 556.245 2154.83 547.236 2154.83 537.044C2154.83 526.67 2152.74 517.752 2148.55 510.29C2144.36 502.646 2138.54 496.731 2131.08 492.545C2123.8 488.359 2115.52 486.266 2106.23 486.266C2096.95 486.266 2088.67 488.359 2081.39 492.545C2074.11 496.731 2068.29 502.646 2063.92 510.29C2059.55 517.752 2057.37 526.67 2057.37 537.044C2057.37 547.236 2059.55 556.245 2063.92 564.071C2068.29 571.715 2074.11 577.63 2081.39 581.816C2088.67 586.002 2096.95 588.095 2106.23 588.095Z" fill="black"/>
<path d="M1926.15 611.027C1912.14 611.027 1899.58 607.933 1888.48 601.745C1877.56 595.557 1868.91 586.912 1862.54 575.81C1856.17 564.708 1852.99 551.786 1852.99 537.044C1852.99 522.302 1856.17 509.471 1862.54 498.551C1868.91 487.449 1877.56 478.804 1888.48 472.616C1899.58 466.428 1912.14 463.334 1926.15 463.334C1938.35 463.334 1949.36 466.064 1959.19 471.524C1969.01 476.984 1976.84 485.174 1982.66 496.094C1988.67 507.014 1991.67 520.664 1991.67 537.044C1991.67 553.424 1988.76 567.074 1982.94 577.994C1977.29 588.914 1969.56 597.195 1959.73 602.837C1949.9 608.297 1938.71 611.027 1926.15 611.027ZM1928.34 588.095C1937.44 588.095 1945.63 586.002 1952.91 581.816C1960.37 577.63 1966.19 571.715 1970.38 564.071C1974.75 556.245 1976.93 547.236 1976.93 537.044C1976.93 526.67 1974.75 517.752 1970.38 510.29C1966.19 502.646 1960.37 496.731 1952.91 492.545C1945.63 488.359 1937.44 486.266 1928.34 486.266C1919.05 486.266 1910.77 488.359 1903.49 492.545C1896.21 496.731 1890.39 502.646 1886.02 510.29C1881.65 517.752 1879.47 526.67 1879.47 537.044C1879.47 547.236 1881.65 556.245 1886.02 564.071C1890.39 571.715 1896.21 577.63 1903.49 581.816C1910.77 586.002 1919.05 588.095 1928.34 588.095ZM1977.75 609.389V570.35L1979.39 536.771L1976.66 503.192V406.823H2002.87V609.389H1977.75Z" fill="black"/>
<path d="M1518.35 811.027V763.627L1715.75 524.827L1729.55 550.627H1521.95V490.627H1789.55V538.027L1592.15 776.827L1577.15 751.027H1794.95V811.027H1518.35Z" fill="black"/>
<path fill-rule="evenodd" clip-rule="evenodd" d="M1389.31 490.627V811.027H1464.31V490.627H1389.31Z" fill="black"/>
<path d="M1427.11 437.827C1413.11 437.827 1401.51 433.427 1392.31 424.627C1383.51 415.827 1379.11 405.227 1379.11 392.827C1379.11 380.027 1383.51 369.427 1392.31 361.027C1401.51 352.227 1413.11 347.827 1427.11 347.827C1441.11 347.827 1452.51 352.027 1461.31 360.427C1470.51 368.427 1475.11 378.627 1475.11 391.027C1475.11 404.227 1470.71 415.427 1461.91 424.627C1453.11 433.427 1441.51 437.827 1427.11 437.827Z" fill="#FFD700"/>
<path d="M1158.29 811.027V490.627H1229.69V578.827L1221.29 553.027C1230.89 531.427 1245.89 515.027 1266.29 503.827C1287.09 492.627 1312.89 487.027 1343.69 487.027V558.427C1340.49 557.627 1337.49 557.227 1334.69 557.227C1331.89 556.827 1329.09 556.627 1326.29 556.627C1297.89 556.627 1275.29 565.027 1258.49 581.827C1241.69 598.227 1233.29 622.827 1233.29 655.627V811.027H1158.29Z" fill="black"/>
<path d="M942.557 815.227C915.357 815.227 891.157 809.227 869.957 797.227C848.757 785.227 831.957 767.227 819.557 743.227C807.557 718.827 801.557 688.027 801.557 650.827C801.557 613.227 807.757 582.427 820.157 558.427C832.957 534.427 849.957 516.627 871.157 505.027C892.757 493.027 916.557 487.027 942.557 487.027C974.157 487.027 1001.96 493.827 1025.96 507.427C1050.36 521.027 1069.56 540.027 1083.56 564.427C1097.96 588.827 1105.16 617.627 1105.16 650.827C1105.16 684.027 1097.96 712.827 1083.56 737.227C1069.56 761.627 1050.36 780.827 1025.96 794.827C1001.96 808.427 974.157 815.227 942.557 815.227ZM764.957 811.027V365.827H839.957V565.027L833.957 650.227L836.357 735.427V811.027H764.957ZM934.157 751.027C952.157 751.027 968.157 747.027 982.157 739.027C996.557 731.027 1007.96 719.427 1016.36 704.227C1024.76 689.027 1028.96 671.227 1028.96 650.827C1028.96 630.027 1024.76 612.227 1016.36 597.427C1007.96 582.227 996.557 570.627 982.157 562.627C968.157 554.627 952.157 550.627 934.157 550.627C916.157 550.627 899.957 554.627 885.557 562.627C871.157 570.627 859.757 582.227 851.357 597.427C842.957 612.227 838.757 630.027 838.757 650.827C838.757 671.227 842.957 689.027 851.357 704.227C859.757 719.427 871.157 731.027 885.557 739.027C899.957 747.027 916.157 751.027 934.157 751.027Z" fill="black"/>
<path d="M480.845 236.055C532.291 225.12 573.996 258.892 573.996 311.487V782.884C573.996 835.479 532.291 886.98 480.845 897.916L327.147 930.585C275.701 941.52 233.996 907.748 233.996 855.153V383.756C233.996 331.161 275.701 279.66 327.147 268.725L480.845 236.055ZM490.16 376.922C490.16 345.365 465.137 325.102 434.27 331.663L373.722 344.533C342.855 351.095 317.832 381.995 317.832 413.552V789.717C317.832 821.274 342.855 841.538 373.722 834.977L434.27 822.107C465.137 815.546 490.16 784.644 490.16 753.087V376.922Z" fill="#1D1D1F"/>
</svg>
