<svg width="10550" height="4000" viewBox="0 0 10550 4000" fill="none" xmlns="http://www.w3.org/2000/svg">
<path d="M9532.9 2780.73C9491.71 2780.73 9452.4 2775.11 9414.96 2763.88C9378.14 2752.65 9349.13 2738.92 9327.91 2722.69L9365.35 2651.56C9386.57 2665.91 9412.78 2678.08 9443.98 2688.06C9475.18 2698.05 9507 2703.04 9539.45 2703.04C9581.26 2703.04 9611.21 2697.11 9629.31 2685.25C9648.03 2673.4 9657.39 2656.86 9657.39 2635.64C9657.39 2620.04 9651.77 2607.88 9640.54 2599.14C9629.31 2590.4 9614.33 2583.85 9595.61 2579.48C9577.52 2575.11 9557.24 2571.37 9534.77 2568.25C9512.31 2564.51 9489.84 2560.14 9467.38 2555.15C9444.91 2549.53 9424.32 2542.04 9405.6 2532.68C9386.88 2522.7 9371.9 2509.28 9360.67 2492.43C9349.44 2474.96 9343.82 2451.87 9343.82 2423.17C9343.82 2393.21 9352.25 2367.01 9369.1 2344.54C9385.94 2322.08 9409.66 2304.92 9440.23 2293.06C9471.43 2280.58 9508.25 2274.34 9550.68 2274.34C9583.13 2274.34 9615.89 2278.4 9648.97 2286.51C9682.66 2294 9710.12 2304.92 9731.34 2319.27L9692.96 2390.41C9670.49 2375.43 9647.09 2365.13 9622.76 2359.52C9598.42 2353.9 9574.08 2351.09 9549.75 2351.09C9510.43 2351.09 9481.11 2357.65 9461.76 2370.75C9442.42 2383.23 9432.74 2399.45 9432.74 2419.42C9432.74 2436.27 9438.36 2449.38 9449.59 2458.74C9461.45 2467.47 9476.43 2474.34 9494.52 2479.33C9513.24 2484.32 9533.83 2488.69 9556.3 2492.43C9578.76 2495.55 9601.23 2499.92 9623.69 2505.54C9646.16 2510.53 9666.44 2517.71 9684.53 2527.07C9703.25 2536.43 9718.23 2549.53 9729.46 2566.38C9741.32 2583.23 9747.25 2605.69 9747.25 2633.77C9747.25 2663.72 9738.51 2689.62 9721.04 2711.46C9703.57 2733.3 9678.92 2750.46 9647.09 2762.94C9615.27 2774.8 9577.2 2780.73 9532.9 2780.73Z" fill="black"/>
<path d="M9046.48 2274.34C9087.04 2274.34 9122.61 2282.14 9153.19 2297.74C9184.39 2313.34 9208.72 2337.05 9226.2 2368.88C9243.67 2400.7 9252.4 2440.95 9252.4 2489.62V2775.11H9162.55V2499.92C9162.55 2451.87 9150.69 2415.68 9126.98 2391.34C9103.89 2367.01 9071.13 2354.84 9028.7 2354.84C8996.87 2354.84 8969.1 2361.08 8945.39 2373.56C8921.68 2386.04 8903.27 2404.45 8890.16 2428.78C8877.68 2453.12 8871.44 2483.38 8871.44 2519.58V2775.11H8781.59V2279.02H8867.7V2412.87L8853.66 2377.3C8869.88 2344.85 8894.84 2319.58 8928.54 2301.48C8962.24 2283.39 9001.55 2274.34 9046.48 2274.34Z" fill="black"/>
<path d="M8457.44 2780.73C8404.4 2780.73 8357.6 2769.81 8317.03 2747.97C8277.1 2726.13 8245.9 2696.17 8223.43 2658.11C8201.59 2620.04 8190.67 2576.36 8190.67 2527.07C8190.67 2477.77 8201.28 2434.09 8222.5 2396.02C8244.34 2357.96 8273.98 2328.32 8311.42 2307.1C8349.48 2285.26 8392.23 2274.34 8439.65 2274.34C8487.7 2274.34 8530.14 2284.95 8566.95 2306.16C8603.77 2327.38 8632.47 2357.33 8653.07 2396.02C8674.28 2434.09 8684.89 2478.7 8684.89 2529.87C8684.89 2533.62 8684.58 2537.99 8683.96 2542.98C8683.96 2547.97 8683.64 2552.65 8683.02 2557.02H8260.87V2492.43H8636.22L8599.71 2514.9C8600.34 2483.07 8593.79 2454.68 8580.06 2429.72C8566.33 2404.76 8547.3 2385.41 8522.96 2371.69C8499.25 2357.33 8471.48 2350.16 8439.65 2350.16C8408.45 2350.16 8380.68 2357.33 8356.35 2371.69C8332.01 2385.41 8312.98 2405.07 8299.25 2430.66C8285.52 2455.62 8278.66 2484.32 8278.66 2516.77V2531.75C8278.66 2564.82 8286.15 2594.46 8301.12 2620.67C8316.72 2646.25 8338.25 2666.22 8365.71 2680.57C8393.16 2694.93 8424.68 2702.1 8460.25 2702.1C8489.57 2702.1 8516.1 2697.11 8539.81 2687.13C8564.14 2677.14 8585.36 2662.16 8603.46 2642.2L8653.07 2700.23C8630.6 2726.44 8602.52 2746.41 8568.82 2760.13C8535.75 2773.86 8498.62 2780.73 8457.44 2780.73Z" fill="black"/>
<path d="M7912.39 2780.73C7859.35 2780.73 7812.55 2769.81 7771.99 2747.97C7732.05 2726.13 7700.85 2696.17 7678.39 2658.11C7656.55 2620.04 7645.62 2576.36 7645.62 2527.07C7645.62 2477.77 7656.23 2434.09 7677.45 2396.02C7699.29 2357.96 7728.93 2328.32 7766.37 2307.1C7804.44 2285.26 7847.18 2274.34 7894.61 2274.34C7942.66 2274.34 7985.09 2284.95 8021.91 2306.16C8058.72 2327.38 8087.43 2357.33 8108.02 2396.02C8129.24 2434.09 8139.84 2478.7 8139.84 2529.87C8139.84 2533.62 8139.53 2537.99 8138.91 2542.98C8138.91 2547.97 8138.6 2552.65 8137.97 2557.02H7715.83V2492.43H8091.17L8054.67 2514.9C8055.29 2483.07 8048.74 2454.68 8035.01 2429.72C8021.28 2404.76 8002.25 2385.41 7977.91 2371.69C7954.2 2357.33 7926.43 2350.16 7894.61 2350.16C7863.41 2350.16 7835.64 2357.33 7811.3 2371.69C7786.96 2385.41 7767.93 2405.07 7754.2 2430.66C7740.48 2455.62 7733.61 2484.32 7733.61 2516.77V2531.75C7733.61 2564.82 7741.1 2594.46 7756.08 2620.67C7771.68 2646.25 7793.2 2666.22 7820.66 2680.57C7848.12 2694.93 7879.63 2702.1 7915.2 2702.1C7944.53 2702.1 7971.05 2697.11 7994.76 2687.13C8019.1 2677.14 8040.31 2662.16 8058.41 2642.2L8108.02 2700.23C8085.56 2726.44 8057.47 2746.41 8023.78 2760.13C7990.7 2773.86 7953.58 2780.73 7912.39 2780.73Z" fill="black"/>
<path d="M7346.62 2775.11V2279.02H7432.74V2413.81L7424.31 2380.11C7438.04 2345.79 7461.13 2319.58 7493.58 2301.48C7526.03 2283.39 7565.96 2274.34 7613.39 2274.34V2361.39C7609.64 2360.77 7605.9 2360.45 7602.15 2360.45C7599.03 2360.45 7595.91 2360.45 7592.79 2360.45C7544.75 2360.45 7506.68 2374.81 7478.6 2403.51C7450.52 2432.22 7436.48 2473.71 7436.48 2528V2775.11H7346.62Z" fill="black"/>
<path d="M7056.19 2780.73C7005.64 2780.73 6960.4 2769.81 6920.46 2747.97C6881.15 2726.13 6850.26 2696.17 6827.8 2658.11C6805.33 2620.04 6794.1 2576.36 6794.1 2527.07C6794.1 2477.77 6805.33 2434.09 6827.8 2396.02C6850.26 2357.96 6881.15 2328.32 6920.46 2307.1C6960.4 2285.26 7005.64 2274.34 7056.19 2274.34C7101.11 2274.34 7141.05 2283.39 7176 2301.48C7211.57 2318.96 7239.02 2345.17 7258.37 2380.11L7190.04 2424.1C7173.81 2399.77 7153.84 2381.98 7130.13 2370.75C7107.04 2358.89 7082.08 2352.97 7055.25 2352.97C7022.8 2352.97 6993.78 2360.14 6968.2 2374.49C6942.61 2388.85 6922.33 2409.13 6907.36 2435.34C6892.38 2460.92 6884.89 2491.5 6884.89 2527.07C6884.89 2562.63 6892.38 2593.52 6907.36 2619.73C6922.33 2645.94 6942.61 2666.22 6968.2 2680.57C6993.78 2694.93 7022.8 2702.1 7055.25 2702.1C7082.08 2702.1 7107.04 2696.49 7130.13 2685.25C7153.84 2673.4 7173.81 2655.3 7190.04 2630.96L7258.37 2674.02C7239.02 2708.34 7211.57 2734.86 7176 2753.58C7141.05 2771.68 7101.11 2780.73 7056.19 2780.73Z" fill="black"/>
<path d="M6541.39 2780.73C6500.21 2780.73 6460.9 2775.11 6423.46 2763.88C6386.64 2752.65 6357.62 2738.92 6336.41 2722.69L6373.85 2651.56C6395.06 2665.91 6421.27 2678.08 6452.47 2688.06C6483.67 2698.05 6515.5 2703.04 6547.95 2703.04C6589.76 2703.04 6619.71 2697.11 6637.81 2685.25C6656.53 2673.4 6665.89 2656.86 6665.89 2635.64C6665.89 2620.04 6660.27 2607.88 6649.04 2599.14C6637.81 2590.4 6622.83 2583.85 6604.11 2579.48C6586.01 2575.11 6565.73 2571.37 6543.27 2568.25C6520.8 2564.51 6498.34 2560.14 6475.87 2555.15C6453.41 2549.53 6432.82 2542.04 6414.1 2532.68C6395.38 2522.7 6380.4 2509.28 6369.17 2492.43C6357.93 2474.96 6352.32 2451.87 6352.32 2423.17C6352.32 2393.21 6360.74 2367.01 6377.59 2344.54C6394.44 2322.08 6418.15 2304.92 6448.73 2293.06C6479.93 2280.58 6516.75 2274.34 6559.18 2274.34C6591.63 2274.34 6624.39 2278.4 6657.46 2286.51C6691.16 2294 6718.61 2304.92 6739.83 2319.27L6701.45 2390.41C6678.99 2375.43 6655.59 2365.13 6631.25 2359.52C6606.92 2353.9 6582.58 2351.09 6558.24 2351.09C6518.93 2351.09 6489.6 2357.65 6470.26 2370.75C6450.91 2383.23 6441.24 2399.45 6441.24 2419.42C6441.24 2436.27 6446.86 2449.38 6458.09 2458.74C6469.95 2467.47 6484.92 2474.34 6503.02 2479.33C6521.74 2484.32 6542.33 2488.69 6564.8 2492.43C6587.26 2495.55 6609.72 2499.92 6632.19 2505.54C6654.65 2510.53 6674.93 2517.71 6693.03 2527.07C6711.75 2536.43 6726.73 2549.53 6737.96 2566.38C6749.82 2583.23 6755.74 2605.69 6755.74 2633.77C6755.74 2663.72 6747.01 2689.62 6729.54 2711.46C6712.06 2733.3 6687.41 2750.46 6655.59 2762.94C6623.76 2774.8 6585.7 2780.73 6541.39 2780.73Z" fill="black"/>
<path d="M9301.61 1972.38V1551.17H9401.77V1972.38H9301.61ZM9135.94 1808.58V1714.97H9567.44V1808.58H9135.94Z" fill="#FFD700"/>
<path d="M8638.41 2095C8597.23 2095 8557.91 2089.38 8520.47 2078.15C8483.66 2066.92 8454.64 2053.19 8433.42 2036.96L8470.86 1965.83C8492.08 1980.18 8518.29 1992.35 8549.49 2002.33C8580.69 2012.32 8612.52 2017.31 8644.96 2017.31C8686.77 2017.31 8716.73 2011.38 8734.82 1999.52C8753.54 1987.67 8762.9 1971.13 8762.9 1949.91C8762.9 1934.31 8757.29 1922.15 8746.05 1913.41C8734.82 1904.67 8719.85 1898.12 8701.13 1893.75C8683.03 1889.38 8662.75 1885.64 8640.28 1882.52C8617.82 1878.78 8595.36 1874.41 8572.89 1869.42C8550.43 1863.8 8529.83 1856.31 8511.11 1846.95C8492.39 1836.97 8477.42 1823.55 8466.18 1806.7C8454.95 1789.23 8449.34 1766.14 8449.34 1737.44C8449.34 1707.48 8457.76 1681.28 8474.61 1658.81C8491.46 1636.35 8515.17 1619.19 8545.75 1607.33C8576.95 1594.85 8613.76 1588.61 8656.2 1588.61C8688.65 1588.61 8721.41 1592.67 8754.48 1600.78C8788.18 1608.27 8815.63 1619.19 8836.85 1633.54L8798.47 1704.68C8776.01 1689.7 8752.61 1679.4 8728.27 1673.79C8703.93 1668.17 8679.6 1665.36 8655.26 1665.36C8615.95 1665.36 8586.62 1671.92 8567.27 1685.02C8547.93 1697.5 8538.26 1713.72 8538.26 1733.69C8538.26 1750.54 8543.87 1763.65 8555.11 1773.01C8566.96 1781.74 8581.94 1788.61 8600.04 1793.6C8618.76 1798.59 8639.35 1802.96 8661.81 1806.7C8684.28 1809.82 8706.74 1814.19 8729.21 1819.81C8751.67 1824.8 8771.95 1831.98 8790.05 1841.34C8808.77 1850.7 8823.74 1863.8 8834.98 1880.65C8846.83 1897.5 8852.76 1919.96 8852.76 1948.04C8852.76 1977.99 8844.03 2003.89 8826.55 2025.73C8809.08 2047.57 8784.43 2064.73 8752.61 2077.21C8720.78 2089.07 8682.72 2095 8638.41 2095Z" fill="black"/>
<path d="M8141.22 2089.38V1593.29H8227.33V1728.08L8218.91 1694.38C8232.64 1660.06 8255.73 1633.85 8288.17 1615.75C8320.62 1597.66 8360.56 1588.61 8407.98 1588.61V1675.66C8404.24 1675.04 8400.5 1674.72 8396.75 1674.72C8393.63 1674.72 8390.51 1674.72 8387.39 1674.72C8339.34 1674.72 8301.28 1689.08 8273.2 1717.78C8245.12 1746.49 8231.08 1787.98 8231.08 1842.27V2089.38H8141.22Z" fill="black"/>
<path d="M7787.62 2095C7737.7 2095 7693.39 2084.08 7654.7 2062.24C7616.02 2040.4 7585.44 2010.44 7562.97 1972.38C7540.51 1933.69 7529.28 1890.01 7529.28 1841.34C7529.28 1792.04 7540.51 1748.36 7562.97 1710.29C7585.44 1672.23 7616.02 1642.59 7654.7 1621.37C7693.39 1599.53 7737.7 1588.61 7787.62 1588.61C7836.92 1588.61 7880.91 1599.53 7919.6 1621.37C7958.91 1642.59 7989.49 1672.23 8011.33 1710.29C8033.79 1747.73 8045.03 1791.41 8045.03 1841.34C8045.03 1890.63 8033.79 1934.31 8011.33 1972.38C7989.49 2010.44 7958.91 2040.4 7919.6 2062.24C7880.91 2084.08 7836.92 2095 7787.62 2095ZM7787.62 2016.37C7819.44 2016.37 7847.84 2009.2 7872.8 1994.84C7898.38 1980.49 7918.35 1960.21 7932.7 1934C7947.05 1907.17 7954.23 1876.28 7954.23 1841.34C7954.23 1805.77 7947.05 1775.19 7932.7 1749.61C7918.35 1723.4 7898.38 1703.12 7872.8 1688.76C7847.84 1674.41 7819.44 1667.24 7787.62 1667.24C7755.79 1667.24 7727.4 1674.41 7702.44 1688.76C7677.48 1703.12 7657.51 1723.4 7642.54 1749.61C7627.56 1775.19 7620.07 1805.77 7620.07 1841.34C7620.07 1876.28 7627.56 1907.17 7642.54 1934C7657.51 1960.21 7677.48 1980.49 7702.44 1994.84C7727.4 2009.2 7755.79 2016.37 7787.62 2016.37Z" fill="black"/>
<path d="M7221.55 2095C7171.62 2095 7127.32 2084.08 7088.63 2062.24C7049.94 2040.4 7019.36 2010.44 6996.9 1972.38C6974.44 1933.69 6963.2 1890.01 6963.2 1841.34C6963.2 1792.04 6974.44 1748.36 6996.9 1710.29C7019.36 1672.23 7049.94 1642.59 7088.63 1621.37C7127.32 1599.53 7171.62 1588.61 7221.55 1588.61C7270.84 1588.61 7314.84 1599.53 7353.52 1621.37C7392.84 1642.59 7423.41 1672.23 7445.25 1710.29C7467.72 1747.73 7478.95 1791.41 7478.95 1841.34C7478.95 1890.63 7467.72 1934.31 7445.25 1972.38C7423.41 2010.44 7392.84 2040.4 7353.52 2062.24C7314.84 2084.08 7270.84 2095 7221.55 2095ZM7221.55 2016.37C7253.37 2016.37 7281.76 2009.2 7306.72 1994.84C7332.31 1980.49 7352.28 1960.21 7366.63 1934C7380.98 1907.17 7388.16 1876.28 7388.16 1841.34C7388.16 1805.77 7380.98 1775.19 7366.63 1749.61C7352.28 1723.4 7332.31 1703.12 7306.72 1688.76C7281.76 1674.41 7253.37 1667.24 7221.55 1667.24C7189.72 1667.24 7161.33 1674.41 7136.37 1688.76C7111.41 1703.12 7091.44 1723.4 7076.46 1749.61C7061.49 1775.19 7054 1805.77 7054 1841.34C7054 1876.28 7061.49 1907.17 7076.46 1934C7091.44 1960.21 7111.41 1980.49 7136.37 1994.84C7161.33 2009.2 7189.72 2016.37 7221.55 2016.37Z" fill="black"/>
<path d="M6604.11 2095C6556.06 2095 6513 2084.39 6474.94 2063.17C6437.5 2041.95 6407.86 2012.31 6386.01 1974.25C6364.17 1936.18 6353.25 1891.88 6353.25 1841.33C6353.25 1790.79 6364.17 1746.8 6386.01 1709.35C6407.86 1671.29 6437.5 1641.65 6474.94 1620.43C6513 1599.22 6556.06 1588.61 6604.11 1588.61C6645.92 1588.61 6683.67 1597.97 6717.37 1616.69C6751.06 1635.41 6777.9 1663.49 6797.86 1700.93C6818.46 1738.37 6828.75 1785.17 6828.75 1841.33C6828.75 1897.49 6818.77 1944.3 6798.8 1981.74C6779.46 2019.18 6752.94 2047.57 6719.24 2066.91C6685.54 2085.63 6647.16 2095 6604.11 2095ZM6611.6 2016.37C6642.8 2016.37 6670.88 2009.19 6695.84 1994.84C6721.42 1980.49 6741.39 1960.21 6755.74 1934C6770.72 1907.17 6778.21 1876.28 6778.21 1841.33C6778.21 1805.76 6770.72 1775.19 6755.74 1749.6C6741.39 1723.39 6721.42 1703.11 6695.84 1688.76C6670.88 1674.41 6642.8 1667.23 6611.6 1667.23C6579.77 1667.23 6551.38 1674.41 6526.42 1688.76C6501.46 1703.11 6481.49 1723.39 6466.51 1749.6C6451.54 1775.19 6444.05 1805.76 6444.05 1841.33C6444.05 1876.28 6451.54 1907.17 6466.51 1934C6481.49 1960.21 6501.46 1980.49 6526.42 1994.84C6551.38 2009.19 6579.77 2016.37 6611.6 2016.37ZM6781.02 2089.38V1955.53L6786.63 1840.4L6777.27 1725.27V1394.85H6867.13V2089.38H6781.02Z" fill="black"/>
<path d="M5205.88 2780.73V2618.21L5882.7 1799.45L5930.01 1887.91H5218.22V1682.19H6135.73V1844.71L5458.92 2663.47L5407.49 2575.01H6154.25V2780.73H5205.88Z" fill="black"/>
<path fill-rule="evenodd" clip-rule="evenodd" d="M4763.45 1682.19V2780.73H5020.6V1682.19H4763.45Z" fill="black"/>
<path d="M4893.06 1501.15C4845.06 1501.15 4805.28 1486.07 4773.74 1455.89C4743.57 1425.72 4728.48 1389.38 4728.48 1346.86C4728.48 1302.98 4743.57 1266.63 4773.74 1237.83C4805.28 1207.66 4845.06 1192.57 4893.06 1192.57C4941.06 1192.57 4980.15 1206.97 5010.32 1235.78C5041.86 1263.2 5057.63 1298.18 5057.63 1340.69C5057.63 1385.95 5042.55 1424.35 5012.37 1455.89C4982.2 1486.07 4942.43 1501.15 4893.06 1501.15Z" fill="#FFD700"/>
<path d="M3971.36 2780.72V1682.18H4216.16V1984.59L4187.36 1896.13C4220.28 1822.07 4271.71 1765.84 4341.65 1727.44C4412.97 1689.04 4501.42 1669.84 4607.03 1669.84V1914.65C4596.06 1911.9 4585.77 1910.53 4576.17 1910.53C4566.57 1909.16 4556.97 1908.47 4547.37 1908.47C4449.99 1908.47 4372.51 1937.27 4314.91 1994.88C4257.3 2051.11 4228.5 2135.45 4228.5 2247.91V2780.72H3971.36Z" fill="black"/>
<path d="M3231.7 2795.13C3138.44 2795.13 3055.47 2774.55 2982.78 2733.41C2910.09 2692.27 2852.49 2630.55 2809.98 2548.26C2768.83 2464.6 2748.26 2359 2748.26 2231.46C2748.26 2102.54 2769.52 1996.94 2812.03 1914.65C2855.92 1832.36 2914.21 1771.33 2986.89 1731.56C3060.95 1690.41 3142.55 1669.84 3231.7 1669.84C3340.05 1669.84 3435.36 1693.16 3517.65 1739.79C3601.31 1786.42 3667.14 1851.56 3715.14 1935.22C3764.51 2018.88 3789.2 2117.62 3789.2 2231.46C3789.2 2345.29 3764.51 2444.03 3715.14 2527.69C3667.14 2611.35 3601.31 2677.18 3517.65 2725.18C3435.36 2771.81 3340.05 2795.13 3231.7 2795.13ZM2622.77 2780.73V1254.29H2879.92V1937.28L2859.35 2229.4L2867.58 2521.52V2780.73H2622.77ZM3202.9 2575.01C3264.61 2575.01 3319.47 2561.29 3367.47 2533.86C3416.85 2506.43 3455.93 2466.66 3484.73 2414.55C3513.53 2362.43 3527.93 2301.4 3527.93 2231.46C3527.93 2160.14 3513.53 2099.11 3484.73 2048.37C3455.93 1996.25 3416.85 1956.48 3367.47 1929.05C3319.47 1901.62 3264.61 1887.9 3202.9 1887.9C3141.18 1887.9 3085.64 1901.62 3036.27 1929.05C2986.89 1956.48 2947.81 1996.25 2919.01 2048.37C2890.21 2099.11 2875.81 2160.14 2875.81 2231.46C2875.81 2301.4 2890.21 2362.43 2919.01 2414.55C2947.81 2466.66 2986.89 2506.43 3036.27 2533.86C3085.64 2561.29 3141.18 2575.01 3202.9 2575.01Z" fill="black"/>
<path d="M1648.65 809.348C1825.04 771.855 1968.04 887.648 1968.04 1067.98V2684.23C1968.04 2864.56 1825.04 3041.14 1648.65 3078.64L1121.68 3190.65C945.287 3228.14 802.295 3112.35 802.295 2932.02V1315.76C802.295 1135.43 945.287 958.853 1121.68 921.361L1648.65 809.348ZM1680.59 1292.33C1680.59 1184.13 1594.8 1114.66 1488.96 1137.16L1281.37 1181.28C1175.53 1203.78 1089.74 1309.72 1089.74 1417.92V2707.66C1089.74 2815.86 1175.53 2885.34 1281.37 2862.84L1488.96 2818.71C1594.8 2796.22 1680.59 2690.27 1680.59 2582.07V1292.33Z" fill="#1D1D1F"/>
</svg>
