<svg width="140" height="64" viewBox="0 0 140 64" fill="none" xmlns="http://www.w3.org/2000/svg">
<rect width="139.669" height="64" fill="black"/>
<path d="M123.412 44.5915C122.753 44.5915 122.124 44.5016 121.525 44.3219C120.936 44.1422 120.471 43.9225 120.132 43.6629L120.731 42.5247C121.07 42.7544 121.49 42.9491 121.989 43.1088C122.488 43.2685 122.997 43.3484 123.516 43.3484C124.185 43.3484 124.665 43.2536 124.954 43.0639C125.254 42.8742 125.404 42.6096 125.404 42.2701C125.404 42.0205 125.314 41.8258 125.134 41.686C124.954 41.5463 124.715 41.4414 124.415 41.3715C124.126 41.3017 123.801 41.2417 123.442 41.1918C123.082 41.1319 122.723 41.062 122.363 40.9822C122.004 40.8923 121.674 40.7725 121.375 40.6227C121.075 40.463 120.836 40.2483 120.656 39.9787C120.476 39.6992 120.386 39.3298 120.386 38.8705C120.386 38.3913 120.521 37.9719 120.791 37.6125C121.06 37.253 121.44 36.9785 121.929 36.7888C122.428 36.5891 123.017 36.4893 123.696 36.4893C124.215 36.4893 124.74 36.5542 125.269 36.6839C125.808 36.8038 126.247 36.9785 126.587 37.2081L125.973 38.3463C125.613 38.1067 125.239 37.942 124.849 37.8521C124.46 37.7622 124.071 37.7173 123.681 37.7173C123.052 37.7173 122.583 37.8222 122.273 38.0318C121.964 38.2315 121.809 38.4911 121.809 38.8106C121.809 39.0802 121.899 39.2898 122.079 39.4396C122.268 39.5794 122.508 39.6892 122.798 39.7691C123.097 39.8489 123.427 39.9188 123.786 39.9787C124.145 40.0287 124.505 40.0986 124.864 40.1884C125.224 40.2683 125.548 40.3831 125.838 40.5329C126.137 40.6826 126.377 40.8923 126.557 41.1619C126.746 41.4315 126.841 41.7909 126.841 42.2402C126.841 42.7194 126.701 43.1338 126.422 43.4832C126.142 43.8327 125.748 44.1072 125.239 44.3069C124.73 44.4966 124.121 44.5915 123.412 44.5915Z" fill="white"/>
<path d="M115.63 36.4893C116.279 36.4893 116.848 36.6141 117.337 36.8637C117.836 37.1133 118.226 37.4927 118.505 38.0019C118.785 38.5111 118.925 39.155 118.925 39.9338V44.5016H117.487V40.0986C117.487 39.3298 117.297 38.7507 116.918 38.3613C116.548 37.9719 116.024 37.7772 115.345 37.7772C114.836 37.7772 114.392 37.8771 114.012 38.0767C113.633 38.2764 113.339 38.571 113.129 38.9604C112.929 39.3497 112.829 39.834 112.829 40.4131V44.5016H111.392V36.5641H112.769V38.7058L112.545 38.1367C112.804 37.6175 113.204 37.2131 113.743 36.9236C114.282 36.634 114.911 36.4893 115.63 36.4893Z" fill="white"/>
<path d="M106.205 44.5915C105.356 44.5915 104.607 44.4167 103.958 44.0673C103.319 43.7178 102.82 43.2386 102.461 42.6296C102.111 42.0205 101.937 41.3216 101.937 40.5329C101.937 39.7441 102.106 39.0452 102.446 38.4362C102.795 37.8271 103.269 37.3529 103.868 37.0134C104.478 36.664 105.161 36.4893 105.92 36.4893C106.689 36.4893 107.368 36.659 107.957 36.9985C108.546 37.3379 109.005 37.8172 109.335 38.4362C109.674 39.0452 109.844 39.7591 109.844 40.5778C109.844 40.6377 109.839 40.7076 109.829 40.7875C109.829 40.8673 109.824 40.9422 109.814 41.0121H103.06V39.9787H109.065L108.481 40.3382C108.491 39.829 108.386 39.3747 108.167 38.9753C107.947 38.576 107.643 38.2665 107.253 38.0468C106.874 37.8172 106.429 37.7023 105.92 37.7023C105.421 37.7023 104.977 37.8172 104.587 38.0468C104.198 38.2665 103.893 38.581 103.674 38.9903C103.454 39.3897 103.344 39.849 103.344 40.3681V40.6078C103.344 41.1369 103.464 41.6112 103.704 42.0305C103.953 42.4399 104.298 42.7594 104.737 42.989C105.176 43.2186 105.681 43.3334 106.25 43.3334C106.719 43.3334 107.143 43.2536 107.523 43.0938C107.912 42.9341 108.252 42.6945 108.541 42.375L109.335 43.3035C108.975 43.7228 108.526 44.0423 107.987 44.262C107.458 44.4816 106.864 44.5915 106.205 44.5915Z" fill="white"/>
<path d="M97.4841 44.5915C96.6354 44.5915 95.8866 44.4167 95.2376 44.0673C94.5986 43.7178 94.0994 43.2386 93.74 42.6296C93.3905 42.0205 93.2158 41.3216 93.2158 40.5329C93.2158 39.7441 93.3856 39.0452 93.725 38.4362C94.0745 37.8271 94.5487 37.3529 95.1478 37.0134C95.7568 36.664 96.4407 36.4893 97.1995 36.4893C97.9683 36.4893 98.6472 36.659 99.2363 36.9985C99.8254 37.3379 100.285 37.8172 100.614 38.4362C100.954 39.0452 101.123 39.7591 101.123 40.5778C101.123 40.6377 101.118 40.7076 101.108 40.7875C101.108 40.8673 101.103 40.9422 101.093 41.0121H94.339V39.9787H100.345L99.7605 40.3382C99.7705 39.829 99.6656 39.3747 99.446 38.9753C99.2263 38.576 98.9218 38.2665 98.5324 38.0468C98.153 37.8172 97.7087 37.7023 97.1995 37.7023C96.7003 37.7023 96.256 37.8172 95.8666 38.0468C95.4772 38.2665 95.1727 38.581 94.9531 38.9903C94.7334 39.3897 94.6236 39.849 94.6236 40.3681V40.6078C94.6236 41.1369 94.7434 41.6112 94.983 42.0305C95.2326 42.4399 95.5771 42.7594 96.0164 42.989C96.4557 43.2186 96.9599 43.3334 97.529 43.3334C97.9983 43.3334 98.4226 43.2536 98.802 43.0938C99.1914 42.9341 99.5308 42.6945 99.8204 42.375L100.614 43.3035C100.255 43.7228 99.8054 44.0423 99.2663 44.262C98.7371 44.4816 98.143 44.5915 97.4841 44.5915Z" fill="white"/>
<path d="M88.4326 44.5016V36.5641H89.8104V38.7207L89.6757 38.1816C89.8953 37.6325 90.2647 37.2131 90.7839 36.9236C91.3031 36.634 91.9421 36.4893 92.7009 36.4893V37.8821C92.641 37.8721 92.5811 37.8671 92.5212 37.8671C92.4712 37.8671 92.4213 37.8671 92.3714 37.8671C91.6026 37.8671 90.9936 38.0967 90.5443 38.556C90.095 39.0153 89.8703 39.6792 89.8703 40.5478V44.5016H88.4326Z" fill="white"/>
<path d="M83.7842 44.5915C82.9755 44.5915 82.2516 44.4167 81.6126 44.0673C80.9836 43.7178 80.4894 43.2386 80.13 42.6296C79.7705 42.0205 79.5908 41.3216 79.5908 40.5329C79.5908 39.7441 79.7705 39.0452 80.13 38.4362C80.4894 37.8271 80.9836 37.3529 81.6126 37.0134C82.2516 36.664 82.9755 36.4893 83.7842 36.4893C84.5031 36.4893 85.1421 36.634 85.7012 36.9236C86.2703 37.2031 86.7096 37.6225 87.0191 38.1816L85.9258 38.8855C85.6662 38.4961 85.3467 38.2115 84.9673 38.0318C84.5979 37.8421 84.1985 37.7473 83.7692 37.7473C83.25 37.7473 82.7858 37.8621 82.3764 38.0917C81.9671 38.3214 81.6426 38.6459 81.403 39.0652C81.1633 39.4745 81.0435 39.9638 81.0435 40.5329C81.0435 41.102 81.1633 41.5962 81.403 42.0155C81.6426 42.4349 81.9671 42.7594 82.3764 42.989C82.7858 43.2186 83.25 43.3334 83.7692 43.3334C84.1985 43.3334 84.5979 43.2436 84.9673 43.0639C85.3467 42.8742 85.6662 42.5846 85.9258 42.1952L87.0191 42.8842C86.7096 43.4333 86.2703 43.8576 85.7012 44.1571C85.1421 44.4467 84.5031 44.5915 83.7842 44.5915Z" fill="white"/>
<path d="M75.5484 44.5915C74.8894 44.5915 74.2604 44.5016 73.6614 44.3219C73.0723 44.1422 72.608 43.9225 72.2686 43.6629L72.8676 42.5247C73.2071 42.7544 73.6264 42.9491 74.1256 43.1088C74.6248 43.2685 75.134 43.3484 75.6532 43.3484C76.3222 43.3484 76.8014 43.2536 77.0909 43.0639C77.3905 42.8742 77.5402 42.6096 77.5402 42.2701C77.5402 42.0205 77.4504 41.8258 77.2707 41.686C77.0909 41.5463 76.8513 41.4414 76.5518 41.3715C76.2622 41.3017 75.9378 41.2417 75.5783 41.1918C75.2189 41.1319 74.8595 41.062 74.5 40.9822C74.1406 40.8923 73.8111 40.7725 73.5116 40.6227C73.2121 40.463 72.9724 40.2483 72.7927 39.9787C72.613 39.6992 72.5232 39.3298 72.5232 38.8705C72.5232 38.3913 72.6579 37.9719 72.9275 37.6125C73.1971 37.253 73.5765 36.9785 74.0657 36.7888C74.5649 36.5891 75.154 36.4893 75.8329 36.4893C76.3521 36.4893 76.8763 36.5542 77.4054 36.6839C77.9446 36.8038 78.3839 36.9785 78.7234 37.2081L78.1093 38.3463C77.7499 38.1067 77.3755 37.942 76.9861 37.8521C76.5967 37.7622 76.2073 37.7173 75.8179 37.7173C75.1889 37.7173 74.7197 37.8222 74.4102 38.0318C74.1007 38.2315 73.9459 38.4911 73.9459 38.8106C73.9459 39.0802 74.0358 39.2898 74.2155 39.4396C74.4052 39.5794 74.6448 39.6892 74.9343 39.7691C75.2339 39.8489 75.5633 39.9188 75.9228 39.9787C76.2822 40.0287 76.6416 40.0986 77.0011 40.1884C77.3605 40.2683 77.685 40.3831 77.9745 40.5329C78.2741 40.6826 78.5137 40.8923 78.6934 41.1619C78.8831 41.4315 78.978 41.7909 78.978 42.2402C78.978 42.7194 78.8382 43.1338 78.5586 43.4832C78.2791 43.8327 77.8847 44.1072 77.3755 44.3069C76.8663 44.4966 76.2573 44.5915 75.5484 44.5915Z" fill="white"/>
<path d="M119.712 31.6573V24.918H121.315V31.6573H119.712ZM117.062 29.0365V27.5388H123.966V29.0365H117.062Z" fill="#FFD700"/>
<path d="M109.101 33.6188C108.442 33.6188 107.813 33.5289 107.214 33.3492C106.625 33.1695 106.161 32.9499 105.821 32.6903L106.42 31.5521C106.76 31.7817 107.179 31.9764 107.678 32.1361C108.178 32.2959 108.687 32.3758 109.206 32.3758C109.875 32.3758 110.354 32.2809 110.644 32.0912C110.943 31.9015 111.093 31.6369 111.093 31.2975C111.093 31.0479 111.003 30.8532 110.823 30.7134C110.644 30.5736 110.404 30.4688 110.105 30.3989C109.815 30.329 109.49 30.2691 109.131 30.2192C108.772 30.1593 108.412 30.0894 108.053 30.0095C107.693 29.9196 107.364 29.7998 107.064 29.6501C106.765 29.4903 106.525 29.2757 106.345 29.0061C106.166 28.7265 106.076 28.3571 106.076 27.8978C106.076 27.4186 106.211 26.9993 106.48 26.6398C106.75 26.2804 107.129 26.0058 107.618 25.8161C108.118 25.6164 108.707 25.5166 109.386 25.5166C109.905 25.5166 110.429 25.5815 110.958 25.7113C111.497 25.8311 111.937 26.0058 112.276 26.2355L111.662 27.3737C111.303 27.134 110.928 26.9693 110.539 26.8794C110.149 26.7896 109.76 26.7447 109.371 26.7447C108.742 26.7447 108.272 26.8495 107.963 27.0592C107.653 27.2588 107.499 27.5184 107.499 27.8379C107.499 28.1075 107.588 28.3172 107.768 28.4669C107.958 28.6067 108.198 28.7165 108.487 28.7964C108.787 28.8763 109.116 28.9462 109.476 29.0061C109.835 29.056 110.194 29.1259 110.554 29.2158C110.913 29.2956 111.238 29.4105 111.527 29.5602C111.827 29.71 112.066 29.9196 112.246 30.1892C112.436 30.4588 112.531 30.8182 112.531 31.2675C112.531 31.7468 112.391 32.1611 112.111 32.5106C111.832 32.86 111.437 33.1346 110.928 33.3343C110.419 33.524 109.81 33.6188 109.101 33.6188Z" fill="white"/>
<path d="M101.146 33.5289V25.5915H102.523V27.7481L102.389 27.2089C102.608 26.6598 102.978 26.2405 103.497 25.9509C104.016 25.6614 104.655 25.5166 105.414 25.5166V26.9094C105.354 26.8994 105.294 26.8944 105.234 26.8944C105.184 26.8944 105.134 26.8944 105.084 26.8944C104.316 26.8944 103.706 27.1241 103.257 27.5833C102.808 28.0426 102.583 28.7066 102.583 29.5752V33.5289H101.146Z" fill="white"/>
<path d="M95.488 33.6188C94.6892 33.6188 93.9803 33.4441 93.3613 33.0946C92.7423 32.7452 92.2531 32.2659 91.8936 31.6569C91.5342 31.0379 91.3545 30.339 91.3545 29.5602C91.3545 28.7715 91.5342 28.0726 91.8936 27.4635C92.2531 26.8545 92.7423 26.3802 93.3613 26.0408C93.9803 25.6913 94.6892 25.5166 95.488 25.5166C96.2767 25.5166 96.9806 25.6913 97.5996 26.0408C98.2286 26.3802 98.7179 26.8545 99.0673 27.4635C99.4267 28.0626 99.6065 28.7615 99.6065 29.5602C99.6065 30.349 99.4267 31.0479 99.0673 31.6569C98.7179 32.2659 98.2286 32.7452 97.5996 33.0946C96.9806 33.4441 96.2767 33.6188 95.488 33.6188ZM95.488 32.3608C95.9972 32.3608 96.4514 32.246 96.8508 32.0163C97.2602 31.7867 97.5797 31.4622 97.8093 31.0429C98.0389 30.6135 98.1538 30.1193 98.1538 29.5602C98.1538 28.9911 98.0389 28.5019 97.8093 28.0925C97.5797 27.6732 97.2602 27.3487 96.8508 27.1191C96.4514 26.8894 95.9972 26.7746 95.488 26.7746C94.9788 26.7746 94.5245 26.8894 94.1251 27.1191C93.7257 27.3487 93.4063 27.6732 93.1666 28.0925C92.927 28.5019 92.8072 28.9911 92.8072 29.5602C92.8072 30.1193 92.927 30.6135 93.1666 31.0429C93.4063 31.4622 93.7257 31.7867 94.1251 32.0163C94.5245 32.246 94.9788 32.3608 95.488 32.3608Z" fill="white"/>
<path d="M86.4313 33.6188C85.6326 33.6188 84.9237 33.4441 84.3047 33.0946C83.6857 32.7452 83.1964 32.2659 82.837 31.6569C82.4776 31.0379 82.2979 30.339 82.2979 29.5602C82.2979 28.7715 82.4776 28.0726 82.837 27.4635C83.1964 26.8545 83.6857 26.3802 84.3047 26.0408C84.9237 25.6913 85.6326 25.5166 86.4313 25.5166C87.2201 25.5166 87.924 25.6913 88.543 26.0408C89.172 26.3802 89.6612 26.8545 90.0107 27.4635C90.3701 28.0626 90.5498 28.7615 90.5498 29.5602C90.5498 30.349 90.3701 31.0479 90.0107 31.6569C89.6612 32.2659 89.172 32.7452 88.543 33.0946C87.924 33.4441 87.2201 33.6188 86.4313 33.6188ZM86.4313 32.3608C86.9405 32.3608 87.3948 32.246 87.7942 32.0163C88.2035 31.7867 88.523 31.4622 88.7527 31.0429C88.9823 30.6135 89.0971 30.1193 89.0971 29.5602C89.0971 28.9911 88.9823 28.5019 88.7527 28.0925C88.523 27.6732 88.2035 27.3487 87.7942 27.1191C87.3948 26.8894 86.9405 26.7746 86.4313 26.7746C85.9221 26.7746 85.4678 26.8894 85.0685 27.1191C84.6691 27.3487 84.3496 27.6732 84.11 28.0925C83.8704 28.5019 83.7506 28.9911 83.7506 29.5602C83.7506 30.1193 83.8704 30.6135 84.11 31.0429C84.3496 31.4622 84.6691 31.7867 85.0685 32.0163C85.4678 32.246 85.9221 32.3608 86.4313 32.3608Z" fill="white"/>
<path d="M76.5517 33.6203C75.783 33.6203 75.094 33.4505 74.485 33.1111C73.886 32.7716 73.4117 32.2974 73.0623 31.6883C72.7128 31.0793 72.5381 30.3704 72.5381 29.5617C72.5381 28.753 72.7128 28.0491 73.0623 27.45C73.4117 26.841 73.886 26.3667 74.485 26.0273C75.094 25.6878 75.783 25.5181 76.5517 25.5181C77.2207 25.5181 77.8247 25.6678 78.3639 25.9674C78.903 26.2669 79.3324 26.7162 79.6518 27.3152C79.9813 27.9143 80.1461 28.6631 80.1461 29.5617C80.1461 30.4603 79.9863 31.2091 79.6668 31.8081C79.3573 32.4072 78.933 32.8615 78.3938 33.171C77.8547 33.4705 77.2407 33.6203 76.5517 33.6203ZM76.6716 32.3623C77.1708 32.3623 77.6201 32.2474 78.0194 32.0178C78.4288 31.7882 78.7483 31.4637 78.9779 31.0443C79.2175 30.615 79.3373 30.1208 79.3373 29.5617C79.3373 28.9926 79.2175 28.5034 78.9779 28.094C78.7483 27.6747 78.4288 27.3502 78.0194 27.1205C77.6201 26.8909 77.1708 26.7761 76.6716 26.7761C76.1624 26.7761 75.7081 26.8909 75.3087 27.1205C74.9093 27.3502 74.5898 27.6747 74.3502 28.094C74.1106 28.5034 73.9908 28.9926 73.9908 29.5617C73.9908 30.1208 74.1106 30.615 74.3502 31.0443C74.5898 31.4637 74.9093 31.7882 75.3087 32.0178C75.7081 32.2474 76.1624 32.3623 76.6716 32.3623ZM79.3823 33.5304V31.3888L79.4721 29.5467L79.3224 27.7046V22.418H80.7601V33.5304H79.3823Z" fill="white"/>
<path d="M54.1533 44.5893V41.989L64.9824 28.8889L65.7394 30.3042H54.3508V27.0127H69.0309V29.613L58.2019 42.7132L57.379 41.2978H69.3272V44.5893H54.1533Z" fill="white"/>
<path fill-rule="evenodd" clip-rule="evenodd" d="M47.0742 27.0135V44.5901H51.1886V27.0135H47.0742Z" fill="white"/>
<path d="M49.1479 24.1169C48.3798 24.1169 47.7435 23.8756 47.2388 23.3928C46.756 22.9101 46.5146 22.3286 46.5146 21.6483C46.5146 20.9461 46.756 20.3646 47.2388 19.9038C47.7435 19.4211 48.3798 19.1797 49.1479 19.1797C49.9159 19.1797 50.5413 19.4101 51.024 19.8709C51.5287 20.3098 51.7811 20.8693 51.7811 21.5496C51.7811 22.2737 51.5397 22.8881 51.0569 23.3928C50.5742 23.8756 49.9378 24.1169 49.1479 24.1169Z" fill="#FFD700"/>
<path d="M34.4014 44.5905V27.0139H38.3183V31.8524L37.8574 30.4371C38.3841 29.2521 39.207 28.3524 40.3261 27.738C41.4671 27.1236 42.8825 26.8164 44.5721 26.8164V30.7333C44.3966 30.6894 44.232 30.6675 44.0784 30.6675C43.9248 30.6455 43.7712 30.6346 43.6176 30.6346C42.0596 30.6346 40.8198 31.0954 39.8982 32.017C38.9766 32.9167 38.5157 34.2662 38.5157 36.0655V44.5905H34.4014Z" fill="white"/>
<path d="M22.5661 44.8204C21.0739 44.8204 19.7464 44.4912 18.5834 43.8329C17.4204 43.1746 16.4988 42.1872 15.8185 40.8706C15.1602 39.532 14.8311 37.8424 14.8311 35.8016C14.8311 33.739 15.1712 32.0493 15.8514 30.7327C16.5536 29.4161 17.4862 28.4396 18.6492 27.8033C19.8341 27.145 21.1398 26.8158 22.5661 26.8158C24.2996 26.8158 25.8247 27.1889 27.1413 27.9349C28.4798 28.681 29.5331 29.7233 30.3011 31.0619C31.0911 32.4004 31.4861 33.9803 31.4861 35.8016C31.4861 37.6229 31.0911 39.2029 30.3011 40.5414C29.5331 41.8799 28.4798 42.9332 27.1413 43.7012C25.8247 44.4473 24.2996 44.8204 22.5661 44.8204ZM12.8232 44.59V20.167H16.9376V31.0948L16.6085 35.7687L16.7401 40.4427V44.59H12.8232ZM22.1053 41.2984C23.0927 41.2984 23.9705 41.079 24.7385 40.6401C25.5284 40.2013 26.1538 39.5649 26.6146 38.7311C27.0755 37.8972 27.3059 36.9207 27.3059 35.8016C27.3059 34.6606 27.0755 33.6841 26.6146 32.8722C26.1538 32.0384 25.5284 31.402 24.7385 30.9631C23.9705 30.5243 23.0927 30.3048 22.1053 30.3048C21.1178 30.3048 20.2291 30.5243 19.4392 30.9631C18.6492 31.402 18.0238 32.0384 17.563 32.8722C17.1022 33.6841 16.8718 34.6606 16.8718 35.8016C16.8718 36.9207 17.1022 37.8972 17.563 38.7311C18.0238 39.5649 18.6492 40.2013 19.4392 40.6401C20.2291 41.079 21.1178 41.2984 22.1053 41.2984Z" fill="white"/>
</svg>
