<svg width="35" height="16" viewBox="0 0 35 16" fill="none" xmlns="http://www.w3.org/2000/svg">
<rect width="34.9174" height="16" fill="black"/>
<path d="M30.8541 11.1476C30.6894 11.1476 30.5321 11.1252 30.3824 11.0802C30.2351 11.0353 30.119 10.9804 30.0342 10.9155L30.1839 10.6309C30.2688 10.6883 30.3736 10.737 30.4984 10.777C30.6232 10.8169 30.7505 10.8369 30.8803 10.8369C31.0476 10.8369 31.1674 10.8131 31.2398 10.7657C31.3147 10.7183 31.3521 10.6522 31.3521 10.5673C31.3521 10.5049 31.3296 10.4562 31.2847 10.4213C31.2398 10.3863 31.1799 10.3601 31.105 10.3426C31.0326 10.3252 30.9515 10.3102 30.8616 10.2977C30.7718 10.2827 30.6819 10.2653 30.592 10.2453C30.5022 10.2228 30.4198 10.1929 30.3449 10.1554C30.2701 10.1155 30.2102 10.0618 30.1652 9.99444C30.1203 9.92455 30.0978 9.8322 30.0978 9.71738C30.0978 9.59757 30.1315 9.49273 30.1989 9.40288C30.2663 9.31302 30.3612 9.24438 30.4835 9.19695C30.6083 9.14703 30.7555 9.12207 30.9253 9.12207C31.0551 9.12207 31.1861 9.13829 31.3184 9.17074C31.4532 9.2007 31.563 9.24438 31.6479 9.30179L31.4944 9.58634C31.4045 9.52643 31.3109 9.48525 31.2136 9.46278C31.1162 9.44032 31.0189 9.42909 30.9215 9.42909C30.7643 9.42909 30.647 9.45529 30.5696 9.50771C30.4922 9.55763 30.4535 9.62253 30.4535 9.7024C30.4535 9.7698 30.476 9.82221 30.5209 9.85965C30.5683 9.8946 30.6282 9.92206 30.7006 9.94202C30.7755 9.96199 30.8579 9.97947 30.9477 9.99444C31.0376 10.0069 31.1275 10.0244 31.2173 10.0469C31.3072 10.0668 31.3883 10.0955 31.4607 10.133C31.5356 10.1704 31.5955 10.2228 31.6404 10.2902C31.6878 10.3576 31.7115 10.4475 31.7115 10.5598C31.7115 10.6796 31.6766 10.7832 31.6067 10.8706C31.5368 10.9579 31.4382 11.0266 31.3109 11.0765C31.1836 11.1239 31.0314 11.1476 30.8541 11.1476Z" fill="white"/>
<path d="M28.9082 9.12207C29.0705 9.12207 29.2127 9.15327 29.335 9.21567C29.4598 9.27807 29.5572 9.37292 29.6271 9.50022C29.697 9.62752 29.7319 9.78852 29.7319 9.98321V11.1252H29.3725V10.0244C29.3725 9.8322 29.3251 9.68743 29.2302 9.59008C29.1378 9.49273 29.0068 9.44406 28.8371 9.44406C28.7098 9.44406 28.5987 9.46902 28.5038 9.51894C28.409 9.56886 28.3354 9.6425 28.2829 9.73984C28.233 9.83719 28.2081 9.95825 28.2081 10.103V11.1252H27.8486V9.14079H28.1931V9.67619L28.1369 9.53392C28.2018 9.40412 28.3017 9.30303 28.4365 9.23065C28.5712 9.15826 28.7285 9.12207 28.9082 9.12207Z" fill="white"/>
<path d="M26.5524 11.1476C26.3403 11.1476 26.153 11.1039 25.9908 11.0166C25.8311 10.9292 25.7063 10.8094 25.6164 10.6571C25.529 10.5049 25.4854 10.3302 25.4854 10.133C25.4854 9.93578 25.5278 9.76106 25.6127 9.6088C25.7 9.45654 25.8186 9.33798 25.9683 9.25311C26.1206 9.16575 26.2916 9.12207 26.4813 9.12207C26.6735 9.12207 26.8432 9.1645 26.9905 9.24937C27.1377 9.33424 27.2526 9.45405 27.3349 9.6088C27.4198 9.76106 27.4622 9.93953 27.4622 10.1442C27.4622 10.1592 27.461 10.1767 27.4585 10.1966C27.4585 10.2166 27.4572 10.2353 27.4547 10.2528H25.7662V9.99444H27.2675L27.1215 10.0843C27.124 9.957 27.0978 9.84343 27.0429 9.74359C26.988 9.64375 26.9118 9.56637 26.8145 9.51146C26.7197 9.45405 26.6086 9.42534 26.4813 9.42534C26.3565 9.42534 26.2454 9.45405 26.1481 9.51146C26.0507 9.56637 25.9746 9.64499 25.9197 9.74733C25.8648 9.84717 25.8373 9.96199 25.8373 10.0918V10.1517C25.8373 10.284 25.8672 10.4025 25.9272 10.5074C25.9896 10.6097 26.0757 10.6896 26.1855 10.747C26.2953 10.8044 26.4214 10.8331 26.5636 10.8331C26.681 10.8331 26.787 10.8131 26.8819 10.7732C26.9792 10.7333 27.0641 10.6734 27.1365 10.5935L27.3349 10.8256C27.2451 10.9305 27.1327 11.0103 26.998 11.0653C26.8657 11.1202 26.7172 11.1476 26.5524 11.1476Z" fill="white"/>
<path d="M24.3708 11.1476C24.1586 11.1476 23.9714 11.1039 23.8092 11.0166C23.6494 10.9292 23.5246 10.8094 23.4348 10.6571C23.3474 10.5049 23.3037 10.3302 23.3037 10.133C23.3037 9.93578 23.3461 9.76106 23.431 9.6088C23.5184 9.45654 23.6369 9.33798 23.7867 9.25311C23.939 9.16575 24.1099 9.12207 24.2996 9.12207C24.4918 9.12207 24.6616 9.1645 24.8088 9.24937C24.9561 9.33424 25.0709 9.45405 25.1533 9.6088C25.2382 9.76106 25.2806 9.93953 25.2806 10.1442C25.2806 10.1592 25.2793 10.1767 25.2768 10.1966C25.2768 10.2166 25.2756 10.2353 25.2731 10.2528H23.5845V9.99444H25.0859L24.9399 10.0843C24.9424 9.957 24.9162 9.84343 24.8613 9.74359C24.8063 9.64375 24.7302 9.56637 24.6329 9.51146C24.538 9.45405 24.4269 9.42534 24.2996 9.42534C24.1748 9.42534 24.0638 9.45405 23.9664 9.51146C23.8691 9.56637 23.7929 9.64499 23.738 9.74733C23.6831 9.84717 23.6557 9.96199 23.6557 10.0918V10.1517C23.6557 10.284 23.6856 10.4025 23.7455 10.5074C23.8079 10.6097 23.894 10.6896 24.0039 10.747C24.1137 10.8044 24.2397 10.8331 24.382 10.8331C24.4993 10.8331 24.6054 10.8131 24.7003 10.7732C24.7976 10.7333 24.8825 10.6734 24.9549 10.5935L25.1533 10.8256C25.0634 10.9305 24.9511 11.0103 24.8163 11.0653C24.684 11.1202 24.5355 11.1476 24.3708 11.1476Z" fill="white"/>
<path d="M22.1084 11.1252V9.14079H22.4529V9.67994L22.4192 9.54515C22.4741 9.40787 22.5664 9.30303 22.6962 9.23065C22.826 9.15826 22.9858 9.12207 23.1755 9.12207V9.47027C23.1605 9.46777 23.1455 9.46653 23.1305 9.46653C23.1181 9.46653 23.1056 9.46653 23.0931 9.46653C22.9009 9.46653 22.7486 9.52394 22.6363 9.63875C22.524 9.75357 22.4678 9.91956 22.4678 10.1367V11.1252H22.1084Z" fill="white"/>
<path d="M20.9458 11.1476C20.7436 11.1476 20.5627 11.1039 20.4029 11.0166C20.2457 10.9292 20.1221 10.8094 20.0322 10.6571C19.9424 10.5049 19.8975 10.3302 19.8975 10.133C19.8975 9.93578 19.9424 9.76106 20.0322 9.6088C20.1221 9.45654 20.2457 9.33798 20.4029 9.25311C20.5627 9.16575 20.7436 9.12207 20.9458 9.12207C21.1255 9.12207 21.2853 9.15826 21.425 9.23065C21.5673 9.30054 21.6771 9.40537 21.7545 9.54515L21.4812 9.72112C21.4163 9.62378 21.3364 9.55264 21.2416 9.50771C21.1492 9.46029 21.0494 9.43657 20.9421 9.43657C20.8123 9.43657 20.6962 9.46528 20.5939 9.52269C20.4915 9.5801 20.4104 9.66122 20.3505 9.76605C20.2906 9.86839 20.2606 9.9907 20.2606 10.133C20.2606 10.2752 20.2906 10.3988 20.3505 10.5036C20.4104 10.6085 20.4915 10.6896 20.5939 10.747C20.6962 10.8044 20.8123 10.8331 20.9421 10.8331C21.0494 10.8331 21.1492 10.8107 21.2416 10.7657C21.3364 10.7183 21.4163 10.6459 21.4812 10.5486L21.7545 10.7208C21.6771 10.8581 21.5673 10.9642 21.425 11.039C21.2853 11.1114 21.1255 11.1476 20.9458 11.1476Z" fill="white"/>
<path d="M18.8873 11.1476C18.7226 11.1476 18.5653 11.1252 18.4156 11.0802C18.2683 11.0353 18.1522 10.9804 18.0674 10.9155L18.2171 10.6309C18.302 10.6883 18.4068 10.737 18.5316 10.777C18.6565 10.8169 18.7838 10.8369 18.9135 10.8369C19.0808 10.8369 19.2006 10.8131 19.273 10.7657C19.3479 10.7183 19.3853 10.6522 19.3853 10.5673C19.3853 10.5049 19.3628 10.4562 19.3179 10.4213C19.273 10.3863 19.2131 10.3601 19.1382 10.3426C19.0658 10.3252 18.9847 10.3102 18.8948 10.2977C18.805 10.2827 18.7151 10.2653 18.6253 10.2453C18.5354 10.2228 18.453 10.1929 18.3781 10.1554C18.3033 10.1155 18.2434 10.0618 18.1984 9.99444C18.1535 9.92455 18.131 9.8322 18.131 9.71738C18.131 9.59757 18.1647 9.49273 18.2321 9.40288C18.2995 9.31302 18.3944 9.24438 18.5167 9.19695C18.6415 9.14703 18.7887 9.12207 18.9585 9.12207C19.0883 9.12207 19.2193 9.13829 19.3516 9.17074C19.4864 9.2007 19.5962 9.24438 19.6811 9.30179L19.5276 9.58634C19.4377 9.52643 19.3441 9.48525 19.2468 9.46278C19.1494 9.44032 19.0521 9.42909 18.9547 9.42909C18.7975 9.42909 18.6802 9.45529 18.6028 9.50771C18.5254 9.55763 18.4867 9.62253 18.4867 9.7024C18.4867 9.7698 18.5092 9.82221 18.5541 9.85965C18.6015 9.8946 18.6614 9.92206 18.7338 9.94202C18.8087 9.96199 18.8911 9.97947 18.9809 9.99444C19.0708 10.0069 19.1607 10.0244 19.2505 10.0469C19.3404 10.0668 19.4215 10.0955 19.4939 10.133C19.5688 10.1704 19.6287 10.2228 19.6736 10.2902C19.721 10.3576 19.7447 10.4475 19.7447 10.5598C19.7447 10.6796 19.7098 10.7832 19.6399 10.8706C19.57 10.9579 19.4714 11.0266 19.3441 11.0765C19.2168 11.1239 19.0646 11.1476 18.8873 11.1476Z" fill="white"/>
<path d="M29.9293 7.91335V6.22852H30.3299V7.91335H29.9293ZM29.2666 7.25814V6.88373H30.9926V7.25814H29.2666Z" fill="#FFD700"/>
<path d="M27.276 8.40446C27.1113 8.40446 26.954 8.38199 26.8043 8.33706C26.657 8.29213 26.5409 8.23722 26.4561 8.17232L26.6058 7.88777C26.6907 7.94518 26.7955 7.99386 26.9203 8.03379C27.0451 8.07373 27.1724 8.0937 27.3022 8.0937C27.4695 8.0937 27.5893 8.06998 27.6617 8.02256C27.7365 7.97513 27.774 7.90899 27.774 7.82412C27.774 7.76172 27.7515 7.71305 27.7066 7.6781C27.6617 7.64316 27.6017 7.61695 27.5269 7.59948C27.4545 7.58201 27.3734 7.56703 27.2835 7.55455C27.1936 7.53957 27.1038 7.5221 27.0139 7.50213C26.9241 7.47967 26.8417 7.44971 26.7668 7.41227C26.6919 7.37234 26.632 7.31867 26.5871 7.25128C26.5422 7.18139 26.5197 7.08903 26.5197 6.97422C26.5197 6.85441 26.5534 6.74957 26.6208 6.65971C26.6882 6.56985 26.783 6.50121 26.9053 6.45379C27.0301 6.40387 27.1774 6.37891 27.3471 6.37891C27.4769 6.37891 27.608 6.39513 27.7403 6.42758C27.8751 6.45753 27.9849 6.50121 28.0698 6.55862L27.9162 6.84317C27.8264 6.78327 27.7328 6.74208 27.6354 6.71962C27.5381 6.69715 27.4407 6.68592 27.3434 6.68592C27.1862 6.68592 27.0688 6.71213 26.9915 6.76455C26.9141 6.81447 26.8754 6.87937 26.8754 6.95924C26.8754 7.02663 26.8979 7.07905 26.9428 7.11649C26.9902 7.15144 27.0501 7.17889 27.1225 7.19886C27.1974 7.21883 27.2798 7.2363 27.3696 7.25128C27.4595 7.26376 27.5493 7.28123 27.6392 7.3037C27.729 7.32366 27.8102 7.35237 27.8826 7.38981C27.9574 7.42725 28.0173 7.47967 28.0623 7.54706C28.1097 7.61445 28.1334 7.70431 28.1334 7.81664C28.1334 7.93645 28.0985 8.04003 28.0286 8.12739C27.9587 8.21476 27.8601 8.2834 27.7328 8.33332C27.6055 8.38074 27.4532 8.40446 27.276 8.40446Z" fill="white"/>
<path d="M25.2861 8.38199V6.39763H25.6306V6.93678L25.5969 6.80199C25.6518 6.6647 25.7442 6.55987 25.874 6.48748C26.0037 6.4151 26.1635 6.37891 26.3532 6.37891V6.72711C26.3382 6.72461 26.3232 6.72336 26.3083 6.72336C26.2958 6.72336 26.2833 6.72336 26.2708 6.72336C26.0786 6.72336 25.9264 6.78077 25.814 6.89559C25.7017 7.01041 25.6456 7.1764 25.6456 7.39355V8.38199H25.2861Z" fill="white"/>
<path d="M23.8722 8.40446C23.6726 8.40446 23.4953 8.36078 23.3406 8.27341C23.1858 8.18605 23.0635 8.06624 22.9737 7.91398C22.8838 7.75923 22.8389 7.5845 22.8389 7.38981C22.8389 7.19262 22.8838 7.0179 22.9737 6.86564C23.0635 6.71338 23.1858 6.59482 23.3406 6.50995C23.4953 6.42259 23.6726 6.37891 23.8722 6.37891C24.0694 6.37891 24.2454 6.42259 24.4002 6.50995C24.5574 6.59482 24.6797 6.71338 24.7671 6.86564C24.8569 7.0154 24.9019 7.19012 24.9019 7.38981C24.9019 7.587 24.8569 7.76172 24.7671 7.91398C24.6797 8.06624 24.5574 8.18605 24.4002 8.27341C24.2454 8.36078 24.0694 8.40446 23.8722 8.40446ZM23.8722 8.08995C23.9995 8.08995 24.1131 8.06125 24.2129 8.00384C24.3153 7.94643 24.3952 7.86531 24.4526 7.76047C24.51 7.65314 24.5387 7.52959 24.5387 7.38981C24.5387 7.24753 24.51 7.12523 24.4526 7.02289C24.3952 6.91805 24.3153 6.83693 24.2129 6.77952C24.1131 6.72211 23.9995 6.69341 23.8722 6.69341C23.7449 6.69341 23.6314 6.72211 23.5315 6.77952C23.4317 6.83693 23.3518 6.91805 23.2919 7.02289C23.232 7.12523 23.202 7.24753 23.202 7.38981C23.202 7.52959 23.232 7.65314 23.2919 7.76047C23.3518 7.86531 23.4317 7.94643 23.5315 8.00384C23.6314 8.06125 23.7449 8.08995 23.8722 8.08995Z" fill="white"/>
<path d="M21.6086 8.40446C21.4089 8.40446 21.2317 8.36078 21.0769 8.27341C20.9221 8.18605 20.7998 8.06624 20.71 7.91398C20.6201 7.75923 20.5752 7.5845 20.5752 7.38981C20.5752 7.19262 20.6201 7.0179 20.71 6.86564C20.7998 6.71338 20.9221 6.59482 21.0769 6.50995C21.2317 6.42259 21.4089 6.37891 21.6086 6.37891C21.8058 6.37891 21.9817 6.42259 22.1365 6.50995C22.2937 6.59482 22.416 6.71338 22.5034 6.86564C22.5933 7.0154 22.6382 7.19012 22.6382 7.38981C22.6382 7.587 22.5933 7.76172 22.5034 7.91398C22.416 8.06624 22.2937 8.18605 22.1365 8.27341C21.9817 8.36078 21.8058 8.40446 21.6086 8.40446ZM21.6086 8.08995C21.7359 8.08995 21.8494 8.06125 21.9493 8.00384C22.0516 7.94643 22.1315 7.86531 22.1889 7.76047C22.2463 7.65314 22.275 7.52959 22.275 7.38981C22.275 7.24753 22.2463 7.12523 22.1889 7.02289C22.1315 6.91805 22.0516 6.83693 21.9493 6.77952C21.8494 6.72211 21.7359 6.69341 21.6086 6.69341C21.4813 6.69341 21.3677 6.72211 21.2679 6.77952C21.168 6.83693 21.0881 6.91805 21.0282 7.02289C20.9683 7.12523 20.9384 7.24753 20.9384 7.38981C20.9384 7.52959 20.9683 7.65314 21.0282 7.76047C21.0881 7.86531 21.168 7.94643 21.2679 8.00384C21.3677 8.06125 21.4813 8.08995 21.6086 8.08995Z" fill="white"/>
<path d="M19.1392 8.40409C18.947 8.40409 18.7747 8.36166 18.6225 8.27679C18.4727 8.19193 18.3541 8.07336 18.2668 7.9211C18.1794 7.76885 18.1357 7.59163 18.1357 7.38944C18.1357 7.18726 18.1794 7.01129 18.2668 6.86153C18.3541 6.70927 18.4727 6.59071 18.6225 6.50584C18.7747 6.42097 18.947 6.37854 19.1392 6.37854C19.3064 6.37854 19.4574 6.41598 19.5922 6.49086C19.727 6.56575 19.8343 6.67807 19.9142 6.82783C19.9966 6.97759 20.0377 7.1648 20.0377 7.38944C20.0377 7.61409 19.9978 7.80129 19.9179 7.95106C19.8405 8.10082 19.7345 8.21439 19.5997 8.29177C19.4649 8.36665 19.3114 8.40409 19.1392 8.40409ZM19.1691 8.08959C19.2939 8.08959 19.4062 8.06088 19.5061 8.00347C19.6084 7.94607 19.6883 7.86494 19.7457 7.76011C19.8056 7.65278 19.8356 7.52922 19.8356 7.38944C19.8356 7.24717 19.8056 7.12486 19.7457 7.02252C19.6883 6.91769 19.6084 6.83657 19.5061 6.77916C19.4062 6.72175 19.2939 6.69304 19.1691 6.69304C19.0418 6.69304 18.9282 6.72175 18.8284 6.77916C18.7286 6.83657 18.6487 6.91769 18.5888 7.02252C18.5289 7.12486 18.4989 7.24717 18.4989 7.38944C18.4989 7.52922 18.5289 7.65278 18.5888 7.76011C18.6487 7.86494 18.7286 7.94607 18.8284 8.00347C18.9282 8.06088 19.0418 8.08959 19.1691 8.08959ZM19.8468 8.38163V7.84622L19.8693 7.3857L19.8318 6.92518V5.60352H20.1912V8.38163H19.8468Z" fill="white"/>
<path d="M13.54 11.1481V10.498L16.2473 7.22295L16.4366 7.57678H13.5894V6.75391H17.2594V7.40398L14.5522 10.679L14.3465 10.3252H17.3335V11.1481H13.54Z" fill="white"/>
<path fill-rule="evenodd" clip-rule="evenodd" d="M11.7717 6.75337V11.1475H12.8003V6.75337H11.7717Z" fill="white"/>
<path d="M12.2901 6.02924C12.0981 6.02924 11.939 5.96889 11.8129 5.8482C11.6922 5.72751 11.6318 5.58214 11.6318 5.41208C11.6318 5.23653 11.6922 5.09116 11.8129 4.97595C11.939 4.85527 12.0981 4.79492 12.2901 4.79492C12.4821 4.79492 12.6385 4.85252 12.7592 4.96773C12.8854 5.07744 12.9484 5.21733 12.9484 5.38739C12.9484 5.56842 12.8881 5.72203 12.7674 5.8482C12.6467 5.96889 12.4876 6.02924 12.2901 6.02924Z" fill="#FFD700"/>
<path d="M8.60254 11.1476V6.75347H9.58176V7.9631L9.46656 7.60927C9.59822 7.31303 9.80394 7.08811 10.0837 6.93451C10.369 6.7809 10.7228 6.7041 11.1452 6.7041V7.68332C11.1013 7.67235 11.0602 7.66687 11.0218 7.66687C10.9834 7.66138 10.945 7.65864 10.9066 7.65864C10.5171 7.65864 10.2071 7.77384 9.97674 8.00425C9.74634 8.22917 9.63113 8.56654 9.63113 9.01638V11.1476H8.60254Z" fill="white"/>
<path d="M5.64372 11.2044C5.27068 11.2044 4.93879 11.1221 4.64804 10.9575C4.35729 10.7929 4.12689 10.5461 3.95682 10.2169C3.79225 9.88227 3.70996 9.45986 3.70996 8.94968C3.70996 8.43401 3.79499 8.0116 3.96505 7.68245C4.1406 7.3533 4.37375 7.10918 4.6645 6.95009C4.96073 6.78551 5.28714 6.70323 5.64372 6.70323C6.0771 6.70323 6.45837 6.79648 6.78752 6.983C7.12215 7.16952 7.38547 7.4301 7.57748 7.76474C7.77497 8.09937 7.87371 8.49435 7.87371 8.94968C7.87371 9.405 7.77497 9.79998 7.57748 10.1346C7.38547 10.4693 7.12215 10.7326 6.78752 10.9246C6.45837 11.1111 6.0771 11.2044 5.64372 11.2044ZM3.20801 11.1468V5.04102H4.2366V7.77296L4.15432 8.94145L4.18723 10.1099V11.1468H3.20801ZM5.52852 10.3239C5.77538 10.3239 5.99481 10.269 6.18682 10.1593C6.38431 10.0496 6.54066 9.8905 6.65586 9.68204C6.77106 9.47357 6.82866 9.22945 6.82866 8.94968C6.82866 8.66441 6.77106 8.42029 6.65586 8.21732C6.54066 8.00886 6.38431 7.84977 6.18682 7.74005C5.99481 7.63033 5.77538 7.57547 5.52852 7.57547C5.28166 7.57547 5.05948 7.63033 4.86199 7.74005C4.6645 7.84977 4.50815 8.00886 4.39295 8.21732C4.27775 8.42029 4.22015 8.66441 4.22015 8.94968C4.22015 9.22945 4.27775 9.47357 4.39295 9.68204C4.50815 9.8905 4.6645 10.0496 4.86199 10.1593C5.05948 10.269 5.28166 10.3239 5.52852 10.3239Z" fill="white"/>
</svg>
