<svg width="8730" height="4000" viewBox="0 0 8730 4000" fill="none" xmlns="http://www.w3.org/2000/svg">
<rect width="8729.34" height="4000" fill="black"/>
<path d="M7713.39 2786.87C7672.2 2786.87 7632.89 2781.26 7595.45 2770.03C7558.63 2758.79 7529.61 2745.07 7508.4 2728.84L7545.84 2657.7C7567.05 2672.06 7593.26 2684.22 7624.46 2694.21C7655.66 2704.19 7687.49 2709.19 7719.94 2709.19C7761.75 2709.19 7791.7 2703.26 7809.8 2691.4C7828.52 2679.54 7837.88 2663.01 7837.88 2641.79C7837.88 2626.19 7832.26 2614.02 7821.03 2605.29C7809.8 2596.55 7794.82 2590 7776.1 2585.63C7758 2581.26 7737.72 2577.52 7715.26 2574.4C7692.79 2570.65 7670.33 2566.29 7647.86 2561.29C7625.4 2555.68 7604.81 2548.19 7586.09 2538.83C7567.37 2528.84 7552.39 2515.43 7541.16 2498.58C7529.92 2481.11 7524.31 2458.02 7524.31 2429.31C7524.31 2399.36 7532.73 2373.15 7549.58 2350.69C7566.43 2328.22 7590.14 2311.06 7620.72 2299.21C7651.92 2286.73 7688.74 2280.49 7731.17 2280.49C7763.62 2280.49 7796.38 2284.54 7829.45 2292.66C7863.15 2300.14 7890.61 2311.06 7911.82 2325.42L7873.44 2396.55C7850.98 2381.58 7827.58 2371.28 7803.24 2365.67C7778.91 2360.05 7754.57 2357.24 7730.23 2357.24C7690.92 2357.24 7661.59 2363.79 7642.25 2376.9C7622.9 2389.38 7613.23 2405.6 7613.23 2425.57C7613.23 2442.42 7618.85 2455.52 7630.08 2464.88C7641.94 2473.62 7656.91 2480.48 7675.01 2485.48C7693.73 2490.47 7714.32 2494.84 7736.79 2498.58C7759.25 2501.7 7781.71 2506.07 7804.18 2511.68C7826.64 2516.68 7846.92 2523.85 7865.02 2533.21C7883.74 2542.57 7898.72 2555.68 7909.95 2572.53C7921.81 2589.37 7927.73 2611.84 7927.73 2639.92C7927.73 2669.87 7919 2695.77 7901.53 2717.61C7884.05 2739.45 7859.4 2756.61 7827.58 2769.09C7795.76 2780.95 7757.69 2786.87 7713.39 2786.87Z" fill="white"/>
<path d="M7226.97 2280.49C7267.53 2280.49 7303.1 2288.29 7333.67 2303.89C7364.87 2319.49 7389.21 2343.2 7406.68 2375.03C7424.15 2406.85 7432.89 2447.1 7432.89 2495.77V2781.26H7343.03V2506.07C7343.03 2458.02 7331.18 2421.83 7307.46 2397.49C7284.38 2373.15 7251.61 2360.99 7209.18 2360.99C7177.36 2360.99 7149.59 2367.23 7125.88 2379.71C7102.16 2392.19 7083.75 2410.59 7070.65 2434.93C7058.17 2459.27 7051.93 2489.53 7051.93 2525.72V2781.26H6962.07V2285.17H7048.19V2419.02L7034.15 2383.45C7050.37 2351 7075.33 2325.73 7109.03 2307.63C7142.72 2289.54 7182.04 2280.49 7226.97 2280.49Z" fill="white"/>
<path d="M6637.92 2786.87C6584.88 2786.87 6538.08 2775.95 6497.52 2754.11C6457.58 2732.27 6426.38 2702.32 6403.92 2664.26C6382.08 2626.19 6371.16 2582.51 6371.16 2533.21C6371.16 2483.92 6381.77 2440.23 6402.98 2402.17C6424.82 2364.11 6454.46 2334.46 6491.9 2313.25C6529.97 2291.41 6572.71 2280.49 6620.14 2280.49C6668.19 2280.49 6710.62 2291.1 6747.44 2312.31C6784.26 2333.53 6812.96 2363.48 6833.55 2402.17C6854.77 2440.23 6865.38 2484.85 6865.38 2536.02C6865.38 2539.77 6865.07 2544.13 6864.44 2549.13C6864.44 2554.12 6864.13 2558.8 6863.51 2563.17H6441.36V2498.58H6816.7L6780.2 2521.04C6780.82 2489.22 6774.27 2460.83 6760.54 2435.87C6746.81 2410.91 6727.78 2391.56 6703.45 2377.83C6679.73 2363.48 6651.96 2356.3 6620.14 2356.3C6588.94 2356.3 6561.17 2363.48 6536.83 2377.83C6512.5 2391.56 6493.46 2411.22 6479.74 2436.8C6466.01 2461.76 6459.14 2490.47 6459.14 2522.92V2537.89C6459.14 2570.97 6466.63 2600.61 6481.61 2626.82C6497.21 2652.4 6518.74 2672.37 6546.19 2686.72C6573.65 2701.07 6605.16 2708.25 6640.73 2708.25C6670.06 2708.25 6696.58 2703.26 6720.29 2693.27C6744.63 2683.29 6765.85 2668.31 6783.94 2648.34L6833.55 2706.38C6811.09 2732.59 6783.01 2752.55 6749.31 2766.28C6716.24 2780.01 6679.11 2786.87 6637.92 2786.87Z" fill="white"/>
<path d="M6092.87 2786.87C6039.83 2786.87 5993.03 2775.95 5952.47 2754.11C5912.53 2732.27 5881.33 2702.32 5858.87 2664.26C5837.03 2626.19 5826.11 2582.51 5826.11 2533.21C5826.11 2483.92 5836.72 2440.23 5857.93 2402.17C5879.77 2364.11 5909.41 2334.46 5946.85 2313.25C5984.92 2291.41 6027.66 2280.49 6075.09 2280.49C6123.14 2280.49 6165.57 2291.1 6202.39 2312.31C6239.2 2333.53 6267.91 2363.48 6288.5 2402.17C6309.72 2440.23 6320.33 2484.85 6320.33 2536.02C6320.33 2539.77 6320.01 2544.13 6319.39 2549.13C6319.39 2554.12 6319.08 2558.8 6318.45 2563.17H5896.31V2498.58H6271.65L6235.15 2521.04C6235.77 2489.22 6229.22 2460.83 6215.49 2435.87C6201.76 2410.91 6182.73 2391.56 6158.4 2377.83C6134.68 2363.48 6106.91 2356.3 6075.09 2356.3C6043.89 2356.3 6016.12 2363.48 5991.78 2377.83C5967.45 2391.56 5948.41 2411.22 5934.69 2436.8C5920.96 2461.76 5914.09 2490.47 5914.09 2522.92V2537.89C5914.09 2570.97 5921.58 2600.61 5936.56 2626.82C5952.16 2652.4 5973.69 2672.37 6001.14 2686.72C6028.6 2701.07 6060.11 2708.25 6095.68 2708.25C6125.01 2708.25 6151.53 2703.26 6175.24 2693.27C6199.58 2683.29 6220.8 2668.31 6238.89 2648.34L6288.5 2706.38C6266.04 2732.59 6237.96 2752.55 6204.26 2766.28C6171.19 2780.01 6134.06 2786.87 6092.87 2786.87Z" fill="white"/>
<path d="M5527.11 2781.26V2285.17H5613.22V2419.95L5604.8 2386.26C5618.53 2351.94 5641.61 2325.73 5674.06 2307.63C5706.51 2289.54 5746.45 2280.49 5793.87 2280.49V2367.54C5790.13 2366.91 5786.39 2366.6 5782.64 2366.6C5779.52 2366.6 5776.4 2366.6 5773.28 2366.6C5725.23 2366.6 5687.17 2380.95 5659.09 2409.66C5631.01 2438.36 5616.97 2479.86 5616.97 2534.15V2781.26H5527.11Z" fill="white"/>
<path d="M5236.67 2786.87C5186.12 2786.87 5140.88 2775.95 5100.95 2754.11C5061.63 2732.27 5030.75 2702.32 5008.28 2664.26C4985.82 2626.19 4974.58 2582.51 4974.58 2533.21C4974.58 2483.92 4985.82 2440.23 5008.28 2402.17C5030.75 2364.11 5061.63 2334.46 5100.95 2313.25C5140.88 2291.41 5186.12 2280.49 5236.67 2280.49C5281.6 2280.49 5321.54 2289.54 5356.48 2307.63C5392.05 2325.1 5419.51 2351.31 5438.85 2386.26L5370.52 2430.25C5354.3 2405.91 5334.33 2388.13 5310.62 2376.9C5287.53 2365.04 5262.57 2359.11 5235.73 2359.11C5203.29 2359.11 5174.27 2366.29 5148.68 2380.64C5123.1 2394.99 5102.82 2415.27 5087.84 2441.48C5072.87 2467.07 5065.38 2497.64 5065.38 2533.21C5065.38 2568.78 5072.87 2599.67 5087.84 2625.88C5102.82 2652.09 5123.1 2672.37 5148.68 2686.72C5174.27 2701.07 5203.29 2708.25 5235.73 2708.25C5262.57 2708.25 5287.53 2702.63 5310.62 2691.4C5334.33 2679.54 5354.3 2661.45 5370.52 2637.11L5438.85 2680.17C5419.51 2714.49 5392.05 2741.01 5356.48 2759.73C5321.54 2777.83 5281.6 2786.87 5236.67 2786.87Z" fill="white"/>
<path d="M4721.88 2786.87C4680.7 2786.87 4641.38 2781.26 4603.94 2770.03C4567.13 2758.79 4538.11 2745.07 4516.89 2728.84L4554.33 2657.7C4575.55 2672.06 4601.76 2684.22 4632.96 2694.21C4664.16 2704.19 4695.98 2709.19 4728.43 2709.19C4770.24 2709.19 4800.2 2703.26 4818.29 2691.4C4837.01 2679.54 4846.37 2663.01 4846.37 2641.79C4846.37 2626.19 4840.76 2614.02 4829.52 2605.29C4818.29 2596.55 4803.32 2590 4784.59 2585.63C4766.5 2581.26 4746.22 2577.52 4723.75 2574.4C4701.29 2570.65 4678.82 2566.29 4656.36 2561.29C4633.9 2555.68 4613.3 2548.19 4594.58 2538.83C4575.86 2528.84 4560.89 2515.43 4549.65 2498.58C4538.42 2481.11 4532.8 2458.02 4532.8 2429.31C4532.8 2399.36 4541.23 2373.15 4558.08 2350.69C4574.93 2328.22 4598.64 2311.06 4629.22 2299.21C4660.42 2286.73 4697.23 2280.49 4739.67 2280.49C4772.11 2280.49 4804.88 2284.54 4837.95 2292.66C4871.64 2300.14 4899.1 2311.06 4920.32 2325.42L4881.94 2396.55C4859.48 2381.58 4836.08 2371.28 4811.74 2365.67C4787.4 2360.05 4763.07 2357.24 4738.73 2357.24C4699.42 2357.24 4670.09 2363.79 4650.74 2376.9C4631.4 2389.38 4621.73 2405.6 4621.73 2425.57C4621.73 2442.42 4627.34 2455.52 4638.58 2464.88C4650.43 2473.62 4665.41 2480.48 4683.5 2485.48C4702.22 2490.47 4722.82 2494.84 4745.28 2498.58C4767.75 2501.7 4790.21 2506.07 4812.68 2511.68C4835.14 2516.68 4855.42 2523.85 4873.52 2533.21C4892.24 2542.57 4907.21 2555.68 4918.45 2572.53C4930.3 2589.37 4936.23 2611.84 4936.23 2639.92C4936.23 2669.87 4927.49 2695.77 4910.02 2717.61C4892.55 2739.45 4867.9 2756.61 4836.08 2769.09C4804.25 2780.95 4766.19 2786.87 4721.88 2786.87Z" fill="white"/>
<path d="M7482.1 1978.53V1557.32H7582.25V1978.53H7482.1ZM7316.42 1814.72V1721.12H7747.93V1814.72H7316.42Z" fill="#FFD700"/>
<path d="M6818.9 2101.15C6777.71 2101.15 6738.4 2095.53 6700.96 2084.3C6664.14 2073.06 6635.13 2059.34 6613.91 2043.11L6651.35 1971.97C6672.57 1986.33 6698.78 1998.5 6729.98 2008.48C6761.18 2018.46 6793 2023.46 6825.45 2023.46C6867.26 2023.46 6897.21 2017.53 6915.31 2005.67C6934.03 1993.81 6943.39 1977.28 6943.39 1956.06C6943.39 1940.46 6937.77 1928.29 6926.54 1919.56C6915.31 1910.82 6900.33 1904.27 6881.61 1899.9C6863.52 1895.53 6843.24 1891.79 6820.77 1888.67C6798.31 1884.92 6775.84 1880.56 6753.38 1875.56C6730.91 1869.95 6710.32 1862.46 6691.6 1853.1C6672.88 1843.12 6657.9 1829.7 6646.67 1812.85C6635.44 1795.38 6629.82 1772.29 6629.82 1743.59C6629.82 1713.63 6638.25 1687.42 6655.1 1664.96C6671.94 1642.49 6695.66 1625.33 6726.23 1613.48C6757.43 1601 6794.25 1594.76 6836.68 1594.76C6869.13 1594.76 6901.89 1598.81 6934.97 1606.93C6968.66 1614.41 6996.12 1625.33 7017.34 1639.69L6978.96 1710.82C6956.49 1695.85 6933.09 1685.55 6908.76 1679.94C6884.42 1674.32 6860.08 1671.51 6835.75 1671.51C6796.43 1671.51 6767.11 1678.06 6747.76 1691.17C6728.42 1703.65 6718.74 1719.87 6718.74 1739.84C6718.74 1756.69 6724.36 1769.79 6735.59 1779.15C6747.45 1787.89 6762.43 1794.75 6780.52 1799.75C6799.24 1804.74 6819.83 1809.11 6842.3 1812.85C6864.76 1815.97 6887.23 1820.34 6909.69 1825.96C6932.16 1830.95 6952.44 1838.12 6970.53 1847.48C6989.25 1856.84 7004.23 1869.95 7015.46 1886.8C7027.32 1903.64 7033.25 1926.11 7033.25 1954.19C7033.25 1984.14 7024.51 2010.04 7007.04 2031.88C6989.57 2053.72 6964.92 2070.88 6933.09 2083.36C6901.27 2095.22 6863.2 2101.15 6818.9 2101.15Z" fill="white"/>
<path d="M6321.7 2095.53V1599.44H6407.82V1734.23L6399.39 1700.53C6413.12 1666.21 6436.21 1640 6468.66 1621.9C6501.11 1603.81 6541.04 1594.76 6588.47 1594.76V1681.81C6584.72 1681.18 6580.98 1680.87 6577.23 1680.87C6574.11 1680.87 6570.99 1680.87 6567.87 1680.87C6519.83 1680.87 6481.76 1695.22 6453.68 1723.93C6425.6 1752.63 6411.56 1794.13 6411.56 1848.42V2095.53H6321.7Z" fill="white"/>
<path d="M5968.11 2101.15C5918.18 2101.15 5873.88 2090.23 5835.19 2068.38C5796.5 2046.54 5765.92 2016.59 5743.46 1978.53C5721 1939.84 5709.76 1896.16 5709.76 1847.48C5709.76 1798.19 5721 1754.51 5743.46 1716.44C5765.92 1678.38 5796.5 1648.74 5835.19 1627.52C5873.88 1605.68 5918.18 1594.76 5968.11 1594.76C6017.4 1594.76 6061.4 1605.68 6100.08 1627.52C6139.4 1648.74 6169.97 1678.38 6191.81 1716.44C6214.28 1753.88 6225.51 1797.56 6225.51 1847.48C6225.51 1896.78 6214.28 1940.46 6191.81 1978.53C6169.97 2016.59 6139.4 2046.54 6100.08 2068.38C6061.4 2090.23 6017.4 2101.15 5968.11 2101.15ZM5968.11 2022.52C5999.93 2022.52 6028.32 2015.34 6053.28 2000.99C6078.87 1986.64 6098.84 1966.36 6113.19 1940.15C6127.54 1913.32 6134.72 1882.43 6134.72 1847.48C6134.72 1811.91 6127.54 1781.34 6113.19 1755.75C6098.84 1729.54 6078.87 1709.26 6053.28 1694.91C6028.32 1680.56 5999.93 1673.38 5968.11 1673.38C5936.28 1673.38 5907.89 1680.56 5882.93 1694.91C5857.97 1709.26 5838 1729.54 5823.02 1755.75C5808.05 1781.34 5800.56 1811.91 5800.56 1847.48C5800.56 1882.43 5808.05 1913.32 5823.02 1940.15C5838 1966.36 5857.97 1986.64 5882.93 2000.99C5907.89 2015.34 5936.28 2022.52 5968.11 2022.52Z" fill="white"/>
<path d="M5402.03 2101.15C5352.11 2101.15 5307.81 2090.23 5269.12 2068.38C5230.43 2046.54 5199.85 2016.59 5177.39 1978.53C5154.92 1939.84 5143.69 1896.16 5143.69 1847.48C5143.69 1798.19 5154.92 1754.51 5177.39 1716.44C5199.85 1678.38 5230.43 1648.74 5269.12 1627.52C5307.81 1605.68 5352.11 1594.76 5402.03 1594.76C5451.33 1594.76 5495.32 1605.68 5534.01 1627.52C5573.32 1648.74 5603.9 1678.38 5625.74 1716.44C5648.21 1753.88 5659.44 1797.56 5659.44 1847.48C5659.44 1896.78 5648.21 1940.46 5625.74 1978.53C5603.9 2016.59 5573.32 2046.54 5534.01 2068.38C5495.32 2090.23 5451.33 2101.15 5402.03 2101.15ZM5402.03 2022.52C5433.86 2022.52 5462.25 2015.34 5487.21 2000.99C5512.79 1986.64 5532.76 1966.36 5547.11 1940.15C5561.47 1913.32 5568.64 1882.43 5568.64 1847.48C5568.64 1811.91 5561.47 1781.34 5547.11 1755.75C5532.76 1729.54 5512.79 1709.26 5487.21 1694.91C5462.25 1680.56 5433.86 1673.38 5402.03 1673.38C5370.21 1673.38 5341.81 1680.56 5316.85 1694.91C5291.89 1709.26 5271.92 1729.54 5256.95 1755.75C5241.97 1781.34 5234.48 1811.91 5234.48 1847.48C5234.48 1882.43 5241.97 1913.32 5256.95 1940.15C5271.92 1966.36 5291.89 1986.64 5316.85 2000.99C5341.81 2015.34 5370.21 2022.52 5402.03 2022.52Z" fill="white"/>
<path d="M4784.59 2101.15C4736.54 2101.15 4693.49 2090.54 4655.42 2069.32C4617.98 2048.1 4588.34 2018.46 4566.5 1980.4C4544.66 1942.33 4533.74 1898.03 4533.74 1847.48C4533.74 1796.94 4544.66 1752.95 4566.5 1715.51C4588.34 1677.44 4617.98 1647.8 4655.42 1626.58C4693.49 1605.37 4736.54 1594.76 4784.59 1594.76C4826.4 1594.76 4864.16 1604.12 4897.85 1622.84C4931.55 1641.56 4958.38 1669.64 4978.35 1707.08C4998.94 1744.52 5009.24 1791.32 5009.24 1847.48C5009.24 1903.65 4999.25 1950.45 4979.29 1987.89C4959.94 2025.33 4933.42 2053.72 4899.72 2073.07C4866.03 2091.79 4827.65 2101.15 4784.59 2101.15ZM4792.08 2022.52C4823.28 2022.52 4851.36 2015.34 4876.32 2000.99C4901.91 1986.64 4921.88 1966.36 4936.23 1940.15C4951.21 1913.32 4958.69 1882.43 4958.69 1847.48C4958.69 1811.92 4951.21 1781.34 4936.23 1755.75C4921.88 1729.55 4901.91 1709.27 4876.32 1694.91C4851.36 1680.56 4823.28 1673.38 4792.08 1673.38C4760.26 1673.38 4731.86 1680.56 4706.9 1694.91C4681.94 1709.27 4661.98 1729.55 4647 1755.75C4632.02 1781.34 4624.53 1811.92 4624.53 1847.48C4624.53 1882.43 4632.02 1913.32 4647 1940.15C4661.98 1966.36 4681.94 1986.64 4706.9 2000.99C4731.86 2015.34 4760.26 2022.52 4792.08 2022.52ZM4961.5 2095.53V1961.68L4967.12 1846.55L4957.76 1731.42V1401H5047.62V2095.53H4961.5Z" fill="white"/>
<path d="M3384.72 2786.87V2624.36L4061.54 1805.59L4108.85 1894.05H3397.06V1688.33H4314.57V1850.85L3637.76 2669.61L3586.33 2581.16H4333.09V2786.87H3384.72Z" fill="white"/>
<path fill-rule="evenodd" clip-rule="evenodd" d="M2942.29 1688.34V2786.88H3199.44V1688.34H2942.29Z" fill="white"/>
<path d="M3071.9 1507.3C3023.89 1507.3 2984.12 1492.22 2952.58 1462.04C2922.41 1431.87 2907.32 1395.53 2907.32 1353.01C2907.32 1309.13 2922.41 1272.78 2952.58 1243.98C2984.12 1213.81 3023.89 1198.72 3071.9 1198.72C3119.9 1198.72 3158.98 1213.12 3189.16 1241.93C3220.7 1269.35 3236.47 1304.33 3236.47 1346.84C3236.47 1392.1 3221.38 1430.5 3191.21 1462.04C3161.04 1492.22 3121.27 1507.3 3071.9 1507.3Z" fill="#FFD700"/>
<path d="M2150.2 2786.88V1688.34H2395V1990.74L2366.2 1902.28C2399.12 1828.23 2450.55 1772 2520.49 1733.59C2591.81 1695.19 2680.26 1675.99 2785.87 1675.99V1920.8C2774.9 1918.06 2764.61 1916.68 2755.01 1916.68C2745.41 1915.31 2735.81 1914.63 2726.21 1914.63C2628.83 1914.63 2551.35 1943.43 2493.75 2001.03C2436.14 2057.26 2407.34 2141.6 2407.34 2254.06V2786.88H2150.2Z" fill="white"/>
<path d="M1410.54 2801.28C1317.28 2801.28 1234.31 2780.7 1161.62 2739.56C1088.93 2698.42 1031.33 2636.7 988.816 2554.41C947.672 2470.75 927.1 2365.15 927.1 2237.61C927.1 2108.69 948.358 2003.09 990.873 1920.8C1034.76 1838.51 1093.05 1777.48 1165.73 1737.71C1239.79 1696.56 1321.39 1675.99 1410.54 1675.99C1518.88 1675.99 1614.2 1699.31 1696.49 1745.94C1780.15 1792.57 1845.98 1857.71 1893.98 1941.37C1943.35 2025.03 1968.04 2123.77 1968.04 2237.61C1968.04 2351.44 1943.35 2450.18 1893.98 2533.84C1845.98 2617.5 1780.15 2683.33 1696.49 2731.33C1614.2 2777.96 1518.88 2801.28 1410.54 2801.28ZM801.611 2786.88V1260.44H1058.76V1943.43L1038.19 2235.55L1046.42 2527.67V2786.88H801.611ZM1381.74 2581.16C1443.45 2581.16 1498.31 2567.44 1546.31 2540.01C1595.69 2512.58 1634.77 2472.81 1663.57 2420.7C1692.37 2368.58 1706.77 2307.55 1706.77 2237.61C1706.77 2166.29 1692.37 2105.26 1663.57 2054.52C1634.77 2002.4 1595.69 1962.63 1546.31 1935.2C1498.31 1907.77 1443.45 1894.05 1381.74 1894.05C1320.02 1894.05 1264.48 1907.77 1215.11 1935.2C1165.73 1962.63 1126.65 2002.4 1097.85 2054.52C1069.05 2105.26 1054.65 2166.29 1054.65 2237.61C1054.65 2307.55 1069.05 2368.58 1097.85 2420.7C1126.65 2472.81 1165.73 2512.58 1215.11 2540.01C1264.48 2567.44 1320.02 2581.16 1381.74 2581.16Z" fill="white"/>
</svg>
