<svg width="2235" height="1024" viewBox="0 0 2235 1024" fill="none" xmlns="http://www.w3.org/2000/svg">
<rect width="2234.71" height="1024" fill="black"/>
<path d="M1974.63 713.441C1964.08 713.441 1954.02 712.003 1944.43 709.128C1935.01 706.252 1927.58 702.738 1922.15 698.584L1931.73 680.373C1937.17 684.047 1943.88 687.162 1951.86 689.718C1959.85 692.274 1968 693.552 1976.3 693.552C1987.01 693.552 1994.67 692.035 1999.31 688.999C2004.1 685.964 2006.5 681.731 2006.5 676.3C2006.5 672.306 2005.06 669.191 2002.18 666.954C1999.31 664.718 1995.47 663.04 1990.68 661.922C1986.05 660.804 1980.86 659.846 1975.11 659.047C1969.35 658.088 1963.6 656.97 1957.85 655.692C1952.1 654.254 1946.83 652.337 1942.04 649.941C1937.25 647.385 1933.41 643.951 1930.54 639.637C1927.66 635.165 1926.22 629.254 1926.22 621.905C1926.22 614.238 1928.38 607.528 1932.69 601.777C1937.01 596.026 1943.08 591.633 1950.9 588.598C1958.89 585.403 1968.32 583.806 1979.18 583.806C1987.49 583.806 1995.87 584.844 2004.34 586.921C2012.97 588.838 2019.99 591.633 2025.43 595.307L2015.6 613.519C2009.85 609.685 2003.86 607.049 1997.63 605.611C1991.4 604.173 1985.17 603.455 1978.94 603.455C1968.88 603.455 1961.37 605.132 1956.42 608.487C1951.46 611.682 1948.99 615.835 1948.99 620.947C1948.99 625.26 1950.42 628.615 1953.3 631.011C1956.34 633.248 1960.17 635.005 1964.8 636.283C1969.59 637.561 1974.87 638.679 1980.62 639.637C1986.37 640.436 1992.12 641.554 1997.87 642.992C2003.62 644.27 2008.81 646.107 2013.45 648.503C2018.24 650.9 2022.07 654.254 2024.95 658.568C2027.98 662.881 2029.5 668.632 2029.5 675.82C2029.5 683.488 2027.26 690.118 2022.79 695.709C2018.32 701.3 2012.01 705.693 2003.86 708.888C1995.71 711.923 1985.97 713.441 1974.63 713.441Z" fill="white"/>
<path d="M1850.1 583.806C1860.49 583.806 1869.59 585.802 1877.42 589.796C1885.41 593.79 1891.64 599.86 1896.11 608.007C1900.58 616.155 1902.82 626.458 1902.82 638.919V712.003H1879.82V641.554C1879.82 629.254 1876.78 619.989 1870.71 613.758C1864.8 607.528 1856.41 604.413 1845.55 604.413C1837.4 604.413 1830.29 606.011 1824.22 609.206C1818.15 612.4 1813.44 617.113 1810.09 623.343C1806.89 629.573 1805.29 637.321 1805.29 646.586V712.003H1782.29V585.004H1804.34V619.27L1800.74 610.164C1804.89 601.857 1811.28 595.387 1819.91 590.755C1828.54 586.122 1838.6 583.806 1850.1 583.806Z" fill="white"/>
<path d="M1699.31 713.441C1685.73 713.441 1673.75 710.645 1663.37 705.054C1653.14 699.463 1645.15 691.795 1639.4 682.05C1633.81 672.306 1631.02 661.124 1631.02 648.503C1631.02 635.883 1633.73 624.701 1639.16 614.956C1644.75 605.212 1652.34 597.624 1661.93 592.192C1671.67 586.601 1682.62 583.806 1694.76 583.806C1707.06 583.806 1717.92 586.521 1727.34 591.953C1736.77 597.384 1744.12 605.052 1749.39 614.956C1754.82 624.701 1757.54 636.123 1757.54 649.222C1757.54 650.181 1757.46 651.299 1757.3 652.577C1757.3 653.855 1757.22 655.053 1757.06 656.171H1648.99V639.637H1745.08L1735.73 645.388C1735.89 637.241 1734.21 629.973 1730.7 623.583C1727.18 617.193 1722.31 612.241 1716.08 608.726C1710.01 605.052 1702.9 603.215 1694.76 603.215C1686.77 603.215 1679.66 605.052 1673.43 608.726C1667.2 612.241 1662.33 617.273 1658.81 623.822C1655.3 630.212 1653.54 637.561 1653.54 645.868V649.702C1653.54 658.168 1655.46 665.756 1659.29 672.466C1663.29 679.015 1668.8 684.127 1675.83 687.801C1682.85 691.476 1690.92 693.313 1700.03 693.313C1707.54 693.313 1714.32 692.035 1720.4 689.479C1726.63 686.923 1732.06 683.089 1736.69 677.977L1749.39 692.833C1743.64 699.543 1736.45 704.655 1727.82 708.169C1719.36 711.684 1709.85 713.441 1699.31 713.441Z" fill="white"/>
<path d="M1559.78 713.441C1546.2 713.441 1534.22 710.645 1523.83 705.054C1513.61 699.463 1505.62 691.795 1499.87 682.05C1494.28 672.306 1491.48 661.124 1491.48 648.503C1491.48 635.883 1494.2 624.701 1499.63 614.956C1505.22 605.212 1512.81 597.624 1522.39 592.192C1532.14 586.601 1543.08 583.806 1555.22 583.806C1567.52 583.806 1578.39 586.521 1587.81 591.953C1597.24 597.384 1604.58 605.052 1609.86 614.956C1615.29 624.701 1618 636.123 1618 649.222C1618 650.181 1617.92 651.299 1617.76 652.577C1617.76 653.855 1617.68 655.053 1617.52 656.171H1509.46V639.637H1605.54L1596.2 645.388C1596.36 637.241 1594.68 629.973 1591.17 623.583C1587.65 617.193 1582.78 612.241 1576.55 608.726C1570.48 605.052 1563.37 603.215 1555.22 603.215C1547.24 603.215 1540.13 605.052 1533.9 608.726C1527.67 612.241 1522.79 617.273 1519.28 623.822C1515.77 630.212 1514.01 637.561 1514.01 645.868V649.702C1514.01 658.168 1515.92 665.756 1519.76 672.466C1523.75 679.015 1529.26 684.127 1536.29 687.801C1543.32 691.476 1551.39 693.313 1560.49 693.313C1568 693.313 1574.79 692.035 1580.86 689.479C1587.09 686.923 1592.52 683.089 1597.16 677.977L1609.86 692.833C1604.11 699.543 1596.92 704.655 1588.29 708.169C1579.82 711.684 1570.32 713.441 1559.78 713.441Z" fill="white"/>
<path d="M1414.94 712.003V585.004H1436.98V619.509L1434.83 610.883C1438.34 602.097 1444.25 595.387 1452.56 590.755C1460.87 586.122 1471.09 583.806 1483.23 583.806V606.09C1482.27 605.931 1481.31 605.851 1480.36 605.851C1479.56 605.851 1478.76 605.851 1477.96 605.851C1465.66 605.851 1455.91 609.525 1448.73 616.873C1441.54 624.222 1437.94 634.845 1437.94 648.743V712.003H1414.94Z" fill="white"/>
<path d="M1340.59 713.441C1327.65 713.441 1316.07 710.645 1305.84 705.054C1295.78 699.463 1287.87 691.795 1282.12 682.05C1276.37 672.306 1273.49 661.124 1273.49 648.503C1273.49 635.883 1276.37 624.701 1282.12 614.956C1287.87 605.212 1295.78 597.624 1305.84 592.192C1316.07 586.601 1327.65 583.806 1340.59 583.806C1352.09 583.806 1362.31 586.122 1371.26 590.755C1380.36 595.228 1387.39 601.937 1392.35 610.883L1374.85 622.145C1370.7 615.915 1365.59 611.362 1359.52 608.487C1353.61 605.451 1347.22 603.934 1340.35 603.934C1332.04 603.934 1324.61 605.771 1318.06 609.445C1311.51 613.119 1306.32 618.311 1302.49 625.021C1298.65 631.57 1296.74 639.398 1296.74 648.503C1296.74 657.609 1298.65 665.517 1302.49 672.226C1306.32 678.935 1311.51 684.127 1318.06 687.801C1324.61 691.476 1332.04 693.313 1340.35 693.313C1347.22 693.313 1353.61 691.875 1359.52 688.999C1365.59 685.964 1370.7 681.332 1374.85 675.101L1392.35 686.124C1387.39 694.91 1380.36 701.699 1371.26 706.492C1362.31 711.125 1352.09 713.441 1340.59 713.441Z" fill="white"/>
<path d="M1208.8 713.441C1198.26 713.441 1188.19 712.003 1178.61 709.128C1169.18 706.252 1161.76 702.738 1156.32 698.584L1165.91 680.373C1171.34 684.047 1178.05 687.162 1186.04 689.718C1194.02 692.274 1202.17 693.552 1210.48 693.552C1221.18 693.552 1228.85 692.035 1233.48 688.999C1238.27 685.964 1240.67 681.731 1240.67 676.3C1240.67 672.306 1239.23 669.191 1236.36 666.954C1233.48 664.718 1229.65 663.04 1224.86 661.922C1220.22 660.804 1215.03 659.846 1209.28 659.047C1203.53 658.088 1197.78 656.97 1192.03 655.692C1186.28 654.254 1181.01 652.337 1176.21 649.941C1171.42 647.385 1167.59 643.951 1164.71 639.637C1161.84 635.165 1160.4 629.254 1160.4 621.905C1160.4 614.238 1162.55 607.528 1166.87 601.777C1171.18 596.026 1177.25 591.633 1185.08 588.598C1193.07 585.403 1202.49 583.806 1213.35 583.806C1221.66 583.806 1230.05 584.844 1238.51 586.921C1247.14 588.838 1254.17 591.633 1259.6 595.307L1249.78 613.519C1244.03 609.685 1238.04 607.049 1231.8 605.611C1225.57 604.173 1219.34 603.455 1213.11 603.455C1203.05 603.455 1195.54 605.132 1190.59 608.487C1185.64 611.682 1183.16 615.835 1183.16 620.947C1183.16 625.26 1184.6 628.615 1187.48 631.011C1190.51 633.248 1194.34 635.005 1198.98 636.283C1203.77 637.561 1209.04 638.679 1214.79 639.637C1220.54 640.436 1226.29 641.554 1232.04 642.992C1237.8 644.27 1242.99 646.107 1247.62 648.503C1252.41 650.9 1256.25 654.254 1259.12 658.568C1262.16 662.881 1263.67 668.632 1263.67 675.82C1263.67 683.488 1261.44 690.118 1256.97 695.709C1252.49 701.3 1246.18 705.693 1238.04 708.888C1229.89 711.923 1220.14 713.441 1208.8 713.441Z" fill="white"/>
<path d="M1915.42 506.504V398.674H1941.06V506.504H1915.42ZM1873 464.57V440.608H1983.47V464.57H1873Z" fill="#FFD700"/>
<path d="M1745.64 537.894C1735.09 537.894 1725.03 536.456 1715.45 533.581C1706.02 530.705 1698.59 527.191 1693.16 523.037L1702.75 504.826C1708.18 508.5 1714.89 511.616 1722.87 514.171C1730.86 516.727 1739.01 518.005 1747.32 518.005C1758.02 518.005 1765.69 516.488 1770.32 513.453C1775.11 510.417 1777.51 506.184 1777.51 500.753C1777.51 496.759 1776.07 493.644 1773.19 491.407C1770.32 489.171 1766.49 487.494 1761.69 486.375C1757.06 485.257 1751.87 484.299 1746.12 483.5C1740.37 482.541 1734.62 481.423 1728.86 480.145C1723.11 478.708 1717.84 476.791 1713.05 474.394C1708.26 471.838 1704.42 468.404 1701.55 464.091C1698.67 459.618 1697.23 453.707 1697.23 446.359C1697.23 438.691 1699.39 431.981 1703.7 426.23C1708.02 420.479 1714.09 416.086 1721.92 413.051C1729.9 409.856 1739.33 408.259 1750.19 408.259C1758.5 408.259 1766.88 409.297 1775.35 411.374C1783.98 413.291 1791.01 416.086 1796.44 419.761L1786.61 437.972C1780.86 434.138 1774.87 431.502 1768.64 430.064C1762.41 428.627 1756.18 427.908 1749.95 427.908C1739.89 427.908 1732.38 429.585 1727.43 432.94C1722.47 436.135 1720 440.288 1720 445.4C1720 449.713 1721.44 453.068 1724.31 455.464C1727.35 457.701 1731.18 459.458 1735.81 460.736C1740.61 462.014 1745.88 463.132 1751.63 464.091C1757.38 464.889 1763.13 466.008 1768.88 467.445C1774.63 468.723 1779.82 470.56 1784.46 472.957C1789.25 475.353 1793.08 478.708 1795.96 483.021C1798.99 487.334 1800.51 493.085 1800.51 500.273C1800.51 507.941 1798.28 514.571 1793.8 520.162C1789.33 525.753 1783.02 530.146 1774.87 533.341C1766.72 536.376 1756.98 537.894 1745.64 537.894Z" fill="white"/>
<path d="M1618.36 536.456V409.457H1640.4V443.962L1638.24 435.336C1641.76 426.55 1647.67 419.84 1655.98 415.208C1664.28 410.575 1674.51 408.259 1686.65 408.259V430.544C1685.69 430.384 1684.73 430.304 1683.77 430.304C1682.97 430.304 1682.17 430.304 1681.38 430.304C1669.08 430.304 1659.33 433.978 1652.14 441.327C1644.95 448.675 1641.36 459.298 1641.36 473.196V536.456H1618.36Z" fill="white"/>
<path d="M1527.83 537.894C1515.05 537.894 1503.71 535.098 1493.81 529.507C1483.9 523.916 1476.08 516.248 1470.33 506.504C1464.57 496.599 1461.7 485.417 1461.7 472.957C1461.7 460.337 1464.57 449.154 1470.33 439.41C1476.08 429.665 1483.9 422.077 1493.81 416.646C1503.71 411.054 1515.05 408.259 1527.83 408.259C1540.45 408.259 1551.72 411.054 1561.62 416.646C1571.69 422.077 1579.51 429.665 1585.1 439.41C1590.86 448.994 1593.73 460.177 1593.73 472.957C1593.73 485.577 1590.86 496.759 1585.1 506.504C1579.51 516.248 1571.69 523.916 1561.62 529.507C1551.72 535.098 1540.45 537.894 1527.83 537.894ZM1527.83 517.766C1535.98 517.766 1543.25 515.929 1549.64 512.255C1556.19 508.58 1561.3 503.389 1564.98 496.679C1568.65 489.81 1570.49 481.902 1570.49 472.957C1570.49 463.851 1568.65 456.023 1564.98 449.474C1561.3 442.764 1556.19 437.572 1549.64 433.898C1543.25 430.224 1535.98 428.387 1527.83 428.387C1519.69 428.387 1512.42 430.224 1506.03 433.898C1499.64 437.572 1494.53 442.764 1490.69 449.474C1486.86 456.023 1484.94 463.851 1484.94 472.957C1484.94 481.902 1486.86 489.81 1490.69 496.679C1494.53 503.389 1499.64 508.58 1506.03 512.255C1512.42 515.929 1519.69 517.766 1527.83 517.766Z" fill="white"/>
<path d="M1382.92 537.894C1370.14 537.894 1358.8 535.098 1348.89 529.507C1338.99 523.916 1331.16 516.248 1325.41 506.504C1319.66 496.599 1316.78 485.417 1316.78 472.957C1316.78 460.337 1319.66 449.154 1325.41 439.41C1331.16 429.665 1338.99 422.077 1348.89 416.646C1358.8 411.054 1370.14 408.259 1382.92 408.259C1395.54 408.259 1406.8 411.054 1416.71 416.646C1426.77 422.077 1434.6 429.665 1440.19 439.41C1445.94 448.994 1448.82 460.177 1448.82 472.957C1448.82 485.577 1445.94 496.759 1440.19 506.504C1434.6 516.248 1426.77 523.916 1416.71 529.507C1406.8 535.098 1395.54 537.894 1382.92 537.894ZM1382.92 517.766C1391.07 517.766 1398.34 515.929 1404.73 512.255C1411.27 508.58 1416.39 503.389 1420.06 496.679C1423.74 489.81 1425.57 481.902 1425.57 472.957C1425.57 463.851 1423.74 456.023 1420.06 449.474C1416.39 442.764 1411.27 437.572 1404.73 433.898C1398.34 430.224 1391.07 428.387 1382.92 428.387C1374.77 428.387 1367.5 430.224 1361.11 433.898C1354.72 437.572 1349.61 442.764 1345.78 449.474C1341.94 456.023 1340.03 463.851 1340.03 472.957C1340.03 481.902 1341.94 489.81 1345.78 496.679C1349.61 503.389 1354.72 508.58 1361.11 512.255C1367.5 515.929 1374.77 517.766 1382.92 517.766Z" fill="white"/>
<path d="M1224.86 537.894C1212.56 537.894 1201.53 535.178 1191.79 529.747C1182.2 524.316 1174.62 516.728 1169.02 506.983C1163.43 497.238 1160.64 485.896 1160.64 472.957C1160.64 460.017 1163.43 448.755 1169.02 439.17C1174.62 429.425 1182.2 421.837 1191.79 416.406C1201.53 410.975 1212.56 408.259 1224.86 408.259C1235.56 408.259 1245.22 410.655 1253.85 415.448C1262.48 420.24 1269.35 427.429 1274.46 437.013C1279.73 446.598 1282.37 458.579 1282.37 472.957C1282.37 487.334 1279.81 499.315 1274.7 508.9C1269.75 518.485 1262.96 525.753 1254.33 530.705C1245.7 535.498 1235.88 537.894 1224.86 537.894ZM1226.77 517.766C1234.76 517.766 1241.95 515.929 1248.34 512.255C1254.89 508.58 1260 503.389 1263.67 496.679C1267.51 489.81 1269.43 481.903 1269.43 472.957C1269.43 463.851 1267.51 456.023 1263.67 449.474C1260 442.764 1254.89 437.573 1248.34 433.898C1241.95 430.224 1234.76 428.387 1226.77 428.387C1218.63 428.387 1211.36 430.224 1204.97 433.898C1198.58 437.573 1193.47 442.764 1189.63 449.474C1185.8 456.023 1183.88 463.851 1183.88 472.957C1183.88 481.903 1185.8 489.81 1189.63 496.679C1193.47 503.389 1198.58 508.58 1204.97 512.255C1211.36 515.929 1218.63 517.766 1226.77 517.766ZM1270.14 536.456V502.191L1271.58 472.717L1269.19 443.244V358.657H1292.19V536.456H1270.14Z" fill="white"/>
<path d="M866.488 713.441V671.836L1039.75 462.233L1051.87 484.879H869.648V432.215H1104.53V473.819L931.265 683.422L918.099 660.777H1109.27V713.441H866.488Z" fill="white"/>
<path fill-rule="evenodd" clip-rule="evenodd" d="M753.227 432.214V713.441H819.057V432.214H753.227Z" fill="white"/>
<path d="M786.406 385.87C774.117 385.87 763.936 382.008 755.861 374.284C748.136 366.56 744.274 357.256 744.274 346.372C744.274 335.137 748.136 325.833 755.861 318.46C763.936 310.736 774.117 306.874 786.406 306.874C798.694 306.874 808.7 310.561 816.424 317.933C824.499 324.955 828.537 333.908 828.537 344.792C828.537 356.378 824.675 366.209 816.951 374.284C809.227 382.008 799.045 385.87 786.406 385.87Z" fill="#FFD700"/>
<path d="M550.451 713.442V432.215H613.121V509.632L605.748 486.986C614.175 468.027 627.341 453.632 645.246 443.802C663.503 433.971 686.149 429.056 713.183 429.056V491.726C710.374 491.024 707.741 490.673 705.284 490.673C702.826 490.322 700.368 490.146 697.911 490.146C672.983 490.146 653.146 497.519 638.4 512.265C623.654 526.66 616.281 548.252 616.281 577.042V713.442H550.451Z" fill="white"/>
<path d="M361.099 717.128C337.224 717.128 315.983 711.861 297.375 701.328C278.767 690.796 264.021 674.996 253.137 653.931C242.604 632.514 237.338 605.48 237.338 572.828C237.338 539.825 242.78 512.791 253.664 491.725C264.899 470.66 279.82 455.036 298.428 444.854C317.387 434.322 338.277 429.055 361.099 429.055C388.835 429.055 413.236 435.024 434.302 446.961C455.718 458.898 472.571 475.575 484.859 496.992C497.498 518.409 503.818 543.687 503.818 572.828C503.818 601.969 497.498 627.248 484.859 648.664C472.571 670.081 455.718 686.934 434.302 699.222C413.236 711.159 388.835 717.128 361.099 717.128ZM205.213 713.441V322.674H271.043V497.519L265.777 572.301L267.883 647.084V713.441H205.213ZM353.726 660.777C369.525 660.777 383.569 657.266 395.857 650.244C408.496 643.222 418.502 633.041 425.875 619.699C433.248 606.358 436.935 590.734 436.935 572.828C436.935 554.571 433.248 538.948 425.875 525.957C418.502 512.616 408.496 502.434 395.857 495.412C383.569 488.39 369.525 484.879 353.726 484.879C337.926 484.879 323.707 488.39 311.068 495.412C298.428 502.434 288.422 512.616 281.049 525.957C273.676 538.948 269.99 554.571 269.99 572.828C269.99 590.734 273.676 606.358 281.049 619.699C288.422 633.041 298.428 643.222 311.068 650.244C323.707 657.266 337.926 660.777 353.726 660.777Z" fill="white"/>
</svg>
