<svg width="600" height="180" viewBox="0 0 600 180" fill="none" xmlns="http://www.w3.org/2000/svg">
<rect width="600" height="180" fill="white"/>
<path d="M288.803 35.3037H294.371V37.0157H288.803V35.3037ZM288.963 40.1037H295.283V41.8477H286.883V30.6477H295.059V32.3917H288.963V40.1037ZM300.485 41.9597C299.546 41.9597 298.821 41.7197 298.309 41.2397C297.797 40.749 297.541 40.029 297.541 39.0797V31.4157H299.541V39.0317C299.541 39.437 299.642 39.7517 299.845 39.9757C300.058 40.1997 300.352 40.3117 300.725 40.3117C301.173 40.3117 301.546 40.1943 301.845 39.9597L302.405 41.3837C302.17 41.5757 301.882 41.7197 301.541 41.8157C301.2 41.9117 300.848 41.9597 300.485 41.9597ZM296.133 34.9677V33.3677H301.829V34.9677H296.133ZM308.898 33.2077C309.581 33.2077 310.189 33.341 310.722 33.6077C311.266 33.8743 311.693 34.285 312.002 34.8397C312.312 35.3837 312.466 36.0877 312.466 36.9517V41.8477H310.466V37.2077C310.466 36.4503 310.285 35.885 309.922 35.5117C309.57 35.1383 309.074 34.9517 308.434 34.9517C307.965 34.9517 307.549 35.0477 307.186 35.2397C306.824 35.4317 306.541 35.7197 306.338 36.1037C306.146 36.477 306.05 36.9517 306.05 37.5277V41.8477H304.05V29.9757H306.05V35.6077L305.618 34.9037C305.917 34.3597 306.349 33.9437 306.914 33.6557C307.49 33.357 308.152 33.2077 308.898 33.2077ZM320.267 41.8477V40.1197L320.155 39.7517V36.7277C320.155 36.141 319.979 35.6877 319.627 35.3677C319.275 35.037 318.742 34.8717 318.027 34.8717C317.547 34.8717 317.073 34.9463 316.603 35.0957C316.145 35.245 315.755 35.453 315.435 35.7197L314.651 34.2637C315.11 33.9117 315.654 33.6503 316.283 33.4797C316.923 33.2983 317.585 33.2077 318.267 33.2077C319.505 33.2077 320.459 33.5063 321.131 34.1037C321.814 34.6903 322.155 35.6023 322.155 36.8397V41.8477H320.267ZM317.579 41.9597C316.939 41.9597 316.379 41.853 315.899 41.6397C315.419 41.4157 315.046 41.1117 314.779 40.7277C314.523 40.333 314.395 39.8903 314.395 39.3997C314.395 38.9197 314.507 38.4877 314.731 38.1037C314.966 37.7197 315.345 37.4157 315.867 37.1917C316.39 36.9677 317.083 36.8557 317.947 36.8557H320.427V38.1837H318.091C317.409 38.1837 316.95 38.2957 316.715 38.5197C316.481 38.733 316.363 38.9997 316.363 39.3197C316.363 39.6823 316.507 39.9703 316.795 40.1837C317.083 40.397 317.483 40.5037 317.995 40.5037C318.486 40.5037 318.923 40.3917 319.307 40.1677C319.702 39.9437 319.985 39.613 320.155 39.1757L320.491 40.3757C320.299 40.877 319.953 41.2663 319.451 41.5437C318.961 41.821 318.337 41.9597 317.579 41.9597ZM329.57 33.2077C330.253 33.2077 330.861 33.341 331.394 33.6077C331.938 33.8743 332.365 34.285 332.674 34.8397C332.983 35.3837 333.138 36.0877 333.138 36.9517V41.8477H331.138V37.2077C331.138 36.4503 330.957 35.885 330.594 35.5117C330.242 35.1383 329.746 34.9517 329.106 34.9517C328.637 34.9517 328.221 35.0477 327.858 35.2397C327.495 35.4317 327.213 35.7197 327.01 36.1037C326.818 36.477 326.722 36.9517 326.722 37.5277V41.8477H324.722V33.3037H326.626V35.6077L326.29 34.9037C326.589 34.3597 327.021 33.9437 327.586 33.6557C328.162 33.357 328.823 33.2077 329.57 33.2077ZM348.161 30.6477H350.241V41.8477H348.161V30.6477ZM342.369 41.8477H340.289V30.6477H342.369V41.8477ZM348.321 37.0477H342.193V35.2717H348.321V37.0477ZM358.314 41.8477V40.1197L358.202 39.7517V36.7277C358.202 36.141 358.026 35.6877 357.674 35.3677C357.322 35.037 356.789 34.8717 356.074 34.8717C355.594 34.8717 355.12 34.9463 354.65 35.0957C354.192 35.245 353.802 35.453 353.482 35.7197L352.698 34.2637C353.157 33.9117 353.701 33.6503 354.33 33.4797C354.97 33.2983 355.632 33.2077 356.314 33.2077C357.552 33.2077 358.506 33.5063 359.178 34.1037C359.861 34.6903 360.202 35.6023 360.202 36.8397V41.8477H358.314ZM355.626 41.9597C354.986 41.9597 354.426 41.853 353.946 41.6397C353.466 41.4157 353.093 41.1117 352.826 40.7277C352.57 40.333 352.442 39.8903 352.442 39.3997C352.442 38.9197 352.554 38.4877 352.778 38.1037C353.013 37.7197 353.392 37.4157 353.914 37.1917C354.437 36.9677 355.13 36.8557 355.994 36.8557H358.474V38.1837H356.138C355.456 38.1837 354.997 38.2957 354.762 38.5197C354.528 38.733 354.41 38.9997 354.41 39.3197C354.41 39.6823 354.554 39.9703 354.842 40.1837C355.13 40.397 355.53 40.5037 356.042 40.5037C356.533 40.5037 356.97 40.3917 357.354 40.1677C357.749 39.9437 358.032 39.613 358.202 39.1757L358.538 40.3757C358.346 40.877 358 41.2663 357.498 41.5437C357.008 41.821 356.384 41.9597 355.626 41.9597ZM362.769 41.8477V33.3037H364.673V35.6557L364.449 34.9677C364.705 34.3917 365.105 33.9543 365.649 33.6557C366.204 33.357 366.892 33.2077 367.713 33.2077V35.1117C367.628 35.0903 367.548 35.0797 367.473 35.0797C367.398 35.069 367.324 35.0637 367.249 35.0637C366.492 35.0637 365.889 35.2877 365.441 35.7357C364.993 36.173 364.769 36.829 364.769 37.7037V41.8477H362.769ZM374.258 33.2077C374.94 33.2077 375.548 33.341 376.082 33.6077C376.626 33.8743 377.052 34.285 377.362 34.8397C377.671 35.3837 377.826 36.0877 377.826 36.9517V41.8477H375.826V37.2077C375.826 36.4503 375.644 35.885 375.282 35.5117C374.93 35.1383 374.434 34.9517 373.794 34.9517C373.324 34.9517 372.908 35.0477 372.546 35.2397C372.183 35.4317 371.9 35.7197 371.698 36.1037C371.506 36.477 371.41 36.9517 371.41 37.5277V41.8477H369.41V33.3037H371.314V35.6077L370.978 34.9037C371.276 34.3597 371.708 33.9437 372.274 33.6557C372.85 33.357 373.511 33.2077 374.258 33.2077ZM384.394 41.9597C383.445 41.9597 382.613 41.773 381.898 41.3997C381.194 41.0157 380.645 40.493 380.25 39.8317C379.866 39.1703 379.674 38.4183 379.674 37.5757C379.674 36.7223 379.861 35.9703 380.234 35.3197C380.618 34.6583 381.141 34.141 381.802 33.7677C382.474 33.3943 383.237 33.2077 384.09 33.2077C384.922 33.2077 385.664 33.389 386.314 33.7517C386.965 34.1143 387.477 34.6263 387.85 35.2877C388.224 35.949 388.41 36.7277 388.41 37.6237C388.41 37.709 388.405 37.805 388.394 37.9117C388.394 38.0183 388.389 38.1197 388.378 38.2157H381.258V36.8877H387.322L386.538 37.3037C386.549 36.813 386.448 36.381 386.234 36.0077C386.021 35.6343 385.728 35.341 385.354 35.1277C384.992 34.9143 384.57 34.8077 384.09 34.8077C383.6 34.8077 383.168 34.9143 382.794 35.1277C382.432 35.341 382.144 35.6397 381.93 36.0237C381.728 36.397 381.626 36.8397 381.626 37.3517V37.6717C381.626 38.1837 381.744 38.637 381.978 39.0317C382.213 39.4263 382.544 39.7303 382.97 39.9437C383.397 40.157 383.888 40.2637 384.442 40.2637C384.922 40.2637 385.354 40.189 385.738 40.0397C386.122 39.8903 386.464 39.6557 386.762 39.3357L387.834 40.5677C387.45 41.0157 386.965 41.3623 386.378 41.6077C385.802 41.8423 385.141 41.9597 384.394 41.9597ZM390.879 45.0637C390.463 45.0637 390.047 44.9943 389.631 44.8557C389.215 44.717 388.869 44.525 388.591 44.2797L389.391 42.8077C389.594 42.989 389.823 43.133 390.079 43.2397C390.335 43.3463 390.597 43.3997 390.863 43.3997C391.226 43.3997 391.519 43.309 391.743 43.1277C391.967 42.9463 392.175 42.6423 392.367 42.2157L392.863 41.0957L393.023 40.8557L396.255 33.3037H398.175L394.175 42.5357C393.909 43.1757 393.61 43.6823 393.279 44.0557C392.959 44.429 392.597 44.6903 392.191 44.8397C391.797 44.989 391.359 45.0637 390.879 45.0637ZM392.639 42.1517L388.783 33.3037H390.863L393.999 40.6797L392.639 42.1517ZM286.975 58.8477V49.0477H290.965C292.01 49.0477 292.925 49.2577 293.709 49.6777C294.502 50.0883 295.118 50.6623 295.557 51.3997C295.996 52.137 296.215 52.9863 296.215 53.9477C296.215 54.909 295.996 55.7583 295.557 56.4957C295.118 57.233 294.502 57.8117 293.709 58.2317C292.925 58.6423 292.01 58.8477 290.965 58.8477H286.975ZM288.011 57.9517H290.909C291.777 57.9517 292.528 57.7837 293.163 57.4477C293.807 57.1023 294.306 56.631 294.661 56.0337C295.016 55.427 295.193 54.7317 295.193 53.9477C295.193 53.1543 295.016 52.459 294.661 51.8617C294.306 51.2643 293.807 50.7977 293.163 50.4617C292.528 50.1163 291.777 49.9437 290.909 49.9437H288.011V57.9517ZM298.331 58.8477V51.4977H299.325V58.8477H298.331ZM298.835 49.8737C298.63 49.8737 298.457 49.8037 298.317 49.6637C298.177 49.5237 298.107 49.3557 298.107 49.1597C298.107 48.9637 298.177 48.8003 298.317 48.6697C298.457 48.5297 298.63 48.4597 298.835 48.4597C299.041 48.4597 299.213 48.525 299.353 48.6557C299.493 48.7863 299.563 48.9497 299.563 49.1457C299.563 49.351 299.493 49.5237 299.353 49.6637C299.223 49.8037 299.05 49.8737 298.835 49.8737ZM302.091 58.8477V51.4977H303.043V53.4997L302.945 53.1497C303.15 52.5897 303.496 52.165 303.981 51.8757C304.466 51.577 305.068 51.4277 305.787 51.4277V52.3937C305.75 52.3937 305.712 52.3937 305.675 52.3937C305.638 52.3843 305.6 52.3797 305.563 52.3797C304.788 52.3797 304.182 52.6177 303.743 53.0937C303.304 53.5603 303.085 54.2277 303.085 55.0957V58.8477H302.091ZM310.654 58.9177C309.889 58.9177 309.217 58.759 308.638 58.4417C308.06 58.115 307.607 57.6717 307.28 57.1117C306.954 56.5423 306.79 55.8937 306.79 55.1657C306.79 54.4377 306.944 53.7937 307.252 53.2337C307.57 52.6737 307.999 52.235 308.54 51.9177C309.091 51.591 309.707 51.4277 310.388 51.4277C311.079 51.4277 311.69 51.5863 312.222 51.9037C312.764 52.2117 313.188 52.6503 313.496 53.2197C313.804 53.7797 313.958 54.4283 313.958 55.1657C313.958 55.2123 313.954 55.2637 313.944 55.3197C313.944 55.3663 313.944 55.4177 313.944 55.4737H307.546V54.7317H313.412L313.02 55.0257C313.02 54.4937 312.904 54.0223 312.67 53.6117C312.446 53.1917 312.138 52.865 311.746 52.6317C311.354 52.3983 310.902 52.2817 310.388 52.2817C309.884 52.2817 309.432 52.3983 309.03 52.6317C308.629 52.865 308.316 53.1917 308.092 53.6117C307.868 54.0317 307.756 54.5123 307.756 55.0537V55.2077C307.756 55.7677 307.878 56.2623 308.12 56.6917C308.372 57.1117 308.718 57.443 309.156 57.6857C309.604 57.919 310.113 58.0357 310.682 58.0357C311.13 58.0357 311.546 57.9563 311.928 57.7977C312.32 57.639 312.656 57.3963 312.936 57.0697L313.496 57.7137C313.17 58.1057 312.759 58.4043 312.264 58.6097C311.779 58.815 311.242 58.9177 310.654 58.9177ZM319.034 58.9177C318.306 58.9177 317.652 58.759 317.074 58.4417C316.504 58.115 316.056 57.6717 315.73 57.1117C315.403 56.5423 315.24 55.8937 315.24 55.1657C315.24 54.4283 315.403 53.7797 315.73 53.2197C316.056 52.6597 316.504 52.221 317.074 51.9037C317.652 51.5863 318.306 51.4277 319.034 51.4277C319.659 51.4277 320.224 51.549 320.728 51.7917C321.232 52.0343 321.628 52.3983 321.918 52.8837L321.176 53.3877C320.924 53.0143 320.611 52.739 320.238 52.5617C319.864 52.3843 319.458 52.2957 319.02 52.2957C318.497 52.2957 318.026 52.417 317.606 52.6597C317.186 52.893 316.854 53.2243 316.612 53.6537C316.369 54.083 316.248 54.587 316.248 55.1657C316.248 55.7443 316.369 56.2483 316.612 56.6777C316.854 57.107 317.186 57.443 317.606 57.6857C318.026 57.919 318.497 58.0357 319.02 58.0357C319.458 58.0357 319.864 57.947 320.238 57.7697C320.611 57.5923 320.924 57.3217 321.176 56.9577L321.918 57.4617C321.628 57.9377 321.232 58.3017 320.728 58.5537C320.224 58.7963 319.659 58.9177 319.034 58.9177ZM326.276 58.9177C325.586 58.9177 325.054 58.731 324.68 58.3577C324.307 57.9843 324.12 57.457 324.12 56.7757V49.8737H325.114V56.7197C325.114 57.149 325.222 57.4803 325.436 57.7137C325.66 57.947 325.978 58.0637 326.388 58.0637C326.827 58.0637 327.191 57.9377 327.48 57.6857L327.83 58.3997C327.634 58.577 327.396 58.7077 327.116 58.7917C326.846 58.8757 326.566 58.9177 326.276 58.9177ZM322.804 52.3237V51.4977H327.354V52.3237H322.804ZM332.376 58.9177C331.667 58.9177 331.027 58.759 330.458 58.4417C329.898 58.115 329.455 57.6717 329.128 57.1117C328.801 56.5423 328.638 55.8937 328.638 55.1657C328.638 54.4283 328.801 53.7797 329.128 53.2197C329.455 52.6597 329.898 52.221 330.458 51.9037C331.018 51.5863 331.657 51.4277 332.376 51.4277C333.104 51.4277 333.748 51.5863 334.308 51.9037C334.877 52.221 335.321 52.6597 335.638 53.2197C335.965 53.7797 336.128 54.4283 336.128 55.1657C336.128 55.8937 335.965 56.5423 335.638 57.1117C335.321 57.6717 334.877 58.115 334.308 58.4417C333.739 58.759 333.095 58.9177 332.376 58.9177ZM332.376 58.0357C332.908 58.0357 333.379 57.919 333.79 57.6857C334.201 57.443 334.523 57.107 334.756 56.6777C334.999 56.239 335.12 55.735 335.12 55.1657C335.12 54.587 334.999 54.083 334.756 53.6537C334.523 53.2243 334.201 52.893 333.79 52.6597C333.379 52.417 332.913 52.2957 332.39 52.2957C331.867 52.2957 331.401 52.417 330.99 52.6597C330.579 52.893 330.253 53.2243 330.01 53.6537C329.767 54.083 329.646 54.587 329.646 55.1657C329.646 55.735 329.767 56.239 330.01 56.6777C330.253 57.107 330.579 57.443 330.99 57.6857C331.401 57.919 331.863 58.0357 332.376 58.0357ZM338.157 58.8477V51.4977H339.109V53.4997L339.011 53.1497C339.217 52.5897 339.562 52.165 340.047 51.8757C340.533 51.577 341.135 51.4277 341.853 51.4277V52.3937C341.816 52.3937 341.779 52.3937 341.741 52.3937C341.704 52.3843 341.667 52.3797 341.629 52.3797C340.855 52.3797 340.248 52.6177 339.809 53.0937C339.371 53.5603 339.151 54.2277 339.151 55.0957V58.8477H338.157ZM287.899 87.4297H293.079V88.3117H287.899V87.4297ZM288.011 91.9517H293.905V92.8477H286.975V83.0477H293.695V83.9437H288.011V91.9517ZM298.249 92.9177C297.558 92.9177 297.026 92.731 296.653 92.3577C296.28 91.9843 296.093 91.457 296.093 90.7757V83.8737H297.087V90.7197C297.087 91.149 297.194 91.4803 297.409 91.7137C297.633 91.947 297.95 92.0637 298.361 92.0637C298.8 92.0637 299.164 91.9377 299.453 91.6857L299.803 92.3997C299.607 92.577 299.369 92.7077 299.089 92.7917C298.818 92.8757 298.538 92.9177 298.249 92.9177ZM294.777 86.3237V85.4977H299.327V86.3237H294.777ZM305.365 85.4277C305.962 85.4277 306.485 85.5443 306.933 85.7777C307.39 86.0017 307.745 86.347 307.997 86.8137C308.258 87.2803 308.389 87.8683 308.389 88.5777V92.8477H307.395V88.6757C307.395 87.901 307.199 87.3177 306.807 86.9257C306.424 86.5243 305.883 86.3237 305.183 86.3237C304.66 86.3237 304.203 86.431 303.811 86.6457C303.428 86.851 303.129 87.1543 302.915 87.5557C302.709 87.9477 302.607 88.4237 302.607 88.9837V92.8477H301.613V82.4597H302.607V87.5137L302.411 87.1357C302.644 86.6037 303.017 86.1883 303.531 85.8897C304.044 85.5817 304.655 85.4277 305.365 85.4277ZM315.68 92.8477V91.2237L315.638 90.9577V88.2417C315.638 87.6163 315.46 87.1357 315.106 86.7997C314.76 86.4637 314.242 86.2957 313.552 86.2957C313.076 86.2957 312.623 86.375 312.194 86.5337C311.764 86.6923 311.4 86.9023 311.102 87.1637L310.654 86.4217C311.027 86.1043 311.475 85.8617 311.998 85.6937C312.52 85.5163 313.071 85.4277 313.65 85.4277C314.602 85.4277 315.334 85.6657 315.848 86.1417C316.37 86.6083 316.632 87.3223 316.632 88.2837V92.8477H315.68ZM313.146 92.9177C312.595 92.9177 312.114 92.829 311.704 92.6517C311.302 92.465 310.994 92.213 310.78 91.8957C310.565 91.569 310.458 91.1957 310.458 90.7757C310.458 90.393 310.546 90.0477 310.724 89.7397C310.91 89.4223 311.209 89.1703 311.62 88.9837C312.04 88.7877 312.6 88.6897 313.3 88.6897H315.834V89.4317H313.328C312.618 89.4317 312.124 89.5577 311.844 89.8097C311.573 90.0617 311.438 90.3743 311.438 90.7477C311.438 91.1677 311.601 91.5037 311.928 91.7557C312.254 92.0077 312.712 92.1337 313.3 92.1337C313.86 92.1337 314.34 92.0077 314.742 91.7557C315.152 91.4943 315.451 91.121 315.638 90.6357L315.862 91.3217C315.675 91.807 315.348 92.1943 314.882 92.4837C314.424 92.773 313.846 92.9177 313.146 92.9177ZM323.083 85.4277C323.681 85.4277 324.203 85.5443 324.651 85.7777C325.109 86.0017 325.463 86.347 325.715 86.8137C325.977 87.2803 326.107 87.8683 326.107 88.5777V92.8477H325.113V88.6757C325.113 87.901 324.917 87.3177 324.525 86.9257C324.143 86.5243 323.601 86.3237 322.901 86.3237C322.379 86.3237 321.921 86.431 321.529 86.6457C321.147 86.851 320.848 87.1543 320.633 87.5557C320.428 87.9477 320.325 88.4237 320.325 88.9837V92.8477H319.331V85.4977H320.283V87.5137L320.129 87.1357C320.363 86.6037 320.736 86.1883 321.249 85.8897C321.763 85.5817 322.374 85.4277 323.083 85.4277ZM334.616 95.6477C333.655 95.6477 332.778 95.489 331.984 95.1717C331.191 94.8637 330.505 94.425 329.926 93.8557C329.357 93.2957 328.914 92.6283 328.596 91.8537C328.288 91.0697 328.134 90.2157 328.134 89.2917C328.134 88.3583 328.288 87.509 328.596 86.7437C328.914 85.969 329.362 85.3017 329.94 84.7417C330.528 84.1723 331.224 83.7337 332.026 83.4257C332.829 83.1177 333.711 82.9637 334.672 82.9637C335.624 82.9637 336.492 83.113 337.276 83.4117C338.07 83.7103 338.756 84.135 339.334 84.6857C339.913 85.227 340.356 85.8757 340.664 86.6317C340.982 87.3877 341.14 88.223 341.14 89.1377C341.14 89.9217 341.047 90.5983 340.86 91.1677C340.683 91.7277 340.422 92.1617 340.076 92.4697C339.731 92.7683 339.316 92.9177 338.83 92.9177C338.354 92.9177 337.972 92.773 337.682 92.4837C337.393 92.1943 337.248 91.7883 337.248 91.2657V90.1597L337.36 89.2637L337.22 87.8637V85.7497H338.13V91.0557C338.13 91.4477 338.214 91.723 338.382 91.8817C338.55 92.0403 338.756 92.1197 338.998 92.1197C339.288 92.1197 339.54 92.003 339.754 91.7697C339.969 91.5363 340.132 91.2003 340.244 90.7617C340.366 90.3137 340.426 89.777 340.426 89.1517C340.426 88.3303 340.286 87.5837 340.006 86.9117C339.726 86.2397 339.33 85.661 338.816 85.1757C338.303 84.6903 337.696 84.3217 336.996 84.0697C336.296 83.8083 335.522 83.6777 334.672 83.6777C333.823 83.6777 333.044 83.813 332.334 84.0837C331.625 84.3543 331.014 84.7417 330.5 85.2457C329.996 85.7403 329.604 86.333 329.324 87.0237C329.044 87.705 328.904 88.461 328.904 89.2917C328.904 90.1223 329.04 90.883 329.31 91.5737C329.59 92.2643 329.982 92.857 330.486 93.3517C330.99 93.8557 331.592 94.243 332.292 94.5137C332.992 94.7937 333.767 94.9337 334.616 94.9337C335.036 94.9337 335.484 94.8823 335.96 94.7797C336.446 94.677 336.894 94.523 337.304 94.3177L337.542 95.0037C337.122 95.2183 336.646 95.377 336.114 95.4797C335.582 95.5917 335.083 95.6477 334.616 95.6477ZM334.448 92.9177C333.786 92.9177 333.193 92.7637 332.67 92.4557C332.148 92.1383 331.732 91.709 331.424 91.1677C331.126 90.617 330.976 89.9917 330.976 89.2917C330.976 88.5917 331.126 87.971 331.424 87.4297C331.732 86.8883 332.148 86.4637 332.67 86.1557C333.193 85.8477 333.786 85.6937 334.448 85.6937C335.092 85.6937 335.662 85.8383 336.156 86.1277C336.66 86.417 337.052 86.8323 337.332 87.3737C337.622 87.9057 337.766 88.545 337.766 89.2917C337.766 90.0383 337.622 90.6823 337.332 91.2237C337.052 91.765 336.665 92.185 336.17 92.4837C335.676 92.773 335.102 92.9177 334.448 92.9177ZM334.574 92.1057C335.078 92.1057 335.531 91.989 335.932 91.7557C336.343 91.5223 336.66 91.1957 336.884 90.7757C337.118 90.3463 337.234 89.8517 337.234 89.2917C337.234 88.7223 337.118 88.2323 336.884 87.8217C336.66 87.4017 336.343 87.0797 335.932 86.8557C335.531 86.6223 335.078 86.5057 334.574 86.5057C334.052 86.5057 333.59 86.6223 333.188 86.8557C332.787 87.0797 332.47 87.4017 332.236 87.8217C332.012 88.2417 331.9 88.7317 331.9 89.2917C331.9 89.8517 332.012 90.3417 332.236 90.7617C332.47 91.1817 332.787 91.513 333.188 91.7557C333.59 91.989 334.052 92.1057 334.574 92.1057ZM347.051 92.9177C346.407 92.9177 345.828 92.773 345.315 92.4837C344.802 92.185 344.396 91.7557 344.097 91.1957C343.798 90.6357 343.649 89.959 343.649 89.1657C343.649 88.363 343.798 87.6863 344.097 87.1357C344.405 86.5757 344.816 86.151 345.329 85.8617C345.842 85.5723 346.416 85.4277 347.051 85.4277C347.751 85.4277 348.376 85.5863 348.927 85.9037C349.487 86.2117 349.926 86.6457 350.243 87.2057C350.56 87.7657 350.719 88.419 350.719 89.1657C350.719 89.903 350.56 90.5563 350.243 91.1257C349.926 91.6857 349.487 92.1243 348.927 92.4417C348.376 92.759 347.751 92.9177 347.051 92.9177ZM343.257 92.8477V82.4597H344.251V87.6677L344.111 89.1517L344.209 90.6357V92.8477H343.257ZM346.981 92.0357C347.504 92.0357 347.97 91.919 348.381 91.6857C348.792 91.443 349.118 91.107 349.361 90.6777C349.604 90.239 349.725 89.735 349.725 89.1657C349.725 88.587 349.604 88.083 349.361 87.6537C349.118 87.2243 348.792 86.893 348.381 86.6597C347.97 86.417 347.504 86.2957 346.981 86.2957C346.458 86.2957 345.987 86.417 345.567 86.6597C345.156 86.893 344.83 87.2243 344.587 87.6537C344.354 88.083 344.237 88.587 344.237 89.1657C344.237 89.735 344.354 90.239 344.587 90.6777C344.83 91.107 345.156 91.443 345.567 91.6857C345.987 91.919 346.458 92.0357 346.981 92.0357ZM352.745 92.8477V85.4977H353.697V87.4997L353.599 87.1497C353.805 86.5897 354.15 86.165 354.635 85.8757C355.121 85.577 355.723 85.4277 356.441 85.4277V86.3937C356.404 86.3937 356.367 86.3937 356.329 86.3937C356.292 86.3843 356.255 86.3797 356.217 86.3797C355.443 86.3797 354.836 86.6177 354.397 87.0937C353.959 87.5603 353.739 88.2277 353.739 89.0957V92.8477H352.745ZM358.255 92.8477V85.4977H359.249V92.8477H358.255ZM358.759 83.8737C358.554 83.8737 358.381 83.8037 358.241 83.6637C358.101 83.5237 358.031 83.3557 358.031 83.1597C358.031 82.9637 358.101 82.8003 358.241 82.6697C358.381 82.5297 358.554 82.4597 358.759 82.4597C358.964 82.4597 359.137 82.525 359.277 82.6557C359.417 82.7863 359.487 82.9497 359.487 83.1457C359.487 83.351 359.417 83.5237 359.277 83.6637C359.146 83.8037 358.974 83.8737 358.759 83.8737ZM361.217 92.8477V92.1897L366.117 85.9877L366.327 86.3237H361.301V85.4977H367.111V86.1417L362.225 92.3577L361.973 92.0217H367.209V92.8477H361.217ZM371.968 92.9177C371.268 92.9177 370.638 92.759 370.078 92.4417C369.528 92.1243 369.094 91.6857 368.776 91.1257C368.459 90.5563 368.3 89.903 368.3 89.1657C368.3 88.419 368.459 87.7657 368.776 87.2057C369.094 86.6457 369.528 86.2117 370.078 85.9037C370.638 85.5863 371.268 85.4277 371.968 85.4277C372.612 85.4277 373.186 85.5723 373.69 85.8617C374.204 86.151 374.61 86.5757 374.908 87.1357C375.216 87.6863 375.37 88.363 375.37 89.1657C375.37 89.959 375.221 90.6357 374.922 91.1957C374.624 91.7557 374.218 92.185 373.704 92.4837C373.2 92.773 372.622 92.9177 371.968 92.9177ZM372.038 92.0357C372.561 92.0357 373.028 91.919 373.438 91.6857C373.858 91.443 374.185 91.107 374.418 90.6777C374.661 90.239 374.782 89.735 374.782 89.1657C374.782 88.587 374.661 88.083 374.418 87.6537C374.185 87.2243 373.858 86.893 373.438 86.6597C373.028 86.417 372.561 86.2957 372.038 86.2957C371.525 86.2957 371.063 86.417 370.652 86.6597C370.242 86.893 369.915 87.2243 369.672 87.6537C369.43 88.083 369.308 88.587 369.308 89.1657C369.308 89.735 369.43 90.239 369.672 90.6777C369.915 91.107 370.242 91.443 370.652 91.6857C371.063 91.919 371.525 92.0357 372.038 92.0357ZM374.81 92.8477V90.6357L374.908 89.1517L374.768 87.6677V82.4597H375.762V92.8477H374.81ZM380.505 92.9177C379.898 92.9177 379.324 92.8337 378.783 92.6657C378.241 92.4883 377.817 92.269 377.509 92.0077L377.957 91.2237C378.255 91.4477 378.638 91.6437 379.105 91.8117C379.571 91.9703 380.061 92.0497 380.575 92.0497C381.275 92.0497 381.779 91.9423 382.087 91.7277C382.395 91.5037 382.549 91.2097 382.549 90.8457C382.549 90.575 382.46 90.365 382.283 90.2157C382.115 90.057 381.891 89.9403 381.611 89.8657C381.331 89.7817 381.018 89.7117 380.673 89.6557C380.327 89.5997 379.982 89.5343 379.637 89.4597C379.301 89.385 378.993 89.2777 378.713 89.1377C378.433 88.9883 378.204 88.7877 378.027 88.5357C377.859 88.2837 377.775 87.9477 377.775 87.5277C377.775 87.1263 377.887 86.767 378.111 86.4497C378.335 86.1323 378.661 85.885 379.091 85.7077C379.529 85.521 380.061 85.4277 380.687 85.4277C381.163 85.4277 381.639 85.493 382.115 85.6237C382.591 85.745 382.983 85.9083 383.291 86.1137L382.857 86.9117C382.53 86.6877 382.18 86.529 381.807 86.4357C381.433 86.333 381.06 86.2817 380.687 86.2817C380.024 86.2817 379.534 86.3983 379.217 86.6317C378.909 86.8557 378.755 87.145 378.755 87.4997C378.755 87.7797 378.839 87.999 379.007 88.1577C379.184 88.3163 379.413 88.4423 379.693 88.5357C379.982 88.6197 380.295 88.6897 380.631 88.7457C380.976 88.8017 381.317 88.8717 381.653 88.9557C381.998 89.0303 382.311 89.1377 382.591 89.2777C382.88 89.4083 383.109 89.5997 383.277 89.8517C383.454 90.0943 383.543 90.4163 383.543 90.8177C383.543 91.247 383.421 91.6203 383.179 91.9377C382.945 92.2457 382.6 92.4883 382.143 92.6657C381.695 92.8337 381.149 92.9177 380.505 92.9177ZM385.464 92.9177C385.259 92.9177 385.082 92.843 384.932 92.6937C384.792 92.5443 384.722 92.3623 384.722 92.1477C384.722 91.9237 384.792 91.7417 384.932 91.6017C385.082 91.4617 385.259 91.3917 385.464 91.3917C385.67 91.3917 385.842 91.4617 385.982 91.6017C386.132 91.7417 386.206 91.9237 386.206 92.1477C386.206 92.3623 386.132 92.5443 385.982 92.6937C385.842 92.843 385.67 92.9177 385.464 92.9177ZM391.18 92.9177C390.452 92.9177 389.799 92.759 389.22 92.4417C388.651 92.115 388.203 91.6717 387.876 91.1117C387.55 90.5423 387.386 89.8937 387.386 89.1657C387.386 88.4283 387.55 87.7797 387.876 87.2197C388.203 86.6597 388.651 86.221 389.22 85.9037C389.799 85.5863 390.452 85.4277 391.18 85.4277C391.806 85.4277 392.37 85.549 392.874 85.7917C393.378 86.0343 393.775 86.3983 394.064 86.8837L393.322 87.3877C393.07 87.0143 392.758 86.739 392.384 86.5617C392.011 86.3843 391.605 86.2957 391.166 86.2957C390.644 86.2957 390.172 86.417 389.752 86.6597C389.332 86.893 389.001 87.2243 388.758 87.6537C388.516 88.083 388.394 88.587 388.394 89.1657C388.394 89.7443 388.516 90.2483 388.758 90.6777C389.001 91.107 389.332 91.443 389.752 91.6857C390.172 91.919 390.644 92.0357 391.166 92.0357C391.605 92.0357 392.011 91.947 392.384 91.7697C392.758 91.5923 393.07 91.3217 393.322 90.9577L394.064 91.4617C393.775 91.9377 393.378 92.3017 392.874 92.5537C392.37 92.7963 391.806 92.9177 391.18 92.9177ZM398.89 92.9177C398.18 92.9177 397.541 92.759 396.972 92.4417C396.412 92.115 395.968 91.6717 395.642 91.1117C395.315 90.5423 395.152 89.8937 395.152 89.1657C395.152 88.4283 395.315 87.7797 395.642 87.2197C395.968 86.6597 396.412 86.221 396.972 85.9037C397.532 85.5863 398.171 85.4277 398.89 85.4277C399.618 85.4277 400.262 85.5863 400.822 85.9037C401.391 86.221 401.834 86.6597 402.152 87.2197C402.478 87.7797 402.642 88.4283 402.642 89.1657C402.642 89.8937 402.478 90.5423 402.152 91.1117C401.834 91.6717 401.391 92.115 400.822 92.4417C400.252 92.759 399.608 92.9177 398.89 92.9177ZM398.89 92.0357C399.422 92.0357 399.893 91.919 400.304 91.6857C400.714 91.443 401.036 91.107 401.27 90.6777C401.512 90.239 401.634 89.735 401.634 89.1657C401.634 88.587 401.512 88.083 401.27 87.6537C401.036 87.2243 400.714 86.893 400.304 86.6597C399.893 86.417 399.426 86.2957 398.904 86.2957C398.381 86.2957 397.914 86.417 397.504 86.6597C397.093 86.893 396.766 87.2243 396.524 87.6537C396.281 88.083 396.16 88.587 396.16 89.1657C396.16 89.735 396.281 90.239 396.524 90.6777C396.766 91.107 397.093 91.443 397.504 91.6857C397.914 91.919 398.376 92.0357 398.89 92.0357ZM413.855 85.4277C414.452 85.4277 414.97 85.5443 415.409 85.7777C415.857 86.0017 416.202 86.347 416.445 86.8137C416.697 87.2803 416.823 87.8683 416.823 88.5777V92.8477H415.829V88.6757C415.829 87.901 415.642 87.3177 415.269 86.9257C414.905 86.5243 414.387 86.3237 413.715 86.3237C413.211 86.3237 412.772 86.431 412.399 86.6457C412.035 86.851 411.75 87.1543 411.545 87.5557C411.349 87.9477 411.251 88.4237 411.251 88.9837V92.8477H410.257V88.6757C410.257 87.901 410.07 87.3177 409.697 86.9257C409.324 86.5243 408.801 86.3237 408.129 86.3237C407.634 86.3237 407.2 86.431 406.827 86.6457C406.454 86.851 406.164 87.1543 405.959 87.5557C405.763 87.9477 405.665 88.4237 405.665 88.9837V92.8477H404.671V85.4977H405.623V87.4857L405.469 87.1357C405.693 86.6037 406.052 86.1883 406.547 85.8897C407.051 85.5817 407.644 85.4277 408.325 85.4277C409.044 85.4277 409.655 85.6097 410.159 85.9737C410.663 86.3283 410.99 86.865 411.139 87.5837L410.747 87.4297C410.962 86.8323 411.34 86.3517 411.881 85.9877C412.432 85.6143 413.09 85.4277 413.855 85.4277ZM419.617 92.9177C419.411 92.9177 419.234 92.843 419.085 92.6937C418.945 92.5443 418.875 92.3623 418.875 92.1477C418.875 91.9237 418.945 91.7417 419.085 91.6017C419.234 91.4617 419.411 91.3917 419.617 91.3917C419.822 91.3917 419.995 91.4617 420.135 91.6017C420.284 91.7417 420.359 91.9237 420.359 92.1477C420.359 92.3623 420.284 92.5443 420.135 92.6937C419.995 92.843 419.822 92.9177 419.617 92.9177ZM427.228 92.8477V91.2237L427.186 90.9577V88.2417C427.186 87.6163 427.009 87.1357 426.654 86.7997C426.309 86.4637 425.791 86.2957 425.1 86.2957C424.624 86.2957 424.172 86.375 423.742 86.5337C423.313 86.6923 422.949 86.9023 422.65 87.1637L422.202 86.4217C422.576 86.1043 423.024 85.8617 423.546 85.6937C424.069 85.5163 424.62 85.4277 425.198 85.4277C426.15 85.4277 426.883 85.6657 427.396 86.1417C427.919 86.6083 428.18 87.3223 428.18 88.2837V92.8477H427.228ZM424.694 92.9177C424.144 92.9177 423.663 92.829 423.252 92.6517C422.851 92.465 422.543 92.213 422.328 91.8957C422.114 91.569 422.006 91.1957 422.006 90.7757C422.006 90.393 422.095 90.0477 422.272 89.7397C422.459 89.4223 422.758 89.1703 423.168 88.9837C423.588 88.7877 424.148 88.6897 424.848 88.6897H427.382V89.4317H424.876C424.167 89.4317 423.672 89.5577 423.392 89.8097C423.122 90.0617 422.986 90.3743 422.986 90.7477C422.986 91.1677 423.15 91.5037 423.476 91.7557C423.803 92.0077 424.26 92.1337 424.848 92.1337C425.408 92.1337 425.889 92.0077 426.29 91.7557C426.701 91.4943 427 91.121 427.186 90.6357L427.41 91.3217C427.224 91.807 426.897 92.1943 426.43 92.4837C425.973 92.773 425.394 92.9177 424.694 92.9177ZM433.918 92.9177C433.293 92.9177 432.747 92.801 432.28 92.5677C431.813 92.3343 431.449 91.9843 431.188 91.5177C430.936 91.051 430.81 90.4677 430.81 89.7677V85.4977H431.804V89.6557C431.804 90.4397 431.995 91.0323 432.378 91.4337C432.77 91.8257 433.316 92.0217 434.016 92.0217C434.529 92.0217 434.973 91.919 435.346 91.7137C435.729 91.499 436.018 91.191 436.214 90.7897C436.419 90.3883 436.522 89.9077 436.522 89.3477V85.4977H437.516V92.8477H436.564V90.8317L436.718 91.1957C436.485 91.737 436.121 92.1617 435.626 92.4697C435.141 92.7683 434.571 92.9177 433.918 92.9177ZM290.559 109.918C289.915 109.918 289.336 109.773 288.823 109.484C288.31 109.185 287.904 108.756 287.605 108.196C287.306 107.636 287.157 106.959 287.157 106.166C287.157 105.363 287.306 104.686 287.605 104.136C287.913 103.576 288.324 103.151 288.837 102.862C289.35 102.572 289.924 102.428 290.559 102.428C291.259 102.428 291.884 102.586 292.435 102.904C292.995 103.212 293.434 103.646 293.751 104.206C294.068 104.766 294.227 105.419 294.227 106.166C294.227 106.903 294.068 107.556 293.751 108.126C293.434 108.686 292.995 109.124 292.435 109.442C291.884 109.759 291.259 109.918 290.559 109.918ZM286.765 109.848V99.4597H287.759V104.668L287.619 106.152L287.717 107.636V109.848H286.765ZM290.489 109.036C291.012 109.036 291.478 108.919 291.889 108.686C292.3 108.443 292.626 108.107 292.869 107.678C293.112 107.239 293.233 106.735 293.233 106.166C293.233 105.587 293.112 105.083 292.869 104.654C292.626 104.224 292.3 103.893 291.889 103.66C291.478 103.417 291.012 103.296 290.489 103.296C289.966 103.296 289.495 103.417 289.075 103.66C288.664 103.893 288.338 104.224 288.095 104.654C287.862 105.083 287.745 105.587 287.745 106.166C287.745 106.735 287.862 107.239 288.095 107.678C288.338 108.107 288.664 108.443 289.075 108.686C289.495 108.919 289.966 109.036 290.489 109.036ZM296.253 109.848V102.498H297.205V104.5L297.107 104.15C297.313 103.59 297.658 103.165 298.143 102.876C298.629 102.577 299.231 102.428 299.949 102.428V103.394C299.912 103.394 299.875 103.394 299.837 103.394C299.8 103.384 299.763 103.38 299.725 103.38C298.951 103.38 298.344 103.618 297.905 104.094C297.467 104.56 297.247 105.228 297.247 106.096V109.848H296.253ZM301.763 109.848V102.498H302.757V109.848H301.763ZM302.267 100.874C302.062 100.874 301.889 100.804 301.749 100.664C301.609 100.524 301.539 100.356 301.539 100.16C301.539 99.9637 301.609 99.8003 301.749 99.6697C301.889 99.5297 302.062 99.4597 302.267 99.4597C302.472 99.4597 302.645 99.525 302.785 99.6557C302.925 99.7863 302.995 99.9497 302.995 100.146C302.995 100.351 302.925 100.524 302.785 100.664C302.654 100.804 302.482 100.874 302.267 100.874ZM304.725 109.848V109.19L309.625 102.988L309.835 103.324H304.809V102.498H310.619V103.142L305.733 109.358L305.481 109.022H310.717V109.848H304.725ZM315.476 109.918C314.776 109.918 314.146 109.759 313.586 109.442C313.035 109.124 312.601 108.686 312.284 108.126C311.967 107.556 311.808 106.903 311.808 106.166C311.808 105.419 311.967 104.766 312.284 104.206C312.601 103.646 313.035 103.212 313.586 102.904C314.146 102.586 314.776 102.428 315.476 102.428C316.12 102.428 316.694 102.572 317.198 102.862C317.711 103.151 318.117 103.576 318.416 104.136C318.724 104.686 318.878 105.363 318.878 106.166C318.878 106.959 318.729 107.636 318.43 108.196C318.131 108.756 317.725 109.185 317.212 109.484C316.708 109.773 316.129 109.918 315.476 109.918ZM315.546 109.036C316.069 109.036 316.535 108.919 316.946 108.686C317.366 108.443 317.693 108.107 317.926 107.678C318.169 107.239 318.29 106.735 318.29 106.166C318.29 105.587 318.169 105.083 317.926 104.654C317.693 104.224 317.366 103.893 316.946 103.66C316.535 103.417 316.069 103.296 315.546 103.296C315.033 103.296 314.571 103.417 314.16 103.66C313.749 103.893 313.423 104.224 313.18 104.654C312.937 105.083 312.816 105.587 312.816 106.166C312.816 106.735 312.937 107.239 313.18 107.678C313.423 108.107 313.749 108.443 314.16 108.686C314.571 108.919 315.033 109.036 315.546 109.036ZM318.318 109.848V107.636L318.416 106.152L318.276 104.668V99.4597H319.27V109.848H318.318ZM324.012 109.918C323.406 109.918 322.832 109.834 322.29 109.666C321.749 109.488 321.324 109.269 321.016 109.008L321.464 108.224C321.763 108.448 322.146 108.644 322.612 108.812C323.079 108.97 323.569 109.05 324.082 109.05C324.782 109.05 325.286 108.942 325.594 108.728C325.902 108.504 326.056 108.21 326.056 107.846C326.056 107.575 325.968 107.365 325.79 107.216C325.622 107.057 325.398 106.94 325.118 106.866C324.838 106.782 324.526 106.712 324.18 106.656C323.835 106.6 323.49 106.534 323.144 106.46C322.808 106.385 322.5 106.278 322.22 106.138C321.94 105.988 321.712 105.788 321.534 105.536C321.366 105.284 321.282 104.948 321.282 104.528C321.282 104.126 321.394 103.767 321.618 103.45C321.842 103.132 322.169 102.885 322.598 102.708C323.037 102.521 323.569 102.428 324.194 102.428C324.67 102.428 325.146 102.493 325.622 102.624C326.098 102.745 326.49 102.908 326.798 103.114L326.364 103.912C326.038 103.688 325.688 103.529 325.314 103.436C324.941 103.333 324.568 103.282 324.194 103.282C323.532 103.282 323.042 103.398 322.724 103.632C322.416 103.856 322.262 104.145 322.262 104.5C322.262 104.78 322.346 104.999 322.514 105.158C322.692 105.316 322.92 105.442 323.2 105.536C323.49 105.62 323.802 105.69 324.138 105.746C324.484 105.802 324.824 105.872 325.16 105.956C325.506 106.03 325.818 106.138 326.098 106.278C326.388 106.408 326.616 106.6 326.784 106.852C326.962 107.094 327.05 107.416 327.05 107.818C327.05 108.247 326.929 108.62 326.686 108.938C326.453 109.246 326.108 109.488 325.65 109.666C325.202 109.834 324.656 109.918 324.012 109.918ZM328.972 109.918C328.767 109.918 328.59 109.843 328.44 109.694C328.3 109.544 328.23 109.362 328.23 109.148C328.23 108.924 328.3 108.742 328.44 108.602C328.59 108.462 328.767 108.392 328.972 108.392C329.178 108.392 329.35 108.462 329.49 108.602C329.64 108.742 329.714 108.924 329.714 109.148C329.714 109.362 329.64 109.544 329.49 109.694C329.35 109.843 329.178 109.918 328.972 109.918ZM334.688 109.918C333.96 109.918 333.307 109.759 332.728 109.442C332.159 109.115 331.711 108.672 331.384 108.112C331.057 107.542 330.894 106.894 330.894 106.166C330.894 105.428 331.057 104.78 331.384 104.22C331.711 103.66 332.159 103.221 332.728 102.904C333.307 102.586 333.96 102.428 334.688 102.428C335.313 102.428 335.878 102.549 336.382 102.792C336.886 103.034 337.283 103.398 337.572 103.884L336.83 104.388C336.578 104.014 336.265 103.739 335.892 103.562C335.519 103.384 335.113 103.296 334.674 103.296C334.151 103.296 333.68 103.417 333.26 103.66C332.84 103.893 332.509 104.224 332.266 104.654C332.023 105.083 331.902 105.587 331.902 106.166C331.902 106.744 332.023 107.248 332.266 107.678C332.509 108.107 332.84 108.443 333.26 108.686C333.68 108.919 334.151 109.036 334.674 109.036C335.113 109.036 335.519 108.947 335.892 108.77C336.265 108.592 336.578 108.322 336.83 107.958L337.572 108.462C337.283 108.938 336.886 109.302 336.382 109.554C335.878 109.796 335.313 109.918 334.688 109.918ZM342.398 109.918C341.688 109.918 341.049 109.759 340.48 109.442C339.92 109.115 339.476 108.672 339.15 108.112C338.823 107.542 338.66 106.894 338.66 106.166C338.66 105.428 338.823 104.78 339.15 104.22C339.476 103.66 339.92 103.221 340.48 102.904C341.04 102.586 341.679 102.428 342.398 102.428C343.126 102.428 343.77 102.586 344.33 102.904C344.899 103.221 345.342 103.66 345.66 104.22C345.986 104.78 346.15 105.428 346.15 106.166C346.15 106.894 345.986 107.542 345.66 108.112C345.342 108.672 344.899 109.115 344.33 109.442C343.76 109.759 343.116 109.918 342.398 109.918ZM342.398 109.036C342.93 109.036 343.401 108.919 343.812 108.686C344.222 108.443 344.544 108.107 344.778 107.678C345.02 107.239 345.142 106.735 345.142 106.166C345.142 105.587 345.02 105.083 344.778 104.654C344.544 104.224 344.222 103.893 343.812 103.66C343.401 103.417 342.934 103.296 342.412 103.296C341.889 103.296 341.422 103.417 341.012 103.66C340.601 103.893 340.274 104.224 340.032 104.654C339.789 105.083 339.668 105.587 339.668 106.166C339.668 106.735 339.789 107.239 340.032 107.678C340.274 108.107 340.601 108.443 341.012 108.686C341.422 108.919 341.884 109.036 342.398 109.036ZM357.363 102.428C357.96 102.428 358.478 102.544 358.917 102.778C359.365 103.002 359.71 103.347 359.953 103.814C360.205 104.28 360.331 104.868 360.331 105.578V109.848H359.337V105.676C359.337 104.901 359.15 104.318 358.777 103.926C358.413 103.524 357.895 103.324 357.223 103.324C356.719 103.324 356.28 103.431 355.907 103.646C355.543 103.851 355.258 104.154 355.053 104.556C354.857 104.948 354.759 105.424 354.759 105.984V109.848H353.765V105.676C353.765 104.901 353.578 104.318 353.205 103.926C352.832 103.524 352.309 103.324 351.637 103.324C351.142 103.324 350.708 103.431 350.335 103.646C349.962 103.851 349.672 104.154 349.467 104.556C349.271 104.948 349.173 105.424 349.173 105.984V109.848H348.179V102.498H349.131V104.486L348.977 104.136C349.201 103.604 349.56 103.188 350.055 102.89C350.559 102.582 351.152 102.428 351.833 102.428C352.552 102.428 353.163 102.61 353.667 102.974C354.171 103.328 354.498 103.865 354.647 104.584L354.255 104.43C354.47 103.832 354.848 103.352 355.389 102.988C355.94 102.614 356.598 102.428 357.363 102.428ZM363.125 109.918C362.919 109.918 362.742 109.843 362.593 109.694C362.453 109.544 362.383 109.362 362.383 109.148C362.383 108.924 362.453 108.742 362.593 108.602C362.742 108.462 362.919 108.392 363.125 108.392C363.33 108.392 363.503 108.462 363.643 108.602C363.792 108.742 363.867 108.924 363.867 109.148C363.867 109.362 363.792 109.544 363.643 109.694C363.503 109.843 363.33 109.918 363.125 109.918ZM370.736 109.848V108.224L370.694 107.958V105.242C370.694 104.616 370.517 104.136 370.162 103.8C369.817 103.464 369.299 103.296 368.608 103.296C368.132 103.296 367.679 103.375 367.25 103.534C366.821 103.692 366.457 103.902 366.158 104.164L365.71 103.422C366.083 103.104 366.531 102.862 367.054 102.694C367.577 102.516 368.127 102.428 368.706 102.428C369.658 102.428 370.391 102.666 370.904 103.142C371.427 103.608 371.688 104.322 371.688 105.284V109.848H370.736ZM368.202 109.918C367.651 109.918 367.171 109.829 366.76 109.652C366.359 109.465 366.051 109.213 365.836 108.896C365.621 108.569 365.514 108.196 365.514 107.776C365.514 107.393 365.603 107.048 365.78 106.74C365.967 106.422 366.265 106.17 366.676 105.984C367.096 105.788 367.656 105.69 368.356 105.69H370.89V106.432H368.384C367.675 106.432 367.18 106.558 366.9 106.81C366.629 107.062 366.494 107.374 366.494 107.748C366.494 108.168 366.657 108.504 366.984 108.756C367.311 109.008 367.768 109.134 368.356 109.134C368.916 109.134 369.397 109.008 369.798 108.756C370.209 108.494 370.507 108.121 370.694 107.636L370.918 108.322C370.731 108.807 370.405 109.194 369.938 109.484C369.481 109.773 368.902 109.918 368.202 109.918ZM377.426 109.918C376.801 109.918 376.255 109.801 375.788 109.568C375.321 109.334 374.957 108.984 374.696 108.518C374.444 108.051 374.318 107.468 374.318 106.768V102.498H375.312V106.656C375.312 107.44 375.503 108.032 375.886 108.434C376.278 108.826 376.824 109.022 377.524 109.022C378.037 109.022 378.481 108.919 378.854 108.714C379.237 108.499 379.526 108.191 379.722 107.79C379.927 107.388 380.03 106.908 380.03 106.348V102.498H381.024V109.848H380.072V107.832L380.226 108.196C379.993 108.737 379.629 109.162 379.134 109.47C378.649 109.768 378.079 109.918 377.426 109.918Z" fill="black"/>
<line x1="261.129" y1="156.002" x2="261.129" y2="23.9982" stroke="black" stroke-width="0.5"/>
<path d="M230.958 71.9954C229.724 71.9954 228.547 71.8272 227.425 71.4908C226.323 71.1544 225.454 70.7432 224.818 70.2573L225.94 68.1267C226.575 68.5566 227.36 68.921 228.295 69.22C229.229 69.519 230.182 69.6686 231.154 69.6686C232.406 69.6686 233.303 69.491 233.845 69.1359C234.406 68.7808 234.686 68.2856 234.686 67.6501C234.686 67.1829 234.518 66.8185 234.182 66.5568C233.845 66.2952 233.397 66.0989 232.836 65.9681C232.294 65.8373 231.687 65.7251 231.014 65.6317C230.341 65.5196 229.668 65.3887 228.995 65.2392C228.323 65.071 227.706 64.8468 227.145 64.5664C226.584 64.2674 226.136 63.8656 225.8 63.361C225.463 62.8377 225.295 62.1462 225.295 61.2865C225.295 60.3894 225.547 59.6044 226.052 58.9316C226.556 58.2588 227.267 57.7449 228.182 57.3898C229.117 57.016 230.22 56.8291 231.49 56.8291C232.462 56.8291 233.443 56.9506 234.434 57.1935C235.443 57.4178 236.265 57.7449 236.901 58.1747L235.752 60.3053C235.079 59.8567 234.378 59.5484 233.649 59.3802C232.92 59.212 232.191 59.1279 231.462 59.1279C230.285 59.1279 229.407 59.3241 228.827 59.7166C228.248 60.0904 227.958 60.5763 227.958 61.1743C227.958 61.6789 228.126 62.0714 228.463 62.3517C228.818 62.6134 229.266 62.819 229.808 62.9685C230.369 63.118 230.986 63.2488 231.659 63.361C232.331 63.4544 233.004 63.5852 233.677 63.7534C234.35 63.903 234.957 64.1179 235.499 64.3982C236.06 64.6786 236.508 65.071 236.845 65.5756C237.2 66.0802 237.377 66.7531 237.377 67.5941C237.377 68.4911 237.116 69.2667 236.593 69.9209C236.069 70.575 235.331 71.0889 234.378 71.4627C233.425 71.8178 232.285 71.9954 230.958 71.9954Z" fill="black"/>
<path d="M216.389 56.8291C217.603 56.8291 218.669 57.0627 219.584 57.5299C220.519 57.9972 221.248 58.7074 221.771 59.6605C222.294 60.6137 222.556 61.8191 222.556 63.2769V71.8272H219.865V63.5852C219.865 62.1462 219.51 61.0622 218.8 60.3333C218.108 59.6044 217.127 59.24 215.856 59.24C214.903 59.24 214.071 59.4269 213.361 59.8007C212.651 60.1745 212.099 60.7258 211.707 61.4547C211.333 62.1835 211.146 63.09 211.146 64.1739V71.8272H208.455V56.9693H211.034V60.9781L210.614 59.9128C211.1 58.941 211.847 58.1841 212.856 57.6421C213.866 57.1001 215.043 56.8291 216.389 56.8291Z" fill="black"/>
<path d="M198.747 71.9954C197.159 71.9954 195.757 71.6683 194.542 71.0142C193.346 70.3601 192.412 69.463 191.739 68.3229C191.085 67.1829 190.758 65.8747 190.758 64.3982C190.758 62.9218 191.076 61.6135 191.711 60.4735C192.365 59.3335 193.253 58.4457 194.374 57.8103C195.514 57.1562 196.794 56.8291 198.215 56.8291C199.654 56.8291 200.925 57.1468 202.027 57.7822C203.13 58.4177 203.99 59.3148 204.606 60.4735C205.242 61.6135 205.56 62.9498 205.56 64.4823C205.56 64.5945 205.55 64.7253 205.532 64.8748C205.532 65.0243 205.522 65.1645 205.504 65.2953H192.86V63.361H204.102L203.009 64.0338C203.027 63.0806 202.831 62.2303 202.42 61.4827C202.009 60.7351 201.439 60.1558 200.71 59.7446C200 59.3148 199.168 59.0998 198.215 59.0998C197.28 59.0998 196.449 59.3148 195.72 59.7446C194.991 60.1558 194.421 60.7445 194.01 61.5107C193.599 62.2583 193.393 63.118 193.393 64.0898V64.5384C193.393 65.5289 193.617 66.4166 194.066 67.2016C194.533 67.9678 195.178 68.5659 196 68.9958C196.822 69.4256 197.766 69.6405 198.832 69.6405C199.71 69.6405 200.504 69.491 201.214 69.192C201.943 68.893 202.579 68.4444 203.121 67.8464L204.606 69.5845C203.934 70.3694 203.093 70.9675 202.083 71.3786C201.093 71.7898 199.981 71.9954 198.747 71.9954Z" fill="black"/>
<path d="M182.423 71.9954C180.835 71.9954 179.433 71.6683 178.218 71.0142C177.022 70.3601 176.088 69.463 175.415 68.3229C174.761 67.1829 174.434 65.8747 174.434 64.3982C174.434 62.9218 174.751 61.6135 175.387 60.4735C176.041 59.3335 176.929 58.4457 178.05 57.8103C179.19 57.1562 180.47 56.8291 181.891 56.8291C183.33 56.8291 184.601 57.1468 185.703 57.7822C186.806 58.4177 187.666 59.3148 188.282 60.4735C188.918 61.6135 189.235 62.9498 189.235 64.4823C189.235 64.5945 189.226 64.7253 189.207 64.8748C189.207 65.0243 189.198 65.1645 189.179 65.2953H176.536V63.361H187.778L186.684 64.0338C186.703 63.0806 186.507 62.2303 186.096 61.4827C185.684 60.7351 185.114 60.1558 184.386 59.7446C183.675 59.3148 182.844 59.0998 181.891 59.0998C180.956 59.0998 180.124 59.3148 179.396 59.7446C178.667 60.1558 178.097 60.7445 177.686 61.5107C177.274 62.2583 177.069 63.118 177.069 64.0898V64.5384C177.069 65.5289 177.293 66.4166 177.742 67.2016C178.209 67.9678 178.854 68.5659 179.676 68.9958C180.498 69.4256 181.442 69.6405 182.507 69.6405C183.386 69.6405 184.18 69.491 184.89 69.192C185.619 68.893 186.254 68.4444 186.796 67.8464L188.282 69.5845C187.609 70.3694 186.768 70.9675 185.759 71.3786C184.769 71.7898 183.657 71.9954 182.423 71.9954Z" fill="black"/>
<path d="M165.479 71.8272V56.9693H168.058V61.0061L167.805 59.9969C168.216 58.969 168.908 58.1841 169.88 57.6421C170.852 57.1001 172.048 56.8291 173.468 56.8291V59.4362C173.356 59.4176 173.244 59.4082 173.132 59.4082C173.038 59.4082 172.945 59.4082 172.851 59.4082C171.412 59.4082 170.272 59.8381 169.431 60.6978C168.59 61.5575 168.17 62.8003 168.17 64.4263V71.8272H165.479Z" fill="black"/>
<path d="M156.779 71.9954C155.265 71.9954 153.91 71.6683 152.714 71.0142C151.537 70.3601 150.612 69.463 149.939 68.3229C149.266 67.1829 148.93 65.8747 148.93 64.3982C148.93 62.9218 149.266 61.6135 149.939 60.4735C150.612 59.3335 151.537 58.4457 152.714 57.8103C153.91 57.1562 155.265 56.8291 156.779 56.8291C158.125 56.8291 159.321 57.1001 160.367 57.6421C161.433 58.1654 162.255 58.9503 162.834 59.9969L160.788 61.3145C160.302 60.5856 159.704 60.053 158.994 59.7166C158.302 59.3615 157.555 59.1839 156.751 59.1839C155.779 59.1839 154.91 59.3989 154.144 59.8287C153.378 60.2586 152.77 60.866 152.322 61.6509C151.873 62.4172 151.649 63.3329 151.649 64.3982C151.649 65.4635 151.873 66.3886 152.322 67.1736C152.77 67.9585 153.378 68.5659 154.144 68.9958C154.91 69.4256 155.779 69.6405 156.751 69.6405C157.555 69.6405 158.302 69.4723 158.994 69.1359C159.704 68.7808 160.302 68.2388 160.788 67.51L162.834 68.7995C162.255 69.8274 161.433 70.6217 160.367 71.1824C159.321 71.7244 158.125 71.9954 156.779 71.9954Z" fill="black"/>
<path d="M141.362 71.9954C140.129 71.9954 138.951 71.8272 137.83 71.4908C136.727 71.1544 135.858 70.7432 135.223 70.2573L136.344 68.1267C136.979 68.5566 137.764 68.921 138.699 69.22C139.633 69.519 140.586 69.6686 141.558 69.6686C142.81 69.6686 143.708 69.491 144.25 69.1359C144.81 68.7808 145.091 68.2856 145.091 67.6501C145.091 67.1829 144.922 66.8185 144.586 66.5568C144.25 66.2952 143.801 66.0989 143.24 65.9681C142.698 65.8373 142.091 65.7251 141.418 65.6317C140.745 65.5196 140.072 65.3887 139.4 65.2392C138.727 65.071 138.11 64.8468 137.549 64.5664C136.989 64.2674 136.54 63.8656 136.204 63.361C135.867 62.8377 135.699 62.1462 135.699 61.2865C135.699 60.3894 135.952 59.6044 136.456 58.9316C136.961 58.2588 137.671 57.7449 138.587 57.3898C139.521 57.016 140.624 56.8291 141.895 56.8291C142.867 56.8291 143.848 56.9506 144.838 57.1935C145.847 57.4178 146.67 57.7449 147.305 58.1747L146.156 60.3053C145.483 59.8567 144.782 59.5484 144.053 59.3802C143.324 59.212 142.596 59.1279 141.867 59.1279C140.689 59.1279 139.811 59.3241 139.231 59.7166C138.652 60.0904 138.362 60.5763 138.362 61.1743C138.362 61.6789 138.531 62.0714 138.867 62.3517C139.222 62.6134 139.671 62.819 140.213 62.9685C140.773 63.118 141.39 63.2488 142.063 63.361C142.736 63.4544 143.409 63.5852 144.081 63.7534C144.754 63.903 145.362 64.1179 145.904 64.3982C146.464 64.6786 146.913 65.071 147.249 65.5756C147.604 66.0802 147.782 66.7531 147.782 67.5941C147.782 68.4911 147.52 69.2667 146.997 69.9209C146.474 70.575 145.735 71.0889 144.782 71.4627C143.829 71.8178 142.689 71.9954 141.362 71.9954Z" fill="black"/>
<path d="M224.03 47.786V35.1708H227.03V47.786H224.03ZM219.068 42.8801V40.0767H231.992V42.8801H219.068Z" fill="#FFD700"/>
<path d="M204.167 51.4572C202.933 51.4572 201.756 51.289 200.634 50.9526C199.532 50.6161 198.663 50.205 198.027 49.7191L199.149 47.5885C199.784 48.0184 200.569 48.3828 201.504 48.6818C202.438 48.9808 203.391 49.1304 204.363 49.1304C205.615 49.1304 206.512 48.9528 207.054 48.5977C207.615 48.2426 207.895 47.7474 207.895 47.1119C207.895 46.6447 207.727 46.2803 207.391 46.0186C207.054 45.757 206.606 45.5607 206.045 45.4299C205.503 45.2991 204.896 45.1869 204.223 45.0935C203.55 44.9814 202.877 44.8505 202.204 44.701C201.532 44.5328 200.915 44.3085 200.354 44.0282C199.793 43.7292 199.345 43.3274 199.009 42.8228C198.672 42.2995 198.504 41.608 198.504 40.7483C198.504 39.8512 198.756 39.0662 199.261 38.3934C199.765 37.7206 200.476 37.2067 201.391 36.8516C202.326 36.4778 203.429 36.2909 204.699 36.2909C205.671 36.2909 206.652 36.4124 207.643 36.6553C208.652 36.8796 209.474 37.2067 210.11 37.6365L208.961 39.7671C208.288 39.3185 207.587 39.0102 206.858 38.842C206.129 38.6738 205.4 38.5897 204.671 38.5897C203.494 38.5897 202.616 38.7859 202.036 39.1784C201.457 39.5522 201.167 40.0381 201.167 40.6361C201.167 41.1407 201.335 41.5332 201.672 41.8135C202.027 42.0752 202.475 42.2808 203.017 42.4303C203.578 42.5798 204.195 42.7106 204.868 42.8228C205.54 42.9162 206.213 43.047 206.886 43.2152C207.559 43.3647 208.166 43.5797 208.708 43.86C209.269 44.1403 209.717 44.5328 210.054 45.0374C210.409 45.542 210.586 46.2148 210.586 47.0559C210.586 47.9529 210.325 48.7285 209.802 49.3827C209.278 50.0368 208.54 50.5507 207.587 50.9245C206.634 51.2796 205.494 51.4572 204.167 51.4572Z" fill="black"/>
<path d="M189.275 51.289V36.4311H191.854V40.4679L191.602 39.4587C192.013 38.4308 192.705 37.6459 193.677 37.1039C194.649 36.5619 195.845 36.2909 197.265 36.2909V38.898C197.153 38.8793 197.041 38.87 196.929 38.87C196.835 38.87 196.742 38.87 196.648 38.87C195.209 38.87 194.069 39.2999 193.228 40.1596C192.387 41.0193 191.967 42.2621 191.967 43.888V51.289H189.275Z" fill="black"/>
<path d="M178.687 51.4572C177.191 51.4572 175.864 51.1301 174.706 50.476C173.547 49.8219 172.631 48.9248 171.958 47.7847C171.286 46.626 170.949 45.3178 170.949 43.86C170.949 42.3836 171.286 41.0753 171.958 39.9353C172.631 38.7952 173.547 37.9075 174.706 37.2721C175.864 36.618 177.191 36.2909 178.687 36.2909C180.163 36.2909 181.481 36.618 182.639 37.2721C183.817 37.9075 184.732 38.7952 185.387 39.9353C186.059 41.0566 186.396 42.3649 186.396 43.86C186.396 45.3365 186.059 46.6447 185.387 47.7847C184.732 48.9248 183.817 49.8219 182.639 50.476C181.481 51.1301 180.163 51.4572 178.687 51.4572ZM178.687 49.1023C179.64 49.1023 180.49 48.8874 181.238 48.4575C182.004 48.0277 182.602 47.4203 183.032 46.6354C183.462 45.8317 183.677 44.9066 183.677 43.86C183.677 42.7947 183.462 41.879 183.032 41.1127C182.602 40.3278 182.004 39.7204 181.238 39.2905C180.49 38.8607 179.64 38.6457 178.687 38.6457C177.733 38.6457 176.883 38.8607 176.135 39.2905C175.388 39.7204 174.79 40.3278 174.341 41.1127C173.893 41.879 173.668 42.7947 173.668 43.86C173.668 44.9066 173.893 45.8317 174.341 46.6354C174.79 47.4203 175.388 48.0277 176.135 48.4575C176.883 48.8874 177.733 49.1023 178.687 49.1023Z" fill="black"/>
<path d="M161.731 51.4572C160.236 51.4572 158.909 51.1301 157.751 50.476C156.592 49.8219 155.676 48.9248 155.003 47.7847C154.331 46.626 153.994 45.3178 153.994 43.86C153.994 42.3836 154.331 41.0753 155.003 39.9353C155.676 38.7952 156.592 37.9075 157.751 37.2721C158.909 36.618 160.236 36.2909 161.731 36.2909C163.208 36.2909 164.525 36.618 165.684 37.2721C166.862 37.9075 167.777 38.7952 168.432 39.9353C169.104 41.0566 169.441 42.3649 169.441 43.86C169.441 45.3365 169.104 46.6447 168.432 47.7847C167.777 48.9248 166.862 49.8219 165.684 50.476C164.525 51.1301 163.208 51.4572 161.731 51.4572ZM161.731 49.1023C162.685 49.1023 163.535 48.8874 164.283 48.4575C165.049 48.0277 165.647 47.4203 166.077 46.6354C166.507 45.8317 166.721 44.9066 166.721 43.86C166.721 42.7947 166.507 41.879 166.077 41.1127C165.647 40.3278 165.049 39.7204 164.283 39.2905C163.535 38.8607 162.685 38.6457 161.731 38.6457C160.778 38.6457 159.928 38.8607 159.18 39.2905C158.433 39.7204 157.835 40.3278 157.386 41.1127C156.938 41.879 156.713 42.7947 156.713 43.86C156.713 44.9066 156.938 45.8317 157.386 46.6354C157.835 47.4203 158.433 48.0277 159.18 48.4575C159.928 48.8874 160.778 49.1023 161.731 49.1023Z" fill="black"/>
<path d="M143.24 51.4573C141.801 51.4573 140.511 51.1396 139.371 50.5041C138.25 49.8687 137.362 48.981 136.708 47.8409C136.054 46.7009 135.727 45.374 135.727 43.8601C135.727 42.3463 136.054 41.0287 136.708 39.9074C137.362 38.7673 138.25 37.8796 139.371 37.2442C140.511 36.6087 141.801 36.291 143.24 36.291C144.492 36.291 145.622 36.5714 146.632 37.132C147.641 37.6927 148.445 38.5337 149.043 39.6551C149.659 40.7764 149.968 42.1781 149.968 43.8601C149.968 45.5422 149.669 46.9439 149.071 48.0652C148.491 49.1866 147.697 50.0369 146.688 50.6163C145.679 51.177 144.529 51.4573 143.24 51.4573ZM143.464 49.1025C144.398 49.1025 145.239 48.8875 145.987 48.4577C146.753 48.0278 147.351 47.4204 147.781 46.6355C148.23 45.8318 148.454 44.9067 148.454 43.8601C148.454 42.7949 148.23 41.8791 147.781 41.1128C147.351 40.3279 146.753 39.7205 145.987 39.2906C145.239 38.8608 144.398 38.6459 143.464 38.6459C142.511 38.6459 141.66 38.8608 140.913 39.2906C140.165 39.7205 139.567 40.3279 139.119 41.1128C138.67 41.8791 138.446 42.7949 138.446 43.8601C138.446 44.9067 138.67 45.8318 139.119 46.6355C139.567 47.4204 140.165 48.0278 140.913 48.4577C141.66 48.8875 142.511 49.1025 143.464 49.1025ZM148.538 51.2891V47.2803L148.706 43.8321L148.426 40.384V30.488H151.117V51.2891H148.538Z" fill="black"/>
<path d="M101.363 71.5649V66.6975L121.634 42.1756L123.051 44.825H101.733V38.6637H129.212V43.5311L108.942 68.0529L107.401 65.4036H129.767V71.5649H101.363Z" fill="black"/>
<path fill-rule="evenodd" clip-rule="evenodd" d="M88.1138 38.6638V71.565H95.8154V38.6638H88.1138Z" fill="black"/>
<path d="M91.9954 33.2419C90.5578 33.2419 89.3666 32.7901 88.4219 31.8864C87.5182 30.9828 87.0664 29.8943 87.0664 28.6209C87.0664 27.3065 87.5182 26.2181 88.4219 25.3555C89.3666 24.4518 90.5578 24 91.9954 24C93.433 24 94.6037 24.4313 95.5073 25.2939C96.4521 26.1154 96.9244 27.1628 96.9244 28.4361C96.9244 29.7916 96.4726 30.9417 95.569 31.8864C94.6653 32.7901 93.4741 33.2419 91.9954 33.2419Z" fill="#FFD700"/>
<path d="M64.3906 71.5642V38.663H71.7225V47.7201L70.86 45.0707C71.8458 42.8527 73.3861 41.1686 75.4809 40.0185C77.6168 38.8684 80.2662 38.2933 83.4289 38.2933V45.6252C83.1003 45.5431 82.7923 45.502 82.5047 45.502C82.2172 45.4609 81.9297 45.4404 81.6422 45.4404C78.7258 45.4404 76.4051 46.303 74.6799 48.0281C72.9548 49.7122 72.0922 52.2383 72.0922 55.6065V71.5642H64.3906Z" fill="black"/>
<path d="M42.2374 71.9963C39.4442 71.9963 36.9592 71.3801 34.7822 70.1479C32.6052 68.9156 30.8801 67.0673 29.6068 64.6028C28.3745 62.0972 27.7584 58.9344 27.7584 55.1144C27.7584 51.2533 28.395 48.0906 29.6684 45.6261C30.9828 43.1615 32.7285 41.3337 34.9054 40.1425C37.1235 38.9103 39.5675 38.2941 42.2374 38.2941C45.4823 38.2941 48.337 38.9924 50.8015 40.389C53.3071 41.7855 55.2787 43.7366 56.7163 46.2422C58.195 48.7478 58.9344 51.7052 58.9344 55.1144C58.9344 58.5236 58.195 61.481 56.7163 63.9866C55.2787 66.4922 53.3071 68.4638 50.8015 69.9014C48.337 71.298 45.4823 71.9963 42.2374 71.9963ZM24 71.565V25.8484H31.7016V46.3038L31.0855 55.0528L31.3319 63.8018V71.565H24ZM41.3748 65.4037C43.2232 65.4037 44.8662 64.993 46.3038 64.1715C47.7825 63.35 48.9531 62.1588 49.8157 60.5979C50.6783 59.0371 51.1096 57.2092 51.1096 55.1144C51.1096 52.9785 50.6783 51.1507 49.8157 49.6309C48.9531 48.07 47.7825 46.8788 46.3038 46.0573C44.8662 45.2358 43.2232 44.8251 41.3748 44.8251C39.5264 44.8251 37.8629 45.2358 36.3841 46.0573C34.9054 46.8788 33.7348 48.07 32.8722 49.6309C32.0096 51.1507 31.5784 52.9785 31.5784 55.1144C31.5784 57.2092 32.0096 59.0371 32.8722 60.5979C33.7348 62.1588 34.9054 63.35 36.3841 64.1715C37.8629 64.993 39.5264 65.4037 41.3748 65.4037Z" fill="black"/>
</svg>
