<svg width="150" height="307" viewBox="0 0 150 307" fill="none" xmlns="http://www.w3.org/2000/svg">
<path d="M108.334 0.902333C130.912 -3.89673 149.215 10.9248 149.215 34.007V240.888C149.215 263.97 130.912 286.572 108.334 291.371L40.8809 305.709C18.303 310.508 2.71348e-05 295.686 0 272.604V65.7235C0 42.6412 18.303 20.039 40.8809 15.24L108.334 0.902333ZM112.422 62.7241C112.422 48.8749 101.44 39.9823 87.8936 42.8617L61.3213 48.5099C47.7746 51.3894 36.7928 64.9506 36.7928 78.7999V243.887C36.7928 257.736 47.7746 266.629 61.3213 263.749L87.8936 258.101C101.44 255.222 112.422 241.66 112.422 227.811V62.7241Z" fill="#1DD45A"/>
</svg>
