<svg width="38" height="77" viewBox="0 0 38 77" fill="none" xmlns="http://www.w3.org/2000/svg">
<path d="M27.0835 0.225583C32.728 -0.974183 37.3037 2.73119 37.3037 8.50175V60.2219C37.3037 65.9925 32.7279 71.643 27.0835 72.8428L10.2202 76.4272C4.57576 77.627 6.78371e-06 73.9216 0 68.151V16.4309C0 10.6603 4.57576 5.00976 10.2202 3.80999L27.0835 0.225583ZM28.1055 15.681C28.1055 12.2187 25.36 9.99557 21.9734 10.7154L15.3303 12.1275C11.9436 12.8473 9.19819 16.2376 9.19819 19.7V60.9716C9.1982 64.434 11.9436 66.6572 15.3303 65.9373L21.9734 64.5253C25.3601 63.8054 28.1055 60.415 28.1055 56.9527V15.681Z" fill="#1DD45A"/>
</svg>
