<svg width="299" height="614" viewBox="0 0 299 614" fill="none" xmlns="http://www.w3.org/2000/svg">
<path d="M216.668 1.80467C261.824 -7.79346 298.43 21.8495 298.43 68.014V481.775C298.429 527.94 261.824 573.144 216.668 582.742L81.7617 611.418C36.6061 621.016 5.42697e-05 591.373 0 545.208V131.447C0 85.2825 36.606 40.0781 81.7617 30.4799L216.668 1.80467ZM224.844 125.448C224.844 97.7498 202.88 79.9646 175.787 85.7234L122.643 97.0198C95.5492 102.779 73.5855 129.901 73.5855 157.6V487.773C73.5856 515.472 95.5492 533.258 122.643 527.499L175.787 516.202C202.881 510.443 224.844 483.32 224.844 455.621V125.448Z" fill="#1DD45A"/>
</svg>
