<svg width="28" height="58" viewBox="0 0 28 58" fill="none" xmlns="http://www.w3.org/2000/svg">
<path d="M20.3126 0.169187C24.546 -0.730637 27.9778 2.04839 27.9778 6.37631V45.1664C27.9778 49.4943 24.546 53.7323 20.3126 54.6321L7.66516 57.3204C3.43182 58.2202 5.08778e-06 55.4412 0 51.1133V12.3231C0 7.99523 3.43182 3.75732 7.66516 2.85749L20.3126 0.169187ZM21.0791 11.7608C21.0791 9.16404 19.02 7.49668 16.48 8.03657L11.4977 9.09561C8.95773 9.63551 6.89864 12.1782 6.89864 14.775V45.7287C6.89865 48.3255 8.95774 49.9929 11.4977 49.453L16.48 48.394C19.0201 47.8541 21.0791 45.3113 21.0791 42.7145V11.7608Z" fill="#1DD45A"/>
</svg>
