<svg width="19" height="39" viewBox="0 0 19 39" fill="none" xmlns="http://www.w3.org/2000/svg">
<path d="M13.5417 0.112792C16.364 -0.487092 18.6519 1.3656 18.6519 4.25087V30.111C18.6518 32.9962 16.364 35.8215 13.5417 36.4214L5.11011 38.2136C2.28788 38.8135 3.39186e-06 36.9608 0 34.0755V8.21543C0 5.33015 2.28788 2.50488 5.11011 1.905L13.5417 0.112792ZM14.0528 7.84051C14.0527 6.10936 12.68 4.99779 10.9867 5.35771L7.66516 6.06374C5.97182 6.42367 4.5991 8.11882 4.5991 9.84999V30.4858C4.5991 32.217 5.97182 33.3286 7.66516 32.9687L10.9867 32.2626C12.68 31.9027 14.0528 30.2075 14.0528 28.4763V7.84051Z" fill="#1DD45A"/>
</svg>
