<svg width="1166" height="2396" viewBox="0 0 1166 2396" fill="none" xmlns="http://www.w3.org/2000/svg">
<path d="M846.359 7.04948C1022.75 -30.4432 1165.74 85.3497 1165.74 265.68V1881.93C1165.74 2062.26 1022.75 2238.84 846.359 2276.34L319.382 2388.35C142.993 2425.84 0.000211991 2310.05 0 2129.72V513.464C0 333.135 142.992 156.555 319.382 119.062L846.359 7.04948ZM878.298 490.032C878.297 381.835 792.502 312.362 686.669 334.857L479.072 378.984C373.239 401.479 287.443 507.426 287.443 615.624V1905.36C287.444 2013.56 373.239 2083.04 479.072 2060.54L686.669 2016.42C792.502 1993.92 878.298 1887.97 878.298 1779.77V490.032Z" fill="#1DD45A"/>
</svg>
