<svg width="10" height="20" viewBox="0 0 10 20" fill="none" xmlns="http://www.w3.org/2000/svg">
<path d="M6.77087 0.0563958C8.18199 -0.243546 9.32593 0.682798 9.32593 2.12544V15.0555C9.32592 16.4981 8.18199 17.9108 6.77087 18.2107L2.55505 19.1068C1.14394 19.4067 1.69593e-06 18.4804 0 17.0378V4.10772C0 2.66508 1.14394 1.25244 2.55505 0.952498L6.77087 0.0563958ZM7.02638 3.92026C7.02637 3.05468 6.34001 2.49889 5.49335 2.67886L3.83258 3.03187C2.98591 3.21184 2.29955 4.05941 2.29955 4.92499V15.2429C2.29955 16.1085 2.98591 16.6643 3.83258 16.4843L5.49335 16.1313C6.34002 15.9514 7.02638 15.1038 7.02638 14.2382V3.92026Z" fill="#1DD45A"/>
</svg>
