<svg width="5" height="10" viewBox="0 0 5 10" fill="none" xmlns="http://www.w3.org/2000/svg">
<path d="M3.38544 0.0281979C4.09099 -0.121773 4.66296 0.341399 4.66296 1.06272V7.52774C4.66296 8.24906 4.09099 8.95538 3.38544 9.10535L1.27753 9.5534C0.57197 9.70337 8.47964e-07 9.2402 0 8.51888V2.05386C0 1.33254 0.571969 0.62622 1.27753 0.476249L3.38544 0.0281979ZM3.51319 1.96013C3.51319 1.52734 3.17001 1.24945 2.74667 1.33943L1.91629 1.51594C1.49296 1.60592 1.14977 2.02971 1.14977 2.4625V7.62145C1.14977 8.05424 1.49296 8.33215 1.91629 8.24217L2.74667 8.06566C3.17001 7.97568 3.51319 7.55188 3.51319 7.11908V1.96013Z" fill="#1DD45A"/>
</svg>
