<svg width="597" height="1227" viewBox="0 0 597 1227" fill="none" xmlns="http://www.w3.org/2000/svg">
<path d="M433.336 3.60933C523.647 -15.5869 596.859 43.6991 596.859 136.028V963.551C596.859 1055.88 523.647 1146.29 433.336 1165.48L163.523 1222.84C73.2122 1242.03 0.000108539 1182.75 0 1090.42V262.894C0 170.565 73.2121 80.1561 163.523 60.9599L433.336 3.60933ZM449.688 250.896C449.688 195.5 405.761 159.929 351.574 171.447L245.285 194.04C191.098 205.557 147.171 259.802 147.171 315.2V975.546C147.171 1030.94 191.098 1066.52 245.285 1055L351.574 1032.4C405.761 1020.89 449.688 966.64 449.688 911.243V250.896Z" fill="#1DD45A"/>
</svg>
