<svg width="75" height="154" viewBox="0 0 75 154" fill="none" xmlns="http://www.w3.org/2000/svg">
<path d="M54.167 0.451167C65.4559 -1.94837 74.6074 5.46238 74.6074 17.0035V120.444C74.6074 131.985 65.4559 143.286 54.167 145.686L20.4404 152.854C9.15152 155.254 1.35674e-05 147.843 0 136.302V32.8617C0 21.3206 9.15151 10.0195 20.4404 7.61998L54.167 0.451167ZM56.211 31.362C56.211 24.4374 50.7201 19.9911 43.9468 21.4309L30.6606 24.255C23.8873 25.6947 18.3964 32.4753 18.3964 39.4V121.943C18.3964 128.868 23.8873 133.314 30.6606 131.875L43.9468 129.051C50.7201 127.611 56.211 120.83 56.211 113.905V31.362Z" fill="#1DD45A"/>
</svg>
