<svg width="35" height="35" viewBox="0 0 35 35" fill="none" xmlns="http://www.w3.org/2000/svg">
<path d="M20.3278 6.96491C21.8933 6.63216 23.1624 7.65982 23.1624 9.26025V23.6045C23.1624 25.2049 21.8933 26.7721 20.3278 27.1048L15.6509 28.0989C14.0855 28.4317 12.8164 27.404 12.8164 25.8036V11.4593C12.8164 9.85891 14.0855 8.29177 15.6509 7.95902L20.3278 6.96491ZM20.6113 11.2514C20.6113 10.2911 19.8499 9.67455 18.9106 9.8742L17.0682 10.2658C16.1289 10.4655 15.3675 11.4058 15.3675 12.366V23.8124C15.3675 24.7727 16.1289 25.3893 17.0682 25.1897L18.9106 24.798C19.8499 24.5984 20.6113 23.6581 20.6113 22.6978V11.2514Z" fill="#1D1D1F"/>
</svg>
