<svg width="355" height="512" viewBox="0 0 355 512" fill="none" xmlns="http://www.w3.org/2000/svg">
<rect width="354.605" height="512" fill="white"/>
<path d="M211.029 103.598C233.607 98.7986 251.91 113.62 251.91 136.702V343.583C251.91 366.665 233.607 389.267 211.029 394.066L143.576 408.404C120.998 413.203 102.695 398.382 102.695 375.299V168.419C102.695 145.337 120.998 122.734 143.576 117.935L211.029 103.598ZM215.117 165.419C215.117 151.57 204.136 142.678 190.589 145.557L164.017 151.205C150.47 154.085 139.488 167.646 139.488 181.495V346.582C139.488 360.431 150.47 369.324 164.017 366.445L190.589 360.796C204.136 357.917 215.117 344.355 215.117 330.506V165.419Z" fill="#1D1D1F"/>
</svg>
