<svg width="89" height="128" viewBox="0 0 89 128" fill="none" xmlns="http://www.w3.org/2000/svg">
<path d="M52.7573 25.8994C58.4018 24.6996 62.9775 28.405 62.9775 34.1756V85.8957C62.9775 91.6663 58.4018 97.3168 52.7573 98.5166L35.894 102.101C30.2496 103.301 25.6738 99.5954 25.6738 93.8249V42.1047C25.6738 36.3341 30.2496 30.6836 35.894 29.4838L52.7573 25.8994ZM53.7793 41.3549C53.7793 37.8926 51.0339 35.6694 47.6472 36.3893L41.0041 37.8013C37.6175 38.5212 34.872 41.9115 34.872 45.3738V86.6455C34.872 90.1078 37.6175 92.331 41.0041 91.6112L47.6472 90.1991C51.0339 89.4793 53.7793 86.0888 53.7793 82.6265V41.3549Z" fill="#1D1D1F"/>
</svg>
