<svg width="808" height="1167" viewBox="0 0 808 1167" fill="none" xmlns="http://www.w3.org/2000/svg">
<path d="M480.849 236.054C532.295 225.119 574 258.891 574 311.486V782.883C574 835.478 532.295 886.979 480.849 897.915L327.151 930.584C275.705 941.519 234 907.747 234 855.152V383.755C234 331.16 275.705 279.659 327.151 268.724L480.849 236.054ZM490.164 376.921C490.164 345.364 465.141 325.101 434.274 331.662L373.726 344.532C342.859 351.094 317.836 381.994 317.836 413.551V789.716C317.836 821.273 342.859 841.537 373.726 834.976L434.274 822.106C465.141 815.545 490.164 784.643 490.164 753.086V376.921Z" fill="#1D1D1F"/>
</svg>
