<svg width="600" height="180" viewBox="0 0 600 180" fill="none" xmlns="http://www.w3.org/2000/svg">
<rect width="600" height="180" fill="white"/>
<path d="M288.627 42.0077C287.912 42.0077 287.251 41.869 286.643 41.5917C286.046 41.3143 285.555 40.9143 285.171 40.3917L286.355 38.9677C286.664 39.3943 287 39.7143 287.363 39.9277C287.736 40.141 288.142 40.2477 288.579 40.2477C289.742 40.2477 290.323 39.5597 290.323 38.1837V32.3917H286.339V30.6477H292.403V38.0717C292.403 39.3943 292.078 40.381 291.427 41.0317C290.787 41.6823 289.854 42.0077 288.627 42.0077ZM300.392 41.8477V40.1197L300.28 39.7517V36.7277C300.28 36.141 300.104 35.6877 299.752 35.3677C299.4 35.037 298.867 34.8717 298.152 34.8717C297.672 34.8717 297.198 34.9463 296.728 35.0957C296.27 35.245 295.88 35.453 295.56 35.7197L294.776 34.2637C295.235 33.9117 295.779 33.6503 296.408 33.4797C297.048 33.2983 297.71 33.2077 298.392 33.2077C299.63 33.2077 300.584 33.5063 301.256 34.1037C301.939 34.6903 302.28 35.6023 302.28 36.8397V41.8477H300.392ZM297.704 41.9597C297.064 41.9597 296.504 41.853 296.024 41.6397C295.544 41.4157 295.171 41.1117 294.904 40.7277C294.648 40.333 294.52 39.8903 294.52 39.3997C294.52 38.9197 294.632 38.4877 294.856 38.1037C295.091 37.7197 295.47 37.4157 295.992 37.1917C296.515 36.9677 297.208 36.8557 298.072 36.8557H300.552V38.1837H298.216C297.534 38.1837 297.075 38.2957 296.84 38.5197C296.606 38.733 296.488 38.9997 296.488 39.3197C296.488 39.6823 296.632 39.9703 296.92 40.1837C297.208 40.397 297.608 40.5037 298.12 40.5037C298.611 40.5037 299.048 40.3917 299.432 40.1677C299.827 39.9437 300.11 39.613 300.28 39.1757L300.616 40.3757C300.424 40.877 300.078 41.2663 299.576 41.5437C299.086 41.821 298.462 41.9597 297.704 41.9597ZM304.847 41.8477V33.3037H306.751V35.6557L306.527 34.9677C306.783 34.3917 307.183 33.9543 307.727 33.6557C308.282 33.357 308.97 33.2077 309.791 33.2077V35.1117C309.706 35.0903 309.626 35.0797 309.551 35.0797C309.476 35.069 309.402 35.0637 309.327 35.0637C308.57 35.0637 307.967 35.2877 307.519 35.7357C307.071 36.173 306.847 36.829 306.847 37.7037V41.8477H304.847ZM311.488 41.8477V33.3037H313.392V35.6557L313.168 34.9677C313.424 34.3917 313.824 33.9543 314.368 33.6557C314.922 33.357 315.61 33.2077 316.432 33.2077V35.1117C316.346 35.0903 316.266 35.0797 316.192 35.0797C316.117 35.069 316.042 35.0637 315.968 35.0637C315.21 35.0637 314.608 35.2877 314.16 35.7357C313.712 36.173 313.488 36.829 313.488 37.7037V41.8477H311.488ZM321.89 41.9597C321.016 41.9597 320.237 41.773 319.554 41.3997C318.872 41.0157 318.333 40.493 317.938 39.8317C317.544 39.1703 317.346 38.4183 317.346 37.5757C317.346 36.7223 317.544 35.9703 317.938 35.3197C318.333 34.6583 318.872 34.141 319.554 33.7677C320.237 33.3943 321.016 33.2077 321.89 33.2077C322.776 33.2077 323.56 33.3943 324.242 33.7677C324.936 34.141 325.474 34.653 325.858 35.3037C326.253 35.9543 326.45 36.7117 326.45 37.5757C326.45 38.4183 326.253 39.1703 325.858 39.8317C325.474 40.493 324.936 41.0157 324.242 41.3997C323.56 41.773 322.776 41.9597 321.89 41.9597ZM321.89 40.2477C322.381 40.2477 322.818 40.141 323.202 39.9277C323.586 39.7143 323.885 39.405 324.098 38.9997C324.322 38.5943 324.434 38.1197 324.434 37.5757C324.434 37.021 324.322 36.5463 324.098 36.1517C323.885 35.7463 323.586 35.437 323.202 35.2237C322.818 35.0103 322.386 34.9037 321.906 34.9037C321.416 34.9037 320.978 35.0103 320.594 35.2237C320.221 35.437 319.922 35.7463 319.698 36.1517C319.474 36.5463 319.362 37.021 319.362 37.5757C319.362 38.1197 319.474 38.5943 319.698 38.9997C319.922 39.405 320.221 39.7143 320.594 39.9277C320.978 40.141 321.41 40.2477 321.89 40.2477ZM331.979 41.9597C331.157 41.9597 330.416 41.7783 329.755 41.4157C329.104 41.0423 328.592 40.5303 328.219 39.8797C327.845 39.229 327.659 38.461 327.659 37.5757C327.659 36.6903 327.845 35.9223 328.219 35.2717C328.592 34.621 329.104 34.1143 329.755 33.7517C330.416 33.389 331.157 33.2077 331.979 33.2077C332.693 33.2077 333.333 33.3677 333.899 33.6877C334.464 33.997 334.912 34.4717 335.243 35.1117C335.573 35.7517 335.739 36.573 335.739 37.5757C335.739 38.5677 335.579 39.389 335.259 40.0397C334.939 40.6797 334.496 41.1597 333.931 41.4797C333.365 41.7997 332.715 41.9597 331.979 41.9597ZM332.219 40.2477C332.699 40.2477 333.125 40.141 333.499 39.9277C333.883 39.7143 334.187 39.405 334.411 38.9997C334.645 38.5943 334.763 38.1197 334.763 37.5757C334.763 37.021 334.645 36.5463 334.411 36.1517C334.187 35.7463 333.883 35.437 333.499 35.2237C333.125 35.0103 332.699 34.9037 332.219 34.9037C331.739 34.9037 331.307 35.0103 330.923 35.2237C330.549 35.437 330.245 35.7463 330.011 36.1517C329.787 36.5463 329.675 37.021 329.675 37.5757C329.675 38.1197 329.787 38.5943 330.011 38.9997C330.245 39.405 330.549 39.7143 330.923 39.9277C331.307 40.141 331.739 40.2477 332.219 40.2477ZM334.811 41.8477V39.8317L334.891 37.5597L334.731 35.2877V29.9757H336.715V41.8477H334.811ZM343.961 41.8477V30.6477H349.209C350.553 30.6477 351.577 30.9143 352.281 31.4477C352.985 31.9703 353.337 32.6743 353.337 33.5597C353.337 34.157 353.198 34.669 352.921 35.0957C352.644 35.5117 352.27 35.837 351.801 36.0717C351.342 36.2957 350.841 36.4077 350.297 36.4077L350.585 35.8317C351.214 35.8317 351.78 35.949 352.281 36.1837C352.782 36.4077 353.177 36.7383 353.465 37.1757C353.764 37.613 353.913 38.157 353.913 38.8077C353.913 39.7677 353.545 40.5143 352.809 41.0477C352.073 41.581 350.98 41.8477 349.529 41.8477H343.961ZM346.041 40.2157H349.401C350.18 40.2157 350.777 40.0877 351.193 39.8317C351.609 39.5757 351.817 39.165 351.817 38.5997C351.817 38.045 351.609 37.6397 351.193 37.3837C350.777 37.117 350.18 36.9837 349.401 36.9837H345.881V35.3677H348.985C349.71 35.3677 350.265 35.2397 350.649 34.9837C351.044 34.7277 351.241 34.3437 351.241 33.8317C351.241 33.309 351.044 32.9197 350.649 32.6637C350.265 32.4077 349.71 32.2797 348.985 32.2797H346.041V40.2157ZM355.941 41.8477V33.3037H357.845V35.6557L357.621 34.9677C357.877 34.3917 358.277 33.9543 358.821 33.6557C359.376 33.357 360.064 33.2077 360.885 33.2077V35.1117C360.8 35.0903 360.72 35.0797 360.645 35.0797C360.57 35.069 360.496 35.0637 360.421 35.0637C359.664 35.0637 359.061 35.2877 358.613 35.7357C358.165 36.173 357.941 36.829 357.941 37.7037V41.8477H355.941ZM367.236 41.8477V40.1197L367.124 39.7517V36.7277C367.124 36.141 366.948 35.6877 366.596 35.3677C366.244 35.037 365.711 34.8717 364.996 34.8717C364.516 34.8717 364.041 34.9463 363.572 35.0957C363.113 35.245 362.724 35.453 362.404 35.7197L361.62 34.2637C362.079 33.9117 362.623 33.6503 363.252 33.4797C363.892 33.2983 364.553 33.2077 365.236 33.2077C366.473 33.2077 367.428 33.5063 368.1 34.1037C368.783 34.6903 369.124 35.6023 369.124 36.8397V41.8477H367.236ZM364.548 41.9597C363.908 41.9597 363.348 41.853 362.868 41.6397C362.388 41.4157 362.015 41.1117 361.748 40.7277C361.492 40.333 361.364 39.8903 361.364 39.3997C361.364 38.9197 361.476 38.4877 361.7 38.1037C361.935 37.7197 362.313 37.4157 362.836 37.1917C363.359 36.9677 364.052 36.8557 364.916 36.8557H367.396V38.1837H365.06C364.377 38.1837 363.919 38.2957 363.684 38.5197C363.449 38.733 363.332 38.9997 363.332 39.3197C363.332 39.6823 363.476 39.9703 363.764 40.1837C364.052 40.397 364.452 40.5037 364.964 40.5037C365.455 40.5037 365.892 40.3917 366.276 40.1677C366.671 39.9437 366.953 39.613 367.124 39.1757L367.46 40.3757C367.268 40.877 366.921 41.2663 366.42 41.5437C365.929 41.821 365.305 41.9597 364.548 41.9597ZM375.323 41.9597C374.501 41.9597 373.76 41.7783 373.099 41.4157C372.448 41.0423 371.936 40.5303 371.563 39.8797C371.189 39.229 371.003 38.461 371.003 37.5757C371.003 36.6903 371.189 35.9223 371.563 35.2717C371.936 34.621 372.448 34.1143 373.099 33.7517C373.76 33.389 374.501 33.2077 375.323 33.2077C376.037 33.2077 376.677 33.3677 377.243 33.6877C377.808 33.997 378.256 34.4717 378.587 35.1117C378.917 35.7517 379.083 36.573 379.083 37.5757C379.083 38.5677 378.923 39.389 378.603 40.0397C378.283 40.6797 377.84 41.1597 377.275 41.4797C376.709 41.7997 376.059 41.9597 375.323 41.9597ZM375.563 40.2477C376.043 40.2477 376.469 40.141 376.843 39.9277C377.227 39.7143 377.531 39.405 377.755 38.9997C377.989 38.5943 378.107 38.1197 378.107 37.5757C378.107 37.021 377.989 36.5463 377.755 36.1517C377.531 35.7463 377.227 35.437 376.843 35.2237C376.469 35.0103 376.043 34.9037 375.563 34.9037C375.083 34.9037 374.651 35.0103 374.267 35.2237C373.893 35.437 373.589 35.7463 373.355 36.1517C373.131 36.5463 373.019 37.021 373.019 37.5757C373.019 38.1197 373.131 38.5943 373.355 38.9997C373.589 39.405 373.893 39.7143 374.267 39.9277C374.651 40.141 375.083 40.2477 375.563 40.2477ZM378.155 41.8477V39.8317L378.235 37.5597L378.075 35.2877V29.9757H380.059V41.8477H378.155ZM385.331 41.9597C384.616 41.9597 383.928 41.869 383.267 41.6877C382.616 41.4957 382.099 41.2663 381.715 40.9997L382.483 39.4797C382.867 39.725 383.326 39.9277 383.859 40.0877C384.392 40.2477 384.926 40.3277 385.459 40.3277C386.088 40.3277 386.542 40.2423 386.819 40.0717C387.107 39.901 387.251 39.6717 387.251 39.3837C387.251 39.149 387.155 38.973 386.963 38.8557C386.771 38.7277 386.52 38.6317 386.211 38.5677C385.902 38.5037 385.555 38.445 385.171 38.3917C384.798 38.3383 384.419 38.269 384.035 38.1837C383.662 38.0877 383.32 37.9543 383.011 37.7837C382.702 37.6023 382.451 37.3623 382.259 37.0637C382.067 36.765 381.971 36.3703 381.971 35.8797C381.971 35.3357 382.126 34.8663 382.435 34.4717C382.744 34.0663 383.176 33.757 383.731 33.5437C384.296 33.3197 384.963 33.2077 385.731 33.2077C386.307 33.2077 386.888 33.2717 387.475 33.3997C388.062 33.5277 388.547 33.709 388.931 33.9437L388.163 35.4637C387.758 35.2183 387.347 35.053 386.931 34.9677C386.526 34.8717 386.12 34.8237 385.715 34.8237C385.107 34.8237 384.654 34.9143 384.355 35.0957C384.067 35.277 383.923 35.5063 383.923 35.7837C383.923 36.0397 384.019 36.2317 384.211 36.3597C384.403 36.4877 384.654 36.589 384.963 36.6637C385.272 36.7383 385.614 36.8023 385.987 36.8557C386.371 36.8983 386.75 36.9677 387.123 37.0637C387.496 37.1597 387.838 37.293 388.147 37.4637C388.467 37.6237 388.723 37.853 388.915 38.1517C389.107 38.4503 389.203 38.8397 389.203 39.3197C389.203 39.853 389.043 40.317 388.723 40.7117C388.414 41.1063 387.971 41.4157 387.395 41.6397C386.819 41.853 386.131 41.9597 385.331 41.9597ZM395.773 33.2077C396.456 33.2077 397.064 33.341 397.597 33.6077C398.141 33.8743 398.568 34.285 398.877 34.8397C399.187 35.3837 399.341 36.0877 399.341 36.9517V41.8477H397.341V37.2077C397.341 36.4503 397.16 35.885 396.797 35.5117C396.445 35.1383 395.949 34.9517 395.309 34.9517C394.84 34.9517 394.424 35.0477 394.061 35.2397C393.699 35.4317 393.416 35.7197 393.213 36.1037C393.021 36.477 392.925 36.9517 392.925 37.5277V41.8477H390.925V29.9757H392.925V35.6077L392.493 34.9037C392.792 34.3597 393.224 33.9437 393.789 33.6557C394.365 33.357 395.027 33.2077 395.773 33.2077ZM407.142 41.8477V40.1197L407.03 39.7517V36.7277C407.03 36.141 406.854 35.6877 406.502 35.3677C406.15 35.037 405.617 34.8717 404.902 34.8717C404.422 34.8717 403.948 34.9463 403.478 35.0957C403.02 35.245 402.63 35.453 402.31 35.7197L401.526 34.2637C401.985 33.9117 402.529 33.6503 403.158 33.4797C403.798 33.2983 404.46 33.2077 405.142 33.2077C406.38 33.2077 407.334 33.5063 408.006 34.1037C408.689 34.6903 409.03 35.6023 409.03 36.8397V41.8477H407.142ZM404.454 41.9597C403.814 41.9597 403.254 41.853 402.774 41.6397C402.294 41.4157 401.921 41.1117 401.654 40.7277C401.398 40.333 401.27 39.8903 401.27 39.3997C401.27 38.9197 401.382 38.4877 401.606 38.1037C401.841 37.7197 402.22 37.4157 402.742 37.1917C403.265 36.9677 403.958 36.8557 404.822 36.8557H407.302V38.1837H404.966C404.284 38.1837 403.825 38.2957 403.59 38.5197C403.356 38.733 403.238 38.9997 403.238 39.3197C403.238 39.6823 403.382 39.9703 403.67 40.1837C403.958 40.397 404.358 40.5037 404.87 40.5037C405.361 40.5037 405.798 40.3917 406.182 40.1677C406.577 39.9437 406.86 39.613 407.03 39.1757L407.366 40.3757C407.174 40.877 406.828 41.2663 406.326 41.5437C405.836 41.821 405.212 41.9597 404.454 41.9597ZM413.329 41.8477L410.193 33.3037H412.081L414.769 40.8397H413.873L416.689 33.3037H418.369L421.105 40.8397H420.225L422.993 33.3037H424.769L421.617 41.8477H419.697L417.201 35.1757H417.793L415.249 41.8477H413.329ZM286.975 58.8477V49.0477H290.965C292.01 49.0477 292.925 49.2577 293.709 49.6777C294.502 50.0883 295.118 50.6623 295.557 51.3997C295.996 52.137 296.215 52.9863 296.215 53.9477C296.215 54.909 295.996 55.7583 295.557 56.4957C295.118 57.233 294.502 57.8117 293.709 58.2317C292.925 58.6423 292.01 58.8477 290.965 58.8477H286.975ZM288.011 57.9517H290.909C291.777 57.9517 292.528 57.7837 293.163 57.4477C293.807 57.1023 294.306 56.631 294.661 56.0337C295.016 55.427 295.193 54.7317 295.193 53.9477C295.193 53.1543 295.016 52.459 294.661 51.8617C294.306 51.2643 293.807 50.7977 293.163 50.4617C292.528 50.1163 291.777 49.9437 290.909 49.9437H288.011V57.9517ZM298.331 58.8477V51.4977H299.325V58.8477H298.331ZM298.835 49.8737C298.63 49.8737 298.457 49.8037 298.317 49.6637C298.177 49.5237 298.107 49.3557 298.107 49.1597C298.107 48.9637 298.177 48.8003 298.317 48.6697C298.457 48.5297 298.63 48.4597 298.835 48.4597C299.041 48.4597 299.213 48.525 299.353 48.6557C299.493 48.7863 299.563 48.9497 299.563 49.1457C299.563 49.351 299.493 49.5237 299.353 49.6637C299.223 49.8037 299.05 49.8737 298.835 49.8737ZM302.091 58.8477V51.4977H303.043V53.4997L302.945 53.1497C303.15 52.5897 303.496 52.165 303.981 51.8757C304.466 51.577 305.068 51.4277 305.787 51.4277V52.3937C305.75 52.3937 305.712 52.3937 305.675 52.3937C305.638 52.3843 305.6 52.3797 305.563 52.3797C304.788 52.3797 304.182 52.6177 303.743 53.0937C303.304 53.5603 303.085 54.2277 303.085 55.0957V58.8477H302.091ZM310.654 58.9177C309.889 58.9177 309.217 58.759 308.638 58.4417C308.06 58.115 307.607 57.6717 307.28 57.1117C306.954 56.5423 306.79 55.8937 306.79 55.1657C306.79 54.4377 306.944 53.7937 307.252 53.2337C307.57 52.6737 307.999 52.235 308.54 51.9177C309.091 51.591 309.707 51.4277 310.388 51.4277C311.079 51.4277 311.69 51.5863 312.222 51.9037C312.764 52.2117 313.188 52.6503 313.496 53.2197C313.804 53.7797 313.958 54.4283 313.958 55.1657C313.958 55.2123 313.954 55.2637 313.944 55.3197C313.944 55.3663 313.944 55.4177 313.944 55.4737H307.546V54.7317H313.412L313.02 55.0257C313.02 54.4937 312.904 54.0223 312.67 53.6117C312.446 53.1917 312.138 52.865 311.746 52.6317C311.354 52.3983 310.902 52.2817 310.388 52.2817C309.884 52.2817 309.432 52.3983 309.03 52.6317C308.629 52.865 308.316 53.1917 308.092 53.6117C307.868 54.0317 307.756 54.5123 307.756 55.0537V55.2077C307.756 55.7677 307.878 56.2623 308.12 56.6917C308.372 57.1117 308.718 57.443 309.156 57.6857C309.604 57.919 310.113 58.0357 310.682 58.0357C311.13 58.0357 311.546 57.9563 311.928 57.7977C312.32 57.639 312.656 57.3963 312.936 57.0697L313.496 57.7137C313.17 58.1057 312.759 58.4043 312.264 58.6097C311.779 58.815 311.242 58.9177 310.654 58.9177ZM319.034 58.9177C318.306 58.9177 317.652 58.759 317.074 58.4417C316.504 58.115 316.056 57.6717 315.73 57.1117C315.403 56.5423 315.24 55.8937 315.24 55.1657C315.24 54.4283 315.403 53.7797 315.73 53.2197C316.056 52.6597 316.504 52.221 317.074 51.9037C317.652 51.5863 318.306 51.4277 319.034 51.4277C319.659 51.4277 320.224 51.549 320.728 51.7917C321.232 52.0343 321.628 52.3983 321.918 52.8837L321.176 53.3877C320.924 53.0143 320.611 52.739 320.238 52.5617C319.864 52.3843 319.458 52.2957 319.02 52.2957C318.497 52.2957 318.026 52.417 317.606 52.6597C317.186 52.893 316.854 53.2243 316.612 53.6537C316.369 54.083 316.248 54.587 316.248 55.1657C316.248 55.7443 316.369 56.2483 316.612 56.6777C316.854 57.107 317.186 57.443 317.606 57.6857C318.026 57.919 318.497 58.0357 319.02 58.0357C319.458 58.0357 319.864 57.947 320.238 57.7697C320.611 57.5923 320.924 57.3217 321.176 56.9577L321.918 57.4617C321.628 57.9377 321.232 58.3017 320.728 58.5537C320.224 58.7963 319.659 58.9177 319.034 58.9177ZM326.276 58.9177C325.586 58.9177 325.054 58.731 324.68 58.3577C324.307 57.9843 324.12 57.457 324.12 56.7757V49.8737H325.114V56.7197C325.114 57.149 325.222 57.4803 325.436 57.7137C325.66 57.947 325.978 58.0637 326.388 58.0637C326.827 58.0637 327.191 57.9377 327.48 57.6857L327.83 58.3997C327.634 58.577 327.396 58.7077 327.116 58.7917C326.846 58.8757 326.566 58.9177 326.276 58.9177ZM322.804 52.3237V51.4977H327.354V52.3237H322.804ZM332.376 58.9177C331.667 58.9177 331.027 58.759 330.458 58.4417C329.898 58.115 329.455 57.6717 329.128 57.1117C328.801 56.5423 328.638 55.8937 328.638 55.1657C328.638 54.4283 328.801 53.7797 329.128 53.2197C329.455 52.6597 329.898 52.221 330.458 51.9037C331.018 51.5863 331.657 51.4277 332.376 51.4277C333.104 51.4277 333.748 51.5863 334.308 51.9037C334.877 52.221 335.321 52.6597 335.638 53.2197C335.965 53.7797 336.128 54.4283 336.128 55.1657C336.128 55.8937 335.965 56.5423 335.638 57.1117C335.321 57.6717 334.877 58.115 334.308 58.4417C333.739 58.759 333.095 58.9177 332.376 58.9177ZM332.376 58.0357C332.908 58.0357 333.379 57.919 333.79 57.6857C334.201 57.443 334.523 57.107 334.756 56.6777C334.999 56.239 335.12 55.735 335.12 55.1657C335.12 54.587 334.999 54.083 334.756 53.6537C334.523 53.2243 334.201 52.893 333.79 52.6597C333.379 52.417 332.913 52.2957 332.39 52.2957C331.867 52.2957 331.401 52.417 330.99 52.6597C330.579 52.893 330.253 53.2243 330.01 53.6537C329.767 54.083 329.646 54.587 329.646 55.1657C329.646 55.735 329.767 56.239 330.01 56.6777C330.253 57.107 330.579 57.443 330.99 57.6857C331.401 57.919 331.863 58.0357 332.376 58.0357ZM338.157 58.8477V51.4977H339.109V53.4997L339.011 53.1497C339.217 52.5897 339.562 52.165 340.047 51.8757C340.533 51.577 341.135 51.4277 341.853 51.4277V52.3937C341.816 52.3937 341.779 52.3937 341.741 52.3937C341.704 52.3843 341.667 52.3797 341.629 52.3797C340.855 52.3797 340.248 52.6177 339.809 53.0937C339.371 53.5603 339.151 54.2277 339.151 55.0957V58.8477H338.157ZM288.025 92.9317C287.474 92.9317 286.956 92.8103 286.471 92.5677C285.995 92.325 285.612 91.9797 285.323 91.5317L285.925 90.8317C286.196 91.2237 286.508 91.5223 286.863 91.7277C287.218 91.933 287.61 92.0357 288.039 92.0357C289.252 92.0357 289.859 91.317 289.859 89.8797V83.9437H286.275V83.0477H290.881V89.8377C290.881 90.8737 290.638 91.6483 290.153 92.1617C289.677 92.675 288.968 92.9317 288.025 92.9317ZM298.385 92.8477V91.2237L298.343 90.9577V88.2417C298.343 87.6163 298.165 87.1357 297.811 86.7997C297.465 86.4637 296.947 86.2957 296.257 86.2957C295.781 86.2957 295.328 86.375 294.899 86.5337C294.469 86.6923 294.105 86.9023 293.807 87.1637L293.359 86.4217C293.732 86.1043 294.18 85.8617 294.703 85.6937C295.225 85.5163 295.776 85.4277 296.355 85.4277C297.307 85.4277 298.039 85.6657 298.553 86.1417C299.075 86.6083 299.337 87.3223 299.337 88.2837V92.8477H298.385ZM295.851 92.9177C295.3 92.9177 294.819 92.829 294.409 92.6517C294.007 92.465 293.699 92.213 293.485 91.8957C293.27 91.569 293.163 91.1957 293.163 90.7757C293.163 90.393 293.251 90.0477 293.429 89.7397C293.615 89.4223 293.914 89.1703 294.325 88.9837C294.745 88.7877 295.305 88.6897 296.005 88.6897H298.539V89.4317H296.033C295.323 89.4317 294.829 89.5577 294.549 89.8097C294.278 90.0617 294.143 90.3743 294.143 90.7477C294.143 91.1677 294.306 91.5037 294.633 91.7557C294.959 92.0077 295.417 92.1337 296.005 92.1337C296.565 92.1337 297.045 92.0077 297.447 91.7557C297.857 91.4943 298.156 91.121 298.343 90.6357L298.567 91.3217C298.38 91.807 298.053 92.1943 297.587 92.4837C297.129 92.773 296.551 92.9177 295.851 92.9177ZM302.036 92.8477V85.4977H302.988V87.4997L302.89 87.1497C303.096 86.5897 303.441 86.165 303.926 85.8757C304.412 85.577 305.014 85.4277 305.732 85.4277V86.3937C305.695 86.3937 305.658 86.3937 305.62 86.3937C305.583 86.3843 305.546 86.3797 305.508 86.3797C304.734 86.3797 304.127 86.6177 303.688 87.0937C303.25 87.5603 303.03 88.2277 303.03 89.0957V92.8477H302.036ZM307.546 92.8477V85.4977H308.498V87.4997L308.4 87.1497C308.605 86.5897 308.951 86.165 309.436 85.8757C309.921 85.577 310.523 85.4277 311.242 85.4277V86.3937C311.205 86.3937 311.167 86.3937 311.13 86.3937C311.093 86.3843 311.055 86.3797 311.018 86.3797C310.243 86.3797 309.637 86.6177 309.198 87.0937C308.759 87.5603 308.54 88.2277 308.54 89.0957V92.8477H307.546ZM315.984 92.9177C315.274 92.9177 314.635 92.759 314.066 92.4417C313.506 92.115 313.062 91.6717 312.736 91.1117C312.409 90.5423 312.246 89.8937 312.246 89.1657C312.246 88.4283 312.409 87.7797 312.736 87.2197C313.062 86.6597 313.506 86.221 314.066 85.9037C314.626 85.5863 315.265 85.4277 315.984 85.4277C316.712 85.4277 317.356 85.5863 317.916 85.9037C318.485 86.221 318.928 86.6597 319.246 87.2197C319.572 87.7797 319.736 88.4283 319.736 89.1657C319.736 89.8937 319.572 90.5423 319.246 91.1117C318.928 91.6717 318.485 92.115 317.916 92.4417C317.346 92.759 316.702 92.9177 315.984 92.9177ZM315.984 92.0357C316.516 92.0357 316.987 91.919 317.398 91.6857C317.808 91.443 318.13 91.107 318.364 90.6777C318.606 90.239 318.728 89.735 318.728 89.1657C318.728 88.587 318.606 88.083 318.364 87.6537C318.13 87.2243 317.808 86.893 317.398 86.6597C316.987 86.417 316.52 86.2957 315.998 86.2957C315.475 86.2957 315.008 86.417 314.598 86.6597C314.187 86.893 313.86 87.2243 313.618 87.6537C313.375 88.083 313.254 88.587 313.254 89.1657C313.254 89.735 313.375 90.239 313.618 90.6777C313.86 91.107 314.187 91.443 314.598 91.6857C315.008 91.919 315.47 92.0357 315.984 92.0357ZM324.691 92.9177C323.991 92.9177 323.361 92.759 322.801 92.4417C322.25 92.1243 321.816 91.6857 321.499 91.1257C321.182 90.5563 321.023 89.903 321.023 89.1657C321.023 88.419 321.182 87.7657 321.499 87.2057C321.816 86.6457 322.25 86.2117 322.801 85.9037C323.361 85.5863 323.991 85.4277 324.691 85.4277C325.335 85.4277 325.909 85.5723 326.413 85.8617C326.926 86.151 327.332 86.5757 327.631 87.1357C327.939 87.6863 328.093 88.363 328.093 89.1657C328.093 89.959 327.944 90.6357 327.645 91.1957C327.346 91.7557 326.94 92.185 326.427 92.4837C325.923 92.773 325.344 92.9177 324.691 92.9177ZM324.761 92.0357C325.284 92.0357 325.75 91.919 326.161 91.6857C326.581 91.443 326.908 91.107 327.141 90.6777C327.384 90.239 327.505 89.735 327.505 89.1657C327.505 88.587 327.384 88.083 327.141 87.6537C326.908 87.2243 326.581 86.893 326.161 86.6597C325.75 86.417 325.284 86.2957 324.761 86.2957C324.248 86.2957 323.786 86.417 323.375 86.6597C322.964 86.893 322.638 87.2243 322.395 87.6537C322.152 88.083 322.031 88.587 322.031 89.1657C322.031 89.735 322.152 90.239 322.395 90.6777C322.638 91.107 322.964 91.443 323.375 91.6857C323.786 91.919 324.248 92.0357 324.761 92.0357ZM327.533 92.8477V90.6357L327.631 89.1517L327.491 87.6677V82.4597H328.485V92.8477H327.533ZM337.077 95.6477C336.116 95.6477 335.239 95.489 334.445 95.1717C333.652 94.8637 332.966 94.425 332.387 93.8557C331.818 93.2957 331.375 92.6283 331.057 91.8537C330.749 91.0697 330.595 90.2157 330.595 89.2917C330.595 88.3583 330.749 87.509 331.057 86.7437C331.375 85.969 331.823 85.3017 332.401 84.7417C332.989 84.1723 333.685 83.7337 334.487 83.4257C335.29 83.1177 336.172 82.9637 337.133 82.9637C338.085 82.9637 338.953 83.113 339.737 83.4117C340.531 83.7103 341.217 84.135 341.795 84.6857C342.374 85.227 342.817 85.8757 343.125 86.6317C343.443 87.3877 343.601 88.223 343.601 89.1377C343.601 89.9217 343.508 90.5983 343.321 91.1677C343.144 91.7277 342.883 92.1617 342.537 92.4697C342.192 92.7683 341.777 92.9177 341.291 92.9177C340.815 92.9177 340.433 92.773 340.143 92.4837C339.854 92.1943 339.709 91.7883 339.709 91.2657V90.1597L339.821 89.2637L339.681 87.8637V85.7497H340.591V91.0557C340.591 91.4477 340.675 91.723 340.843 91.8817C341.011 92.0403 341.217 92.1197 341.459 92.1197C341.749 92.1197 342.001 92.003 342.215 91.7697C342.43 91.5363 342.593 91.2003 342.705 90.7617C342.827 90.3137 342.887 89.777 342.887 89.1517C342.887 88.3303 342.747 87.5837 342.467 86.9117C342.187 86.2397 341.791 85.661 341.277 85.1757C340.764 84.6903 340.157 84.3217 339.457 84.0697C338.757 83.8083 337.983 83.6777 337.133 83.6777C336.284 83.6777 335.505 83.813 334.795 84.0837C334.086 84.3543 333.475 84.7417 332.961 85.2457C332.457 85.7403 332.065 86.333 331.785 87.0237C331.505 87.705 331.365 88.461 331.365 89.2917C331.365 90.1223 331.501 90.883 331.771 91.5737C332.051 92.2643 332.443 92.857 332.947 93.3517C333.451 93.8557 334.053 94.243 334.753 94.5137C335.453 94.7937 336.228 94.9337 337.077 94.9337C337.497 94.9337 337.945 94.8823 338.421 94.7797C338.907 94.677 339.355 94.523 339.765 94.3177L340.003 95.0037C339.583 95.2183 339.107 95.377 338.575 95.4797C338.043 95.5917 337.544 95.6477 337.077 95.6477ZM336.909 92.9177C336.247 92.9177 335.654 92.7637 335.131 92.4557C334.609 92.1383 334.193 91.709 333.885 91.1677C333.587 90.617 333.437 89.9917 333.437 89.2917C333.437 88.5917 333.587 87.971 333.885 87.4297C334.193 86.8883 334.609 86.4637 335.131 86.1557C335.654 85.8477 336.247 85.6937 336.909 85.6937C337.553 85.6937 338.123 85.8383 338.617 86.1277C339.121 86.417 339.513 86.8323 339.793 87.3737C340.083 87.9057 340.227 88.545 340.227 89.2917C340.227 90.0383 340.083 90.6823 339.793 91.2237C339.513 91.765 339.126 92.185 338.631 92.4837C338.137 92.773 337.563 92.9177 336.909 92.9177ZM337.035 92.1057C337.539 92.1057 337.992 91.989 338.393 91.7557C338.804 91.5223 339.121 91.1957 339.345 90.7757C339.579 90.3463 339.695 89.8517 339.695 89.2917C339.695 88.7223 339.579 88.2323 339.345 87.8217C339.121 87.4017 338.804 87.0797 338.393 86.8557C337.992 86.6223 337.539 86.5057 337.035 86.5057C336.513 86.5057 336.051 86.6223 335.649 86.8557C335.248 87.0797 334.931 87.4017 334.697 87.8217C334.473 88.2417 334.361 88.7317 334.361 89.2917C334.361 89.8517 334.473 90.3417 334.697 90.7617C334.931 91.1817 335.248 91.513 335.649 91.7557C336.051 91.989 336.513 92.1057 337.035 92.1057ZM349.512 92.9177C348.868 92.9177 348.289 92.773 347.776 92.4837C347.263 92.185 346.857 91.7557 346.558 91.1957C346.259 90.6357 346.11 89.959 346.11 89.1657C346.11 88.363 346.259 87.6863 346.558 87.1357C346.866 86.5757 347.277 86.151 347.79 85.8617C348.303 85.5723 348.877 85.4277 349.512 85.4277C350.212 85.4277 350.837 85.5863 351.388 85.9037C351.948 86.2117 352.387 86.6457 352.704 87.2057C353.021 87.7657 353.18 88.419 353.18 89.1657C353.18 89.903 353.021 90.5563 352.704 91.1257C352.387 91.6857 351.948 92.1243 351.388 92.4417C350.837 92.759 350.212 92.9177 349.512 92.9177ZM345.718 92.8477V82.4597H346.712V87.6677L346.572 89.1517L346.67 90.6357V92.8477H345.718ZM349.442 92.0357C349.965 92.0357 350.431 91.919 350.842 91.6857C351.253 91.443 351.579 91.107 351.822 90.6777C352.065 90.239 352.186 89.735 352.186 89.1657C352.186 88.587 352.065 88.083 351.822 87.6537C351.579 87.2243 351.253 86.893 350.842 86.6597C350.431 86.417 349.965 86.2957 349.442 86.2957C348.919 86.2957 348.448 86.417 348.028 86.6597C347.617 86.893 347.291 87.2243 347.048 87.6537C346.815 88.083 346.698 88.587 346.698 89.1657C346.698 89.735 346.815 90.239 347.048 90.6777C347.291 91.107 347.617 91.443 348.028 91.6857C348.448 91.919 348.919 92.0357 349.442 92.0357ZM355.206 92.8477V85.4977H356.158V87.4997L356.06 87.1497C356.266 86.5897 356.611 86.165 357.096 85.8757C357.582 85.577 358.184 85.4277 358.902 85.4277V86.3937C358.865 86.3937 358.828 86.3937 358.79 86.3937C358.753 86.3843 358.716 86.3797 358.678 86.3797C357.904 86.3797 357.297 86.6177 356.858 87.0937C356.42 87.5603 356.2 88.2277 356.2 89.0957V92.8477H355.206ZM360.716 92.8477V85.4977H361.71V92.8477H360.716ZM361.22 83.8737C361.015 83.8737 360.842 83.8037 360.702 83.6637C360.562 83.5237 360.492 83.3557 360.492 83.1597C360.492 82.9637 360.562 82.8003 360.702 82.6697C360.842 82.5297 361.015 82.4597 361.22 82.4597C361.425 82.4597 361.598 82.525 361.738 82.6557C361.878 82.7863 361.948 82.9497 361.948 83.1457C361.948 83.351 361.878 83.5237 361.738 83.6637C361.607 83.8037 361.435 83.8737 361.22 83.8737ZM363.678 92.8477V92.1897L368.578 85.9877L368.788 86.3237H363.762V85.4977H369.572V86.1417L364.686 92.3577L364.434 92.0217H369.67V92.8477H363.678ZM374.429 92.9177C373.729 92.9177 373.099 92.759 372.539 92.4417C371.989 92.1243 371.555 91.6857 371.237 91.1257C370.92 90.5563 370.761 89.903 370.761 89.1657C370.761 88.419 370.92 87.7657 371.237 87.2057C371.555 86.6457 371.989 86.2117 372.539 85.9037C373.099 85.5863 373.729 85.4277 374.429 85.4277C375.073 85.4277 375.647 85.5723 376.151 85.8617C376.665 86.151 377.071 86.5757 377.369 87.1357C377.677 87.6863 377.831 88.363 377.831 89.1657C377.831 89.959 377.682 90.6357 377.383 91.1957C377.085 91.7557 376.679 92.185 376.165 92.4837C375.661 92.773 375.083 92.9177 374.429 92.9177ZM374.499 92.0357C375.022 92.0357 375.489 91.919 375.899 91.6857C376.319 91.443 376.646 91.107 376.879 90.6777C377.122 90.239 377.243 89.735 377.243 89.1657C377.243 88.587 377.122 88.083 376.879 87.6537C376.646 87.2243 376.319 86.893 375.899 86.6597C375.489 86.417 375.022 86.2957 374.499 86.2957C373.986 86.2957 373.524 86.417 373.113 86.6597C372.703 86.893 372.376 87.2243 372.133 87.6537C371.891 88.083 371.769 88.587 371.769 89.1657C371.769 89.735 371.891 90.239 372.133 90.6777C372.376 91.107 372.703 91.443 373.113 91.6857C373.524 91.919 373.986 92.0357 374.499 92.0357ZM377.271 92.8477V90.6357L377.369 89.1517L377.229 87.6677V82.4597H378.223V92.8477H377.271ZM382.965 92.9177C382.359 92.9177 381.785 92.8337 381.243 92.6657C380.702 92.4883 380.277 92.269 379.969 92.0077L380.417 91.2237C380.716 91.4477 381.099 91.6437 381.565 91.8117C382.032 91.9703 382.522 92.0497 383.035 92.0497C383.735 92.0497 384.239 91.9423 384.547 91.7277C384.855 91.5037 385.009 91.2097 385.009 90.8457C385.009 90.575 384.921 90.365 384.743 90.2157C384.575 90.057 384.351 89.9403 384.071 89.8657C383.791 89.7817 383.479 89.7117 383.133 89.6557C382.788 89.5997 382.443 89.5343 382.097 89.4597C381.761 89.385 381.453 89.2777 381.173 89.1377C380.893 88.9883 380.665 88.7877 380.487 88.5357C380.319 88.2837 380.235 87.9477 380.235 87.5277C380.235 87.1263 380.347 86.767 380.571 86.4497C380.795 86.1323 381.122 85.885 381.551 85.7077C381.99 85.521 382.522 85.4277 383.147 85.4277C383.623 85.4277 384.099 85.493 384.575 85.6237C385.051 85.745 385.443 85.9083 385.751 86.1137L385.317 86.9117C384.991 86.6877 384.641 86.529 384.267 86.4357C383.894 86.333 383.521 86.2817 383.147 86.2817C382.485 86.2817 381.995 86.3983 381.677 86.6317C381.369 86.8557 381.215 87.145 381.215 87.4997C381.215 87.7797 381.299 87.999 381.467 88.1577C381.645 88.3163 381.873 88.4423 382.153 88.5357C382.443 88.6197 382.755 88.6897 383.091 88.7457C383.437 88.8017 383.777 88.8717 384.113 88.9557C384.459 89.0303 384.771 89.1377 385.051 89.2777C385.341 89.4083 385.569 89.5997 385.737 89.8517C385.915 90.0943 386.003 90.4163 386.003 90.8177C386.003 91.247 385.882 91.6203 385.639 91.9377C385.406 92.2457 385.061 92.4883 384.603 92.6657C384.155 92.8337 383.609 92.9177 382.965 92.9177ZM387.925 92.9177C387.72 92.9177 387.543 92.843 387.393 92.6937C387.253 92.5443 387.183 92.3623 387.183 92.1477C387.183 91.9237 387.253 91.7417 387.393 91.6017C387.543 91.4617 387.72 91.3917 387.925 91.3917C388.131 91.3917 388.303 91.4617 388.443 91.6017C388.593 91.7417 388.667 91.9237 388.667 92.1477C388.667 92.3623 388.593 92.5443 388.443 92.6937C388.303 92.843 388.131 92.9177 387.925 92.9177ZM393.641 92.9177C392.913 92.9177 392.26 92.759 391.681 92.4417C391.112 92.115 390.664 91.6717 390.337 91.1117C390.01 90.5423 389.847 89.8937 389.847 89.1657C389.847 88.4283 390.01 87.7797 390.337 87.2197C390.664 86.6597 391.112 86.221 391.681 85.9037C392.26 85.5863 392.913 85.4277 393.641 85.4277C394.266 85.4277 394.831 85.549 395.335 85.7917C395.839 86.0343 396.236 86.3983 396.525 86.8837L395.783 87.3877C395.531 87.0143 395.218 86.739 394.845 86.5617C394.472 86.3843 394.066 86.2957 393.627 86.2957C393.104 86.2957 392.633 86.417 392.213 86.6597C391.793 86.893 391.462 87.2243 391.219 87.6537C390.976 88.083 390.855 88.587 390.855 89.1657C390.855 89.7443 390.976 90.2483 391.219 90.6777C391.462 91.107 391.793 91.443 392.213 91.6857C392.633 91.919 393.104 92.0357 393.627 92.0357C394.066 92.0357 394.472 91.947 394.845 91.7697C395.218 91.5923 395.531 91.3217 395.783 90.9577L396.525 91.4617C396.236 91.9377 395.839 92.3017 395.335 92.5537C394.831 92.7963 394.266 92.9177 393.641 92.9177ZM401.351 92.9177C400.641 92.9177 400.002 92.759 399.433 92.4417C398.873 92.115 398.429 91.6717 398.103 91.1117C397.776 90.5423 397.613 89.8937 397.613 89.1657C397.613 88.4283 397.776 87.7797 398.103 87.2197C398.429 86.6597 398.873 86.221 399.433 85.9037C399.993 85.5863 400.632 85.4277 401.351 85.4277C402.079 85.4277 402.723 85.5863 403.283 85.9037C403.852 86.221 404.295 86.6597 404.613 87.2197C404.939 87.7797 405.103 88.4283 405.103 89.1657C405.103 89.8937 404.939 90.5423 404.613 91.1117C404.295 91.6717 403.852 92.115 403.283 92.4417C402.713 92.759 402.069 92.9177 401.351 92.9177ZM401.351 92.0357C401.883 92.0357 402.354 91.919 402.765 91.6857C403.175 91.443 403.497 91.107 403.731 90.6777C403.973 90.239 404.095 89.735 404.095 89.1657C404.095 88.587 403.973 88.083 403.731 87.6537C403.497 87.2243 403.175 86.893 402.765 86.6597C402.354 86.417 401.887 86.2957 401.365 86.2957C400.842 86.2957 400.375 86.417 399.965 86.6597C399.554 86.893 399.227 87.2243 398.985 87.6537C398.742 88.083 398.621 88.587 398.621 89.1657C398.621 89.735 398.742 90.239 398.985 90.6777C399.227 91.107 399.554 91.443 399.965 91.6857C400.375 91.919 400.837 92.0357 401.351 92.0357ZM416.316 85.4277C416.913 85.4277 417.431 85.5443 417.87 85.7777C418.318 86.0017 418.663 86.347 418.906 86.8137C419.158 87.2803 419.284 87.8683 419.284 88.5777V92.8477H418.29V88.6757C418.29 87.901 418.103 87.3177 417.73 86.9257C417.366 86.5243 416.848 86.3237 416.176 86.3237C415.672 86.3237 415.233 86.431 414.86 86.6457C414.496 86.851 414.211 87.1543 414.006 87.5557C413.81 87.9477 413.712 88.4237 413.712 88.9837V92.8477H412.718V88.6757C412.718 87.901 412.531 87.3177 412.158 86.9257C411.785 86.5243 411.262 86.3237 410.59 86.3237C410.095 86.3237 409.661 86.431 409.288 86.6457C408.915 86.851 408.625 87.1543 408.42 87.5557C408.224 87.9477 408.126 88.4237 408.126 88.9837V92.8477H407.132V85.4977H408.084V87.4857L407.93 87.1357C408.154 86.6037 408.513 86.1883 409.008 85.8897C409.512 85.5817 410.105 85.4277 410.786 85.4277C411.505 85.4277 412.116 85.6097 412.62 85.9737C413.124 86.3283 413.451 86.865 413.6 87.5837L413.208 87.4297C413.423 86.8323 413.801 86.3517 414.342 85.9877C414.893 85.6143 415.551 85.4277 416.316 85.4277ZM422.078 92.9177C421.872 92.9177 421.695 92.843 421.546 92.6937C421.406 92.5443 421.336 92.3623 421.336 92.1477C421.336 91.9237 421.406 91.7417 421.546 91.6017C421.695 91.4617 421.872 91.3917 422.078 91.3917C422.283 91.3917 422.456 91.4617 422.596 91.6017C422.745 91.7417 422.82 91.9237 422.82 92.1477C422.82 92.3623 422.745 92.5443 422.596 92.6937C422.456 92.843 422.283 92.9177 422.078 92.9177ZM429.689 92.8477V91.2237L429.647 90.9577V88.2417C429.647 87.6163 429.47 87.1357 429.115 86.7997C428.77 86.4637 428.252 86.2957 427.561 86.2957C427.085 86.2957 426.633 86.375 426.203 86.5337C425.774 86.6923 425.41 86.9023 425.111 87.1637L424.663 86.4217C425.037 86.1043 425.485 85.8617 426.007 85.6937C426.53 85.5163 427.081 85.4277 427.659 85.4277C428.611 85.4277 429.344 85.6657 429.857 86.1417C430.38 86.6083 430.641 87.3223 430.641 88.2837V92.8477H429.689ZM427.155 92.9177C426.605 92.9177 426.124 92.829 425.713 92.6517C425.312 92.465 425.004 92.213 424.789 91.8957C424.575 91.569 424.467 91.1957 424.467 90.7757C424.467 90.393 424.556 90.0477 424.733 89.7397C424.92 89.4223 425.219 89.1703 425.629 88.9837C426.049 88.7877 426.609 88.6897 427.309 88.6897H429.843V89.4317H427.337C426.628 89.4317 426.133 89.5577 425.853 89.8097C425.583 90.0617 425.447 90.3743 425.447 90.7477C425.447 91.1677 425.611 91.5037 425.937 91.7557C426.264 92.0077 426.721 92.1337 427.309 92.1337C427.869 92.1337 428.35 92.0077 428.751 91.7557C429.162 91.4943 429.461 91.121 429.647 90.6357L429.871 91.3217C429.685 91.807 429.358 92.1943 428.891 92.4837C428.434 92.773 427.855 92.9177 427.155 92.9177ZM436.379 92.9177C435.754 92.9177 435.208 92.801 434.741 92.5677C434.274 92.3343 433.91 91.9843 433.649 91.5177C433.397 91.051 433.271 90.4677 433.271 89.7677V85.4977H434.265V89.6557C434.265 90.4397 434.456 91.0323 434.839 91.4337C435.231 91.8257 435.777 92.0217 436.477 92.0217C436.99 92.0217 437.434 91.919 437.807 91.7137C438.19 91.499 438.479 91.191 438.675 90.7897C438.88 90.3883 438.983 89.9077 438.983 89.3477V85.4977H439.977V92.8477H439.025V90.8317L439.179 91.1957C438.946 91.737 438.582 92.1617 438.087 92.4697C437.602 92.7683 437.032 92.9177 436.379 92.9177ZM290.559 109.918C289.915 109.918 289.336 109.773 288.823 109.484C288.31 109.185 287.904 108.756 287.605 108.196C287.306 107.636 287.157 106.959 287.157 106.166C287.157 105.363 287.306 104.686 287.605 104.136C287.913 103.576 288.324 103.151 288.837 102.862C289.35 102.572 289.924 102.428 290.559 102.428C291.259 102.428 291.884 102.586 292.435 102.904C292.995 103.212 293.434 103.646 293.751 104.206C294.068 104.766 294.227 105.419 294.227 106.166C294.227 106.903 294.068 107.556 293.751 108.126C293.434 108.686 292.995 109.124 292.435 109.442C291.884 109.759 291.259 109.918 290.559 109.918ZM286.765 109.848V99.4597H287.759V104.668L287.619 106.152L287.717 107.636V109.848H286.765ZM290.489 109.036C291.012 109.036 291.478 108.919 291.889 108.686C292.3 108.443 292.626 108.107 292.869 107.678C293.112 107.239 293.233 106.735 293.233 106.166C293.233 105.587 293.112 105.083 292.869 104.654C292.626 104.224 292.3 103.893 291.889 103.66C291.478 103.417 291.012 103.296 290.489 103.296C289.966 103.296 289.495 103.417 289.075 103.66C288.664 103.893 288.338 104.224 288.095 104.654C287.862 105.083 287.745 105.587 287.745 106.166C287.745 106.735 287.862 107.239 288.095 107.678C288.338 108.107 288.664 108.443 289.075 108.686C289.495 108.919 289.966 109.036 290.489 109.036ZM296.253 109.848V102.498H297.205V104.5L297.107 104.15C297.313 103.59 297.658 103.165 298.143 102.876C298.629 102.577 299.231 102.428 299.949 102.428V103.394C299.912 103.394 299.875 103.394 299.837 103.394C299.8 103.384 299.763 103.38 299.725 103.38C298.951 103.38 298.344 103.618 297.905 104.094C297.467 104.56 297.247 105.228 297.247 106.096V109.848H296.253ZM301.763 109.848V102.498H302.757V109.848H301.763ZM302.267 100.874C302.062 100.874 301.889 100.804 301.749 100.664C301.609 100.524 301.539 100.356 301.539 100.16C301.539 99.9637 301.609 99.8003 301.749 99.6697C301.889 99.5297 302.062 99.4597 302.267 99.4597C302.472 99.4597 302.645 99.525 302.785 99.6557C302.925 99.7863 302.995 99.9497 302.995 100.146C302.995 100.351 302.925 100.524 302.785 100.664C302.654 100.804 302.482 100.874 302.267 100.874ZM304.725 109.848V109.19L309.625 102.988L309.835 103.324H304.809V102.498H310.619V103.142L305.733 109.358L305.481 109.022H310.717V109.848H304.725ZM315.476 109.918C314.776 109.918 314.146 109.759 313.586 109.442C313.035 109.124 312.601 108.686 312.284 108.126C311.967 107.556 311.808 106.903 311.808 106.166C311.808 105.419 311.967 104.766 312.284 104.206C312.601 103.646 313.035 103.212 313.586 102.904C314.146 102.586 314.776 102.428 315.476 102.428C316.12 102.428 316.694 102.572 317.198 102.862C317.711 103.151 318.117 103.576 318.416 104.136C318.724 104.686 318.878 105.363 318.878 106.166C318.878 106.959 318.729 107.636 318.43 108.196C318.131 108.756 317.725 109.185 317.212 109.484C316.708 109.773 316.129 109.918 315.476 109.918ZM315.546 109.036C316.069 109.036 316.535 108.919 316.946 108.686C317.366 108.443 317.693 108.107 317.926 107.678C318.169 107.239 318.29 106.735 318.29 106.166C318.29 105.587 318.169 105.083 317.926 104.654C317.693 104.224 317.366 103.893 316.946 103.66C316.535 103.417 316.069 103.296 315.546 103.296C315.033 103.296 314.571 103.417 314.16 103.66C313.749 103.893 313.423 104.224 313.18 104.654C312.937 105.083 312.816 105.587 312.816 106.166C312.816 106.735 312.937 107.239 313.18 107.678C313.423 108.107 313.749 108.443 314.16 108.686C314.571 108.919 315.033 109.036 315.546 109.036ZM318.318 109.848V107.636L318.416 106.152L318.276 104.668V99.4597H319.27V109.848H318.318ZM324.012 109.918C323.406 109.918 322.832 109.834 322.29 109.666C321.749 109.488 321.324 109.269 321.016 109.008L321.464 108.224C321.763 108.448 322.146 108.644 322.612 108.812C323.079 108.97 323.569 109.05 324.082 109.05C324.782 109.05 325.286 108.942 325.594 108.728C325.902 108.504 326.056 108.21 326.056 107.846C326.056 107.575 325.968 107.365 325.79 107.216C325.622 107.057 325.398 106.94 325.118 106.866C324.838 106.782 324.526 106.712 324.18 106.656C323.835 106.6 323.49 106.534 323.144 106.46C322.808 106.385 322.5 106.278 322.22 106.138C321.94 105.988 321.712 105.788 321.534 105.536C321.366 105.284 321.282 104.948 321.282 104.528C321.282 104.126 321.394 103.767 321.618 103.45C321.842 103.132 322.169 102.885 322.598 102.708C323.037 102.521 323.569 102.428 324.194 102.428C324.67 102.428 325.146 102.493 325.622 102.624C326.098 102.745 326.49 102.908 326.798 103.114L326.364 103.912C326.038 103.688 325.688 103.529 325.314 103.436C324.941 103.333 324.568 103.282 324.194 103.282C323.532 103.282 323.042 103.398 322.724 103.632C322.416 103.856 322.262 104.145 322.262 104.5C322.262 104.78 322.346 104.999 322.514 105.158C322.692 105.316 322.92 105.442 323.2 105.536C323.49 105.62 323.802 105.69 324.138 105.746C324.484 105.802 324.824 105.872 325.16 105.956C325.506 106.03 325.818 106.138 326.098 106.278C326.388 106.408 326.616 106.6 326.784 106.852C326.962 107.094 327.05 107.416 327.05 107.818C327.05 108.247 326.929 108.62 326.686 108.938C326.453 109.246 326.108 109.488 325.65 109.666C325.202 109.834 324.656 109.918 324.012 109.918ZM328.972 109.918C328.767 109.918 328.59 109.843 328.44 109.694C328.3 109.544 328.23 109.362 328.23 109.148C328.23 108.924 328.3 108.742 328.44 108.602C328.59 108.462 328.767 108.392 328.972 108.392C329.178 108.392 329.35 108.462 329.49 108.602C329.64 108.742 329.714 108.924 329.714 109.148C329.714 109.362 329.64 109.544 329.49 109.694C329.35 109.843 329.178 109.918 328.972 109.918ZM334.688 109.918C333.96 109.918 333.307 109.759 332.728 109.442C332.159 109.115 331.711 108.672 331.384 108.112C331.057 107.542 330.894 106.894 330.894 106.166C330.894 105.428 331.057 104.78 331.384 104.22C331.711 103.66 332.159 103.221 332.728 102.904C333.307 102.586 333.96 102.428 334.688 102.428C335.313 102.428 335.878 102.549 336.382 102.792C336.886 103.034 337.283 103.398 337.572 103.884L336.83 104.388C336.578 104.014 336.265 103.739 335.892 103.562C335.519 103.384 335.113 103.296 334.674 103.296C334.151 103.296 333.68 103.417 333.26 103.66C332.84 103.893 332.509 104.224 332.266 104.654C332.023 105.083 331.902 105.587 331.902 106.166C331.902 106.744 332.023 107.248 332.266 107.678C332.509 108.107 332.84 108.443 333.26 108.686C333.68 108.919 334.151 109.036 334.674 109.036C335.113 109.036 335.519 108.947 335.892 108.77C336.265 108.592 336.578 108.322 336.83 107.958L337.572 108.462C337.283 108.938 336.886 109.302 336.382 109.554C335.878 109.796 335.313 109.918 334.688 109.918ZM342.398 109.918C341.688 109.918 341.049 109.759 340.48 109.442C339.92 109.115 339.476 108.672 339.15 108.112C338.823 107.542 338.66 106.894 338.66 106.166C338.66 105.428 338.823 104.78 339.15 104.22C339.476 103.66 339.92 103.221 340.48 102.904C341.04 102.586 341.679 102.428 342.398 102.428C343.126 102.428 343.77 102.586 344.33 102.904C344.899 103.221 345.342 103.66 345.66 104.22C345.986 104.78 346.15 105.428 346.15 106.166C346.15 106.894 345.986 107.542 345.66 108.112C345.342 108.672 344.899 109.115 344.33 109.442C343.76 109.759 343.116 109.918 342.398 109.918ZM342.398 109.036C342.93 109.036 343.401 108.919 343.812 108.686C344.222 108.443 344.544 108.107 344.778 107.678C345.02 107.239 345.142 106.735 345.142 106.166C345.142 105.587 345.02 105.083 344.778 104.654C344.544 104.224 344.222 103.893 343.812 103.66C343.401 103.417 342.934 103.296 342.412 103.296C341.889 103.296 341.422 103.417 341.012 103.66C340.601 103.893 340.274 104.224 340.032 104.654C339.789 105.083 339.668 105.587 339.668 106.166C339.668 106.735 339.789 107.239 340.032 107.678C340.274 108.107 340.601 108.443 341.012 108.686C341.422 108.919 341.884 109.036 342.398 109.036ZM357.363 102.428C357.96 102.428 358.478 102.544 358.917 102.778C359.365 103.002 359.71 103.347 359.953 103.814C360.205 104.28 360.331 104.868 360.331 105.578V109.848H359.337V105.676C359.337 104.901 359.15 104.318 358.777 103.926C358.413 103.524 357.895 103.324 357.223 103.324C356.719 103.324 356.28 103.431 355.907 103.646C355.543 103.851 355.258 104.154 355.053 104.556C354.857 104.948 354.759 105.424 354.759 105.984V109.848H353.765V105.676C353.765 104.901 353.578 104.318 353.205 103.926C352.832 103.524 352.309 103.324 351.637 103.324C351.142 103.324 350.708 103.431 350.335 103.646C349.962 103.851 349.672 104.154 349.467 104.556C349.271 104.948 349.173 105.424 349.173 105.984V109.848H348.179V102.498H349.131V104.486L348.977 104.136C349.201 103.604 349.56 103.188 350.055 102.89C350.559 102.582 351.152 102.428 351.833 102.428C352.552 102.428 353.163 102.61 353.667 102.974C354.171 103.328 354.498 103.865 354.647 104.584L354.255 104.43C354.47 103.832 354.848 103.352 355.389 102.988C355.94 102.614 356.598 102.428 357.363 102.428ZM363.125 109.918C362.919 109.918 362.742 109.843 362.593 109.694C362.453 109.544 362.383 109.362 362.383 109.148C362.383 108.924 362.453 108.742 362.593 108.602C362.742 108.462 362.919 108.392 363.125 108.392C363.33 108.392 363.503 108.462 363.643 108.602C363.792 108.742 363.867 108.924 363.867 109.148C363.867 109.362 363.792 109.544 363.643 109.694C363.503 109.843 363.33 109.918 363.125 109.918ZM370.736 109.848V108.224L370.694 107.958V105.242C370.694 104.616 370.517 104.136 370.162 103.8C369.817 103.464 369.299 103.296 368.608 103.296C368.132 103.296 367.679 103.375 367.25 103.534C366.821 103.692 366.457 103.902 366.158 104.164L365.71 103.422C366.083 103.104 366.531 102.862 367.054 102.694C367.577 102.516 368.127 102.428 368.706 102.428C369.658 102.428 370.391 102.666 370.904 103.142C371.427 103.608 371.688 104.322 371.688 105.284V109.848H370.736ZM368.202 109.918C367.651 109.918 367.171 109.829 366.76 109.652C366.359 109.465 366.051 109.213 365.836 108.896C365.621 108.569 365.514 108.196 365.514 107.776C365.514 107.393 365.603 107.048 365.78 106.74C365.967 106.422 366.265 106.17 366.676 105.984C367.096 105.788 367.656 105.69 368.356 105.69H370.89V106.432H368.384C367.675 106.432 367.18 106.558 366.9 106.81C366.629 107.062 366.494 107.374 366.494 107.748C366.494 108.168 366.657 108.504 366.984 108.756C367.311 109.008 367.768 109.134 368.356 109.134C368.916 109.134 369.397 109.008 369.798 108.756C370.209 108.494 370.507 108.121 370.694 107.636L370.918 108.322C370.731 108.807 370.405 109.194 369.938 109.484C369.481 109.773 368.902 109.918 368.202 109.918ZM377.426 109.918C376.801 109.918 376.255 109.801 375.788 109.568C375.321 109.334 374.957 108.984 374.696 108.518C374.444 108.051 374.318 107.468 374.318 106.768V102.498H375.312V106.656C375.312 107.44 375.503 108.032 375.886 108.434C376.278 108.826 376.824 109.022 377.524 109.022C378.037 109.022 378.481 108.919 378.854 108.714C379.237 108.499 379.526 108.191 379.722 107.79C379.927 107.388 380.03 106.908 380.03 106.348V102.498H381.024V109.848H380.072V107.832L380.226 108.196C379.993 108.737 379.629 109.162 379.134 109.47C378.649 109.768 378.079 109.918 377.426 109.918Z" fill="black"/>
<line x1="261.129" y1="156.002" x2="261.129" y2="23.9982" stroke="black" stroke-width="0.5"/>
<path d="M230.958 71.9954C229.724 71.9954 228.547 71.8272 227.425 71.4908C226.323 71.1544 225.454 70.7432 224.818 70.2573L225.94 68.1267C226.575 68.5566 227.36 68.921 228.295 69.22C229.229 69.519 230.182 69.6686 231.154 69.6686C232.406 69.6686 233.303 69.491 233.845 69.1359C234.406 68.7808 234.686 68.2856 234.686 67.6501C234.686 67.1829 234.518 66.8185 234.182 66.5568C233.845 66.2952 233.397 66.0989 232.836 65.9681C232.294 65.8373 231.687 65.7251 231.014 65.6317C230.341 65.5196 229.668 65.3887 228.995 65.2392C228.323 65.071 227.706 64.8468 227.145 64.5664C226.584 64.2674 226.136 63.8656 225.8 63.361C225.463 62.8377 225.295 62.1462 225.295 61.2865C225.295 60.3894 225.547 59.6044 226.052 58.9316C226.556 58.2588 227.267 57.7449 228.182 57.3898C229.117 57.016 230.22 56.8291 231.49 56.8291C232.462 56.8291 233.443 56.9506 234.434 57.1935C235.443 57.4178 236.265 57.7449 236.901 58.1747L235.752 60.3053C235.079 59.8567 234.378 59.5484 233.649 59.3802C232.92 59.212 232.191 59.1279 231.462 59.1279C230.285 59.1279 229.407 59.3241 228.827 59.7166C228.248 60.0904 227.958 60.5763 227.958 61.1743C227.958 61.6789 228.126 62.0714 228.463 62.3517C228.818 62.6134 229.266 62.819 229.808 62.9685C230.369 63.118 230.986 63.2488 231.659 63.361C232.331 63.4544 233.004 63.5852 233.677 63.7534C234.35 63.903 234.957 64.1179 235.499 64.3982C236.06 64.6786 236.508 65.071 236.845 65.5756C237.2 66.0802 237.377 66.7531 237.377 67.5941C237.377 68.4911 237.116 69.2667 236.593 69.9209C236.069 70.575 235.331 71.0889 234.378 71.4627C233.425 71.8178 232.285 71.9954 230.958 71.9954Z" fill="black"/>
<path d="M216.389 56.8291C217.603 56.8291 218.669 57.0627 219.584 57.5299C220.519 57.9972 221.248 58.7074 221.771 59.6605C222.294 60.6137 222.556 61.8191 222.556 63.2769V71.8272H219.865V63.5852C219.865 62.1462 219.51 61.0622 218.8 60.3333C218.108 59.6044 217.127 59.24 215.856 59.24C214.903 59.24 214.071 59.4269 213.361 59.8007C212.651 60.1745 212.099 60.7258 211.707 61.4547C211.333 62.1835 211.146 63.09 211.146 64.1739V71.8272H208.455V56.9693H211.034V60.9781L210.614 59.9128C211.1 58.941 211.847 58.1841 212.856 57.6421C213.866 57.1001 215.043 56.8291 216.389 56.8291Z" fill="black"/>
<path d="M198.747 71.9954C197.159 71.9954 195.757 71.6683 194.542 71.0142C193.346 70.3601 192.412 69.463 191.739 68.3229C191.085 67.1829 190.758 65.8747 190.758 64.3982C190.758 62.9218 191.076 61.6135 191.711 60.4735C192.365 59.3335 193.253 58.4457 194.374 57.8103C195.514 57.1562 196.794 56.8291 198.215 56.8291C199.654 56.8291 200.925 57.1468 202.027 57.7822C203.13 58.4177 203.99 59.3148 204.606 60.4735C205.242 61.6135 205.56 62.9498 205.56 64.4823C205.56 64.5945 205.55 64.7253 205.532 64.8748C205.532 65.0243 205.522 65.1645 205.504 65.2953H192.86V63.361H204.102L203.009 64.0338C203.027 63.0806 202.831 62.2303 202.42 61.4827C202.009 60.7351 201.439 60.1558 200.71 59.7446C200 59.3148 199.168 59.0998 198.215 59.0998C197.28 59.0998 196.449 59.3148 195.72 59.7446C194.991 60.1558 194.421 60.7445 194.01 61.5107C193.599 62.2583 193.393 63.118 193.393 64.0898V64.5384C193.393 65.5289 193.617 66.4166 194.066 67.2016C194.533 67.9678 195.178 68.5659 196 68.9958C196.822 69.4256 197.766 69.6405 198.832 69.6405C199.71 69.6405 200.504 69.491 201.214 69.192C201.943 68.893 202.579 68.4444 203.121 67.8464L204.606 69.5845C203.934 70.3694 203.093 70.9675 202.083 71.3786C201.093 71.7898 199.981 71.9954 198.747 71.9954Z" fill="black"/>
<path d="M182.423 71.9954C180.835 71.9954 179.433 71.6683 178.218 71.0142C177.022 70.3601 176.088 69.463 175.415 68.3229C174.761 67.1829 174.434 65.8747 174.434 64.3982C174.434 62.9218 174.751 61.6135 175.387 60.4735C176.041 59.3335 176.929 58.4457 178.05 57.8103C179.19 57.1562 180.47 56.8291 181.891 56.8291C183.33 56.8291 184.601 57.1468 185.703 57.7822C186.806 58.4177 187.666 59.3148 188.282 60.4735C188.918 61.6135 189.235 62.9498 189.235 64.4823C189.235 64.5945 189.226 64.7253 189.207 64.8748C189.207 65.0243 189.198 65.1645 189.179 65.2953H176.536V63.361H187.778L186.684 64.0338C186.703 63.0806 186.507 62.2303 186.096 61.4827C185.684 60.7351 185.114 60.1558 184.386 59.7446C183.675 59.3148 182.844 59.0998 181.891 59.0998C180.956 59.0998 180.124 59.3148 179.396 59.7446C178.667 60.1558 178.097 60.7445 177.686 61.5107C177.274 62.2583 177.069 63.118 177.069 64.0898V64.5384C177.069 65.5289 177.293 66.4166 177.742 67.2016C178.209 67.9678 178.854 68.5659 179.676 68.9958C180.498 69.4256 181.442 69.6405 182.507 69.6405C183.386 69.6405 184.18 69.491 184.89 69.192C185.619 68.893 186.254 68.4444 186.796 67.8464L188.282 69.5845C187.609 70.3694 186.768 70.9675 185.759 71.3786C184.769 71.7898 183.657 71.9954 182.423 71.9954Z" fill="black"/>
<path d="M165.479 71.8272V56.9693H168.058V61.0061L167.805 59.9969C168.216 58.969 168.908 58.1841 169.88 57.6421C170.852 57.1001 172.048 56.8291 173.468 56.8291V59.4362C173.356 59.4176 173.244 59.4082 173.132 59.4082C173.038 59.4082 172.945 59.4082 172.851 59.4082C171.412 59.4082 170.272 59.8381 169.431 60.6978C168.59 61.5575 168.17 62.8003 168.17 64.4263V71.8272H165.479Z" fill="black"/>
<path d="M156.779 71.9954C155.265 71.9954 153.91 71.6683 152.714 71.0142C151.537 70.3601 150.612 69.463 149.939 68.3229C149.266 67.1829 148.93 65.8747 148.93 64.3982C148.93 62.9218 149.266 61.6135 149.939 60.4735C150.612 59.3335 151.537 58.4457 152.714 57.8103C153.91 57.1562 155.265 56.8291 156.779 56.8291C158.125 56.8291 159.321 57.1001 160.367 57.6421C161.433 58.1654 162.255 58.9503 162.834 59.9969L160.788 61.3145C160.302 60.5856 159.704 60.053 158.994 59.7166C158.302 59.3615 157.555 59.1839 156.751 59.1839C155.779 59.1839 154.91 59.3989 154.144 59.8287C153.378 60.2586 152.77 60.866 152.322 61.6509C151.873 62.4172 151.649 63.3329 151.649 64.3982C151.649 65.4635 151.873 66.3886 152.322 67.1736C152.77 67.9585 153.378 68.5659 154.144 68.9958C154.91 69.4256 155.779 69.6405 156.751 69.6405C157.555 69.6405 158.302 69.4723 158.994 69.1359C159.704 68.7808 160.302 68.2388 160.788 67.51L162.834 68.7995C162.255 69.8274 161.433 70.6217 160.367 71.1824C159.321 71.7244 158.125 71.9954 156.779 71.9954Z" fill="black"/>
<path d="M141.362 71.9954C140.129 71.9954 138.951 71.8272 137.83 71.4908C136.727 71.1544 135.858 70.7432 135.223 70.2573L136.344 68.1267C136.979 68.5566 137.764 68.921 138.699 69.22C139.633 69.519 140.586 69.6686 141.558 69.6686C142.81 69.6686 143.708 69.491 144.25 69.1359C144.81 68.7808 145.091 68.2856 145.091 67.6501C145.091 67.1829 144.922 66.8185 144.586 66.5568C144.25 66.2952 143.801 66.0989 143.24 65.9681C142.698 65.8373 142.091 65.7251 141.418 65.6317C140.745 65.5196 140.072 65.3887 139.4 65.2392C138.727 65.071 138.11 64.8468 137.549 64.5664C136.989 64.2674 136.54 63.8656 136.204 63.361C135.867 62.8377 135.699 62.1462 135.699 61.2865C135.699 60.3894 135.952 59.6044 136.456 58.9316C136.961 58.2588 137.671 57.7449 138.587 57.3898C139.521 57.016 140.624 56.8291 141.895 56.8291C142.867 56.8291 143.848 56.9506 144.838 57.1935C145.847 57.4178 146.67 57.7449 147.305 58.1747L146.156 60.3053C145.483 59.8567 144.782 59.5484 144.053 59.3802C143.324 59.212 142.596 59.1279 141.867 59.1279C140.689 59.1279 139.811 59.3241 139.231 59.7166C138.652 60.0904 138.362 60.5763 138.362 61.1743C138.362 61.6789 138.531 62.0714 138.867 62.3517C139.222 62.6134 139.671 62.819 140.213 62.9685C140.773 63.118 141.39 63.2488 142.063 63.361C142.736 63.4544 143.409 63.5852 144.081 63.7534C144.754 63.903 145.362 64.1179 145.904 64.3982C146.464 64.6786 146.913 65.071 147.249 65.5756C147.604 66.0802 147.782 66.7531 147.782 67.5941C147.782 68.4911 147.52 69.2667 146.997 69.9209C146.474 70.575 145.735 71.0889 144.782 71.4627C143.829 71.8178 142.689 71.9954 141.362 71.9954Z" fill="black"/>
<path d="M224.03 47.786V35.1708H227.03V47.786H224.03ZM219.068 42.8801V40.0767H231.992V42.8801H219.068Z" fill="#FFD700"/>
<path d="M204.167 51.4572C202.933 51.4572 201.756 51.289 200.634 50.9526C199.532 50.6161 198.663 50.205 198.027 49.7191L199.149 47.5885C199.784 48.0184 200.569 48.3828 201.504 48.6818C202.438 48.9808 203.391 49.1304 204.363 49.1304C205.615 49.1304 206.512 48.9528 207.054 48.5977C207.615 48.2426 207.895 47.7474 207.895 47.1119C207.895 46.6447 207.727 46.2803 207.391 46.0186C207.054 45.757 206.606 45.5607 206.045 45.4299C205.503 45.2991 204.896 45.1869 204.223 45.0935C203.55 44.9814 202.877 44.8505 202.204 44.701C201.532 44.5328 200.915 44.3085 200.354 44.0282C199.793 43.7292 199.345 43.3274 199.009 42.8228C198.672 42.2995 198.504 41.608 198.504 40.7483C198.504 39.8512 198.756 39.0662 199.261 38.3934C199.765 37.7206 200.476 37.2067 201.391 36.8516C202.326 36.4778 203.429 36.2909 204.699 36.2909C205.671 36.2909 206.652 36.4124 207.643 36.6553C208.652 36.8796 209.474 37.2067 210.11 37.6365L208.961 39.7671C208.288 39.3185 207.587 39.0102 206.858 38.842C206.129 38.6738 205.4 38.5897 204.671 38.5897C203.494 38.5897 202.616 38.7859 202.036 39.1784C201.457 39.5522 201.167 40.0381 201.167 40.6361C201.167 41.1407 201.335 41.5332 201.672 41.8135C202.027 42.0752 202.475 42.2808 203.017 42.4303C203.578 42.5798 204.195 42.7106 204.868 42.8228C205.54 42.9162 206.213 43.047 206.886 43.2152C207.559 43.3647 208.166 43.5797 208.708 43.86C209.269 44.1403 209.717 44.5328 210.054 45.0374C210.409 45.542 210.586 46.2148 210.586 47.0559C210.586 47.9529 210.325 48.7285 209.802 49.3827C209.278 50.0368 208.54 50.5507 207.587 50.9245C206.634 51.2796 205.494 51.4572 204.167 51.4572Z" fill="black"/>
<path d="M189.275 51.289V36.4311H191.854V40.4679L191.602 39.4587C192.013 38.4308 192.705 37.6459 193.677 37.1039C194.649 36.5619 195.845 36.2909 197.265 36.2909V38.898C197.153 38.8793 197.041 38.87 196.929 38.87C196.835 38.87 196.742 38.87 196.648 38.87C195.209 38.87 194.069 39.2999 193.228 40.1596C192.387 41.0193 191.967 42.2621 191.967 43.888V51.289H189.275Z" fill="black"/>
<path d="M178.687 51.4572C177.191 51.4572 175.864 51.1301 174.706 50.476C173.547 49.8219 172.631 48.9248 171.958 47.7847C171.286 46.626 170.949 45.3178 170.949 43.86C170.949 42.3836 171.286 41.0753 171.958 39.9353C172.631 38.7952 173.547 37.9075 174.706 37.2721C175.864 36.618 177.191 36.2909 178.687 36.2909C180.163 36.2909 181.481 36.618 182.639 37.2721C183.817 37.9075 184.732 38.7952 185.387 39.9353C186.059 41.0566 186.396 42.3649 186.396 43.86C186.396 45.3365 186.059 46.6447 185.387 47.7847C184.732 48.9248 183.817 49.8219 182.639 50.476C181.481 51.1301 180.163 51.4572 178.687 51.4572ZM178.687 49.1023C179.64 49.1023 180.49 48.8874 181.238 48.4575C182.004 48.0277 182.602 47.4203 183.032 46.6354C183.462 45.8317 183.677 44.9066 183.677 43.86C183.677 42.7947 183.462 41.879 183.032 41.1127C182.602 40.3278 182.004 39.7204 181.238 39.2905C180.49 38.8607 179.64 38.6457 178.687 38.6457C177.733 38.6457 176.883 38.8607 176.135 39.2905C175.388 39.7204 174.79 40.3278 174.341 41.1127C173.893 41.879 173.668 42.7947 173.668 43.86C173.668 44.9066 173.893 45.8317 174.341 46.6354C174.79 47.4203 175.388 48.0277 176.135 48.4575C176.883 48.8874 177.733 49.1023 178.687 49.1023Z" fill="black"/>
<path d="M161.731 51.4572C160.236 51.4572 158.909 51.1301 157.751 50.476C156.592 49.8219 155.676 48.9248 155.003 47.7847C154.331 46.626 153.994 45.3178 153.994 43.86C153.994 42.3836 154.331 41.0753 155.003 39.9353C155.676 38.7952 156.592 37.9075 157.751 37.2721C158.909 36.618 160.236 36.2909 161.731 36.2909C163.208 36.2909 164.525 36.618 165.684 37.2721C166.862 37.9075 167.777 38.7952 168.432 39.9353C169.104 41.0566 169.441 42.3649 169.441 43.86C169.441 45.3365 169.104 46.6447 168.432 47.7847C167.777 48.9248 166.862 49.8219 165.684 50.476C164.525 51.1301 163.208 51.4572 161.731 51.4572ZM161.731 49.1023C162.685 49.1023 163.535 48.8874 164.283 48.4575C165.049 48.0277 165.647 47.4203 166.077 46.6354C166.507 45.8317 166.721 44.9066 166.721 43.86C166.721 42.7947 166.507 41.879 166.077 41.1127C165.647 40.3278 165.049 39.7204 164.283 39.2905C163.535 38.8607 162.685 38.6457 161.731 38.6457C160.778 38.6457 159.928 38.8607 159.18 39.2905C158.433 39.7204 157.835 40.3278 157.386 41.1127C156.938 41.879 156.713 42.7947 156.713 43.86C156.713 44.9066 156.938 45.8317 157.386 46.6354C157.835 47.4203 158.433 48.0277 159.18 48.4575C159.928 48.8874 160.778 49.1023 161.731 49.1023Z" fill="black"/>
<path d="M143.24 51.4573C141.801 51.4573 140.511 51.1396 139.371 50.5041C138.25 49.8687 137.362 48.981 136.708 47.8409C136.054 46.7009 135.727 45.374 135.727 43.8601C135.727 42.3463 136.054 41.0287 136.708 39.9074C137.362 38.7673 138.25 37.8796 139.371 37.2442C140.511 36.6087 141.801 36.291 143.24 36.291C144.492 36.291 145.622 36.5714 146.632 37.132C147.641 37.6927 148.445 38.5337 149.043 39.6551C149.659 40.7764 149.968 42.1781 149.968 43.8601C149.968 45.5422 149.669 46.9439 149.071 48.0652C148.491 49.1866 147.697 50.0369 146.688 50.6163C145.679 51.177 144.529 51.4573 143.24 51.4573ZM143.464 49.1025C144.398 49.1025 145.239 48.8875 145.987 48.4577C146.753 48.0278 147.351 47.4204 147.781 46.6355C148.23 45.8318 148.454 44.9067 148.454 43.8601C148.454 42.7949 148.23 41.8791 147.781 41.1128C147.351 40.3279 146.753 39.7205 145.987 39.2906C145.239 38.8608 144.398 38.6459 143.464 38.6459C142.511 38.6459 141.66 38.8608 140.913 39.2906C140.165 39.7205 139.567 40.3279 139.119 41.1128C138.67 41.8791 138.446 42.7949 138.446 43.8601C138.446 44.9067 138.67 45.8318 139.119 46.6355C139.567 47.4204 140.165 48.0278 140.913 48.4577C141.66 48.8875 142.511 49.1025 143.464 49.1025ZM148.538 51.2891V47.2803L148.706 43.8321L148.426 40.384V30.488H151.117V51.2891H148.538Z" fill="black"/>
<path d="M101.363 71.5649V66.6975L121.634 42.1756L123.051 44.825H101.733V38.6637H129.212V43.5311L108.942 68.0529L107.401 65.4036H129.767V71.5649H101.363Z" fill="black"/>
<path fill-rule="evenodd" clip-rule="evenodd" d="M88.1138 38.6638V71.565H95.8154V38.6638H88.1138Z" fill="black"/>
<path d="M91.9954 33.2419C90.5578 33.2419 89.3666 32.7901 88.4219 31.8864C87.5182 30.9828 87.0664 29.8943 87.0664 28.6209C87.0664 27.3065 87.5182 26.2181 88.4219 25.3555C89.3666 24.4518 90.5578 24 91.9954 24C93.433 24 94.6037 24.4313 95.5073 25.2939C96.4521 26.1154 96.9244 27.1628 96.9244 28.4361C96.9244 29.7916 96.4726 30.9417 95.569 31.8864C94.6653 32.7901 93.4741 33.2419 91.9954 33.2419Z" fill="#FFD700"/>
<path d="M64.3906 71.5642V38.663H71.7225V47.7201L70.86 45.0707C71.8458 42.8527 73.3861 41.1686 75.4809 40.0185C77.6168 38.8684 80.2662 38.2933 83.4289 38.2933V45.6252C83.1003 45.5431 82.7923 45.502 82.5047 45.502C82.2172 45.4609 81.9297 45.4404 81.6422 45.4404C78.7258 45.4404 76.4051 46.303 74.6799 48.0281C72.9548 49.7122 72.0922 52.2383 72.0922 55.6065V71.5642H64.3906Z" fill="black"/>
<path d="M42.2374 71.9963C39.4442 71.9963 36.9592 71.3801 34.7822 70.1479C32.6052 68.9156 30.8801 67.0673 29.6068 64.6028C28.3745 62.0972 27.7584 58.9344 27.7584 55.1144C27.7584 51.2533 28.395 48.0906 29.6684 45.6261C30.9828 43.1615 32.7285 41.3337 34.9054 40.1425C37.1235 38.9103 39.5675 38.2941 42.2374 38.2941C45.4823 38.2941 48.337 38.9924 50.8015 40.389C53.3071 41.7855 55.2787 43.7366 56.7163 46.2422C58.195 48.7478 58.9344 51.7052 58.9344 55.1144C58.9344 58.5236 58.195 61.481 56.7163 63.9866C55.2787 66.4922 53.3071 68.4638 50.8015 69.9014C48.337 71.298 45.4823 71.9963 42.2374 71.9963ZM24 71.565V25.8484H31.7016V46.3038L31.0855 55.0528L31.3319 63.8018V71.565H24ZM41.3748 65.4037C43.2232 65.4037 44.8662 64.993 46.3038 64.1715C47.7825 63.35 48.9531 62.1588 49.8157 60.5979C50.6783 59.0371 51.1096 57.2092 51.1096 55.1144C51.1096 52.9785 50.6783 51.1507 49.8157 49.6309C48.9531 48.07 47.7825 46.8788 46.3038 46.0573C44.8662 45.2358 43.2232 44.8251 41.3748 44.8251C39.5264 44.8251 37.8629 45.2358 36.3841 46.0573C34.9054 46.8788 33.7348 48.07 32.8722 49.6309C32.0096 51.1507 31.5784 52.9785 31.5784 55.1144C31.5784 57.2092 32.0096 59.0371 32.8722 60.5979C33.7348 62.1588 34.9054 63.35 36.3841 64.1715C37.8629 64.993 39.5264 65.4037 41.3748 65.4037Z" fill="black"/>
</svg>
