<svg width="38" height="77" viewBox="0 0 38 77" fill="none" xmlns="http://www.w3.org/2000/svg">
<path d="M27.0835 0.225583C32.728 -0.974183 37.3037 2.73119 37.3037 8.50175V60.2219C37.3037 65.9925 32.7279 71.643 27.0835 72.8428L10.2202 76.4272C4.57576 77.627 6.78371e-06 73.9216 0 68.151V16.4309C0 10.6603 4.57576 5.00976 10.2202 3.80999L27.0835 0.225583ZM29.1275 14.3512C29.1275 10.8889 26.3821 8.66565 22.9954 9.38551L14.3083 11.2321C10.9216 11.952 8.17617 15.3423 8.17617 18.8046V62.166C8.17618 65.6283 10.9216 67.8515 14.3083 67.1317L22.9954 65.2851C26.3821 64.5652 29.1275 61.1749 29.1275 57.7126V14.3512Z" fill="#1DD45A"/>
</svg>
