<svg width="5" height="10" viewBox="0 0 5 10" fill="none" xmlns="http://www.w3.org/2000/svg">
<path d="M3.38544 0.0281979C4.09099 -0.121773 4.66296 0.341399 4.66296 1.06272V7.52774C4.66296 8.24906 4.09099 8.95538 3.38544 9.10535L1.27753 9.5534C0.57197 9.70337 8.47964e-07 9.2402 0 8.51888V2.05386C0 1.33254 0.571969 0.62622 1.27753 0.476249L3.38544 0.0281979ZM3.64094 1.7939C3.64094 1.36111 3.29776 1.08321 2.87443 1.17319L1.78854 1.40401C1.3652 1.494 1.02202 1.91778 1.02202 2.35058V7.77075C1.02202 8.20354 1.3652 8.48144 1.78854 8.39146L2.87443 8.16064C3.29776 8.07065 3.64094 7.64687 3.64094 7.21407V1.7939Z" fill="#1DD45A"/>
</svg>
