<svg width="75" height="154" viewBox="0 0 75 154" fill="none" xmlns="http://www.w3.org/2000/svg">
<path d="M54.167 0.451167C65.4559 -1.94837 74.6074 5.46238 74.6074 17.0035V120.444C74.6074 131.985 65.4559 143.286 54.167 145.686L20.4404 152.854C9.15152 155.254 1.35674e-05 147.843 0 136.302V32.8617C0 21.3206 9.15151 10.0195 20.4404 7.61998L54.167 0.451167ZM58.2551 28.7025C58.2551 21.7778 52.7642 17.3313 45.9908 18.771L28.6166 22.4642C21.8432 23.9039 16.3523 30.6846 16.3523 37.6092V124.332C16.3524 131.257 21.8433 135.703 28.6166 134.263L45.9908 130.57C52.7642 129.13 58.2551 122.35 58.2551 115.425V28.7025Z" fill="#1DD45A"/>
</svg>
