<svg width="299" height="614" viewBox="0 0 299 614" fill="none" xmlns="http://www.w3.org/2000/svg">
<path d="M216.668 1.80467C261.824 -7.79346 298.43 21.8495 298.43 68.014V481.775C298.429 527.94 261.824 573.144 216.668 582.742L81.7617 611.418C36.6061 621.016 5.42697e-05 591.373 0 545.208V131.447C0 85.2825 36.606 40.0781 81.7617 30.4799L216.668 1.80467ZM233.02 114.81C233.02 87.1112 211.057 69.3252 183.963 75.0841L114.466 89.8569C87.373 95.6158 65.4094 122.738 65.4094 150.437V497.328C65.4094 525.026 87.373 542.812 114.466 537.053L183.963 522.281C211.057 516.522 233.02 489.399 233.02 461.701V114.81Z" fill="#1DD45A"/>
</svg>
