<svg width="597" height="1227" viewBox="0 0 597 1227" fill="none" xmlns="http://www.w3.org/2000/svg">
<path d="M433.336 3.60933C523.647 -15.5869 596.859 43.6991 596.859 136.028V963.551C596.859 1055.88 523.647 1146.29 433.336 1165.48L163.523 1222.84C73.2122 1242.03 0.000108539 1182.75 0 1090.42V262.894C0 170.565 73.2121 80.1561 163.523 60.9599L433.336 3.60933ZM466.041 229.62C466.041 174.222 422.113 138.65 367.927 150.168L228.933 179.714C174.746 191.232 130.819 245.476 130.819 300.874V994.655C130.819 1050.05 174.746 1085.62 228.933 1074.11L367.927 1044.56C422.113 1033.04 466.041 978.799 466.041 923.401V229.62Z" fill="#1DD45A"/>
</svg>
