<svg width="19" height="39" viewBox="0 0 19 39" fill="none" xmlns="http://www.w3.org/2000/svg">
<path d="M13.5417 0.112792C16.364 -0.487092 18.6519 1.3656 18.6519 4.25087V30.111C18.6518 32.9962 16.364 35.8215 13.5417 36.4214L5.11011 38.2136C2.28788 38.8135 3.39186e-06 36.9608 0 34.0755V8.21543C0 5.33015 2.28788 2.50488 5.11011 1.905L13.5417 0.112792ZM14.5638 7.17562C14.5638 5.44445 13.191 4.33283 11.4977 4.69276L7.15415 5.61606C5.46081 5.97599 4.08808 7.67114 4.08808 9.40231V31.083C4.08809 32.8141 5.46081 33.9258 7.15415 33.5658L11.4977 32.6425C13.191 32.2826 14.5638 30.5875 14.5638 28.8563V7.17562Z" fill="#1DD45A"/>
</svg>
