<svg width="150" height="307" viewBox="0 0 150 307" fill="none" xmlns="http://www.w3.org/2000/svg">
<path d="M108.334 0.902333C130.912 -3.89673 149.215 10.9248 149.215 34.007V240.888C149.215 263.97 130.912 286.572 108.334 291.371L40.8809 305.709C18.303 310.508 2.71348e-05 295.686 0 272.604V65.7235C0 42.6412 18.303 20.039 40.8809 15.24L108.334 0.902333ZM116.51 57.4049C116.51 43.5556 105.528 34.6626 91.9817 37.542L57.2332 44.9285C43.6865 47.8079 32.7047 61.3691 32.7047 75.2184V248.664C32.7047 262.513 43.6865 271.406 57.2332 268.527L91.9817 261.14C105.528 258.261 116.51 244.7 116.51 230.85V57.4049Z" fill="#1DD45A"/>
</svg>
