<svg width="10" height="20" viewBox="0 0 10 20" fill="none" xmlns="http://www.w3.org/2000/svg">
<path d="M6.77087 0.0563958C8.18199 -0.243546 9.32593 0.682798 9.32593 2.12544V15.0555C9.32592 16.4981 8.18199 17.9108 6.77087 18.2107L2.55505 19.1068C1.14394 19.4067 1.69593e-06 18.4804 0 17.0378V4.10772C0 2.66508 1.14394 1.25244 2.55505 0.952498L6.77087 0.0563958ZM7.28189 3.58781C7.28188 2.72223 6.59552 2.16641 5.74885 2.34638L3.57707 2.80803C2.73041 2.98799 2.04404 3.83557 2.04404 4.70115V15.5415C2.04404 16.4071 2.73041 16.9629 3.57707 16.7829L5.74885 16.3213C6.59552 16.1413 7.28189 15.2937 7.28189 14.4281V3.58781Z" fill="#1DD45A"/>
</svg>
