<svg width="1166" height="2396" viewBox="0 0 1166 2396" fill="none" xmlns="http://www.w3.org/2000/svg">
<path d="M846.359 7.04948C1022.75 -30.4432 1165.74 85.3497 1165.74 265.68V1881.93C1165.74 2062.26 1022.75 2238.84 846.359 2276.34L319.382 2388.35C142.993 2425.84 0.000211991 2310.05 0 2129.72V513.464C0 333.135 142.992 156.555 319.382 119.062L846.359 7.04948ZM910.236 448.476C910.236 340.278 824.44 270.802 718.607 293.297L447.134 351.004C341.301 373.499 255.505 479.446 255.505 587.644V1942.69C255.506 2050.88 341.301 2120.36 447.134 2097.87L718.607 2040.16C824.44 2017.66 910.236 1911.72 910.236 1803.52V448.476Z" fill="#1DD45A"/>
</svg>
