<svg width="28" height="58" viewBox="0 0 28 58" fill="none" xmlns="http://www.w3.org/2000/svg">
<path d="M20.3126 0.169187C24.546 -0.730637 27.9778 2.04839 27.9778 6.37631V45.1664C27.9778 49.4943 24.546 53.7323 20.3126 54.6321L7.66516 57.3204C3.43182 58.2202 5.08778e-06 55.4412 0 51.1133V12.3231C0 7.99523 3.43182 3.75732 7.66516 2.85749L20.3126 0.169187ZM21.8457 10.7634C21.8457 8.16668 19.7866 6.49924 17.2466 7.03913L10.7312 8.42408C8.19122 8.96398 6.13213 11.5067 6.13213 14.1035V46.6245C6.13213 49.2212 8.19122 50.8887 10.7312 50.3488L17.2466 48.9638C19.7866 48.4239 21.8457 45.8812 21.8457 43.2844V10.7634Z" fill="#1DD45A"/>
</svg>
