<svg width="12" height="16" viewBox="0 0 12 16" fill="none" xmlns="http://www.w3.org/2000/svg">
<path d="M6.59442 3.23718C7.29998 3.08721 7.87195 3.55038 7.87195 4.2717V10.7367C7.87195 11.458 7.29998 12.1644 6.59442 12.3143L4.48651 12.7624C3.78095 12.9124 3.20899 12.4492 3.20898 11.7279V5.26284C3.20898 4.54152 3.78095 3.8352 4.48651 3.68523L6.59442 3.23718ZM6.84993 5.00289C6.84993 4.5701 6.50675 4.29219 6.08341 4.38217L4.99752 4.613C4.57419 4.70298 4.23101 5.12677 4.23101 5.55956V10.9797C4.23101 11.4125 4.57419 11.6904 4.99752 11.6004L6.08341 11.3696C6.50675 11.2796 6.84993 10.8559 6.84993 10.4231V5.00289Z" fill="white"/>
</svg>
