<svg width="178" height="256" viewBox="0 0 178 256" fill="none" xmlns="http://www.w3.org/2000/svg">
<path d="M105.515 51.7988C116.804 49.3993 125.955 56.81 125.955 68.3512V171.791C125.955 183.333 116.804 194.634 105.515 197.033L71.7881 204.202C60.4992 206.602 51.3477 199.191 51.3477 187.65V84.2094C51.3477 72.6683 60.4992 61.3672 71.7881 58.9676L105.515 51.7988ZM109.603 80.0501C109.603 73.1255 104.112 68.679 97.3385 70.1187L79.9642 73.8119C73.1909 75.2516 67.7 82.0322 67.7 88.9569V175.68C67.7 182.604 73.1909 187.051 79.9642 185.611L97.3385 181.918C104.112 180.478 109.603 173.698 109.603 166.773V80.0501Z" fill="white"/>
</svg>
