<svg width="808" height="1167" viewBox="0 0 808 1167" fill="none" xmlns="http://www.w3.org/2000/svg">
<path d="M480.849 236.054C532.295 225.119 574 258.891 574 311.486V782.883C574 835.478 532.295 886.979 480.849 897.915L327.151 930.584C275.705 941.519 234 907.747 234 855.152V383.755C234 331.16 275.705 279.659 327.151 268.724L480.849 236.054ZM499.479 364.801C499.479 333.244 474.456 312.98 443.589 319.541L364.411 336.372C333.544 342.933 308.521 373.833 308.521 405.39V800.602C308.521 832.159 333.544 852.423 364.411 845.861L443.589 829.031C474.456 822.47 499.479 791.569 499.479 760.012V364.801Z" fill="white"/>
</svg>
