<svg width="2546" height="1167" viewBox="0 0 2546 1167" fill="none" xmlns="http://www.w3.org/2000/svg">
<path d="M2249.68 812.82C2237.67 812.82 2226.21 811.182 2215.29 807.906C2204.55 804.63 2196.08 800.626 2189.9 795.894L2200.82 775.146C2207 779.332 2214.65 782.881 2223.75 785.793C2232.85 788.705 2242.13 790.161 2251.59 790.161C2263.79 790.161 2272.52 788.432 2277.8 784.974C2283.26 781.516 2285.99 776.693 2285.99 770.505C2285.99 765.955 2284.35 762.406 2281.08 759.858C2277.8 757.31 2273.43 755.399 2267.97 754.125C2262.7 752.851 2256.78 751.759 2250.23 750.849C2243.68 749.757 2237.13 748.483 2230.57 747.027C2224.02 745.389 2218.02 743.205 2212.56 740.475C2207.1 737.563 2202.73 733.65 2199.45 728.736C2196.18 723.64 2194.54 716.906 2194.54 708.534C2194.54 699.798 2196.99 692.154 2201.91 685.602C2206.82 679.05 2213.74 674.045 2222.66 670.587C2231.76 666.947 2242.49 665.127 2254.87 665.127C2264.33 665.127 2273.89 666.31 2283.54 668.676C2293.36 670.86 2301.37 674.045 2307.56 678.231L2296.37 698.979C2289.81 694.611 2282.99 691.608 2275.89 689.97C2268.79 688.332 2261.7 687.513 2254.6 687.513C2243.13 687.513 2234.58 689.424 2228.94 693.246C2223.29 696.886 2220.47 701.618 2220.47 707.442C2220.47 712.356 2222.11 716.178 2225.39 718.908C2228.84 721.456 2233.21 723.458 2238.49 724.914C2243.95 726.37 2249.96 727.644 2256.51 728.736C2263.06 729.646 2269.61 730.92 2276.16 732.558C2282.72 734.014 2288.63 736.107 2293.91 738.837C2299.37 741.567 2303.74 745.389 2307.01 750.303C2310.47 755.217 2312.2 761.769 2312.2 769.959C2312.2 778.695 2309.65 786.248 2304.56 792.618C2299.46 798.988 2292.27 803.993 2282.99 807.633C2273.71 811.091 2262.61 812.82 2249.68 812.82Z" fill="white"/>
<path d="M2107.82 665.127C2119.65 665.127 2130.02 667.402 2138.94 671.952C2148.04 676.502 2155.14 683.418 2160.23 692.7C2165.33 701.982 2167.88 713.721 2167.88 727.917V811.182H2141.67V730.92C2141.67 716.906 2138.21 706.35 2131.29 699.252C2124.56 692.154 2115 688.605 2102.63 688.605C2093.35 688.605 2085.25 690.425 2078.33 694.065C2071.42 697.705 2066.05 703.074 2062.22 710.172C2058.58 717.27 2056.76 726.097 2056.76 736.653V811.182H2030.56V666.492H2055.67V705.531L2051.58 695.157C2056.31 685.693 2063.59 678.322 2073.42 673.044C2083.25 667.766 2094.71 665.127 2107.82 665.127Z" fill="white"/>
<path d="M1936.01 812.82C1920.54 812.82 1906.89 809.635 1895.06 803.265C1883.42 796.895 1874.32 788.159 1867.76 777.057C1861.39 765.955 1858.21 753.215 1858.21 738.837C1858.21 724.459 1861.3 711.719 1867.49 700.617C1873.86 689.515 1882.51 680.87 1893.43 674.682C1904.53 668.312 1916.99 665.127 1930.83 665.127C1944.84 665.127 1957.22 668.221 1967.96 674.409C1978.69 680.597 1987.06 689.333 1993.07 700.617C1999.26 711.719 2002.35 724.732 2002.35 739.656C2002.35 740.748 2002.26 742.022 2002.08 743.478C2002.08 744.934 2001.99 746.299 2001.81 747.573H1878.68V728.736H1988.16L1977.51 735.288C1977.69 726.006 1975.78 717.725 1971.78 710.445C1967.77 703.165 1962.22 697.523 1955.12 693.519C1948.21 689.333 1940.11 687.24 1930.83 687.24C1921.73 687.24 1913.63 689.333 1906.53 693.519C1899.43 697.523 1893.88 703.256 1889.88 710.718C1885.87 717.998 1883.87 726.37 1883.87 735.834V740.202C1883.87 749.848 1886.05 758.493 1890.42 766.137C1894.97 773.599 1901.25 779.423 1909.26 783.609C1917.27 787.795 1926.46 789.888 1936.83 789.888C1945.39 789.888 1953.12 788.432 1960.04 785.52C1967.14 782.608 1973.32 778.24 1978.6 772.416L1993.07 789.342C1986.52 796.986 1978.33 802.81 1968.5 806.814C1958.85 810.818 1948.03 812.82 1936.01 812.82Z" fill="white"/>
<path d="M1777.05 812.82C1761.58 812.82 1747.93 809.635 1736.1 803.265C1724.45 796.895 1715.35 788.159 1708.8 777.057C1702.43 765.955 1699.24 753.215 1699.24 738.837C1699.24 724.459 1702.33 711.719 1708.52 700.617C1714.89 689.515 1723.54 680.87 1734.46 674.682C1745.56 668.312 1758.03 665.127 1771.86 665.127C1785.87 665.127 1798.25 668.221 1808.99 674.409C1819.72 680.597 1828.1 689.333 1834.1 700.617C1840.29 711.719 1843.38 724.732 1843.38 739.656C1843.38 740.748 1843.29 742.022 1843.11 743.478C1843.11 744.934 1843.02 746.299 1842.84 747.573H1719.72V728.736H1829.19L1818.54 735.288C1818.72 726.006 1816.81 717.725 1812.81 710.445C1808.8 703.165 1803.25 697.523 1796.16 693.519C1789.24 689.333 1781.14 687.24 1771.86 687.24C1762.76 687.24 1754.66 689.333 1747.56 693.519C1740.46 697.523 1734.91 703.256 1730.91 710.718C1726.9 717.998 1724.9 726.37 1724.9 735.834V740.202C1724.9 749.848 1727.09 758.493 1731.45 766.137C1736 773.599 1742.28 779.423 1750.29 783.609C1758.3 787.795 1767.49 789.888 1777.86 789.888C1786.42 789.888 1794.15 788.432 1801.07 785.52C1808.17 782.608 1814.36 778.24 1819.63 772.416L1834.1 789.342C1827.55 796.986 1819.36 802.81 1809.53 806.814C1799.89 810.818 1789.06 812.82 1777.05 812.82Z" fill="white"/>
<path d="M1612.03 811.182V666.492H1637.15V705.804L1634.69 695.976C1638.7 685.966 1645.43 678.322 1654.89 673.044C1664.36 667.766 1676.01 665.127 1689.84 665.127V690.516C1688.75 690.334 1687.65 690.243 1686.56 690.243C1685.65 690.243 1684.74 690.243 1683.83 690.243C1669.82 690.243 1658.72 694.429 1650.53 702.801C1642.34 711.173 1638.24 723.276 1638.24 739.11V811.182H1612.03Z" fill="white"/>
<path d="M1527.32 812.82C1512.58 812.82 1499.39 809.635 1487.74 803.265C1476.27 796.895 1467.26 788.159 1460.71 777.057C1454.16 765.955 1450.88 753.215 1450.88 738.837C1450.88 724.459 1454.16 711.719 1460.71 700.617C1467.26 689.515 1476.27 680.87 1487.74 674.682C1499.39 668.312 1512.58 665.127 1527.32 665.127C1540.43 665.127 1552.08 667.766 1562.27 673.044C1572.64 678.14 1580.65 685.784 1586.29 695.976L1566.36 708.807C1561.63 701.709 1555.81 696.522 1548.89 693.246C1542.16 689.788 1534.88 688.059 1527.05 688.059C1517.59 688.059 1509.12 690.152 1501.66 694.338C1494.2 698.524 1488.29 704.439 1483.92 712.083C1479.55 719.545 1477.37 728.463 1477.37 738.837C1477.37 749.211 1479.55 758.22 1483.92 765.864C1488.29 773.508 1494.2 779.423 1501.66 783.609C1509.12 787.795 1517.59 789.888 1527.05 789.888C1534.88 789.888 1542.16 788.25 1548.89 784.974C1555.81 781.516 1561.63 776.238 1566.36 769.14L1586.29 781.698C1580.65 791.708 1572.64 799.443 1562.27 804.903C1552.08 810.181 1540.43 812.82 1527.32 812.82Z" fill="white"/>
<path d="M1377.18 812.82C1365.17 812.82 1353.7 811.182 1342.78 807.906C1332.05 804.63 1323.58 800.626 1317.39 795.894L1328.31 775.146C1334.5 779.332 1342.15 782.881 1351.25 785.793C1360.35 788.705 1369.63 790.161 1379.09 790.161C1391.29 790.161 1400.02 788.432 1405.3 784.974C1410.76 781.516 1413.49 776.693 1413.49 770.505C1413.49 765.955 1411.85 762.406 1408.58 759.858C1405.3 757.31 1400.93 755.399 1395.47 754.125C1390.19 752.851 1384.28 751.759 1377.73 750.849C1371.18 749.757 1364.62 748.483 1358.07 747.027C1351.52 745.389 1345.51 743.205 1340.05 740.475C1334.59 737.563 1330.23 733.65 1326.95 728.736C1323.67 723.64 1322.04 716.906 1322.04 708.534C1322.04 699.798 1324.49 692.154 1329.41 685.602C1334.32 679.05 1341.24 674.045 1350.15 670.587C1359.25 666.947 1369.99 665.127 1382.37 665.127C1391.83 665.127 1401.39 666.31 1411.03 668.676C1420.86 670.86 1428.87 674.045 1435.06 678.231L1423.86 698.979C1417.31 694.611 1410.49 691.608 1403.39 689.97C1396.29 688.332 1389.19 687.513 1382.1 687.513C1370.63 687.513 1362.08 689.424 1356.43 693.246C1350.79 696.886 1347.97 701.618 1347.97 707.442C1347.97 712.356 1349.61 716.178 1352.88 718.908C1356.34 721.456 1360.71 723.458 1365.99 724.914C1371.45 726.37 1377.45 727.644 1384.01 728.736C1390.56 729.646 1397.11 730.92 1403.66 732.558C1410.21 734.014 1416.13 736.107 1421.41 738.837C1426.87 741.567 1431.24 745.389 1434.51 750.303C1437.97 755.217 1439.7 761.769 1439.7 769.959C1439.7 778.695 1437.15 786.248 1432.05 792.618C1426.96 798.988 1419.77 803.993 1410.49 807.633C1401.21 811.091 1390.1 812.82 1377.18 812.82Z" fill="white"/>
<path d="M2182.23 577.057V454.207H2211.44V577.057H2182.23ZM2133.91 529.282V501.982H2259.76V529.282H2133.91Z" fill="#FFD700"/>
<path d="M1988.8 612.82C1976.78 612.82 1965.32 611.182 1954.4 607.906C1943.66 604.63 1935.2 600.626 1929.01 595.894L1939.93 575.146C1946.12 579.332 1953.76 582.881 1962.86 585.793C1971.96 588.705 1981.24 590.161 1990.71 590.161C2002.9 590.161 2011.64 588.432 2016.92 584.974C2022.38 581.516 2025.11 576.693 2025.11 570.505C2025.11 565.955 2023.47 562.406 2020.19 559.858C2016.92 557.31 2012.55 555.399 2007.09 554.125C2001.81 552.851 1995.89 551.759 1989.34 550.849C1982.79 549.757 1976.24 548.483 1969.69 547.027C1963.13 545.389 1957.13 543.205 1951.67 540.475C1946.21 537.563 1941.84 533.65 1938.56 528.736C1935.29 523.64 1933.65 516.906 1933.65 508.534C1933.65 499.798 1936.11 492.154 1941.02 485.602C1945.94 479.05 1952.85 474.045 1961.77 470.587C1970.87 466.947 1981.61 465.127 1993.98 465.127C2003.45 465.127 2013 466.31 2022.65 468.676C2032.48 470.86 2040.48 474.045 2046.67 478.231L2035.48 498.979C2028.93 494.611 2022.1 491.608 2015 489.97C2007.91 488.332 2000.81 487.513 1993.71 487.513C1982.24 487.513 1973.69 489.424 1968.05 493.246C1962.41 496.886 1959.59 501.618 1959.59 507.442C1959.59 512.356 1961.22 516.178 1964.5 518.908C1967.96 521.456 1972.33 523.458 1977.6 524.914C1983.06 526.37 1989.07 527.644 1995.62 528.736C2002.17 529.646 2008.73 530.92 2015.28 532.558C2021.83 534.014 2027.74 536.107 2033.02 538.837C2038.48 541.567 2042.85 545.389 2046.13 550.303C2049.58 555.217 2051.31 561.769 2051.31 569.959C2051.31 578.695 2048.77 586.248 2043.67 592.618C2038.57 598.988 2031.38 603.993 2022.1 607.633C2012.82 611.091 2001.72 612.82 1988.8 612.82Z" fill="white"/>
<path d="M1843.79 611.182V466.492H1868.9V505.804L1866.44 495.976C1870.45 485.966 1877.18 478.322 1886.65 473.044C1896.11 467.766 1907.76 465.127 1921.59 465.127V490.516C1920.5 490.334 1919.41 490.243 1918.31 490.243C1917.4 490.243 1916.49 490.243 1915.58 490.243C1901.57 490.243 1890.47 494.429 1882.28 502.801C1874.09 511.173 1869.99 523.276 1869.99 539.11V611.182H1843.79Z" fill="white"/>
<path d="M1740.65 612.82C1726.09 612.82 1713.17 609.635 1701.89 603.265C1690.6 596.895 1681.69 588.159 1675.13 577.057C1668.58 565.773 1665.31 553.033 1665.31 538.837C1665.31 524.459 1668.58 511.719 1675.13 500.617C1681.69 489.515 1690.6 480.87 1701.89 474.682C1713.17 468.312 1726.09 465.127 1740.65 465.127C1755.03 465.127 1767.86 468.312 1779.15 474.682C1790.61 480.87 1799.53 489.515 1805.9 500.617C1812.45 511.537 1815.73 524.277 1815.73 538.837C1815.73 553.215 1812.45 565.955 1805.9 577.057C1799.53 588.159 1790.61 596.895 1779.15 603.265C1767.86 609.635 1755.03 612.82 1740.65 612.82ZM1740.65 589.888C1749.94 589.888 1758.22 587.795 1765.5 583.609C1772.96 579.423 1778.78 573.508 1782.97 565.864C1787.16 558.038 1789.25 549.029 1789.25 538.837C1789.25 528.463 1787.16 519.545 1782.97 512.083C1778.78 504.439 1772.96 498.524 1765.5 494.338C1758.22 490.152 1749.94 488.059 1740.65 488.059C1731.37 488.059 1723.09 490.152 1715.81 494.338C1708.53 498.524 1702.71 504.439 1698.34 512.083C1693.97 519.545 1691.79 528.463 1691.79 538.837C1691.79 549.029 1693.97 558.038 1698.34 565.864C1702.71 573.508 1708.53 579.423 1715.81 583.609C1723.09 587.795 1731.37 589.888 1740.65 589.888Z" fill="white"/>
<path d="M1575.56 612.82C1561 612.82 1548.07 609.635 1536.79 603.265C1525.51 596.895 1516.59 588.159 1510.04 577.057C1503.48 565.773 1500.21 553.033 1500.21 538.837C1500.21 524.459 1503.48 511.719 1510.04 500.617C1516.59 489.515 1525.51 480.87 1536.79 474.682C1548.07 468.312 1561 465.127 1575.56 465.127C1589.93 465.127 1602.76 468.312 1614.05 474.682C1625.51 480.87 1634.43 489.515 1640.8 500.617C1647.35 511.537 1650.63 524.277 1650.63 538.837C1650.63 553.215 1647.35 565.955 1640.8 577.057C1634.43 588.159 1625.51 596.895 1614.05 603.265C1602.76 609.635 1589.93 612.82 1575.56 612.82ZM1575.56 589.888C1584.84 589.888 1593.12 587.795 1600.4 583.609C1607.86 579.423 1613.68 573.508 1617.87 565.864C1622.06 558.038 1624.15 549.029 1624.15 538.837C1624.15 528.463 1622.06 519.545 1617.87 512.083C1613.68 504.439 1607.86 498.524 1600.4 494.338C1593.12 490.152 1584.84 488.059 1575.56 488.059C1566.27 488.059 1557.99 490.152 1550.71 494.338C1543.43 498.524 1537.61 504.439 1533.24 512.083C1528.87 519.545 1526.69 528.463 1526.69 538.837C1526.69 549.029 1528.87 558.038 1533.24 565.864C1537.61 573.508 1543.43 579.423 1550.71 583.609C1557.99 587.795 1566.27 589.888 1575.56 589.888Z" fill="white"/>
<path d="M1395.47 612.82C1381.46 612.82 1368.9 609.726 1357.8 603.538C1346.88 597.35 1338.23 588.705 1331.86 577.603C1325.49 566.501 1322.31 553.579 1322.31 538.837C1322.31 524.095 1325.49 511.264 1331.86 500.344C1338.23 489.242 1346.88 480.597 1357.8 474.409C1368.9 468.221 1381.46 465.127 1395.47 465.127C1407.67 465.127 1418.68 467.857 1428.51 473.317C1438.33 478.777 1446.16 486.967 1451.98 497.887C1457.99 508.807 1460.99 522.457 1460.99 538.837C1460.99 555.217 1458.08 568.867 1452.26 579.787C1446.61 590.707 1438.88 598.988 1429.05 604.63C1419.22 610.09 1408.03 612.82 1395.47 612.82ZM1397.66 589.888C1406.76 589.888 1414.95 587.795 1422.23 583.609C1429.69 579.423 1435.51 573.508 1439.7 565.864C1444.07 558.038 1446.25 549.029 1446.25 538.837C1446.25 528.463 1444.07 519.545 1439.7 512.083C1435.51 504.439 1429.69 498.524 1422.23 494.338C1414.95 490.152 1406.76 488.059 1397.66 488.059C1388.37 488.059 1380.09 490.152 1372.81 494.338C1365.53 498.524 1359.71 504.439 1355.34 512.083C1350.97 519.545 1348.79 528.463 1348.79 538.837C1348.79 549.029 1350.97 558.038 1355.34 565.864C1359.71 573.508 1365.53 579.423 1372.81 583.609C1380.09 587.795 1388.37 589.888 1397.66 589.888ZM1447.07 611.182V572.143L1448.71 538.564L1445.98 504.985V408.616H1472.19V611.182H1447.07Z" fill="white"/>
<path d="M987.186 812.82V765.42L1184.59 526.62L1198.39 552.42H990.786V492.42H1258.39V539.82L1060.99 778.62L1045.99 752.82H1263.79V812.82H987.186Z" fill="white"/>
<path fill-rule="evenodd" clip-rule="evenodd" d="M858.149 492.42V812.82H933.149V492.42H858.149Z" fill="white"/>
<path d="M895.949 439.62C881.949 439.62 870.349 435.22 861.149 426.42C852.349 417.62 847.949 407.02 847.949 394.62C847.949 381.82 852.349 371.22 861.149 362.82C870.349 354.02 881.949 349.62 895.949 349.62C909.949 349.62 921.349 353.82 930.149 362.22C939.349 370.22 943.949 380.42 943.949 392.82C943.949 406.02 939.549 417.22 930.749 426.42C921.949 435.22 910.349 439.62 895.949 439.62Z" fill="#FFD700"/>
<path d="M627.125 812.82V492.42H698.525V580.62L690.125 554.82C699.725 533.22 714.725 516.82 735.125 505.62C755.925 494.42 781.725 488.82 812.525 488.82V560.22C809.325 559.42 806.325 559.02 803.525 559.02C800.725 558.62 797.925 558.42 795.125 558.42C766.725 558.42 744.125 566.82 727.325 583.62C710.525 600.02 702.125 624.62 702.125 657.42V812.82H627.125Z" fill="white"/>
<path d="M411.397 817.02C384.197 817.02 359.997 811.02 338.797 799.02C317.597 787.02 300.797 769.02 288.397 745.02C276.397 720.62 270.397 689.82 270.397 652.62C270.397 615.02 276.597 584.22 288.997 560.22C301.797 536.22 318.797 518.42 339.997 506.82C361.597 494.82 385.397 488.82 411.397 488.82C442.997 488.82 470.797 495.62 494.797 509.22C519.197 522.82 538.397 541.82 552.397 566.22C566.797 590.62 573.997 619.42 573.997 652.62C573.997 685.82 566.797 714.62 552.397 739.02C538.397 763.42 519.197 782.62 494.797 796.62C470.797 810.22 442.997 817.02 411.397 817.02ZM233.797 812.82V367.62H308.797V566.82L302.797 652.02L305.197 737.22V812.82H233.797ZM402.997 752.82C420.997 752.82 436.997 748.82 450.997 740.82C465.397 732.82 476.797 721.22 485.197 706.02C493.597 690.82 497.797 673.02 497.797 652.62C497.797 631.82 493.597 614.02 485.197 599.22C476.797 584.02 465.397 572.42 450.997 564.42C436.997 556.42 420.997 552.42 402.997 552.42C384.997 552.42 368.797 556.42 354.397 564.42C339.997 572.42 328.597 584.02 320.197 599.22C311.797 614.02 307.597 631.82 307.597 652.62C307.597 673.02 311.797 690.82 320.197 706.02C328.597 721.22 339.997 732.82 354.397 740.82C368.797 748.82 384.997 752.82 402.997 752.82Z" fill="white"/>
</svg>
