<svg width="807" height="154" viewBox="0 0 807 154" fill="none" xmlns="http://www.w3.org/2000/svg">
<path d="M404.339 63.252L416.918 35.476H420.846L433.464 63.252H429.298L418.069 37.698H419.656L408.426 63.252H404.339ZM409.696 56.308L410.767 53.1336H426.401L427.552 56.308H409.696ZM437.608 63.252V35.476H448.44C452.038 35.476 454.869 36.3357 456.932 38.0552C458.995 39.7482 460.027 42.1157 460.027 45.1579C460.027 47.1683 459.564 48.901 458.638 50.356C457.712 51.7844 456.39 52.8822 454.67 53.6494C452.951 54.4165 450.874 54.8001 448.44 54.8001H439.79L441.576 52.9748V63.252H437.608ZM456.178 63.252L449.115 53.1732H453.361L460.503 63.252H456.178ZM441.576 53.3716L439.79 51.4273H448.321C450.861 51.4273 452.779 50.885 454.075 49.8004C455.398 48.6894 456.059 47.1419 456.059 45.1579C456.059 43.1739 455.398 41.6396 454.075 40.555C452.779 39.4704 450.861 38.9281 448.321 38.9281H439.79L441.576 36.9441V53.3716ZM478.858 63.5694C476.741 63.5694 474.784 63.2255 472.985 62.5377C471.213 61.8235 469.665 60.8315 468.342 59.5617C467.046 58.2655 466.028 56.7577 465.287 55.0382C464.546 53.3187 464.176 51.4273 464.176 49.364C464.176 47.3006 464.546 45.4092 465.287 43.6897C466.028 41.9702 467.059 40.4756 468.382 39.2059C469.705 37.9097 471.252 36.9177 473.025 36.2299C474.824 35.5156 476.781 35.1585 478.897 35.1585C481.04 35.1585 483.011 35.5289 484.81 36.2696C486.635 36.9838 488.182 38.0552 489.452 39.4836L486.873 41.9835C485.815 40.8724 484.624 40.0524 483.302 39.5233C481.979 38.9678 480.564 38.69 479.056 38.69C477.495 38.69 476.04 38.9546 474.691 39.4836C473.369 40.0127 472.218 40.7534 471.239 41.7057C470.26 42.658 469.493 43.7955 468.938 45.1182C468.409 46.4144 468.144 47.8297 468.144 49.364C468.144 50.8982 468.409 52.3267 468.938 53.6494C469.493 54.9456 470.26 56.0699 471.239 57.0222C472.218 57.9745 473.369 58.7152 474.691 59.2443C476.04 59.7733 477.495 60.0379 479.056 60.0379C480.564 60.0379 481.979 59.7733 483.302 59.2443C484.624 58.6888 485.815 57.8422 486.873 56.7048L489.452 59.2046C488.182 60.6331 486.635 61.7177 484.81 62.4584C483.011 63.199 481.027 63.5694 478.858 63.5694ZM514.645 63.252V35.476H518.613V63.252H514.645ZM494.725 63.252V35.476H498.693V63.252H494.725ZM498.297 50.8718V47.4196H515.002V50.8718H498.297ZM526.927 63.252V35.476H530.895V63.252H526.927ZM544.726 63.252V38.9281H535.203V35.476H558.177V38.9281H548.654V63.252H544.726ZM562.499 63.252V35.476H582.101V38.9281H566.467V59.7998H582.656V63.252H562.499ZM566.11 50.8321V47.4593H580.395V50.8321H566.11ZM601.463 63.5694C599.346 63.5694 597.389 63.2255 595.59 62.5377C593.818 61.8235 592.27 60.8315 590.947 59.5617C589.651 58.2655 588.633 56.7577 587.892 55.0382C587.151 53.3187 586.781 51.4273 586.781 49.364C586.781 47.3006 587.151 45.4092 587.892 43.6897C588.633 41.9702 589.664 40.4756 590.987 39.2059C592.31 37.9097 593.857 36.9177 595.63 36.2299C597.429 35.5156 599.386 35.1585 601.502 35.1585C603.645 35.1585 605.616 35.5289 607.415 36.2696C609.24 36.9838 610.787 38.0552 612.057 39.4836L609.478 41.9835C608.42 40.8724 607.229 40.0524 605.907 39.5233C604.584 38.9678 603.169 38.69 601.661 38.69C600.1 38.69 598.645 38.9546 597.296 39.4836C595.974 40.0127 594.823 40.7534 593.844 41.7057C592.865 42.658 592.098 43.7955 591.543 45.1182C591.014 46.4144 590.749 47.8297 590.749 49.364C590.749 50.8982 591.014 52.3267 591.543 53.6494C592.098 54.9456 592.865 56.0699 593.844 57.0222C594.823 57.9745 595.974 58.7152 597.296 59.2443C598.645 59.7733 600.1 60.0379 601.661 60.0379C603.169 60.0379 604.584 59.7733 605.907 59.2443C607.229 58.6888 608.42 57.8422 609.478 56.7048L612.057 59.2046C610.787 60.6331 609.24 61.7177 607.415 62.4584C605.616 63.199 603.632 63.5694 601.463 63.5694ZM622.187 63.252V38.9281H612.664V35.476H635.639V38.9281H626.115V63.252H622.187ZM650.964 63.5694C647.313 63.5694 644.443 62.5245 642.353 60.4347C640.263 58.3449 639.218 55.2895 639.218 51.2686V35.476H643.186V51.1099C643.186 54.2049 643.861 56.4667 645.21 57.8952C646.586 59.3236 648.517 60.0379 651.003 60.0379C653.517 60.0379 655.448 59.3236 656.797 57.8952C658.172 56.4667 658.86 54.2049 658.86 51.1099V35.476H662.709V51.2686C662.709 55.2895 661.664 58.3449 659.574 60.4347C657.511 62.5245 654.641 63.5694 650.964 63.5694ZM670.844 63.252V35.476H681.677C685.274 35.476 688.105 36.3357 690.168 38.0552C692.232 39.7482 693.263 42.1157 693.263 45.1579C693.263 47.1683 692.8 48.901 691.874 50.356C690.949 51.7844 689.626 52.8822 687.906 53.6494C686.187 54.4165 684.11 54.8001 681.677 54.8001H673.026L674.812 52.9748V63.252H670.844ZM689.414 63.252L682.351 53.1732H686.597L693.739 63.252H689.414ZM674.812 53.3716L673.026 51.4273H681.558C684.097 51.4273 686.015 50.885 687.311 49.8004C688.634 48.6894 689.295 47.1419 689.295 45.1579C689.295 43.1739 688.634 41.6396 687.311 40.555C686.015 39.4704 684.097 38.9281 681.558 38.9281H673.026L674.812 36.9441V53.3716ZM695.468 63.252L708.047 35.476H711.975L724.593 63.252H720.427L709.197 37.698H710.784L699.555 63.252H695.468ZM700.825 56.308L701.896 53.1336H717.53L718.681 56.308H700.825ZM728.737 63.252V35.476H732.705V59.7998H747.743V63.252H728.737ZM408.545 118.252V90.476H421.005C424.206 90.476 426.666 91.1241 428.385 92.4203C430.105 93.69 430.965 95.436 430.965 97.658C430.965 99.1659 430.621 100.436 429.933 101.467C429.271 102.499 428.372 103.293 427.235 103.848C426.097 104.404 424.867 104.681 423.544 104.681L424.259 103.491C425.846 103.491 427.248 103.769 428.465 104.324C429.682 104.88 430.647 105.7 431.361 106.784C432.076 107.843 432.433 109.165 432.433 110.752C432.433 113.133 431.533 114.985 429.734 116.308C427.962 117.604 425.317 118.252 421.798 118.252H408.545ZM412.513 115.038H421.64C423.835 115.038 425.515 114.668 426.679 113.927C427.843 113.186 428.425 112.022 428.425 110.435C428.425 108.821 427.843 107.644 426.679 106.903C425.515 106.163 423.835 105.792 421.64 105.792H412.156V102.578H420.648C422.658 102.578 424.219 102.208 425.33 101.467C426.441 100.727 426.997 99.6156 426.997 98.1342C426.997 96.6528 426.441 95.5418 425.33 94.8011C424.219 94.0604 422.658 93.69 420.648 93.69H412.513V115.038ZM450.084 118.569C446.433 118.569 443.563 117.524 441.473 115.435C439.383 113.345 438.338 110.289 438.338 106.269V90.476H442.306V106.11C442.306 109.205 442.981 111.467 444.33 112.895C445.706 114.324 447.637 115.038 450.123 115.038C452.637 115.038 454.568 114.324 455.917 112.895C457.292 111.467 457.98 109.205 457.98 106.11V90.476H461.829V106.269C461.829 110.289 460.784 113.345 458.694 115.435C456.631 117.524 453.761 118.569 450.084 118.569ZM469.964 118.252V90.476H473.932V118.252H469.964ZM482.248 118.252V90.476H486.216V114.8H501.255V118.252H482.248ZM505.808 118.252V90.476H517.513C520.476 90.476 523.082 91.0579 525.33 92.2219C527.605 93.3858 529.364 95.0127 530.608 97.1025C531.878 99.1923 532.512 101.613 532.512 104.364C532.512 107.115 531.878 109.536 530.608 111.625C529.364 113.715 527.605 115.342 525.33 116.506C523.082 117.67 520.476 118.252 517.513 118.252H505.808ZM509.776 114.8H517.275C519.577 114.8 521.561 114.363 523.227 113.49C524.92 112.617 526.23 111.401 527.156 109.84C528.082 108.253 528.544 106.427 528.544 104.364C528.544 102.274 528.082 100.449 527.156 98.8881C526.23 97.3274 524.92 96.1105 523.227 95.2376C521.561 94.3646 519.577 93.9281 517.275 93.9281H509.776V114.8ZM538.59 118.252V90.476H542.558V118.252H538.59ZM550.874 118.252V90.476H554.128L572.5 113.292H570.793V90.476H574.761V118.252H571.508L553.136 95.436H554.842V118.252H550.874ZM595.614 118.569C593.471 118.569 591.501 118.225 589.702 117.538C587.903 116.823 586.342 115.831 585.02 114.562C583.697 113.265 582.665 111.758 581.925 110.038C581.184 108.319 580.814 106.427 580.814 104.364C580.814 102.301 581.184 100.409 581.925 98.6897C582.665 96.9702 583.697 95.4756 585.02 94.2059C586.369 92.9097 587.943 91.9177 589.742 91.2299C591.54 90.5156 593.524 90.1585 595.694 90.1585C597.889 90.1585 599.9 90.5156 601.725 91.2299C603.55 91.9441 605.098 93.0155 606.367 94.444L603.907 96.9041C602.77 95.7931 601.527 94.9862 600.177 94.4836C598.855 93.9546 597.413 93.69 595.852 93.69C594.265 93.69 592.784 93.9546 591.408 94.4836C590.059 95.0127 588.882 95.7534 587.877 96.7057C586.898 97.658 586.131 98.7955 585.575 100.118C585.046 101.414 584.782 102.83 584.782 104.364C584.782 105.872 585.046 107.287 585.575 108.61C586.131 109.906 586.898 111.043 587.877 112.022C588.882 112.975 590.059 113.715 591.408 114.244C592.757 114.773 594.225 115.038 595.813 115.038C597.294 115.038 598.709 114.813 600.058 114.363C601.434 113.887 602.704 113.107 603.868 112.022L606.129 115.038C604.754 116.202 603.14 117.088 601.288 117.696C599.463 118.278 597.572 118.569 595.614 118.569ZM606.129 115.038L602.32 114.522V104.205H606.129V115.038ZM632.478 118.569C630.361 118.569 628.338 118.252 626.406 117.617C624.475 116.956 622.954 116.109 621.843 115.078L623.311 111.983C624.37 112.908 625.719 113.676 627.359 114.284C628.999 114.892 630.705 115.197 632.478 115.197C634.091 115.197 635.401 115.011 636.406 114.641C637.411 114.271 638.152 113.768 638.628 113.133C639.104 112.472 639.342 111.731 639.342 110.911C639.342 109.959 639.025 109.192 638.39 108.61C637.781 108.028 636.975 107.565 635.969 107.221C634.991 106.851 633.906 106.533 632.716 106.269C631.525 106.004 630.322 105.7 629.105 105.356C627.914 104.986 626.817 104.523 625.811 103.967C624.833 103.412 624.039 102.671 623.43 101.745C622.822 100.793 622.518 99.5759 622.518 98.0945C622.518 96.666 622.888 95.3566 623.629 94.1662C624.396 92.9493 625.56 91.9838 627.121 91.2696C628.708 90.5289 630.718 90.1585 633.152 90.1585C634.766 90.1585 636.366 90.3701 637.953 90.7934C639.541 91.2166 640.916 91.8251 642.08 92.6187L640.771 95.7931C639.58 94.9995 638.324 94.4307 637.001 94.0868C635.678 93.7165 634.395 93.5313 633.152 93.5313C631.591 93.5313 630.308 93.7297 629.303 94.1265C628.298 94.5233 627.557 95.0524 627.081 95.7137C626.631 96.375 626.406 97.1157 626.406 97.9358C626.406 98.9146 626.711 99.6949 627.319 100.277C627.954 100.859 628.761 101.322 629.74 101.666C630.745 102.01 631.843 102.327 633.033 102.618C634.223 102.883 635.414 103.187 636.604 103.531C637.821 103.875 638.919 104.324 639.898 104.88C640.903 105.435 641.71 106.176 642.318 107.102C642.927 108.028 643.231 109.218 643.231 110.673C643.231 112.075 642.847 113.385 642.08 114.601C641.313 115.792 640.123 116.757 638.509 117.498C636.922 118.212 634.911 118.569 632.478 118.569ZM655.152 118.252V107.618L656.065 110.078L644.121 90.476H648.367L658.406 107.023H656.105L666.184 90.476H670.112L658.208 110.078L659.081 107.618V118.252H655.152ZM681.651 118.569C679.535 118.569 677.511 118.252 675.58 117.617C673.649 116.956 672.128 116.109 671.017 115.078L672.485 111.983C673.543 112.908 674.892 113.676 676.533 114.284C678.173 114.892 679.879 115.197 681.651 115.197C683.265 115.197 684.574 115.011 685.58 114.641C686.585 114.271 687.326 113.768 687.802 113.133C688.278 112.472 688.516 111.731 688.516 110.911C688.516 109.959 688.198 109.192 687.564 108.61C686.955 108.028 686.148 107.565 685.143 107.221C684.164 106.851 683.08 106.533 681.889 106.269C680.699 106.004 679.495 105.7 678.278 105.356C677.088 104.986 675.99 104.523 674.985 103.967C674.006 103.412 673.213 102.671 672.604 101.745C671.996 100.793 671.692 99.5759 671.692 98.0945C671.692 96.666 672.062 95.3566 672.803 94.1662C673.57 92.9493 674.734 91.9838 676.294 91.2696C677.882 90.5289 679.892 90.1585 682.326 90.1585C683.94 90.1585 685.54 90.3701 687.127 90.7934C688.714 91.2166 690.09 91.8251 691.254 92.6187L689.944 95.7931C688.754 94.9995 687.497 94.4307 686.175 94.0868C684.852 93.7165 683.569 93.5313 682.326 93.5313C680.765 93.5313 679.482 93.7297 678.477 94.1265C677.472 94.5233 676.731 95.0524 676.255 95.7137C675.805 96.375 675.58 97.1157 675.58 97.9358C675.58 98.9146 675.884 99.6949 676.493 100.277C677.128 100.859 677.935 101.322 678.913 101.666C679.919 102.01 681.016 102.327 682.207 102.618C683.397 102.883 684.588 103.187 685.778 103.531C686.995 103.875 688.093 104.324 689.071 104.88C690.077 105.435 690.884 106.176 691.492 107.102C692.1 108.028 692.405 109.218 692.405 110.673C692.405 112.075 692.021 113.385 691.254 114.601C690.487 115.792 689.296 116.757 687.683 117.498C686.095 118.212 684.085 118.569 681.651 118.569ZM703.33 118.252V93.9281H693.806V90.476H716.781V93.9281H707.258V118.252H703.33ZM721.103 118.252V90.476H740.705V93.9281H725.071V114.8H741.26V118.252H721.103ZM724.714 105.832V102.459H738.998V105.832H724.714ZM747.685 118.252V90.476H750.939L763.399 111.467H761.653L773.953 90.476H777.207L777.247 118.252H773.438L773.398 96.4676H774.311L763.359 114.879H761.534L750.503 96.4676H751.495V118.252H747.685ZM793.678 118.569C791.561 118.569 789.538 118.252 787.606 117.617C785.675 116.956 784.154 116.109 783.043 115.078L784.511 111.983C785.57 112.908 786.919 113.676 788.559 114.284C790.199 114.892 791.905 115.197 793.678 115.197C795.291 115.197 796.601 115.011 797.606 114.641C798.611 114.271 799.352 113.768 799.828 113.133C800.304 112.472 800.542 111.731 800.542 110.911C800.542 109.959 800.225 109.192 799.59 108.61C798.981 108.028 798.175 107.565 797.169 107.221C796.191 106.851 795.106 106.533 793.916 106.269C792.725 106.004 791.522 105.7 790.305 105.356C789.114 104.986 788.017 104.523 787.011 103.967C786.033 103.412 785.239 102.671 784.63 101.745C784.022 100.793 783.718 99.5759 783.718 98.0945C783.718 96.666 784.088 95.3566 784.829 94.1662C785.596 92.9493 786.76 91.9838 788.321 91.2696C789.908 90.5289 791.918 90.1585 794.352 90.1585C795.966 90.1585 797.566 90.3701 799.153 90.7934C800.741 91.2166 802.116 91.8251 803.28 92.6187L801.971 95.7931C800.78 94.9995 799.524 94.4307 798.201 94.0868C796.878 93.7165 795.595 93.5313 794.352 93.5313C792.791 93.5313 791.508 93.7297 790.503 94.1265C789.498 94.5233 788.757 95.0524 788.281 95.7137C787.831 96.375 787.606 97.1157 787.606 97.9358C787.606 98.9146 787.911 99.6949 788.519 100.277C789.154 100.859 789.961 101.322 790.94 101.666C791.945 102.01 793.043 102.327 794.233 102.618C795.423 102.883 796.614 103.187 797.804 103.531C799.021 103.875 800.119 104.324 801.098 104.88C802.103 105.435 802.91 106.176 803.518 107.102C804.127 108.028 804.431 109.218 804.431 110.673C804.431 112.075 804.047 113.385 803.28 114.601C802.513 115.792 801.323 116.757 799.709 117.498C798.122 118.212 796.111 118.569 793.678 118.569Z" fill="#AAAAAA"/>
<line x1="360.173" y1="153.311" x2="359.747" y2="0.00609118" stroke="#1DD45A" stroke-width="4.608"/>
<path d="M304.002 129C296.117 129 290.025 126.984 285.724 122.952C281.423 118.831 279.272 112.783 279.272 104.808V40.4307H296.072V104.405C296.072 107.81 296.924 110.453 298.626 112.335C300.418 114.216 302.882 115.157 306.018 115.157C309.781 115.157 312.917 114.171 315.426 112.2L320.13 124.162C318.159 125.775 315.74 126.984 312.872 127.791C310.005 128.597 307.048 129 304.002 129ZM267.445 69.7299V56.2899H315.292V69.7299H267.445Z" fill="white"/>
<path fill-rule="evenodd" clip-rule="evenodd" d="M242.172 56.2899V128.06H258.972V56.2899H242.172Z" fill="white"/>
<path d="M250.639 44.4627C247.503 44.4627 244.904 43.4771 242.844 41.5059C240.872 39.5347 239.887 37.1603 239.887 34.3827C239.887 31.5155 240.872 29.1411 242.844 27.2595C244.904 25.2883 247.503 24.3027 250.639 24.3027C253.775 24.3027 256.328 25.2435 258.3 27.1251C260.36 28.9171 261.391 31.2019 261.391 33.9795C261.391 36.9363 260.405 39.4451 258.434 41.5059C256.463 43.4771 253.864 44.4627 250.639 44.4627Z" fill="#1DD45A"/>
<path d="M168.758 128.06V117.442L212.975 63.9508L216.067 69.73H169.564V56.29H229.507V66.9076L185.289 120.399L181.929 114.62H230.716V128.06H168.758Z" fill="white"/>
<path fill-rule="evenodd" clip-rule="evenodd" d="M139.855 56.2899V128.06H156.655V56.2899H139.855Z" fill="white"/>
<path d="M148.322 44.4627C145.186 44.4627 142.588 43.4771 140.527 41.5059C138.556 39.5347 137.57 37.1603 137.57 34.3827C137.57 31.5155 138.556 29.1411 140.527 27.2595C142.588 25.2883 145.186 24.3027 148.322 24.3027C151.458 24.3027 154.012 25.2435 155.983 27.1251C158.044 28.9171 159.074 31.2019 159.074 33.9795C159.074 36.9363 158.089 39.4451 156.118 41.5059C154.146 43.4771 151.548 44.4627 148.322 44.4627Z" fill="#1DD45A"/>
<path d="M88.1016 128.059V56.2898H104.095V76.0466L102.214 70.2674C104.364 65.429 107.724 61.7554 112.294 59.2466C116.953 56.7378 122.732 55.4834 129.631 55.4834V71.477C128.914 71.2978 128.242 71.2082 127.615 71.2082C126.988 71.1186 126.361 71.0738 125.734 71.0738C119.372 71.0738 114.31 72.9554 110.546 76.7186C106.783 80.3922 104.902 85.9026 104.902 93.2498V128.059H88.1016Z" fill="white"/>
<path d="M39.7824 129.001C33.6896 129.001 28.2688 127.657 23.52 124.969C18.7712 122.281 15.008 118.249 12.2304 112.873C9.5424 107.407 8.1984 100.508 8.1984 92.175C8.1984 83.7526 9.5872 76.8534 12.3648 71.4774C15.232 66.1014 19.04 62.1142 23.7888 59.5158C28.6272 56.8278 33.9584 55.4838 39.7824 55.4838C46.8608 55.4838 53.088 57.007 58.464 60.0534C63.9296 63.0998 68.2304 67.3558 71.3664 72.8214C74.592 78.287 76.2048 84.7382 76.2048 92.175C76.2048 99.6118 74.592 106.063 71.3664 111.529C68.2304 116.994 63.9296 121.295 58.464 124.431C53.088 127.477 46.8608 129.001 39.7824 129.001ZM0 128.06V28.335H16.8V72.9558L15.456 92.0406L15.9936 111.125V128.06H0ZM37.9008 114.62C41.9328 114.62 45.5168 113.724 48.6528 111.932C51.8784 110.14 54.432 107.541 56.3136 104.137C58.1952 100.732 59.136 96.7446 59.136 92.175C59.136 87.5158 58.1952 83.5286 56.3136 80.2134C54.432 76.8086 51.8784 74.2102 48.6528 72.4182C45.5168 70.6262 41.9328 69.7302 37.9008 69.7302C33.8688 69.7302 30.24 70.6262 27.0144 72.4182C23.7888 74.2102 21.2352 76.8086 19.3536 80.2134C17.472 83.5286 16.5312 87.5158 16.5312 92.175C16.5312 96.7446 17.472 100.732 19.3536 104.137C21.2352 107.541 23.7888 110.14 27.0144 111.932C30.24 113.724 33.8688 114.62 37.9008 114.62Z" fill="white"/>
</svg>
