<svg width="210" height="96" viewBox="0 0 210 96" fill="none" xmlns="http://www.w3.org/2000/svg">
<path d="M185.121 66.8847C184.132 66.8847 183.189 66.75 182.29 66.4804C181.407 66.2108 180.71 65.8813 180.201 65.4919L181.1 63.7846C181.609 64.1291 182.238 64.4211 182.987 64.6608C183.736 64.9004 184.499 65.0202 185.278 65.0202C186.282 65.0202 187 64.8779 187.435 64.5934C187.884 64.3088 188.109 63.9119 188.109 63.4027C188.109 63.0283 187.974 62.7363 187.704 62.5266C187.435 62.317 187.075 62.1597 186.626 62.0549C186.192 61.95 185.705 61.8602 185.166 61.7853C184.627 61.6954 184.088 61.5906 183.548 61.4708C183.009 61.336 182.515 61.1563 182.066 60.9317C181.616 60.692 181.257 60.37 180.987 59.9657C180.718 59.5463 180.583 58.9922 180.583 58.3033C180.583 57.5844 180.785 56.9554 181.19 56.4163C181.594 55.8771 182.163 55.4653 182.897 55.1807C183.646 54.8812 184.529 54.7314 185.548 54.7314C186.326 54.7314 187.113 54.8288 187.906 55.0235C188.715 55.2032 189.374 55.4653 189.883 55.8097L188.962 57.517C188.423 57.1576 187.862 56.9105 187.277 56.7757C186.693 56.6409 186.109 56.5735 185.525 56.5735C184.582 56.5735 183.878 56.7308 183.414 57.0453C182.949 57.3448 182.717 57.7342 182.717 58.2134C182.717 58.6178 182.852 58.9323 183.122 59.157C183.406 59.3666 183.766 59.5314 184.2 59.6512C184.649 59.771 185.143 59.8758 185.683 59.9657C186.222 60.0406 186.761 60.1454 187.3 60.2802C187.839 60.4 188.326 60.5722 188.76 60.7969C189.209 61.0215 189.569 61.336 189.838 61.7404C190.123 62.1447 190.265 62.6839 190.265 63.3578C190.265 64.0767 190.056 64.6982 189.636 65.2224C189.217 65.7465 188.625 66.1584 187.862 66.4579C187.098 66.7425 186.184 66.8847 185.121 66.8847Z" fill="white"/>
<path d="M173.447 54.7314C174.421 54.7314 175.274 54.9186 176.008 55.2931C176.757 55.6675 177.341 56.2366 177.76 57.0004C178.18 57.7642 178.389 58.7301 178.389 59.8983V66.75H176.233V60.1454C176.233 58.9922 175.948 58.1236 175.379 57.5395C174.825 56.9554 174.039 56.6634 173.02 56.6634C172.257 56.6634 171.59 56.8132 171.021 57.1127C170.452 57.4122 170.01 57.854 169.696 58.4381C169.396 59.0222 169.246 59.7485 169.246 60.6171V66.75H167.09V54.8438H169.157V58.0562L168.82 57.2025C169.209 56.4238 169.808 55.8172 170.617 55.3829C171.425 54.9486 172.369 54.7314 173.447 54.7314Z" fill="white"/>
<path d="M159.311 66.8847C158.038 66.8847 156.914 66.6227 155.941 66.0985C154.982 65.5743 154.234 64.8555 153.694 63.9419C153.17 63.0283 152.908 61.98 152.908 60.7969C152.908 59.6137 153.163 58.5654 153.672 57.6518C154.196 56.7383 154.908 56.0269 155.806 55.5177C156.72 54.9935 157.746 54.7314 158.884 54.7314C160.037 54.7314 161.055 54.986 161.939 55.4952C162.823 56.0044 163.511 56.7233 164.006 57.6518C164.515 58.5654 164.769 59.6362 164.769 60.8643C164.769 60.9541 164.762 61.0589 164.747 61.1788C164.747 61.2986 164.74 61.4109 164.725 61.5157H154.593V59.9657H163.601L162.725 60.5048C162.74 59.741 162.583 59.0596 162.253 58.4606C161.924 57.8615 161.467 57.3972 160.883 57.0678C160.314 56.7233 159.648 56.5511 158.884 56.5511C158.135 56.5511 157.468 56.7233 156.884 57.0678C156.3 57.3972 155.844 57.869 155.514 58.483C155.185 59.0821 155.02 59.771 155.02 60.5498V60.9092C155.02 61.7029 155.2 62.4143 155.559 63.0433C155.933 63.6573 156.45 64.1366 157.109 64.481C157.768 64.8255 158.524 64.9977 159.378 64.9977C160.082 64.9977 160.718 64.8779 161.287 64.6383C161.872 64.3987 162.381 64.0392 162.815 63.56L164.006 64.9528C163.467 65.5818 162.793 66.061 161.984 66.3905C161.19 66.72 160.299 66.8847 159.311 66.8847Z" fill="white"/>
<path d="M146.229 66.8847C144.956 66.8847 143.832 66.6227 142.859 66.0985C141.9 65.5743 141.152 64.8555 140.612 63.9419C140.088 63.0283 139.826 61.98 139.826 60.7969C139.826 59.6137 140.081 58.5654 140.59 57.6518C141.114 56.7383 141.826 56.0269 142.724 55.5177C143.638 54.9935 144.664 54.7314 145.802 54.7314C146.955 54.7314 147.973 54.986 148.857 55.4952C149.741 56.0044 150.429 56.7233 150.924 57.6518C151.433 58.5654 151.687 59.6362 151.687 60.8643C151.687 60.9541 151.68 61.0589 151.665 61.1788C151.665 61.2986 151.657 61.4109 151.643 61.5157H141.511V59.9657H150.519L149.643 60.5048C149.658 59.741 149.501 59.0596 149.171 58.4606C148.842 57.8615 148.385 57.3972 147.801 57.0678C147.232 56.7233 146.566 56.5511 145.802 56.5511C145.053 56.5511 144.386 56.7233 143.802 57.0678C143.218 57.3972 142.762 57.869 142.432 58.483C142.103 59.0821 141.938 59.771 141.938 60.5498V60.9092C141.938 61.7029 142.118 62.4143 142.477 63.0433C142.851 63.6573 143.368 64.1366 144.027 64.481C144.686 64.8255 145.442 64.9977 146.296 64.9977C147 64.9977 147.636 64.8779 148.205 64.6383C148.79 64.3987 149.299 64.0392 149.733 63.56L150.924 64.9528C150.384 65.5818 149.711 66.061 148.902 66.3905C148.108 66.72 147.217 66.8847 146.229 66.8847Z" fill="white"/>
<path d="M132.652 66.75V54.8438H134.719V58.0787L134.517 57.2699C134.846 56.4462 135.401 55.8172 136.179 55.3829C136.958 54.9486 137.917 54.7314 139.055 54.7314V56.8206C138.965 56.8057 138.875 56.7982 138.785 56.7982C138.71 56.7982 138.635 56.7982 138.561 56.7982C137.407 56.7982 136.494 57.1426 135.82 57.8315C135.146 58.5205 134.809 59.5164 134.809 60.8193V66.75H132.652Z" fill="white"/>
<path d="M125.679 66.8847C124.466 66.8847 123.38 66.6227 122.421 66.0985C121.478 65.5743 120.737 64.8555 120.197 63.9419C119.658 63.0283 119.389 61.98 119.389 60.7969C119.389 59.6137 119.658 58.5654 120.197 57.6518C120.737 56.7383 121.478 56.0269 122.421 55.5177C123.38 54.9935 124.466 54.7314 125.679 54.7314C126.757 54.7314 127.716 54.9486 128.554 55.3829C129.408 55.8023 130.067 56.4313 130.531 57.2699L128.891 58.3258C128.502 57.7417 128.023 57.3149 127.453 57.0453C126.899 56.7607 126.3 56.6185 125.656 56.6185C124.878 56.6185 124.181 56.7907 123.567 57.1351C122.953 57.4796 122.466 57.9663 122.107 58.5953C121.747 59.2094 121.568 59.9432 121.568 60.7969C121.568 61.6505 121.747 62.3918 122.107 63.0209C122.466 63.6499 122.953 64.1366 123.567 64.481C124.181 64.8255 124.878 64.9977 125.656 64.9977C126.3 64.9977 126.899 64.8629 127.453 64.5934C128.023 64.3088 128.502 63.8745 128.891 63.2904L130.531 64.3238C130.067 65.1475 129.408 65.784 128.554 66.2333C127.716 66.6676 126.757 66.8847 125.679 66.8847Z" fill="white"/>
<path d="M113.326 66.8847C112.338 66.8847 111.394 66.75 110.495 66.4804C109.612 66.2108 108.915 65.8813 108.406 65.4919L109.305 63.7846C109.814 64.1291 110.443 64.4211 111.192 64.6608C111.941 64.9004 112.704 65.0202 113.483 65.0202C114.487 65.0202 115.206 64.8779 115.64 64.5934C116.089 64.3088 116.314 63.9119 116.314 63.4027C116.314 63.0283 116.179 62.7363 115.909 62.5266C115.64 62.317 115.28 62.1597 114.831 62.0549C114.397 61.95 113.91 61.8602 113.371 61.7853C112.832 61.6954 112.293 61.5906 111.753 61.4708C111.214 61.336 110.72 61.1563 110.271 60.9317C109.822 60.692 109.462 60.37 109.193 59.9657C108.923 59.5463 108.788 58.9922 108.788 58.3033C108.788 57.5844 108.99 56.9554 109.395 56.4163C109.799 55.8771 110.368 55.4653 111.102 55.1807C111.851 54.8812 112.734 54.7314 113.753 54.7314C114.532 54.7314 115.318 54.8288 116.112 55.0235C116.92 55.2032 117.579 55.4653 118.088 55.8097L117.167 57.517C116.628 57.1576 116.067 56.9105 115.483 56.7757C114.898 56.6409 114.314 56.5735 113.73 56.5735C112.787 56.5735 112.083 56.7308 111.619 57.0453C111.154 57.3448 110.922 57.7342 110.922 58.2134C110.922 58.6178 111.057 58.9323 111.327 59.157C111.611 59.3666 111.971 59.5314 112.405 59.6512C112.854 59.771 113.348 59.8758 113.888 59.9657C114.427 60.0406 114.966 60.1454 115.505 60.2802C116.044 60.4 116.531 60.5722 116.965 60.7969C117.415 61.0215 117.774 61.336 118.044 61.7404C118.328 62.1447 118.47 62.6839 118.47 63.3578C118.47 64.0767 118.261 64.6982 117.841 65.2224C117.422 65.7465 116.83 66.1584 116.067 66.4579C115.303 66.7425 114.389 66.8847 113.326 66.8847Z" fill="white"/>
<path d="M179.572 47.4831V37.374H181.976V47.4831H179.572ZM175.596 43.5518V41.3053H185.952V43.5518H175.596Z" fill="#FFD700"/>
<path d="M163.654 50.4258C162.666 50.4258 161.722 50.291 160.824 50.0214C159.94 49.7518 159.244 49.4223 158.734 49.033L159.633 47.3257C160.142 47.6701 160.771 47.9622 161.52 48.2018C162.269 48.4414 163.033 48.5612 163.811 48.5612C164.815 48.5612 165.534 48.4189 165.968 48.1344C166.417 47.8498 166.642 47.453 166.642 46.9438C166.642 46.5694 166.507 46.2773 166.238 46.0676C165.968 45.858 165.609 45.7007 165.159 45.5959C164.725 45.4911 164.238 45.4012 163.699 45.3263C163.16 45.2365 162.621 45.1316 162.082 45.0118C161.542 44.877 161.048 44.6973 160.599 44.4727C160.15 44.233 159.79 43.9111 159.521 43.5067C159.251 43.0874 159.116 42.5332 159.116 41.8443C159.116 41.1255 159.318 40.4964 159.723 39.9573C160.127 39.4182 160.696 39.0063 161.43 38.7218C162.179 38.4222 163.063 38.2725 164.081 38.2725C164.86 38.2725 165.646 38.3698 166.44 38.5645C167.248 38.7442 167.907 39.0063 168.417 39.3508L167.496 41.0581C166.956 40.6986 166.395 40.4515 165.811 40.3167C165.227 40.1819 164.643 40.1146 164.058 40.1146C163.115 40.1146 162.411 40.2718 161.947 40.5863C161.483 40.8858 161.25 41.2752 161.25 41.7545C161.25 42.1588 161.385 42.4733 161.655 42.698C161.939 42.9076 162.299 43.0724 162.733 43.1922C163.182 43.312 163.677 43.4168 164.216 43.5067C164.755 43.5816 165.294 43.6864 165.833 43.8212C166.372 43.941 166.859 44.1132 167.293 44.3379C167.743 44.5625 168.102 44.877 168.372 45.2814C168.656 45.6858 168.798 46.2249 168.798 46.8988C168.798 47.6177 168.589 48.2392 168.169 48.7634C167.75 49.2876 167.159 49.6994 166.395 49.9989C165.631 50.2835 164.717 50.4258 163.654 50.4258Z" fill="white"/>
<path d="M151.721 50.291V38.3848H153.787V41.6197L153.585 40.811C153.915 39.9873 154.469 39.3582 155.248 38.9239C156.026 38.4896 156.985 38.2725 158.123 38.2725V40.3617C158.033 40.3467 157.943 40.3392 157.854 40.3392C157.779 40.3392 157.704 40.3392 157.629 40.3392C156.476 40.3392 155.562 40.6837 154.888 41.3726C154.214 42.0615 153.877 43.0574 153.877 44.3603V50.291H151.721Z" fill="white"/>
<path d="M143.235 50.4258C142.037 50.4258 140.974 50.1637 140.045 49.6395C139.117 49.1153 138.383 48.3965 137.844 47.4829C137.305 46.5544 137.035 45.506 137.035 44.3379C137.035 43.1547 137.305 42.1064 137.844 41.1928C138.383 40.2793 139.117 39.5679 140.045 39.0587C140.974 38.5345 142.037 38.2725 143.235 38.2725C144.418 38.2725 145.474 38.5345 146.403 39.0587C147.346 39.5679 148.08 40.2793 148.604 41.1928C149.144 42.0914 149.413 43.1398 149.413 44.3379C149.413 45.521 149.144 46.5694 148.604 47.4829C148.08 48.3965 147.346 49.1153 146.403 49.6395C145.474 50.1637 144.418 50.4258 143.235 50.4258ZM143.235 48.5387C143.999 48.5387 144.681 48.3665 145.28 48.0221C145.894 47.6776 146.373 47.1909 146.717 46.5619C147.062 45.9179 147.234 45.1766 147.234 44.3379C147.234 43.4842 147.062 42.7504 146.717 42.1364C146.373 41.5074 145.894 41.0206 145.28 40.6762C144.681 40.3317 143.999 40.1595 143.235 40.1595C142.472 40.1595 141.79 40.3317 141.191 40.6762C140.592 41.0206 140.113 41.5074 139.753 42.1364C139.394 42.7504 139.214 43.4842 139.214 44.3379C139.214 45.1766 139.394 45.9179 139.753 46.5619C140.113 47.1909 140.592 47.6776 141.191 48.0221C141.79 48.3665 142.472 48.5387 143.235 48.5387Z" fill="white"/>
<path d="M129.649 50.4258C128.451 50.4258 127.388 50.1637 126.459 49.6395C125.531 49.1153 124.797 48.3965 124.258 47.4829C123.719 46.5544 123.449 45.506 123.449 44.3379C123.449 43.1547 123.719 42.1064 124.258 41.1928C124.797 40.2793 125.531 39.5679 126.459 39.0587C127.388 38.5345 128.451 38.2725 129.649 38.2725C130.833 38.2725 131.888 38.5345 132.817 39.0587C133.76 39.5679 134.494 40.2793 135.018 41.1928C135.558 42.0914 135.827 43.1398 135.827 44.3379C135.827 45.521 135.558 46.5694 135.018 47.4829C134.494 48.3965 133.76 49.1153 132.817 49.6395C131.888 50.1637 130.833 50.4258 129.649 50.4258ZM129.649 48.5387C130.413 48.5387 131.095 48.3665 131.694 48.0221C132.308 47.6776 132.787 47.1909 133.131 46.5619C133.476 45.9179 133.648 45.1766 133.648 44.3379C133.648 43.4842 133.476 42.7504 133.131 42.1364C132.787 41.5074 132.308 41.0206 131.694 40.6762C131.095 40.3317 130.413 40.1595 129.649 40.1595C128.886 40.1595 128.204 40.3317 127.605 40.6762C127.006 41.0206 126.527 41.5074 126.167 42.1364C125.808 42.7504 125.628 43.4842 125.628 44.3379C125.628 45.1766 125.808 45.9179 126.167 46.5619C126.527 47.1909 127.006 47.6776 127.605 48.0221C128.204 48.3665 128.886 48.5387 129.649 48.5387Z" fill="white"/>
<path d="M114.831 50.4265C113.678 50.4265 112.644 50.1719 111.731 49.6627C110.832 49.1535 110.121 48.4421 109.597 47.5286C109.073 46.615 108.811 45.5517 108.811 44.3386C108.811 43.1255 109.073 42.0697 109.597 41.1711C110.121 40.2576 110.832 39.5462 111.731 39.037C112.644 38.5278 113.678 38.2732 114.831 38.2732C115.834 38.2732 116.741 38.4978 117.549 38.9471C118.358 39.3964 119.002 40.0704 119.481 40.9689C119.975 41.8675 120.223 42.9907 120.223 44.3386C120.223 45.6865 119.983 46.8097 119.504 47.7083C119.039 48.6069 118.403 49.2883 117.594 49.7526C116.785 50.2019 115.864 50.4265 114.831 50.4265ZM115.011 48.5395C115.76 48.5395 116.434 48.3673 117.033 48.0228C117.647 47.6783 118.126 47.1916 118.47 46.5626C118.83 45.9186 119.009 45.1773 119.009 44.3386C119.009 43.485 118.83 42.7511 118.47 42.1371C118.126 41.5081 117.647 41.0214 117.033 40.6769C116.434 40.3324 115.76 40.1602 115.011 40.1602C114.247 40.1602 113.566 40.3324 112.966 40.6769C112.367 41.0214 111.888 41.5081 111.529 42.1371C111.169 42.7511 110.99 43.485 110.99 44.3386C110.99 45.1773 111.169 45.9186 111.529 46.5626C111.888 47.1916 112.367 47.6783 112.966 48.0228C113.566 48.3673 114.247 48.5395 115.011 48.5395ZM119.077 50.2917V47.0793L119.212 44.3162L118.987 41.553V33.623H121.144V50.2917H119.077Z" fill="white"/>
<path d="M81.2324 66.8855V62.985L97.476 43.3347L98.6116 45.4578H81.5287V40.5205H103.549V44.4209L87.3052 64.0712L86.0709 61.9482H103.993V66.8855H81.2324Z" fill="white"/>
<path fill-rule="evenodd" clip-rule="evenodd" d="M70.6147 40.5202V66.8851H76.7863V40.5202H70.6147Z" fill="white"/>
<path d="M73.7252 36.1754C72.5732 36.1754 71.6186 35.8133 70.8616 35.0892C70.1375 34.3651 69.7754 33.4928 69.7754 32.4725C69.7754 31.4192 70.1375 30.5469 70.8616 29.8557C71.6186 29.1316 72.5732 28.7695 73.7252 28.7695C74.8772 28.7695 75.8153 29.1151 76.5394 29.8064C77.2965 30.4647 77.675 31.304 77.675 32.3244C77.675 33.4105 77.3129 34.3322 76.5888 35.0892C75.8647 35.8133 74.9101 36.1754 73.7252 36.1754Z" fill="#FFD700"/>
<path d="M51.6055 66.8858V40.5208H57.4808V47.7786L56.7896 45.6556C57.5795 43.8782 58.8139 42.5287 60.4925 41.607C62.2041 40.6854 64.3271 40.2246 66.8616 40.2246V46.0999C66.5983 46.0341 66.3514 46.0012 66.121 46.0012C65.8906 45.9683 65.6602 45.9518 65.4298 45.9518C63.0928 45.9518 61.2331 46.643 59.8507 48.0255C58.4683 49.375 57.777 51.3993 57.777 54.0983V66.8858H51.6055Z" fill="white"/>
<path d="M33.8526 67.231C31.6143 67.231 29.623 66.7373 27.8785 65.7499C26.134 64.7624 24.7516 63.2812 23.7312 61.3063C22.7437 59.2985 22.25 56.764 22.25 53.7029C22.25 50.6089 22.7602 48.0745 23.7806 46.0996C24.8338 44.1247 26.2327 42.6599 27.9772 41.7054C29.7546 40.718 31.7131 40.2242 33.8526 40.2242C36.4528 40.2242 38.7404 40.7838 40.7153 41.9029C42.7232 43.022 44.3031 44.5855 45.4551 46.5933C46.6401 48.6011 47.2325 50.971 47.2325 53.7029C47.2325 56.4349 46.6401 58.8048 45.4551 60.8126C44.3031 62.8204 42.7232 64.4003 40.7153 65.5524C38.7404 66.6715 36.4528 67.231 33.8526 67.231ZM19.2383 66.8854V30.251H25.4099V46.6427L24.9161 53.6536L25.1136 60.6645V66.8854H19.2383ZM33.1613 61.9482C34.6425 61.9482 35.9591 61.619 37.1111 60.9607C38.2961 60.3024 39.2342 59.3479 39.9254 58.0971C40.6166 56.8463 40.9622 55.3816 40.9622 53.7029C40.9622 51.9914 40.6166 50.5266 39.9254 49.3088C39.2342 48.058 38.2961 47.1035 37.1111 46.4452C35.9591 45.7869 34.6425 45.4577 33.1613 45.4577C31.6802 45.4577 30.3471 45.7869 29.1622 46.4452C27.9772 47.1035 27.0391 48.058 26.3479 49.3088C25.6567 50.5266 25.3111 51.9914 25.3111 53.7029C25.3111 55.3816 25.6567 56.8463 26.3479 58.0971C27.0391 59.3479 27.9772 60.3024 29.1622 60.9607C30.3471 61.619 31.6802 61.9482 33.1613 61.9482Z" fill="white"/>
</svg>
