<svg width="102" height="20" viewBox="0 0 102 20" fill="none" xmlns="http://www.w3.org/2000/svg">
<path d="M50.5419 7.78125L52.1142 4.30925H52.6053L54.1826 7.78125H53.6618L52.2581 4.58701H52.4565L51.0528 7.78125H50.5419ZM51.2115 6.91325L51.3454 6.51645H53.2997L53.4435 6.91325H51.2115ZM54.7005 7.78125V4.30925H56.0546C56.5043 4.30925 56.8581 4.41672 57.116 4.63165C57.3739 4.84328 57.5029 5.13922 57.5029 5.51949C57.5029 5.7708 57.445 5.98738 57.3293 6.16925C57.2136 6.34781 57.0482 6.48504 56.8333 6.58093C56.6184 6.67682 56.3588 6.72477 56.0546 6.72477H54.9733L55.1965 6.49661V7.78125H54.7005ZM57.0218 7.78125L56.1389 6.52141H56.6696L57.5624 7.78125H57.0218ZM55.1965 6.54621L54.9733 6.30317H56.0397C56.3571 6.30317 56.5969 6.23538 56.7589 6.09981C56.9242 5.96093 57.0069 5.76749 57.0069 5.51949C57.0069 5.27149 56.9242 5.0797 56.7589 4.94413C56.5969 4.80856 56.3571 4.74077 56.0397 4.74077H54.9733L55.1965 4.49277V6.54621ZM59.8567 7.82093C59.5922 7.82093 59.3475 7.77794 59.1226 7.69197C58.9011 7.60269 58.7077 7.47869 58.5423 7.31997C58.3803 7.15794 58.253 6.96946 58.1604 6.75453C58.0678 6.5396 58.0215 6.30317 58.0215 6.04525C58.0215 5.78733 58.0678 5.5509 58.1604 5.33597C58.253 5.12104 58.3819 4.93421 58.5473 4.77549C58.7126 4.61346 58.9061 4.48946 59.1276 4.40349C59.3525 4.31421 59.5971 4.26957 59.8617 4.26957C60.1295 4.26957 60.3759 4.31586 60.6007 4.40845C60.8289 4.49773 61.0223 4.63165 61.181 4.81021L60.8586 5.12269C60.7264 4.98381 60.5776 4.8813 60.4122 4.81517C60.2469 4.74573 60.07 4.71101 59.8815 4.71101C59.6864 4.71101 59.5046 4.74408 59.3359 4.81021C59.1706 4.87634 59.0267 4.96893 58.9044 5.08797C58.7821 5.20701 58.6862 5.3492 58.6167 5.51453C58.5506 5.67656 58.5175 5.85346 58.5175 6.04525C58.5175 6.23704 58.5506 6.4156 58.6167 6.58093C58.6862 6.74296 58.7821 6.88349 58.9044 7.00253C59.0267 7.12157 59.1706 7.21416 59.3359 7.28029C59.5046 7.34642 59.6864 7.37949 59.8815 7.37949C60.07 7.37949 60.2469 7.34642 60.4122 7.28029C60.5776 7.21085 60.7264 7.10504 60.8586 6.96285L61.181 7.27533C61.0223 7.45389 60.8289 7.58946 60.6007 7.68205C60.3759 7.77464 60.1279 7.82093 59.8567 7.82093ZM64.3301 7.78125V4.30925H64.8261V7.78125H64.3301ZM61.8402 7.78125V4.30925H62.3362V7.78125H61.8402ZM62.2866 6.23373V5.80221H64.3747V6.23373H62.2866ZM65.8653 7.78125V4.30925H66.3613V7.78125H65.8653ZM68.0902 7.78125V4.74077H66.8998V4.30925H69.7717V4.74077H68.5813V7.78125H68.0902ZM70.3119 7.78125V4.30925H72.7621V4.74077H70.8079V7.34973H72.8316V7.78125H70.3119ZM70.7633 6.22877V5.80717H72.5489V6.22877H70.7633ZM75.1823 7.82093C74.9178 7.82093 74.6731 7.77794 74.4483 7.69197C74.2267 7.60269 74.0333 7.47869 73.8679 7.31997C73.7059 7.15794 73.5786 6.96946 73.486 6.75453C73.3934 6.5396 73.3471 6.30317 73.3471 6.04525C73.3471 5.78733 73.3934 5.5509 73.486 5.33597C73.5786 5.12104 73.7076 4.93421 73.8729 4.77549C74.0382 4.61346 74.2317 4.48946 74.4532 4.40349C74.6781 4.31421 74.9228 4.26957 75.1873 4.26957C75.4551 4.26957 75.7015 4.31586 75.9263 4.40845C76.1545 4.49773 76.3479 4.63165 76.5067 4.81021L76.1843 5.12269C76.052 4.98381 75.9032 4.8813 75.7379 4.81517C75.5725 4.74573 75.3956 4.71101 75.2071 4.71101C75.012 4.71101 74.8302 4.74408 74.6615 4.81021C74.4962 4.87634 74.3524 4.96893 74.23 5.08797C74.1077 5.20701 74.0118 5.3492 73.9423 5.51453C73.8762 5.67656 73.8431 5.85346 73.8431 6.04525C73.8431 6.23704 73.8762 6.4156 73.9423 6.58093C74.0118 6.74296 74.1077 6.88349 74.23 7.00253C74.3524 7.12157 74.4962 7.21416 74.6615 7.28029C74.8302 7.34642 75.012 7.37949 75.2071 7.37949C75.3956 7.37949 75.5725 7.34642 75.7379 7.28029C75.9032 7.21085 76.052 7.10504 76.1843 6.96285L76.5067 7.27533C76.3479 7.45389 76.1545 7.58946 75.9263 7.68205C75.7015 7.77464 75.4535 7.82093 75.1823 7.82093ZM77.7729 7.78125V4.74077H76.5825V4.30925H79.4543V4.74077H78.2639V7.78125H77.7729ZM81.37 7.82093C80.9137 7.82093 80.5549 7.69032 80.2937 7.42909C80.0324 7.16786 79.9018 6.78594 79.9018 6.28333V4.30925H80.3978V6.26349C80.3978 6.65037 80.4821 6.93309 80.6508 7.11165C80.8227 7.29021 81.0641 7.37949 81.3749 7.37949C81.6891 7.37949 81.9305 7.29021 82.0991 7.11165C82.271 6.93309 82.357 6.65037 82.357 6.26349V4.30925H82.8381V6.28333C82.8381 6.78594 82.7075 7.16786 82.4463 7.42909C82.1884 7.69032 81.8296 7.82093 81.37 7.82093ZM83.855 7.78125V4.30925H85.2091C85.6588 4.30925 86.0126 4.41672 86.2705 4.63165C86.5285 4.84328 86.6574 5.13922 86.6574 5.51949C86.6574 5.7708 86.5996 5.98738 86.4838 6.16925C86.3681 6.34781 86.2028 6.48504 85.9878 6.58093C85.7729 6.67682 85.5133 6.72477 85.2091 6.72477H84.1278L84.351 6.49661V7.78125H83.855ZM86.1763 7.78125L85.2934 6.52141H85.8241L86.7169 7.78125H86.1763ZM84.351 6.54621L84.1278 6.30317H85.1942C85.5117 6.30317 85.7514 6.23538 85.9134 6.09981C86.0788 5.96093 86.1614 5.76749 86.1614 5.51949C86.1614 5.27149 86.0788 5.0797 85.9134 4.94413C85.7514 4.80856 85.5117 4.74077 85.1942 4.74077H84.1278L84.351 4.49277V6.54621ZM86.933 7.78125L88.5053 4.30925H88.9964L90.5736 7.78125H90.0528L88.6492 4.58701H88.8476L87.4439 7.78125H86.933ZM87.6026 6.91325L87.7365 6.51645H89.6908L89.8346 6.91325H87.6026ZM91.0916 7.78125V4.30925H91.5876V7.34973H93.4674V7.78125H91.0916ZM51.0677 14.7812V11.3092H52.6251C53.0252 11.3092 53.3327 11.3903 53.5477 11.5523C53.7626 11.711 53.8701 11.9292 53.8701 12.207C53.8701 12.3955 53.8271 12.5542 53.7411 12.6832C53.6584 12.8121 53.546 12.9113 53.4038 12.9808C53.2616 13.0502 53.1079 13.0849 52.9426 13.0849L53.0318 12.9361C53.2302 12.9361 53.4055 12.9708 53.5576 13.0403C53.7097 13.1097 53.8304 13.2122 53.9197 13.3478C54.009 13.4801 54.0536 13.6454 54.0536 13.8438C54.0536 14.1414 53.9412 14.3729 53.7163 14.5382C53.4948 14.7002 53.1641 14.7812 52.7243 14.7812H51.0677ZM51.5637 14.3795H52.7045C52.9789 14.3795 53.1889 14.3332 53.3344 14.2406C53.4799 14.148 53.5526 14.0025 53.5526 13.8041C53.5526 13.6024 53.4799 13.4553 53.3344 13.3627C53.1889 13.2701 52.9789 13.2238 52.7045 13.2238H51.519V12.822H52.5805C52.8318 12.822 53.0269 12.7758 53.1658 12.6832C53.3046 12.5906 53.3741 12.4517 53.3741 12.2665C53.3741 12.0814 53.3046 11.9425 53.1658 11.8499C53.0269 11.7573 52.8318 11.711 52.5805 11.711H51.5637V14.3795ZM56.26 14.8209C55.8037 14.8209 55.4449 14.6903 55.1837 14.4291C54.9224 14.1679 54.7918 13.7859 54.7918 13.2833V11.3092H55.2878V13.2635C55.2878 13.6504 55.3721 13.9331 55.5408 14.1116C55.7127 14.2902 55.9541 14.3795 56.2649 14.3795C56.5791 14.3795 56.8205 14.2902 56.9891 14.1116C57.161 13.9331 57.247 13.6504 57.247 13.2635V11.3092H57.7281V13.2833C57.7281 13.7859 57.5975 14.1679 57.3363 14.4291C57.0784 14.6903 56.7196 14.8209 56.26 14.8209ZM58.745 14.7812V11.3092H59.241V14.7812H58.745ZM60.2805 14.7812V11.3092H60.7765V14.3497H62.6563V14.7812H60.2805ZM63.2255 14.7812V11.3092H64.6887C65.059 11.3092 65.3847 11.382 65.6658 11.5275C65.9502 11.673 66.1701 11.8763 66.3255 12.1376C66.4842 12.3988 66.5636 12.7014 66.5636 13.0452C66.5636 13.3891 66.4842 13.6917 66.3255 13.9529C66.1701 14.2142 65.9502 14.4175 65.6658 14.563C65.3847 14.7085 65.059 14.7812 64.6887 14.7812H63.2255ZM63.7215 14.3497H64.6589C64.9466 14.3497 65.1946 14.2952 65.4029 14.186C65.6146 14.0769 65.7782 13.9248 65.894 13.7297C66.0097 13.5313 66.0676 13.3032 66.0676 13.0452C66.0676 12.784 66.0097 12.5559 65.894 12.3608C65.7782 12.1657 65.6146 12.0136 65.4029 11.9044C65.1946 11.7953 64.9466 11.7408 64.6589 11.7408H63.7215V14.3497ZM67.3233 14.7812V11.3092H67.8193V14.7812H67.3233ZM68.8588 14.7812V11.3092H69.2655L71.562 14.1612H71.3487V11.3092H71.8447V14.7812H71.438L69.1415 11.9292H69.3548V14.7812H68.8588ZM74.4513 14.8209C74.1834 14.8209 73.9371 14.7779 73.7122 14.692C73.4874 14.6027 73.2923 14.4787 73.127 14.32C72.9616 14.1579 72.8327 13.9695 72.7401 13.7545C72.6475 13.5396 72.6012 13.3032 72.6012 13.0452C72.6012 12.7873 72.6475 12.5509 72.7401 12.336C72.8327 12.121 72.9616 11.9342 73.127 11.7755C73.2956 11.6135 73.4924 11.4895 73.7172 11.4035C73.9421 11.3142 74.1901 11.2696 74.4612 11.2696C74.7357 11.2696 74.987 11.3142 75.2151 11.4035C75.4433 11.4928 75.6367 11.6267 75.7954 11.8052L75.4879 12.1128C75.3457 11.9739 75.1903 11.873 75.0217 11.8102C74.8564 11.7441 74.6761 11.711 74.481 11.711C74.2826 11.711 74.0975 11.7441 73.9255 11.8102C73.7569 11.8763 73.6097 11.9689 73.4841 12.088C73.3617 12.207 73.2658 12.3492 73.1964 12.5145C73.1303 12.6766 73.0972 12.8535 73.0972 13.0452C73.0972 13.2337 73.1303 13.4106 73.1964 13.576C73.2658 13.738 73.3617 13.8802 73.4841 14.0025C73.6097 14.1216 73.7569 14.2142 73.9255 14.2803C74.0942 14.3464 74.2777 14.3795 74.4761 14.3795C74.6613 14.3795 74.8382 14.3514 75.0068 14.2952C75.1788 14.2356 75.3375 14.1381 75.483 14.0025L75.7657 14.3795C75.5937 14.525 75.392 14.6358 75.1606 14.7118C74.9324 14.7846 74.696 14.8209 74.4513 14.8209ZM75.7657 14.3795L75.2895 14.315V13.0254H75.7657V14.3795ZM79.0592 14.8209C78.7947 14.8209 78.5417 14.7812 78.3003 14.7019C78.0589 14.6192 77.8688 14.5134 77.7299 14.3844L77.9134 13.9976C78.0457 14.1133 78.2144 14.2092 78.4194 14.2852C78.6244 14.3613 78.8377 14.3993 79.0592 14.3993C79.2609 14.3993 79.4246 14.3762 79.5502 14.3299C79.6759 14.2836 79.7685 14.2208 79.828 14.1414C79.8875 14.0587 79.9173 13.9662 79.9173 13.8636C79.9173 13.7446 79.8776 13.6487 79.7982 13.576C79.7222 13.5032 79.6213 13.4454 79.4957 13.4024C79.3733 13.3561 79.2378 13.3164 79.089 13.2833C78.9402 13.2503 78.7897 13.2122 78.6376 13.1692C78.4888 13.123 78.3516 13.0651 78.2259 12.9956C78.1036 12.9262 78.0044 12.8336 77.9283 12.7179C77.8523 12.5988 77.8142 12.4467 77.8142 12.2616C77.8142 12.083 77.8605 11.9193 77.9531 11.7705C78.049 11.6184 78.1945 11.4977 78.3896 11.4084C78.588 11.3159 78.8393 11.2696 79.1435 11.2696C79.3452 11.2696 79.5453 11.296 79.7437 11.3489C79.9421 11.4018 80.114 11.4779 80.2595 11.5771L80.0958 11.9739C79.947 11.8747 79.79 11.8036 79.6246 11.7606C79.4593 11.7143 79.2989 11.6912 79.1435 11.6912C78.9484 11.6912 78.7881 11.716 78.6624 11.7656C78.5368 11.8152 78.4442 11.8813 78.3846 11.964C78.3284 12.0466 78.3003 12.1392 78.3003 12.2417C78.3003 12.3641 78.3384 12.4616 78.4144 12.5344C78.4938 12.6071 78.5946 12.665 78.717 12.708C78.8426 12.751 78.9798 12.7906 79.1286 12.827C79.2774 12.8601 79.4262 12.8981 79.575 12.9411C79.7272 12.9841 79.8644 13.0403 79.9867 13.1097C80.1124 13.1792 80.2132 13.2718 80.2893 13.3875C80.3653 13.5032 80.4034 13.652 80.4034 13.8339C80.4034 14.0091 80.3554 14.1728 80.2595 14.3249C80.1636 14.4737 80.0148 14.5944 79.8131 14.687C79.6147 14.7763 79.3634 14.8209 79.0592 14.8209ZM81.8936 14.7812V13.452L82.0077 13.7595L80.5147 11.3092H81.0454L82.3003 13.3776H82.0126L83.2725 11.3092H83.7635L82.2755 13.7595L82.3846 13.452V14.7812H81.8936ZM85.2059 14.8209C84.9414 14.8209 84.6884 14.7812 84.447 14.7019C84.2057 14.6192 84.0155 14.5134 83.8766 14.3844L84.0602 13.9976C84.1924 14.1133 84.3611 14.2092 84.5661 14.2852C84.7711 14.3613 84.9844 14.3993 85.2059 14.3993C85.4076 14.3993 85.5713 14.3762 85.697 14.3299C85.8226 14.2836 85.9152 14.2208 85.9747 14.1414C86.0342 14.0587 86.064 13.9662 86.064 13.8636C86.064 13.7446 86.0243 13.6487 85.945 13.576C85.8689 13.5032 85.7681 13.4454 85.6424 13.4024C85.5201 13.3561 85.3845 13.3164 85.2357 13.2833C85.0869 13.2503 84.9364 13.2122 84.7843 13.1692C84.6355 13.123 84.4983 13.0651 84.3726 12.9956C84.2503 12.9262 84.1511 12.8336 84.075 12.7179C83.999 12.5988 83.961 12.4467 83.961 12.2616C83.961 12.083 84.0073 11.9193 84.0998 11.7705C84.1957 11.6184 84.3412 11.4977 84.5363 11.4084C84.7347 11.3159 84.986 11.2696 85.2902 11.2696C85.4919 11.2696 85.692 11.296 85.8904 11.3489C86.0888 11.4018 86.2607 11.4779 86.4062 11.5771L86.2426 11.9739C86.0938 11.8747 85.9367 11.8036 85.7714 11.7606C85.606 11.7143 85.4457 11.6912 85.2902 11.6912C85.0951 11.6912 84.9348 11.716 84.8091 11.7656C84.6835 11.8152 84.5909 11.8813 84.5314 11.964C84.4751 12.0466 84.447 12.1392 84.447 12.2417C84.447 12.3641 84.4851 12.4616 84.5611 12.5344C84.6405 12.6071 84.7413 12.665 84.8637 12.708C84.9893 12.751 85.1266 12.7906 85.2754 12.827C85.4242 12.8601 85.573 12.8981 85.7218 12.9411C85.8739 12.9841 86.0111 13.0403 86.1334 13.1097C86.2591 13.1792 86.3599 13.2718 86.436 13.3875C86.5121 13.5032 86.5501 13.652 86.5501 13.8339C86.5501 14.0091 86.5021 14.1728 86.4062 14.3249C86.3103 14.4737 86.1615 14.5944 85.9598 14.687C85.7614 14.7763 85.5101 14.8209 85.2059 14.8209ZM87.9157 14.7812V11.7408H86.7253V11.3092H89.5972V11.7408H88.4068V14.7812H87.9157ZM90.1374 14.7812V11.3092H92.5876V11.7408H90.6334V14.3497H92.657V14.7812H90.1374ZM90.5887 13.2288V12.8072H92.3743V13.2288H90.5887ZM93.4602 14.7812V11.3092H93.8669L95.4243 13.9331H95.2061L96.7437 11.3092H97.1504L97.1554 14.7812H96.6792L96.6743 12.0582H96.7883L95.4194 14.3596H95.1912L93.8123 12.0582H93.9363V14.7812H93.4602ZM99.2092 14.8209C98.9447 14.8209 98.6917 14.7812 98.4503 14.7019C98.2089 14.6192 98.0188 14.5134 97.8799 14.3844L98.0634 13.9976C98.1957 14.1133 98.3643 14.2092 98.5694 14.2852C98.7744 14.3613 98.9877 14.3993 99.2092 14.3993C99.4109 14.3993 99.5746 14.3762 99.7002 14.3299C99.8259 14.2836 99.9185 14.2208 99.978 14.1414C100.038 14.0587 100.067 13.9662 100.067 13.8636C100.067 13.7446 100.028 13.6487 99.9482 13.576C99.8722 13.5032 99.7713 13.4454 99.6457 13.4024C99.5233 13.3561 99.3878 13.3164 99.239 13.2833C99.0902 13.2503 98.9397 13.2122 98.7876 13.1692C98.6388 13.123 98.5016 13.0651 98.3759 12.9956C98.2536 12.9262 98.1544 12.8336 98.0783 12.7179C98.0023 12.5988 97.9642 12.4467 97.9642 12.2616C97.9642 12.083 98.0105 11.9193 98.1031 11.7705C98.199 11.6184 98.3445 11.4977 98.5396 11.4084C98.738 11.3159 98.9893 11.2696 99.2935 11.2696C99.4952 11.2696 99.6953 11.296 99.8937 11.3489C100.092 11.4018 100.264 11.4779 100.41 11.5771L100.246 11.9739C100.097 11.8747 99.94 11.8036 99.7746 11.7606C99.6093 11.7143 99.4489 11.6912 99.2935 11.6912C99.0984 11.6912 98.9381 11.716 98.8124 11.7656C98.6868 11.8152 98.5942 11.8813 98.5346 11.964C98.4784 12.0466 98.4503 12.1392 98.4503 12.2417C98.4503 12.3641 98.4883 12.4616 98.5644 12.5344C98.6438 12.6071 98.7446 12.665 98.867 12.708C98.9926 12.751 99.1298 12.7906 99.2786 12.827C99.4274 12.8601 99.5762 12.8981 99.725 12.9411C99.8772 12.9841 100.014 13.0403 100.137 13.1097C100.262 13.1792 100.363 13.2718 100.439 13.3875C100.515 13.5032 100.553 13.652 100.553 13.8339C100.553 14.0091 100.505 14.1728 100.41 14.3249C100.314 14.4737 100.165 14.5944 99.9631 14.687C99.7647 14.7763 99.5134 14.8209 99.2092 14.8209Z" fill="#AAAAAA"/>
<line x1="45.0167" y1="19.1639" x2="44.9635" y2="0.000761398" stroke="#1DD45A" stroke-width="0.576"/>
<path d="M37.9993 16.1249C37.0137 16.1249 36.2521 15.8729 35.7145 15.3689C35.1769 14.8537 34.9081 14.0977 34.9081 13.1009V5.05371H37.0081V13.0505C37.0081 13.4761 37.1145 13.8065 37.3273 14.0417C37.5513 14.2769 37.8593 14.3945 38.2513 14.3945C38.7217 14.3945 39.1137 14.2713 39.4273 14.0249L40.0153 15.5201C39.7689 15.7217 39.4665 15.8729 39.1081 15.9737C38.7497 16.0745 38.3801 16.1249 37.9993 16.1249ZM33.4297 8.71611V7.03611H39.4105V8.71611H33.4297Z" fill="white"/>
<path fill-rule="evenodd" clip-rule="evenodd" d="M30.27 7.03551V16.0067H32.37V7.03551H30.27Z" fill="white"/>
<path d="M31.3284 5.55711C30.9364 5.55711 30.6116 5.43391 30.354 5.18751C30.1076 4.94111 29.9844 4.64431 29.9844 4.29711C29.9844 3.93871 30.1076 3.64191 30.354 3.40671C30.6116 3.16031 30.9364 3.03711 31.3284 3.03711C31.7204 3.03711 32.0396 3.15471 32.286 3.38991C32.5436 3.61391 32.6724 3.89951 32.6724 4.24671C32.6724 4.61631 32.5492 4.92991 32.3028 5.18751C32.0564 5.43391 31.7316 5.55711 31.3284 5.55711Z" fill="#1DD45A"/>
<path d="M21.0938 16.0073V14.6801L26.6209 7.99373L27.0073 8.71613H21.1945V7.03613H28.6873V8.36333L23.1602 15.0497L22.7402 14.3273H28.8386V16.0073H21.0938Z" fill="white"/>
<path fill-rule="evenodd" clip-rule="evenodd" d="M17.4809 7.03551V16.0067H19.5809V7.03551H17.4809Z" fill="white"/>
<path d="M18.5393 5.55711C18.1473 5.55711 17.8225 5.43391 17.5649 5.18751C17.3185 4.94111 17.1953 4.64431 17.1953 4.29711C17.1953 3.93871 17.3185 3.64191 17.5649 3.40671C17.8225 3.16031 18.1473 3.03711 18.5393 3.03711C18.9313 3.03711 19.2505 3.15471 19.4969 3.38991C19.7545 3.61391 19.8833 3.89951 19.8833 4.24671C19.8833 4.61631 19.7601 4.92991 19.5137 5.18751C19.2673 5.43391 18.9425 5.55711 18.5393 5.55711Z" fill="#1DD45A"/>
<path d="M11.0078 16.0066V7.03537H13.007V9.50497L12.7718 8.78257C13.0406 8.17777 13.4606 7.71857 14.0318 7.40497C14.6142 7.09137 15.3366 6.93457 16.199 6.93457V8.93377C16.1094 8.91137 16.0254 8.90017 15.947 8.90017C15.8686 8.88897 15.7902 8.88337 15.7118 8.88337C14.9166 8.88337 14.2838 9.11857 13.8134 9.58897C13.343 10.0482 13.1078 10.737 13.1078 11.6554V16.0066H11.0078Z" fill="white"/>
<path d="M4.9728 16.1252C4.2112 16.1252 3.5336 15.9572 2.94 15.6212C2.3464 15.2852 1.876 14.7812 1.5288 14.1092C1.1928 13.426 1.0248 12.5636 1.0248 11.522C1.0248 10.4692 1.1984 9.60679 1.5456 8.93479C1.904 8.26279 2.38 7.76439 2.9736 7.43959C3.5784 7.10359 4.2448 6.93559 4.9728 6.93559C5.8576 6.93559 6.636 7.12599 7.308 7.50679C7.9912 7.88759 8.5288 8.41959 8.9208 9.10279C9.324 9.78599 9.5256 10.5924 9.5256 11.522C9.5256 12.4516 9.324 13.258 8.9208 13.9412C8.5288 14.6244 7.9912 15.162 7.308 15.554C6.636 15.9348 5.8576 16.1252 4.9728 16.1252ZM0 16.0076V3.54199H2.1V9.11959L1.932 11.5052L1.9992 13.8908V16.0076H0ZM4.7376 14.3276C5.2416 14.3276 5.6896 14.2156 6.0816 13.9916C6.4848 13.7676 6.804 13.4428 7.0392 13.0172C7.2744 12.5916 7.392 12.0932 7.392 11.522C7.392 10.9396 7.2744 10.4412 7.0392 10.0268C6.804 9.60119 6.4848 9.27639 6.0816 9.05239C5.6896 8.82839 5.2416 8.71639 4.7376 8.71639C4.2336 8.71639 3.78 8.82839 3.3768 9.05239C2.9736 9.27639 2.6544 9.60119 2.4192 10.0268C2.184 10.4412 2.0664 10.9396 2.0664 11.522C2.0664 12.0932 2.184 12.5916 2.4192 13.0172C2.6544 13.4428 2.9736 13.7676 3.3768 13.9916C3.78 14.2156 4.2336 14.3276 4.7376 14.3276Z" fill="white"/>
</svg>
