<svg width="70" height="32" viewBox="0 0 70 32" fill="none" xmlns="http://www.w3.org/2000/svg">
<path d="M61.7092 22.2962C61.3798 22.2962 61.0653 22.2513 60.7657 22.1614C60.4712 22.0716 60.2391 21.9617 60.0693 21.832L60.3689 21.2628C60.5386 21.3777 60.7483 21.475 60.9979 21.5549C61.2475 21.6348 61.5021 21.6747 61.7617 21.6747C62.0961 21.6747 62.3358 21.6273 62.4805 21.5324C62.6303 21.4376 62.7052 21.3053 62.7052 21.1356C62.7052 21.0107 62.6602 20.9134 62.5704 20.8435C62.4805 20.7736 62.3607 20.7212 62.211 20.6863C62.0662 20.6513 61.9039 20.6214 61.7242 20.5964C61.5445 20.5664 61.3648 20.5315 61.1851 20.4916C61.0054 20.4466 60.8406 20.3867 60.6909 20.3119C60.5411 20.232 60.4213 20.1246 60.3314 19.9899C60.2416 19.8501 60.1966 19.6654 60.1966 19.4357C60.1966 19.1961 60.264 18.9864 60.3988 18.8067C60.5336 18.627 60.7233 18.4897 60.9679 18.3949C61.2175 18.295 61.5121 18.2451 61.8515 18.2451C62.1111 18.2451 62.3732 18.2776 62.6378 18.3425C62.9074 18.4024 63.127 18.4897 63.2967 18.6045L62.9897 19.1737C62.81 19.0538 62.6228 18.9715 62.4281 18.9265C62.2334 18.8816 62.0387 18.8591 61.844 18.8591C61.5295 18.8591 61.2949 18.9116 61.1401 19.0164C60.9854 19.1162 60.908 19.246 60.908 19.4058C60.908 19.5406 60.9529 19.6454 61.0428 19.7203C61.1376 19.7902 61.2575 19.8451 61.4022 19.885C61.552 19.925 61.7167 19.9599 61.8964 19.9899C62.0762 20.0148 62.2559 20.0498 62.4356 20.0947C62.6153 20.1346 62.7776 20.192 62.9223 20.2669C63.0721 20.3418 63.1919 20.4466 63.2818 20.5814C63.3766 20.7162 63.424 20.8959 63.424 21.1206C63.424 21.3602 63.3541 21.5674 63.2144 21.7421C63.0746 21.9168 62.8774 22.0541 62.6228 22.1539C62.3682 22.2488 62.0637 22.2962 61.7092 22.2962Z" fill="white"/>
<path d="M57.8174 18.2451C58.1419 18.2451 58.4264 18.3075 58.671 18.4323C58.9207 18.5571 59.1153 18.7468 59.2551 19.0014C59.3949 19.256 59.4648 19.578 59.4648 19.9674V22.2513H58.7459V20.0498C58.7459 19.6654 58.6511 19.3758 58.4614 19.1811C58.2767 18.9864 58.0146 18.8891 57.6751 18.8891C57.4205 18.8891 57.1984 18.939 57.0087 19.0389C56.819 19.1387 56.6717 19.286 56.5669 19.4807C56.467 19.6754 56.4171 19.9175 56.4171 20.207V22.2513H55.6982V18.2826H56.3872V19.3534L56.2748 19.0688C56.4046 18.8092 56.6043 18.607 56.8739 18.4623C57.1435 18.3175 57.458 18.2451 57.8174 18.2451Z" fill="white"/>
<path d="M53.1058 22.2962C52.6815 22.2962 52.3071 22.2089 51.9826 22.0341C51.6631 21.8594 51.4135 21.6198 51.2338 21.3153C51.059 21.0107 50.9717 20.6613 50.9717 20.2669C50.9717 19.8725 51.0565 19.5231 51.2263 19.2186C51.401 18.9141 51.6381 18.6769 51.9377 18.5072C52.2422 18.3325 52.5841 18.2451 52.9635 18.2451C53.3479 18.2451 53.6874 18.33 53.9819 18.4997C54.2765 18.6694 54.5061 18.9091 54.6708 19.2186C54.8406 19.5231 54.9254 19.88 54.9254 20.2894C54.9254 20.3193 54.9229 20.3543 54.9179 20.3942C54.9179 20.4342 54.9155 20.4716 54.9105 20.5065H51.5333V19.9899H54.536L54.244 20.1696C54.249 19.915 54.1966 19.6878 54.0868 19.4882C53.9769 19.2885 53.8247 19.1337 53.63 19.0239C53.4403 18.9091 53.2181 18.8517 52.9635 18.8517C52.7139 18.8517 52.4918 18.9091 52.2971 19.0239C52.1024 19.1337 51.9501 19.291 51.8403 19.4956C51.7305 19.6953 51.6756 19.925 51.6756 20.1846V20.3044C51.6756 20.5689 51.7355 20.8061 51.8553 21.0157C51.9801 21.2204 52.1523 21.3802 52.372 21.495C52.5916 21.6098 52.8437 21.6672 53.1283 21.6672C53.3629 21.6672 53.5751 21.6273 53.7648 21.5474C53.9595 21.4675 54.1292 21.3477 54.274 21.188L54.6708 21.6522C54.4911 21.8619 54.2665 22.0217 53.9969 22.1315C53.7323 22.2413 53.4353 22.2962 53.1058 22.2962Z" fill="white"/>
<path d="M48.7445 22.2962C48.3202 22.2962 47.9457 22.2089 47.6213 22.0341C47.3018 21.8594 47.0522 21.6198 46.8724 21.3153C46.6977 21.0107 46.6104 20.6613 46.6104 20.2669C46.6104 19.8725 46.6952 19.5231 46.8649 19.2186C47.0397 18.9141 47.2768 18.6769 47.5763 18.5072C47.8808 18.3325 48.2228 18.2451 48.6022 18.2451C48.9866 18.2451 49.3261 18.33 49.6206 18.4997C49.9151 18.6694 50.1448 18.9091 50.3095 19.2186C50.4792 19.5231 50.5641 19.88 50.5641 20.2894C50.5641 20.3193 50.5616 20.3543 50.5566 20.3942C50.5566 20.4342 50.5541 20.4716 50.5491 20.5065H47.172V19.9899H50.1747L49.8827 20.1696C49.8877 19.915 49.8353 19.6878 49.7254 19.4882C49.6156 19.2885 49.4633 19.1337 49.2687 19.0239C49.079 18.9091 48.8568 18.8517 48.6022 18.8517C48.3526 18.8517 48.1305 18.9091 47.9358 19.0239C47.7411 19.1337 47.5888 19.291 47.479 19.4956C47.3692 19.6953 47.3142 19.925 47.3142 20.1846V20.3044C47.3142 20.5689 47.3741 20.8061 47.494 21.0157C47.6188 21.2204 47.791 21.3802 48.0106 21.495C48.2303 21.6098 48.4824 21.6672 48.7669 21.6672C49.0016 21.6672 49.2137 21.6273 49.4034 21.5474C49.5981 21.4675 49.7679 21.3477 49.9126 21.188L50.3095 21.6522C50.1298 21.8619 49.9051 22.0217 49.6356 22.1315C49.371 22.2413 49.074 22.2962 48.7445 22.2962Z" fill="white"/>
<path d="M44.2197 22.2513V18.2826H44.9086V19.3609L44.8412 19.0913C44.9511 18.8167 45.1358 18.607 45.3954 18.4623C45.655 18.3175 45.9745 18.2451 46.3539 18.2451V18.9415C46.3239 18.9365 46.294 18.934 46.264 18.934C46.239 18.934 46.2141 18.934 46.1891 18.934C45.8047 18.934 45.5002 19.0488 45.2756 19.2785C45.0509 19.5081 44.9386 19.8401 44.9386 20.2744V22.2513H44.2197Z" fill="white"/>
<path d="M41.8945 22.2962C41.4902 22.2962 41.1282 22.2089 40.8088 22.0341C40.4943 21.8594 40.2471 21.6198 40.0674 21.3153C39.8877 21.0107 39.7979 20.6613 39.7979 20.2669C39.7979 19.8725 39.8877 19.5231 40.0674 19.2186C40.2471 18.9141 40.4943 18.6769 40.8088 18.5072C41.1282 18.3325 41.4902 18.2451 41.8945 18.2451C42.254 18.2451 42.5735 18.3175 42.853 18.4623C43.1376 18.6021 43.3572 18.8117 43.512 19.0913L42.9653 19.4432C42.8356 19.2485 42.6758 19.1063 42.4861 19.0164C42.3014 18.9215 42.1017 18.8741 41.8871 18.8741C41.6275 18.8741 41.3953 18.9315 41.1907 19.0464C40.986 19.1612 40.8237 19.3234 40.7039 19.5331C40.5841 19.7378 40.5242 19.9824 40.5242 20.2669C40.5242 20.5515 40.5841 20.7986 40.7039 21.0083C40.8237 21.2179 40.986 21.3802 41.1907 21.495C41.3953 21.6098 41.6275 21.6672 41.8871 21.6672C42.1017 21.6672 42.3014 21.6223 42.4861 21.5324C42.6758 21.4376 42.8356 21.2928 42.9653 21.0981L43.512 21.4426C43.3572 21.7171 43.1376 21.9293 42.853 22.0791C42.5735 22.2238 42.254 22.2962 41.8945 22.2962Z" fill="white"/>
<path d="M37.7776 22.2962C37.4481 22.2962 37.1336 22.2513 36.8341 22.1614C36.5396 22.0716 36.3074 21.9617 36.1377 21.832L36.4372 21.2628C36.607 21.3777 36.8166 21.475 37.0662 21.5549C37.3158 21.6348 37.5704 21.6747 37.83 21.6747C38.1645 21.6747 38.4041 21.6273 38.5489 21.5324C38.6987 21.4376 38.7735 21.3053 38.7735 21.1356C38.7735 21.0107 38.7286 20.9134 38.6387 20.8435C38.5489 20.7736 38.4291 20.7212 38.2793 20.6863C38.1345 20.6513 37.9723 20.6214 37.7926 20.5964C37.6129 20.5664 37.4331 20.5315 37.2534 20.4916C37.0737 20.4466 36.909 20.3867 36.7592 20.3119C36.6095 20.232 36.4896 20.1246 36.3998 19.9899C36.3099 19.8501 36.265 19.6654 36.265 19.4357C36.265 19.1961 36.3324 18.9864 36.4672 18.8067C36.602 18.627 36.7917 18.4897 37.0363 18.3949C37.2859 18.295 37.5804 18.2451 37.9199 18.2451C38.1795 18.2451 38.4416 18.2776 38.7061 18.3425C38.9757 18.4024 39.1954 18.4897 39.3651 18.6045L39.0581 19.1737C38.8784 19.0538 38.6912 18.9715 38.4965 18.9265C38.3018 18.8816 38.1071 18.8591 37.9124 18.8591C37.5979 18.8591 37.3633 18.9116 37.2085 19.0164C37.0537 19.1162 36.9764 19.246 36.9764 19.4058C36.9764 19.5406 37.0213 19.6454 37.1112 19.7203C37.206 19.7902 37.3258 19.8451 37.4706 19.885C37.6204 19.925 37.7851 19.9599 37.9648 19.9899C38.1445 20.0148 38.3242 20.0498 38.504 20.0947C38.6837 20.1346 38.8459 20.192 38.9907 20.2669C39.1405 20.3418 39.2603 20.4466 39.3501 20.5814C39.445 20.7162 39.4924 20.8959 39.4924 21.1206C39.4924 21.3602 39.4225 21.5674 39.2827 21.7421C39.1429 21.9168 38.9458 22.0541 38.6912 22.1539C38.4366 22.2488 38.132 22.2962 37.7776 22.2962Z" fill="white"/>
<path d="M59.8596 15.8287V12.459H60.6608V15.8287H59.8596ZM58.5342 14.5182V13.7694H61.9862V14.5182H58.5342Z" fill="#FFD700"/>
<path d="M54.553 16.8099C54.2235 16.8099 53.909 16.765 53.6095 16.6751C53.315 16.5852 53.0828 16.4754 52.9131 16.3456L53.2126 15.7765C53.3823 15.8913 53.592 15.9887 53.8416 16.0686C54.0912 16.1484 54.3458 16.1884 54.6054 16.1884C54.9399 16.1884 55.1795 16.1409 55.3243 16.0461C55.474 15.9512 55.5489 15.819 55.5489 15.6492C55.5489 15.5244 55.504 15.4271 55.4141 15.3572C55.3243 15.2873 55.2045 15.2349 55.0547 15.1999C54.9099 15.165 54.7477 15.135 54.568 15.1101C54.3883 15.0801 54.2085 15.0452 54.0288 15.0052C53.8491 14.9603 53.6844 14.9004 53.5346 14.8255C53.3848 14.7457 53.265 14.6383 53.1752 14.5035C53.0853 14.3638 53.0404 14.179 53.0404 13.9494C53.0404 13.7098 53.1078 13.5001 53.2426 13.3204C53.3774 13.1407 53.5671 13.0034 53.8117 12.9086C54.0613 12.8087 54.3558 12.7588 54.6953 12.7588C54.9549 12.7588 55.2169 12.7912 55.4815 12.8561C55.7511 12.916 55.9708 13.0034 56.1405 13.1182L55.8335 13.6873C55.6538 13.5675 55.4666 13.4851 55.2719 13.4402C55.0772 13.3953 54.8825 13.3728 54.6878 13.3728C54.3733 13.3728 54.1387 13.4252 53.9839 13.5301C53.8291 13.6299 53.7518 13.7597 53.7518 13.9195C53.7518 14.0542 53.7967 14.1591 53.8865 14.234C53.9814 14.3038 54.1012 14.3588 54.246 14.3987C54.3957 14.4386 54.5605 14.4736 54.7402 14.5035C54.9199 14.5285 55.0996 14.5634 55.2793 14.6084C55.4591 14.6483 55.6213 14.7057 55.7661 14.7806C55.9158 14.8555 56.0357 14.9603 56.1255 15.0951C56.2204 15.2299 56.2678 15.4096 56.2678 15.6342C56.2678 15.8739 56.1979 16.081 56.0581 16.2558C55.9183 16.4305 55.7212 16.5678 55.4666 16.6676C55.212 16.7625 54.9074 16.8099 54.553 16.8099Z" fill="white"/>
<path d="M50.5752 16.765V12.7962H51.2641V13.8745L51.1967 13.605C51.3065 13.3304 51.4912 13.1207 51.7508 12.9759C52.0104 12.8312 52.3299 12.7588 52.7093 12.7588V13.4552C52.6794 13.4502 52.6494 13.4477 52.6195 13.4477C52.5945 13.4477 52.5695 13.4477 52.5446 13.4477C52.1602 13.4477 51.8557 13.5625 51.631 13.7922C51.4064 14.0218 51.2941 14.3538 51.2941 14.7881V16.765H50.5752Z" fill="white"/>
<path d="M47.7474 16.8099C47.348 16.8099 46.9936 16.7225 46.6841 16.5478C46.3746 16.3731 46.13 16.1335 45.9502 15.8289C45.7705 15.5194 45.6807 15.17 45.6807 14.7806C45.6807 14.3862 45.7705 14.0368 45.9502 13.7323C46.13 13.4277 46.3746 13.1906 46.6841 13.0209C46.9936 12.8462 47.348 12.7588 47.7474 12.7588C48.1418 12.7588 48.4937 12.8462 48.8032 13.0209C49.1177 13.1906 49.3623 13.4277 49.5371 13.7323C49.7168 14.0318 49.8066 14.3812 49.8066 14.7806C49.8066 15.175 49.7168 15.5244 49.5371 15.8289C49.3623 16.1335 49.1177 16.3731 48.8032 16.5478C48.4937 16.7225 48.1418 16.8099 47.7474 16.8099ZM47.7474 16.1809C48.002 16.1809 48.2291 16.1235 48.4288 16.0087C48.6335 15.8938 48.7932 15.7316 48.9081 15.5219C49.0229 15.3073 49.0803 15.0602 49.0803 14.7806C49.0803 14.496 49.0229 14.2514 48.9081 14.0468C48.7932 13.8371 48.6335 13.6748 48.4288 13.56C48.2291 13.4452 48.002 13.3878 47.7474 13.3878C47.4928 13.3878 47.2657 13.4452 47.066 13.56C46.8663 13.6748 46.7065 13.8371 46.5867 14.0468C46.4669 14.2514 46.407 14.496 46.407 14.7806C46.407 15.0602 46.4669 15.3073 46.5867 15.5219C46.7065 15.7316 46.8663 15.8938 47.066 16.0087C47.2657 16.1235 47.4928 16.1809 47.7474 16.1809Z" fill="white"/>
<path d="M43.2181 16.8099C42.8187 16.8099 42.4643 16.7225 42.1548 16.5478C41.8453 16.3731 41.6007 16.1335 41.4209 15.8289C41.2412 15.5194 41.1514 15.17 41.1514 14.7806C41.1514 14.3862 41.2412 14.0368 41.4209 13.7323C41.6007 13.4277 41.8453 13.1906 42.1548 13.0209C42.4643 12.8462 42.8187 12.7588 43.2181 12.7588C43.6125 12.7588 43.9644 12.8462 44.2739 13.0209C44.5884 13.1906 44.8331 13.4277 45.0078 13.7323C45.1875 14.0318 45.2773 14.3812 45.2773 14.7806C45.2773 15.175 45.1875 15.5244 45.0078 15.8289C44.8331 16.1335 44.5884 16.3731 44.2739 16.5478C43.9644 16.7225 43.6125 16.8099 43.2181 16.8099ZM43.2181 16.1809C43.4727 16.1809 43.6998 16.1235 43.8995 16.0087C44.1042 15.8938 44.264 15.7316 44.3788 15.5219C44.4936 15.3073 44.551 15.0602 44.551 14.7806C44.551 14.496 44.4936 14.2514 44.3788 14.0468C44.264 13.8371 44.1042 13.6748 43.8995 13.56C43.6998 13.4452 43.4727 13.3878 43.2181 13.3878C42.9635 13.3878 42.7364 13.4452 42.5367 13.56C42.337 13.6748 42.1772 13.8371 42.0574 14.0468C41.9376 14.2514 41.8777 14.496 41.8777 14.7806C41.8777 15.0602 41.9376 15.3073 42.0574 15.5219C42.1772 15.7316 42.337 15.8938 42.5367 16.0087C42.7364 16.1235 42.9635 16.1809 43.2181 16.1809Z" fill="white"/>
<path d="M38.2793 16.8101C37.8949 16.8101 37.5504 16.7253 37.2459 16.5555C36.9464 16.3858 36.7093 16.1487 36.5345 15.8442C36.3598 15.5396 36.2725 15.1852 36.2725 14.7808C36.2725 14.3765 36.3598 14.0245 36.5345 13.725C36.7093 13.4205 36.9464 13.1834 37.2459 13.0136C37.5504 12.8439 37.8949 12.759 38.2793 12.759C38.6138 12.759 38.9158 12.8339 39.1854 12.9837C39.4549 13.1334 39.6696 13.3581 39.8293 13.6576C39.9941 13.9571 40.0765 14.3316 40.0765 14.7808C40.0765 15.2301 39.9966 15.6045 39.8368 15.9041C39.6821 16.2036 39.4699 16.4307 39.2003 16.5855C38.9308 16.7353 38.6237 16.8101 38.2793 16.8101ZM38.3392 16.1811C38.5888 16.1811 38.8134 16.1237 39.0131 16.0089C39.2178 15.8941 39.3776 15.7318 39.4924 15.5222C39.6122 15.3075 39.6721 15.0604 39.6721 14.7808C39.6721 14.4963 39.6122 14.2517 39.4924 14.047C39.3776 13.8373 39.2178 13.6751 39.0131 13.5603C38.8134 13.4455 38.5888 13.388 38.3392 13.388C38.0846 13.388 37.8575 13.4455 37.6578 13.5603C37.4581 13.6751 37.2983 13.8373 37.1785 14.047C37.0587 14.2517 36.9988 14.4963 36.9988 14.7808C36.9988 15.0604 37.0587 15.3075 37.1785 15.5222C37.2983 15.7318 37.4581 15.8941 37.6578 16.0089C37.8575 16.1237 38.0846 16.1811 38.3392 16.1811ZM39.6946 16.7652V15.6944L39.7395 14.7734L39.6646 13.8523V11.209H40.3835V16.7652H39.6946Z" fill="white"/>
<path d="M27.0791 22.2952V20.995L32.4936 14.4449L32.8721 15.1526H27.1778V13.5068H34.5179V14.807L29.1034 21.3571L28.6919 20.6494H34.666V22.2952H27.0791Z" fill="white"/>
<path fill-rule="evenodd" clip-rule="evenodd" d="M23.5405 13.5067V22.295H25.5977V13.5067H23.5405Z" fill="white"/>
<path d="M24.5773 12.0585C24.1933 12.0585 23.8752 11.9378 23.6228 11.6964C23.3814 11.455 23.2607 11.1643 23.2607 10.8242C23.2607 10.4731 23.3814 10.1823 23.6228 9.95191C23.8752 9.71053 24.1933 9.58984 24.5773 9.58984C24.9614 9.58984 25.274 9.70505 25.5154 9.93545C25.7678 10.1549 25.8939 10.4347 25.8939 10.7748C25.8939 11.1368 25.7733 11.4441 25.5319 11.6964C25.2905 11.9378 24.9723 12.0585 24.5773 12.0585Z" fill="#FFD700"/>
<path d="M17.2041 22.2953V13.5069H19.1625V15.9262L18.9321 15.2185C19.1955 14.6261 19.6069 14.1762 20.1665 13.869C20.737 13.5618 21.4447 13.4082 22.2895 13.4082V15.3666C22.2017 15.3447 22.1194 15.3337 22.0426 15.3337C21.9658 15.3228 21.889 15.3173 21.8122 15.3173C21.0332 15.3173 20.4133 15.5477 19.9525 16.0085C19.4917 16.4583 19.2613 17.1331 19.2613 18.0328V22.2953H17.2041Z" fill="white"/>
<path d="M11.2865 22.4097C10.5404 22.4097 9.8766 22.2451 9.29511 21.916C8.71361 21.5868 8.2528 21.0931 7.91267 20.4348C7.58352 19.7655 7.41895 18.9207 7.41895 17.9003C7.41895 16.869 7.58901 16.0242 7.92913 15.3659C8.28022 14.7076 8.74652 14.2193 9.32802 13.9012C9.92049 13.572 10.5733 13.4074 11.2865 13.4074C12.1532 13.4074 12.9158 13.5939 13.5741 13.967C14.2433 14.34 14.77 14.8612 15.154 15.5304C15.549 16.1997 15.7465 16.9897 15.7465 17.9003C15.7465 18.811 15.549 19.6009 15.154 20.2702C14.77 20.9395 14.2433 21.4661 13.5741 21.8501C12.9158 22.2232 12.1532 22.4097 11.2865 22.4097ZM6.41504 22.2945V10.083H8.47223V15.5469L8.30765 17.8839L8.37348 20.2208V22.2945H6.41504ZM11.0561 20.6487C11.5498 20.6487 11.9887 20.539 12.3727 20.3196C12.7676 20.1002 13.0803 19.782 13.3107 19.365C13.5411 18.9481 13.6563 18.4599 13.6563 17.9003C13.6563 17.3298 13.5411 16.8416 13.3107 16.4356C13.0803 16.0187 12.7676 15.7005 12.3727 15.4811C11.9887 15.2616 11.5498 15.1519 11.0561 15.1519C10.5623 15.1519 10.118 15.2616 9.723 15.4811C9.32802 15.7005 9.01533 16.0187 8.78492 16.4356C8.55452 16.8416 8.43931 17.3298 8.43931 17.9003C8.43931 18.4599 8.55452 18.9481 8.78492 19.365C9.01533 19.782 9.32802 20.1002 9.723 20.3196C10.118 20.539 10.5623 20.6487 11.0561 20.6487Z" fill="white"/>
</svg>
