<svg width="203" height="39" viewBox="0 0 203 39" fill="none" xmlns="http://www.w3.org/2000/svg">
<path d="M101.084 15.5625L104.228 8.6185H105.211L108.365 15.5625H107.324L104.516 9.17402H104.913L102.106 15.5625H101.084ZM102.423 13.8265L102.691 13.0329H106.599L106.887 13.8265H102.423ZM109.401 15.5625V8.6185H112.109C113.009 8.6185 113.716 8.83343 114.232 9.2633C114.748 9.68655 115.006 10.2784 115.006 11.039C115.006 11.5416 114.89 11.9748 114.659 12.3385C114.427 12.6956 114.096 12.9701 113.667 13.1619C113.237 13.3536 112.718 13.4495 112.109 13.4495H109.947L110.393 12.9932V15.5625H109.401ZM114.044 15.5625L112.278 13.0428H113.339L115.125 15.5625H114.044ZM110.393 13.0924L109.947 12.6063H112.079C112.714 12.6063 113.194 12.4708 113.518 12.1996C113.848 11.9219 114.014 11.535 114.014 11.039C114.014 10.543 113.848 10.1594 113.518 9.88826C113.194 9.61711 112.714 9.48154 112.079 9.48154H109.947L110.393 8.98554V13.0924ZM119.713 15.6419C119.184 15.6419 118.695 15.5559 118.245 15.3839C117.802 15.2054 117.415 14.9574 117.085 14.6399C116.761 14.3159 116.506 13.9389 116.321 13.5091C116.136 13.0792 116.043 12.6063 116.043 12.0905C116.043 11.5747 116.136 11.1018 116.321 10.6719C116.506 10.2421 116.764 9.86842 117.095 9.55098C117.425 9.22693 117.812 8.97893 118.255 8.80698C118.705 8.62842 119.194 8.53914 119.723 8.53914C120.259 8.53914 120.752 8.63173 121.201 8.8169C121.658 8.99546 122.045 9.2633 122.362 9.62042L121.717 10.2454C121.453 9.96762 121.155 9.76261 120.824 9.63034C120.494 9.49146 120.14 9.42202 119.763 9.42202C119.373 9.42202 119.009 9.48815 118.672 9.62042C118.341 9.75269 118.053 9.93786 117.809 10.1759C117.564 10.414 117.372 10.6984 117.233 11.0291C117.101 11.3531 117.035 11.7069 117.035 12.0905C117.035 12.4741 117.101 12.8312 117.233 13.1619C117.372 13.4859 117.564 13.767 117.809 14.0051C118.053 14.2431 118.341 14.4283 118.672 14.5606C119.009 14.6928 119.373 14.759 119.763 14.759C120.14 14.759 120.494 14.6928 120.824 14.5606C121.155 14.4217 121.453 14.2101 121.717 13.9257L122.362 14.5507C122.045 14.9078 121.658 15.1789 121.201 15.3641C120.752 15.5493 120.256 15.6419 119.713 15.6419ZM128.66 15.5625V8.6185H129.652V15.5625H128.66ZM123.68 15.5625V8.6185H124.672V15.5625H123.68ZM124.573 12.4675V11.6044H128.749V12.4675H124.573ZM131.731 15.5625V8.6185H132.723V15.5625H131.731ZM136.18 15.5625V9.48154H133.8V8.6185H139.543V9.48154H137.163V15.5625H136.18ZM140.624 15.5625V8.6185H145.524V9.48154H141.616V14.6995H145.663V15.5625H140.624ZM141.527 12.4575V11.6143H145.098V12.4575H141.527ZM150.365 15.6419C149.836 15.6419 149.346 15.5559 148.897 15.3839C148.453 15.2054 148.067 14.9574 147.736 14.6399C147.412 14.3159 147.157 13.9389 146.972 13.5091C146.787 13.0792 146.694 12.6063 146.694 12.0905C146.694 11.5747 146.787 11.1018 146.972 10.6719C147.157 10.2421 147.415 9.86842 147.746 9.55098C148.076 9.22693 148.463 8.97893 148.906 8.80698C149.356 8.62842 149.846 8.53914 150.375 8.53914C150.91 8.53914 151.403 8.63173 151.853 8.8169C152.309 8.99546 152.696 9.2633 153.013 9.62042L152.369 10.2454C152.104 9.96762 151.806 9.76261 151.476 9.63034C151.145 9.49146 150.791 9.42202 150.414 9.42202C150.024 9.42202 149.66 9.48815 149.323 9.62042C148.992 9.75269 148.705 9.93786 148.46 10.1759C148.215 10.414 148.024 10.6984 147.885 11.0291C147.752 11.3531 147.686 11.7069 147.686 12.0905C147.686 12.4741 147.752 12.8312 147.885 13.1619C148.024 13.4859 148.215 13.767 148.46 14.0051C148.705 14.2431 148.992 14.4283 149.323 14.5606C149.66 14.6928 150.024 14.759 150.414 14.759C150.791 14.759 151.145 14.6928 151.476 14.5606C151.806 14.4217 152.104 14.2101 152.369 13.9257L153.013 14.5507C152.696 14.9078 152.309 15.1789 151.853 15.3641C151.403 15.5493 150.907 15.6419 150.365 15.6419ZM155.546 15.5625V9.48154H153.165V8.6185H158.909V9.48154H156.528V15.5625H155.546ZM162.74 15.6419C161.827 15.6419 161.11 15.3806 160.587 14.8582C160.065 14.3357 159.804 13.5719 159.804 12.5667V8.6185H160.796V12.527C160.796 13.3007 160.964 13.8662 161.302 14.2233C161.645 14.5804 162.128 14.759 162.75 14.759C163.378 14.759 163.861 14.5804 164.198 14.2233C164.542 13.8662 164.714 13.3007 164.714 12.527V8.6185H165.676V12.5667C165.676 13.5719 165.415 14.3357 164.893 14.8582C164.377 15.3806 163.659 15.6419 162.74 15.6419ZM167.71 15.5625V8.6185H170.418C171.318 8.6185 172.025 8.83343 172.541 9.2633C173.057 9.68655 173.315 10.2784 173.315 11.039C173.315 11.5416 173.199 11.9748 172.968 12.3385C172.736 12.6956 172.406 12.9701 171.976 13.1619C171.546 13.3536 171.027 13.4495 170.418 13.4495H168.256L168.702 12.9932V15.5625H167.71ZM172.353 15.5625L170.587 13.0428H171.648L173.434 15.5625H172.353ZM168.702 13.0924L168.256 12.6063H170.388C171.023 12.6063 171.503 12.4708 171.827 12.1996C172.158 11.9219 172.323 11.535 172.323 11.039C172.323 10.543 172.158 10.1594 171.827 9.88826C171.503 9.61711 171.023 9.48154 170.388 9.48154H168.256L168.702 8.98554V13.0924ZM173.866 15.5625L177.011 8.6185H177.993L181.147 15.5625H180.106L177.298 9.17402H177.695L174.888 15.5625H173.866ZM175.205 13.8265L175.473 13.0329H179.382L179.669 13.8265H175.205ZM182.183 15.5625V8.6185H183.175V14.6995H186.935V15.5625H182.183ZM102.135 29.5625V22.6185H105.25C106.05 22.6185 106.665 22.7805 107.095 23.1046C107.525 23.422 107.74 23.8585 107.74 24.414C107.74 24.791 107.654 25.1084 107.482 25.3663C107.317 25.6243 107.092 25.8227 106.808 25.9615C106.523 26.1004 106.216 26.1699 105.885 26.1699L106.064 25.8723C106.46 25.8723 106.811 25.9417 107.115 26.0806C107.419 26.2195 107.661 26.4245 107.839 26.6956C108.018 26.9602 108.107 27.2908 108.107 27.6876C108.107 28.2828 107.882 28.7458 107.433 29.0764C106.99 29.4005 106.328 29.5625 105.449 29.5625H102.135ZM103.127 28.759H105.409C105.958 28.759 106.378 28.6664 106.669 28.4812C106.96 28.296 107.105 28.0051 107.105 27.6083C107.105 27.2048 106.96 26.9106 106.669 26.7254C106.378 26.5402 105.958 26.4476 105.409 26.4476H103.038V25.6441H105.161C105.664 25.6441 106.054 25.5515 106.332 25.3663C106.609 25.1812 106.748 24.9034 106.748 24.5331C106.748 24.1627 106.609 23.885 106.332 23.6998C106.054 23.5146 105.664 23.422 105.161 23.422H103.127V28.759ZM112.52 29.6419C111.607 29.6419 110.89 29.3806 110.367 28.8582C109.845 28.3357 109.584 27.5719 109.584 26.5667V22.6185H110.576V26.527C110.576 27.3007 110.744 27.8662 111.082 28.2233C111.425 28.5804 111.908 28.759 112.53 28.759C113.158 28.759 113.641 28.5804 113.978 28.2233C114.322 27.8662 114.494 27.3007 114.494 26.527V22.6185H115.456V26.5667C115.456 27.5719 115.195 28.3357 114.673 28.8582C114.157 29.3806 113.439 29.6419 112.52 29.6419ZM117.49 29.5625V22.6185H118.482V29.5625H117.49ZM120.561 29.5625V22.6185H121.553V28.6995H125.313V29.5625H120.561ZM126.451 29.5625V22.6185H129.377C130.118 22.6185 130.769 22.764 131.332 23.055C131.9 23.346 132.34 23.7527 132.651 24.2751C132.968 24.7976 133.127 25.4027 133.127 26.0905C133.127 26.7783 132.968 27.3834 132.651 27.9059C132.34 28.4283 131.9 28.835 131.332 29.126C130.769 29.417 130.118 29.5625 129.377 29.5625H126.451ZM127.443 28.6995H129.318C129.893 28.6995 130.389 28.5903 130.806 28.3721C131.229 28.1539 131.556 27.8496 131.788 27.4595C132.019 27.0627 132.135 26.6063 132.135 26.0905C132.135 25.568 132.019 25.1117 131.788 24.7215C131.556 24.3314 131.229 24.0271 130.806 23.8089C130.389 23.5907 129.893 23.4815 129.318 23.4815H127.443V28.6995ZM134.647 29.5625V22.6185H135.639V29.5625H134.647ZM137.718 29.5625V22.6185H138.531L143.124 28.3225H142.697V22.6185H143.689V29.5625H142.876L138.283 23.8585H138.71V29.5625H137.718ZM148.903 29.6419C148.367 29.6419 147.874 29.5559 147.424 29.3839C146.975 29.2054 146.585 28.9574 146.254 28.6399C145.923 28.3159 145.665 27.9389 145.48 27.5091C145.295 27.0792 145.202 26.6063 145.202 26.0905C145.202 25.5747 145.295 25.1018 145.48 24.6719C145.665 24.2421 145.923 23.8684 146.254 23.551C146.591 23.2269 146.985 22.9789 147.434 22.807C147.884 22.6284 148.38 22.5391 148.922 22.5391C149.471 22.5391 149.974 22.6284 150.43 22.807C150.887 22.9855 151.273 23.2534 151.591 23.6105L150.976 24.2255C150.691 23.9478 150.381 23.7461 150.043 23.6204C149.713 23.4882 149.352 23.422 148.962 23.422C148.565 23.422 148.195 23.4882 147.851 23.6204C147.514 23.7527 147.219 23.9379 146.968 24.1759C146.723 24.414 146.532 24.6984 146.393 25.0291C146.261 25.3531 146.194 25.7069 146.194 26.0905C146.194 26.4675 146.261 26.8213 146.393 27.1519C146.532 27.476 146.723 27.7604 146.968 28.0051C147.219 28.2431 147.514 28.4283 147.851 28.5606C148.188 28.6928 148.555 28.759 148.952 28.759C149.323 28.759 149.676 28.7028 150.014 28.5903C150.358 28.4713 150.675 28.2762 150.966 28.0051L151.531 28.759C151.187 29.05 150.784 29.2715 150.321 29.4236C149.865 29.5691 149.392 29.6419 148.903 29.6419ZM151.531 28.759L150.579 28.63V26.0508H151.531V28.759ZM158.118 29.6419C157.589 29.6419 157.083 29.5625 156.601 29.4038C156.118 29.2384 155.738 29.0268 155.46 28.7689L155.827 27.9951C156.091 28.2266 156.429 28.4184 156.839 28.5705C157.249 28.7226 157.675 28.7987 158.118 28.7987C158.522 28.7987 158.849 28.7524 159.1 28.6598C159.352 28.5672 159.537 28.4415 159.656 28.2828C159.775 28.1175 159.835 27.9323 159.835 27.7273C159.835 27.4892 159.755 27.2974 159.596 27.1519C159.444 27.0064 159.243 26.8907 158.991 26.8047C158.747 26.7122 158.476 26.6328 158.178 26.5667C157.88 26.5005 157.579 26.4245 157.275 26.3385C156.978 26.2459 156.703 26.1302 156.452 25.9913C156.207 25.8524 156.009 25.6672 155.857 25.4358C155.705 25.1977 155.628 24.8935 155.628 24.5231C155.628 24.166 155.721 23.8387 155.906 23.5411C156.098 23.2368 156.389 22.9955 156.779 22.8169C157.176 22.6317 157.679 22.5391 158.287 22.5391C158.69 22.5391 159.091 22.592 159.487 22.6979C159.884 22.8037 160.228 22.9558 160.519 23.1542L160.192 23.9478C159.894 23.7494 159.58 23.6072 159.249 23.5212C158.919 23.4286 158.598 23.3823 158.287 23.3823C157.897 23.3823 157.576 23.4319 157.325 23.5311C157.074 23.6303 156.888 23.7626 156.769 23.9279C156.657 24.0933 156.601 24.2784 156.601 24.4835C156.601 24.7282 156.677 24.9232 156.829 25.0687C156.988 25.2142 157.189 25.33 157.434 25.4159C157.685 25.5019 157.96 25.5813 158.257 25.654C158.555 25.7202 158.852 25.7962 159.15 25.8822C159.454 25.9682 159.729 26.0806 159.973 26.2195C160.225 26.3583 160.426 26.5435 160.579 26.775C160.731 27.0064 160.807 27.304 160.807 27.6678C160.807 28.0183 160.711 28.3456 160.519 28.6499C160.327 28.9475 160.03 29.1888 159.626 29.374C159.229 29.5526 158.727 29.6419 158.118 29.6419ZM163.787 29.5625V26.9039L164.015 27.519L161.029 22.6185H162.091L164.601 26.7551H164.025L166.545 22.6185H167.527L164.551 27.519L164.769 26.9039V29.5625H163.787ZM170.412 29.6419C169.883 29.6419 169.377 29.5625 168.894 29.4038C168.411 29.2384 168.031 29.0268 167.753 28.7689L168.12 27.9951C168.385 28.2266 168.722 28.4184 169.132 28.5705C169.542 28.7226 169.969 28.7987 170.412 28.7987C170.815 28.7987 171.143 28.7524 171.394 28.6598C171.645 28.5672 171.83 28.4415 171.949 28.2828C172.068 28.1175 172.128 27.9323 172.128 27.7273C172.128 27.4892 172.049 27.2974 171.89 27.1519C171.738 27.0064 171.536 26.8907 171.285 26.8047C171.04 26.7122 170.769 26.6328 170.471 26.5667C170.174 26.5005 169.873 26.4245 169.569 26.3385C169.271 26.2459 168.997 26.1302 168.745 25.9913C168.501 25.8524 168.302 25.6672 168.15 25.4358C167.998 25.1977 167.922 24.8935 167.922 24.5231C167.922 24.166 168.015 23.8387 168.2 23.5411C168.391 23.2368 168.682 22.9955 169.073 22.8169C169.469 22.6317 169.972 22.5391 170.58 22.5391C170.984 22.5391 171.384 22.592 171.781 22.6979C172.178 22.8037 172.521 22.9558 172.812 23.1542L172.485 23.9478C172.188 23.7494 171.873 23.6072 171.543 23.5212C171.212 23.4286 170.891 23.3823 170.58 23.3823C170.19 23.3823 169.87 23.4319 169.618 23.5311C169.367 23.6303 169.182 23.7626 169.063 23.9279C168.95 24.0933 168.894 24.2784 168.894 24.4835C168.894 24.7282 168.97 24.9232 169.122 25.0687C169.281 25.2142 169.483 25.33 169.727 25.4159C169.979 25.5019 170.253 25.5813 170.551 25.654C170.848 25.7202 171.146 25.7962 171.444 25.8822C171.748 25.9682 172.022 26.0806 172.267 26.2195C172.518 26.3583 172.72 26.5435 172.872 26.775C173.024 27.0064 173.1 27.304 173.1 27.6678C173.1 28.0183 173.004 28.3456 172.812 28.6499C172.621 28.9475 172.323 29.1888 171.92 29.374C171.523 29.5526 171.02 29.6419 170.412 29.6419ZM175.831 29.5625V23.4815H173.451V22.6185H179.194V23.4815H176.814V29.5625H175.831ZM180.275 29.5625V22.6185H185.175V23.4815H181.267V28.6995H185.314V29.5625H180.275ZM181.177 26.4575V25.6143H184.749V26.4575H181.177ZM186.92 29.5625V22.6185H187.734L190.849 27.8662H190.412L193.487 22.6185H194.301L194.311 29.5625H193.358L193.349 24.1164H193.577L190.839 28.7193H190.382L187.625 24.1164H187.873V29.5625H186.92ZM198.418 29.6419C197.889 29.6419 197.383 29.5625 196.901 29.4038C196.418 29.2384 196.038 29.0268 195.76 28.7689L196.127 27.9951C196.391 28.2266 196.729 28.4184 197.139 28.5705C197.549 28.7226 197.975 28.7987 198.418 28.7987C198.822 28.7987 199.149 28.7524 199.4 28.6598C199.652 28.5672 199.837 28.4415 199.956 28.2828C200.075 28.1175 200.135 27.9323 200.135 27.7273C200.135 27.4892 200.055 27.2974 199.896 27.1519C199.744 27.0064 199.543 26.8907 199.291 26.8047C199.047 26.7122 198.776 26.6328 198.478 26.5667C198.18 26.5005 197.879 26.4245 197.575 26.3385C197.278 26.2459 197.003 26.1302 196.752 25.9913C196.507 25.8524 196.309 25.6672 196.157 25.4358C196.005 25.1977 195.928 24.8935 195.928 24.5231C195.928 24.166 196.021 23.8387 196.206 23.5411C196.398 23.2368 196.689 22.9955 197.079 22.8169C197.476 22.6317 197.979 22.5391 198.587 22.5391C198.99 22.5391 199.391 22.592 199.787 22.6979C200.184 22.8037 200.528 22.9558 200.819 23.1542L200.492 23.9478C200.194 23.7494 199.88 23.6072 199.549 23.5212C199.219 23.4286 198.898 23.3823 198.587 23.3823C198.197 23.3823 197.876 23.4319 197.625 23.5311C197.374 23.6303 197.188 23.7626 197.069 23.9279C196.957 24.0933 196.901 24.2784 196.901 24.4835C196.901 24.7282 196.977 24.9232 197.129 25.0687C197.288 25.2142 197.489 25.33 197.734 25.4159C197.985 25.5019 198.26 25.5813 198.557 25.654C198.855 25.7202 199.152 25.7962 199.45 25.8822C199.754 25.9682 200.029 26.0806 200.273 26.2195C200.525 26.3583 200.726 26.5435 200.879 26.775C201.031 27.0064 201.107 27.304 201.107 27.6678C201.107 28.0183 201.011 28.3456 200.819 28.6499C200.627 28.9475 200.33 29.1888 199.926 29.374C199.529 29.5526 199.027 29.6419 198.418 29.6419Z" fill="#AAAAAA"/>
<line x1="90.0412" y1="38.3278" x2="89.9348" y2="0.0015228" stroke="#1DD45A" stroke-width="1.152"/>
<path d="M75.9986 32.2498C74.0274 32.2498 72.5042 31.7458 71.429 30.7378C70.3538 29.7074 69.8162 28.1954 69.8162 26.2018V10.1074H74.0162V26.101C74.0162 26.9522 74.229 27.613 74.6546 28.0834C75.1026 28.5538 75.7186 28.789 76.5026 28.789C77.4434 28.789 78.2274 28.5426 78.8546 28.0498L80.0306 31.0402C79.5378 31.4434 78.933 31.7458 78.2162 31.9474C77.4994 32.149 76.7602 32.2498 75.9986 32.2498ZM66.8594 17.4322V14.0722H78.821V17.4322H66.8594Z" fill="white"/>
<path fill-rule="evenodd" clip-rule="evenodd" d="M60.5439 14.072V32.0144H64.7439V14.072H60.5439Z" fill="white"/>
<path d="M62.6607 11.1152C61.8767 11.1152 61.2271 10.8688 60.7119 10.376C60.2191 9.8832 59.9727 9.2896 59.9727 8.59519C59.9727 7.87839 60.2191 7.28479 60.7119 6.81439C61.2271 6.3216 61.8767 6.0752 62.6607 6.0752C63.4447 6.0752 64.0831 6.3104 64.5759 6.78079C65.0911 7.2288 65.3487 7.8 65.3487 8.49439C65.3487 9.23359 65.1023 9.86079 64.6095 10.376C64.1167 10.8688 63.4671 11.1152 62.6607 11.1152Z" fill="#1DD45A"/>
<path d="M42.1875 32.0147V29.3603L53.2419 15.9875L54.0147 17.4323H42.3891V14.0723H57.3747V16.7267L46.3203 30.0995L45.4803 28.6547H57.6771V32.0147H42.1875Z" fill="white"/>
<path fill-rule="evenodd" clip-rule="evenodd" d="M34.9618 14.072V32.0144H39.1618V14.072H34.9618Z" fill="white"/>
<path d="M37.0786 11.1152C36.2946 11.1152 35.645 10.8688 35.1298 10.376C34.637 9.8832 34.3906 9.2896 34.3906 8.59519C34.3906 7.87839 34.637 7.28479 35.1298 6.81439C35.645 6.3216 36.2946 6.0752 37.0786 6.0752C37.8626 6.0752 38.501 6.3104 38.9938 6.78079C39.509 7.2288 39.7666 7.8 39.7666 8.49439C39.7666 9.23359 39.5202 9.86079 39.0274 10.376C38.5346 10.8688 37.885 11.1152 37.0786 11.1152Z" fill="#1DD45A"/>
<path d="M22.0234 32.0151V14.0727H26.0218V19.0119L25.5514 17.5671C26.089 16.3575 26.929 15.4391 28.0714 14.8119C29.2362 14.1847 30.681 13.8711 32.4058 13.8711V17.8695C32.2266 17.8247 32.0586 17.8023 31.9018 17.8023C31.745 17.7799 31.5882 17.7687 31.4314 17.7687C29.841 17.7687 28.5754 18.2391 27.6346 19.1799C26.6938 20.0983 26.2234 21.4759 26.2234 23.3127V32.0151H22.0234Z" fill="white"/>
<path d="M9.9456 32.2504C8.4224 32.2504 7.0672 31.9144 5.88 31.2424C4.6928 30.5704 3.752 29.5624 3.0576 28.2184C2.3856 26.852 2.0496 25.1272 2.0496 23.044C2.0496 20.9384 2.3968 19.2136 3.0912 17.8696C3.808 16.5256 4.76 15.5288 5.9472 14.8792C7.1568 14.2072 8.4896 13.8712 9.9456 13.8712C11.7152 13.8712 13.272 14.252 14.616 15.0136C15.9824 15.7752 17.0576 16.8392 17.8416 18.2056C18.648 19.572 19.0512 21.1848 19.0512 23.044C19.0512 24.9032 18.648 26.516 17.8416 27.8824C17.0576 29.2488 15.9824 30.324 14.616 31.108C13.272 31.8696 11.7152 32.2504 9.9456 32.2504ZM0 32.0152V7.08398H4.2V18.2392L3.864 23.0104L3.9984 27.7816V32.0152H0ZM9.4752 28.6552C10.4832 28.6552 11.3792 28.4312 12.1632 27.9832C12.9696 27.5352 13.608 26.8856 14.0784 26.0344C14.5488 25.1832 14.784 24.1864 14.784 23.044C14.784 21.8792 14.5488 20.8824 14.0784 20.0536C13.608 19.2024 12.9696 18.5528 12.1632 18.1048C11.3792 17.6568 10.4832 17.4328 9.4752 17.4328C8.4672 17.4328 7.56 17.6568 6.7536 18.1048C5.9472 18.5528 5.3088 19.2024 4.8384 20.0536C4.368 20.8824 4.1328 21.8792 4.1328 23.044C4.1328 24.1864 4.368 25.1832 4.8384 26.0344C5.3088 26.8856 5.9472 27.5352 6.7536 27.9832C7.56 28.4312 8.4672 28.6552 9.4752 28.6552Z" fill="white"/>
</svg>
