<svg width="404" height="77" viewBox="0 0 404 77" fill="none" xmlns="http://www.w3.org/2000/svg">
<path d="M202.168 32.126L208.457 18.238H210.421L216.73 32.126H214.647L209.032 19.349H209.826L204.211 32.126H202.168ZM204.846 28.654L205.382 27.0668H213.199L213.774 28.654H204.846ZM218.802 32.126V18.238H224.218C226.017 18.238 227.432 18.6678 228.464 19.5276C229.496 20.3741 230.012 21.5579 230.012 23.0789C230.012 24.0842 229.78 24.9505 229.317 25.678C228.854 26.3922 228.193 26.9411 227.333 27.3247C226.473 27.7083 225.435 27.9001 224.218 27.9001H219.893L220.786 26.9874V32.126H218.802ZM228.087 32.126L224.556 27.0866H226.678L230.25 32.126H228.087ZM220.786 27.1858L219.893 26.2137H224.159C225.429 26.2137 226.387 25.9425 227.036 25.4002C227.697 24.8447 228.028 24.0709 228.028 23.0789C228.028 22.0869 227.697 21.3198 227.036 20.7775C226.387 20.2352 225.429 19.9641 224.159 19.9641H219.893L220.786 18.9721V27.1858ZM239.427 32.2847C238.369 32.2847 237.39 32.1127 236.491 31.7689C235.604 31.4117 234.831 30.9157 234.169 30.2809C233.521 29.6327 233.012 28.8788 232.642 28.0191C232.271 27.1594 232.086 26.2137 232.086 25.182C232.086 24.1503 232.271 23.2046 232.642 22.3449C233.012 21.4851 233.528 20.7378 234.189 20.1029C234.85 19.4548 235.624 18.9588 236.51 18.6149C237.41 18.2578 238.389 18.0793 239.447 18.0793C240.518 18.0793 241.503 18.2644 242.403 18.6348C243.316 18.9919 244.089 19.5276 244.724 20.2418L243.435 21.4917C242.905 20.9362 242.31 20.5262 241.649 20.2617C240.988 19.9839 240.28 19.845 239.526 19.845C238.746 19.845 238.018 19.9773 237.344 20.2418C236.682 20.5063 236.107 20.8767 235.618 21.3529C235.128 21.829 234.745 22.3978 234.467 23.0591C234.202 23.7072 234.07 24.4148 234.07 25.182C234.07 25.9491 234.202 26.6634 234.467 27.3247C234.745 27.9728 235.128 28.5349 235.618 29.0111C236.107 29.4873 236.682 29.8576 237.344 30.1221C238.018 30.3867 238.746 30.5189 239.526 30.5189C240.28 30.5189 240.988 30.3867 241.649 30.1221C242.31 29.8444 242.905 29.4211 243.435 28.8524L244.724 30.1023C244.089 30.8165 243.316 31.3588 242.403 31.7292C241.503 32.0995 240.511 32.2847 239.427 32.2847ZM257.32 32.126V18.238H259.304V32.126H257.32ZM247.361 32.126V18.238H249.345V32.126H247.361ZM249.146 25.9359V24.2098H257.499V25.9359H249.146ZM263.461 32.126V18.238H265.445V32.126H263.461ZM272.361 32.126V19.9641H267.599V18.238H279.087V19.9641H274.325V32.126H272.361ZM281.248 32.126V18.238H291.049V19.9641H283.232V30.3999H291.326V32.126H281.248ZM283.053 25.9161V24.2297H290.195V25.9161H283.053ZM300.729 32.2847C299.671 32.2847 298.692 32.1127 297.793 31.7689C296.907 31.4117 296.133 30.9157 295.472 30.2809C294.824 29.6327 294.314 28.8788 293.944 28.0191C293.574 27.1594 293.389 26.2137 293.389 25.182C293.389 24.1503 293.574 23.2046 293.944 22.3449C294.314 21.4851 294.83 20.7378 295.492 20.1029C296.153 19.4548 296.927 18.9588 297.813 18.6149C298.712 18.2578 299.691 18.0793 300.749 18.0793C301.821 18.0793 302.806 18.2644 303.705 18.6348C304.618 18.9919 305.392 19.5276 306.027 20.2418L304.737 21.4917C304.208 20.9362 303.613 20.5262 302.951 20.2617C302.29 19.9839 301.582 19.845 300.829 19.845C300.048 19.845 299.321 19.9773 298.646 20.2418C297.985 20.5063 297.409 20.8767 296.92 21.3529C296.431 21.829 296.047 22.3978 295.769 23.0591C295.505 23.7072 295.373 24.4148 295.373 25.182C295.373 25.9491 295.505 26.6634 295.769 27.3247C296.047 27.9728 296.431 28.5349 296.92 29.0111C297.409 29.4873 297.985 29.8576 298.646 30.1221C299.321 30.3867 300.048 30.5189 300.829 30.5189C301.582 30.5189 302.29 30.3867 302.951 30.1221C303.613 29.8444 304.208 29.4211 304.737 28.8524L306.027 30.1023C305.392 30.8165 304.618 31.3588 303.705 31.7292C302.806 32.0995 301.814 32.2847 300.729 32.2847ZM311.092 32.126V19.9641H306.33V18.238H317.817V19.9641H313.056V32.126H311.092ZM325.48 32.2847C323.655 32.2847 322.22 31.7622 321.175 30.7173C320.13 29.6724 319.607 28.1447 319.607 26.1343V18.238H321.591V26.0549C321.591 27.6025 321.929 28.7333 322.603 29.4476C323.291 30.1618 324.256 30.5189 325.5 30.5189C326.756 30.5189 327.722 30.1618 328.396 29.4476C329.084 28.7333 329.428 27.6025 329.428 26.0549V18.238H331.353V26.1343C331.353 28.1447 330.83 29.6724 329.785 30.7173C328.754 31.7622 327.318 32.2847 325.48 32.2847ZM335.42 32.126V18.238H340.836C342.635 18.238 344.05 18.6678 345.082 19.5276C346.114 20.3741 346.63 21.5579 346.63 23.0789C346.63 24.0842 346.398 24.9505 345.935 25.678C345.472 26.3922 344.811 26.9411 343.951 27.3247C343.092 27.7083 342.053 27.9001 340.836 27.9001H336.511L337.404 26.9874V32.126H335.42ZM344.705 32.126L341.174 27.0866H343.297L346.868 32.126H344.705ZM337.404 27.1858L336.511 26.2137H340.777C342.047 26.2137 343.006 25.9425 343.654 25.4002C344.315 24.8447 344.646 24.0709 344.646 23.0789C344.646 22.0869 344.315 21.3198 343.654 20.7775C343.006 20.2352 342.047 19.9641 340.777 19.9641H336.511L337.404 18.9721V27.1858ZM347.732 32.126L354.021 18.238H355.985L362.295 32.126H360.211L354.597 19.349H355.39L349.776 32.126H347.732ZM350.41 28.654L350.946 27.0668H358.763L359.338 28.654H350.41ZM364.366 32.126V18.238H366.35V30.3999H373.87V32.126H364.366ZM204.271 59.126V45.238H210.5C212.101 45.238 213.331 45.562 214.191 46.2101C215.05 46.845 215.48 47.718 215.48 48.829C215.48 49.5829 215.308 50.2178 214.964 50.7337C214.634 51.2495 214.184 51.6463 213.615 51.9241C213.047 52.2018 212.432 52.3407 211.77 52.3407L212.127 51.7455C212.921 51.7455 213.622 51.8844 214.23 52.1621C214.839 52.4399 215.322 52.8499 215.679 53.3922C216.036 53.9213 216.214 54.5826 216.214 55.3762C216.214 56.5666 215.765 57.4925 214.865 58.1538C213.979 58.8019 212.656 59.126 210.897 59.126H204.271ZM206.255 57.5189H210.818C211.916 57.5189 212.756 57.3338 213.338 56.9634C213.92 56.5931 214.211 56.0111 214.211 55.2175C214.211 54.4107 213.92 53.8221 213.338 53.4517C212.756 53.0814 211.916 52.8962 210.818 52.8962H206.076V51.2892H210.322C211.327 51.2892 212.108 51.104 212.663 50.7337C213.219 50.3633 213.496 49.8078 213.496 49.0671C213.496 48.3264 213.219 47.7709 212.663 47.4005C212.108 47.0302 211.327 46.845 210.322 46.845H206.255V57.5189ZM225.04 59.2847C223.215 59.2847 221.78 58.7622 220.735 57.7173C219.69 56.6724 219.167 55.1447 219.167 53.1343V45.238H221.151V53.0549C221.151 54.6025 221.489 55.7333 222.163 56.4476C222.851 57.1618 223.816 57.5189 225.06 57.5189C226.316 57.5189 227.282 57.1618 227.956 56.4476C228.644 55.7333 228.988 54.6025 228.988 53.0549V45.238H230.913V53.1343C230.913 55.1447 230.39 56.6724 229.345 57.7173C228.314 58.7622 226.878 59.2847 225.04 59.2847ZM234.98 59.126V45.238H236.964V59.126H234.98ZM241.122 59.126V45.238H243.106V57.3999H250.625V59.126H241.122ZM252.902 59.126V45.238H258.755C260.236 45.238 261.539 45.529 262.663 46.1109C263.801 46.6929 264.68 47.5063 265.302 48.5513C265.937 49.5962 266.254 50.8064 266.254 52.182C266.254 53.5575 265.937 54.7678 265.302 55.8127C264.68 56.8576 263.801 57.671 262.663 58.253C261.539 58.835 260.236 59.126 258.755 59.126H252.902ZM254.886 57.3999H258.636C259.786 57.3999 260.778 57.1817 261.612 56.7452C262.458 56.3087 263.113 55.7003 263.576 54.9199C264.039 54.1263 264.27 53.2137 264.27 52.182C264.27 51.1371 264.039 50.2244 263.576 49.4441C263.113 48.6637 262.458 48.0553 261.612 47.6188C260.778 47.1823 259.786 46.9641 258.636 46.9641H254.886V57.3999ZM269.293 59.126V45.238H271.277V59.126H269.293ZM275.435 59.126V45.238H277.062L286.248 56.646H285.395V45.238H287.379V59.126H285.752L276.566 47.718H277.419V59.126H275.435ZM297.805 59.2847C296.734 59.2847 295.748 59.1127 294.849 58.7689C293.95 58.4117 293.169 57.9157 292.508 57.2809C291.847 56.6327 291.331 55.8788 290.96 55.0191C290.59 54.1594 290.405 53.2137 290.405 52.182C290.405 51.1503 290.59 50.2046 290.96 49.3449C291.331 48.4851 291.847 47.7378 292.508 47.1029C293.182 46.4548 293.969 45.9588 294.869 45.6149C295.768 45.2578 296.76 45.0793 297.845 45.0793C298.943 45.0793 299.948 45.2578 300.861 45.6149C301.773 45.9721 302.547 46.5077 303.182 47.222L301.952 48.4521C301.383 47.8965 300.761 47.4931 300.087 47.2418C299.425 46.9773 298.705 46.845 297.924 46.845C297.131 46.845 296.39 46.9773 295.702 47.2418C295.028 47.5063 294.439 47.8767 293.936 48.3529C293.447 48.829 293.063 49.3978 292.786 50.0591C292.521 50.7072 292.389 51.4148 292.389 52.182C292.389 52.9359 292.521 53.6435 292.786 54.3049C293.063 54.953 293.447 55.5217 293.936 56.0111C294.439 56.4873 295.028 56.8576 295.702 57.1221C296.377 57.3867 297.111 57.5189 297.904 57.5189C298.645 57.5189 299.353 57.4065 300.027 57.1817C300.715 56.9436 301.35 56.5534 301.932 56.0111L303.063 57.5189C302.375 58.1009 301.568 58.544 300.642 58.8482C299.73 59.1392 298.784 59.2847 297.805 59.2847ZM303.063 57.5189L301.158 57.261V52.1026H303.063V57.5189ZM316.237 59.2847C315.179 59.2847 314.167 59.126 313.201 58.8085C312.236 58.4779 311.475 58.0546 310.92 57.5388L311.654 55.9913C312.183 56.4542 312.857 56.8378 313.677 57.142C314.498 57.4462 315.351 57.5983 316.237 57.5983C317.044 57.5983 317.698 57.5057 318.201 57.3205C318.704 57.1354 319.074 56.8841 319.312 56.5666C319.55 56.2359 319.669 55.8656 319.669 55.4556C319.669 54.9794 319.51 54.5958 319.193 54.3049C318.889 54.0139 318.485 53.7824 317.983 53.6105C317.493 53.4253 316.951 53.2666 316.356 53.1343C315.761 53.002 315.159 52.8499 314.55 52.678C313.955 52.4928 313.406 52.2613 312.904 51.9836C312.414 51.7058 312.018 51.3355 311.713 50.8725C311.409 50.3964 311.257 49.7879 311.257 49.0473C311.257 48.333 311.442 47.6783 311.812 47.0831C312.196 46.4747 312.778 45.9919 313.558 45.6348C314.352 45.2644 315.357 45.0793 316.574 45.0793C317.381 45.0793 318.181 45.1851 318.975 45.3967C319.768 45.6083 320.456 45.9125 321.038 46.3093L320.383 47.8965C319.788 47.4997 319.16 47.2154 318.499 47.0434C317.837 46.8582 317.196 46.7657 316.574 46.7657C315.794 46.7657 315.152 46.8649 314.65 47.0633C314.147 47.2617 313.777 47.5262 313.539 47.8569C313.314 48.1875 313.201 48.5579 313.201 48.9679C313.201 49.4573 313.353 49.8475 313.658 50.1385C313.975 50.4294 314.378 50.6609 314.868 50.8329C315.37 51.0048 315.919 51.1635 316.515 51.309C317.11 51.4413 317.705 51.5934 318.3 51.7653C318.909 51.9373 319.458 52.1621 319.947 52.4399C320.45 52.7177 320.853 53.088 321.157 53.5509C321.461 54.0139 321.613 54.6091 321.613 55.3365C321.613 56.0375 321.422 56.6923 321.038 57.3007C320.655 57.8959 320.059 58.3787 319.252 58.749C318.459 59.1061 317.454 59.2847 316.237 59.2847ZM327.574 59.126V53.8089L328.031 55.0389L322.059 45.238H324.182L329.201 53.5113H328.05L333.09 45.238H335.054L329.102 55.0389L329.538 53.8089V59.126H327.574ZM340.824 59.2847C339.766 59.2847 338.754 59.126 337.788 58.8085C336.823 58.4779 336.062 58.0546 335.507 57.5388L336.241 55.9913C336.77 56.4542 337.444 56.8378 338.264 57.142C339.084 57.4462 339.938 57.5983 340.824 57.5983C341.631 57.5983 342.285 57.5057 342.788 57.3205C343.29 57.1354 343.661 56.8841 343.899 56.5666C344.137 56.2359 344.256 55.8656 344.256 55.4556C344.256 54.9794 344.097 54.5958 343.78 54.3049C343.476 54.0139 343.072 53.7824 342.57 53.6105C342.08 53.4253 341.538 53.2666 340.943 53.1343C340.348 53.002 339.746 52.8499 339.137 52.678C338.542 52.4928 337.993 52.2613 337.491 51.9836C337.001 51.7058 336.604 51.3355 336.3 50.8725C335.996 50.3964 335.844 49.7879 335.844 49.0473C335.844 48.333 336.029 47.6783 336.399 47.0831C336.783 46.4747 337.365 45.9919 338.145 45.6348C338.939 45.2644 339.944 45.0793 341.161 45.0793C341.968 45.0793 342.768 45.1851 343.562 45.3967C344.355 45.6083 345.043 45.9125 345.625 46.3093L344.97 47.8965C344.375 47.4997 343.747 47.2154 343.085 47.0434C342.424 46.8582 341.783 46.7657 341.161 46.7657C340.381 46.7657 339.739 46.8649 339.236 47.0633C338.734 47.2617 338.364 47.5262 338.125 47.8569C337.901 48.1875 337.788 48.5579 337.788 48.9679C337.788 49.4573 337.94 49.8475 338.244 50.1385C338.562 50.4294 338.965 50.6609 339.455 50.8329C339.957 51.0048 340.506 51.1635 341.101 51.309C341.697 51.4413 342.292 51.5934 342.887 51.7653C343.495 51.9373 344.044 52.1621 344.534 52.4399C345.036 52.7177 345.44 53.088 345.744 53.5509C346.048 54.0139 346.2 54.6091 346.2 55.3365C346.2 56.0375 346.009 56.6923 345.625 57.3007C345.241 57.8959 344.646 58.3787 343.839 58.749C343.046 59.1061 342.041 59.2847 340.824 59.2847ZM351.663 59.126V46.9641H346.901V45.238H358.389V46.9641H353.627V59.126H351.663ZM360.549 59.126V45.238H370.35V46.9641H362.533V57.3999H370.628V59.126H360.549ZM362.355 52.9161V51.2297H369.497V52.9161H362.355ZM373.841 59.126V45.238H375.468L381.697 55.7333H380.824L386.975 45.238H388.602L388.622 59.126H386.717L386.697 48.2338H387.153L381.678 57.4396H380.765L375.249 48.2338H375.745V59.126H373.841ZM396.837 59.2847C395.779 59.2847 394.767 59.126 393.801 58.8085C392.836 58.4779 392.075 58.0546 391.52 57.5388L392.254 55.9913C392.783 56.4542 393.457 56.8378 394.277 57.142C395.098 57.4462 395.951 57.5983 396.837 57.5983C397.644 57.5983 398.298 57.5057 398.801 57.3205C399.304 57.1354 399.674 56.8841 399.912 56.5666C400.15 56.2359 400.269 55.8656 400.269 55.4556C400.269 54.9794 400.11 54.5958 399.793 54.3049C399.489 54.0139 399.085 53.7824 398.583 53.6105C398.093 53.4253 397.551 53.2666 396.956 53.1343C396.361 53.002 395.759 52.8499 395.15 52.678C394.555 52.4928 394.006 52.2613 393.504 51.9836C393.014 51.7058 392.618 51.3355 392.313 50.8725C392.009 50.3964 391.857 49.7879 391.857 49.0473C391.857 48.333 392.042 47.6783 392.412 47.0831C392.796 46.4747 393.378 45.9919 394.158 45.6348C394.952 45.2644 395.957 45.0793 397.174 45.0793C397.981 45.0793 398.781 45.1851 399.575 45.3967C400.368 45.6083 401.056 45.9125 401.638 46.3093L400.983 47.8965C400.388 47.4997 399.76 47.2154 399.099 47.0434C398.437 46.8582 397.796 46.7657 397.174 46.7657C396.394 46.7657 395.752 46.8649 395.25 47.0633C394.747 47.2617 394.377 47.5262 394.139 47.8569C393.914 48.1875 393.801 48.5579 393.801 48.9679C393.801 49.4573 393.953 49.8475 394.258 50.1385C394.575 50.4294 394.978 50.6609 395.468 50.8329C395.97 51.0048 396.519 51.1635 397.115 51.309C397.71 51.4413 398.305 51.5934 398.9 51.7653C399.509 51.9373 400.058 52.1621 400.547 52.4399C401.05 52.7177 401.453 53.088 401.757 53.5509C402.061 54.0139 402.213 54.6091 402.213 55.3365C402.213 56.0375 402.022 56.6923 401.638 57.3007C401.255 57.8959 400.659 58.3787 399.852 58.749C399.059 59.1061 398.054 59.2847 396.837 59.2847Z" fill="#AAAAAA"/>
<line x1="180.086" y1="76.6555" x2="179.873" y2="0.00304559" stroke="#1DD45A" stroke-width="2.304"/>
<path d="M152.001 64.5006C148.059 64.5006 145.012 63.4926 142.862 61.4766C140.711 59.4158 139.636 56.3918 139.636 52.4046V20.2158H148.036V52.203C148.036 53.9054 148.462 55.227 149.313 56.1678C150.209 57.1086 151.441 57.579 153.009 57.579C154.891 57.579 156.459 57.0862 157.713 56.1006L160.065 62.0814C159.079 62.8878 157.87 63.4926 156.436 63.8958C155.003 64.299 153.524 64.5006 152.001 64.5006ZM133.723 34.8654V28.1454H157.646V34.8654H133.723Z" fill="white"/>
<path fill-rule="evenodd" clip-rule="evenodd" d="M121.088 28.145V64.0298H129.488V28.145H121.088Z" fill="white"/>
<path d="M125.321 22.2314C123.753 22.2314 122.454 21.7386 121.424 20.753C120.438 19.7674 119.945 18.5802 119.945 17.1914C119.945 15.7578 120.438 14.5706 121.424 13.6298C122.454 12.6442 123.753 12.1514 125.321 12.1514C126.889 12.1514 128.166 12.6218 129.152 13.5626C130.182 14.4586 130.697 15.601 130.697 16.9898C130.697 18.4682 130.205 19.7226 129.219 20.753C128.233 21.7386 126.934 22.2314 125.321 22.2314Z" fill="#1DD45A"/>
<path d="M84.3789 64.0303V58.7215L106.488 31.9759L108.033 34.8655H84.7821V28.1455H114.753V33.4543L92.6445 60.1999L90.9645 57.3103H115.358V64.0303H84.3789Z" fill="white"/>
<path fill-rule="evenodd" clip-rule="evenodd" d="M69.9276 28.145V64.0298H78.3276V28.145H69.9276Z" fill="white"/>
<path d="M74.1612 22.2314C72.5932 22.2314 71.294 21.7386 70.2636 20.753C69.278 19.7674 68.7852 18.5802 68.7852 17.1914C68.7852 15.7578 69.278 14.5706 70.2636 13.6298C71.294 12.6442 72.5932 12.1514 74.1612 12.1514C75.7292 12.1514 77.006 12.6218 77.9916 13.5626C79.022 14.4586 79.5372 15.601 79.5372 16.9898C79.5372 18.4682 79.0444 19.7226 78.0588 20.753C77.0732 21.7386 75.774 22.2314 74.1612 22.2314Z" fill="#1DD45A"/>
<path d="M44.0508 64.0302V28.1454H52.0476V38.0238L51.1068 35.1342C52.182 32.715 53.862 30.8782 56.1468 29.6238C58.4764 28.3694 61.366 27.7422 64.8156 27.7422V35.739C64.4572 35.6494 64.1212 35.6046 63.8076 35.6046C63.494 35.5598 63.1804 35.5374 62.8668 35.5374C59.686 35.5374 57.1548 36.4782 55.2732 38.3598C53.3916 40.1966 52.4508 42.9518 52.4508 46.6254V64.0302H44.0508Z" fill="white"/>
<path d="M19.8912 64.5008C16.8448 64.5008 14.1344 63.8288 11.76 62.4848C9.3856 61.1408 7.504 59.1248 6.1152 56.4368C4.7712 53.704 4.0992 50.2544 4.0992 46.088C4.0992 41.8768 4.7936 38.4272 6.1824 35.7392C7.616 33.0512 9.52 31.0576 11.8944 29.7584C14.3136 28.4144 16.9792 27.7424 19.8912 27.7424C23.4304 27.7424 26.544 28.504 29.232 30.0272C31.9648 31.5504 34.1152 33.6784 35.6832 36.4112C37.296 39.144 38.1024 42.3696 38.1024 46.088C38.1024 49.8064 37.296 53.032 35.6832 55.7648C34.1152 58.4976 31.9648 60.648 29.232 62.216C26.544 63.7392 23.4304 64.5008 19.8912 64.5008ZM0 64.0304V14.168H8.4V36.4784L7.728 46.0208L7.9968 55.5632V64.0304H0ZM18.9504 57.3104C20.9664 57.3104 22.7584 56.8624 24.3264 55.9664C25.9392 55.0704 27.216 53.7712 28.1568 52.0688C29.0976 50.3664 29.568 48.3728 29.568 46.088C29.568 43.7584 29.0976 41.7648 28.1568 40.1072C27.216 38.4048 25.9392 37.1056 24.3264 36.2096C22.7584 35.3136 20.9664 34.8656 18.9504 34.8656C16.9344 34.8656 15.12 35.3136 13.5072 36.2096C11.8944 37.1056 10.6176 38.4048 9.6768 40.1072C8.736 41.7648 8.2656 43.7584 8.2656 46.088C8.2656 48.3728 8.736 50.3664 9.6768 52.0688C10.6176 53.7712 11.8944 55.0704 13.5072 55.9664C15.12 56.8624 16.9344 57.3104 18.9504 57.3104Z" fill="white"/>
</svg>
