<svg width="1613" height="307" viewBox="0 0 1613 307" fill="none" xmlns="http://www.w3.org/2000/svg">
<path d="M808.682 127.505L833.839 71.9529H841.696L866.933 127.505H858.6L836.141 76.397H839.315L816.856 127.505H808.682ZM819.396 113.617L821.539 107.268H852.807L855.108 113.617H819.396ZM875.22 127.505V71.9529H896.885C904.08 71.9529 909.741 73.6723 913.868 77.1113C917.995 80.4973 920.058 85.2325 920.058 91.3167C920.058 95.3376 919.132 98.803 917.28 101.713C915.429 104.57 912.783 106.765 909.344 108.3C905.905 109.834 901.752 110.601 896.885 110.601H879.584L883.156 106.951V127.505H875.22ZM912.36 127.505L898.234 107.347H906.725L921.01 127.505H912.36ZM883.156 107.744L879.584 103.856H896.647C901.726 103.856 905.561 102.771 908.154 100.602C910.799 98.3798 912.122 95.2847 912.122 91.3167C912.122 87.3487 910.799 84.2801 908.154 82.111C905.561 79.9418 901.726 78.8572 896.647 78.8572H879.584L883.156 74.8892V107.744ZM957.719 128.14C953.487 128.14 949.572 127.452 945.974 126.076C942.429 124.648 939.334 122.664 936.689 120.124C934.096 117.532 932.059 114.516 930.578 111.077C929.097 107.638 928.356 103.856 928.356 99.7289C928.356 95.6022 929.097 91.8193 930.578 88.3804C932.059 84.9415 934.123 81.9522 936.768 79.4127C939.413 76.8203 942.509 74.8363 946.053 73.4607C949.651 72.0322 953.566 71.318 957.799 71.318C962.084 71.318 966.026 72.0587 969.623 73.5401C973.274 74.9686 976.369 77.1113 978.908 79.9682L973.75 84.9679C971.634 82.7458 969.253 81.1057 966.608 80.0476C963.962 78.9366 961.132 78.381 958.116 78.381C954.995 78.381 952.085 78.9101 949.386 79.9682C946.741 81.0264 944.44 82.5078 942.482 84.4124C940.525 86.317 938.99 88.592 937.879 91.2374C936.821 93.8298 936.292 96.6603 936.292 99.7289C936.292 102.797 936.821 105.654 937.879 108.3C938.99 110.892 940.525 113.141 942.482 115.045C944.44 116.95 946.741 118.431 949.386 119.49C952.085 120.548 954.995 121.077 958.116 121.077C961.132 121.077 963.962 120.548 966.608 119.49C969.253 118.378 971.634 116.685 973.75 114.41L978.908 119.41C976.369 122.267 973.274 124.436 969.623 125.918C966.026 127.399 962.058 128.14 957.719 128.14ZM1029.29 127.505V71.9529H1037.23V127.505H1029.29ZM989.455 127.505V71.9529H997.391V127.505H989.455ZM996.597 102.745V95.8402H1030.01V102.745H996.597ZM1053.86 127.505V71.9529H1061.79V127.505H1053.86ZM1089.46 127.505V78.8572H1070.41V71.9529H1116.36V78.8572H1097.31V127.505H1089.46ZM1125 127.505V71.9529H1164.21V78.8572H1132.94V120.601H1165.32V127.505H1125ZM1132.22 102.665V95.9196H1160.79V102.665H1132.22ZM1202.93 128.14C1198.7 128.14 1194.78 127.452 1191.18 126.076C1187.64 124.648 1184.54 122.664 1181.9 120.124C1179.31 117.532 1177.27 114.516 1175.79 111.077C1174.31 107.638 1173.57 103.856 1173.57 99.7289C1173.57 95.6022 1174.31 91.8193 1175.79 88.3804C1177.27 84.9415 1179.33 81.9522 1181.98 79.4127C1184.62 76.8203 1187.72 74.8363 1191.26 73.4607C1194.86 72.0322 1198.78 71.318 1203.01 71.318C1207.29 71.318 1211.24 72.0587 1214.83 73.5401C1218.48 74.9686 1221.58 77.1113 1224.12 79.9682L1218.96 84.9679C1216.84 82.7458 1214.46 81.1057 1211.82 80.0476C1209.17 78.9366 1206.34 78.381 1203.33 78.381C1200.2 78.381 1197.29 78.9101 1194.6 79.9682C1191.95 81.0264 1189.65 82.5078 1187.69 84.4124C1185.73 86.317 1184.2 88.592 1183.09 91.2374C1182.03 93.8298 1181.5 96.6603 1181.5 99.7289C1181.5 102.797 1182.03 105.654 1183.09 108.3C1184.2 110.892 1185.73 113.141 1187.69 115.045C1189.65 116.95 1191.95 118.431 1194.6 119.49C1197.29 120.548 1200.2 121.077 1203.33 121.077C1206.34 121.077 1209.17 120.548 1211.82 119.49C1214.46 118.378 1216.84 116.685 1218.96 114.41L1224.12 119.41C1221.58 122.267 1218.48 124.436 1214.83 125.918C1211.24 127.399 1207.27 128.14 1202.93 128.14ZM1244.38 127.505V78.8572H1225.33V71.9529H1271.28V78.8572H1252.23V127.505H1244.38ZM1301.93 128.14C1294.63 128.14 1288.89 126.05 1284.71 121.87C1280.53 117.691 1278.44 111.58 1278.44 103.538V71.9529H1286.38V103.221C1286.38 109.411 1287.73 113.934 1290.42 116.791C1293.18 119.648 1297.04 121.077 1302.01 121.077C1307.04 121.077 1310.9 119.648 1313.6 116.791C1316.35 113.934 1317.72 109.411 1317.72 103.221V71.9529H1325.42V103.538C1325.42 111.58 1323.33 117.691 1319.15 121.87C1315.03 126.05 1309.29 128.14 1301.93 128.14ZM1341.69 127.505V71.9529H1363.36C1370.55 71.9529 1376.21 73.6723 1380.34 77.1113C1384.47 80.4973 1386.53 85.2325 1386.53 91.3167C1386.53 95.3376 1385.6 98.803 1383.75 101.713C1381.9 104.57 1379.26 106.765 1375.82 108.3C1372.38 109.834 1368.22 110.601 1363.36 110.601H1346.06L1349.63 106.951V127.505H1341.69ZM1378.83 127.505L1364.71 107.347H1373.2L1387.48 127.505H1378.83ZM1349.63 107.744L1346.06 103.856H1363.12C1368.2 103.856 1372.03 102.771 1374.63 100.602C1377.27 98.3798 1378.59 95.2847 1378.59 91.3167C1378.59 87.3487 1377.27 84.2801 1374.63 82.111C1372.03 79.9418 1368.2 78.8572 1363.12 78.8572H1346.06L1349.63 74.8892V107.744ZM1390.94 127.505L1416.1 71.9529H1423.95L1449.19 127.505H1440.86L1418.4 76.397H1421.57L1399.11 127.505H1390.94ZM1401.65 113.617L1403.8 107.268H1435.06L1437.37 113.617H1401.65ZM1457.48 127.505V71.9529H1465.41V120.601H1495.49V127.505H1457.48ZM817.095 236.505V180.953H842.014C848.415 180.953 853.336 182.249 856.775 184.842C860.213 187.381 861.933 190.873 861.933 195.317C861.933 198.333 861.245 200.872 859.87 202.936C858.547 204.999 856.748 206.586 854.473 207.697C852.198 208.808 849.738 209.364 847.093 209.364L848.521 206.983C851.695 206.983 854.5 207.538 856.933 208.65C859.367 209.761 861.298 211.401 862.727 213.57C864.155 215.686 864.869 218.331 864.869 221.506C864.869 226.267 863.07 229.971 859.473 232.616C855.928 235.209 850.637 236.505 843.601 236.505H817.095ZM825.031 230.077H843.283C847.675 230.077 851.034 229.336 853.362 227.855C855.69 226.373 856.854 224.045 856.854 220.871C856.854 217.644 855.69 215.289 853.362 213.808C851.034 212.327 847.675 211.586 843.283 211.586H824.316V205.158H841.299C845.32 205.158 848.442 204.417 850.664 202.936C852.886 201.454 853.997 199.232 853.997 196.269C853.997 193.307 852.886 191.085 850.664 189.603C848.442 188.122 845.32 187.381 841.299 187.381H825.031V230.077ZM900.171 237.14C892.87 237.14 887.13 235.05 882.95 230.87C878.771 226.691 876.681 220.58 876.681 212.538V180.953H884.617V212.221C884.617 218.411 885.966 222.934 888.664 225.791C891.415 228.648 895.278 230.077 900.251 230.077C905.277 230.077 909.139 228.648 911.837 225.791C914.588 222.934 915.964 218.411 915.964 212.221V180.953H923.662V212.538C923.662 220.58 921.572 226.691 917.393 230.87C913.266 235.05 907.525 237.14 900.171 237.14ZM939.932 236.505V180.953H947.868V236.505H939.932ZM964.5 236.505V180.953H972.436V229.601H1002.51V236.505H964.5ZM1011.62 236.505V180.953H1035.03C1040.96 180.953 1046.17 182.117 1050.66 184.445C1055.21 186.773 1058.73 190.026 1061.22 194.206C1063.76 198.386 1065.03 203.227 1065.03 208.729C1065.03 214.231 1063.76 219.072 1061.22 223.252C1058.73 227.431 1055.21 230.685 1050.66 233.013C1046.17 235.341 1040.96 236.505 1035.03 236.505H1011.62ZM1019.56 229.601H1034.55C1039.16 229.601 1043.13 228.728 1046.46 226.982C1049.84 225.236 1052.46 222.802 1054.32 219.681C1056.17 216.506 1057.09 212.856 1057.09 208.729C1057.09 204.549 1056.17 200.899 1054.32 197.777C1052.46 194.656 1049.84 192.222 1046.46 190.476C1043.13 188.73 1039.16 187.857 1034.55 187.857H1019.56V229.601ZM1077.18 236.505V180.953H1085.12V236.505H1077.18ZM1101.75 236.505V180.953H1108.26L1145 226.585H1141.59V180.953H1149.53V236.505H1143.02L1106.28 190.873H1109.69V236.505H1101.75ZM1191.23 237.14C1186.95 237.14 1183.01 236.452 1179.41 235.076C1175.81 233.648 1172.69 231.664 1170.04 229.124C1167.4 226.532 1165.33 223.516 1163.85 220.077C1162.37 216.638 1161.63 212.856 1161.63 208.729C1161.63 204.602 1162.37 200.819 1163.85 197.38C1165.33 193.941 1167.4 190.952 1170.04 188.413C1172.74 185.82 1175.89 183.836 1179.49 182.461C1183.08 181.032 1187.05 180.318 1191.39 180.318C1195.78 180.318 1199.8 181.032 1203.45 182.461C1207.1 183.889 1210.2 186.032 1212.74 188.889L1207.82 193.809C1205.54 191.587 1203.06 189.973 1200.36 188.968C1197.71 187.91 1194.83 187.381 1191.71 187.381C1188.53 187.381 1185.57 187.91 1182.82 188.968C1180.12 190.026 1177.77 191.508 1175.76 193.412C1173.8 195.317 1172.27 197.592 1171.15 200.237C1170.1 202.83 1169.57 205.66 1169.57 208.729C1169.57 211.745 1170.1 214.575 1171.15 217.22C1172.27 219.813 1173.8 222.088 1175.76 224.045C1177.77 225.95 1180.12 227.431 1182.82 228.49C1185.52 229.548 1188.45 230.077 1191.63 230.077C1194.59 230.077 1197.42 229.627 1200.12 228.728C1202.87 227.775 1205.41 226.215 1207.74 224.045L1212.26 230.077C1209.51 232.405 1206.28 234.177 1202.58 235.394C1198.93 236.558 1195.15 237.14 1191.23 237.14ZM1212.26 230.077L1204.64 229.045V208.411H1212.26V230.077ZM1264.96 237.14C1260.73 237.14 1256.68 236.505 1252.82 235.235C1248.95 233.912 1245.91 232.219 1243.69 230.156L1246.63 223.966C1248.74 225.818 1251.44 227.352 1254.72 228.569C1258 229.786 1261.41 230.394 1264.96 230.394C1268.19 230.394 1270.81 230.024 1272.82 229.283C1274.83 228.542 1276.31 227.537 1277.26 226.267C1278.21 224.945 1278.69 223.463 1278.69 221.823C1278.69 219.919 1278.05 218.384 1276.78 217.22C1275.57 216.056 1273.95 215.131 1271.94 214.443C1269.99 213.702 1267.82 213.067 1265.44 212.538C1263.05 212.009 1260.65 211.401 1258.21 210.713C1255.83 209.972 1253.64 209.046 1251.63 207.935C1249.67 206.824 1248.08 205.343 1246.86 203.491C1245.65 201.586 1245.04 199.153 1245.04 196.19C1245.04 193.333 1245.78 190.714 1247.26 188.333C1248.8 185.9 1251.12 183.969 1254.25 182.54C1257.42 181.059 1261.44 180.318 1266.31 180.318C1269.54 180.318 1272.74 180.741 1275.91 181.588C1279.09 182.434 1281.84 183.651 1284.16 185.238L1281.55 191.587C1279.16 190 1276.65 188.862 1274.01 188.175C1271.36 187.434 1268.79 187.064 1266.31 187.064C1263.19 187.064 1260.62 187.46 1258.61 188.254C1256.6 189.048 1255.12 190.106 1254.17 191.428C1253.27 192.751 1252.82 194.232 1252.82 195.873C1252.82 197.83 1253.43 199.391 1254.64 200.555C1255.91 201.719 1257.53 202.645 1259.48 203.332C1261.49 204.02 1263.69 204.655 1266.07 205.237C1268.45 205.766 1270.83 206.375 1273.21 207.062C1275.65 207.75 1277.84 208.65 1279.8 209.761C1281.81 210.872 1283.42 212.353 1284.64 214.205C1285.86 216.056 1286.47 218.437 1286.47 221.347C1286.47 224.151 1285.7 226.77 1284.16 229.204C1282.63 231.585 1280.25 233.516 1277.02 234.997C1273.85 236.426 1269.83 237.14 1264.96 237.14ZM1310.31 236.505V215.236L1312.13 220.157L1288.25 180.953H1296.74L1316.82 214.046H1312.21L1332.37 180.953H1340.23L1316.42 220.157L1318.17 215.236V236.505H1310.31ZM1363.31 237.14C1359.07 237.14 1355.03 236.505 1351.16 235.235C1347.3 233.912 1344.26 232.219 1342.04 230.156L1344.97 223.966C1347.09 225.818 1349.79 227.352 1353.07 228.569C1356.35 229.786 1359.76 230.394 1363.31 230.394C1366.53 230.394 1369.15 230.024 1371.16 229.283C1373.17 228.542 1374.65 227.537 1375.61 226.267C1376.56 224.945 1377.04 223.463 1377.04 221.823C1377.04 219.919 1376.4 218.384 1375.13 217.22C1373.91 216.056 1372.3 215.131 1370.29 214.443C1368.33 213.702 1366.16 213.067 1363.78 212.538C1361.4 212.009 1358.99 211.401 1356.56 210.713C1354.18 209.972 1351.98 209.046 1349.97 207.935C1348.02 206.824 1346.43 205.343 1345.21 203.491C1344 201.586 1343.39 199.153 1343.39 196.19C1343.39 193.333 1344.13 190.714 1345.61 188.333C1347.14 185.9 1349.47 183.969 1352.59 182.54C1355.77 181.059 1359.79 180.318 1364.66 180.318C1367.88 180.318 1371.08 180.741 1374.26 181.588C1377.43 182.434 1380.18 183.651 1382.51 185.238L1379.89 191.587C1377.51 190 1375 188.862 1372.35 188.175C1369.71 187.434 1367.14 187.064 1364.66 187.064C1361.53 187.064 1358.97 187.46 1356.96 188.254C1354.95 189.048 1353.47 190.106 1352.51 191.428C1351.61 192.751 1351.16 194.232 1351.16 195.873C1351.16 197.83 1351.77 199.391 1352.99 200.555C1354.26 201.719 1355.87 202.645 1357.83 203.332C1359.84 204.02 1362.04 204.655 1364.42 205.237C1366.8 205.766 1369.18 206.375 1371.56 207.062C1373.99 207.75 1376.19 208.65 1378.15 209.761C1380.16 210.872 1381.77 212.353 1382.99 214.205C1384.2 216.056 1384.81 218.437 1384.81 221.347C1384.81 224.151 1384.05 226.77 1382.51 229.204C1380.98 231.585 1378.6 233.516 1375.37 234.997C1372.19 236.426 1368.17 237.14 1363.31 237.14ZM1406.66 236.505V187.857H1387.62V180.953H1433.57V187.857H1414.52V236.505H1406.66ZM1442.21 236.505V180.953H1481.41V187.857H1450.15V229.601H1482.52V236.505H1442.21ZM1449.43 211.665V204.92H1478V211.665H1449.43ZM1495.37 236.505V180.953H1501.88L1526.8 222.934H1523.31L1547.91 180.953H1554.42L1554.5 236.505H1546.88L1546.8 192.936H1548.63L1526.72 229.759H1523.07L1501.01 192.936H1502.99V236.505H1495.37ZM1587.36 237.14C1583.13 237.14 1579.08 236.505 1575.22 235.235C1571.35 233.912 1568.31 232.219 1566.09 230.156L1569.03 223.966C1571.14 225.818 1573.84 227.352 1577.12 228.569C1580.4 229.786 1583.81 230.394 1587.36 230.394C1590.59 230.394 1593.21 230.024 1595.22 229.283C1597.23 228.542 1598.71 227.537 1599.66 226.267C1600.61 224.945 1601.09 223.463 1601.09 221.823C1601.09 219.919 1600.45 218.384 1599.18 217.22C1597.97 216.056 1596.35 215.131 1594.34 214.443C1592.39 213.702 1590.22 213.067 1587.84 212.538C1585.45 212.009 1583.05 211.401 1580.61 210.713C1578.23 209.972 1576.04 209.046 1574.03 207.935C1572.07 206.824 1570.48 205.343 1569.26 203.491C1568.05 201.586 1567.44 199.153 1567.44 196.19C1567.44 193.333 1568.18 190.714 1569.66 188.333C1571.2 185.9 1573.52 183.969 1576.65 182.54C1579.82 181.059 1583.84 180.318 1588.71 180.318C1591.94 180.318 1595.14 180.741 1598.31 181.588C1601.49 182.434 1604.24 183.651 1606.56 185.238L1603.95 191.587C1601.56 190 1599.05 188.862 1596.41 188.175C1593.76 187.434 1591.19 187.064 1588.71 187.064C1585.59 187.064 1583.02 187.46 1581.01 188.254C1579 189.048 1577.52 190.106 1576.57 191.428C1575.67 192.751 1575.22 194.232 1575.22 195.873C1575.22 197.83 1575.83 199.391 1577.04 200.555C1578.31 201.719 1579.93 202.645 1581.88 203.332C1583.89 204.02 1586.09 204.655 1588.47 205.237C1590.85 205.766 1593.23 206.375 1595.61 207.062C1598.05 207.75 1600.24 208.65 1602.2 209.761C1604.21 210.872 1605.82 212.353 1607.04 214.205C1608.26 216.056 1608.87 218.437 1608.87 221.347C1608.87 224.151 1608.1 226.77 1606.56 229.204C1605.03 231.585 1602.65 233.516 1599.42 234.997C1596.25 236.426 1592.23 237.14 1587.36 237.14Z" fill="#AAAAAA"/>
<line x1="720.349" y1="306.623" x2="719.498" y2="0.0131589" stroke="#1DD45A" stroke-width="9.216"/>
<path d="M608.008 258.003C592.238 258.003 580.053 253.971 571.451 245.907C562.85 237.664 558.549 225.568 558.549 209.619V80.8643H592.149V208.813C592.149 215.623 593.851 220.909 597.256 224.672C600.84 228.435 605.768 230.317 612.04 230.317C619.566 230.317 625.839 228.346 630.856 224.403L640.264 248.327C636.322 251.552 631.483 253.971 625.749 255.584C620.014 257.197 614.101 258.003 608.008 258.003ZM534.895 139.463V112.583H630.587V139.463H534.895Z" fill="white"/>
<path fill-rule="evenodd" clip-rule="evenodd" d="M484.347 112.582V256.121H517.947V112.582H484.347Z" fill="white"/>
<path d="M501.281 88.9274C495.009 88.9274 489.813 86.9562 485.691 83.0138C481.749 79.0714 479.777 74.3226 479.777 68.7674C479.777 63.033 481.749 58.2842 485.691 54.521C489.813 50.5786 495.009 48.6074 501.281 48.6074C507.553 48.6074 512.661 50.489 516.603 54.2522C520.725 57.8362 522.785 62.4058 522.785 67.961C522.785 73.8746 520.814 78.8922 516.872 83.0138C512.929 86.9562 507.733 88.9274 501.281 88.9274Z" fill="#1DD45A"/>
<path d="M337.52 256.121V234.886L425.955 127.904L432.137 139.462H339.132V112.582H459.017V133.817L370.582 240.8L363.862 229.241H461.436V256.121H337.52Z" fill="white"/>
<path fill-rule="evenodd" clip-rule="evenodd" d="M279.71 112.582V256.121H313.31V112.582H279.71Z" fill="white"/>
<path d="M296.645 88.9274C290.373 88.9274 285.176 86.9562 281.054 83.0138C277.112 79.0714 275.141 74.3226 275.141 68.7674C275.141 63.033 277.112 58.2842 281.054 54.521C285.176 50.5786 290.373 48.6074 296.645 48.6074C302.917 48.6074 308.024 50.489 311.966 54.2522C316.088 57.8362 318.149 62.4058 318.149 67.961C318.149 73.8746 316.177 78.8922 312.235 83.0138C308.293 86.9562 303.096 88.9274 296.645 88.9274Z" fill="#1DD45A"/>
<path d="M176.211 256.122V112.583H208.198V152.096L204.435 140.538C208.736 130.861 215.456 123.514 224.595 118.496C233.913 113.479 245.472 110.97 259.27 110.97V142.957C257.837 142.599 256.493 142.419 255.238 142.419C253.984 142.24 252.729 142.151 251.475 142.151C238.752 142.151 228.627 145.914 221.101 153.44C213.574 160.787 209.811 171.808 209.811 186.503V256.122H176.211Z" fill="white"/>
<path d="M79.5648 258.003C67.3792 258.003 56.5376 255.315 47.04 249.939C37.5424 244.563 30.016 236.499 24.4608 225.747C19.0848 214.816 16.3968 201.017 16.3968 184.352C16.3968 167.507 19.1744 153.709 24.7296 142.957C30.464 132.205 38.08 124.23 47.5776 119.033C57.2544 113.657 67.9168 110.969 79.5648 110.969C93.7216 110.969 106.176 114.016 116.928 120.109C127.859 126.201 136.461 134.713 142.733 145.645C149.184 156.576 152.41 169.478 152.41 184.352C152.41 199.225 149.184 212.128 142.733 223.059C136.461 233.99 127.859 242.592 116.928 248.864C106.176 254.957 93.7216 258.003 79.5648 258.003ZM0 256.121V56.6719H33.6V145.913L30.912 184.083L31.9872 222.253V256.121H0ZM75.8016 229.241C83.8656 229.241 91.0336 227.449 97.3056 223.865C103.757 220.281 108.864 215.085 112.627 208.275C116.39 201.465 118.272 193.491 118.272 184.352C118.272 175.033 116.39 167.059 112.627 160.429C108.864 153.619 103.757 148.422 97.3056 144.838C91.0336 141.254 83.8656 139.462 75.8016 139.462C67.7376 139.462 60.48 141.254 54.0288 144.838C47.5776 148.422 42.4704 153.619 38.7072 160.429C34.944 167.059 33.0624 175.033 33.0624 184.352C33.0624 193.491 34.944 201.465 38.7072 208.275C42.4704 215.085 47.5776 220.281 54.0288 223.865C60.48 227.449 67.7376 229.241 75.8016 229.241Z" fill="white"/>
</svg>
