<svg width="303" height="58" viewBox="0 0 303 58" fill="none" xmlns="http://www.w3.org/2000/svg">
<path d="M151.626 24.3447L156.343 13.9287H157.816L162.548 24.3447H160.985L156.774 14.762H157.369L153.158 24.3447H151.626ZM153.635 21.7407L154.036 20.5503H159.899L160.331 21.7407H153.635ZM164.101 24.3447V13.9287H168.164C169.513 13.9287 170.574 14.2511 171.348 14.8959C172.122 15.5308 172.509 16.4186 172.509 17.5594C172.509 18.3134 172.335 18.9631 171.988 19.5087C171.641 20.0444 171.145 20.4561 170.5 20.7438C169.855 21.0314 169.076 21.1753 168.164 21.1753H164.92L165.589 20.4908V24.3447H164.101ZM171.065 24.3447L168.417 20.5652H170.009L172.687 24.3447H171.065ZM165.589 20.6396L164.92 19.9105H168.119C169.071 19.9105 169.791 19.7071 170.277 19.3004C170.773 18.8838 171.021 18.3034 171.021 17.5594C171.021 16.8154 170.773 16.2401 170.277 15.8334C169.791 15.4266 169.071 15.2233 168.119 15.2233H164.92L165.589 14.4793V20.6396ZM179.57 24.4638C178.777 24.4638 178.042 24.3348 177.368 24.0769C176.703 23.809 176.123 23.437 175.627 22.9609C175.141 22.4748 174.759 21.9094 174.481 21.2646C174.203 20.6198 174.065 19.9105 174.065 19.1367C174.065 18.363 174.203 17.6537 174.481 17.0089C174.759 16.3641 175.146 15.8036 175.642 15.3274C176.138 14.8414 176.718 14.4694 177.383 14.2114C178.057 13.9436 178.791 13.8097 179.585 13.8097C180.389 13.8097 181.128 13.9486 181.802 14.2263C182.487 14.4942 183.067 14.8959 183.543 15.4316L182.576 16.369C182.179 15.9524 181.733 15.6449 181.237 15.4465C180.741 15.2382 180.21 15.134 179.645 15.134C179.059 15.134 178.514 15.2332 178.008 15.4316C177.512 15.63 177.08 15.9078 176.713 16.2649C176.346 16.622 176.058 17.0486 175.85 17.5446C175.652 18.0306 175.553 18.5614 175.553 19.1367C175.553 19.7121 175.652 20.2478 175.85 20.7438C176.058 21.2298 176.346 21.6514 176.713 22.0086C177.08 22.3657 177.512 22.6434 178.008 22.8418C178.514 23.0402 179.059 23.1394 179.645 23.1394C180.21 23.1394 180.741 23.0402 181.237 22.8418C181.733 22.6335 182.179 22.3161 182.576 21.8895L183.543 22.827C183.067 23.3626 182.487 23.7694 181.802 24.0471C181.128 24.3249 180.384 24.4638 179.57 24.4638ZM192.99 24.3447V13.9287H194.478V24.3447H192.99ZM185.521 24.3447V13.9287H187.009V24.3447H185.521ZM186.86 19.7022V18.4076H193.124V19.7022H186.86ZM197.596 24.3447V13.9287H199.084V24.3447H197.596ZM204.271 24.3447V15.2233H200.7V13.9287H209.315V15.2233H205.744V24.3447H204.271ZM210.936 24.3447V13.9287H218.286V15.2233H212.424V23.0502H218.495V24.3447H210.936ZM212.29 19.6873V18.4225H217.647V19.6873H212.29ZM225.547 24.4638C224.753 24.4638 224.019 24.3348 223.345 24.0769C222.68 23.809 222.1 23.437 221.604 22.9609C221.118 22.4748 220.736 21.9094 220.458 21.2646C220.18 20.6198 220.041 19.9105 220.041 19.1367C220.041 18.363 220.18 17.6537 220.458 17.0089C220.736 16.3641 221.123 15.8036 221.619 15.3274C222.115 14.8414 222.695 14.4694 223.36 14.2114C224.034 13.9436 224.768 13.8097 225.562 13.8097C226.365 13.8097 227.104 13.9486 227.779 14.2263C228.464 14.4942 229.044 14.8959 229.52 15.4316L228.553 16.369C228.156 15.9524 227.71 15.6449 227.214 15.4465C226.718 15.2382 226.187 15.134 225.621 15.134C225.036 15.134 224.491 15.2332 223.985 15.4316C223.489 15.63 223.057 15.9078 222.69 16.2649C222.323 16.622 222.035 17.0486 221.827 17.5446C221.629 18.0306 221.529 18.5614 221.529 19.1367C221.529 19.7121 221.629 20.2478 221.827 20.7438C222.035 21.2298 222.323 21.6514 222.69 22.0086C223.057 22.3657 223.489 22.6434 223.985 22.8418C224.491 23.0402 225.036 23.1394 225.621 23.1394C226.187 23.1394 226.718 23.0402 227.214 22.8418C227.71 22.6335 228.156 22.3161 228.553 21.8895L229.52 22.827C229.044 23.3626 228.464 23.7694 227.779 24.0471C227.104 24.3249 226.36 24.4638 225.547 24.4638ZM233.319 24.3447V15.2233H229.747V13.9287H238.363V15.2233H234.792V24.3447H233.319ZM244.11 24.4638C242.741 24.4638 241.665 24.0719 240.881 23.2882C240.097 22.5046 239.705 21.3588 239.705 19.851V13.9287H241.193V19.7914C241.193 20.9521 241.446 21.8002 241.952 22.3359C242.468 22.8716 243.192 23.1394 244.125 23.1394C245.067 23.1394 245.791 22.8716 246.297 22.3359C246.813 21.8002 247.071 20.9521 247.071 19.7914V13.9287H248.514V19.851C248.514 21.3588 248.123 22.5046 247.339 23.2882C246.565 24.0719 245.489 24.4638 244.11 24.4638ZM251.565 24.3447V13.9287H255.627C256.976 13.9287 258.038 14.2511 258.812 14.8959C259.585 15.5308 259.972 16.4186 259.972 17.5594C259.972 18.3134 259.799 18.9631 259.451 19.5087C259.104 20.0444 258.608 20.4561 257.963 20.7438C257.319 21.0314 256.54 21.1753 255.627 21.1753H252.383L253.053 20.4908V24.3447H251.565ZM258.529 24.3447L255.88 20.5652H257.472L260.151 24.3447H258.529ZM253.053 20.6396L252.383 19.9105H255.583C256.535 19.9105 257.254 19.7071 257.74 19.3004C258.236 18.8838 258.484 18.3034 258.484 17.5594C258.484 16.8154 258.236 16.2401 257.74 15.8334C257.254 15.4266 256.535 15.2233 255.583 15.2233H252.383L253.053 14.4793V20.6396ZM260.799 24.3447L265.516 13.9287H266.989L271.721 24.3447H270.159L265.948 14.762H266.543L262.332 24.3447H260.799ZM262.808 21.7407L263.21 20.5503H269.072L269.504 21.7407H262.808ZM273.275 24.3447V13.9287H274.763V23.0502H280.402V24.3447H273.275ZM153.203 44.3447V33.9287H157.875C159.076 33.9287 159.998 34.1718 160.643 34.6578C161.288 35.134 161.61 35.7887 161.61 36.622C161.61 37.1874 161.481 37.6636 161.223 38.0505C160.975 38.4374 160.638 38.735 160.212 38.9433C159.785 39.1516 159.324 39.2558 158.828 39.2558L159.096 38.8094C159.691 38.8094 160.216 38.9135 160.673 39.1218C161.129 39.3302 161.491 39.6377 161.759 40.0444C162.027 40.4412 162.161 40.9372 162.161 41.5324C162.161 42.4252 161.824 43.1196 161.149 43.6156C160.484 44.1017 159.492 44.3447 158.173 44.3447H153.203ZM154.691 43.1394H158.113C158.937 43.1394 159.567 43.0006 160.003 42.7228C160.44 42.445 160.658 42.0086 160.658 41.4134C160.658 40.8082 160.44 40.3668 160.003 40.089C159.567 39.8113 158.937 39.6724 158.113 39.6724H154.557V38.4671H157.741C158.495 38.4671 159.081 38.3282 159.497 38.0505C159.914 37.7727 160.122 37.3561 160.122 36.8006C160.122 36.245 159.914 35.8284 159.497 35.5506C159.081 35.2729 158.495 35.134 157.741 35.134H154.691V43.1394ZM168.78 44.4638C167.411 44.4638 166.335 44.0719 165.551 43.2882C164.767 42.5046 164.375 41.3588 164.375 39.851V33.9287H165.863V39.7914C165.863 40.9521 166.116 41.8002 166.622 42.3359C167.138 42.8716 167.862 43.1394 168.795 43.1394C169.737 43.1394 170.461 42.8716 170.967 42.3359C171.483 41.8002 171.741 40.9521 171.741 39.7914V33.9287H173.184V39.851C173.184 41.3588 172.793 42.5046 172.009 43.2882C171.235 44.0719 170.159 44.4638 168.78 44.4638ZM176.235 44.3447V33.9287H177.723V44.3447H176.235ZM180.841 44.3447V33.9287H182.329V43.0502H187.969V44.3447H180.841ZM189.676 44.3447V33.9287H194.066C195.177 33.9287 196.154 34.147 196.997 34.5834C197.851 35.0199 198.51 35.63 198.976 36.4137C199.453 37.1974 199.691 38.105 199.691 39.1367C199.691 40.1684 199.453 41.0761 198.976 41.8598C198.51 42.6434 197.851 43.2535 196.997 43.69C196.154 44.1265 195.177 44.3447 194.066 44.3447H189.676ZM191.164 43.0502H193.977C194.84 43.0502 195.584 42.8865 196.209 42.5591C196.844 42.2318 197.335 41.7754 197.682 41.1902C198.029 40.595 198.203 39.9105 198.203 39.1367C198.203 38.353 198.029 37.6686 197.682 37.0833C197.335 36.498 196.844 36.0417 196.209 35.7143C195.584 35.387 194.84 35.2233 193.977 35.2233H191.164V43.0502ZM201.97 44.3447V33.9287H203.458V44.3447H201.97ZM206.576 44.3447V33.9287H207.796L214.686 42.4847H214.046V33.9287H215.534V44.3447H214.314L207.424 35.7887H208.064V44.3447H206.576ZM223.354 44.4638C222.55 44.4638 221.811 44.3348 221.137 44.0769C220.462 43.809 219.877 43.437 219.381 42.9609C218.885 42.4748 218.498 41.9094 218.22 41.2646C217.942 40.6198 217.804 39.9105 217.804 39.1367C217.804 38.363 217.942 37.6537 218.22 37.0089C218.498 36.3641 218.885 35.8036 219.381 35.3274C219.887 34.8414 220.477 34.4694 221.152 34.2114C221.826 33.9436 222.57 33.8097 223.384 33.8097C224.207 33.8097 224.961 33.9436 225.645 34.2114C226.33 34.4793 226.91 34.881 227.386 35.4167L226.464 36.3393C226.037 35.9226 225.571 35.6201 225.065 35.4316C224.569 35.2332 224.028 35.134 223.443 35.134C222.848 35.134 222.292 35.2332 221.777 35.4316C221.271 35.63 220.829 35.9078 220.452 36.2649C220.085 36.622 219.798 37.0486 219.589 37.5446C219.391 38.0306 219.292 38.5614 219.292 39.1367C219.292 39.7022 219.391 40.2329 219.589 40.7289C219.798 41.215 220.085 41.6415 220.452 42.0086C220.829 42.3657 221.271 42.6434 221.777 42.8418C222.282 43.0402 222.833 43.1394 223.428 43.1394C223.984 43.1394 224.514 43.0551 225.02 42.8865C225.536 42.7079 226.012 42.4153 226.449 42.0086L227.297 43.1394C226.781 43.5759 226.176 43.9082 225.482 44.1364C224.797 44.3546 224.088 44.4638 223.354 44.4638ZM227.297 43.1394L225.869 42.946V39.0772H227.297V43.1394ZM237.178 44.4638C236.384 44.4638 235.625 44.3447 234.901 44.1066C234.177 43.8586 233.606 43.5412 233.19 43.1543L233.74 41.9937C234.137 42.3409 234.643 42.6286 235.258 42.8567C235.873 43.0849 236.513 43.199 237.178 43.199C237.783 43.199 238.274 43.1295 238.651 42.9906C239.028 42.8518 239.305 42.6633 239.484 42.4252C239.663 42.1772 239.752 41.8994 239.752 41.5919C239.752 41.2348 239.633 40.9471 239.395 40.7289C239.167 40.5106 238.864 40.337 238.487 40.2081C238.12 40.0692 237.713 39.9502 237.267 39.851C236.82 39.7518 236.369 39.6377 235.913 39.5087C235.466 39.3698 235.055 39.1962 234.678 38.9879C234.311 38.7796 234.013 38.5018 233.785 38.1546C233.557 37.7975 233.443 37.3412 233.443 36.7857C233.443 36.25 233.582 35.759 233.859 35.3126C234.147 34.8562 234.584 34.4942 235.169 34.2263C235.764 33.9486 236.518 33.8097 237.431 33.8097C238.036 33.8097 238.636 33.889 239.231 34.0478C239.826 34.2065 240.342 34.4346 240.779 34.7322L240.288 35.9226C239.841 35.625 239.37 35.4118 238.874 35.2828C238.378 35.1439 237.897 35.0745 237.431 35.0745C236.845 35.0745 236.364 35.1489 235.987 35.2977C235.61 35.4465 235.332 35.6449 235.154 35.8929C234.985 36.1409 234.901 36.4186 234.901 36.7262C234.901 37.0932 235.015 37.3858 235.243 37.6041C235.481 37.8223 235.784 37.9959 236.151 38.1249C236.528 38.2538 236.94 38.3729 237.386 38.482C237.832 38.5812 238.279 38.6953 238.725 38.8242C239.181 38.9532 239.593 39.1218 239.96 39.3302C240.337 39.5385 240.64 39.8162 240.868 40.1634C241.096 40.5106 241.21 40.957 241.21 41.5026C241.21 42.0284 241.066 42.5194 240.779 42.9758C240.491 43.4222 240.044 43.7842 239.439 44.062C238.844 44.3298 238.09 44.4638 237.178 44.4638ZM245.681 44.3447V40.3569L246.023 41.2794L241.544 33.9287H243.136L246.901 40.1337H246.038L249.817 33.9287H251.29L246.826 41.2794L247.154 40.3569V44.3447H245.681ZM255.618 44.4638C254.824 44.4638 254.065 44.3447 253.341 44.1066C252.617 43.8586 252.047 43.5412 251.63 43.1543L252.18 41.9937C252.577 42.3409 253.083 42.6286 253.698 42.8567C254.313 43.0849 254.953 43.199 255.618 43.199C256.223 43.199 256.714 43.1295 257.091 42.9906C257.468 42.8518 257.746 42.6633 257.924 42.4252C258.103 42.1772 258.192 41.8994 258.192 41.5919C258.192 41.2348 258.073 40.9471 257.835 40.7289C257.607 40.5106 257.304 40.337 256.927 40.2081C256.56 40.0692 256.153 39.9502 255.707 39.851C255.261 39.7518 254.809 39.6377 254.353 39.5087C253.907 39.3698 253.495 39.1962 253.118 38.9879C252.751 38.7796 252.453 38.5018 252.225 38.1546C251.997 37.7975 251.883 37.3412 251.883 36.7857C251.883 36.25 252.022 35.759 252.3 35.3126C252.587 34.8562 253.024 34.4942 253.609 34.2263C254.204 33.9486 254.958 33.8097 255.871 33.8097C256.476 33.8097 257.076 33.889 257.671 34.0478C258.266 34.2065 258.782 34.4346 259.219 34.7322L258.728 35.9226C258.281 35.625 257.81 35.4118 257.314 35.2828C256.818 35.1439 256.337 35.0745 255.871 35.0745C255.285 35.0745 254.804 35.1489 254.427 35.2977C254.05 35.4465 253.773 35.6449 253.594 35.8929C253.425 36.1409 253.341 36.4186 253.341 36.7262C253.341 37.0932 253.455 37.3858 253.683 37.6041C253.921 37.8223 254.224 37.9959 254.591 38.1249C254.968 38.2538 255.38 38.3729 255.826 38.482C256.272 38.5812 256.719 38.6953 257.165 38.8242C257.622 38.9532 258.033 39.1218 258.4 39.3302C258.777 39.5385 259.08 39.8162 259.308 40.1634C259.536 40.5106 259.65 40.957 259.65 41.5026C259.65 42.0284 259.506 42.5194 259.219 42.9758C258.931 43.4222 258.485 43.7842 257.88 44.062C257.284 44.3298 256.53 44.4638 255.618 44.4638ZM263.747 44.3447V35.2233H260.176V33.9287H268.791V35.2233H265.22V44.3447H263.747ZM270.412 44.3447V33.9287H277.763V35.2233H271.9V43.0502H277.971V44.3447H270.412ZM271.766 39.6873V38.4225H277.123V39.6873H271.766ZM280.381 44.3447V33.9287H281.601L286.273 41.8002H285.618L290.231 33.9287H291.451L291.466 44.3447H290.038L290.023 36.1756H290.365L286.258 43.0799H285.574L281.437 36.1756H281.809V44.3447H280.381ZM297.628 44.4638C296.834 44.4638 296.075 44.3447 295.351 44.1066C294.627 43.8586 294.056 43.5412 293.64 43.1543L294.19 41.9937C294.587 42.3409 295.093 42.6286 295.708 42.8567C296.323 43.0849 296.963 43.199 297.628 43.199C298.233 43.199 298.724 43.1295 299.101 42.9906C299.478 42.8518 299.755 42.6633 299.934 42.4252C300.113 42.1772 300.202 41.8994 300.202 41.5919C300.202 41.2348 300.083 40.9471 299.845 40.7289C299.617 40.5106 299.314 40.337 298.937 40.2081C298.57 40.0692 298.163 39.9502 297.717 39.851C297.27 39.7518 296.819 39.6377 296.363 39.5087C295.916 39.3698 295.505 39.1962 295.128 38.9879C294.761 38.7796 294.463 38.5018 294.235 38.1546C294.007 37.7975 293.893 37.3412 293.893 36.7857C293.893 36.25 294.032 35.759 294.309 35.3126C294.597 34.8562 295.034 34.4942 295.619 34.2263C296.214 33.9486 296.968 33.8097 297.881 33.8097C298.486 33.8097 299.086 33.889 299.681 34.0478C300.276 34.2065 300.792 34.4346 301.229 34.7322L300.738 35.9226C300.291 35.625 299.82 35.4118 299.324 35.2828C298.828 35.1439 298.347 35.0745 297.881 35.0745C297.295 35.0745 296.814 35.1489 296.437 35.2977C296.06 35.4465 295.782 35.6449 295.604 35.8929C295.435 36.1409 295.351 36.4186 295.351 36.7262C295.351 37.0932 295.465 37.3858 295.693 37.6041C295.931 37.8223 296.234 37.9959 296.601 38.1249C296.978 38.2538 297.39 38.3729 297.836 38.482C298.282 38.5812 298.729 38.6953 299.175 38.8242C299.631 38.9532 300.043 39.1218 300.41 39.3302C300.787 39.5385 301.09 39.8162 301.318 40.1634C301.546 40.5106 301.66 40.957 301.66 41.5026C301.66 42.0284 301.516 42.5194 301.229 42.9758C300.941 43.4222 300.494 43.7842 299.889 44.062C299.294 44.3298 298.54 44.4638 297.628 44.4638Z" fill="#AAAAAA"/>
<line x1="135.066" y1="57.4917" x2="134.906" y2="0.00228229" stroke="#1DD45A" stroke-width="1.728"/>
<path d="M114.002 48.3747C111.045 48.3747 108.76 47.6187 107.147 46.1067C105.535 44.5611 104.728 42.2931 104.728 39.3027V15.1611H111.028V39.1515C111.028 40.4283 111.347 41.4195 111.986 42.1251C112.658 42.8307 113.582 43.1835 114.758 43.1835C116.169 43.1835 117.345 42.8139 118.286 42.0747L120.05 46.5603C119.311 47.1651 118.403 47.6187 117.328 47.9211C116.253 48.2235 115.144 48.3747 114.002 48.3747ZM100.293 26.1483V21.1083H118.235V26.1483H100.293Z" fill="white"/>
<path fill-rule="evenodd" clip-rule="evenodd" d="M90.8177 21.1085V48.0221H97.1177V21.1085H90.8177Z" fill="white"/>
<path d="M93.9929 16.6733C92.8169 16.6733 91.8425 16.3037 91.0697 15.5645C90.3305 14.8253 89.9609 13.9349 89.9609 12.8933C89.9609 11.8181 90.3305 10.9277 91.0697 10.2221C91.8425 9.48288 92.8169 9.11328 93.9929 9.11328C95.1689 9.11328 96.1265 9.46608 96.8657 10.1717C97.6385 10.8437 98.0249 11.7005 98.0249 12.7421C98.0249 13.8509 97.6553 14.7917 96.9161 15.5645C96.1769 16.3037 95.2025 16.6733 93.9929 16.6733Z" fill="#1DD45A"/>
<path d="M63.2852 48.022V44.0404L79.8668 23.9812L81.026 26.1484H63.5876V21.1084H86.066V25.09L69.4844 45.1492L68.2244 42.982H86.5196V48.022H63.2852Z" fill="white"/>
<path fill-rule="evenodd" clip-rule="evenodd" d="M52.4466 21.1085V48.0221H58.7466V21.1085H52.4466Z" fill="white"/>
<path d="M55.6218 16.6733C54.4458 16.6733 53.4714 16.3037 52.6986 15.5645C51.9594 14.8253 51.5898 13.9349 51.5898 12.8933C51.5898 11.8181 51.9594 10.9277 52.6986 10.2221C53.4714 9.48288 54.4458 9.11328 55.6218 9.11328C56.7978 9.11328 57.7554 9.46608 58.4946 10.1717C59.2674 10.8437 59.6538 11.7005 59.6538 12.7421C59.6538 13.8509 59.2842 14.7917 58.545 15.5645C57.8058 16.3037 56.8314 16.6733 55.6218 16.6733Z" fill="#1DD45A"/>
<path d="M33.0391 48.0226V21.109H39.0367V28.5178L38.3311 26.3506C39.1375 24.5362 40.3975 23.1586 42.1111 22.2178C43.8583 21.277 46.0255 20.8066 48.6127 20.8066V26.8042C48.3439 26.737 48.0919 26.7034 47.8567 26.7034C47.6215 26.6698 47.3863 26.653 47.1511 26.653C44.7655 26.653 42.8671 27.3586 41.4559 28.7698C40.0447 30.1474 39.3391 32.2138 39.3391 34.969V48.0226H33.0391Z" fill="white"/>
<path d="M14.9184 48.3756C12.6336 48.3756 10.6008 47.8716 8.82 46.8636C7.0392 45.8556 5.628 44.3436 4.5864 42.3276C3.5784 40.278 3.0744 37.6908 3.0744 34.566C3.0744 31.4076 3.5952 28.8204 4.6368 26.8044C5.712 24.7884 7.14 23.2932 8.9208 22.3188C10.7352 21.3108 12.7344 20.8068 14.9184 20.8068C17.5728 20.8068 19.908 21.378 21.924 22.5204C23.9736 23.6628 25.5864 25.2588 26.7624 27.3084C27.972 29.358 28.5768 31.7772 28.5768 34.566C28.5768 37.3548 27.972 39.774 26.7624 41.8236C25.5864 43.8732 23.9736 45.486 21.924 46.662C19.908 47.8044 17.5728 48.3756 14.9184 48.3756ZM0 48.0228V10.626H6.3V27.3588L5.796 34.5156L5.9976 41.6724V48.0228H0ZM14.2128 42.9828C15.7248 42.9828 17.0688 42.6468 18.2448 41.9748C19.4544 41.3028 20.412 40.3284 21.1176 39.0516C21.8232 37.7748 22.176 36.2796 22.176 34.566C22.176 32.8188 21.8232 31.3236 21.1176 30.0804C20.412 28.8036 19.4544 27.8292 18.2448 27.1572C17.0688 26.4852 15.7248 26.1492 14.2128 26.1492C12.7008 26.1492 11.34 26.4852 10.1304 27.1572C8.9208 27.8292 7.9632 28.8036 7.2576 30.0804C6.552 31.3236 6.1992 32.8188 6.1992 34.566C6.1992 36.2796 6.552 37.7748 7.2576 39.0516C7.9632 40.3284 8.9208 41.3028 10.1304 41.9748C11.34 42.6468 12.7008 42.9828 14.2128 42.9828Z" fill="white"/>
</svg>
