<svg width="3225" height="614" viewBox="0 0 3225 614" fill="none" xmlns="http://www.w3.org/2000/svg">
<path d="M1617.37 255.011L1667.68 143.907H1683.4L1733.87 255.011H1717.2L1672.29 152.795H1678.63L1633.72 255.011H1617.37ZM1638.8 227.235L1643.08 214.537H1705.62L1710.22 227.235H1638.8ZM1750.44 255.011V143.907H1793.77C1808.16 143.907 1819.49 147.346 1827.74 154.224C1835.99 160.996 1840.12 170.466 1840.12 182.634C1840.12 190.676 1838.27 197.607 1834.56 203.427C1830.86 209.141 1825.57 213.532 1818.69 216.6C1811.81 219.669 1803.51 221.203 1793.77 221.203H1759.17L1766.31 213.902V255.011H1750.44ZM1824.72 255.011L1796.47 214.696H1813.45L1842.02 255.011H1824.72ZM1766.31 215.489L1759.17 207.712H1793.3C1803.46 207.712 1811.13 205.543 1816.31 201.205C1821.6 196.76 1824.25 190.57 1824.25 182.634C1824.25 174.698 1821.6 168.561 1816.31 164.223C1811.13 159.885 1803.46 157.715 1793.3 157.715H1759.17L1766.31 149.779V215.489ZM1915.44 256.281C1906.98 256.281 1899.15 254.905 1891.95 252.154C1884.86 249.297 1878.67 245.329 1873.38 240.25C1868.2 235.065 1864.12 229.034 1861.16 222.156C1858.2 215.278 1856.72 207.712 1856.72 199.459C1856.72 191.205 1858.2 183.64 1861.16 176.762C1864.12 169.884 1868.25 163.905 1873.54 158.826C1878.83 153.642 1885.02 149.674 1892.11 146.922C1899.31 144.065 1907.14 142.637 1915.6 142.637C1924.17 142.637 1932.06 144.118 1939.25 147.081C1946.55 149.938 1952.74 154.224 1957.82 159.937L1947.5 169.937C1943.27 165.493 1938.51 162.212 1933.22 160.096C1927.93 157.874 1922.27 156.763 1916.24 156.763C1909.99 156.763 1904.17 157.821 1898.78 159.937C1893.49 162.054 1888.88 165.016 1884.97 168.826C1881.05 172.635 1877.98 177.185 1875.76 182.476C1873.65 187.661 1872.59 193.322 1872.59 199.459C1872.59 205.596 1873.65 211.31 1875.76 216.6C1877.98 221.785 1881.05 226.282 1884.97 230.092C1888.88 233.901 1893.49 236.864 1898.78 238.98C1904.17 241.096 1909.99 242.154 1916.24 242.154C1922.27 242.154 1927.93 241.096 1933.22 238.98C1938.51 236.758 1943.27 233.372 1947.5 228.822L1957.82 238.821C1952.74 244.535 1946.55 248.874 1939.25 251.836C1932.06 254.799 1924.12 256.281 1915.44 256.281ZM2058.59 255.011V143.907H2074.46V255.011H2058.59ZM1978.91 255.011V143.907H1994.78V255.011H1978.91ZM1993.2 205.49V191.681H2060.02V205.49H1993.2ZM2107.72 255.011V143.907H2123.59V255.011H2107.72ZM2178.92 255.011V157.715H2140.82V143.907H2232.72V157.715H2194.63V255.011H2178.92ZM2250.01 255.011V143.907H2328.42V157.715H2265.88V241.202H2330.64V255.011H2250.01ZM2264.45 205.331V191.84H2321.59V205.331H2264.45ZM2405.86 256.281C2397.4 256.281 2389.57 254.905 2382.37 252.154C2375.28 249.297 2369.09 245.329 2363.8 240.25C2358.62 235.065 2354.54 229.034 2351.58 222.156C2348.62 215.278 2347.14 207.712 2347.14 199.459C2347.14 191.205 2348.62 183.64 2351.58 176.762C2354.54 169.884 2358.67 163.905 2363.96 158.826C2369.25 153.642 2375.44 149.674 2382.53 146.922C2389.73 144.065 2397.56 142.637 2406.02 142.637C2414.59 142.637 2422.47 144.118 2429.67 147.081C2436.97 149.938 2443.16 154.224 2448.24 159.937L2437.92 169.937C2433.69 165.493 2428.93 162.212 2423.64 160.096C2418.35 157.874 2412.69 156.763 2406.66 156.763C2400.41 156.763 2394.59 157.821 2389.2 159.937C2383.91 162.054 2379.3 165.016 2375.39 168.826C2371.47 172.635 2368.4 177.185 2366.18 182.476C2364.07 187.661 2363.01 193.322 2363.01 199.459C2363.01 205.596 2364.07 211.31 2366.18 216.6C2368.4 221.785 2371.47 226.282 2375.39 230.092C2379.3 233.901 2383.91 236.864 2389.2 238.98C2394.59 241.096 2400.41 242.154 2406.66 242.154C2412.69 242.154 2418.35 241.096 2423.64 238.98C2428.93 236.758 2433.69 233.372 2437.92 228.822L2448.24 238.821C2443.16 244.535 2436.97 248.874 2429.67 251.836C2422.47 254.799 2414.54 256.281 2405.86 256.281ZM2488.76 255.011V157.715H2450.67V143.907H2542.57V157.715H2504.47V255.011H2488.76ZM2603.87 256.281C2589.26 256.281 2577.78 252.101 2569.42 243.742C2561.07 235.382 2556.89 223.161 2556.89 207.077V143.907H2572.76V206.442C2572.76 218.823 2575.46 227.87 2580.85 233.584C2586.35 239.297 2594.08 242.154 2604.03 242.154C2614.08 242.154 2621.8 239.297 2627.2 233.584C2632.7 227.87 2635.45 218.823 2635.45 206.442V143.907H2650.85V207.077C2650.85 223.161 2646.67 235.382 2638.31 243.742C2630.06 252.101 2618.57 256.281 2603.87 256.281ZM2683.39 255.011V143.907H2726.72C2741.11 143.907 2752.43 147.346 2760.68 154.224C2768.94 160.996 2773.06 170.466 2773.06 182.634C2773.06 190.676 2771.21 197.607 2767.51 203.427C2763.81 209.141 2758.52 213.532 2751.64 216.6C2744.76 219.669 2736.45 221.203 2726.72 221.203H2692.12L2699.26 213.902V255.011H2683.39ZM2757.67 255.011L2729.42 214.696H2746.4L2774.97 255.011H2757.67ZM2699.26 215.489L2692.12 207.712H2726.24C2736.4 207.712 2744.07 205.543 2749.26 201.205C2754.55 196.76 2757.19 190.57 2757.19 182.634C2757.19 174.698 2754.55 168.561 2749.26 164.223C2744.07 159.885 2736.4 157.715 2726.24 157.715H2692.12L2699.26 149.779V215.489ZM2781.88 255.011L2832.2 143.907H2847.91L2898.38 255.011H2881.72L2836.8 152.795H2843.15L2798.23 255.011H2781.88ZM2803.31 227.235L2807.6 214.537H2870.13L2874.73 227.235H2803.31ZM2914.96 255.011V143.907H2930.83V241.202H2990.98V255.011H2914.96ZM1634.19 472.011V360.907H1684.03C1696.83 360.907 1706.68 363.499 1713.55 368.684C1720.43 373.763 1723.87 380.747 1723.87 389.635C1723.87 395.666 1722.49 400.745 1719.74 404.872C1717.1 408.999 1713.5 412.173 1708.95 414.395C1704.4 416.617 1699.48 417.729 1694.19 417.729L1697.05 412.967C1703.39 412.967 1709 414.078 1713.87 416.3C1718.74 418.522 1722.6 421.802 1725.46 426.141C1728.31 430.373 1729.74 435.664 1729.74 442.013C1729.74 451.536 1726.14 458.943 1718.95 464.233C1711.86 469.418 1701.28 472.011 1687.21 472.011H1634.19ZM1650.06 459.154H1686.57C1695.35 459.154 1702.07 457.673 1706.73 454.71C1711.38 451.747 1713.71 447.092 1713.71 440.743C1713.71 434.288 1711.38 429.58 1706.73 426.617C1702.07 423.654 1695.35 422.173 1686.57 422.173H1648.64V409.316H1682.6C1690.64 409.316 1696.89 407.835 1701.33 404.872C1705.78 401.909 1708 397.465 1708 391.54C1708 385.614 1705.78 381.17 1701.33 378.207C1696.89 375.244 1690.64 373.763 1682.6 373.763H1650.06V459.154ZM1800.35 473.281C1785.74 473.281 1774.26 469.101 1765.9 460.742C1757.55 452.382 1753.37 440.161 1753.37 424.077V360.907H1769.24V423.442C1769.24 435.823 1771.94 444.87 1777.33 450.584C1782.83 456.297 1790.56 459.154 1800.51 459.154C1810.56 459.154 1818.28 456.297 1823.68 450.584C1829.18 444.87 1831.93 435.823 1831.93 423.442V360.907H1847.33V424.077C1847.33 440.161 1843.15 452.382 1834.79 460.742C1826.54 469.101 1815.05 473.281 1800.35 473.281ZM1879.87 472.011V360.907H1895.74V472.011H1879.87ZM1929 472.011V360.907H1944.87V458.202H2005.03V472.011H1929ZM2023.24 472.011V360.907H2070.07C2081.92 360.907 2092.34 363.235 2101.33 367.89C2110.43 372.546 2117.47 379.054 2122.44 387.413C2127.52 395.772 2130.06 405.454 2130.06 416.459C2130.06 427.463 2127.52 437.145 2122.44 445.505C2117.47 453.864 2110.43 460.371 2101.33 465.027C2092.34 469.683 2081.92 472.011 2070.07 472.011H2023.24ZM2039.11 458.202H2069.11C2078.32 458.202 2086.25 456.456 2092.92 452.964C2099.69 449.473 2104.93 444.605 2108.63 438.362C2112.34 432.013 2114.19 424.712 2114.19 416.459C2114.19 408.099 2112.34 400.798 2108.63 394.555C2104.93 388.312 2099.69 383.445 2092.92 379.953C2086.25 376.461 2078.32 374.715 2069.11 374.715H2039.11V458.202ZM2154.37 472.011V360.907H2170.24V472.011H2154.37ZM2203.51 472.011V360.907H2216.52L2290.01 452.171H2283.19V360.907H2299.06V472.011H2286.04L2212.55 380.747H2219.38V472.011H2203.51ZM2382.47 473.281C2373.9 473.281 2366.01 471.905 2358.82 469.154C2351.62 466.297 2345.38 462.329 2340.09 457.25C2334.8 452.065 2330.67 446.034 2327.71 439.156C2324.75 432.278 2323.27 424.712 2323.27 416.459C2323.27 408.205 2324.75 400.64 2327.71 393.762C2330.67 386.884 2334.8 380.905 2340.09 375.826C2345.49 370.642 2351.78 366.674 2358.98 363.922C2366.17 361.065 2374.11 359.637 2382.79 359.637C2391.57 359.637 2399.61 361.065 2406.91 363.922C2414.21 366.779 2420.4 371.065 2425.48 376.779L2415.64 386.619C2411.09 382.175 2406.12 378.948 2400.72 376.937C2395.43 374.821 2389.66 373.763 2383.42 373.763C2377.07 373.763 2371.15 374.821 2365.64 376.937C2360.25 379.054 2355.54 382.016 2351.52 385.826C2347.6 389.635 2344.53 394.185 2342.31 399.476C2340.2 404.661 2339.14 410.322 2339.14 416.459C2339.14 422.49 2340.2 428.151 2342.31 433.442C2344.53 438.627 2347.6 443.177 2351.52 447.092C2355.54 450.901 2360.25 453.864 2365.64 455.98C2371.04 458.096 2376.91 459.154 2383.26 459.154C2389.19 459.154 2394.85 458.255 2400.25 456.456C2405.75 454.552 2410.83 451.43 2415.48 447.092L2424.53 459.154C2419.03 463.81 2412.57 467.355 2405.17 469.789C2397.86 472.117 2390.3 473.281 2382.47 473.281ZM2424.53 459.154L2409.29 457.091V415.824H2424.53V459.154ZM2529.92 473.281C2521.46 473.281 2513.36 472.011 2505.64 469.471C2497.91 466.826 2491.83 463.44 2487.38 459.313L2493.26 446.933C2497.49 450.636 2502.89 453.705 2509.45 456.139C2516.01 458.572 2522.83 459.789 2529.92 459.789C2536.38 459.789 2541.61 459.049 2545.64 457.567C2549.66 456.086 2552.62 454.075 2554.52 451.536C2556.43 448.891 2557.38 445.928 2557.38 442.648C2557.38 438.838 2556.11 435.77 2553.57 433.442C2551.14 431.114 2547.91 429.262 2543.89 427.887C2539.97 426.405 2535.64 425.135 2530.87 424.077C2526.11 423.019 2521.3 421.802 2516.43 420.427C2511.67 418.945 2507.28 417.094 2503.26 414.872C2499.34 412.649 2496.17 409.687 2493.73 405.983C2491.3 402.174 2490.08 397.307 2490.08 391.381C2490.08 385.667 2491.56 380.429 2494.53 375.668C2497.6 370.8 2502.25 366.938 2508.49 364.081C2514.84 361.118 2522.89 359.637 2532.62 359.637C2539.07 359.637 2545.48 360.483 2551.83 362.176C2558.17 363.87 2563.68 366.303 2568.33 369.478L2563.09 382.175C2558.33 379.001 2553.31 376.726 2548.02 375.35C2542.73 373.869 2537.59 373.128 2532.62 373.128C2526.38 373.128 2521.25 373.922 2517.22 375.509C2513.2 377.096 2510.24 379.212 2508.34 381.858C2506.54 384.503 2505.64 387.466 2505.64 390.746C2505.64 394.661 2506.85 397.783 2509.29 400.111C2511.83 402.438 2515.06 404.29 2518.97 405.666C2522.99 407.041 2527.38 408.311 2532.14 409.475C2536.91 410.533 2541.67 411.75 2546.43 413.126C2551.3 414.501 2555.69 416.3 2559.6 418.522C2563.62 420.744 2566.85 423.707 2569.28 427.41C2571.72 431.114 2572.93 435.875 2572.93 441.695C2572.93 447.303 2571.4 452.541 2568.33 457.409C2565.26 462.17 2560.5 466.032 2554.05 468.995C2547.7 471.852 2539.66 473.281 2529.92 473.281ZM2620.62 472.011V429.474L2624.27 439.314L2576.5 360.907H2593.48L2633.64 427.093H2624.43L2664.75 360.907H2680.46L2632.84 439.314L2636.33 429.474V472.011H2620.62ZM2726.62 473.281C2718.15 473.281 2710.06 472.011 2702.33 469.471C2694.61 466.826 2688.52 463.44 2684.08 459.313L2689.95 446.933C2694.19 450.636 2699.58 453.705 2706.14 456.139C2712.7 458.572 2719.53 459.789 2726.62 459.789C2733.07 459.789 2738.31 459.049 2742.33 457.567C2746.35 456.086 2749.31 454.075 2751.22 451.536C2753.12 448.891 2754.08 445.928 2754.08 442.648C2754.08 438.838 2752.81 435.77 2750.27 433.442C2747.83 431.114 2744.61 429.262 2740.58 427.887C2736.67 426.405 2732.33 425.135 2727.57 424.077C2722.81 423.019 2717.99 421.802 2713.13 420.427C2708.36 418.945 2703.97 417.094 2699.95 414.872C2696.04 412.649 2692.86 409.687 2690.43 405.983C2688 402.174 2686.78 397.307 2686.78 391.381C2686.78 385.667 2688.26 380.429 2691.22 375.668C2694.29 370.8 2698.95 366.938 2705.19 364.081C2711.54 361.118 2719.58 359.637 2729.32 359.637C2735.77 359.637 2742.17 360.483 2748.52 362.176C2754.87 363.87 2760.37 366.303 2765.03 369.478L2759.79 382.175C2755.03 379.001 2750 376.726 2744.71 375.35C2739.42 373.869 2734.29 373.128 2729.32 373.128C2723.07 373.128 2717.94 373.922 2713.92 375.509C2709.9 377.096 2706.94 379.212 2705.03 381.858C2703.23 384.503 2702.33 387.466 2702.33 390.746C2702.33 394.661 2703.55 397.783 2705.98 400.111C2708.52 402.438 2711.75 404.29 2715.67 405.666C2719.69 407.041 2724.08 408.311 2728.84 409.475C2733.6 410.533 2738.36 411.75 2743.12 413.126C2747.99 414.501 2752.38 416.3 2756.3 418.522C2760.32 420.744 2763.55 423.707 2765.98 427.41C2768.41 431.114 2769.63 435.875 2769.63 441.695C2769.63 447.303 2768.1 452.541 2765.03 457.409C2761.96 462.17 2757.2 466.032 2750.74 468.995C2744.39 471.852 2736.35 473.281 2726.62 473.281ZM2813.33 472.011V374.715H2775.24V360.907H2867.14V374.715H2829.04V472.011H2813.33ZM2884.42 472.011V360.907H2962.83V374.715H2900.29V458.202H2965.05V472.011H2884.42ZM2898.87 422.331V408.84H2956.01V422.331H2898.87ZM2990.75 472.011V360.907H3003.77L3053.61 444.87H3046.62L3095.83 360.907H3108.84L3109 472.011H3093.76L3093.6 384.873H3097.25L3053.45 458.52H3046.15L3002.02 384.873H3005.99V472.011H2990.75ZM3174.72 473.281C3166.26 473.281 3158.16 472.011 3150.44 469.471C3142.71 466.826 3136.63 463.44 3132.18 459.313L3138.06 446.933C3142.29 450.636 3147.69 453.705 3154.25 456.139C3160.81 458.572 3167.63 459.789 3174.72 459.789C3181.18 459.789 3186.41 459.049 3190.44 457.567C3194.46 456.086 3197.42 454.075 3199.32 451.536C3201.23 448.891 3202.18 445.928 3202.18 442.648C3202.18 438.838 3200.91 435.77 3198.37 433.442C3195.94 431.114 3192.71 429.262 3188.69 427.887C3184.77 426.405 3180.44 425.135 3175.67 424.077C3170.91 423.019 3166.1 421.802 3161.23 420.427C3156.47 418.945 3152.08 417.094 3148.06 414.872C3144.14 412.649 3140.97 409.687 3138.53 405.983C3136.1 402.174 3134.88 397.307 3134.88 391.381C3134.88 385.667 3136.36 380.429 3139.33 375.668C3142.4 370.8 3147.05 366.938 3153.29 364.081C3159.64 361.118 3167.69 359.637 3177.42 359.637C3183.87 359.637 3190.28 360.483 3196.63 362.176C3202.97 363.87 3208.48 366.303 3213.13 369.478L3207.89 382.175C3203.13 379.001 3198.11 376.726 3192.82 375.35C3187.53 373.869 3182.39 373.128 3177.42 373.128C3171.18 373.128 3166.05 373.922 3162.02 375.509C3158 377.096 3155.04 379.212 3153.14 381.858C3151.34 384.503 3150.44 387.466 3150.44 390.746C3150.44 394.661 3151.65 397.783 3154.09 400.111C3156.63 402.438 3159.86 404.29 3163.77 405.666C3167.79 407.041 3172.18 408.311 3176.94 409.475C3181.71 410.533 3186.47 411.75 3191.23 413.126C3196.1 414.501 3200.49 416.3 3204.4 418.522C3208.42 420.744 3211.65 423.707 3214.08 427.41C3216.52 431.114 3217.73 435.875 3217.73 441.695C3217.73 447.303 3216.2 452.541 3213.13 457.409C3210.06 462.17 3205.3 466.032 3198.85 468.995C3192.5 471.852 3184.46 473.281 3174.72 473.281Z" fill="#AAAAAA"/>
<line x1="1440.7" y1="613.246" x2="1439" y2="0.0263178" stroke="#1DD45A" stroke-width="18.432"/>
<path d="M1216.02 516.006C1184.48 516.006 1160.11 507.942 1142.91 491.814C1125.7 475.328 1117.1 451.136 1117.1 419.238V161.728H1184.3V417.625C1184.3 431.244 1187.71 441.817 1194.52 449.344C1201.68 456.87 1211.54 460.633 1224.08 460.633C1239.14 460.633 1251.68 456.691 1261.72 448.806L1280.53 496.652C1272.65 503.104 1262.97 507.942 1251.5 511.168C1240.03 514.393 1228.21 516.006 1216.02 516.006ZM1069.79 278.924V225.164H1261.18V278.924H1069.79Z" fill="white"/>
<path fill-rule="evenodd" clip-rule="evenodd" d="M968.69 225.164V512.242H1035.89V225.164H968.69Z" fill="white"/>
<path d="M1002.56 177.855C990.015 177.855 979.621 173.912 971.378 166.028C963.493 158.143 959.551 148.645 959.551 137.535C959.551 126.066 963.493 116.568 971.378 109.042C979.621 101.157 990.015 97.2148 1002.56 97.2148C1015.1 97.2148 1025.32 100.978 1033.2 108.504C1041.45 115.672 1045.57 124.812 1045.57 135.922C1045.57 147.749 1041.62 157.784 1033.74 166.028C1025.85 173.912 1015.46 177.855 1002.56 177.855Z" fill="#1DD45A"/>
<path d="M675.039 512.242V469.772L851.909 255.807L864.274 278.924H678.265V225.164H918.034V267.634L741.164 481.599L727.724 458.482H922.873V512.242H675.039Z" fill="white"/>
<path fill-rule="evenodd" clip-rule="evenodd" d="M559.42 225.164V512.242H626.62V225.164H559.42Z" fill="white"/>
<path d="M593.289 177.855C580.745 177.855 570.352 173.912 562.108 166.028C554.224 158.143 550.281 148.645 550.281 137.535C550.281 126.066 554.224 116.568 562.108 109.042C570.352 101.157 580.745 97.2148 593.289 97.2148C605.833 97.2148 616.048 100.978 623.932 108.504C632.176 115.672 636.297 124.812 636.297 135.922C636.297 147.749 632.355 157.784 624.47 166.028C616.585 173.912 606.192 177.855 593.289 177.855Z" fill="#1DD45A"/>
<path d="M352.422 512.242V225.164H416.396V304.191L408.87 281.074C417.472 261.721 430.912 247.026 449.19 236.991C467.827 226.956 490.944 221.938 518.54 221.938V285.913C515.673 285.196 512.985 284.838 510.476 284.838C507.968 284.479 505.459 284.3 502.95 284.3C477.503 284.3 457.254 291.826 442.201 306.879C427.148 321.574 419.622 343.615 419.622 373.004V512.242H352.422Z" fill="white"/>
<path d="M159.13 516.006C134.758 516.006 113.075 510.63 94.08 499.878C75.0848 489.126 60.032 472.998 48.9216 451.494C38.1696 429.632 32.7936 402.035 32.7936 368.704C32.7936 335.014 38.3488 307.417 49.4592 285.913C60.928 264.409 76.16 248.461 95.1552 238.067C114.509 227.315 135.834 221.939 159.13 221.939C187.443 221.939 212.352 228.032 233.856 240.217C255.718 252.403 272.922 269.427 285.466 291.289C298.368 313.152 304.819 338.957 304.819 368.704C304.819 398.451 298.368 424.256 285.466 446.118C272.922 467.981 255.718 485.184 233.856 497.728C212.352 509.913 187.443 516.006 159.13 516.006ZM0 512.243V113.344H67.2V291.827L61.824 368.166L63.9744 444.505V512.243H0ZM151.603 458.483C167.731 458.483 182.067 454.899 194.611 447.731C207.514 440.563 217.728 430.169 225.254 416.55C232.781 402.931 236.544 386.982 236.544 368.704C236.544 350.067 232.781 334.118 225.254 320.857C217.728 307.238 207.514 296.845 194.611 289.677C182.067 282.509 167.731 278.925 151.603 278.925C135.475 278.925 120.96 282.509 108.058 289.677C95.1552 296.845 84.9408 307.238 77.4144 320.857C69.888 334.118 66.1248 350.067 66.1248 368.704C66.1248 386.982 69.888 402.931 77.4144 416.55C84.9408 430.169 95.1552 440.563 108.058 447.731C120.96 454.899 135.475 458.483 151.603 458.483Z" fill="white"/>
</svg>
