<svg width="321" height="105" viewBox="0 0 321 105" fill="none" xmlns="http://www.w3.org/2000/svg">
<path d="M304.002 104.697C296.117 104.697 290.025 102.681 285.724 98.6486C281.423 94.527 279.272 88.479 279.272 80.5046V16.127H296.072V80.1014C296.072 83.5062 296.924 86.1494 298.626 88.031C300.418 89.9126 302.882 90.8534 306.018 90.8534C309.781 90.8534 312.917 89.8678 315.426 87.8966L320.13 99.8582C318.159 101.471 315.74 102.681 312.872 103.487C310.005 104.293 307.048 104.697 304.002 104.697ZM267.445 45.4262V31.9861H315.292V45.4262H267.445Z" fill="black"/>
<path fill-rule="evenodd" clip-rule="evenodd" d="M242.172 31.9872V103.757H258.972V31.9872H242.172Z" fill="black"/>
<path d="M250.639 20.16C247.503 20.16 244.904 19.1744 242.844 17.2032C240.872 15.232 239.887 12.8576 239.887 10.08C239.887 7.2128 240.872 4.8384 242.844 2.9568C244.904 0.985599 247.503 0 250.639 0C253.775 0 256.328 0.940799 258.3 2.8224C260.36 4.6144 261.391 6.8992 261.391 9.6768C261.391 12.6336 260.405 15.1424 258.434 17.2032C256.463 19.1744 253.864 20.16 250.639 20.16Z" fill="#1DD45A"/>
<path d="M168.758 103.756V93.1383L212.975 39.6471L216.067 45.4263H169.564V31.9863H229.507V42.6039L185.289 96.0951L181.929 90.3159H230.716V103.756H168.758Z" fill="black"/>
<path fill-rule="evenodd" clip-rule="evenodd" d="M139.851 31.9872V103.757H156.651V31.9872H139.851Z" fill="black"/>
<path d="M148.318 20.16C145.182 20.16 142.584 19.1744 140.523 17.2032C138.552 15.232 137.566 12.8576 137.566 10.08C137.566 7.2128 138.552 4.8384 140.523 2.9568C142.584 0.985599 145.182 0 148.318 0C151.454 0 154.008 0.940799 155.979 2.8224C158.04 4.6144 159.07 6.8992 159.07 9.6768C159.07 12.6336 158.085 15.1424 156.114 17.2032C154.142 19.1744 151.544 20.16 148.318 20.16Z" fill="#1DD45A"/>
<path d="M88.1055 103.756V31.9861H104.099V51.7429L102.217 45.9637C104.368 41.1253 107.728 37.4517 112.297 34.9429C116.957 32.4341 122.736 31.1797 129.635 31.1797V47.1733C128.918 46.9941 128.246 46.9045 127.619 46.9045C126.992 46.8149 126.365 46.7701 125.737 46.7701C119.376 46.7701 114.313 48.6517 110.55 52.4149C106.787 56.0885 104.905 61.5989 104.905 68.9461V103.756H88.1055Z" fill="black"/>
<path d="M39.7824 104.697C33.6896 104.697 28.2688 103.353 23.52 100.665C18.7712 97.9769 15.008 93.9449 12.2304 88.5689C9.5424 83.1033 8.1984 76.2041 8.1984 67.8713C8.1984 59.4489 9.5872 52.5497 12.3648 47.1737C15.232 41.7977 19.04 37.8104 23.7888 35.212C28.6272 32.5241 33.9584 31.1801 39.7824 31.1801C46.8608 31.1801 53.088 32.7033 58.464 35.7496C63.9296 38.7961 68.2304 43.0521 71.3664 48.5177C74.592 53.9833 76.2048 60.4345 76.2048 67.8713C76.2048 75.3081 74.592 81.7593 71.3664 87.2249C68.2304 92.6905 63.9296 96.9913 58.464 100.127C53.088 103.174 46.8608 104.697 39.7824 104.697ZM0 103.756V4.03125H16.8V48.6521L15.456 67.7369L15.9936 86.8217V103.756H0ZM37.9008 90.3161C41.9328 90.3161 45.5168 89.4201 48.6528 87.6281C51.8784 85.8361 54.432 83.2377 56.3136 79.8329C58.1952 76.4281 59.136 72.4409 59.136 67.8713C59.136 63.2121 58.1952 59.2249 56.3136 55.9097C54.432 52.5049 51.8784 49.9065 48.6528 48.1145C45.5168 46.3225 41.9328 45.4265 37.9008 45.4265C33.8688 45.4265 30.24 46.3225 27.0144 48.1145C23.7888 49.9065 21.2352 52.5049 19.3536 55.9097C17.472 59.2249 16.5312 63.2121 16.5312 67.8713C16.5312 72.4409 17.472 76.4281 19.3536 79.8329C21.2352 83.2377 23.7888 85.8361 27.0144 87.6281C30.24 89.4201 33.8688 90.3161 37.9008 90.3161Z" fill="black"/>
</svg>
