<svg width="1281" height="419" viewBox="0 0 1281 419" fill="none" xmlns="http://www.w3.org/2000/svg">
<path d="M1216.02 418.79C1184.48 418.79 1160.11 410.726 1142.9 394.598C1125.7 378.112 1117.1 353.92 1117.1 322.022V64.5117H1184.3V320.409C1184.3 334.029 1187.7 344.601 1194.51 352.128C1201.68 359.654 1211.54 363.417 1224.08 363.417C1239.13 363.417 1251.68 359.475 1261.71 351.59L1280.53 399.437C1272.64 405.888 1262.97 410.726 1251.5 413.952C1240.03 417.177 1228.2 418.79 1216.02 418.79ZM1069.79 181.709V127.949H1261.17V181.709H1069.79Z" fill="black"/>
<path fill-rule="evenodd" clip-rule="evenodd" d="M968.686 127.949V415.027H1035.89V127.949H968.686Z" fill="black"/>
<path d="M1002.55 80.64C990.011 80.64 979.617 76.6976 971.374 68.8128C963.489 60.928 959.547 51.4304 959.547 40.32C959.547 28.8512 963.489 19.3536 971.374 11.8272C979.617 3.9424 990.011 0 1002.55 0C1015.1 0 1025.31 3.7632 1033.2 11.2896C1041.44 18.4576 1045.56 27.5968 1045.56 38.7072C1045.56 50.5344 1041.62 60.5696 1033.74 68.8128C1025.85 76.6976 1015.46 80.64 1002.55 80.64Z" fill="#1DD45A"/>
<path d="M675.035 415.028V372.557L851.906 158.592L864.27 181.709H678.261V127.949H918.03V170.42L741.16 384.384L727.72 361.268H922.869V415.028H675.035Z" fill="black"/>
<path fill-rule="evenodd" clip-rule="evenodd" d="M559.42 127.949V415.027H626.62V127.949H559.42Z" fill="black"/>
<path d="M593.289 80.64C580.745 80.64 570.352 76.6976 562.108 68.8128C554.224 60.928 550.281 51.4304 550.281 40.32C550.281 28.8512 554.224 19.3536 562.108 11.8272C570.352 3.9424 580.745 0 593.289 0C605.833 0 616.048 3.7632 623.932 11.2896C632.176 18.4576 636.297 27.5968 636.297 38.7072C636.297 50.5344 632.355 60.5696 624.47 68.8128C616.585 76.6976 606.192 80.64 593.289 80.64Z" fill="#1DD45A"/>
<path d="M352.422 415.027V127.948H416.396V206.975L408.87 183.859C417.472 164.505 430.912 149.811 449.19 139.775C467.827 129.74 490.944 124.723 518.54 124.723V188.697C515.673 187.98 512.985 187.622 510.476 187.622C507.968 187.263 505.459 187.084 502.95 187.084C477.503 187.084 457.254 194.611 442.201 209.663C427.148 224.358 419.622 246.399 419.622 275.788V415.027H352.422Z" fill="black"/>
<path d="M159.13 418.79C134.758 418.79 113.075 413.414 94.08 402.662C75.0848 391.91 60.032 375.782 48.9216 354.278C38.1696 332.416 32.7936 304.819 32.7936 271.488C32.7936 237.798 38.3488 210.202 49.4592 188.698C60.928 167.194 76.16 151.245 95.1552 140.851C114.509 130.099 135.834 124.723 159.13 124.723C187.443 124.723 212.352 130.816 233.856 143.002C255.718 155.187 272.922 172.211 285.466 194.074C298.368 215.936 304.819 241.741 304.819 271.488C304.819 301.235 298.368 327.04 285.466 348.902C272.922 370.765 255.718 387.968 233.856 400.512C212.352 412.698 187.443 418.79 159.13 418.79ZM0 415.027V16.1279H67.2V194.611L61.824 270.95L63.9744 347.29V415.027H0ZM151.603 361.267C167.731 361.267 182.067 357.683 194.611 350.515C207.514 343.347 217.728 332.954 225.254 319.334C232.781 305.715 236.544 289.766 236.544 271.488C236.544 252.851 232.781 236.902 225.254 223.642C217.728 210.022 207.514 199.629 194.611 192.461C182.067 185.293 167.731 181.709 151.603 181.709C135.475 181.709 120.96 185.293 108.058 192.461C95.1552 199.629 84.9408 210.022 77.4144 223.642C69.888 236.902 66.1248 252.851 66.1248 271.488C66.1248 289.766 69.888 305.715 77.4144 319.334C84.9408 332.954 95.1552 343.347 108.058 350.515C120.96 357.683 135.475 361.267 151.603 361.267Z" fill="black"/>
</svg>
