<svg width="161" height="53" viewBox="0 0 161 53" fill="none" xmlns="http://www.w3.org/2000/svg">
<path d="M152.001 52.3483C148.059 52.3483 145.012 51.3403 142.862 49.3243C140.711 47.2635 139.636 44.2395 139.636 40.2523V8.06348H148.036V40.0507C148.036 41.7531 148.462 43.0747 149.313 44.0155C150.209 44.9563 151.441 45.4267 153.009 45.4267C154.891 45.4267 156.459 44.9339 157.713 43.9483L160.065 49.9291C159.079 50.7355 157.87 51.3403 156.436 51.7435C155.003 52.1467 153.524 52.3483 152.001 52.3483ZM133.723 22.7131V15.9931H157.646V22.7131H133.723Z" fill="black"/>
<path fill-rule="evenodd" clip-rule="evenodd" d="M121.088 15.9936V51.8784H129.488V15.9936H121.088Z" fill="black"/>
<path d="M125.321 10.08C123.753 10.08 122.454 9.5872 121.424 8.6016C120.438 7.616 119.945 6.4288 119.945 5.04C119.945 3.6064 120.438 2.4192 121.424 1.4784C122.454 0.492799 123.753 0 125.321 0C126.889 0 128.166 0.4704 129.152 1.4112C130.182 2.3072 130.697 3.4496 130.697 4.8384C130.697 6.3168 130.205 7.5712 129.219 8.6016C128.233 9.5872 126.934 10.08 125.321 10.08Z" fill="#1DD45A"/>
<path d="M84.3789 51.878V46.5692L106.488 19.8236L108.033 22.7132H84.7821V15.9932H114.753V21.302L92.6445 48.0476L90.9645 45.158H115.358V51.878H84.3789Z" fill="black"/>
<path fill-rule="evenodd" clip-rule="evenodd" d="M69.9276 15.9936V51.8784H78.3276V15.9936H69.9276Z" fill="black"/>
<path d="M74.1612 10.08C72.5932 10.08 71.294 9.5872 70.2636 8.6016C69.278 7.616 68.7852 6.4288 68.7852 5.04C68.7852 3.6064 69.278 2.4192 70.2636 1.4784C71.294 0.492799 72.5932 0 74.1612 0C75.7292 0 77.006 0.4704 77.9916 1.4112C79.022 2.3072 79.5372 3.4496 79.5372 4.8384C79.5372 6.3168 79.0444 7.5712 78.0588 8.6016C77.0732 9.5872 75.774 10.08 74.1612 10.08Z" fill="#1DD45A"/>
<path d="M44.0547 51.8778V15.993H52.0515V25.8714L51.1107 22.9818C52.1859 20.5626 53.8659 18.7258 56.1507 17.4714C58.4803 16.217 61.3699 15.5898 64.8195 15.5898V23.5866C64.4611 23.497 64.1251 23.4522 63.8115 23.4522C63.4979 23.4074 63.1843 23.385 62.8707 23.385C59.6899 23.385 57.1587 24.3258 55.2771 26.2074C53.3955 28.0442 52.4547 30.7994 52.4547 34.473V51.8778H44.0547Z" fill="black"/>
<path d="M19.8912 52.3484C16.8448 52.3484 14.1344 51.6764 11.76 50.3324C9.3856 48.9884 7.504 46.9724 6.1152 44.2844C4.7712 41.5516 4.0992 38.102 4.0992 33.9356C4.0992 29.7244 4.7936 26.2748 6.1824 23.5868C7.616 20.8988 9.52 18.9052 11.8944 17.606C14.3136 16.262 16.9792 15.59 19.8912 15.59C23.4304 15.59 26.544 16.3516 29.232 17.8748C31.9648 19.398 34.1152 21.526 35.6832 24.2588C37.296 26.9916 38.1024 30.2172 38.1024 33.9356C38.1024 37.654 37.296 40.8796 35.6832 43.6124C34.1152 46.3452 31.9648 48.4956 29.232 50.0636C26.544 51.5868 23.4304 52.3484 19.8912 52.3484ZM0 51.878V2.01562H8.4V24.326L7.728 33.8684L7.9968 43.4108V51.878H0ZM18.9504 45.158C20.9664 45.158 22.7584 44.71 24.3264 43.814C25.9392 42.918 27.216 41.6188 28.1568 39.9164C29.0976 38.214 29.568 36.2204 29.568 33.9356C29.568 31.606 29.0976 29.6124 28.1568 27.9548C27.216 26.2524 25.9392 24.9532 24.3264 24.0572C22.7584 23.1612 20.9664 22.7132 18.9504 22.7132C16.9344 22.7132 15.12 23.1612 13.5072 24.0572C11.8944 24.9532 10.6176 26.2524 9.6768 27.9548C8.736 29.6124 8.2656 31.606 8.2656 33.9356C8.2656 36.2204 8.736 38.214 9.6768 39.9164C10.6176 41.6188 11.8944 42.918 13.5072 43.814C15.12 44.71 16.9344 45.158 18.9504 45.158Z" fill="black"/>
</svg>
