<svg width="2562" height="838" viewBox="0 0 2562 838" fill="none" xmlns="http://www.w3.org/2000/svg">
<path d="M2432.03 837.58C2368.95 837.58 2320.21 821.452 2285.81 789.196C2251.4 756.223 2234.2 707.839 2234.2 644.044V129.023H2368.6V640.819C2368.6 668.057 2375.41 689.203 2389.02 704.255C2403.36 719.308 2423.07 726.835 2448.16 726.835C2478.27 726.835 2503.35 718.95 2523.42 703.18L2561.06 798.873C2545.29 811.775 2525.93 821.452 2503 827.903C2480.06 834.355 2456.4 837.58 2432.03 837.58ZM2139.58 363.417V255.897H2522.35V363.417H2139.58Z" fill="black"/>
<path fill-rule="evenodd" clip-rule="evenodd" d="M1937.38 255.898V830.054H2071.78V255.898H1937.38Z" fill="black"/>
<path d="M2005.11 161.28C1980.03 161.28 1959.24 153.395 1942.75 137.626C1926.98 121.856 1919.1 102.861 1919.1 80.64C1919.1 57.7024 1926.98 38.7072 1942.75 23.6544C1959.24 7.88479 1980.03 0 2005.11 0C2030.2 0 2050.63 7.52639 2066.4 22.5792C2082.89 36.9152 2091.13 55.1936 2091.13 77.4144C2091.13 101.069 2083.24 121.139 2067.48 137.626C2051.71 153.395 2030.92 161.28 2005.11 161.28Z" fill="#1DD45A"/>
<path d="M1350.07 830.054V745.113L1703.81 317.184L1728.54 363.417H1356.52V255.897H1836.06V340.838L1482.32 768.768L1455.44 722.534H1845.74V830.054H1350.07Z" fill="black"/>
<path fill-rule="evenodd" clip-rule="evenodd" d="M1118.84 255.898V830.054H1253.24V255.898H1118.84Z" fill="black"/>
<path d="M1186.57 161.28C1161.49 161.28 1140.7 153.395 1124.21 137.626C1108.44 121.856 1100.56 102.861 1100.56 80.64C1100.56 57.7024 1108.44 38.7072 1124.21 23.6544C1140.7 7.88479 1161.49 0 1186.57 0C1211.66 0 1232.09 7.52639 1247.86 22.5792C1264.35 36.9152 1272.59 55.1936 1272.59 77.4144C1272.59 101.069 1264.71 121.139 1248.94 137.626C1233.17 153.395 1212.38 161.28 1186.57 161.28Z" fill="#1DD45A"/>
<path d="M704.844 830.053V255.896H832.793V413.951L817.74 367.717C834.943 329.01 861.823 299.621 898.38 279.551C935.653 259.481 981.887 249.445 1037.08 249.445V377.394C1031.35 375.961 1025.97 375.244 1020.95 375.244C1015.94 374.527 1010.92 374.169 1005.9 374.169C955.007 374.169 914.508 389.221 884.402 419.327C854.297 448.716 839.244 492.799 839.244 551.577V830.053H704.844Z" fill="black"/>
<path d="M318.259 837.581C269.517 837.581 226.15 826.829 188.16 805.325C150.17 783.821 120.064 751.565 97.8432 708.557C76.3392 664.832 65.5872 609.638 65.5872 542.976C65.5872 475.597 76.6976 420.403 98.9184 377.395C121.856 334.387 152.32 302.489 190.31 281.702C229.018 260.198 271.667 249.446 318.259 249.446C374.886 249.446 424.704 261.632 467.712 286.003C511.437 310.374 545.843 344.422 570.931 388.147C596.736 431.872 609.638 483.481 609.638 542.976C609.638 602.47 596.736 654.08 570.931 697.805C545.843 741.53 511.437 775.936 467.712 801.024C424.704 825.395 374.886 837.581 318.259 837.581ZM0 830.054V32.2559H134.4V389.222L123.648 541.901L127.949 694.579V830.054H0ZM303.206 722.534C335.462 722.534 364.134 715.366 389.222 701.03C415.027 686.694 435.456 665.907 450.509 638.669C465.562 611.43 473.088 579.533 473.088 542.976C473.088 505.702 465.562 473.805 450.509 447.283C435.456 420.045 415.027 399.258 389.222 384.922C364.134 370.586 335.462 363.418 303.206 363.418C270.95 363.418 241.92 370.586 216.115 384.922C190.31 399.258 169.882 420.045 154.829 447.283C139.776 473.805 132.25 505.702 132.25 542.976C132.25 579.533 139.776 611.43 154.829 638.669C169.882 665.907 190.31 686.694 216.115 701.03C241.92 715.366 270.95 722.534 303.206 722.534Z" fill="black"/>
</svg>
