<svg width="641" height="210" viewBox="0 0 641 210" fill="none" xmlns="http://www.w3.org/2000/svg">
<path d="M608.004 209.395C592.235 209.395 580.049 205.363 571.447 197.299C562.846 189.056 558.545 176.96 558.545 161.011V32.2559H592.145V160.205C592.145 167.014 593.847 172.301 597.252 176.064C600.836 179.827 605.764 181.709 612.036 181.709C619.563 181.709 625.835 179.737 630.852 175.795L640.26 199.718C636.318 202.944 631.479 205.363 625.745 206.976C620.011 208.589 614.097 209.395 608.004 209.395ZM534.891 90.8543V63.9743H630.583V90.8543H534.891Z" fill="black"/>
<path fill-rule="evenodd" clip-rule="evenodd" d="M484.343 63.9744V207.514H517.943V63.9744H484.343Z" fill="black"/>
<path d="M501.277 40.32C495.005 40.32 489.809 38.3488 485.687 34.4064C481.745 30.464 479.773 25.7152 479.773 20.16C479.773 14.4256 481.745 9.6768 485.687 5.91359C489.809 1.9712 495.005 0 501.277 0C507.549 0 512.657 1.8816 516.599 5.64479C520.721 9.2288 522.781 13.7984 522.781 19.3536C522.781 25.2672 520.81 30.2848 516.868 34.4064C512.925 38.3488 507.729 40.32 501.277 40.32Z" fill="#1DD45A"/>
<path d="M337.516 207.514V186.279L425.951 79.2962L432.133 90.8546H339.128V63.9746H459.013V85.2098L370.578 192.192L363.858 180.634H461.432V207.514H337.516Z" fill="black"/>
<path fill-rule="evenodd" clip-rule="evenodd" d="M279.706 63.9744V207.514H313.306V63.9744H279.706Z" fill="black"/>
<path d="M296.641 40.32C290.369 40.32 285.172 38.3488 281.05 34.4064C277.108 30.464 275.137 25.7152 275.137 20.16C275.137 14.4256 277.108 9.6768 281.05 5.91359C285.172 1.9712 290.369 0 296.641 0C302.913 0 308.02 1.8816 311.962 5.64479C316.084 9.2288 318.145 13.7984 318.145 19.3536C318.145 25.2672 316.174 30.2848 312.231 34.4064C308.289 38.3488 303.092 40.32 296.641 40.32Z" fill="#1DD45A"/>
<path d="M176.211 207.513V63.9741H208.198V103.488L204.435 91.9293C208.736 82.2525 215.456 74.9053 224.595 69.8877C233.913 64.8701 245.472 62.3613 259.27 62.3613V94.3485C257.837 93.9901 256.493 93.8109 255.238 93.8109C253.984 93.6317 252.729 93.5421 251.475 93.5421C238.752 93.5421 228.627 97.3053 221.101 104.832C213.574 112.179 209.811 123.2 209.811 137.894V207.513H176.211Z" fill="black"/>
<path d="M79.5648 209.396C67.3792 209.396 56.5376 206.708 47.04 201.332C37.5424 195.956 30.016 187.892 24.4608 177.14C19.0848 166.208 16.3968 152.41 16.3968 135.744C16.3968 118.9 19.1744 105.101 24.7296 94.3493C30.464 83.5973 38.08 75.6229 47.5776 70.426C57.2544 65.0501 67.9168 62.3621 79.5648 62.3621C93.7216 62.3621 106.176 65.4085 116.928 71.5013C127.859 77.5941 136.461 86.1061 142.733 97.0373C149.184 107.968 152.41 120.871 152.41 135.744C152.41 150.618 149.184 163.52 142.733 174.452C136.461 185.383 127.859 193.984 116.928 200.256C106.176 206.349 93.7216 209.396 79.5648 209.396ZM0 207.514V8.06445H33.6V97.3061L30.912 135.476L31.9872 173.645V207.514H0ZM75.8016 180.634C83.8656 180.634 91.0336 178.842 97.3056 175.258C103.757 171.674 108.864 166.477 112.627 159.668C116.39 152.858 118.272 144.884 118.272 135.744C118.272 126.426 116.39 118.452 112.627 111.821C108.864 105.012 103.757 99.8149 97.3056 96.2309C91.0336 92.6469 83.8656 90.8549 75.8016 90.8549C67.7376 90.8549 60.48 92.6469 54.0288 96.2309C47.5776 99.8149 42.4704 105.012 38.7072 111.821C34.944 118.452 33.0624 126.426 33.0624 135.744C33.0624 144.884 34.944 152.858 38.7072 159.668C42.4704 166.477 47.5776 171.674 54.0288 175.258C60.48 178.842 67.7376 180.634 75.8016 180.634Z" fill="black"/>
</svg>
