<svg width="81" height="27" viewBox="0 0 81 27" fill="none" xmlns="http://www.w3.org/2000/svg">
<path d="M76.0025 26.1736C74.0313 26.1736 72.5081 25.6696 71.4329 24.6616C70.3577 23.6312 69.8201 22.1193 69.8201 20.1257V4.03125H74.0201V20.0249C74.0201 20.8761 74.2329 21.5369 74.6585 22.0073C75.1065 22.4777 75.7225 22.7129 76.5065 22.7129C77.4473 22.7129 78.2313 22.4664 78.8585 21.9736L80.0345 24.9641C79.5417 25.3673 78.9369 25.6697 78.2201 25.8713C77.5033 26.0729 76.7641 26.1736 76.0025 26.1736ZM66.8633 11.3561V7.99605H78.8249V11.3561H66.8633Z" fill="black"/>
<path fill-rule="evenodd" clip-rule="evenodd" d="M60.5439 7.9968V25.9392H64.7439V7.9968H60.5439Z" fill="black"/>
<path d="M62.6607 5.04C61.8767 5.04 61.2271 4.7936 60.7119 4.3008C60.2191 3.808 59.9727 3.2144 59.9727 2.52C59.9727 1.8032 60.2191 1.2096 60.7119 0.739199C61.2271 0.2464 61.8767 0 62.6607 0C63.4447 0 64.0831 0.2352 64.5759 0.705599C65.0911 1.1536 65.3487 1.7248 65.3487 2.4192C65.3487 3.1584 65.1023 3.7856 64.6095 4.3008C64.1167 4.7936 63.4671 5.04 62.6607 5.04Z" fill="#1DD45A"/>
<path d="M42.1914 25.9385V23.2841L53.2458 9.91129L54.0186 11.3561H42.393V7.99609H57.3786V10.6505L46.3242 24.0233L45.4842 22.5785H57.681V25.9385H42.1914Z" fill="black"/>
<path fill-rule="evenodd" clip-rule="evenodd" d="M34.9657 7.9968V25.9392H39.1657V7.9968H34.9657Z" fill="black"/>
<path d="M37.0825 5.04C36.2985 5.04 35.6489 4.7936 35.1337 4.3008C34.6409 3.808 34.3945 3.2144 34.3945 2.52C34.3945 1.8032 34.6409 1.2096 35.1337 0.739199C35.6489 0.2464 36.2985 0 37.0825 0C37.8665 0 38.5049 0.2352 38.9977 0.705599C39.5129 1.1536 39.7705 1.7248 39.7705 2.4192C39.7705 3.1584 39.5241 3.7856 39.0313 4.3008C38.5385 4.7936 37.8889 5.04 37.0825 5.04Z" fill="#1DD45A"/>
<path d="M22.0273 25.9389V7.99652H26.0257V12.9357L25.5553 11.4909C26.0929 10.2813 26.9329 9.36292 28.0753 8.73572C29.2401 8.10852 30.6849 7.79492 32.4097 7.79492V11.7933C32.2305 11.7485 32.0625 11.7261 31.9057 11.7261C31.7489 11.7037 31.5921 11.6925 31.4353 11.6925C29.8449 11.6925 28.5793 12.1629 27.6385 13.1037C26.6977 14.0221 26.2273 15.3997 26.2273 17.2365V25.9389H22.0273Z" fill="black"/>
<path d="M9.9456 26.1742C8.4224 26.1742 7.0672 25.8382 5.88 25.1662C4.6928 24.4942 3.752 23.4862 3.0576 22.1422C2.3856 20.7758 2.0496 19.051 2.0496 16.9678C2.0496 14.8622 2.3968 13.1374 3.0912 11.7934C3.808 10.4494 4.76 9.45261 5.9472 8.80301C7.1568 8.13101 8.4896 7.79501 9.9456 7.79501C11.7152 7.79501 13.272 8.17581 14.616 8.93741C15.9824 9.69901 17.0576 10.763 17.8416 12.1294C18.648 13.4958 19.0512 15.1086 19.0512 16.9678C19.0512 18.827 18.648 20.4398 17.8416 21.8062C17.0576 23.1726 15.9824 24.2478 14.616 25.0318C13.272 25.7934 11.7152 26.1742 9.9456 26.1742ZM0 25.939V1.00781H4.2V12.163L3.864 16.9342L3.9984 21.7054V25.939H0ZM9.4752 22.579C10.4832 22.579 11.3792 22.355 12.1632 21.907C12.9696 21.459 13.608 20.8094 14.0784 19.9582C14.5488 19.107 14.784 18.1102 14.784 16.9678C14.784 15.803 14.5488 14.8062 14.0784 13.9774C13.608 13.1262 12.9696 12.4766 12.1632 12.0286C11.3792 11.5806 10.4832 11.3566 9.4752 11.3566C8.4672 11.3566 7.56 11.5806 6.7536 12.0286C5.9472 12.4766 5.3088 13.1262 4.8384 13.9774C4.368 14.8062 4.1328 15.803 4.1328 16.9678C4.1328 18.1102 4.368 19.107 4.8384 19.9582C5.3088 20.8094 5.9472 21.459 6.7536 21.907C7.56 22.355 8.4672 22.579 9.4752 22.579Z" fill="black"/>
</svg>
