<svg width="121" height="40" viewBox="0 0 121 40" fill="none" xmlns="http://www.w3.org/2000/svg">
<path d="M114.002 39.2605C111.045 39.2605 108.76 38.5045 107.147 36.9925C105.535 35.4469 104.728 33.1789 104.728 30.1885V6.04688H111.028V30.0373C111.028 31.3141 111.347 32.3053 111.986 33.0109C112.658 33.7165 113.582 34.0693 114.758 34.0693C116.169 34.0693 117.345 33.6997 118.286 32.9605L120.05 37.4461C119.311 38.0509 118.403 38.5045 117.328 38.8069C116.253 39.1093 115.144 39.2605 114.002 39.2605ZM100.293 17.0341V11.9941H118.235V17.0341H100.293Z" fill="black"/>
<path fill-rule="evenodd" clip-rule="evenodd" d="M90.8177 11.9952V38.9088H97.1177V11.9952H90.8177Z" fill="black"/>
<path d="M93.9929 7.56C92.8169 7.56 91.8425 7.1904 91.0697 6.4512C90.3305 5.712 89.9609 4.8216 89.9609 3.78C89.9609 2.7048 90.3305 1.8144 91.0697 1.1088C91.8425 0.3696 92.8169 0 93.9929 0C95.1689 0 96.1265 0.3528 96.8657 1.0584C97.6385 1.7304 98.0249 2.5872 98.0249 3.6288C98.0249 4.7376 97.6553 5.6784 96.9161 6.4512C96.1769 7.1904 95.2025 7.56 93.9929 7.56Z" fill="#1DD45A"/>
<path d="M63.2852 38.9077V34.9261L79.8668 14.8669L81.026 17.0341H63.5876V11.9941H86.066V15.9757L69.4844 36.0349L68.2244 33.8677H86.5196V38.9077H63.2852Z" fill="black"/>
<path fill-rule="evenodd" clip-rule="evenodd" d="M52.4466 11.9952V38.9088H58.7466V11.9952H52.4466Z" fill="black"/>
<path d="M55.6218 7.56C54.4458 7.56 53.4714 7.1904 52.6986 6.4512C51.9594 5.712 51.5898 4.8216 51.5898 3.78C51.5898 2.7048 51.9594 1.8144 52.6986 1.1088C53.4714 0.3696 54.4458 0 55.6218 0C56.7978 0 57.7554 0.3528 58.4946 1.0584C59.2674 1.7304 59.6538 2.5872 59.6538 3.6288C59.6538 4.7376 59.2842 5.6784 58.545 6.4512C57.8058 7.1904 56.8314 7.56 55.6218 7.56Z" fill="#1DD45A"/>
<path d="M33.0391 38.9084V11.9948H39.0367V19.4036L38.3311 17.2364C39.1375 15.422 40.3975 14.0444 42.1111 13.1036C43.8583 12.1628 46.0255 11.6924 48.6127 11.6924V17.69C48.3439 17.6228 48.0919 17.5892 47.8567 17.5892C47.6215 17.5556 47.3863 17.5388 47.1511 17.5388C44.7655 17.5388 42.8671 18.2444 41.4559 19.6556C40.0447 21.0332 39.3391 23.0996 39.3391 25.8548V38.9084H33.0391Z" fill="black"/>
<path d="M14.9184 39.2613C12.6336 39.2613 10.6008 38.7573 8.82 37.7493C7.0392 36.7413 5.628 35.2293 4.5864 33.2133C3.5784 31.1637 3.0744 28.5765 3.0744 25.4517C3.0744 22.2933 3.5952 19.7061 4.6368 17.6901C5.712 15.6741 7.14 14.1789 8.9208 13.2045C10.7352 12.1965 12.7344 11.6925 14.9184 11.6925C17.5728 11.6925 19.908 12.2637 21.924 13.4061C23.9736 14.5485 25.5864 16.1445 26.7624 18.1941C27.972 20.2437 28.5768 22.6629 28.5768 25.4517C28.5768 28.2405 27.972 30.6597 26.7624 32.7093C25.5864 34.7589 23.9736 36.3717 21.924 37.5477C19.908 38.6901 17.5728 39.2613 14.9184 39.2613ZM0 38.9085V1.51172H6.3V18.2445L5.796 25.4013L5.9976 32.5581V38.9085H0ZM14.2128 33.8685C15.7248 33.8685 17.0688 33.5325 18.2448 32.8605C19.4544 32.1885 20.412 31.2141 21.1176 29.9373C21.8232 28.6605 22.176 27.1653 22.176 25.4517C22.176 23.7045 21.8232 22.2093 21.1176 20.9661C20.412 19.6893 19.4544 18.7149 18.2448 18.0429C17.0688 17.3709 15.7248 17.0349 14.2128 17.0349C12.7008 17.0349 11.34 17.3709 10.1304 18.0429C8.9208 18.7149 7.9632 19.6893 7.2576 20.9661C6.552 22.2093 6.1992 23.7045 6.1992 25.4517C6.1992 27.1653 6.552 28.6605 7.2576 29.9373C7.9632 31.2141 8.9208 32.1885 10.1304 32.8605C11.34 33.5325 12.7008 33.8685 14.2128 33.8685Z" fill="black"/>
</svg>
