<svg width="41" height="14" viewBox="0 0 41 14" fill="none" xmlns="http://www.w3.org/2000/svg">
<path d="M37.9993 13.0868C37.0137 13.0868 36.2521 12.8348 35.7145 12.3308C35.1769 11.8156 34.9081 11.0596 34.9081 10.0628V2.01562H37.0081V10.0124C37.0081 10.438 37.1145 10.7684 37.3273 11.0036C37.5513 11.2388 37.8593 11.3564 38.2513 11.3564C38.7217 11.3564 39.1137 11.2332 39.4273 10.9868L40.0153 12.482C39.7689 12.6836 39.4665 12.8348 39.1081 12.9356C38.7497 13.0364 38.3801 13.0868 37.9993 13.0868ZM33.4297 5.67803V3.99802H39.4105V5.67803H33.4297Z" fill="black"/>
<path fill-rule="evenodd" clip-rule="evenodd" d="M30.27 3.9984V12.9696H32.37V3.9984H30.27Z" fill="black"/>
<path d="M31.3284 2.52C30.9364 2.52 30.6116 2.3968 30.354 2.1504C30.1076 1.904 29.9844 1.6072 29.9844 1.26C29.9844 0.9016 30.1076 0.6048 30.354 0.369599C30.6116 0.1232 30.9364 0 31.3284 0C31.7204 0 32.0396 0.1176 32.286 0.3528C32.5436 0.5768 32.6724 0.8624 32.6724 1.2096C32.6724 1.5792 32.5492 1.8928 32.3028 2.1504C32.0564 2.3968 31.7316 2.52 31.3284 2.52Z" fill="#1DD45A"/>
<path d="M21.0938 12.9692V11.642L26.6209 4.95565L27.0073 5.67805H21.1945V3.99805H28.6873V5.32525L23.1602 12.0116L22.7402 11.2892H28.8386V12.9692H21.0938Z" fill="black"/>
<path fill-rule="evenodd" clip-rule="evenodd" d="M17.4809 3.9984V12.9696H19.5809V3.9984H17.4809Z" fill="black"/>
<path d="M18.5393 2.52C18.1473 2.52 17.8225 2.3968 17.5649 2.1504C17.3185 1.904 17.1953 1.6072 17.1953 1.26C17.1953 0.9016 17.3185 0.6048 17.5649 0.369599C17.8225 0.1232 18.1473 0 18.5393 0C18.9313 0 19.2505 0.1176 19.4969 0.3528C19.7545 0.5768 19.8833 0.8624 19.8833 1.2096C19.8833 1.5792 19.7601 1.8928 19.5137 2.1504C19.2673 2.3968 18.9425 2.52 18.5393 2.52Z" fill="#1DD45A"/>
<path d="M11.0156 12.9685V3.99728H13.0148V6.46688L12.7796 5.74448C13.0484 5.13968 13.4684 4.68048 14.0396 4.36688C14.622 4.05328 15.3444 3.89648 16.2068 3.89648V5.89568C16.1172 5.87328 16.0332 5.86208 15.9548 5.86208C15.8764 5.85088 15.798 5.84528 15.7196 5.84528C14.9244 5.84528 14.2916 6.08048 13.8212 6.55088C13.3508 7.01008 13.1156 7.69888 13.1156 8.61728V12.9685H11.0156Z" fill="black"/>
<path d="M4.9728 13.0871C4.2112 13.0871 3.5336 12.9191 2.94 12.5831C2.3464 12.2471 1.876 11.7431 1.5288 11.0711C1.1928 10.3879 1.0248 9.52551 1.0248 8.48391C1.0248 7.43111 1.1984 6.56871 1.5456 5.89671C1.904 5.22471 2.38 4.72631 2.9736 4.40151C3.5784 4.06551 4.2448 3.89751 4.9728 3.89751C5.8576 3.89751 6.636 4.08791 7.308 4.46871C7.9912 4.84951 8.5288 5.38151 8.9208 6.06471C9.324 6.74791 9.5256 7.55431 9.5256 8.48391C9.5256 9.41351 9.324 10.2199 8.9208 10.9031C8.5288 11.5863 7.9912 12.1239 7.308 12.5159C6.636 12.8967 5.8576 13.0871 4.9728 13.0871ZM0 12.9695V0.503906H2.1V6.08151L1.932 8.46711L1.9992 10.8527V12.9695H0ZM4.7376 11.2895C5.2416 11.2895 5.6896 11.1775 6.0816 10.9535C6.4848 10.7295 6.804 10.4047 7.0392 9.97911C7.2744 9.55351 7.392 9.05511 7.392 8.48391C7.392 7.90151 7.2744 7.40311 7.0392 6.98871C6.804 6.56311 6.4848 6.23831 6.0816 6.01431C5.6896 5.79031 5.2416 5.67831 4.7376 5.67831C4.2336 5.67831 3.78 5.79031 3.3768 6.01431C2.9736 6.23831 2.6544 6.56311 2.4192 6.98871C2.184 7.40311 2.0664 7.90151 2.0664 8.48391C2.0664 9.05511 2.184 9.55351 2.4192 9.97911C2.6544 10.4047 2.9736 10.7295 3.3768 10.9535C3.78 11.1775 4.2336 11.2895 4.7376 11.2895Z" fill="black"/>
</svg>
