<svg width="23" height="32" viewBox="0 0 23 32" fill="none" xmlns="http://www.w3.org/2000/svg">
<rect width="22.1628" height="32" fill="black"/>
<path d="M13.1888 6.47436C14.6 6.17442 15.7439 7.10077 15.7439 8.54341V21.4734C15.7439 22.9161 14.6 24.3287 13.1888 24.6287L8.97302 25.5248C7.56191 25.8247 6.41797 24.8984 6.41797 23.4557V10.5257C6.41797 9.08305 7.56191 7.67041 8.97302 7.37047L13.1888 6.47436ZM13.6999 10.0058C13.6999 9.14019 13.0135 8.58438 12.1668 8.76435L9.99504 9.226C9.14837 9.40596 8.46201 10.2535 8.46201 11.1191V21.9595C8.46201 22.825 9.14838 23.3809 9.99504 23.2009L12.1668 22.7392C13.0135 22.5593 13.6999 21.7117 13.6999 20.8461V10.0058Z" fill="white"/>
</svg>
