<svg width="67" height="96" viewBox="0 0 67 96" fill="none" xmlns="http://www.w3.org/2000/svg">
<rect width="66.4884" height="96" fill="black"/>
<path d="M39.5685 19.425C43.8018 18.5252 47.2336 21.3043 47.2336 25.6322V64.4223C47.2336 68.7502 43.8018 72.9881 39.5685 73.888L26.921 76.5763C22.6877 77.4761 19.2559 74.697 19.2559 70.3691V31.579C19.2559 27.2511 22.6877 23.0132 26.921 22.1134L39.5685 19.425ZM41.1015 30.0193C41.1015 27.4225 39.0424 25.7551 36.5024 26.295L29.9871 27.6799C27.4471 28.2198 25.388 30.7626 25.388 33.3593V65.8803C25.388 68.4771 27.4471 70.1445 29.9871 69.6046L36.5024 68.2197C39.0424 67.6798 41.1015 65.1371 41.1015 62.5403V30.0193Z" fill="white"/>
</svg>
