<svg width="89" height="128" viewBox="0 0 89 128" fill="none" xmlns="http://www.w3.org/2000/svg">
<rect width="88.6512" height="128" fill="black"/>
<path d="M52.7573 25.8994C58.4018 24.6996 62.9775 28.405 62.9775 34.1756V85.8957C62.9775 91.6663 58.4018 97.3169 52.7573 98.5166L35.894 102.101C30.2496 103.301 25.6738 99.5954 25.6738 93.8249V42.1047C25.6738 36.3341 30.2496 30.6836 35.894 29.4838L52.7573 25.8994ZM54.8014 40.0251C54.8014 36.5627 52.0559 34.3395 48.6692 35.0593L39.9821 36.9059C36.5955 37.6258 33.85 41.0161 33.85 44.4784V87.8398C33.85 91.3021 36.5955 93.5254 39.9821 92.8055L48.6692 90.9589C52.0559 90.2391 54.8014 86.8488 54.8014 83.3864V40.0251Z" fill="white"/>
</svg>
