<svg width="38" height="54" viewBox="0 0 38 54" fill="none" xmlns="http://www.w3.org/2000/svg">
<rect width="37.3997" height="54" fill="black"/>
<path d="M22.2579 10.9272C24.6391 10.421 26.5695 11.9843 26.5695 14.4187V36.2382C26.5695 38.6726 24.6391 41.0564 22.2579 41.5626L15.1437 43.0748C12.7624 43.5809 10.832 42.0177 10.832 39.5832V17.7638C10.832 15.3293 12.7624 12.9455 15.1437 12.4394L22.2579 10.9272ZM23.1202 16.8865C23.1202 15.4258 21.962 14.4879 20.5332 14.7915L16.8683 15.5706C15.4396 15.8743 14.2814 17.3046 14.2814 18.7652V37.0583C14.2814 38.519 15.4396 39.4569 16.8683 39.1532L20.5332 38.3742C21.962 38.0705 23.1202 36.6402 23.1202 35.1795V16.8865Z" fill="white"/>
</svg>
