<svg width="338" height="128" viewBox="0 0 338 128" fill="none" xmlns="http://www.w3.org/2000/svg">
<path d="M305.053 89.6116C303.735 89.6116 302.477 89.4319 301.279 89.0725C300.101 88.713 299.172 88.2737 298.493 87.7546L299.691 85.4782C300.37 85.9374 301.209 86.3268 302.207 86.6463C303.206 86.9658 304.224 87.1256 305.262 87.1256C306.6 87.1256 307.559 86.9359 308.138 86.5565C308.737 86.1771 309.037 85.6479 309.037 84.969C309.037 84.4697 308.857 84.0804 308.497 83.8008C308.138 83.5212 307.659 83.3116 307.06 83.1718C306.481 83.032 305.832 82.9122 305.113 82.8124C304.394 82.6926 303.675 82.5528 302.956 82.393C302.237 82.2133 301.578 81.9737 300.979 81.6742C300.38 81.3547 299.901 80.9253 299.542 80.3862C299.182 79.8271 299.002 79.0883 299.002 78.1697C299.002 77.2112 299.272 76.3725 299.811 75.6537C300.35 74.9348 301.109 74.3857 302.087 74.0063C303.086 73.6069 304.264 73.4072 305.622 73.4072C306.66 73.4072 307.709 73.537 308.767 73.7966C309.845 74.0362 310.724 74.3857 311.403 74.845L310.175 77.1214C309.456 76.6421 308.707 76.3126 307.928 76.1329C307.149 75.9532 306.371 75.8633 305.592 75.8633C304.334 75.8633 303.395 76.073 302.776 76.4924C302.157 76.8917 301.848 77.4109 301.848 78.0499C301.848 78.589 302.028 79.0084 302.387 79.3079C302.766 79.5875 303.246 79.8071 303.825 79.9669C304.424 80.1266 305.083 80.2664 305.802 80.3862C306.52 80.486 307.239 80.6258 307.958 80.8055C308.677 80.9653 309.326 81.1949 309.905 81.4944C310.504 81.794 310.983 82.2133 311.343 82.7525C311.722 83.2916 311.912 84.0105 311.912 84.9091C311.912 85.8675 311.632 86.6962 311.073 87.3951C310.514 88.094 309.725 88.6432 308.707 89.0425C307.689 89.4219 306.471 89.6116 305.053 89.6116Z" fill="white"/>
<path d="M289.487 73.4072C290.785 73.4072 291.924 73.6568 292.902 74.156C293.9 74.6553 294.679 75.4141 295.238 76.4324C295.797 77.4508 296.077 78.7388 296.077 80.2963V89.4319H293.201V80.6258C293.201 79.0883 292.822 77.9301 292.063 77.1513C291.324 76.3725 290.276 75.9832 288.918 75.9832C287.9 75.9832 287.011 76.1828 286.252 76.5822C285.494 76.9816 284.905 77.5706 284.485 78.3494C284.086 79.1282 283.886 80.0967 283.886 81.2548V89.4319H281.011V73.557H283.766V77.8402L283.317 76.702C283.836 75.6637 284.635 74.8549 285.713 74.2759C286.792 73.6968 288.05 73.4072 289.487 73.4072Z" fill="white"/>
<path d="M270.639 89.6116C268.942 89.6116 267.444 89.2622 266.146 88.5633C264.868 87.8644 263.87 86.9059 263.151 85.6878C262.452 84.4697 262.103 83.072 262.103 81.4944C262.103 79.9169 262.442 78.5192 263.121 77.3011C263.82 76.083 264.768 75.1345 265.966 74.4556C267.185 73.7567 268.552 73.4072 270.07 73.4072C271.608 73.4072 272.965 73.7467 274.144 74.4256C275.322 75.1045 276.24 76.063 276.899 77.3011C277.578 78.5192 277.918 79.9469 277.918 81.5843C277.918 81.7041 277.908 81.8439 277.888 82.0036C277.888 82.1634 277.878 82.3132 277.858 82.4529H264.349V80.3862H276.36L275.192 81.1051C275.212 80.0867 275.002 79.1781 274.563 78.3794C274.124 77.5806 273.515 76.9616 272.736 76.5223C271.977 76.063 271.088 75.8334 270.07 75.8334C269.072 75.8334 268.183 76.063 267.404 76.5223C266.625 76.9616 266.016 77.5906 265.577 78.4093C265.138 79.2081 264.918 80.1266 264.918 81.165V81.6442C264.918 82.7025 265.158 83.651 265.637 84.4897C266.136 85.3084 266.825 85.9474 267.704 86.4067C268.582 86.866 269.591 87.0956 270.729 87.0956C271.667 87.0956 272.516 86.9359 273.275 86.6164C274.054 86.2969 274.733 85.8176 275.312 85.1786L276.899 87.0357C276.18 87.8744 275.282 88.5134 274.203 88.9527C273.145 89.392 271.957 89.6116 270.639 89.6116Z" fill="white"/>
<path d="M253.196 89.6116C251.498 89.6116 250.001 89.2622 248.703 88.5633C247.425 87.8644 246.426 86.9059 245.708 85.6878C245.009 84.4697 244.659 83.072 244.659 81.4944C244.659 79.9169 244.999 78.5192 245.678 77.3011C246.376 76.083 247.325 75.1345 248.523 74.4556C249.741 73.7567 251.109 73.4072 252.627 73.4072C254.164 73.4072 255.522 73.7467 256.7 74.4256C257.878 75.1045 258.797 76.063 259.456 77.3011C260.135 78.5192 260.474 79.9469 260.474 81.5843C260.474 81.7041 260.464 81.8439 260.444 82.0036C260.444 82.1634 260.434 82.3132 260.414 82.4529H246.906V80.3862H258.917L257.749 81.1051C257.768 80.0867 257.559 79.1781 257.119 78.3794C256.68 77.5806 256.071 76.9616 255.292 76.5223C254.534 76.063 253.645 75.8334 252.627 75.8334C251.628 75.8334 250.74 76.063 249.961 76.5223C249.182 76.9616 248.573 77.5906 248.134 78.4093C247.694 79.2081 247.475 80.1266 247.475 81.165V81.6442C247.475 82.7025 247.714 83.651 248.194 84.4897C248.693 85.3084 249.382 85.9474 250.26 86.4067C251.139 86.866 252.147 87.0956 253.286 87.0956C254.224 87.0956 255.073 86.9359 255.832 86.6164C256.61 86.2969 257.289 85.8176 257.868 85.1786L259.456 87.0357C258.737 87.8744 257.838 88.5134 256.76 88.9527C255.702 89.392 254.514 89.6116 253.196 89.6116Z" fill="white"/>
<path d="M235.093 89.4319V73.557H237.848V77.8702L237.579 76.7919C238.018 75.6936 238.757 74.8549 239.795 74.2759C240.834 73.6968 242.112 73.4072 243.629 73.4072V76.1928C243.509 76.1729 243.39 76.1629 243.27 76.1629C243.17 76.1629 243.07 76.1629 242.97 76.1629C241.433 76.1629 240.215 76.6221 239.316 77.5407C238.418 78.4592 237.968 79.7871 237.968 81.5244V89.4319H235.093Z" fill="white"/>
<path d="M225.798 89.6116C224.18 89.6116 222.733 89.2622 221.455 88.5633C220.197 87.8644 219.208 86.9059 218.489 85.6878C217.771 84.4697 217.411 83.072 217.411 81.4944C217.411 79.9169 217.771 78.5192 218.489 77.3011C219.208 76.083 220.197 75.1345 221.455 74.4556C222.733 73.7567 224.18 73.4072 225.798 73.4072C227.236 73.4072 228.514 73.6968 229.632 74.2759C230.77 74.835 231.649 75.6736 232.268 76.7919L230.081 78.1997C229.562 77.4209 228.923 76.8518 228.164 76.4924C227.425 76.113 226.627 75.9232 225.768 75.9232C224.73 75.9232 223.801 76.1529 222.982 76.6122C222.164 77.0714 221.515 77.7204 221.035 78.5591C220.556 79.3778 220.317 80.3562 220.317 81.4944C220.317 82.6327 220.556 83.6211 221.035 84.4598C221.515 85.2984 222.164 85.9474 222.982 86.4067C223.801 86.866 224.73 87.0956 225.768 87.0956C226.627 87.0956 227.425 86.9159 228.164 86.5565C228.923 86.1771 229.562 85.598 230.081 84.8192L232.268 86.197C231.649 87.2953 230.77 88.1439 229.632 88.743C228.514 89.3221 227.236 89.6116 225.798 89.6116Z" fill="white"/>
<path d="M209.324 89.6116C208.006 89.6116 206.748 89.4319 205.55 89.0725C204.372 88.713 203.444 88.2737 202.765 87.7546L203.963 85.4782C204.642 85.9374 205.48 86.3268 206.479 86.6463C207.477 86.9658 208.496 87.1256 209.534 87.1256C210.872 87.1256 211.83 86.9359 212.409 86.5565C213.008 86.1771 213.308 85.6479 213.308 84.969C213.308 84.4697 213.128 84.0804 212.769 83.8008C212.409 83.5212 211.93 83.3116 211.331 83.1718C210.752 83.032 210.103 82.9122 209.384 82.8124C208.665 82.6926 207.946 82.5528 207.228 82.393C206.509 82.2133 205.85 81.9737 205.251 81.6742C204.652 81.3547 204.172 80.9253 203.813 80.3862C203.454 79.8271 203.274 79.0883 203.274 78.1697C203.274 77.2112 203.543 76.3725 204.083 75.6537C204.622 74.9348 205.381 74.3857 206.359 74.0063C207.357 73.6069 208.536 73.4072 209.893 73.4072C210.932 73.4072 211.98 73.537 213.038 73.7966C214.117 74.0362 214.995 74.3857 215.674 74.845L214.446 77.1214C213.727 76.6421 212.979 76.3126 212.2 76.1329C211.421 75.9532 210.642 75.8633 209.863 75.8633C208.605 75.8633 207.667 76.073 207.048 76.4924C206.429 76.8917 206.119 77.4109 206.119 78.0499C206.119 78.589 206.299 79.0084 206.658 79.3079C207.038 79.5875 207.517 79.8071 208.096 79.9669C208.695 80.1266 209.354 80.2664 210.073 80.3862C210.792 80.486 211.511 80.6258 212.23 80.8055C212.949 80.9653 213.598 81.1949 214.177 81.4944C214.776 81.794 215.255 82.2133 215.614 82.7525C215.994 83.2916 216.183 84.0105 216.183 84.9091C216.183 85.8675 215.904 86.6962 215.345 87.3951C214.786 88.094 213.997 88.6432 212.979 89.0425C211.96 89.4219 210.742 89.6116 209.324 89.6116Z" fill="white"/>
<path d="M297.652 63.7443V50.2656H300.857V63.7443H297.652ZM292.351 58.5026V55.5073H306.159V58.5026H292.351Z" fill="#FFD700"/>
<path d="M276.43 67.6683C275.112 67.6683 273.854 67.4886 272.656 67.1291C271.478 66.7697 270.549 66.3304 269.87 65.8112L271.068 63.5348C271.747 63.9941 272.586 64.3835 273.584 64.703C274.583 65.0224 275.601 65.1822 276.639 65.1822C277.977 65.1822 278.936 64.9925 279.515 64.6131C280.114 64.2337 280.413 63.7045 280.413 63.0256C280.413 62.5264 280.234 62.137 279.874 61.8574C279.515 61.5779 279.036 61.3682 278.437 61.2284C277.858 61.0887 277.209 60.9689 276.49 60.869C275.771 60.7492 275.052 60.6094 274.333 60.4497C273.614 60.27 272.955 60.0303 272.356 59.7308C271.757 59.4113 271.278 58.982 270.918 58.4428C270.559 57.8837 270.379 57.1449 270.379 56.2263C270.379 55.2679 270.649 54.4292 271.188 53.7103C271.727 52.9915 272.486 52.4423 273.464 52.0629C274.463 51.6636 275.641 51.4639 276.999 51.4639C278.037 51.4639 279.086 51.5937 280.144 51.8533C281.222 52.0929 282.101 52.4423 282.78 52.9016L281.552 55.178C280.833 54.6988 280.084 54.3693 279.305 54.1896C278.526 54.0098 277.748 53.92 276.969 53.92C275.711 53.92 274.772 54.1297 274.153 54.549C273.534 54.9484 273.225 55.4675 273.225 56.1065C273.225 56.6457 273.405 57.065 273.764 57.3645C274.143 57.6441 274.623 57.8638 275.202 58.0235C275.801 58.1833 276.46 58.323 277.179 58.4428C277.897 58.5427 278.616 58.6825 279.335 58.8622C280.054 59.0219 280.703 59.2516 281.282 59.5511C281.881 59.8506 282.36 60.27 282.72 60.8091C283.099 61.3483 283.289 62.0671 283.289 62.9657C283.289 63.9242 283.009 64.7529 282.45 65.4518C281.891 66.1507 281.102 66.6998 280.084 67.0992C279.066 67.4786 277.848 67.6683 276.43 67.6683Z" fill="white"/>
<path d="M260.519 67.4886V51.6136H263.274V55.9268L263.005 54.8485C263.444 53.7503 264.183 52.9116 265.221 52.3325C266.259 51.7534 267.537 51.4639 269.055 51.4639V54.2495C268.935 54.2295 268.815 54.2195 268.696 54.2195C268.596 54.2195 268.496 54.2195 268.396 54.2195C266.859 54.2195 265.64 54.6788 264.742 55.5973C263.843 56.5159 263.394 57.8438 263.394 59.581V67.4886H260.519Z" fill="white"/>
<path d="M249.203 67.6683C247.606 67.6683 246.188 67.3188 244.95 66.6199C243.712 65.921 242.734 64.9625 242.015 63.7445C241.296 62.5064 240.937 61.1086 240.937 59.5511C240.937 57.9736 241.296 56.5758 242.015 55.3577C242.734 54.1396 243.712 53.1911 244.95 52.5122C246.188 51.8133 247.606 51.4639 249.203 51.4639C250.781 51.4639 252.189 51.8133 253.427 52.5122C254.685 53.1911 255.663 54.1396 256.362 55.3577C257.081 56.5558 257.44 57.9536 257.44 59.5511C257.44 61.1286 257.081 62.5264 256.362 63.7445C255.663 64.9625 254.685 65.921 253.427 66.6199C252.189 67.3188 250.781 67.6683 249.203 67.6683ZM249.203 65.1522C250.222 65.1522 251.13 64.9226 251.929 64.4633C252.748 64.0041 253.387 63.3551 253.846 62.5164C254.305 61.6578 254.535 60.6693 254.535 59.5511C254.535 58.4129 254.305 57.4344 253.846 56.6157C253.387 55.7771 252.748 55.1281 251.929 54.6688C251.13 54.2095 250.222 53.9799 249.203 53.9799C248.185 53.9799 247.277 54.2095 246.478 54.6688C245.679 55.1281 245.04 55.7771 244.561 56.6157C244.082 57.4344 243.842 58.4129 243.842 59.5511C243.842 60.6693 244.082 61.6578 244.561 62.5164C245.04 63.3551 245.679 64.0041 246.478 64.4633C247.277 64.9226 248.185 65.1522 249.203 65.1522Z" fill="white"/>
<path d="M231.09 67.6683C229.493 67.6683 228.075 67.3188 226.837 66.6199C225.599 65.921 224.62 64.9625 223.902 63.7445C223.183 62.5064 222.823 61.1086 222.823 59.5511C222.823 57.9736 223.183 56.5758 223.902 55.3577C224.62 54.1396 225.599 53.1911 226.837 52.5122C228.075 51.8133 229.493 51.4639 231.09 51.4639C232.668 51.4639 234.075 51.8133 235.314 52.5122C236.572 53.1911 237.55 54.1396 238.249 55.3577C238.968 56.5558 239.327 57.9536 239.327 59.5511C239.327 61.1286 238.968 62.5264 238.249 63.7445C237.55 64.9625 236.572 65.921 235.314 66.6199C234.075 67.3188 232.668 67.6683 231.09 67.6683ZM231.09 65.1522C232.109 65.1522 233.017 64.9226 233.816 64.4633C234.635 64.0041 235.274 63.3551 235.733 62.5164C236.192 61.6578 236.422 60.6693 236.422 59.5511C236.422 58.4129 236.192 57.4344 235.733 56.6157C235.274 55.7771 234.635 55.1281 233.816 54.6688C233.017 54.2095 232.109 53.9799 231.09 53.9799C230.072 53.9799 229.163 54.2095 228.364 54.6688C227.566 55.1281 226.927 55.7771 226.448 56.6157C225.968 57.4344 225.729 58.4129 225.729 59.5511C225.729 60.6693 225.968 61.6578 226.448 62.5164C226.927 63.3551 227.566 64.0041 228.364 64.4633C229.163 64.9226 230.072 65.1522 231.09 65.1522Z" fill="white"/>
<path d="M211.331 67.6683C209.793 67.6683 208.416 67.3288 207.198 66.6499C205.999 65.971 205.051 65.0225 204.352 63.8044C203.653 62.5863 203.304 61.1685 203.304 59.5511C203.304 57.9337 203.653 56.5259 204.352 55.3278C205.051 54.1097 205.999 53.1612 207.198 52.4823C208.416 51.8033 209.793 51.4639 211.331 51.4639C212.669 51.4639 213.877 51.7634 214.955 52.3625C216.034 52.9615 216.892 53.8601 217.531 55.0582C218.19 56.2563 218.52 57.7539 218.52 59.5511C218.52 61.3483 218.2 62.8459 217.561 64.044C216.942 65.2421 216.094 66.1507 215.015 66.7697C213.937 67.3688 212.709 67.6683 211.331 67.6683ZM211.571 65.1523C212.569 65.1523 213.468 64.9226 214.266 64.4633C215.085 64.0041 215.724 63.3551 216.183 62.5164C216.663 61.6578 216.902 60.6693 216.902 59.5511C216.902 58.4129 216.663 57.4344 216.183 56.6157C215.724 55.7771 215.085 55.1281 214.266 54.6688C213.468 54.2095 212.569 53.9799 211.571 53.9799C210.552 53.9799 209.644 54.2095 208.845 54.6688C208.046 55.1281 207.407 55.7771 206.928 56.6157C206.449 57.4344 206.209 58.4129 206.209 59.5511C206.209 60.6693 206.449 61.6578 206.928 62.5164C207.407 63.3551 208.046 64.0041 208.845 64.4633C209.644 64.9226 210.552 65.1523 211.571 65.1523ZM216.992 67.4886V63.2053L217.172 59.5212L216.872 55.837V45.2637H219.748V67.4886H216.992Z" fill="white"/>
<path d="M166.589 89.1503V83.9498L188.247 57.7494L189.761 60.5801H166.984V53.9971H196.344V59.1976L174.686 85.398L173.04 82.5673H196.937V89.1503H166.589Z" fill="white"/>
<path fill-rule="evenodd" clip-rule="evenodd" d="M152.431 53.9976V89.1509H160.659V53.9976H152.431Z" fill="white"/>
<path d="M156.578 48.2046C155.042 48.2046 153.769 47.7218 152.76 46.7563C151.794 45.7908 151.312 44.6278 151.312 43.2673C151.312 41.863 151.794 40.7 152.76 39.7783C153.769 38.8128 155.042 38.3301 156.578 38.3301C158.114 38.3301 159.365 38.7909 160.33 39.7125C161.34 40.5902 161.844 41.7094 161.844 43.0698C161.844 44.5181 161.362 45.7469 160.396 46.7563C159.431 47.7218 158.158 48.2046 156.578 48.2046Z" fill="#FFD700"/>
<path d="M127.083 89.1498V53.9965H134.917V63.6736L133.995 60.8429C135.048 58.473 136.694 56.6736 138.932 55.4448C141.215 54.216 144.045 53.6016 147.425 53.6016V61.4353C147.073 61.3476 146.744 61.3037 146.437 61.3037C146.13 61.2598 145.823 61.2379 145.515 61.2379C142.399 61.2379 139.92 62.1595 138.077 64.0027C136.233 65.8021 135.312 68.5011 135.312 72.0998V89.1498H127.083Z" fill="white"/>
<path d="M103.414 89.6114C100.43 89.6114 97.775 88.9531 95.449 87.6365C93.123 86.3199 91.2797 84.345 89.9192 81.7118C88.6026 79.0347 87.9443 75.6554 87.9443 71.574C87.9443 67.4486 88.6246 64.0693 89.9851 61.4361C91.3895 58.8029 93.2546 56.85 95.5806 55.5773C97.9505 54.2607 100.562 53.6024 103.414 53.6024C106.881 53.6024 109.932 54.3484 112.565 55.8406C115.242 57.3327 117.348 59.4174 118.884 62.0944C120.464 64.7715 121.254 67.9314 121.254 71.574C121.254 75.2166 120.464 78.3764 118.884 81.0535C117.348 83.7306 115.242 85.8372 112.565 87.3732C109.932 88.8653 106.881 89.6114 103.414 89.6114ZM83.9287 89.1506V40.3047H92.1575V62.1603L91.4992 71.5081L91.7625 80.856V89.1506H83.9287ZM102.493 82.5676C104.468 82.5676 106.223 82.1287 107.759 81.251C109.339 80.3733 110.59 79.1005 111.512 77.4329C112.433 75.7652 112.894 73.8122 112.894 71.574C112.894 69.2919 112.433 67.3389 111.512 65.7151C110.59 64.0474 109.339 62.7747 107.759 61.897C106.223 61.0192 104.468 60.5804 102.493 60.5804C100.518 60.5804 98.7405 61.0192 97.1606 61.897C95.5806 62.7747 94.3299 64.0474 93.4082 65.7151C92.4866 67.3389 92.0258 69.2919 92.0258 71.574C92.0258 73.8122 92.4866 75.7652 93.4082 77.4329C94.3299 79.1005 95.5806 80.3733 97.1606 81.251C98.7405 82.1287 100.518 82.5676 102.493 82.5676Z" fill="white"/>
<path d="M52.7544 25.8994C58.3989 24.6996 62.9746 28.405 62.9746 34.1756V85.8957C62.9746 91.6663 58.3988 97.3168 52.7544 98.5166L35.8911 102.101C30.2467 103.301 25.6709 99.5954 25.6709 93.8249V42.1047C25.6709 36.3341 30.2467 30.6836 35.8911 29.4838L52.7544 25.8994ZM54.7984 40.0251C54.7984 36.5627 52.053 34.3395 48.6663 35.0593L39.9792 36.9059C36.5925 37.6258 33.8471 41.0161 33.8471 44.4784V87.8398C33.8471 91.3021 36.5925 93.5254 39.9792 92.8055L48.6663 90.9589C52.053 90.2391 54.7984 86.8488 54.7984 83.3864V40.0251Z" fill="white"/>
</svg>
