<svg width="676" height="256" viewBox="0 0 676 256" fill="none" xmlns="http://www.w3.org/2000/svg">
<path d="M610.108 179.221C607.472 179.221 604.956 178.862 602.559 178.143C600.203 177.424 598.346 176.546 596.988 175.507L599.384 170.954C600.742 171.873 602.42 172.652 604.417 173.291C606.413 173.93 608.45 174.249 610.527 174.249C613.203 174.249 615.12 173.87 616.278 173.111C617.476 172.352 618.075 171.294 618.075 169.936C618.075 168.938 617.716 168.159 616.997 167.6C616.278 167.041 615.319 166.621 614.121 166.342C612.963 166.062 611.665 165.822 610.227 165.623C608.79 165.383 607.352 165.104 605.914 164.784C604.476 164.425 603.159 163.945 601.96 163.346C600.762 162.707 599.804 161.849 599.085 160.77C598.366 159.652 598.007 158.175 598.007 156.337C598.007 154.42 598.546 152.743 599.624 151.305C600.702 149.868 602.22 148.769 604.177 148.011C606.174 147.212 608.53 146.812 611.246 146.812C613.322 146.812 615.419 147.072 617.536 147.591C619.692 148.071 621.45 148.769 622.808 149.688L620.351 154.241C618.914 153.282 617.416 152.623 615.858 152.264C614.301 151.904 612.743 151.725 611.186 151.725C608.67 151.725 606.793 152.144 605.555 152.983C604.317 153.781 603.698 154.82 603.698 156.098C603.698 157.176 604.057 158.015 604.776 158.614C605.535 159.173 606.493 159.612 607.651 159.932C608.85 160.251 610.167 160.531 611.605 160.77C613.043 160.97 614.481 161.25 615.918 161.609C617.356 161.929 618.654 162.388 619.812 162.987C621.01 163.586 621.969 164.425 622.688 165.503C623.446 166.581 623.826 168.019 623.826 169.816C623.826 171.733 623.267 173.391 622.149 174.788C621.03 176.186 619.453 177.284 617.416 178.083C615.379 178.842 612.943 179.221 610.108 179.221Z" fill="white"/>
<path d="M578.978 146.812C581.574 146.812 583.85 147.312 585.807 148.31C587.804 149.309 589.361 150.826 590.479 152.863C591.598 154.9 592.157 157.476 592.157 160.591V178.862H586.406V161.25C586.406 158.175 585.647 155.858 584.129 154.301C582.652 152.743 580.555 151.964 577.839 151.964C575.803 151.964 574.025 152.364 572.508 153.162C570.99 153.961 569.812 155.139 568.973 156.697C568.175 158.254 567.775 160.191 567.775 162.508V178.862H562.024V147.112H567.536V155.678L566.637 153.402C567.675 151.325 569.273 149.708 571.43 148.55C573.586 147.392 576.102 146.812 578.978 146.812Z" fill="white"/>
<path d="M541.279 179.221C537.884 179.221 534.889 178.522 532.293 177.125C529.737 175.727 527.74 173.81 526.303 171.374C524.905 168.938 524.206 166.142 524.206 162.987C524.206 159.832 524.885 157.036 526.243 154.6C527.641 152.164 529.538 150.267 531.934 148.909C534.37 147.511 537.106 146.812 540.141 146.812C543.216 146.812 545.932 147.491 548.288 148.849C550.644 150.207 552.481 152.124 553.799 154.6C555.157 157.036 555.836 159.892 555.836 163.167C555.836 163.406 555.816 163.686 555.776 164.005C555.776 164.325 555.756 164.624 555.716 164.904H528.699V160.77H552.721L550.385 162.208C550.425 160.171 550.005 158.354 549.127 156.757C548.248 155.159 547.03 153.921 545.472 153.043C543.955 152.124 542.178 151.665 540.141 151.665C538.144 151.665 536.367 152.124 534.809 153.043C533.252 153.921 532.034 155.179 531.155 156.817C530.276 158.414 529.837 160.251 529.837 162.328V163.286C529.837 165.403 530.316 167.3 531.275 168.977C532.273 170.615 533.651 171.893 535.408 172.811C537.166 173.73 539.182 174.189 541.459 174.189C543.336 174.189 545.033 173.87 546.551 173.231C548.108 172.592 549.466 171.633 550.624 170.355L553.799 174.069C552.362 175.747 550.564 177.025 548.408 177.903C546.291 178.782 543.915 179.221 541.279 179.221Z" fill="white"/>
<path d="M506.394 179.221C503 179.221 500.004 178.522 497.409 177.125C494.853 175.727 492.856 173.81 491.418 171.374C490.02 168.938 489.321 166.142 489.321 162.987C489.321 159.832 490 157.036 491.358 154.6C492.756 152.164 494.653 150.267 497.049 148.909C499.485 147.511 502.221 146.812 505.256 146.812C508.331 146.812 511.047 147.491 513.403 148.849C515.76 150.207 517.597 152.124 518.915 154.6C520.272 157.036 520.951 159.892 520.951 163.167C520.951 163.406 520.931 163.686 520.891 164.005C520.891 164.325 520.871 164.624 520.832 164.904H493.814V160.77H517.836L515.5 162.208C515.54 160.171 515.121 158.354 514.242 156.757C513.363 155.159 512.145 153.921 510.588 153.043C509.07 152.124 507.293 151.665 505.256 151.665C503.259 151.665 501.482 152.124 499.925 153.043C498.367 153.921 497.149 155.179 496.27 156.817C495.392 158.414 494.952 160.251 494.952 162.328V163.286C494.952 165.403 495.432 167.3 496.39 168.977C497.389 170.615 498.766 171.893 500.524 172.811C502.281 173.73 504.298 174.189 506.574 174.189C508.451 174.189 510.148 173.87 511.666 173.231C513.224 172.592 514.581 171.633 515.74 170.355L518.915 174.069C517.477 175.747 515.68 177.025 513.523 177.903C511.406 178.782 509.03 179.221 506.394 179.221Z" fill="white"/>
<path d="M470.187 178.862V147.112H475.698V155.738L475.159 153.582C476.037 151.385 477.515 149.708 479.592 148.55C481.668 147.392 484.224 146.812 487.26 146.812V152.384C487.02 152.344 486.78 152.324 486.541 152.324C486.341 152.324 486.141 152.324 485.942 152.324C482.866 152.324 480.43 153.242 478.633 155.079C476.836 156.917 475.937 159.572 475.937 163.047V178.862H470.187Z" fill="white"/>
<path d="M451.598 179.221C448.363 179.221 445.467 178.522 442.911 177.125C440.395 175.727 438.419 173.81 436.981 171.374C435.543 168.938 434.824 166.142 434.824 162.987C434.824 159.832 435.543 157.036 436.981 154.6C438.419 152.164 440.395 150.267 442.911 148.909C445.467 147.511 448.363 146.812 451.598 146.812C454.473 146.812 457.029 147.392 459.266 148.55C461.542 149.668 463.299 151.345 464.537 153.582L460.164 156.397C459.126 154.84 457.848 153.702 456.33 152.983C454.853 152.224 453.255 151.845 451.538 151.845C449.461 151.845 447.604 152.304 445.967 153.222C444.329 154.141 443.031 155.439 442.073 157.116C441.114 158.754 440.635 160.711 440.635 162.987C440.635 165.263 441.114 167.24 442.073 168.918C443.031 170.595 444.329 171.893 445.967 172.811C447.604 173.73 449.461 174.189 451.538 174.189C453.255 174.189 454.853 173.83 456.33 173.111C457.848 172.352 459.126 171.194 460.164 169.636L464.537 172.392C463.299 174.589 461.542 176.286 459.266 177.484C457.029 178.642 454.473 179.221 451.598 179.221Z" fill="white"/>
<path d="M418.652 179.221C416.016 179.221 413.5 178.862 411.103 178.143C408.747 177.424 406.89 176.546 405.532 175.507L407.928 170.954C409.286 171.873 410.964 172.652 412.96 173.291C414.957 173.93 416.994 174.249 419.071 174.249C421.747 174.249 423.664 173.87 424.822 173.111C426.02 172.352 426.619 171.294 426.619 169.936C426.619 168.938 426.259 168.159 425.541 167.6C424.822 167.041 423.863 166.621 422.665 166.342C421.507 166.062 420.209 165.822 418.771 165.623C417.334 165.383 415.896 165.104 414.458 164.784C413.02 164.425 411.702 163.945 410.504 163.346C409.306 162.707 408.348 161.849 407.629 160.77C406.91 159.652 406.551 158.175 406.551 156.337C406.551 154.42 407.09 152.743 408.168 151.305C409.246 149.868 410.764 148.769 412.721 148.011C414.718 147.212 417.074 146.812 419.79 146.812C421.866 146.812 423.963 147.072 426.08 147.591C428.236 148.071 429.994 148.769 431.351 149.688L428.895 154.241C427.458 153.282 425.96 152.623 424.402 152.264C422.845 151.904 421.287 151.725 419.73 151.725C417.214 151.725 415.337 152.144 414.099 152.983C412.861 153.781 412.242 154.82 412.242 156.098C412.242 157.176 412.601 158.015 413.32 158.614C414.079 159.173 415.037 159.612 416.195 159.932C417.393 160.251 418.711 160.531 420.149 160.77C421.587 160.97 423.025 161.25 424.462 161.609C425.9 161.929 427.198 162.388 428.356 162.987C429.554 163.586 430.513 164.425 431.232 165.503C431.99 166.581 432.37 168.019 432.37 169.816C432.37 171.733 431.811 173.391 430.692 174.788C429.574 176.186 427.997 177.284 425.96 178.083C423.923 178.842 421.487 179.221 418.652 179.221Z" fill="white"/>
<path d="M595.305 127.487V100.529H601.715V127.487H595.305ZM584.702 117.003V111.013H612.319V117.003H584.702Z" fill="#FFD700"/>
<path d="M552.86 135.335C550.225 135.335 547.709 134.975 545.312 134.256C542.956 133.537 541.099 132.659 539.741 131.62L542.137 127.068C543.495 127.986 545.173 128.765 547.169 129.404C549.166 130.043 551.203 130.362 553.28 130.362C555.956 130.362 557.873 129.983 559.031 129.224C560.229 128.465 560.828 127.407 560.828 126.049C560.828 125.051 560.468 124.272 559.75 123.713C559.031 123.154 558.072 122.734 556.874 122.455C555.716 122.175 554.418 121.936 552.98 121.736C551.543 121.496 550.105 121.217 548.667 120.897C547.229 120.538 545.911 120.059 544.713 119.46C543.515 118.821 542.557 117.962 541.838 116.884C541.119 115.766 540.76 114.288 540.76 112.451C540.76 110.534 541.299 108.856 542.377 107.419C543.455 105.981 544.973 104.883 546.93 104.124C548.927 103.325 551.283 102.926 553.999 102.926C556.075 102.926 558.172 103.185 560.289 103.705C562.445 104.184 564.203 104.883 565.56 105.801L563.104 110.354C561.667 109.396 560.169 108.737 558.611 108.377C557.054 108.018 555.496 107.838 553.939 107.838C551.423 107.838 549.546 108.257 548.308 109.096C547.07 109.895 546.451 110.933 546.451 112.211C546.451 113.289 546.81 114.128 547.529 114.727C548.288 115.286 549.246 115.726 550.404 116.045C551.602 116.365 552.92 116.644 554.358 116.884C555.796 117.083 557.234 117.363 558.671 117.722C560.109 118.042 561.407 118.501 562.565 119.1C563.763 119.699 564.722 120.538 565.441 121.616C566.199 122.695 566.579 124.132 566.579 125.929C566.579 127.846 566.02 129.504 564.901 130.902C563.783 132.299 562.206 133.398 560.169 134.196C558.132 134.955 555.696 135.335 552.86 135.335Z" fill="white"/>
<path d="M521.04 134.975V103.225H526.551V111.852L526.012 109.695C526.891 107.499 528.368 105.821 530.445 104.663C532.522 103.505 535.078 102.926 538.113 102.926V108.497C537.873 108.457 537.634 108.437 537.394 108.437C537.195 108.437 536.995 108.437 536.795 108.437C533.72 108.437 531.284 109.356 529.487 111.193C527.69 113.03 526.791 115.686 526.791 119.16V134.975H521.04Z" fill="white"/>
<path d="M498.41 135.335C495.215 135.335 492.379 134.636 489.903 133.238C487.427 131.84 485.47 129.923 484.033 127.487C482.595 125.011 481.876 122.215 481.876 119.1C481.876 115.945 482.595 113.15 484.033 110.713C485.47 108.277 487.427 106.38 489.903 105.022C492.379 103.625 495.215 102.926 498.41 102.926C501.565 102.926 504.38 103.625 506.857 105.022C509.373 106.38 511.329 108.277 512.727 110.713C514.165 113.11 514.884 115.905 514.884 119.1C514.884 122.255 514.165 125.051 512.727 127.487C511.329 129.923 509.373 131.84 506.857 133.238C504.38 134.636 501.565 135.335 498.41 135.335ZM498.41 130.303C500.447 130.303 502.264 129.843 503.861 128.925C505.499 128.006 506.777 126.708 507.695 125.031C508.614 123.314 509.073 121.337 509.073 119.1C509.073 116.824 508.614 114.867 507.695 113.23C506.777 111.552 505.499 110.254 503.861 109.336C502.264 108.417 500.447 107.958 498.41 107.958C496.373 107.958 494.556 108.417 492.958 109.336C491.361 110.254 490.083 111.552 489.125 113.23C488.166 114.867 487.687 116.824 487.687 119.1C487.687 121.337 488.166 123.314 489.125 125.031C490.083 126.708 491.361 128.006 492.958 128.925C494.556 129.843 496.373 130.303 498.41 130.303Z" fill="white"/>
<path d="M462.181 135.335C458.986 135.335 456.151 134.636 453.675 133.238C451.199 131.84 449.242 129.923 447.804 127.487C446.366 125.011 445.647 122.215 445.647 119.1C445.647 115.945 446.366 113.15 447.804 110.713C449.242 108.277 451.199 106.38 453.675 105.022C456.151 103.625 458.986 102.926 462.181 102.926C465.336 102.926 468.152 103.625 470.628 105.022C473.144 106.38 475.101 108.277 476.499 110.713C477.936 113.11 478.655 115.905 478.655 119.1C478.655 122.255 477.936 125.051 476.499 127.487C475.101 129.923 473.144 131.84 470.628 133.238C468.152 134.636 465.336 135.335 462.181 135.335ZM462.181 130.303C464.218 130.303 466.035 129.843 467.633 128.925C469.27 128.006 470.548 126.708 471.467 125.031C472.385 123.314 472.845 121.337 472.845 119.1C472.845 116.824 472.385 114.867 471.467 113.23C470.548 111.552 469.27 110.254 467.633 109.336C466.035 108.417 464.218 107.958 462.181 107.958C460.145 107.958 458.327 108.417 456.73 109.336C455.132 110.254 453.854 111.552 452.896 113.23C451.938 114.867 451.458 116.824 451.458 119.1C451.458 121.337 451.938 123.314 452.896 125.031C453.854 126.708 455.132 128.006 456.73 128.925C458.327 129.843 460.145 130.303 462.181 130.303Z" fill="white"/>
<path d="M422.665 135.334C419.59 135.334 416.834 134.655 414.398 133.297C412.002 131.939 410.105 130.042 408.707 127.606C407.309 125.17 406.61 122.334 406.61 119.099C406.61 115.864 407.309 113.049 408.707 110.653C410.105 108.216 412.002 106.319 414.398 104.962C416.834 103.604 419.59 102.925 422.665 102.925C425.341 102.925 427.757 103.524 429.914 104.722C432.07 105.92 433.787 107.717 435.065 110.113C436.383 112.51 437.042 115.505 437.042 119.099C437.042 122.694 436.403 125.689 435.125 128.085C433.887 130.481 432.19 132.298 430.033 133.536C427.877 134.735 425.421 135.334 422.665 135.334ZM423.144 130.302C425.141 130.302 426.938 129.842 428.536 128.924C430.173 128.005 431.451 126.707 432.37 125.03C433.328 123.313 433.807 121.336 433.807 119.099C433.807 116.823 433.328 114.866 432.37 113.229C431.451 111.551 430.173 110.253 428.536 109.335C426.938 108.416 425.141 107.957 423.144 107.957C421.107 107.957 419.29 108.416 417.693 109.335C416.095 110.253 414.817 111.551 413.859 113.229C412.9 114.866 412.421 116.823 412.421 119.099C412.421 121.336 412.9 123.313 413.859 125.03C414.817 126.707 416.095 128.005 417.693 128.924C419.29 129.842 421.107 130.302 423.144 130.302ZM433.987 134.974V126.408L434.347 119.039L433.747 111.671V90.5244H439.498V134.974H433.987Z" fill="white"/>
<path d="M333.179 178.299V167.898L376.495 115.497L379.523 121.158H333.969V107.992H392.689V118.393L349.373 170.794L346.081 165.133H393.874V178.299H333.179Z" fill="white"/>
<path fill-rule="evenodd" clip-rule="evenodd" d="M304.863 107.992V178.299H321.321V107.992H304.863Z" fill="white"/>
<path d="M313.158 96.4062C310.086 96.4062 307.54 95.4407 305.522 93.5097C303.591 91.5787 302.625 89.2527 302.625 86.5317C302.625 83.723 303.591 81.397 305.522 79.5537C307.54 77.6227 310.086 76.6572 313.158 76.6572C316.23 76.6572 318.731 77.5788 320.662 79.4221C322.681 81.1776 323.691 83.4158 323.691 86.1368C323.691 89.0333 322.725 91.4909 320.794 93.5097C318.863 95.4407 316.318 96.4062 313.158 96.4062Z" fill="#FFD700"/>
<path d="M254.169 178.299V107.992H269.836V127.346L267.993 121.685C270.1 116.945 273.391 113.346 277.868 110.889C282.432 108.431 288.093 107.202 294.852 107.202V122.87C294.15 122.694 293.491 122.606 292.877 122.606C292.263 122.519 291.648 122.475 291.034 122.475C284.802 122.475 279.843 124.318 276.156 128.004C272.47 131.603 270.626 137.001 270.626 144.199V178.299H254.169Z" fill="white"/>
<path d="M206.832 179.221C200.863 179.221 195.553 177.904 190.901 175.271C186.249 172.638 182.562 168.688 179.841 163.422C177.208 158.067 175.892 151.309 175.892 143.146C175.892 134.895 177.252 128.137 179.973 122.87C182.782 117.604 186.512 113.698 191.164 111.153C195.904 108.519 201.126 107.203 206.832 107.203C213.766 107.203 219.866 108.695 225.133 111.679C230.487 114.664 234.7 118.833 237.772 124.187C240.932 129.541 242.512 135.861 242.512 143.146C242.512 150.431 240.932 156.751 237.772 162.105C234.7 167.459 230.487 171.672 225.133 174.744C219.866 177.729 213.766 179.221 206.832 179.221ZM167.86 178.299V80.6074H184.318V124.319L183.001 143.014L183.528 161.71V178.299H167.86ZM204.989 165.133C208.938 165.133 212.449 164.256 215.521 162.5C218.681 160.745 221.183 158.199 223.026 154.864C224.869 151.528 225.791 147.622 225.791 143.146C225.791 138.582 224.869 134.676 223.026 131.428C221.183 128.093 218.681 125.547 215.521 123.792C212.449 122.036 208.938 121.159 204.989 121.159C201.039 121.159 197.484 122.036 194.324 123.792C191.164 125.547 188.663 128.093 186.819 131.428C184.976 134.676 184.055 138.582 184.055 143.146C184.055 147.622 184.976 151.528 186.819 154.864C188.663 158.199 191.164 160.745 194.324 162.5C197.484 164.256 201.039 165.133 204.989 165.133Z" fill="white"/>
<path d="M105.516 51.7959C116.805 49.3964 125.956 56.8071 125.956 68.3482V171.789C125.956 183.33 116.805 194.631 105.516 197.03L71.7891 204.199C60.5002 206.599 51.3486 199.188 51.3486 187.647V84.2065C51.3486 72.6653 60.5001 61.3642 71.7891 58.9647L105.516 51.7959ZM109.604 80.0472C109.604 73.1225 104.113 68.676 97.3395 70.1157L79.9652 73.809C73.1919 75.2487 67.701 82.0293 67.701 88.9539V175.677C67.701 182.601 73.1919 187.048 79.9652 185.608L97.3395 181.915C104.113 180.475 109.604 173.695 109.604 166.77V80.0472Z" fill="white"/>
</svg>
