<svg width="1351" height="512" viewBox="0 0 1351 512" fill="none" xmlns="http://www.w3.org/2000/svg">
<path d="M1220.21 358.446C1214.94 358.446 1209.91 357.727 1205.12 356.289C1200.4 354.851 1196.69 353.094 1193.97 351.017L1198.77 341.912C1201.48 343.749 1204.84 345.306 1208.83 346.584C1212.82 347.862 1216.9 348.501 1221.05 348.501C1226.4 348.501 1230.24 347.742 1232.55 346.225C1234.95 344.707 1236.15 342.591 1236.15 339.875C1236.15 337.878 1235.43 336.32 1233.99 335.202C1232.55 334.084 1230.63 333.245 1228.24 332.686C1225.92 332.127 1223.33 331.648 1220.45 331.248C1217.58 330.769 1214.7 330.21 1211.82 329.571C1208.95 328.852 1206.31 327.894 1203.92 326.696C1201.52 325.418 1199.6 323.7 1198.17 321.544C1196.73 319.307 1196.01 316.352 1196.01 312.678C1196.01 308.844 1197.09 305.489 1199.24 302.614C1201.4 299.738 1204.44 297.542 1208.35 296.024C1212.34 294.427 1217.06 293.628 1222.49 293.628C1226.64 293.628 1230.83 294.147 1235.07 295.185C1239.38 296.144 1242.9 297.542 1245.61 299.379L1240.7 308.484C1237.82 306.567 1234.83 305.25 1231.71 304.531C1228.6 303.812 1225.48 303.452 1222.37 303.452C1217.34 303.452 1213.58 304.291 1211.11 305.968C1208.63 307.566 1207.39 309.643 1207.39 312.199C1207.39 314.355 1208.11 316.033 1209.55 317.231C1211.07 318.349 1212.98 319.227 1215.3 319.866C1217.7 320.505 1220.33 321.065 1223.21 321.544C1226.08 321.943 1228.96 322.502 1231.83 323.221C1234.71 323.86 1237.3 324.779 1239.62 325.977C1242.02 327.175 1243.93 328.852 1245.37 331.009C1246.89 333.165 1247.65 336.041 1247.65 339.635C1247.65 343.469 1246.53 346.784 1244.29 349.58C1242.06 352.375 1238.9 354.572 1234.83 356.169C1230.75 357.687 1225.88 358.446 1220.21 358.446Z" fill="white"/>
<path d="M1157.95 293.628C1163.14 293.628 1167.69 294.626 1171.61 296.623C1175.6 298.62 1178.72 301.655 1180.95 305.729C1183.19 309.802 1184.31 314.954 1184.31 321.184V357.727H1172.81V322.502C1172.81 316.352 1171.29 311.719 1168.25 308.604C1165.3 305.489 1161.11 303.932 1155.67 303.932C1151.6 303.932 1148.05 304.73 1145.01 306.328C1141.98 307.925 1139.62 310.282 1137.94 313.397C1136.34 316.512 1135.55 320.386 1135.55 325.018V357.727H1124.04V294.227H1135.07V311.36L1133.27 306.807C1135.35 302.654 1138.54 299.419 1142.85 297.102C1147.17 294.786 1152.2 293.628 1157.95 293.628Z" fill="white"/>
<path d="M1082.55 358.446C1075.76 358.446 1069.77 357.048 1064.58 354.252C1059.47 351.457 1055.48 347.623 1052.6 342.75C1049.81 337.878 1048.41 332.287 1048.41 325.977C1048.41 319.667 1049.77 314.076 1052.48 309.203C1055.28 304.331 1059.07 300.537 1063.86 297.821C1068.74 295.026 1074.21 293.628 1080.28 293.628C1086.43 293.628 1091.86 294.986 1096.57 297.701C1101.28 300.417 1104.96 304.251 1107.59 309.203C1110.31 314.076 1111.67 319.787 1111.67 326.336C1111.67 326.815 1111.63 327.375 1111.55 328.014C1111.55 328.653 1111.51 329.252 1111.43 329.811H1057.39V321.544H1105.44L1100.76 324.419C1100.84 320.346 1100.01 316.711 1098.25 313.517C1096.49 310.322 1094.06 307.845 1090.94 306.088C1087.9 304.251 1084.35 303.333 1080.28 303.333C1076.28 303.333 1072.73 304.251 1069.61 306.088C1066.5 307.845 1064.06 310.361 1062.31 313.636C1060.55 316.831 1059.67 320.505 1059.67 324.659V326.576C1059.67 330.809 1060.63 334.603 1062.54 337.958C1064.54 341.233 1067.3 343.789 1070.81 345.626C1074.33 347.463 1078.36 348.381 1082.91 348.381C1086.67 348.381 1090.06 347.742 1093.1 346.464C1096.21 345.186 1098.93 343.27 1101.24 340.714L1107.59 348.142C1104.72 351.497 1101.12 354.052 1096.81 355.81C1092.58 357.567 1087.82 358.446 1082.55 358.446Z" fill="white"/>
<path d="M1012.79 358.446C1006 358.446 1000.01 357.048 994.814 354.252C989.702 351.457 985.708 347.623 982.833 342.75C980.037 337.878 978.64 332.287 978.64 325.977C978.64 319.667 979.998 314.076 982.713 309.203C985.509 304.331 989.303 300.537 994.095 297.821C998.968 295.026 1004.44 293.628 1010.51 293.628C1016.66 293.628 1022.09 294.986 1026.8 297.701C1031.52 300.417 1035.19 304.251 1037.83 309.203C1040.54 314.076 1041.9 319.787 1041.9 326.336C1041.9 326.815 1041.86 327.375 1041.78 328.014C1041.78 328.653 1041.74 329.252 1041.66 329.811H987.625V321.544H1035.67L1031 324.419C1031.08 320.346 1030.24 316.711 1028.48 313.517C1026.72 310.322 1024.29 307.845 1021.17 306.088C1018.14 304.251 1014.58 303.333 1010.51 303.333C1006.52 303.333 1002.96 304.251 999.846 306.088C996.731 307.845 994.295 310.361 992.538 313.636C990.78 316.831 989.902 320.505 989.902 324.659V326.576C989.902 330.809 990.86 334.603 992.777 337.958C994.774 341.233 997.53 343.789 1001.04 345.626C1004.56 347.463 1008.59 348.381 1013.15 348.381C1016.9 348.381 1020.29 347.742 1023.33 346.464C1026.44 345.186 1029.16 343.27 1031.48 340.714L1037.83 348.142C1034.95 351.497 1031.36 354.052 1027.04 355.81C1022.81 357.567 1018.06 358.446 1012.79 358.446Z" fill="white"/>
<path d="M940.368 357.727V294.227H951.391V311.48L950.312 307.167C952.07 302.773 955.025 299.419 959.178 297.102C963.332 294.786 968.444 293.628 974.514 293.628V304.77C974.035 304.69 973.556 304.651 973.077 304.651C972.677 304.651 972.278 304.651 971.878 304.651C965.728 304.651 960.856 306.488 957.261 310.162C953.667 313.836 951.87 319.148 951.87 326.097V357.727H940.368Z" fill="white"/>
<path d="M903.192 358.446C896.722 358.446 890.931 357.048 885.819 354.252C880.787 351.457 876.833 347.623 873.958 342.75C871.082 337.878 869.645 332.287 869.645 325.977C869.645 319.667 871.082 314.076 873.958 309.203C876.833 304.331 880.787 300.537 885.819 297.821C890.931 295.026 896.722 293.628 903.192 293.628C908.942 293.628 914.054 294.786 918.527 297.102C923.08 299.339 926.595 302.694 929.071 307.167L920.324 312.798C918.248 309.683 915.692 307.406 912.657 305.968C909.701 304.451 906.506 303.692 903.072 303.692C898.918 303.692 895.204 304.611 891.929 306.448C888.654 308.285 886.059 310.881 884.142 314.235C882.225 317.51 881.266 321.424 881.266 325.977C881.266 330.53 882.225 334.483 884.142 337.838C886.059 341.193 888.654 343.789 891.929 345.626C895.204 347.463 898.918 348.381 903.072 348.381C906.506 348.381 909.701 347.663 912.657 346.225C915.692 344.707 918.248 342.391 920.324 339.276L929.071 344.787C926.595 349.18 923.08 352.575 918.527 354.971C914.054 357.287 908.942 358.446 903.192 358.446Z" fill="white"/>
<path d="M837.298 358.446C832.026 358.446 826.994 357.727 822.202 356.289C817.489 354.851 813.775 353.094 811.06 351.017L815.852 341.912C818.568 343.749 821.922 345.306 825.916 346.584C829.91 347.862 833.983 348.501 838.137 348.501C843.488 348.501 847.322 347.742 849.639 346.225C852.035 344.707 853.233 342.591 853.233 339.875C853.233 337.878 852.514 336.32 851.076 335.202C849.639 334.084 847.722 333.245 845.325 332.686C843.009 332.127 840.413 331.648 837.538 331.248C834.662 330.769 831.787 330.21 828.911 329.571C826.036 328.852 823.4 327.894 821.004 326.696C818.608 325.418 816.691 323.7 815.253 321.544C813.815 319.307 813.096 316.352 813.096 312.678C813.096 308.844 814.175 305.489 816.331 302.614C818.488 299.738 821.523 297.542 825.437 296.024C829.431 294.427 834.143 293.628 839.575 293.628C843.728 293.628 847.921 294.147 852.155 295.185C856.468 296.144 859.982 297.542 862.698 299.379L857.786 308.484C854.91 306.567 851.915 305.25 848.8 304.531C845.685 303.812 842.57 303.452 839.455 303.452C834.423 303.452 830.669 304.291 828.193 305.968C825.716 307.566 824.478 309.643 824.478 312.199C824.478 314.355 825.197 316.033 826.635 317.231C828.153 318.349 830.07 319.227 832.386 319.866C834.782 320.505 837.418 321.065 840.293 321.544C843.169 321.943 846.044 322.502 848.92 323.221C851.795 323.86 854.391 324.779 856.707 325.977C859.104 327.175 861.021 328.852 862.458 331.009C863.976 333.165 864.735 336.041 864.735 339.635C864.735 343.469 863.617 346.784 861.38 349.58C859.144 352.375 855.989 354.572 851.915 356.169C847.841 357.687 842.969 358.446 837.298 358.446Z" fill="white"/>
<path d="M1190.61 254.977V201.062H1203.43V254.977H1190.61ZM1169.4 234.01V222.029H1224.63V234.01H1169.4Z" fill="#FFD700"/>
<path d="M1105.72 270.672C1100.45 270.672 1095.41 269.953 1090.62 268.516C1085.91 267.078 1082.19 265.321 1079.48 263.244L1084.27 254.138C1086.99 255.975 1090.34 257.533 1094.34 258.811C1098.33 260.089 1102.4 260.728 1106.56 260.728C1111.91 260.728 1115.74 259.969 1118.06 258.451C1120.45 256.934 1121.65 254.817 1121.65 252.101C1121.65 250.105 1120.93 248.547 1119.5 247.429C1118.06 246.311 1116.14 245.472 1113.74 244.913C1111.43 244.354 1108.83 243.874 1105.96 243.475C1103.08 242.996 1100.21 242.437 1097.33 241.798C1094.45 241.079 1091.82 240.12 1089.42 238.922C1087.03 237.644 1085.11 235.927 1083.67 233.77C1082.23 231.534 1081.52 228.579 1081.52 224.904C1081.52 221.07 1082.59 217.716 1084.75 214.84C1086.91 211.965 1089.94 209.768 1093.86 208.251C1097.85 206.653 1102.56 205.854 1107.99 205.854C1112.15 205.854 1116.34 206.374 1120.57 207.412C1124.89 208.371 1128.4 209.768 1131.12 211.605L1126.2 220.711C1123.33 218.794 1120.33 217.476 1117.22 216.757C1114.1 216.038 1110.99 215.679 1107.87 215.679C1102.84 215.679 1099.09 216.518 1096.61 218.195C1094.14 219.792 1092.9 221.869 1092.9 224.425C1092.9 226.582 1093.62 228.259 1095.05 229.457C1096.57 230.575 1098.49 231.454 1100.8 232.093C1103.2 232.732 1105.84 233.291 1108.71 233.77C1111.59 234.17 1114.46 234.729 1117.34 235.448C1120.21 236.087 1122.81 237.005 1125.13 238.203C1127.52 239.402 1129.44 241.079 1130.88 243.235C1132.39 245.392 1133.15 248.267 1133.15 251.862C1133.15 255.696 1132.04 259.011 1129.8 261.806C1127.56 264.602 1124.41 266.798 1120.33 268.396C1116.26 269.913 1111.39 270.672 1105.72 270.672Z" fill="white"/>
<path d="M1042.08 269.953V206.454H1053.1V223.706L1052.02 219.393C1053.78 215 1056.73 211.645 1060.89 209.329C1065.04 207.013 1070.15 205.854 1076.22 205.854V216.997C1075.74 216.917 1075.26 216.877 1074.78 216.877C1074.38 216.877 1073.98 216.877 1073.59 216.877C1067.44 216.877 1062.56 218.714 1058.97 222.388C1055.37 226.063 1053.58 231.374 1053.58 238.323V269.953H1042.08Z" fill="white"/>
<path d="M996.816 270.672C990.426 270.672 984.755 269.274 979.803 266.479C974.851 263.683 970.937 259.849 968.061 254.977C965.186 250.025 963.748 244.434 963.748 238.203C963.748 231.893 965.186 226.302 968.061 221.43C970.937 216.558 974.851 212.764 979.803 210.048C984.755 207.252 990.426 205.854 996.816 205.854C1003.13 205.854 1008.76 207.252 1013.71 210.048C1018.74 212.764 1022.65 216.558 1025.45 221.43C1028.33 226.222 1029.76 231.813 1029.76 238.203C1029.76 244.513 1028.33 250.105 1025.45 254.977C1022.65 259.849 1018.74 263.683 1013.71 266.479C1008.76 269.274 1003.13 270.672 996.816 270.672ZM996.816 260.608C1000.89 260.608 1004.52 259.689 1007.72 257.852C1010.99 256.015 1013.55 253.419 1015.39 250.065C1017.22 246.63 1018.14 242.676 1018.14 238.203C1018.14 233.651 1017.22 229.737 1015.39 226.462C1013.55 223.107 1010.99 220.511 1007.72 218.674C1004.52 216.837 1000.89 215.919 996.816 215.919C992.742 215.919 989.108 216.837 985.913 218.674C982.718 220.511 980.162 223.107 978.245 226.462C976.328 229.737 975.37 233.651 975.37 238.203C975.37 242.676 976.328 246.63 978.245 250.065C980.162 253.419 982.718 256.015 985.913 257.852C989.108 259.689 992.742 260.608 996.816 260.608Z" fill="white"/>
<path d="M924.358 270.672C917.968 270.672 912.297 269.274 907.345 266.479C902.392 263.683 898.479 259.849 895.603 254.977C892.728 250.025 891.29 244.434 891.29 238.203C891.29 231.893 892.728 226.302 895.603 221.43C898.479 216.558 902.392 212.764 907.345 210.048C912.297 207.252 917.968 205.854 924.358 205.854C930.668 205.854 936.299 207.252 941.251 210.048C946.283 212.764 950.197 216.558 952.993 221.43C955.868 226.222 957.306 231.813 957.306 238.203C957.306 244.513 955.868 250.105 952.993 254.977C950.197 259.849 946.283 263.683 941.251 266.479C936.299 269.274 930.668 270.672 924.358 270.672ZM924.358 260.608C928.431 260.608 932.066 259.689 935.261 257.852C938.535 256.015 941.091 253.419 942.928 250.065C944.766 246.63 945.684 242.676 945.684 238.203C945.684 233.651 944.766 229.737 942.928 226.462C941.091 223.107 938.535 220.511 935.261 218.674C932.066 216.837 928.431 215.919 924.358 215.919C920.284 215.919 916.65 216.837 913.455 218.674C910.26 220.511 907.704 223.107 905.787 226.462C903.87 229.737 902.912 233.651 902.912 238.203C902.912 242.676 903.87 246.63 905.787 250.065C907.704 253.419 910.26 256.015 913.455 257.852C916.65 259.689 920.284 260.608 924.358 260.608Z" fill="white"/>
<path d="M845.326 270.671C839.176 270.671 833.664 269.313 828.792 266.598C824 263.882 820.206 260.088 817.41 255.216C814.615 250.343 813.217 244.672 813.217 238.202C813.217 231.733 814.615 226.102 817.41 221.309C820.206 216.437 824 212.643 828.792 209.927C833.664 207.211 839.176 205.854 845.326 205.854C850.678 205.854 855.51 207.052 859.823 209.448C864.136 211.844 867.571 215.438 870.127 220.231C872.763 225.023 874.081 231.014 874.081 238.202C874.081 245.391 872.803 251.382 870.247 256.174C867.771 260.966 864.376 264.601 860.063 267.077C855.75 269.473 850.837 270.671 845.326 270.671ZM846.285 260.607C850.278 260.607 853.873 259.689 857.068 257.851C860.342 256.014 862.898 253.418 864.735 250.064C866.652 246.629 867.611 242.675 867.611 238.202C867.611 233.65 866.652 229.736 864.735 226.461C862.898 223.106 860.342 220.51 857.068 218.673C853.873 216.836 850.278 215.918 846.285 215.918C842.211 215.918 838.577 216.836 835.382 218.673C832.187 220.51 829.631 223.106 827.714 226.461C825.797 229.736 824.838 233.65 824.838 238.202C824.838 242.675 825.797 246.629 827.714 250.064C829.631 253.418 832.187 256.014 835.382 257.851C838.577 259.689 842.211 260.607 846.285 260.607ZM867.97 269.952V252.819L868.689 238.083L867.491 223.346V181.053H878.993V269.952H867.97Z" fill="white"/>
<path d="M666.353 356.601V335.799L752.985 230.998L759.041 242.32H667.932V215.988H785.373V236.791L698.741 341.592L692.158 330.269H787.743V356.601H666.353Z" fill="white"/>
<path fill-rule="evenodd" clip-rule="evenodd" d="M609.723 215.989V356.602H642.638V215.989H609.723Z" fill="white"/>
<path d="M626.312 192.816C620.168 192.816 615.077 190.885 611.039 187.023C607.177 183.161 605.246 178.509 605.246 173.067C605.246 167.45 607.177 162.798 611.039 159.111C615.077 155.249 620.168 153.318 626.312 153.318C632.456 153.318 637.459 155.162 641.321 158.848C645.359 162.359 647.377 166.835 647.377 172.277C647.377 178.07 645.446 182.986 641.584 187.023C637.722 190.885 632.631 192.816 626.312 192.816Z" fill="#FFD700"/>
<path d="M508.335 356.601V215.988H539.67V254.696L535.984 243.373C540.197 233.894 546.78 226.696 555.733 221.781C564.861 216.866 576.184 214.408 589.701 214.408V245.743C588.297 245.392 586.98 245.217 585.751 245.217C584.522 245.041 583.293 244.953 582.065 244.953C569.601 244.953 559.682 248.64 552.309 256.013C544.936 263.21 541.25 274.006 541.25 288.401V356.601H508.335Z" fill="white"/>
<path d="M413.659 358.445C401.721 358.445 391.101 355.811 381.797 350.545C372.493 345.279 365.12 337.379 359.678 326.846C354.412 316.138 351.778 302.621 351.778 286.295C351.778 269.794 354.499 256.276 359.941 245.744C365.559 235.211 373.02 227.399 382.324 222.308C391.803 217.042 402.248 214.408 413.659 214.408C427.527 214.408 439.727 217.393 450.26 223.361C460.969 229.33 469.395 237.668 475.539 248.377C481.859 259.085 485.018 271.725 485.018 286.295C485.018 300.865 481.859 313.505 475.539 324.213C469.395 334.921 460.969 343.348 450.26 349.492C439.727 355.46 427.527 358.445 413.659 358.445ZM335.716 356.601V161.218H368.631V248.64L365.998 286.032L367.051 323.423V356.601H335.716ZM409.972 330.269C417.872 330.269 424.894 328.514 431.038 325.003C437.357 321.492 442.361 316.401 446.047 309.73C449.734 303.06 451.577 295.248 451.577 286.295C451.577 277.166 449.734 269.355 446.047 262.859C442.361 256.189 437.357 251.098 431.038 247.587C424.894 244.076 417.872 242.32 409.972 242.32C402.073 242.32 394.963 244.076 388.643 247.587C382.324 251.098 377.32 256.189 373.634 262.859C369.947 269.355 368.104 277.166 368.104 286.295C368.104 295.248 369.947 303.06 373.634 309.73C377.32 316.401 382.324 321.492 388.643 325.003C394.963 328.514 402.073 330.269 409.972 330.269Z" fill="white"/>
<path d="M211.03 103.596C233.608 98.7966 251.911 113.618 251.911 136.7V343.581C251.911 366.663 233.608 389.265 211.03 394.064L143.577 408.402C120.999 413.201 102.696 398.38 102.696 375.297V168.417C102.696 145.335 120.999 122.732 143.577 117.933L211.03 103.596ZM219.206 160.098C219.206 146.249 208.225 137.356 194.678 140.235L159.929 147.622C146.383 150.501 135.401 164.062 135.401 177.912V351.357C135.401 365.207 146.383 374.1 159.929 371.22L194.678 363.834C208.225 360.954 219.206 347.393 219.206 333.544V160.098Z" fill="white"/>
</svg>
