<svg width="3077" height="1167" viewBox="0 0 3077 1167" fill="none" xmlns="http://www.w3.org/2000/svg">
<path d="M2780.36 816.751C2768.35 816.751 2756.89 815.113 2745.97 811.837C2735.23 808.561 2726.76 804.557 2720.58 799.825L2731.5 779.077C2737.68 783.263 2745.33 786.812 2754.43 789.724C2763.53 792.636 2772.81 794.092 2782.27 794.092C2794.47 794.092 2803.2 792.363 2808.48 788.905C2813.94 785.447 2816.67 780.624 2816.67 774.436C2816.67 769.886 2815.03 766.337 2811.76 763.789C2808.48 761.241 2804.11 759.33 2798.65 758.056C2793.38 756.782 2787.46 755.69 2780.91 754.78C2774.36 753.688 2767.81 752.414 2761.25 750.958C2754.7 749.32 2748.7 747.136 2743.24 744.406C2737.78 741.494 2733.41 737.581 2730.13 732.667C2726.86 727.571 2725.22 720.837 2725.22 712.465C2725.22 703.729 2727.67 696.085 2732.59 689.533C2737.5 682.981 2744.42 677.976 2753.34 674.518C2762.44 670.878 2773.17 669.058 2785.55 669.058C2795.01 669.058 2804.57 670.241 2814.22 672.607C2824.04 674.791 2832.05 677.976 2838.24 682.162L2827.05 702.91C2820.49 698.542 2813.67 695.539 2806.57 693.901C2799.47 692.263 2792.38 691.444 2785.28 691.444C2773.81 691.444 2765.26 693.355 2759.62 697.177C2753.97 700.817 2751.15 705.549 2751.15 711.373C2751.15 716.287 2752.79 720.109 2756.07 722.839C2759.52 725.387 2763.89 727.389 2769.17 728.845C2774.63 730.301 2780.64 731.575 2787.19 732.667C2793.74 733.577 2800.29 734.851 2806.84 736.489C2813.4 737.945 2819.31 740.038 2824.59 742.768C2830.05 745.498 2834.42 749.32 2837.69 754.234C2841.15 759.148 2842.88 765.7 2842.88 773.89C2842.88 782.626 2840.33 790.179 2835.24 796.549C2830.14 802.919 2822.95 807.924 2813.67 811.564C2804.39 815.022 2793.29 816.751 2780.36 816.751Z" fill="white"/>
<path d="M2638.5 669.058C2650.33 669.058 2660.7 671.333 2669.62 675.883C2678.72 680.433 2685.82 687.349 2690.91 696.631C2696.01 705.913 2698.56 717.652 2698.56 731.848V815.113H2672.35V734.851C2672.35 720.837 2668.89 710.281 2661.97 703.183C2655.24 696.085 2645.68 692.536 2633.31 692.536C2624.03 692.536 2615.93 694.356 2609.01 697.996C2602.1 701.636 2596.73 707.005 2592.9 714.103C2589.26 721.201 2587.44 730.028 2587.44 740.584V815.113H2561.24V670.423H2586.35V709.462L2582.26 699.088C2586.99 689.624 2594.27 682.253 2604.1 676.975C2613.93 671.697 2625.39 669.058 2638.5 669.058Z" fill="white"/>
<path d="M2466.69 816.751C2451.22 816.751 2437.57 813.566 2425.74 807.196C2414.1 800.826 2405 792.09 2398.44 780.988C2392.07 769.886 2388.89 757.146 2388.89 742.768C2388.89 728.39 2391.98 715.65 2398.17 704.548C2404.54 693.446 2413.19 684.801 2424.11 678.613C2435.21 672.243 2447.67 669.058 2461.51 669.058C2475.52 669.058 2487.9 672.152 2498.63 678.34C2509.37 684.528 2517.74 693.264 2523.75 704.548C2529.94 715.65 2533.03 728.663 2533.03 743.587C2533.03 744.679 2532.94 745.953 2532.76 747.409C2532.76 748.865 2532.67 750.23 2532.49 751.504H2409.36V732.667H2518.84L2508.19 739.219C2508.37 729.937 2506.46 721.656 2502.46 714.376C2498.45 707.096 2492.9 701.454 2485.8 697.45C2478.89 693.264 2470.79 691.171 2461.51 691.171C2452.41 691.171 2444.31 693.264 2437.21 697.45C2430.11 701.454 2424.56 707.187 2420.56 714.649C2416.55 721.929 2414.55 730.301 2414.55 739.765V744.133C2414.55 753.779 2416.73 762.424 2421.1 770.068C2425.65 777.53 2431.93 783.354 2439.94 787.54C2447.95 791.726 2457.14 793.819 2467.51 793.819C2476.07 793.819 2483.8 792.363 2490.72 789.451C2497.82 786.539 2504 782.171 2509.28 776.347L2523.75 793.273C2517.2 800.917 2509.01 806.741 2499.18 810.745C2489.53 814.749 2478.71 816.751 2466.69 816.751Z" fill="white"/>
<path d="M2307.72 816.751C2292.25 816.751 2278.6 813.566 2266.77 807.196C2255.13 800.826 2246.03 792.09 2239.47 780.988C2233.1 769.886 2229.92 757.146 2229.92 742.768C2229.92 728.39 2233.01 715.65 2239.2 704.548C2245.57 693.446 2254.22 684.801 2265.14 678.613C2276.24 672.243 2288.71 669.058 2302.54 669.058C2316.55 669.058 2328.93 672.152 2339.67 678.34C2350.4 684.528 2358.78 693.264 2364.78 704.548C2370.97 715.65 2374.06 728.663 2374.06 743.587C2374.06 744.679 2373.97 745.953 2373.79 747.409C2373.79 748.865 2373.7 750.23 2373.52 751.504H2250.39V732.667H2359.87L2349.22 739.219C2349.4 729.937 2347.49 721.656 2343.49 714.376C2339.48 707.096 2333.93 701.454 2326.83 697.45C2319.92 693.264 2311.82 691.171 2302.54 691.171C2293.44 691.171 2285.34 693.264 2278.24 697.45C2271.14 701.454 2265.59 707.187 2261.59 714.649C2257.58 721.929 2255.58 730.301 2255.58 739.765V744.133C2255.58 753.779 2257.77 762.424 2262.13 770.068C2266.68 777.53 2272.96 783.354 2280.97 787.54C2288.98 791.726 2298.17 793.819 2308.54 793.819C2317.1 793.819 2324.83 792.363 2331.75 789.451C2338.85 786.539 2345.03 782.171 2350.31 776.347L2364.78 793.273C2358.23 800.917 2350.04 806.741 2340.21 810.745C2330.57 814.749 2319.74 816.751 2307.72 816.751Z" fill="white"/>
<path d="M2142.71 815.113V670.423H2167.83V709.735L2165.37 699.907C2169.38 689.897 2176.11 682.253 2185.57 676.975C2195.04 671.697 2206.69 669.058 2220.52 669.058V694.447C2219.43 694.265 2218.33 694.174 2217.24 694.174C2216.33 694.174 2215.42 694.174 2214.51 694.174C2200.5 694.174 2189.4 698.36 2181.21 706.732C2173.02 715.104 2168.92 727.207 2168.92 743.041V815.113H2142.71Z" fill="white"/>
<path d="M2058 816.751C2043.26 816.751 2030.07 813.566 2018.42 807.196C2006.95 800.826 1997.94 792.09 1991.39 780.988C1984.84 769.886 1981.56 757.146 1981.56 742.768C1981.56 728.39 1984.84 715.65 1991.39 704.548C1997.94 693.446 2006.95 684.801 2018.42 678.613C2030.07 672.243 2043.26 669.058 2058 669.058C2071.11 669.058 2082.76 671.697 2092.95 676.975C2103.32 682.071 2111.33 689.715 2116.97 699.907L2097.04 712.738C2092.31 705.64 2086.49 700.453 2079.57 697.177C2072.84 693.719 2065.56 691.99 2057.73 691.99C2048.27 691.99 2039.8 694.083 2032.34 698.269C2024.88 702.455 2018.97 708.37 2014.6 716.014C2010.23 723.476 2008.05 732.394 2008.05 742.768C2008.05 753.142 2010.23 762.151 2014.6 769.795C2018.97 777.439 2024.88 783.354 2032.34 787.54C2039.8 791.726 2048.27 793.819 2057.73 793.819C2065.56 793.819 2072.84 792.181 2079.57 788.905C2086.49 785.447 2092.31 780.169 2097.04 773.071L2116.97 785.629C2111.33 795.639 2103.32 803.374 2092.95 808.834C2082.76 814.112 2071.11 816.751 2058 816.751Z" fill="white"/>
<path d="M1907.86 816.751C1895.85 816.751 1884.38 815.113 1873.46 811.837C1862.73 808.561 1854.26 804.557 1848.07 799.825L1858.99 779.077C1865.18 783.263 1872.83 786.812 1881.93 789.724C1891.03 792.636 1900.31 794.092 1909.77 794.092C1921.97 794.092 1930.7 792.363 1935.98 788.905C1941.44 785.447 1944.17 780.624 1944.17 774.436C1944.17 769.886 1942.53 766.337 1939.26 763.789C1935.98 761.241 1931.61 759.33 1926.15 758.056C1920.87 756.782 1914.96 755.69 1908.41 754.78C1901.86 753.688 1895.3 752.414 1888.75 750.958C1882.2 749.32 1876.19 747.136 1870.73 744.406C1865.27 741.494 1860.91 737.581 1857.63 732.667C1854.35 727.571 1852.72 720.837 1852.72 712.465C1852.72 703.729 1855.17 696.085 1860.09 689.533C1865 682.981 1871.92 677.976 1880.83 674.518C1889.93 670.878 1900.67 669.058 1913.05 669.058C1922.51 669.058 1932.07 670.241 1941.71 672.607C1951.54 674.791 1959.55 677.976 1965.74 682.162L1954.54 702.91C1947.99 698.542 1941.17 695.539 1934.07 693.901C1926.97 692.263 1919.87 691.444 1912.78 691.444C1901.31 691.444 1892.76 693.355 1887.11 697.177C1881.47 700.817 1878.65 705.549 1878.65 711.373C1878.65 716.287 1880.29 720.109 1883.56 722.839C1887.02 725.387 1891.39 727.389 1896.67 728.845C1902.13 730.301 1908.13 731.575 1914.69 732.667C1921.24 733.577 1927.79 734.851 1934.34 736.489C1940.89 737.945 1946.81 740.038 1952.09 742.768C1957.55 745.498 1961.92 749.32 1965.19 754.234C1968.65 759.148 1970.38 765.7 1970.38 773.89C1970.38 782.626 1967.83 790.179 1962.73 796.549C1957.64 802.919 1950.45 807.924 1941.17 811.564C1931.89 815.022 1920.78 816.751 1907.86 816.751Z" fill="white"/>
<path d="M2712.91 580.988V458.138H2742.12V580.988H2712.91ZM2664.59 533.213V505.913H2790.44V533.213H2664.59Z" fill="#FFD700"/>
<path d="M2519.48 616.751C2507.46 616.751 2496 615.113 2485.08 611.837C2474.34 608.561 2465.88 604.557 2459.69 599.825L2470.61 579.077C2476.8 583.263 2484.44 586.812 2493.54 589.724C2502.64 592.636 2511.92 594.092 2521.39 594.092C2533.58 594.092 2542.32 592.363 2547.6 588.905C2553.06 585.447 2555.79 580.624 2555.79 574.436C2555.79 569.886 2554.15 566.337 2550.87 563.789C2547.6 561.241 2543.23 559.33 2537.77 558.056C2532.49 556.782 2526.57 555.69 2520.02 554.78C2513.47 553.688 2506.92 552.414 2500.37 550.958C2493.81 549.32 2487.81 547.136 2482.35 544.406C2476.89 541.494 2472.52 537.581 2469.24 532.667C2465.97 527.571 2464.33 520.837 2464.33 512.465C2464.33 503.729 2466.79 496.085 2471.7 489.533C2476.62 482.981 2483.53 477.976 2492.45 474.518C2501.55 470.878 2512.29 469.058 2524.66 469.058C2534.13 469.058 2543.68 470.241 2553.33 472.607C2563.16 474.791 2571.16 477.976 2577.35 482.162L2566.16 502.91C2559.61 498.542 2552.78 495.539 2545.68 493.901C2538.59 492.263 2531.49 491.444 2524.39 491.444C2512.92 491.444 2504.37 493.355 2498.73 497.177C2493.09 500.817 2490.27 505.549 2490.27 511.373C2490.27 516.287 2491.9 520.109 2495.18 522.839C2498.64 525.387 2503.01 527.389 2508.28 528.845C2513.74 530.301 2519.75 531.575 2526.3 532.667C2532.85 533.577 2539.41 534.851 2545.96 536.489C2552.51 537.945 2558.42 540.038 2563.7 542.768C2569.16 545.498 2573.53 549.32 2576.81 554.234C2580.26 559.148 2581.99 565.7 2581.99 573.89C2581.99 582.626 2579.45 590.179 2574.35 596.549C2569.25 602.919 2562.06 607.924 2552.78 611.564C2543.5 615.022 2532.4 616.751 2519.48 616.751Z" fill="white"/>
<path d="M2374.46 615.113V470.423H2399.58V509.735L2397.12 499.907C2401.13 489.897 2407.86 482.253 2417.33 476.975C2426.79 471.697 2438.44 469.058 2452.27 469.058V494.447C2451.18 494.265 2450.09 494.174 2448.99 494.174C2448.08 494.174 2447.17 494.174 2446.26 494.174C2432.25 494.174 2421.15 498.36 2412.96 506.732C2404.77 515.104 2400.67 527.207 2400.67 543.041V615.113H2374.46Z" fill="white"/>
<path d="M2271.33 616.751C2256.77 616.751 2243.85 613.566 2232.57 607.196C2221.28 600.826 2212.37 592.09 2205.81 580.988C2199.26 569.704 2195.99 556.964 2195.99 542.768C2195.99 528.39 2199.26 515.65 2205.81 504.548C2212.37 493.446 2221.28 484.801 2232.57 478.613C2243.85 472.243 2256.77 469.058 2271.33 469.058C2285.71 469.058 2298.54 472.243 2309.83 478.613C2321.29 484.801 2330.21 493.446 2336.58 504.548C2343.13 515.468 2346.41 528.208 2346.41 542.768C2346.41 557.146 2343.13 569.886 2336.58 580.988C2330.21 592.09 2321.29 600.826 2309.83 607.196C2298.54 613.566 2285.71 616.751 2271.33 616.751ZM2271.33 593.819C2280.62 593.819 2288.9 591.726 2296.18 587.54C2303.64 583.354 2309.46 577.439 2313.65 569.795C2317.84 561.969 2319.93 552.96 2319.93 542.768C2319.93 532.394 2317.84 523.476 2313.65 516.014C2309.46 508.37 2303.64 502.455 2296.18 498.269C2288.9 494.083 2280.62 491.99 2271.33 491.99C2262.05 491.99 2253.77 494.083 2246.49 498.269C2239.21 502.455 2233.39 508.37 2229.02 516.014C2224.65 523.476 2222.47 532.394 2222.47 542.768C2222.47 552.96 2224.65 561.969 2229.02 569.795C2233.39 577.439 2239.21 583.354 2246.49 587.54C2253.77 591.726 2262.05 593.819 2271.33 593.819Z" fill="white"/>
<path d="M2106.23 616.751C2091.67 616.751 2078.75 613.566 2067.47 607.196C2056.18 600.826 2047.27 592.09 2040.71 580.988C2034.16 569.704 2030.89 556.964 2030.89 542.768C2030.89 528.39 2034.16 515.65 2040.71 504.548C2047.27 493.446 2056.18 484.801 2067.47 478.613C2078.75 472.243 2091.67 469.058 2106.23 469.058C2120.61 469.058 2133.44 472.243 2144.73 478.613C2156.19 484.801 2165.11 493.446 2171.48 504.548C2178.03 515.468 2181.31 528.208 2181.31 542.768C2181.31 557.146 2178.03 569.886 2171.48 580.988C2165.11 592.09 2156.19 600.826 2144.73 607.196C2133.44 613.566 2120.61 616.751 2106.23 616.751ZM2106.23 593.819C2115.52 593.819 2123.8 591.726 2131.08 587.54C2138.54 583.354 2144.36 577.439 2148.55 569.795C2152.74 561.969 2154.83 552.96 2154.83 542.768C2154.83 532.394 2152.74 523.476 2148.55 516.014C2144.36 508.37 2138.54 502.455 2131.08 498.269C2123.8 494.083 2115.52 491.99 2106.23 491.99C2096.95 491.99 2088.67 494.083 2081.39 498.269C2074.11 502.455 2068.29 508.37 2063.92 516.014C2059.55 523.476 2057.37 532.394 2057.37 542.768C2057.37 552.96 2059.55 561.969 2063.92 569.795C2068.29 577.439 2074.11 583.354 2081.39 587.54C2088.67 591.726 2096.95 593.819 2106.23 593.819Z" fill="white"/>
<path d="M1926.15 616.751C1912.14 616.751 1899.58 613.657 1888.48 607.469C1877.56 601.281 1868.91 592.636 1862.54 581.534C1856.17 570.432 1852.99 557.51 1852.99 542.768C1852.99 528.026 1856.17 515.195 1862.54 504.275C1868.91 493.173 1877.56 484.528 1888.48 478.34C1899.58 472.152 1912.14 469.058 1926.15 469.058C1938.35 469.058 1949.36 471.788 1959.19 477.248C1969.01 482.708 1976.84 490.898 1982.66 501.818C1988.67 512.738 1991.67 526.388 1991.67 542.768C1991.67 559.148 1988.76 572.798 1982.94 583.718C1977.29 594.638 1969.56 602.919 1959.73 608.561C1949.9 614.021 1938.71 616.751 1926.15 616.751ZM1928.34 593.819C1937.44 593.819 1945.63 591.726 1952.91 587.54C1960.37 583.354 1966.19 577.439 1970.38 569.795C1974.75 561.969 1976.93 552.96 1976.93 542.768C1976.93 532.394 1974.75 523.476 1970.38 516.014C1966.19 508.37 1960.37 502.455 1952.91 498.269C1945.63 494.083 1937.44 491.99 1928.34 491.99C1919.05 491.99 1910.77 494.083 1903.49 498.269C1896.21 502.455 1890.39 508.37 1886.02 516.014C1881.65 523.476 1879.47 532.394 1879.47 542.768C1879.47 552.96 1881.65 561.969 1886.02 569.795C1890.39 577.439 1896.21 583.354 1903.49 587.54C1910.77 591.726 1919.05 593.819 1928.34 593.819ZM1977.75 615.113V576.074L1979.39 542.495L1976.66 508.916V412.547H2002.87V615.113H1977.75Z" fill="white"/>
<path d="M1518.35 812.55V765.15L1715.75 526.35L1729.55 552.15H1521.95V492.15H1789.55V539.55L1592.15 778.35L1577.15 752.55H1794.95V812.55H1518.35Z" fill="white"/>
<path fill-rule="evenodd" clip-rule="evenodd" d="M1389.31 492.151V812.551H1464.31V492.151H1389.31Z" fill="white"/>
<path d="M1427.11 439.351C1413.11 439.351 1401.51 434.951 1392.31 426.151C1383.51 417.351 1379.11 406.751 1379.11 394.351C1379.11 381.551 1383.51 370.951 1392.31 362.551C1401.51 353.751 1413.11 349.351 1427.11 349.351C1441.11 349.351 1452.51 353.551 1461.31 361.951C1470.51 369.951 1475.11 380.151 1475.11 392.551C1475.11 405.751 1470.71 416.951 1461.91 426.151C1453.11 434.951 1441.51 439.351 1427.11 439.351Z" fill="#FFD700"/>
<path d="M1158.29 812.55V492.15H1229.69V580.35L1221.29 554.55C1230.89 532.95 1245.89 516.55 1266.29 505.35C1287.09 494.15 1312.89 488.55 1343.69 488.55V559.95C1340.49 559.15 1337.49 558.75 1334.69 558.75C1331.89 558.35 1329.09 558.15 1326.29 558.15C1297.89 558.15 1275.29 566.55 1258.49 583.35C1241.69 599.75 1233.29 624.35 1233.29 657.15V812.55H1158.29Z" fill="white"/>
<path d="M942.557 816.751C915.357 816.751 891.157 810.751 869.957 798.751C848.757 786.751 831.957 768.751 819.557 744.751C807.557 720.351 801.557 689.551 801.557 652.351C801.557 614.751 807.757 583.951 820.157 559.951C832.957 535.951 849.957 518.151 871.157 506.551C892.757 494.551 916.557 488.551 942.557 488.551C974.157 488.551 1001.96 495.351 1025.96 508.951C1050.36 522.551 1069.56 541.551 1083.56 565.951C1097.96 590.351 1105.16 619.151 1105.16 652.351C1105.16 685.551 1097.96 714.351 1083.56 738.751C1069.56 763.151 1050.36 782.351 1025.96 796.351C1001.96 809.951 974.157 816.751 942.557 816.751ZM764.957 812.551V367.351H839.957V566.551L833.957 651.751L836.357 736.951V812.551H764.957ZM934.157 752.551C952.157 752.551 968.157 748.551 982.157 740.551C996.557 732.551 1007.96 720.951 1016.36 705.751C1024.76 690.551 1028.96 672.751 1028.96 652.351C1028.96 631.551 1024.76 613.751 1016.36 598.951C1007.96 583.751 996.557 572.151 982.157 564.151C968.157 556.151 952.157 552.151 934.157 552.151C916.157 552.151 899.957 556.151 885.557 564.151C871.157 572.151 859.757 583.751 851.357 598.951C842.957 613.751 838.757 631.551 838.757 652.351C838.757 672.751 842.957 690.551 851.357 705.751C859.757 720.951 871.157 732.551 885.557 740.551C899.957 748.551 916.157 752.551 934.157 752.551Z" fill="white"/>
<path d="M480.845 236.055C532.291 225.12 573.996 258.892 573.996 311.487V782.884C573.996 835.479 532.291 886.98 480.845 897.916L327.147 930.585C275.701 941.52 233.996 907.748 233.996 855.153V383.756C233.996 331.161 275.701 279.66 327.147 268.725L480.845 236.055ZM499.475 364.802C499.475 333.245 474.452 312.981 443.585 319.542L364.407 336.373C333.54 342.934 308.517 373.834 308.517 405.391V800.603C308.517 832.16 333.54 852.424 364.407 845.862L443.585 829.032C474.452 822.471 499.475 791.57 499.475 760.013V364.802Z" fill="white"/>
</svg>
