<svg width="7382" height="1227" viewBox="0 0 7382 1227" fill="none" xmlns="http://www.w3.org/2000/svg">
<path d="M4166.82 509.023L4267.45 286.815H4298.88L4399.82 509.023H4366.49L4276.66 304.592H4289.35L4199.52 509.023H4166.82ZM4209.68 453.471L4218.25 428.076H4343.32L4352.52 453.471H4209.68ZM4432.97 509.023V286.815H4519.63C4548.41 286.815 4571.06 293.693 4587.56 307.449C4604.07 320.993 4612.32 339.934 4612.32 364.271C4612.32 380.354 4608.62 394.216 4601.21 405.855C4593.81 417.283 4583.22 426.066 4569.47 432.203C4555.71 438.34 4539.1 441.409 4519.63 441.409H4450.43L4464.71 426.806V509.023H4432.97ZM4581.53 509.023L4525.03 428.394H4558.99L4616.13 509.023H4581.53ZM4464.71 429.981L4450.43 414.426H4518.68C4538.99 414.426 4554.34 410.088 4564.71 401.411C4575.29 392.523 4580.58 380.143 4580.58 364.271C4580.58 348.399 4575.29 336.124 4564.71 327.448C4554.34 318.771 4538.99 314.433 4518.68 314.433H4450.43L4464.71 298.561V429.981ZM4762.97 511.563C4746.04 511.563 4730.38 508.812 4715.99 503.31C4701.81 497.596 4689.43 489.66 4678.85 479.502C4668.48 469.132 4660.33 457.069 4654.4 443.313C4648.48 429.558 4645.52 414.426 4645.52 397.919C4645.52 381.413 4648.48 366.281 4654.4 352.526C4660.33 338.77 4668.58 326.813 4679.16 316.655C4689.75 306.285 4702.13 298.349 4716.3 292.847C4730.7 287.133 4746.36 284.276 4763.29 284.276C4780.43 284.276 4796.19 287.239 4810.58 293.164C4825.19 298.878 4837.57 307.449 4847.73 318.877L4827.09 338.876C4818.63 329.987 4809.1 323.427 4798.52 319.194C4787.94 314.75 4776.62 312.528 4764.56 312.528C4752.07 312.528 4740.43 314.644 4729.64 318.877C4719.06 323.109 4709.85 329.035 4702.02 336.654C4694.19 344.272 4688.05 353.372 4683.61 363.953C4679.38 374.323 4677.26 385.645 4677.26 397.919C4677.26 410.194 4679.38 421.622 4683.61 432.203C4688.05 442.573 4694.19 451.567 4702.02 459.185C4709.85 466.804 4719.06 472.729 4729.64 476.962C4740.43 481.195 4752.07 483.311 4764.56 483.311C4776.62 483.311 4787.94 481.195 4798.52 476.962C4809.1 472.518 4818.63 465.746 4827.09 456.646L4847.73 476.645C4837.57 488.072 4825.19 496.749 4810.58 502.675C4796.19 508.6 4780.32 511.563 4762.97 511.563ZM5049.26 509.023V286.815H5081.01V509.023H5049.26ZM4889.91 509.023V286.815H4921.65V509.023H4889.91ZM4918.48 409.982V382.365H5052.12V409.982H4918.48ZM5147.52 509.023V286.815H5179.26V509.023H5147.52ZM5289.91 509.023V314.433H5213.73V286.815H5397.53V314.433H5321.34V509.023H5289.91ZM5432.1 509.023V286.815H5588.92V314.433H5463.84V481.406H5593.36V509.023H5432.1ZM5460.99 409.665V382.682H5575.27V409.665H5460.99ZM5743.81 511.563C5726.88 511.563 5711.22 508.812 5696.83 503.31C5682.65 497.596 5670.27 489.66 5659.69 479.502C5649.32 469.132 5641.17 457.069 5635.24 443.313C5629.32 429.558 5626.36 414.426 5626.36 397.919C5626.36 381.413 5629.32 366.281 5635.24 352.526C5641.17 338.77 5649.42 326.813 5660 316.655C5670.59 306.285 5682.97 298.349 5697.14 292.847C5711.54 287.133 5727.2 284.276 5744.13 284.276C5761.27 284.276 5777.03 287.239 5791.42 293.164C5806.03 298.878 5818.41 307.449 5828.57 318.877L5807.93 338.876C5799.47 329.987 5789.94 323.427 5779.36 319.194C5768.78 314.75 5757.46 312.528 5745.4 312.528C5732.91 312.528 5721.27 314.644 5710.48 318.877C5699.9 323.109 5690.69 329.035 5682.86 336.654C5675.03 344.272 5668.89 353.372 5664.45 363.953C5660.22 374.323 5658.1 385.645 5658.1 397.919C5658.1 410.194 5660.22 421.622 5664.45 432.203C5668.89 442.573 5675.03 451.567 5682.86 459.185C5690.69 466.804 5699.9 472.729 5710.48 476.962C5721.27 481.195 5732.91 483.311 5745.4 483.311C5757.46 483.311 5768.78 481.195 5779.36 476.962C5789.94 472.518 5799.47 465.746 5807.93 456.646L5828.57 476.645C5818.41 488.072 5806.03 496.749 5791.42 502.675C5777.03 508.6 5761.16 511.563 5743.81 511.563ZM5909.6 509.023V314.433H5833.42V286.815H6017.22V314.433H5941.03V509.023H5909.6ZM6139.82 511.563C6110.61 511.563 6087.65 503.204 6070.93 486.485C6054.21 469.767 6045.86 445.324 6045.86 413.157V286.815H6077.6V411.887C6077.6 436.647 6083 454.741 6093.79 466.169C6104.79 477.597 6120.24 483.311 6140.13 483.311C6160.24 483.311 6175.69 477.597 6186.48 466.169C6197.49 454.741 6202.99 436.647 6202.99 411.887V286.815H6233.78V413.157C6233.78 445.324 6225.42 469.767 6208.7 486.485C6192.2 503.204 6169.23 511.563 6139.82 511.563ZM6298.86 509.023V286.815H6385.52C6414.3 286.815 6436.95 293.693 6453.45 307.449C6469.96 320.993 6478.21 339.934 6478.21 364.271C6478.21 380.354 6474.51 394.216 6467.1 405.855C6459.7 417.283 6449.11 426.066 6435.36 432.203C6421.6 438.34 6404.99 441.409 6385.52 441.409H6316.32L6330.6 426.806V509.023H6298.86ZM6447.42 509.023L6390.92 428.394H6424.88L6482.02 509.023H6447.42ZM6330.6 429.981L6316.32 414.426H6384.57C6404.88 414.426 6420.23 410.088 6430.6 401.411C6441.18 392.523 6446.47 380.143 6446.47 364.271C6446.47 348.399 6441.18 336.124 6430.6 327.448C6420.23 318.771 6404.88 314.433 6384.57 314.433H6316.32L6330.6 298.561V429.981ZM6495.85 509.023L6596.48 286.815H6627.91L6728.85 509.023H6695.52L6605.69 304.592H6618.38L6528.55 509.023H6495.85ZM6538.71 453.471L6547.28 428.076H6672.35L6681.55 453.471H6538.71ZM6762 509.023V286.815H6793.74V481.406H6914.05V509.023H6762ZM4200.47 945.023V722.815H4300.15C4325.75 722.815 4345.43 728 4359.19 738.37C4372.95 748.528 4379.82 762.495 4379.82 780.272C4379.82 792.335 4377.07 802.493 4371.57 810.746C4366.28 819 4359.08 825.349 4349.98 829.793C4340.88 834.237 4331.04 836.459 4320.46 836.459L4326.18 826.936C4338.87 826.936 4350.09 829.158 4359.82 833.602C4369.56 838.046 4377.28 844.607 4383 853.283C4388.71 861.748 4391.57 872.33 4391.57 885.027C4391.57 904.074 4384.37 918.888 4369.98 929.469C4355.8 939.839 4334.64 945.023 4306.49 945.023H4200.47ZM4232.21 919.311H4305.23C4322.79 919.311 4336.23 916.348 4345.54 910.422C4354.85 904.497 4359.51 895.185 4359.51 882.488C4359.51 869.579 4354.85 860.161 4345.54 854.236C4336.23 848.31 4322.79 845.347 4305.23 845.347H4229.36V819.635H4297.29C4313.37 819.635 4325.86 816.672 4334.75 810.746C4343.64 804.821 4348.08 795.932 4348.08 784.081C4348.08 772.23 4343.64 763.342 4334.75 757.416C4325.86 751.491 4313.37 748.528 4297.29 748.528H4232.21V919.311ZM4532.78 947.563C4503.57 947.563 4480.61 939.204 4463.89 922.485C4447.17 905.767 4438.82 881.324 4438.82 849.157V722.815H4470.56V847.887C4470.56 872.647 4475.96 890.741 4486.75 902.169C4497.75 913.597 4513.2 919.311 4533.09 919.311C4553.2 919.311 4568.65 913.597 4579.44 902.169C4590.45 890.741 4595.95 872.647 4595.95 847.887V722.815H4626.74V849.157C4626.74 881.324 4618.38 905.767 4601.66 922.485C4585.16 939.204 4562.19 947.563 4532.78 947.563ZM4691.82 945.023V722.815H4723.56V945.023H4691.82ZM4790.09 945.023V722.815H4821.83V917.406H4942.14V945.023H4790.09ZM4978.57 945.023V722.815H5072.21C5095.92 722.815 5116.76 727.471 5134.75 736.783C5152.95 746.094 5167.02 759.109 5176.97 775.828C5187.13 792.546 5192.21 811.91 5192.21 833.919C5192.21 855.929 5187.13 875.292 5176.97 892.011C5167.02 908.729 5152.95 921.745 5134.75 931.056C5116.76 940.368 5095.92 945.023 5072.21 945.023H4978.57ZM5010.31 917.406H5070.31C5088.72 917.406 5104.59 913.914 5117.93 906.931C5131.47 899.947 5141.95 890.212 5149.35 877.726C5156.76 865.029 5160.46 850.426 5160.46 833.919C5160.46 817.201 5156.76 802.599 5149.35 790.113C5141.95 777.627 5131.47 767.892 5117.93 760.908C5104.59 753.925 5088.72 750.433 5070.31 750.433H5010.31V917.406ZM5240.83 945.023V722.815H5272.57V945.023H5240.83ZM5339.1 945.023V722.815H5365.13L5512.1 905.343H5498.45V722.815H5530.2V945.023H5504.17L5357.19 762.495H5370.84V945.023H5339.1ZM5697.02 947.563C5679.88 947.563 5664.11 944.812 5649.72 939.31C5635.33 933.596 5622.85 925.66 5612.26 915.502C5601.68 905.132 5593.43 893.069 5587.5 879.313C5581.58 865.558 5578.62 850.426 5578.62 833.919C5578.62 817.413 5581.58 802.281 5587.5 788.526C5593.43 774.77 5601.68 762.813 5612.26 752.655C5623.06 742.285 5635.65 734.349 5650.04 728.847C5664.43 723.133 5680.3 720.276 5697.66 720.276C5715.22 720.276 5731.3 723.133 5745.91 728.847C5760.51 734.561 5772.89 743.132 5783.05 754.559L5763.37 774.241C5754.27 765.352 5744.32 758.898 5733.53 754.877C5722.95 750.644 5711.41 748.528 5698.93 748.528C5686.23 748.528 5674.38 750.644 5663.37 754.877C5652.58 759.109 5643.16 765.035 5635.12 772.654C5627.29 780.272 5621.15 789.372 5616.71 799.953C5612.48 810.323 5610.36 821.645 5610.36 833.919C5610.36 845.982 5612.48 857.304 5616.71 867.886C5621.15 878.255 5627.29 887.355 5635.12 895.185C5643.16 902.804 5652.58 908.729 5663.37 912.962C5674.17 917.195 5685.91 919.311 5698.61 919.311C5710.46 919.311 5721.78 917.512 5732.57 913.914C5743.58 910.105 5753.74 903.862 5763.05 895.185L5781.14 919.311C5770.14 928.622 5757.23 935.712 5742.41 940.579C5727.81 945.235 5712.68 947.563 5697.02 947.563ZM5781.14 919.311L5750.67 915.184V832.65H5781.14V919.311ZM5991.93 947.563C5975 947.563 5958.81 945.023 5943.36 939.944C5927.91 934.654 5915.74 927.882 5906.85 919.628L5918.6 894.868C5927.06 902.275 5937.86 908.412 5950.98 913.279C5964.1 918.147 5977.75 920.581 5991.93 920.581C6004.84 920.581 6015.31 919.099 6023.35 916.136C6031.4 913.174 6037.32 909.153 6041.13 904.074C6044.94 898.783 6046.84 892.857 6046.84 886.297C6046.84 878.678 6044.31 872.541 6039.23 867.886C6034.36 863.23 6027.9 859.526 6019.86 856.775C6012.03 853.812 6003.36 851.273 5993.83 849.157C5984.31 847.04 5974.68 844.607 5964.95 841.855C5955.42 838.893 5946.64 835.189 5938.6 830.745C5930.77 826.301 5924.42 820.375 5919.55 812.968C5914.68 805.35 5912.25 795.615 5912.25 783.764C5912.25 772.336 5915.21 761.861 5921.14 752.337C5927.28 742.603 5936.59 734.878 5949.07 729.164C5961.77 723.239 5977.85 720.276 5997.32 720.276C6010.23 720.276 6023.04 721.969 6035.73 725.355C6048.43 728.741 6059.44 733.608 6068.75 739.957L6058.27 765.352C6048.75 759.004 6038.7 754.454 6028.12 751.702C6017.53 748.74 6007.27 747.258 5997.32 747.258C5984.84 747.258 5974.57 748.846 5966.53 752.02C5958.49 755.194 5952.57 759.427 5948.76 764.718C5945.16 770.008 5943.36 775.934 5943.36 782.494C5943.36 790.324 5945.79 796.567 5950.66 801.223C5955.74 805.879 5962.19 809.582 5970.02 812.334C5978.07 815.085 5986.85 817.624 5996.37 819.952C6005.9 822.068 6015.42 824.502 6024.94 827.253C6034.68 830.004 6043.46 833.602 6051.29 838.046C6059.33 842.49 6065.79 848.416 6070.65 855.823C6075.52 863.23 6077.95 872.753 6077.95 884.392C6077.95 895.609 6074.89 906.084 6068.75 915.819C6062.61 925.342 6053.09 933.067 6040.18 938.992C6027.48 944.706 6011.4 947.563 5991.93 947.563ZM6173.33 945.023V859.95L6180.63 879.631L6085.08 722.815H6119.05L6199.36 855.188H6180.95L6261.58 722.815H6293L6197.77 879.631L6204.75 859.95V945.023H6173.33ZM6385.32 947.563C6368.39 947.563 6352.2 945.023 6336.75 939.944C6321.3 934.654 6309.13 927.882 6300.24 919.628L6311.99 894.868C6320.45 902.275 6331.25 908.412 6344.37 913.279C6357.49 918.147 6371.14 920.581 6385.32 920.581C6398.23 920.581 6408.7 919.099 6416.74 916.136C6424.79 913.174 6430.71 909.153 6434.52 904.074C6438.33 898.783 6440.23 892.857 6440.23 886.297C6440.23 878.678 6437.7 872.541 6432.62 867.886C6427.75 863.23 6421.29 859.526 6413.25 856.775C6405.42 853.812 6396.75 851.273 6387.22 849.157C6377.7 847.04 6368.07 844.607 6358.34 841.855C6348.81 838.893 6340.03 835.189 6331.99 830.745C6324.16 826.301 6317.81 820.375 6312.94 812.968C6308.07 805.35 6305.64 795.615 6305.64 783.764C6305.64 772.336 6308.6 761.861 6314.53 752.337C6320.67 742.603 6329.98 734.878 6342.46 729.164C6355.16 723.239 6371.24 720.276 6390.71 720.276C6403.62 720.276 6416.43 721.969 6429.12 725.355C6441.82 728.741 6452.83 733.608 6462.14 739.957L6451.66 765.352C6442.14 759.004 6432.09 754.454 6421.51 751.702C6410.92 748.74 6400.66 747.258 6390.71 747.258C6378.23 747.258 6367.96 748.846 6359.92 752.02C6351.88 755.194 6345.96 759.427 6342.15 764.718C6338.55 770.008 6336.75 775.934 6336.75 782.494C6336.75 790.324 6339.18 796.567 6344.05 801.223C6349.13 805.879 6355.58 809.582 6363.41 812.334C6371.46 815.085 6380.24 817.624 6389.76 819.952C6399.29 822.068 6408.81 824.502 6418.33 827.253C6428.07 830.004 6436.85 833.602 6444.68 838.046C6452.72 842.49 6459.18 848.416 6464.04 855.823C6468.91 863.23 6471.34 872.753 6471.34 884.392C6471.34 895.609 6468.28 906.084 6462.14 915.819C6456 925.342 6446.48 933.067 6433.57 938.992C6420.87 944.706 6404.79 947.563 6385.32 947.563ZM6558.74 945.023V750.433H6482.56V722.815H6666.36V750.433H6590.17V945.023H6558.74ZM6700.93 945.023V722.815H6857.75V750.433H6732.67V917.406H6862.19V945.023H6700.93ZM6729.82 845.665V818.682H6844.1V845.665H6729.82ZM6913.59 945.023V722.815H6939.62L7039.3 890.741H7025.33L7123.74 722.815H7149.77L7150.08 945.023H7119.61L7119.29 770.749H7126.59L7038.98 918.041H7024.38L6936.13 770.749H6944.06V945.023H6913.59ZM7281.53 947.563C7264.6 947.563 7248.41 945.023 7232.96 939.944C7217.51 934.654 7205.34 927.882 7196.45 919.628L7208.2 894.868C7216.66 902.275 7227.46 908.412 7240.58 913.279C7253.7 918.147 7267.35 920.581 7281.53 920.581C7294.44 920.581 7304.91 919.099 7312.95 916.136C7321 913.174 7326.92 909.153 7330.73 904.074C7334.54 898.783 7336.44 892.857 7336.44 886.297C7336.44 878.678 7333.91 872.541 7328.83 867.886C7323.96 863.23 7317.5 859.526 7309.46 856.775C7301.63 853.812 7292.96 851.273 7283.43 849.157C7273.91 847.04 7264.28 844.607 7254.55 841.855C7245.02 838.893 7236.24 835.189 7228.2 830.745C7220.37 826.301 7214.02 820.375 7209.15 812.968C7204.28 805.35 7201.85 795.615 7201.85 783.764C7201.85 772.336 7204.81 761.861 7210.74 752.337C7216.88 742.603 7226.19 734.878 7238.67 729.164C7251.37 723.239 7267.45 720.276 7286.92 720.276C7299.83 720.276 7312.64 721.969 7325.33 725.355C7338.03 728.741 7349.04 733.608 7358.35 739.957L7347.87 765.352C7338.35 759.004 7328.3 754.454 7317.72 751.702C7307.13 748.74 7296.87 747.258 7286.92 747.258C7274.44 747.258 7264.17 748.846 7256.13 752.02C7248.09 755.194 7242.17 759.427 7238.36 764.718C7234.76 770.008 7232.96 775.934 7232.96 782.494C7232.96 790.324 7235.39 796.567 7240.26 801.223C7245.34 805.879 7251.79 809.582 7259.62 812.334C7267.67 815.085 7276.45 817.624 7285.97 819.952C7295.5 822.068 7305.02 824.502 7314.54 827.253C7324.28 830.004 7333.06 833.602 7340.89 838.046C7348.93 842.49 7355.39 848.416 7360.25 855.823C7365.12 863.23 7367.55 872.753 7367.55 884.392C7367.55 895.609 7364.49 906.084 7358.35 915.819C7352.21 925.342 7342.69 933.067 7329.78 938.992C7317.08 944.706 7301 947.563 7281.53 947.563Z" fill="#AAAAAA"/>
<line x1="3813.48" y1="1226.49" x2="3810.07" y2="0.0545888" stroke="#1DD45A" stroke-width="36.864"/>
<path d="M3364.12 1032.01C3301.05 1032.01 3252.3 1015.89 3217.9 983.631C3183.49 950.658 3166.29 902.274 3166.29 838.479V323.458H3300.69V835.253C3300.69 862.492 3307.5 883.637 3321.12 898.69C3335.45 913.743 3355.16 921.269 3380.25 921.269C3410.36 921.269 3435.45 913.384 3455.52 897.615L3493.15 993.308C3477.38 1006.21 3458.02 1015.89 3435.09 1022.34C3412.15 1028.79 3388.5 1032.01 3364.12 1032.01ZM3071.67 557.852V450.332H3454.44V557.852H3071.67Z" fill="white"/>
<path fill-rule="evenodd" clip-rule="evenodd" d="M2869.46 450.331V1024.49H3003.86V450.331H2869.46Z" fill="white"/>
<path d="M2937.2 355.714C2912.11 355.714 2891.33 347.829 2874.84 332.059C2859.07 316.29 2851.19 297.294 2851.19 275.074C2851.19 252.136 2859.07 233.141 2874.84 218.088C2891.33 202.318 2912.11 194.434 2937.2 194.434C2962.29 194.434 2982.72 201.96 2998.49 217.013C3014.97 231.349 3023.22 249.627 3023.22 271.848C3023.22 295.502 3015.33 315.573 2999.56 332.059C2983.79 347.829 2963.01 355.714 2937.2 355.714Z" fill="#1DD45A"/>
<path d="M2282.16 1024.49V939.547L2635.9 511.617L2660.63 557.851H2288.61V450.331H2768.15V535.272L2414.41 963.201L2387.53 916.968H2777.83V1024.49H2282.16Z" fill="white"/>
<path fill-rule="evenodd" clip-rule="evenodd" d="M2050.92 450.331V1024.49H2185.32V450.331H2050.92Z" fill="white"/>
<path d="M2118.66 355.714C2093.57 355.714 2072.79 347.829 2056.3 332.059C2040.53 316.29 2032.65 297.294 2032.65 275.074C2032.65 252.136 2040.53 233.141 2056.3 218.088C2072.79 202.318 2093.57 194.434 2118.66 194.434C2143.75 194.434 2164.18 201.96 2179.95 217.013C2196.44 231.349 2204.68 249.627 2204.68 271.848C2204.68 295.502 2196.79 315.573 2181.02 332.059C2165.25 347.829 2144.47 355.714 2118.66 355.714Z" fill="#1DD45A"/>
<path d="M1636.93 1024.49V450.331H1764.88V608.385L1749.83 562.152C1767.03 523.445 1793.91 494.056 1830.47 473.985C1867.74 453.915 1913.97 443.88 1969.17 443.88V571.829C1963.43 570.395 1958.06 569.678 1953.04 569.678C1948.02 568.961 1943.01 568.603 1937.99 568.603C1887.09 568.603 1846.6 583.656 1816.49 613.761C1786.38 643.15 1771.33 687.233 1771.33 746.011V1024.49H1636.93Z" fill="white"/>
<path d="M1250.35 1032.01C1201.6 1032.01 1158.24 1021.26 1120.25 999.758C1082.26 978.254 1052.15 945.998 1029.93 902.99C1008.43 859.265 997.675 804.072 997.675 737.409C997.675 670.03 1008.79 614.837 1031.01 571.829C1053.94 528.821 1084.41 496.923 1122.4 476.136C1161.11 454.632 1203.76 443.88 1250.35 443.88C1306.97 443.88 1356.79 456.065 1399.8 480.437C1443.52 504.808 1477.93 538.856 1503.02 582.581C1528.82 626.306 1541.73 677.915 1541.73 737.409C1541.73 796.904 1528.82 848.513 1503.02 892.238C1477.93 935.963 1443.52 970.37 1399.8 995.458C1356.79 1019.83 1306.97 1032.01 1250.35 1032.01ZM932.088 1024.49V226.689H1066.49V583.656L1055.74 736.334L1060.04 889.013V1024.49H932.088ZM1235.29 916.968C1267.55 916.968 1296.22 909.8 1321.31 895.464C1347.12 881.128 1367.54 860.341 1382.6 833.102C1397.65 805.864 1405.18 773.966 1405.18 737.409C1405.18 700.136 1397.65 668.238 1382.6 641.717C1367.54 614.478 1347.12 593.691 1321.31 579.355C1296.22 565.019 1267.55 557.851 1235.29 557.851C1203.04 557.851 1174.01 565.019 1148.2 579.355C1122.4 593.691 1101.97 614.478 1086.92 641.717C1071.86 668.238 1064.34 700.136 1064.34 737.409C1064.34 773.966 1071.86 805.864 1086.92 833.102C1101.97 860.341 1122.4 881.128 1148.2 895.464C1174.01 909.8 1203.04 916.968 1235.29 916.968Z" fill="white"/>
<path d="M433.336 3.60933C523.647 -15.5869 596.859 43.6991 596.859 136.028V963.551C596.859 1055.88 523.647 1146.29 433.336 1165.48L163.523 1222.84C73.2122 1242.03 0.000108539 1182.75 0 1090.42V262.894C0 170.565 73.2121 80.1561 163.523 60.9599L433.336 3.60933ZM466.041 229.62C466.041 174.222 422.113 138.65 367.927 150.168L228.933 179.714C174.746 191.232 130.819 245.476 130.819 300.874V994.655C130.819 1050.05 174.746 1085.62 228.933 1074.11L367.927 1044.56C422.113 1033.04 466.041 978.799 466.041 923.401V229.62Z" fill="#1DD45A"/>
</svg>
