<svg width="59" height="10" viewBox="0 0 59 10" fill="none" xmlns="http://www.w3.org/2000/svg">
<path d="M32.5522 4.3916L33.3384 2.6556H33.5839L34.3725 4.3916H34.1121L33.4103 2.79448H33.5095L32.8076 4.3916H32.5522ZM32.887 3.9576L32.954 3.7592H33.9311L34.003 3.9576H32.887ZM34.6315 4.3916V2.6556H35.3085C35.5334 2.6556 35.7103 2.70933 35.8393 2.8168C35.9682 2.92261 36.0327 3.07059 36.0327 3.26072C36.0327 3.38637 36.0038 3.49467 35.9459 3.5856C35.888 3.67488 35.8054 3.74349 35.6979 3.79144C35.5904 3.83939 35.4606 3.86336 35.3085 3.86336H34.7679L34.8795 3.74928V4.3916H34.6315ZM35.7921 4.3916L35.3507 3.76168H35.6161L36.0625 4.3916H35.7921ZM34.8795 3.77408L34.7679 3.65256H35.3011C35.4598 3.65256 35.5797 3.61867 35.6607 3.55088C35.7434 3.48144 35.7847 3.38472 35.7847 3.26072C35.7847 3.13672 35.7434 3.04083 35.6607 2.97304C35.5797 2.90525 35.4598 2.87136 35.3011 2.87136H34.7679L34.8795 2.74736V3.77408ZM37.2096 4.41144C37.0773 4.41144 36.955 4.38995 36.8426 4.34696C36.7318 4.30232 36.6351 4.24032 36.5524 4.16096C36.4714 4.07995 36.4077 3.98571 36.3614 3.87824C36.3152 3.77077 36.292 3.65256 36.292 3.5236C36.292 3.39464 36.3152 3.27643 36.3614 3.16896C36.4077 3.06149 36.4722 2.96808 36.5549 2.88872C36.6376 2.80771 36.7343 2.74571 36.845 2.70272C36.9575 2.65808 37.0798 2.63576 37.2121 2.63576C37.346 2.63576 37.4692 2.65891 37.5816 2.7052C37.6957 2.74984 37.7924 2.8168 37.8718 2.90608L37.7106 3.06232C37.6444 2.99288 37.57 2.94163 37.4874 2.90856C37.4047 2.87384 37.3162 2.85648 37.222 2.85648C37.1245 2.85648 37.0335 2.87301 36.9492 2.90608C36.8665 2.93915 36.7946 2.98544 36.7334 3.04496C36.6723 3.10448 36.6243 3.17557 36.5896 3.25824C36.5565 3.33925 36.54 3.42771 36.54 3.5236C36.54 3.61949 36.5565 3.70877 36.5896 3.79144C36.6243 3.87245 36.6723 3.94272 36.7334 4.00224C36.7946 4.06176 36.8665 4.10805 36.9492 4.14112C37.0335 4.17419 37.1245 4.19072 37.222 4.19072C37.3162 4.19072 37.4047 4.17419 37.4874 4.14112C37.57 4.1064 37.6444 4.05349 37.7106 3.9824L37.8718 4.13864C37.7924 4.22792 37.6957 4.29571 37.5816 4.342C37.4692 4.38829 37.3452 4.41144 37.2096 4.41144ZM39.4463 4.3916V2.6556H39.6943V4.3916H39.4463ZM38.2013 4.3916V2.6556H38.4493V4.3916H38.2013ZM38.4245 3.61784V3.40208H39.4686V3.61784H38.4245ZM40.2139 4.3916V2.6556H40.4619V4.3916H40.2139ZM41.3264 4.3916V2.87136H40.7312V2.6556H42.1671V2.87136H41.5719V4.3916H41.3264ZM42.4372 4.3916V2.6556H43.6623V2.87136H42.6852V4.17584H43.697V4.3916H42.4372ZM42.6629 3.61536V3.40456H43.5557V3.61536H42.6629ZM44.8724 4.41144C44.7402 4.41144 44.6178 4.38995 44.5054 4.34696C44.3946 4.30232 44.2979 4.24032 44.2152 4.16096C44.1342 4.07995 44.0706 3.98571 44.0243 3.87824C43.978 3.77077 43.9548 3.65256 43.9548 3.5236C43.9548 3.39464 43.978 3.27643 44.0243 3.16896C44.0706 3.06149 44.135 2.96808 44.2177 2.88872C44.3004 2.80771 44.3971 2.74571 44.5079 2.70272C44.6203 2.65808 44.7426 2.63576 44.8749 2.63576C45.0088 2.63576 45.132 2.65891 45.2444 2.7052C45.3585 2.74984 45.4552 2.8168 45.5346 2.90608L45.3734 3.06232C45.3072 2.99288 45.2328 2.94163 45.1502 2.90856C45.0675 2.87384 44.9791 2.85648 44.8848 2.85648C44.7873 2.85648 44.6963 2.87301 44.612 2.90608C44.5294 2.93915 44.4574 2.98544 44.3963 3.04496C44.3351 3.10448 44.2871 3.17557 44.2524 3.25824C44.2194 3.33925 44.2028 3.42771 44.2028 3.5236C44.2028 3.61949 44.2194 3.70877 44.2524 3.79144C44.2871 3.87245 44.3351 3.94272 44.3963 4.00224C44.4574 4.06176 44.5294 4.10805 44.612 4.14112C44.6963 4.17419 44.7873 4.19072 44.8848 4.19072C44.9791 4.19072 45.0675 4.17419 45.1502 4.14112C45.2328 4.1064 45.3072 4.05349 45.3734 3.9824L45.5346 4.13864C45.4552 4.22792 45.3585 4.29571 45.2444 4.342C45.132 4.38829 45.008 4.41144 44.8724 4.41144ZM46.1677 4.3916V2.87136H45.5725V2.6556H47.0084V2.87136H46.4132V4.3916H46.1677ZM47.9662 4.41144C47.7381 4.41144 47.5587 4.34613 47.4281 4.21552C47.2975 4.08491 47.2322 3.89395 47.2322 3.64264V2.6556H47.4802V3.63272C47.4802 3.82616 47.5223 3.96752 47.6066 4.0568C47.6926 4.14608 47.8133 4.19072 47.9687 4.19072C48.1258 4.19072 48.2465 4.14608 48.3308 4.0568C48.4168 3.96752 48.4598 3.82616 48.4598 3.63272V2.6556H48.7003V3.64264C48.7003 3.89395 48.635 4.08491 48.5044 4.21552C48.3754 4.34613 48.1961 4.41144 47.9662 4.41144ZM49.2088 4.3916V2.6556H49.8858C50.1107 2.6556 50.2876 2.70933 50.4165 2.8168C50.5455 2.92261 50.61 3.07059 50.61 3.26072C50.61 3.38637 50.581 3.49467 50.5232 3.5856C50.4653 3.67488 50.3826 3.74349 50.2752 3.79144C50.1677 3.83939 50.0379 3.86336 49.8858 3.86336H49.3452L49.4568 3.74928V4.3916H49.2088ZM50.3694 4.3916L49.928 3.76168H50.1933L50.6397 4.3916H50.3694ZM49.4568 3.77408L49.3452 3.65256H49.8784C50.0371 3.65256 50.1569 3.61867 50.238 3.55088C50.3206 3.48144 50.362 3.38472 50.362 3.26072C50.362 3.13672 50.3206 3.04083 50.238 2.97304C50.1569 2.90525 50.0371 2.87136 49.8784 2.87136H49.3452L49.4568 2.74736V3.77408ZM50.7478 4.3916L51.5339 2.6556H51.7794L52.5681 4.3916H52.3077L51.6058 2.79448H51.705L51.0032 4.3916H50.7478ZM51.0826 3.9576L51.1495 3.7592H52.1266L52.1986 3.9576H51.0826ZM52.827 4.3916V2.6556H53.075V4.17584H54.015V4.3916H52.827ZM32.8151 7.3916V5.6556H33.5938C33.7939 5.6556 33.9476 5.69611 34.0551 5.77712C34.1626 5.85648 34.2163 5.9656 34.2163 6.10448C34.2163 6.19872 34.1948 6.27808 34.1518 6.34256C34.1105 6.40704 34.0543 6.45664 33.9832 6.49136C33.9121 6.52608 33.8352 6.54344 33.7525 6.54344L33.7972 6.46904C33.8964 6.46904 33.984 6.4864 34.06 6.52112C34.1361 6.55584 34.1964 6.60709 34.2411 6.67488C34.2857 6.74101 34.308 6.82368 34.308 6.92288C34.308 7.07168 34.2518 7.18741 34.1394 7.27008C34.0286 7.35109 33.8633 7.3916 33.6434 7.3916H32.8151ZM33.0631 7.19072H33.6335C33.7707 7.19072 33.8757 7.16757 33.9484 7.12128C34.0212 7.07499 34.0576 7.00224 34.0576 6.90304C34.0576 6.80219 34.0212 6.72861 33.9484 6.68232C33.8757 6.63603 33.7707 6.61288 33.6335 6.61288H33.0408V6.412H33.5715C33.6971 6.412 33.7947 6.38885 33.8641 6.34256C33.9336 6.29627 33.9683 6.22683 33.9683 6.13424C33.9683 6.04165 33.9336 5.97221 33.8641 5.92592C33.7947 5.87963 33.6971 5.85648 33.5715 5.85648H33.0631V7.19072ZM35.4112 7.41144C35.1831 7.41144 35.0037 7.34613 34.8731 7.21552C34.7425 7.08491 34.6772 6.89395 34.6772 6.64264V5.6556H34.9252V6.63272C34.9252 6.82616 34.9673 6.96752 35.0516 7.0568C35.1376 7.14608 35.2583 7.19072 35.4137 7.19072C35.5708 7.19072 35.6915 7.14608 35.7758 7.0568C35.8618 6.96752 35.9048 6.82616 35.9048 6.63272V5.6556H36.1453V6.64264C36.1453 6.89395 36.08 7.08491 35.9494 7.21552C35.8204 7.34613 35.6411 7.41144 35.4112 7.41144ZM36.6538 7.3916V5.6556H36.9018V7.3916H36.6538ZM37.4215 7.3916V5.6556H37.6695V7.17584H38.6094V7.3916H37.4215ZM38.894 7.3916V5.6556H39.6256C39.8108 5.6556 39.9736 5.69197 40.1142 5.76472C40.2563 5.83747 40.3663 5.93915 40.444 6.06976C40.5234 6.20037 40.563 6.35165 40.563 6.5236C40.563 6.69555 40.5234 6.84683 40.444 6.97744C40.3663 7.10805 40.2563 7.20973 40.1142 7.28248C39.9736 7.35523 39.8108 7.3916 39.6256 7.3916H38.894ZM39.142 7.17584H39.6107C39.7546 7.17584 39.8786 7.14856 39.9827 7.094C40.0885 7.03944 40.1704 6.96339 40.2282 6.86584C40.2861 6.76664 40.315 6.65256 40.315 6.5236C40.315 6.39299 40.2861 6.27891 40.2282 6.18136C40.1704 6.08381 40.0885 6.00776 39.9827 5.9532C39.8786 5.89864 39.7546 5.87136 39.6107 5.87136H39.142V7.17584ZM40.9429 7.3916V5.6556H41.1909V7.3916H40.9429ZM41.7106 7.3916V5.6556H41.914L43.0622 7.0816H42.9556V5.6556H43.2036V7.3916H43.0002L41.852 5.9656H41.9586V7.3916H41.7106ZM44.5069 7.41144C44.373 7.41144 44.2498 7.38995 44.1374 7.34696C44.0249 7.30232 43.9274 7.24032 43.8447 7.16096C43.7621 7.07995 43.6976 6.98571 43.6513 6.87824C43.605 6.77077 43.5819 6.65256 43.5819 6.5236C43.5819 6.39464 43.605 6.27643 43.6513 6.16896C43.6976 6.06149 43.7621 5.96808 43.8447 5.88872C43.9291 5.80771 44.0274 5.74571 44.1399 5.70272C44.2523 5.65808 44.3763 5.63576 44.5119 5.63576C44.6491 5.63576 44.7747 5.65808 44.8888 5.70272C45.0029 5.74736 45.0996 5.81432 45.179 5.9036L45.0252 6.05736C44.9541 5.98792 44.8764 5.93749 44.7921 5.90608C44.7094 5.87301 44.6193 5.85648 44.5218 5.85648C44.4226 5.85648 44.33 5.87301 44.244 5.90608C44.1597 5.93915 44.0861 5.98544 44.0233 6.04496C43.9621 6.10448 43.9142 6.17557 43.8795 6.25824C43.8464 6.33925 43.8299 6.42771 43.8299 6.5236C43.8299 6.61784 43.8464 6.70629 43.8795 6.78896C43.9142 6.86997 43.9621 6.94107 44.0233 7.00224C44.0861 7.06176 44.1597 7.10805 44.244 7.14112C44.3283 7.17419 44.4201 7.19072 44.5193 7.19072C44.6119 7.19072 44.7003 7.17667 44.7847 7.14856C44.8706 7.1188 44.95 7.07003 45.0227 7.00224L45.1641 7.19072C45.0781 7.26347 44.9773 7.31885 44.8615 7.35688C44.7475 7.39325 44.6292 7.41144 44.5069 7.41144ZM45.1641 7.19072L44.926 7.15848V6.51368H45.1641V7.19072ZM46.8109 7.41144C46.6786 7.41144 46.5521 7.3916 46.4314 7.35192C46.3107 7.31059 46.2157 7.25768 46.1462 7.1932L46.238 6.99976C46.3041 7.05763 46.3884 7.10557 46.4909 7.1436C46.5934 7.18163 46.7001 7.20064 46.8109 7.20064C46.9117 7.20064 46.9935 7.18907 47.0564 7.16592C47.1192 7.14277 47.1655 7.11136 47.1953 7.07168C47.225 7.03035 47.2399 6.98405 47.2399 6.9328C47.2399 6.87328 47.2201 6.82533 47.1804 6.78896C47.1423 6.75259 47.0919 6.72365 47.0291 6.70216C46.9679 6.67901 46.9001 6.65917 46.8257 6.64264C46.7513 6.62611 46.6761 6.60709 46.6001 6.5856C46.5257 6.56245 46.457 6.53352 46.3942 6.4988C46.333 6.46408 46.2834 6.41779 46.2454 6.35992C46.2074 6.3004 46.1884 6.22435 46.1884 6.13176C46.1884 6.04248 46.2115 5.96064 46.2578 5.88624C46.3058 5.81019 46.3785 5.74984 46.4761 5.7052C46.5753 5.65891 46.7009 5.63576 46.853 5.63576C46.9539 5.63576 47.0539 5.64899 47.1531 5.67544C47.2523 5.70189 47.3383 5.73992 47.411 5.78952L47.3292 5.98792C47.2548 5.93832 47.1762 5.90277 47.0936 5.88128C47.0109 5.85813 46.9307 5.84656 46.853 5.84656C46.7555 5.84656 46.6753 5.85896 46.6125 5.88376C46.5496 5.90856 46.5033 5.94163 46.4736 5.98296C46.4455 6.02429 46.4314 6.07059 46.4314 6.12184C46.4314 6.18301 46.4504 6.23179 46.4885 6.26816C46.5281 6.30453 46.5786 6.33347 46.6397 6.35496C46.7026 6.37645 46.7712 6.39629 46.8456 6.41448C46.92 6.43101 46.9944 6.45003 47.0688 6.47152C47.1448 6.49301 47.2134 6.52112 47.2746 6.55584C47.3374 6.59056 47.3879 6.63685 47.4259 6.69472C47.4639 6.75259 47.4829 6.82699 47.4829 6.91792C47.4829 7.00555 47.459 7.08739 47.411 7.16344C47.3631 7.23784 47.2887 7.29819 47.1878 7.34448C47.0886 7.38912 46.963 7.41144 46.8109 7.41144ZM48.228 7.3916V6.72696L48.2851 6.88072L47.5386 5.6556H47.804L48.4314 6.68976H48.2876L48.9175 5.6556H49.163L48.419 6.88072L48.4736 6.72696V7.3916H48.228ZM49.8842 7.41144C49.7519 7.41144 49.6255 7.3916 49.5048 7.35192C49.3841 7.31059 49.289 7.25768 49.2196 7.1932L49.3113 6.99976C49.3775 7.05763 49.4618 7.10557 49.5643 7.1436C49.6668 7.18163 49.7734 7.20064 49.8842 7.20064C49.9851 7.20064 50.0669 7.18907 50.1297 7.16592C50.1926 7.14277 50.2389 7.11136 50.2686 7.07168C50.2984 7.03035 50.3133 6.98405 50.3133 6.9328C50.3133 6.87328 50.2934 6.82533 50.2537 6.78896C50.2157 6.75259 50.1653 6.72365 50.1025 6.70216C50.0413 6.67901 49.9735 6.65917 49.8991 6.64264C49.8247 6.62611 49.7495 6.60709 49.6734 6.5856C49.599 6.56245 49.5304 6.53352 49.4676 6.4988C49.4064 6.46408 49.3568 6.41779 49.3188 6.35992C49.2807 6.3004 49.2617 6.22435 49.2617 6.13176C49.2617 6.04248 49.2849 5.96064 49.3312 5.88624C49.3791 5.81019 49.4519 5.74984 49.5494 5.7052C49.6486 5.65891 49.7743 5.63576 49.9264 5.63576C50.0272 5.63576 50.1273 5.64899 50.2265 5.67544C50.3257 5.70189 50.4116 5.73992 50.4844 5.78952L50.4025 5.98792C50.3281 5.93832 50.2496 5.90277 50.1669 5.88128C50.0843 5.85813 50.0041 5.84656 49.9264 5.84656C49.8288 5.84656 49.7486 5.85896 49.6858 5.88376C49.623 5.90856 49.5767 5.94163 49.5469 5.98296C49.5188 6.02429 49.5048 6.07059 49.5048 6.12184C49.5048 6.18301 49.5238 6.23179 49.5618 6.26816C49.6015 6.30453 49.6519 6.33347 49.7131 6.35496C49.7759 6.37645 49.8445 6.39629 49.9189 6.41448C49.9933 6.43101 50.0677 6.45003 50.1421 6.47152C50.2182 6.49301 50.2868 6.52112 50.348 6.55584C50.4108 6.59056 50.4612 6.63685 50.4993 6.69472C50.5373 6.75259 50.5563 6.82699 50.5563 6.91792C50.5563 7.00555 50.5323 7.08739 50.4844 7.16344C50.4364 7.23784 50.362 7.29819 50.2612 7.34448C50.162 7.38912 50.0363 7.41144 49.8842 7.41144ZM51.2391 7.3916V5.87136H50.6439V5.6556H52.0798V5.87136H51.4846V7.3916H51.2391ZM52.3499 7.3916V5.6556H53.5751V5.87136H52.5979V7.17584H53.6098V7.3916H52.3499ZM52.5756 6.61536V6.40456H53.4684V6.61536H52.5756ZM54.0113 7.3916V5.6556H54.2147L54.9934 6.96752H54.8843L55.6531 5.6556H55.8565L55.8589 7.3916H55.6209L55.6184 6.03008H55.6754L54.9909 7.1808H54.8769L54.1874 6.03008H54.2494V7.3916H54.0113ZM56.8859 7.41144C56.7536 7.41144 56.6271 7.3916 56.5064 7.35192C56.3857 7.31059 56.2907 7.25768 56.2212 7.1932L56.313 6.99976C56.3791 7.05763 56.4634 7.10557 56.5659 7.1436C56.6684 7.18163 56.7751 7.20064 56.8859 7.20064C56.9867 7.20064 57.0685 7.18907 57.1314 7.16592C57.1942 7.14277 57.2405 7.11136 57.2703 7.07168C57.3 7.03035 57.3149 6.98405 57.3149 6.9328C57.3149 6.87328 57.2951 6.82533 57.2554 6.78896C57.2173 6.75259 57.1669 6.72365 57.1041 6.70216C57.0429 6.67901 56.9751 6.65917 56.9007 6.64264C56.8263 6.62611 56.7511 6.60709 56.6751 6.5856C56.6007 6.56245 56.532 6.53352 56.4692 6.4988C56.408 6.46408 56.3584 6.41779 56.3204 6.35992C56.2824 6.3004 56.2634 6.22435 56.2634 6.13176C56.2634 6.04248 56.2865 5.96064 56.3328 5.88624C56.3808 5.81019 56.4535 5.74984 56.5511 5.7052C56.6503 5.65891 56.7759 5.63576 56.928 5.63576C57.0289 5.63576 57.1289 5.64899 57.2281 5.67544C57.3273 5.70189 57.4133 5.73992 57.486 5.78952L57.4042 5.98792C57.3298 5.93832 57.2512 5.90277 57.1686 5.88128C57.0859 5.85813 57.0057 5.84656 56.928 5.84656C56.8305 5.84656 56.7503 5.85896 56.6875 5.88376C56.6246 5.90856 56.5783 5.94163 56.5486 5.98296C56.5205 6.02429 56.5064 6.07059 56.5064 6.12184C56.5064 6.18301 56.5254 6.23179 56.5635 6.26816C56.6031 6.30453 56.6536 6.33347 56.7147 6.35496C56.7776 6.37645 56.8462 6.39629 56.9206 6.41448C56.995 6.43101 57.0694 6.45003 57.1438 6.47152C57.2198 6.49301 57.2884 6.52112 57.3496 6.55584C57.4124 6.59056 57.4629 6.63685 57.5009 6.69472C57.5389 6.75259 57.5579 6.82699 57.5579 6.91792C57.5579 7.00555 57.534 7.08739 57.486 7.16344C57.4381 7.23784 57.3637 7.29819 57.2628 7.34448C57.1636 7.38912 57.038 7.41144 56.8859 7.41144Z" fill="#AAAAAA"/>
<line x1="29.7896" y1="9.58341" x2="29.763" y2="0.00184554" stroke="#1DD45A" stroke-width="0.288"/>
<path d="M26.2809 8.06294C25.7881 8.06294 25.4073 7.93694 25.1385 7.68494C24.8697 7.42734 24.7353 7.04934 24.7353 6.55094V2.52734H25.7853V6.52574C25.7853 6.73854 25.8385 6.90374 25.9449 7.02134C26.0569 7.13894 26.2109 7.19774 26.4069 7.19774C26.6421 7.19774 26.8381 7.13614 26.9949 7.01294L27.2889 7.76054C27.1657 7.86134 27.0145 7.93694 26.8353 7.98734C26.6561 8.03774 26.4713 8.06294 26.2809 8.06294ZM23.9961 4.35854V3.51854H26.9865V4.35854H23.9961Z" fill="white"/>
<path fill-rule="evenodd" clip-rule="evenodd" d="M22.4162 3.51873V8.00433H23.4662V3.51873H22.4162Z" fill="white"/>
<path d="M22.9454 2.77953C22.7494 2.77953 22.587 2.71793 22.4582 2.59473C22.335 2.47153 22.2734 2.32313 22.2734 2.14953C22.2734 1.97033 22.335 1.82193 22.4582 1.70433C22.587 1.58113 22.7494 1.51953 22.9454 1.51953C23.1414 1.51953 23.301 1.57833 23.4242 1.69593C23.553 1.80793 23.6174 1.95073 23.6174 2.12433C23.6174 2.30913 23.5558 2.46593 23.4326 2.59473C23.3094 2.71793 23.147 2.77953 22.9454 2.77953Z" fill="#1DD45A"/>
<path d="M17.8281 8.00415V7.34055L20.5917 3.99735L20.7849 4.35855H17.8785V3.51855H21.6249V4.18215L18.8613 7.52535L18.6513 7.16415H21.7005V8.00415H17.8281Z" fill="white"/>
<path fill-rule="evenodd" clip-rule="evenodd" d="M16.0217 3.51873V8.00433H17.0717V3.51873H16.0217Z" fill="white"/>
<path d="M16.5509 2.77953C16.3549 2.77953 16.1925 2.71793 16.0637 2.59473C15.9405 2.47153 15.8789 2.32313 15.8789 2.14953C15.8789 1.97033 15.9405 1.82193 16.0637 1.70433C16.1925 1.58113 16.3549 1.51953 16.5509 1.51953C16.7469 1.51953 16.9065 1.57833 17.0297 1.69593C17.1585 1.80793 17.2229 1.95073 17.2229 2.12433C17.2229 2.30913 17.1613 2.46593 17.0381 2.59473C16.9149 2.71793 16.7525 2.77953 16.5509 2.77953Z" fill="#1DD45A"/>
<path d="M12.7852 8.00377V3.51817H13.7848V4.75297L13.6672 4.39177C13.8016 4.08937 14.0116 3.85977 14.2972 3.70297C14.5884 3.54617 14.9496 3.46777 15.3808 3.46777V4.46737C15.336 4.45617 15.294 4.45057 15.2548 4.45057C15.2156 4.44497 15.1764 4.44217 15.1372 4.44217C14.7396 4.44217 14.4232 4.55977 14.188 4.79497C13.9528 5.02457 13.8352 5.36897 13.8352 5.82817V8.00377H12.7852Z" fill="white"/>
<path d="M9.76765 8.06308C9.38685 8.06308 9.04805 7.97908 8.75125 7.81108C8.45445 7.64308 8.21925 7.39108 8.04565 7.05508C7.87765 6.71348 7.79365 6.28228 7.79365 5.76148C7.79365 5.23508 7.88045 4.80388 8.05405 4.46788C8.23325 4.13188 8.47125 3.88268 8.76805 3.72028C9.07045 3.55228 9.40365 3.46828 9.76765 3.46828C10.21 3.46828 10.5993 3.56348 10.9352 3.75388C11.2768 3.94428 11.5456 4.21028 11.7417 4.55188C11.9433 4.89348 12.0441 5.29668 12.0441 5.76148C12.0441 6.22628 11.9433 6.62948 11.7417 6.97108C11.5456 7.31268 11.2768 7.58149 10.9352 7.77749C10.5993 7.96789 10.21 8.06308 9.76765 8.06308ZM7.28125 8.00428V1.77148H8.33125V4.56028L8.24725 5.75308L8.28085 6.94589V8.00428H7.28125ZM9.65005 7.16428C9.90205 7.16428 10.126 7.10828 10.3221 6.99628C10.5236 6.88428 10.6832 6.72188 10.8009 6.50908C10.9184 6.29628 10.9772 6.04708 10.9772 5.76148C10.9772 5.47028 10.9184 5.22108 10.8009 5.01388C10.6832 4.80108 10.5236 4.63868 10.3221 4.52668C10.126 4.41468 9.90205 4.35868 9.65005 4.35868C9.39805 4.35868 9.17125 4.41468 8.96965 4.52668C8.76805 4.63868 8.60845 4.80108 8.49085 5.01388C8.37325 5.22108 8.31445 5.47028 8.31445 5.76148C8.31445 6.04708 8.37325 6.29628 8.49085 6.50908C8.60845 6.72188 8.76805 6.88428 8.96965 6.99628C9.17125 7.10828 9.39805 7.16428 9.65005 7.16428Z" fill="white"/>
<path d="M3.38544 0.0281979C4.09099 -0.121773 4.66296 0.341399 4.66296 1.06272V7.52774C4.66296 8.24906 4.09099 8.95538 3.38544 9.10535L1.27753 9.5534C0.57197 9.70337 8.47964e-07 9.2402 0 8.51888V2.05386C0 1.33254 0.571969 0.62622 1.27753 0.476249L3.38544 0.0281979ZM3.64094 1.7939C3.64094 1.36111 3.29776 1.08321 2.87443 1.17319L1.78854 1.40401C1.3652 1.494 1.02202 1.91778 1.02202 2.35058V7.77075C1.02202 8.20354 1.3652 8.48144 1.78854 8.39146L2.87443 8.16064C3.29776 8.07065 3.64094 7.64687 3.64094 7.21407V1.7939Z" fill="#1DD45A"/>
</svg>
