<svg width="169" height="64" viewBox="0 0 169 64" fill="none" xmlns="http://www.w3.org/2000/svg">
<path d="M152.527 44.8053C151.868 44.8053 151.239 44.7155 150.64 44.5358C150.051 44.356 149.587 44.1364 149.247 43.8768L149.846 42.7386C150.186 42.9682 150.605 43.1629 151.104 43.3227C151.603 43.4824 152.113 43.5623 152.632 43.5623C153.301 43.5623 153.78 43.4674 154.069 43.2777C154.369 43.088 154.519 42.8235 154.519 42.484C154.519 42.2344 154.429 42.0397 154.249 41.8999C154.069 41.7601 153.83 41.6553 153.53 41.5854C153.241 41.5155 152.916 41.4556 152.557 41.4057C152.197 41.3458 151.838 41.2759 151.479 41.196C151.119 41.1062 150.79 40.9864 150.49 40.8366C150.191 40.6768 149.951 40.4622 149.771 40.1926C149.592 39.9131 149.502 39.5436 149.502 39.0844C149.502 38.6051 149.636 38.1858 149.906 37.8263C150.176 37.4669 150.555 37.1924 151.044 37.0027C151.543 36.803 152.133 36.7031 152.811 36.7031C153.331 36.7031 153.855 36.768 154.384 36.8978C154.923 37.0176 155.362 37.1924 155.702 37.422L155.088 38.5602C154.728 38.3206 154.354 38.1558 153.965 38.066C153.575 37.9761 153.186 37.9312 152.796 37.9312C152.167 37.9312 151.698 38.036 151.389 38.2457C151.079 38.4454 150.924 38.705 150.924 39.0245C150.924 39.294 151.014 39.5037 151.194 39.6535C151.384 39.7932 151.623 39.9031 151.913 39.9829C152.212 40.0628 152.542 40.1327 152.901 40.1926C153.261 40.2425 153.62 40.3124 153.98 40.4023C154.339 40.4822 154.664 40.597 154.953 40.7467C155.253 40.8965 155.492 41.1062 155.672 41.3757C155.862 41.6453 155.956 42.0047 155.956 42.454C155.956 42.9333 155.817 43.3476 155.537 43.6971C155.258 44.0465 154.863 44.3211 154.354 44.5208C153.845 44.7105 153.236 44.8053 152.527 44.8053Z" fill="white"/>
<path d="M144.743 36.7031C145.392 36.7031 145.961 36.8279 146.45 37.0775C146.95 37.3271 147.339 37.7065 147.619 38.2157C147.898 38.7249 148.038 39.3689 148.038 40.1477V44.7155H146.6V40.3124C146.6 39.5436 146.411 38.9646 146.031 38.5752C145.662 38.1858 145.138 37.9911 144.459 37.9911C143.949 37.9911 143.505 38.0909 143.126 38.2906C142.746 38.4903 142.452 38.7848 142.242 39.1742C142.042 39.5636 141.943 40.0478 141.943 40.6269V44.7155H140.505V36.778H141.883V38.9196L141.658 38.3505C141.918 37.8313 142.317 37.427 142.856 37.1374C143.395 36.8479 144.024 36.7031 144.743 36.7031Z" fill="white"/>
<path d="M135.32 44.8053C134.471 44.8053 133.723 44.6306 133.074 44.2812C132.435 43.9317 131.935 43.4525 131.576 42.8434C131.226 42.2344 131.052 41.5355 131.052 40.7467C131.052 39.958 131.221 39.2591 131.561 38.65C131.91 38.041 132.385 37.5668 132.984 37.2273C133.593 36.8778 134.277 36.7031 135.035 36.7031C135.804 36.7031 136.483 36.8729 137.072 37.2123C137.661 37.5518 138.121 38.031 138.45 38.65C138.79 39.2591 138.959 39.973 138.959 40.7917C138.959 40.8516 138.954 40.9215 138.944 41.0013C138.944 41.0812 138.939 41.1561 138.929 41.226H132.175V40.1926H138.18L137.596 40.552C137.606 40.0428 137.502 39.5886 137.282 39.1892C137.062 38.7898 136.758 38.4803 136.368 38.2607C135.989 38.031 135.545 37.9162 135.035 37.9162C134.536 37.9162 134.092 38.031 133.703 38.2607C133.313 38.4803 133.009 38.7948 132.789 39.2042C132.569 39.6035 132.46 40.0628 132.46 40.582V40.8216C132.46 41.3508 132.579 41.825 132.819 42.2444C133.069 42.6537 133.413 42.9732 133.852 43.2029C134.292 43.4325 134.796 43.5473 135.365 43.5473C135.834 43.5473 136.259 43.4674 136.638 43.3077C137.027 43.1479 137.367 42.9083 137.656 42.5888L138.45 43.5174C138.091 43.9367 137.641 44.2562 137.102 44.4758C136.573 44.6955 135.979 44.8053 135.32 44.8053Z" fill="white"/>
<path d="M126.597 44.8053C125.749 44.8053 125 44.6306 124.351 44.2812C123.712 43.9317 123.213 43.4525 122.853 42.8434C122.504 42.2344 122.329 41.5355 122.329 40.7467C122.329 39.958 122.499 39.2591 122.838 38.65C123.188 38.041 123.662 37.5668 124.261 37.2273C124.87 36.8778 125.554 36.7031 126.313 36.7031C127.082 36.7031 127.761 36.8729 128.35 37.2123C128.939 37.5518 129.398 38.031 129.727 38.65C130.067 39.2591 130.237 39.973 130.237 40.7917C130.237 40.8516 130.232 40.9215 130.222 41.0013C130.222 41.0812 130.217 41.1561 130.207 41.226H123.452V40.1926H129.458L128.874 40.552C128.884 40.0428 128.779 39.5886 128.559 39.1892C128.34 38.7898 128.035 38.4803 127.646 38.2607C127.266 38.031 126.822 37.9162 126.313 37.9162C125.814 37.9162 125.369 38.031 124.98 38.2607C124.591 38.4803 124.286 38.7948 124.066 39.2042C123.847 39.6035 123.737 40.0628 123.737 40.582V40.8216C123.737 41.3508 123.857 41.825 124.096 42.2444C124.346 42.6537 124.69 42.9732 125.13 43.2029C125.569 43.4325 126.073 43.5473 126.642 43.5473C127.112 43.5473 127.536 43.4674 127.915 43.3077C128.305 43.1479 128.644 42.9083 128.934 42.5888L129.727 43.5174C129.368 43.9367 128.919 44.2562 128.38 44.4758C127.85 44.6955 127.256 44.8053 126.597 44.8053Z" fill="white"/>
<path d="M117.546 44.7155V36.778H118.924V38.9346L118.789 38.3955C119.009 37.8463 119.378 37.427 119.897 37.1374C120.416 36.8479 121.055 36.7031 121.814 36.7031V38.0959C121.754 38.0859 121.694 38.0809 121.634 38.0809C121.585 38.0809 121.535 38.0809 121.485 38.0809C120.716 38.0809 120.107 38.3106 119.658 38.7699C119.208 39.2291 118.984 39.8931 118.984 40.7617V44.7155H117.546Z" fill="white"/>
<path d="M112.899 44.8053C112.091 44.8053 111.367 44.6306 110.728 44.2812C110.099 43.9317 109.605 43.4525 109.245 42.8434C108.886 42.2344 108.706 41.5355 108.706 40.7467C108.706 39.958 108.886 39.2591 109.245 38.65C109.605 38.041 110.099 37.5668 110.728 37.2273C111.367 36.8778 112.091 36.7031 112.899 36.7031C113.618 36.7031 114.257 36.8479 114.816 37.1374C115.386 37.417 115.825 37.8363 116.134 38.3955L115.041 39.0993C114.781 38.71 114.462 38.4254 114.083 38.2457C113.713 38.056 113.314 37.9611 112.884 37.9611C112.365 37.9611 111.901 38.076 111.492 38.3056C111.082 38.5352 110.758 38.8597 110.518 39.2791C110.279 39.6884 110.159 40.1776 110.159 40.7467C110.159 41.3158 110.279 41.8101 110.518 42.2294C110.758 42.6487 111.082 42.9732 111.492 43.2029C111.901 43.4325 112.365 43.5473 112.884 43.5473C113.314 43.5473 113.713 43.4575 114.083 43.2777C114.462 43.088 114.781 42.7985 115.041 42.4091L116.134 43.098C115.825 43.6472 115.386 44.0715 114.816 44.371C114.257 44.6606 113.618 44.8053 112.899 44.8053Z" fill="white"/>
<path d="M104.662 44.8053C104.003 44.8053 103.374 44.7155 102.775 44.5358C102.186 44.356 101.721 44.1364 101.382 43.8768L101.981 42.7386C102.32 42.9682 102.74 43.1629 103.239 43.3227C103.738 43.4824 104.247 43.5623 104.766 43.5623C105.435 43.5623 105.915 43.4674 106.204 43.2777C106.504 43.088 106.654 42.8235 106.654 42.484C106.654 42.2344 106.564 42.0397 106.384 41.8999C106.204 41.7601 105.965 41.6553 105.665 41.5854C105.376 41.5155 105.051 41.4556 104.692 41.4057C104.332 41.3458 103.973 41.2759 103.613 41.196C103.254 41.1062 102.924 40.9864 102.625 40.8366C102.325 40.6768 102.086 40.4622 101.906 40.1926C101.726 39.9131 101.636 39.5436 101.636 39.0844C101.636 38.6051 101.771 38.1858 102.041 37.8263C102.31 37.4669 102.69 37.1924 103.179 37.0027C103.678 36.803 104.267 36.7031 104.946 36.7031C105.465 36.7031 105.99 36.768 106.519 36.8978C107.058 37.0176 107.497 37.1924 107.837 37.422L107.223 38.5602C106.863 38.3206 106.489 38.1558 106.099 38.066C105.71 37.9761 105.321 37.9312 104.931 37.9312C104.302 37.9312 103.833 38.036 103.523 38.2457C103.214 38.4454 103.059 38.705 103.059 39.0245C103.059 39.294 103.149 39.5037 103.329 39.6535C103.518 39.7932 103.758 39.9031 104.048 39.9829C104.347 40.0628 104.677 40.1327 105.036 40.1926C105.395 40.2425 105.755 40.3124 106.114 40.4023C106.474 40.4822 106.798 40.597 107.088 40.7467C107.387 40.8965 107.627 41.1062 107.807 41.3757C107.996 41.6453 108.091 42.0047 108.091 42.454C108.091 42.9333 107.951 43.3476 107.672 43.6971C107.392 44.0465 106.998 44.3211 106.489 44.5208C105.98 44.7105 105.371 44.8053 104.662 44.8053Z" fill="white"/>
<path d="M148.826 31.8722V25.1328H150.428V31.8722H148.826ZM146.175 29.2513V27.7537H153.079V29.2513H146.175Z" fill="#FFD700"/>
<path d="M138.214 33.8341C137.555 33.8341 136.926 33.7443 136.327 33.5646C135.738 33.3848 135.274 33.1652 134.935 32.9056L135.534 31.7674C135.873 31.997 136.292 32.1917 136.792 32.3515C137.291 32.5112 137.8 32.5911 138.319 32.5911C138.988 32.5911 139.467 32.4962 139.757 32.3065C140.056 32.1168 140.206 31.8523 140.206 31.5128C140.206 31.2632 140.116 31.0685 139.937 30.9287C139.757 30.7889 139.517 30.6841 139.218 30.6142C138.928 30.5443 138.604 30.4844 138.244 30.4345C137.885 30.3746 137.525 30.3047 137.166 30.2248C136.807 30.135 136.477 30.0152 136.178 29.8654C135.878 29.7057 135.638 29.491 135.459 29.2214C135.279 28.9419 135.189 28.5724 135.189 28.1132C135.189 27.6339 135.324 27.2146 135.594 26.8552C135.863 26.4957 136.243 26.2212 136.732 26.0315C137.231 25.8318 137.82 25.7319 138.499 25.7319C139.018 25.7319 139.542 25.7968 140.071 25.9266C140.611 26.0464 141.05 26.2212 141.389 26.4508L140.775 27.589C140.416 27.3494 140.042 27.1846 139.652 27.0948C139.263 27.0049 138.873 26.96 138.484 26.96C137.855 26.96 137.386 27.0648 137.076 27.2745C136.767 27.4742 136.612 27.7338 136.612 28.0533C136.612 28.3228 136.702 28.5325 136.881 28.6823C137.071 28.8221 137.311 28.9319 137.6 29.0118C137.9 29.0916 138.229 29.1615 138.589 29.2214C138.948 29.2713 139.308 29.3412 139.667 29.4311C140.027 29.511 140.351 29.6258 140.641 29.7755C140.94 29.9253 141.18 30.135 141.359 30.4046C141.549 30.6741 141.644 31.0336 141.644 31.4828C141.644 31.9621 141.504 32.3764 141.225 32.7259C140.945 33.0753 140.551 33.3499 140.042 33.5496C139.532 33.7393 138.923 33.8341 138.214 33.8341Z" fill="white"/>
<path d="M130.259 33.7443V25.8068H131.637V27.9634L131.502 27.4243C131.721 26.8751 132.091 26.4558 132.61 26.1662C133.129 25.8767 133.768 25.7319 134.527 25.7319V27.1247C134.467 27.1147 134.407 27.1098 134.347 27.1098C134.297 27.1098 134.247 27.1098 134.198 27.1098C133.429 27.1098 132.82 27.3394 132.37 27.7987C131.921 28.2579 131.697 28.9219 131.697 29.7905V33.7443H130.259Z" fill="white"/>
<path d="M124.601 33.8341C123.803 33.8341 123.094 33.6594 122.475 33.31C121.856 32.9605 121.366 32.4813 121.007 31.8722C120.647 31.2532 120.468 30.5543 120.468 29.7755C120.468 28.9868 120.647 28.2879 121.007 27.6789C121.366 27.0698 121.856 26.5956 122.475 26.2561C123.094 25.9067 123.803 25.7319 124.601 25.7319C125.39 25.7319 126.094 25.9067 126.713 26.2561C127.342 26.5956 127.831 27.0698 128.181 27.6789C128.54 28.2779 128.72 28.9768 128.72 29.7755C128.72 30.5643 128.54 31.2632 128.181 31.8722C127.831 32.4813 127.342 32.9605 126.713 33.31C126.094 33.6594 125.39 33.8341 124.601 33.8341ZM124.601 32.5761C125.11 32.5761 125.565 32.4613 125.964 32.2317C126.373 32.002 126.693 31.6775 126.923 31.2582C127.152 30.8289 127.267 30.3347 127.267 29.7755C127.267 29.2064 127.152 28.7172 126.923 28.3079C126.693 27.8885 126.373 27.564 125.964 27.3344C125.565 27.1048 125.11 26.9899 124.601 26.9899C124.092 26.9899 123.638 27.1048 123.238 27.3344C122.839 27.564 122.52 27.8885 122.28 28.3079C122.04 28.7172 121.92 29.2064 121.92 29.7755C121.92 30.3347 122.04 30.8289 122.28 31.2582C122.52 31.6775 122.839 32.002 123.238 32.2317C123.638 32.4613 124.092 32.5761 124.601 32.5761Z" fill="white"/>
<path d="M115.545 33.8341C114.746 33.8341 114.037 33.6594 113.418 33.31C112.799 32.9605 112.31 32.4813 111.95 31.8722C111.591 31.2532 111.411 30.5543 111.411 29.7755C111.411 28.9868 111.591 28.2879 111.95 27.6789C112.31 27.0698 112.799 26.5956 113.418 26.2561C114.037 25.9067 114.746 25.7319 115.545 25.7319C116.333 25.7319 117.037 25.9067 117.656 26.2561C118.285 26.5956 118.775 27.0698 119.124 27.6789C119.483 28.2779 119.663 28.9768 119.663 29.7755C119.663 30.5643 119.483 31.2632 119.124 31.8722C118.775 32.4813 118.285 32.9605 117.656 33.31C117.037 33.6594 116.333 33.8341 115.545 33.8341ZM115.545 32.5761C116.054 32.5761 116.508 32.4613 116.907 32.2317C117.317 32.002 117.636 31.6775 117.866 31.2582C118.096 30.8289 118.21 30.3347 118.21 29.7755C118.21 29.2064 118.096 28.7172 117.866 28.3079C117.636 27.8885 117.317 27.564 116.907 27.3344C116.508 27.1048 116.054 26.9899 115.545 26.9899C115.035 26.9899 114.581 27.1048 114.182 27.3344C113.782 27.564 113.463 27.8885 113.223 28.3079C112.984 28.7172 112.864 29.2064 112.864 29.7755C112.864 30.3347 112.984 30.8289 113.223 31.2582C113.463 31.6775 113.782 32.002 114.182 32.2317C114.581 32.4613 115.035 32.5761 115.545 32.5761Z" fill="white"/>
<path d="M105.665 33.8337C104.896 33.8337 104.207 33.6639 103.598 33.3245C102.999 32.985 102.525 32.5107 102.176 31.9017C101.826 31.2927 101.651 30.5838 101.651 29.7751C101.651 28.9663 101.826 28.2625 102.176 27.6634C102.525 27.0544 102.999 26.5801 103.598 26.2406C104.207 25.9012 104.896 25.7315 105.665 25.7315C106.334 25.7315 106.938 25.8812 107.477 26.1807C108.016 26.4803 108.446 26.9296 108.765 27.5286C109.095 28.1277 109.259 28.8765 109.259 29.7751C109.259 30.6736 109.1 31.4225 108.78 32.0215C108.471 32.6206 108.046 33.0749 107.507 33.3844C106.968 33.6839 106.354 33.8337 105.665 33.8337ZM105.785 32.5756C106.284 32.5756 106.733 32.4608 107.133 32.2312C107.542 32.0015 107.862 31.6771 108.091 31.2577C108.331 30.8284 108.451 30.3342 108.451 29.7751C108.451 29.206 108.331 28.7167 108.091 28.3074C107.862 27.888 107.542 27.5636 107.133 27.3339C106.733 27.1043 106.284 26.9895 105.785 26.9895C105.276 26.9895 104.821 27.1043 104.422 27.3339C104.023 27.5636 103.703 27.888 103.464 28.3074C103.224 28.7167 103.104 29.206 103.104 29.7751C103.104 30.3342 103.224 30.8284 103.464 31.2577C103.703 31.6771 104.023 32.0015 104.422 32.2312C104.821 32.4608 105.276 32.5756 105.785 32.5756ZM108.496 33.7438V31.6022L108.585 29.7601L108.436 27.918V22.6313H109.873V33.7438H108.496Z" fill="white"/>
<path d="M83.2939 44.5732V41.9729L94.123 28.8727L94.88 30.2881H83.4914V26.9966H98.1715V29.5969L87.3425 42.6971L86.5196 41.2817H98.4678V44.5732H83.2939Z" fill="white"/>
<path fill-rule="evenodd" clip-rule="evenodd" d="M76.2148 26.9983V44.575H80.3292V26.9983H76.2148Z" fill="white"/>
<path d="M78.2885 24.1018C77.5205 24.1018 76.8841 23.8604 76.3794 23.3777C75.8967 22.8949 75.6553 22.3134 75.6553 21.6332C75.6553 20.931 75.8967 20.3495 76.3794 19.8887C76.8841 19.4059 77.5205 19.1646 78.2885 19.1646C79.0565 19.1646 79.6819 19.395 80.1646 19.8558C80.6693 20.2946 80.9217 20.8542 80.9217 21.5344C80.9217 22.2586 80.6803 22.873 80.1975 23.3777C79.7148 23.8604 79.0784 24.1018 78.2885 24.1018Z" fill="#FFD700"/>
<path d="M63.542 44.5739V26.9973H67.4589V31.8358L66.9981 30.4205C67.5247 29.2355 68.3476 28.3358 69.4667 27.7214C70.6078 27.107 72.0231 26.7998 73.7127 26.7998V30.7167C73.5372 30.6728 73.3726 30.6509 73.219 30.6509C73.0654 30.6289 72.9118 30.6179 72.7582 30.6179C71.2002 30.6179 69.9604 31.0788 69.0388 32.0004C68.1172 32.9001 67.6564 34.2496 67.6564 36.0489V44.5739H63.542Z" fill="white"/>
<path d="M51.7067 44.8047C50.2146 44.8047 48.887 44.4756 47.724 43.8173C46.561 43.159 45.6394 42.1715 44.9591 40.8549C44.3008 39.5164 43.9717 37.8267 43.9717 35.786C43.9717 33.7233 44.3118 32.0337 44.9921 30.7171C45.6942 29.4005 46.6268 28.424 47.7898 27.7877C48.9748 27.1294 50.2804 26.8002 51.7067 26.8002C53.4402 26.8002 54.9653 27.1732 56.2819 27.9193C57.6205 28.6654 58.6737 29.7077 59.4418 31.0462C60.2317 32.3848 60.6267 33.9647 60.6267 35.786C60.6267 37.6073 60.2317 39.1872 59.4418 40.5258C58.6737 41.8643 57.6205 42.9176 56.2819 43.6856C54.9653 44.4317 53.4402 44.8047 51.7067 44.8047ZM41.9639 44.5743V20.1514H46.0782V31.0792L45.7491 35.7531L45.8808 40.427V44.5743H41.9639ZM51.2459 41.2828C52.2334 41.2828 53.1111 41.0634 53.8791 40.6245C54.6691 40.1857 55.2945 39.5493 55.7553 38.7155C56.2161 37.8816 56.4465 36.9051 56.4465 35.786C56.4465 34.645 56.2161 33.6685 55.7553 32.8566C55.2945 32.0227 54.6691 31.3864 53.8791 30.9475C53.1111 30.5086 52.2334 30.2892 51.2459 30.2892C50.2585 30.2892 49.3698 30.5086 48.5798 30.9475C47.7898 31.3864 47.1644 32.0227 46.7036 32.8566C46.2428 33.6685 46.0124 34.645 46.0124 35.786C46.0124 36.9051 46.2428 37.8816 46.7036 38.7155C47.1644 39.5493 47.7898 40.1857 48.5798 40.6245C49.3698 41.0634 50.2585 41.2828 51.2459 41.2828Z" fill="white"/>
<path d="M26.3777 12.9492C29.1999 12.3493 31.4878 14.202 31.4878 17.0873V42.9474C31.4878 45.8327 29.1999 48.6579 26.3777 49.2578L17.946 51.05C15.1238 51.6499 12.8359 49.7972 12.8359 46.9119V21.0519C12.8359 18.1666 15.1238 15.3413 17.946 14.7414L26.3777 12.9492ZM27.3997 20.012C27.3997 18.2809 26.027 17.1693 24.3336 17.5292L19.9901 18.4525C18.2967 18.8124 16.924 20.5076 16.924 22.2387V43.9194C16.924 45.6506 18.2968 46.7622 19.9901 46.4023L24.3336 45.479C26.027 45.119 27.3997 43.4239 27.3997 41.6927V20.012Z" fill="white"/>
</svg>
