<svg width="462" height="77" viewBox="0 0 462 77" fill="none" xmlns="http://www.w3.org/2000/svg">
<path d="M260.425 32.126L266.715 18.238H268.679L274.988 32.126H272.905L267.29 19.349H268.084L262.469 32.126H260.425ZM263.104 28.654L263.64 27.0668H271.457L272.032 28.654H263.104ZM277.06 32.126V18.238H282.476C284.275 18.238 285.69 18.6678 286.722 19.5276C287.754 20.3741 288.269 21.5579 288.269 23.0789C288.269 24.0842 288.038 24.9505 287.575 25.678C287.112 26.3922 286.451 26.9411 285.591 27.3247C284.731 27.7083 283.693 27.9001 282.476 27.9001H278.151L279.044 26.9874V32.126H277.06ZM286.345 32.126L282.813 27.0866H284.936L288.507 32.126H286.345ZM279.044 27.1858L278.151 26.2137H282.417C283.686 26.2137 284.645 25.9425 285.293 25.4002C285.955 24.8447 286.285 24.0709 286.285 23.0789C286.285 22.0869 285.955 21.3198 285.293 20.7775C284.645 20.2352 283.686 19.9641 282.417 19.9641H278.151L279.044 18.9721V27.1858ZM297.685 32.2847C296.627 32.2847 295.648 32.1127 294.748 31.7689C293.862 31.4117 293.088 30.9157 292.427 30.2809C291.779 29.6327 291.27 28.8788 290.899 28.0191C290.529 27.1594 290.344 26.2137 290.344 25.182C290.344 24.1503 290.529 23.2046 290.899 22.3449C291.27 21.4851 291.786 20.7378 292.447 20.1029C293.108 19.4548 293.882 18.9588 294.768 18.6149C295.668 18.2578 296.646 18.0793 297.705 18.0793C298.776 18.0793 299.761 18.2644 300.661 18.6348C301.573 18.9919 302.347 19.5276 302.982 20.2418L301.692 21.4917C301.163 20.9362 300.568 20.5262 299.907 20.2617C299.245 19.9839 298.538 19.845 297.784 19.845C297.004 19.845 296.276 19.9773 295.601 20.2418C294.94 20.5063 294.365 20.8767 293.875 21.3529C293.386 21.829 293.002 22.3978 292.725 23.0591C292.46 23.7072 292.328 24.4148 292.328 25.182C292.328 25.9491 292.46 26.6634 292.725 27.3247C293.002 27.9728 293.386 28.5349 293.875 29.0111C294.365 29.4873 294.94 29.8576 295.601 30.1221C296.276 30.3867 297.004 30.5189 297.784 30.5189C298.538 30.5189 299.245 30.3867 299.907 30.1221C300.568 29.8444 301.163 29.4211 301.692 28.8524L302.982 30.1023C302.347 30.8165 301.573 31.3588 300.661 31.7292C299.761 32.0995 298.769 32.2847 297.685 32.2847ZM315.578 32.126V18.238H317.562V32.126H315.578ZM305.619 32.126V18.238H307.603V32.126H305.619ZM307.404 25.9359V24.2098H315.757V25.9359H307.404ZM321.719 32.126V18.238H323.703V32.126H321.719ZM330.619 32.126V19.9641H325.857V18.238H337.345V19.9641H332.583V32.126H330.619ZM339.505 32.126V18.238H349.306V19.9641H341.489V30.3999H349.584V32.126H339.505ZM341.311 25.9161V24.2297H348.453V25.9161H341.311ZM358.987 32.2847C357.929 32.2847 356.95 32.1127 356.051 31.7689C355.165 31.4117 354.391 30.9157 353.73 30.2809C353.081 29.6327 352.572 28.8788 352.202 28.0191C351.832 27.1594 351.646 26.2137 351.646 25.182C351.646 24.1503 351.832 23.2046 352.202 22.3449C352.572 21.4851 353.088 20.7378 353.749 20.1029C354.411 19.4548 355.185 18.9588 356.071 18.6149C356.97 18.2578 357.949 18.0793 359.007 18.0793C360.078 18.0793 361.064 18.2644 361.963 18.6348C362.876 18.9919 363.65 19.5276 364.284 20.2418L362.995 21.4917C362.466 20.9362 361.871 20.5262 361.209 20.2617C360.548 19.9839 359.84 19.845 359.086 19.845C358.306 19.845 357.579 19.9773 356.904 20.2418C356.243 20.5063 355.667 20.8767 355.178 21.3529C354.689 21.829 354.305 22.3978 354.027 23.0591C353.763 23.7072 353.63 24.4148 353.63 25.182C353.63 25.9491 353.763 26.6634 354.027 27.3247C354.305 27.9728 354.689 28.5349 355.178 29.0111C355.667 29.4873 356.243 29.8576 356.904 30.1221C357.579 30.3867 358.306 30.5189 359.086 30.5189C359.84 30.5189 360.548 30.3867 361.209 30.1221C361.871 29.8444 362.466 29.4211 362.995 28.8524L364.284 30.1023C363.65 30.8165 362.876 31.3588 361.963 31.7292C361.064 32.0995 360.072 32.2847 358.987 32.2847ZM369.349 32.126V19.9641H364.588V18.238H376.075V19.9641H371.314V32.126H369.349ZM383.738 32.2847C381.912 32.2847 380.477 31.7622 379.432 30.7173C378.388 29.6724 377.865 28.1447 377.865 26.1343V18.238H379.849V26.0549C379.849 27.6025 380.186 28.7333 380.861 29.4476C381.549 30.1618 382.514 30.5189 383.758 30.5189C385.014 30.5189 385.98 30.1618 386.654 29.4476C387.342 28.7333 387.686 27.6025 387.686 26.0549V18.238H389.61V26.1343C389.61 28.1447 389.088 29.6724 388.043 30.7173C387.011 31.7622 385.576 32.2847 383.738 32.2847ZM393.678 32.126V18.238H399.094C400.893 18.238 402.308 18.6678 403.34 19.5276C404.372 20.3741 404.887 21.5579 404.887 23.0789C404.887 24.0842 404.656 24.9505 404.193 25.678C403.73 26.3922 403.069 26.9411 402.209 27.3247C401.349 27.7083 400.311 27.9001 399.094 27.9001H394.769L395.662 26.9874V32.126H393.678ZM402.963 32.126L399.431 27.0866H401.554L405.126 32.126H402.963ZM395.662 27.1858L394.769 26.2137H399.035C400.304 26.2137 401.263 25.9425 401.911 25.4002C402.573 24.8447 402.903 24.0709 402.903 23.0789C402.903 22.0869 402.573 21.3198 401.911 20.7775C401.263 20.2352 400.304 19.9641 399.035 19.9641H394.769L395.662 18.9721V27.1858ZM405.99 32.126L412.279 18.238H414.243L420.552 32.126H418.469L412.854 19.349H413.648L408.033 32.126H405.99ZM408.668 28.654L409.204 27.0668H417.021L417.596 28.654H408.668ZM422.624 32.126V18.238H424.608V30.3999H432.128V32.126H422.624ZM262.529 59.126V45.238H268.758C270.359 45.238 271.589 45.562 272.449 46.2101C273.308 46.845 273.738 47.718 273.738 48.829C273.738 49.5829 273.566 50.2178 273.222 50.7337C272.892 51.2495 272.442 51.6463 271.873 51.9241C271.304 52.2018 270.689 52.3407 270.028 52.3407L270.385 51.7455C271.179 51.7455 271.88 51.8844 272.488 52.1621C273.097 52.4399 273.579 52.8499 273.937 53.3922C274.294 53.9213 274.472 54.5826 274.472 55.3762C274.472 56.5666 274.022 57.4925 273.123 58.1538C272.237 58.8019 270.914 59.126 269.155 59.126H262.529ZM264.513 57.5189H269.076C270.174 57.5189 271.013 57.3338 271.595 56.9634C272.177 56.5931 272.468 56.0111 272.468 55.2175C272.468 54.4107 272.177 53.8221 271.595 53.4517C271.013 53.0814 270.174 52.8962 269.076 52.8962H264.334V51.2892H268.58C269.585 51.2892 270.365 51.104 270.921 50.7337C271.476 50.3633 271.754 49.8078 271.754 49.0671C271.754 48.3264 271.476 47.7709 270.921 47.4005C270.365 47.0302 269.585 46.845 268.58 46.845H264.513V57.5189ZM283.298 59.2847C281.472 59.2847 280.037 58.7622 278.992 57.7173C277.948 56.6724 277.425 55.1447 277.425 53.1343V45.238H279.409V53.0549C279.409 54.6025 279.746 55.7333 280.421 56.4476C281.109 57.1618 282.074 57.5189 283.318 57.5189C284.574 57.5189 285.54 57.1618 286.214 56.4476C286.902 55.7333 287.246 54.6025 287.246 53.0549V45.238H289.17V53.1343C289.17 55.1447 288.648 56.6724 287.603 57.7173C286.571 58.7622 285.136 59.2847 283.298 59.2847ZM293.238 59.126V45.238H295.222V59.126H293.238ZM299.38 59.126V45.238H301.364V57.3999H308.883V59.126H299.38ZM311.16 59.126V45.238H317.013C318.494 45.238 319.797 45.529 320.921 46.1109C322.059 46.6929 322.938 47.5063 323.56 48.5513C324.195 49.5962 324.512 50.8064 324.512 52.182C324.512 53.5575 324.195 54.7678 323.56 55.8127C322.938 56.8576 322.059 57.671 320.921 58.253C319.797 58.835 318.494 59.126 317.013 59.126H311.16ZM313.144 57.3999H316.894C318.044 57.3999 319.036 57.1817 319.87 56.7452C320.716 56.3087 321.371 55.7003 321.834 54.9199C322.297 54.1263 322.528 53.2137 322.528 52.182C322.528 51.1371 322.297 50.2244 321.834 49.4441C321.371 48.6637 320.716 48.0553 319.87 47.6188C319.036 47.1823 318.044 46.9641 316.894 46.9641H313.144V57.3999ZM327.551 59.126V45.238H329.535V59.126H327.551ZM333.693 59.126V45.238H335.32L344.506 56.646H343.653V45.238H345.637V59.126H344.01L334.824 47.718H335.677V59.126H333.693ZM356.063 59.2847C354.992 59.2847 354.006 59.1127 353.107 58.7689C352.207 58.4117 351.427 57.9157 350.766 57.2809C350.104 56.6327 349.588 55.8788 349.218 55.0191C348.848 54.1594 348.663 53.2137 348.663 52.182C348.663 51.1503 348.848 50.2046 349.218 49.3449C349.588 48.4851 350.104 47.7378 350.766 47.1029C351.44 46.4548 352.227 45.9588 353.127 45.6149C354.026 45.2578 355.018 45.0793 356.103 45.0793C357.2 45.0793 358.206 45.2578 359.118 45.6149C360.031 45.9721 360.805 46.5077 361.44 47.222L360.21 48.4521C359.641 47.8965 359.019 47.4931 358.345 47.2418C357.683 46.9773 356.962 46.845 356.182 46.845C355.388 46.845 354.648 46.9773 353.96 47.2418C353.285 47.5063 352.697 47.8767 352.194 48.3529C351.705 48.829 351.321 49.3978 351.043 50.0591C350.779 50.7072 350.647 51.4148 350.647 52.182C350.647 52.9359 350.779 53.6435 351.043 54.3049C351.321 54.953 351.705 55.5217 352.194 56.0111C352.697 56.4873 353.285 56.8576 353.96 57.1221C354.634 57.3867 355.369 57.5189 356.162 57.5189C356.903 57.5189 357.61 57.4065 358.285 57.1817C358.973 56.9436 359.608 56.5534 360.19 56.0111L361.321 57.5189C360.633 58.1009 359.826 58.544 358.9 58.8482C357.987 59.1392 357.042 59.2847 356.063 59.2847ZM361.321 57.5189L359.416 57.261V52.1026H361.321V57.5189ZM374.495 59.2847C373.436 59.2847 372.425 59.126 371.459 58.8085C370.494 58.4779 369.733 58.0546 369.178 57.5388L369.912 55.9913C370.441 56.4542 371.115 56.8378 371.935 57.142C372.755 57.4462 373.608 57.5983 374.495 57.5983C375.301 57.5983 375.956 57.5057 376.459 57.3205C376.961 57.1354 377.332 56.8841 377.57 56.5666C377.808 56.2359 377.927 55.8656 377.927 55.4556C377.927 54.9794 377.768 54.5958 377.451 54.3049C377.147 54.0139 376.743 53.7824 376.241 53.6105C375.751 53.4253 375.209 53.2666 374.614 53.1343C374.018 53.002 373.417 52.8499 372.808 52.678C372.213 52.4928 371.664 52.2613 371.162 51.9836C370.672 51.7058 370.275 51.3355 369.971 50.8725C369.667 50.3964 369.515 49.7879 369.515 49.0473C369.515 48.333 369.7 47.6783 370.07 47.0831C370.454 46.4747 371.036 45.9919 371.816 45.6348C372.61 45.2644 373.615 45.0793 374.832 45.0793C375.639 45.0793 376.439 45.1851 377.233 45.3967C378.026 45.6083 378.714 45.9125 379.296 46.3093L378.641 47.8965C378.046 47.4997 377.418 47.2154 376.756 47.0434C376.095 46.8582 375.454 46.7657 374.832 46.7657C374.052 46.7657 373.41 46.8649 372.907 47.0633C372.405 47.2617 372.034 47.5262 371.796 47.8569C371.572 48.1875 371.459 48.5579 371.459 48.9679C371.459 49.4573 371.611 49.8475 371.915 50.1385C372.233 50.4294 372.636 50.6609 373.126 50.8329C373.628 51.0048 374.177 51.1635 374.772 51.309C375.368 51.4413 375.963 51.5934 376.558 51.7653C377.166 51.9373 377.715 52.1621 378.205 52.4399C378.707 52.7177 379.111 53.088 379.415 53.5509C379.719 54.0139 379.871 54.6091 379.871 55.3365C379.871 56.0375 379.679 56.6923 379.296 57.3007C378.912 57.8959 378.317 58.3787 377.51 58.749C376.717 59.1061 375.711 59.2847 374.495 59.2847ZM385.832 59.126V53.8089L386.288 55.0389L380.317 45.238H382.439L387.459 53.5113H386.308L391.348 45.238H393.312L387.36 55.0389L387.796 53.8089V59.126H385.832ZM399.082 59.2847C398.023 59.2847 397.012 59.126 396.046 58.8085C395.08 58.4779 394.32 58.0546 393.764 57.5388L394.498 55.9913C395.028 56.4542 395.702 56.8378 396.522 57.142C397.342 57.4462 398.195 57.5983 399.082 57.5983C399.888 57.5983 400.543 57.5057 401.046 57.3205C401.548 57.1354 401.919 56.8841 402.157 56.5666C402.395 56.2359 402.514 55.8656 402.514 55.4556C402.514 54.9794 402.355 54.5958 402.038 54.3049C401.733 54.0139 401.33 53.7824 400.827 53.6105C400.338 53.4253 399.796 53.2666 399.201 53.1343C398.605 53.002 398.004 52.8499 397.395 52.678C396.8 52.4928 396.251 52.2613 395.748 51.9836C395.259 51.7058 394.862 51.3355 394.558 50.8725C394.254 50.3964 394.102 49.7879 394.102 49.0473C394.102 48.333 394.287 47.6783 394.657 47.0831C395.041 46.4747 395.623 45.9919 396.403 45.6348C397.197 45.2644 398.202 45.0793 399.419 45.0793C400.226 45.0793 401.026 45.1851 401.819 45.3967C402.613 45.6083 403.301 45.9125 403.883 46.3093L403.228 47.8965C402.633 47.4997 402.005 47.2154 401.343 47.0434C400.682 46.8582 400.04 46.7657 399.419 46.7657C398.638 46.7657 397.997 46.8649 397.494 47.0633C396.992 47.2617 396.621 47.5262 396.383 47.8569C396.158 48.1875 396.046 48.5579 396.046 48.9679C396.046 49.4573 396.198 49.8475 396.502 50.1385C396.82 50.4294 397.223 50.6609 397.713 50.8329C398.215 51.0048 398.764 51.1635 399.359 51.309C399.954 51.4413 400.55 51.5934 401.145 51.7653C401.753 51.9373 402.302 52.1621 402.792 52.4399C403.294 52.7177 403.698 53.088 404.002 53.5509C404.306 54.0139 404.458 54.6091 404.458 55.3365C404.458 56.0375 404.266 56.6923 403.883 57.3007C403.499 57.8959 402.904 58.3787 402.097 58.749C401.304 59.1061 400.298 59.2847 399.082 59.2847ZM409.921 59.126V46.9641H405.159V45.238H416.646V46.9641H411.885V59.126H409.921ZM418.807 59.126V45.238H428.608V46.9641H420.791V57.3999H428.886V59.126H418.807ZM420.613 52.9161V51.2297H427.755V52.9161H420.613ZM432.099 59.126V45.238H433.725L439.955 55.7333H439.082L445.233 45.238H446.859L446.879 59.126H444.975L444.955 48.2338H445.411L439.935 57.4396H439.023L433.507 48.2338H434.003V59.126H432.099ZM455.095 59.2847C454.036 59.2847 453.025 59.126 452.059 58.8085C451.094 58.4779 450.333 58.0546 449.778 57.5388L450.512 55.9913C451.041 56.4542 451.715 56.8378 452.535 57.142C453.355 57.4462 454.208 57.5983 455.095 57.5983C455.901 57.5983 456.556 57.5057 457.059 57.3205C457.561 57.1354 457.932 56.8841 458.17 56.5666C458.408 56.2359 458.527 55.8656 458.527 55.4556C458.527 54.9794 458.368 54.5958 458.051 54.3049C457.747 54.0139 457.343 53.7824 456.841 53.6105C456.351 53.4253 455.809 53.2666 455.214 53.1343C454.618 53.002 454.017 52.8499 453.408 52.678C452.813 52.4928 452.264 52.2613 451.762 51.9836C451.272 51.7058 450.875 51.3355 450.571 50.8725C450.267 50.3964 450.115 49.7879 450.115 49.0473C450.115 48.333 450.3 47.6783 450.67 47.0831C451.054 46.4747 451.636 45.9919 452.416 45.6348C453.21 45.2644 454.215 45.0793 455.432 45.0793C456.239 45.0793 457.039 45.1851 457.833 45.3967C458.626 45.6083 459.314 45.9125 459.896 46.3093L459.241 47.8965C458.646 47.4997 458.018 47.2154 457.356 47.0434C456.695 46.8582 456.054 46.7657 455.432 46.7657C454.652 46.7657 454.01 46.8649 453.507 47.0633C453.005 47.2617 452.634 47.5262 452.396 47.8569C452.172 48.1875 452.059 48.5579 452.059 48.9679C452.059 49.4573 452.211 49.8475 452.515 50.1385C452.833 50.4294 453.236 50.6609 453.726 50.8329C454.228 51.0048 454.777 51.1635 455.372 51.309C455.968 51.4413 456.563 51.5934 457.158 51.7653C457.766 51.9373 458.315 52.1621 458.805 52.4399C459.307 52.7177 459.711 53.088 460.015 53.5509C460.319 54.0139 460.471 54.6091 460.471 55.3365C460.471 56.0375 460.279 56.6923 459.896 57.3007C459.512 57.8959 458.917 58.3787 458.11 58.749C457.317 59.1061 456.311 59.2847 455.095 59.2847Z" fill="#AAAAAA"/>
<line x1="238.344" y1="76.6555" x2="238.131" y2="0.00304559" stroke="#1DD45A" stroke-width="2.304"/>
<path d="M210.259 64.5006C206.316 64.5006 203.27 63.4926 201.12 61.4766C198.969 59.4158 197.894 56.3918 197.894 52.4046V20.2158H206.294V52.203C206.294 53.9054 206.72 55.227 207.571 56.1678C208.467 57.1086 209.699 57.579 211.267 57.579C213.148 57.579 214.716 57.0862 215.971 56.1006L218.323 62.0814C217.337 62.8878 216.128 63.4926 214.694 63.8958C213.26 64.299 211.782 64.5006 210.259 64.5006ZM191.98 34.8654V28.1454H215.904V34.8654H191.98Z" fill="white"/>
<path fill-rule="evenodd" clip-rule="evenodd" d="M179.346 28.145V64.0298H187.746V28.145H179.346Z" fill="white"/>
<path d="M183.579 22.2314C182.011 22.2314 180.712 21.7386 179.682 20.753C178.696 19.7674 178.203 18.5802 178.203 17.1914C178.203 15.7578 178.696 14.5706 179.682 13.6298C180.712 12.6442 182.011 12.1514 183.579 12.1514C185.147 12.1514 186.424 12.6218 187.41 13.5626C188.44 14.4586 188.955 15.601 188.955 16.9898C188.955 18.4682 188.462 19.7226 187.477 20.753C186.491 21.7386 185.192 22.2314 183.579 22.2314Z" fill="#1DD45A"/>
<path d="M142.637 64.0303V58.7215L164.746 31.9759L166.291 34.8655H143.04V28.1455H173.011V33.4543L150.902 60.1999L149.222 57.3103H173.616V64.0303H142.637Z" fill="white"/>
<path fill-rule="evenodd" clip-rule="evenodd" d="M128.185 28.145V64.0298H136.585V28.145H128.185Z" fill="white"/>
<path d="M132.419 22.2314C130.851 22.2314 129.552 21.7386 128.521 20.753C127.536 19.7674 127.043 18.5802 127.043 17.1914C127.043 15.7578 127.536 14.5706 128.521 13.6298C129.552 12.6442 130.851 12.1514 132.419 12.1514C133.987 12.1514 135.264 12.6218 136.249 13.5626C137.28 14.4586 137.795 15.601 137.795 16.9898C137.795 18.4682 137.302 19.7226 136.317 20.753C135.331 21.7386 134.032 22.2314 132.419 22.2314Z" fill="#1DD45A"/>
<path d="M102.309 64.0302V28.1454H110.305V38.0238L109.365 35.1342C110.44 32.715 112.12 30.8782 114.405 29.6238C116.734 28.3694 119.624 27.7422 123.073 27.7422V35.739C122.715 35.6494 122.379 35.6046 122.065 35.6046C121.752 35.5598 121.438 35.5374 121.125 35.5374C117.944 35.5374 115.413 36.4782 113.531 38.3598C111.649 40.1966 110.709 42.9518 110.709 46.6254V64.0302H102.309Z" fill="white"/>
<path d="M78.149 64.5008C75.1026 64.5008 72.3922 63.8288 70.0178 62.4848C67.6434 61.1408 65.7618 59.1248 64.373 56.4368C63.029 53.704 62.357 50.2544 62.357 46.088C62.357 41.8768 63.0514 38.4272 64.4402 35.7392C65.8738 33.0512 67.7778 31.0576 70.1522 29.7584C72.5714 28.4144 75.237 27.7424 78.149 27.7424C81.6882 27.7424 84.8018 28.504 87.4898 30.0272C90.2226 31.5504 92.373 33.6784 93.941 36.4112C95.5538 39.144 96.3602 42.3696 96.3602 46.088C96.3602 49.8064 95.5538 53.032 93.941 55.7648C92.373 58.4976 90.2226 60.648 87.4898 62.216C84.8018 63.7392 81.6882 64.5008 78.149 64.5008ZM58.2578 64.0304V14.168H66.6578V36.4784L65.9858 46.0208L66.2546 55.5632V64.0304H58.2578ZM77.2082 57.3104C79.2242 57.3104 81.0162 56.8624 82.5842 55.9664C84.197 55.0704 85.4738 53.7712 86.4146 52.0688C87.3554 50.3664 87.8258 48.3728 87.8258 46.088C87.8258 43.7584 87.3554 41.7648 86.4146 40.1072C85.4738 38.4048 84.197 37.1056 82.5842 36.2096C81.0162 35.3136 79.2242 34.8656 77.2082 34.8656C75.1922 34.8656 73.3778 35.3136 71.765 36.2096C70.1522 37.1056 68.8754 38.4048 67.9346 40.1072C66.9938 41.7648 66.5234 43.7584 66.5234 46.088C66.5234 48.3728 66.9938 50.3664 67.9346 52.0688C68.8754 53.7712 70.1522 55.0704 71.765 55.9664C73.3778 56.8624 75.1922 57.3104 77.2082 57.3104Z" fill="white"/>
<path d="M27.0835 0.225583C32.728 -0.974183 37.3037 2.73119 37.3037 8.50175V60.2219C37.3037 65.9925 32.7279 71.643 27.0835 72.8428L10.2202 76.4272C4.57576 77.627 6.78371e-06 73.9216 0 68.151V16.4309C0 10.6603 4.57576 5.00976 10.2202 3.80999L27.0835 0.225583ZM29.1275 14.3512C29.1275 10.8889 26.3821 8.66565 22.9954 9.38551L14.3083 11.2321C10.9216 11.952 8.17617 15.3423 8.17617 18.8046V62.166C8.17618 65.6283 10.9216 67.8515 14.3083 67.1317L22.9954 65.2851C26.3821 64.5652 29.1275 61.1749 29.1275 57.7126V14.3512Z" fill="#1DD45A"/>
</svg>
