<svg width="923" height="154" viewBox="0 0 923 154" fill="none" xmlns="http://www.w3.org/2000/svg">
<path d="M520.851 63.252L533.43 35.476H537.358L549.976 63.252H545.81L534.58 37.698H536.167L524.938 63.252H520.851ZM526.208 56.308L527.279 53.1336H542.913L544.064 56.308H526.208ZM554.12 63.252V35.476H564.952C568.55 35.476 571.38 36.3357 573.444 38.0552C575.507 39.7482 576.539 42.1157 576.539 45.1579C576.539 47.1683 576.076 48.901 575.15 50.356C574.224 51.7844 572.901 52.8822 571.182 53.6494C569.462 54.4165 567.386 54.8001 564.952 54.8001H556.302L558.088 52.9748V63.252H554.12ZM572.69 63.252L565.627 53.1732H569.872L577.015 63.252H572.69ZM558.088 53.3716L556.302 51.4273H564.833C567.373 51.4273 569.291 50.885 570.587 49.8004C571.909 48.6894 572.571 47.1419 572.571 45.1579C572.571 43.1739 571.909 41.6396 570.587 40.555C569.291 39.4704 567.373 38.9281 564.833 38.9281H556.302L558.088 36.9441V53.3716ZM595.369 63.5694C593.253 63.5694 591.296 63.2255 589.497 62.5377C587.724 61.8235 586.177 60.8315 584.854 59.5617C583.558 58.2655 582.54 56.7577 581.799 55.0382C581.058 53.3187 580.688 51.4273 580.688 49.364C580.688 47.3006 581.058 45.4092 581.799 43.6897C582.54 41.9702 583.571 40.4756 584.894 39.2059C586.217 37.9097 587.764 36.9177 589.536 36.2299C591.335 35.5156 593.293 35.1585 595.409 35.1585C597.552 35.1585 599.523 35.5289 601.321 36.2696C603.147 36.9838 604.694 38.0552 605.964 39.4836L603.385 41.9835C602.327 40.8724 601.136 40.0524 599.814 39.5233C598.491 38.9678 597.076 38.69 595.568 38.69C594.007 38.69 592.552 38.9546 591.203 39.4836C589.88 40.0127 588.73 40.7534 587.751 41.7057C586.772 42.658 586.005 43.7955 585.449 45.1182C584.92 46.4144 584.656 47.8297 584.656 49.364C584.656 50.8982 584.92 52.3267 585.449 53.6494C586.005 54.9456 586.772 56.0699 587.751 57.0222C588.73 57.9745 589.88 58.7152 591.203 59.2443C592.552 59.7733 594.007 60.0379 595.568 60.0379C597.076 60.0379 598.491 59.7733 599.814 59.2443C601.136 58.6888 602.327 57.8422 603.385 56.7048L605.964 59.2046C604.694 60.6331 603.147 61.7177 601.321 62.4584C599.523 63.199 597.539 63.5694 595.369 63.5694ZM631.156 63.252V35.476H635.124V63.252H631.156ZM611.237 63.252V35.476H615.205V63.252H611.237ZM614.808 50.8718V47.4196H631.514V50.8718H614.808ZM643.438 63.252V35.476H647.406V63.252H643.438ZM661.238 63.252V38.9281H651.714V35.476H674.689V38.9281H665.166V63.252H661.238ZM679.011 63.252V35.476H698.613V38.9281H682.979V59.7998H699.168V63.252H679.011ZM682.622 50.8321V47.4593H696.906V50.8321H682.622ZM717.974 63.5694C715.858 63.5694 713.901 63.2255 712.102 62.5377C710.329 61.8235 708.782 60.8315 707.459 59.5617C706.163 58.2655 705.144 56.7577 704.404 55.0382C703.663 53.3187 703.293 51.4273 703.293 49.364C703.293 47.3006 703.663 45.4092 704.404 43.6897C705.144 41.9702 706.176 40.4756 707.499 39.2059C708.822 37.9097 710.369 36.9177 712.141 36.2299C713.94 35.5156 715.898 35.1585 718.014 35.1585C720.157 35.1585 722.128 35.5289 723.926 36.2696C725.752 36.9838 727.299 38.0552 728.569 39.4836L725.99 41.9835C724.932 40.8724 723.741 40.0524 722.419 39.5233C721.096 38.9678 719.681 38.69 718.173 38.69C716.612 38.69 715.157 38.9546 713.808 39.4836C712.485 40.0127 711.335 40.7534 710.356 41.7057C709.377 42.658 708.61 43.7955 708.054 45.1182C707.525 46.4144 707.261 47.8297 707.261 49.364C707.261 50.8982 707.525 52.3267 708.054 53.6494C708.61 54.9456 709.377 56.0699 710.356 57.0222C711.335 57.9745 712.485 58.7152 713.808 59.2443C715.157 59.7733 716.612 60.0379 718.173 60.0379C719.681 60.0379 721.096 59.7733 722.419 59.2443C723.741 58.6888 724.932 57.8422 725.99 56.7048L728.569 59.2046C727.299 60.6331 725.752 61.7177 723.926 62.4584C722.128 63.199 720.144 63.5694 717.974 63.5694ZM738.699 63.252V38.9281H729.176V35.476H752.15V38.9281H742.627V63.252H738.699ZM767.475 63.5694C763.825 63.5694 760.955 62.5245 758.865 60.4347C756.775 58.3449 755.73 55.2895 755.73 51.2686V35.476H759.698V51.1099C759.698 54.2049 760.373 56.4667 761.722 57.8952C763.097 59.3236 765.029 60.0379 767.515 60.0379C770.028 60.0379 771.959 59.3236 773.308 57.8952C774.684 56.4667 775.372 54.2049 775.372 51.1099V35.476H779.221V51.2686C779.221 55.2895 778.176 58.3449 776.086 60.4347C774.023 62.5245 771.152 63.5694 767.475 63.5694ZM787.356 63.252V35.476H798.188C801.786 35.476 804.617 36.3357 806.68 38.0552C808.743 39.7482 809.775 42.1157 809.775 45.1579C809.775 47.1683 809.312 48.901 808.386 50.356C807.46 51.7844 806.138 52.8822 804.418 53.6494C802.699 54.4165 800.622 54.8001 798.188 54.8001H789.538L791.324 52.9748V63.252H787.356ZM805.926 63.252L798.863 53.1732H803.109L810.251 63.252H805.926ZM791.324 53.3716L789.538 51.4273H798.069C800.609 51.4273 802.527 50.885 803.823 49.8004C805.146 48.6894 805.807 47.1419 805.807 45.1579C805.807 43.1739 805.146 41.6396 803.823 40.555C802.527 39.4704 800.609 38.9281 798.069 38.9281H789.538L791.324 36.9441V53.3716ZM811.98 63.252L824.558 35.476H828.487L841.105 63.252H836.938L825.709 37.698H827.296L816.067 63.252H811.98ZM817.336 56.308L818.408 53.1336H834.042L835.193 56.308H817.336ZM845.248 63.252V35.476H849.216V59.7998H864.255V63.252H845.248ZM525.057 118.252V90.476H537.517C540.717 90.476 543.178 91.1241 544.897 92.4203C546.616 93.69 547.476 95.436 547.476 97.658C547.476 99.1659 547.132 100.436 546.445 101.467C545.783 102.499 544.884 103.293 543.746 103.848C542.609 104.404 541.379 104.681 540.056 104.681L540.77 103.491C542.358 103.491 543.76 103.769 544.976 104.324C546.193 104.88 547.159 105.7 547.873 106.784C548.587 107.843 548.944 109.165 548.944 110.752C548.944 113.133 548.045 114.985 546.246 116.308C544.474 117.604 541.828 118.252 538.31 118.252H525.057ZM529.025 115.038H538.151C540.347 115.038 542.027 114.668 543.191 113.927C544.355 113.186 544.937 112.022 544.937 110.435C544.937 108.821 544.355 107.644 543.191 106.903C542.027 106.163 540.347 105.792 538.151 105.792H528.668V102.578H537.159C539.17 102.578 540.731 102.208 541.842 101.467C542.953 100.727 543.508 99.6156 543.508 98.1342C543.508 96.6528 542.953 95.5418 541.842 94.8011C540.731 94.0604 539.17 93.69 537.159 93.69H529.025V115.038ZM566.595 118.569C562.945 118.569 560.075 117.524 557.985 115.435C555.895 113.345 554.85 110.289 554.85 106.269V90.476H558.818V106.11C558.818 109.205 559.493 111.467 560.842 112.895C562.217 114.324 564.149 115.038 566.635 115.038C569.148 115.038 571.079 114.324 572.428 112.895C573.804 111.467 574.492 109.205 574.492 106.11V90.476H578.341V106.269C578.341 110.289 577.296 113.345 575.206 115.435C573.143 117.524 570.272 118.569 566.595 118.569ZM586.476 118.252V90.476H590.444V118.252H586.476ZM598.76 118.252V90.476H602.728V114.8H617.766V118.252H598.76ZM622.32 118.252V90.476H634.025C636.988 90.476 639.594 91.0579 641.842 92.2219C644.117 93.3858 645.876 95.0127 647.12 97.1025C648.389 99.1923 649.024 101.613 649.024 104.364C649.024 107.115 648.389 109.536 647.12 111.625C645.876 113.715 644.117 115.342 641.842 116.506C639.594 117.67 636.988 118.252 634.025 118.252H622.32ZM626.288 114.8H633.787C636.088 114.8 638.072 114.363 639.739 113.49C641.432 112.617 642.741 111.401 643.667 109.84C644.593 108.253 645.056 106.427 645.056 104.364C645.056 102.274 644.593 100.449 643.667 98.8881C642.741 97.3274 641.432 96.1105 639.739 95.2376C638.072 94.3646 636.088 93.9281 633.787 93.9281H626.288V114.8ZM655.102 118.252V90.476H659.07V118.252H655.102ZM667.386 118.252V90.476H670.64L689.011 113.292H687.305V90.476H691.273V118.252H688.019L669.648 95.436H671.354V118.252H667.386ZM712.126 118.569C709.983 118.569 708.012 118.225 706.214 117.538C704.415 116.823 702.854 115.831 701.531 114.562C700.209 113.265 699.177 111.758 698.436 110.038C697.696 108.319 697.325 106.427 697.325 104.364C697.325 102.301 697.696 100.409 698.436 98.6897C699.177 96.9702 700.209 95.4756 701.531 94.2059C702.88 92.9097 704.454 91.9177 706.253 91.2299C708.052 90.5156 710.036 90.1585 712.205 90.1585C714.401 90.1585 716.411 90.5156 718.237 91.2299C720.062 91.9441 721.609 93.0155 722.879 94.444L720.419 96.9041C719.282 95.7931 718.038 94.9862 716.689 94.4836C715.366 93.9546 713.925 93.69 712.364 93.69C710.777 93.69 709.295 93.9546 707.92 94.4836C706.571 95.0127 705.394 95.7534 704.388 96.7057C703.41 97.658 702.642 98.7955 702.087 100.118C701.558 101.414 701.293 102.83 701.293 104.364C701.293 105.872 701.558 107.287 702.087 108.61C702.642 109.906 703.41 111.043 704.388 112.022C705.394 112.975 706.571 113.715 707.92 114.244C709.269 114.773 710.737 115.038 712.324 115.038C713.806 115.038 715.221 114.813 716.57 114.363C717.946 113.887 719.215 113.107 720.379 112.022L722.641 115.038C721.266 116.202 719.652 117.088 717.8 117.696C715.975 118.278 714.083 118.569 712.126 118.569ZM722.641 115.038L718.832 114.522V104.205H722.641V115.038ZM748.989 118.569C746.873 118.569 744.849 118.252 742.918 117.617C740.987 116.956 739.466 116.109 738.355 115.078L739.823 111.983C740.881 112.908 742.23 113.676 743.871 114.284C745.511 114.892 747.217 115.197 748.989 115.197C750.603 115.197 751.912 115.011 752.918 114.641C753.923 114.271 754.663 113.768 755.14 113.133C755.616 112.472 755.854 111.731 755.854 110.911C755.854 109.959 755.536 109.192 754.902 108.61C754.293 108.028 753.486 107.565 752.481 107.221C751.502 106.851 750.418 106.533 749.227 106.269C748.037 106.004 746.833 105.7 745.616 105.356C744.426 104.986 743.328 104.523 742.323 103.967C741.344 103.412 740.551 102.671 739.942 101.745C739.334 100.793 739.03 99.5759 739.03 98.0945C739.03 96.666 739.4 95.3566 740.141 94.1662C740.908 92.9493 742.072 91.9838 743.632 91.2696C745.22 90.5289 747.23 90.1585 749.664 90.1585C751.277 90.1585 752.878 90.3701 754.465 90.7934C756.052 91.2166 757.428 91.8251 758.592 92.6187L757.282 95.7931C756.092 94.9995 754.835 94.4307 753.513 94.0868C752.19 93.7165 750.907 93.5313 749.664 93.5313C748.103 93.5313 746.82 93.7297 745.815 94.1265C744.81 94.5233 744.069 95.0524 743.593 95.7137C743.143 96.375 742.918 97.1157 742.918 97.9358C742.918 98.9146 743.222 99.6949 743.831 100.277C744.466 100.859 745.273 101.322 746.251 101.666C747.257 102.01 748.354 102.327 749.545 102.618C750.735 102.883 751.926 103.187 753.116 103.531C754.333 103.875 755.431 104.324 756.409 104.88C757.415 105.435 758.221 106.176 758.83 107.102C759.438 108.028 759.743 109.218 759.743 110.673C759.743 112.075 759.359 113.385 758.592 114.601C757.825 115.792 756.634 116.757 755.021 117.498C753.433 118.212 751.423 118.569 748.989 118.569ZM771.664 118.252V107.618L772.577 110.078L760.633 90.476H764.879L774.918 107.023H772.617L782.695 90.476H786.624L774.72 110.078L775.593 107.618V118.252H771.664ZM798.163 118.569C796.047 118.569 794.023 118.252 792.092 117.617C790.161 116.956 788.64 116.109 787.529 115.078L788.997 111.983C790.055 112.908 791.404 113.676 793.044 114.284C794.684 114.892 796.391 115.197 798.163 115.197C799.777 115.197 801.086 115.011 802.091 114.641C803.097 114.271 803.837 113.768 804.313 113.133C804.79 112.472 805.028 111.731 805.028 110.911C805.028 109.959 804.71 109.192 804.075 108.61C803.467 108.028 802.66 107.565 801.655 107.221C800.676 106.851 799.591 106.533 798.401 106.269C797.211 106.004 796.007 105.7 794.79 105.356C793.6 104.986 792.502 104.523 791.497 103.967C790.518 103.412 789.724 102.671 789.116 101.745C788.508 100.793 788.203 99.5759 788.203 98.0945C788.203 96.666 788.574 95.3566 789.314 94.1662C790.082 92.9493 791.245 91.9838 792.806 91.2696C794.393 90.5289 796.404 90.1585 798.838 90.1585C800.451 90.1585 802.052 90.3701 803.639 90.7934C805.226 91.2166 806.602 91.8251 807.766 92.6187L806.456 95.7931C805.266 94.9995 804.009 94.4307 802.687 94.0868C801.364 93.7165 800.081 93.5313 798.838 93.5313C797.277 93.5313 795.994 93.7297 794.989 94.1265C793.983 94.5233 793.243 95.0524 792.767 95.7137C792.317 96.375 792.092 97.1157 792.092 97.9358C792.092 98.9146 792.396 99.6949 793.005 100.277C793.639 100.859 794.446 101.322 795.425 101.666C796.43 102.01 797.528 102.327 798.719 102.618C799.909 102.883 801.099 103.187 802.29 103.531C803.507 103.875 804.604 104.324 805.583 104.88C806.588 105.435 807.395 106.176 808.004 107.102C808.612 108.028 808.916 109.218 808.916 110.673C808.916 112.075 808.533 113.385 807.766 114.601C806.998 115.792 805.808 116.757 804.194 117.498C802.607 118.212 800.597 118.569 798.163 118.569ZM819.841 118.252V93.9281H810.318V90.476H833.293V93.9281H823.77V118.252H819.841ZM837.615 118.252V90.476H857.216V93.9281H841.583V114.8H857.772V118.252H837.615ZM841.225 105.832V102.459H855.51V105.832H841.225ZM864.197 118.252V90.476H867.451L879.91 111.467H878.164L890.465 90.476H893.719L893.759 118.252H889.949L889.91 96.4676H890.822L879.871 114.879H878.045L867.014 96.4676H868.006V118.252H864.197ZM910.189 118.569C908.073 118.569 906.049 118.252 904.118 117.617C902.187 116.956 900.666 116.109 899.555 115.078L901.023 111.983C902.081 112.908 903.43 113.676 905.071 114.284C906.711 114.892 908.417 115.197 910.189 115.197C911.803 115.197 913.112 115.011 914.118 114.641C915.123 114.271 915.863 113.768 916.34 113.133C916.816 112.472 917.054 111.731 917.054 110.911C917.054 109.959 916.736 109.192 916.102 108.61C915.493 108.028 914.686 107.565 913.681 107.221C912.702 106.851 911.618 106.533 910.427 106.269C909.237 106.004 908.033 105.7 906.816 105.356C905.626 104.986 904.528 104.523 903.523 103.967C902.544 103.412 901.751 102.671 901.142 101.745C900.534 100.793 900.23 99.5759 900.23 98.0945C900.23 96.666 900.6 95.3566 901.341 94.1662C902.108 92.9493 903.272 91.9838 904.832 91.2696C906.42 90.5289 908.43 90.1585 910.864 90.1585C912.477 90.1585 914.078 90.3701 915.665 90.7934C917.252 91.2166 918.628 91.8251 919.792 92.6187L918.482 95.7931C917.292 94.9995 916.035 94.4307 914.713 94.0868C913.39 93.7165 912.107 93.5313 910.864 93.5313C909.303 93.5313 908.02 93.7297 907.015 94.1265C906.01 94.5233 905.269 95.0524 904.793 95.7137C904.343 96.375 904.118 97.1157 904.118 97.9358C904.118 98.9146 904.422 99.6949 905.031 100.277C905.666 100.859 906.473 101.322 907.451 101.666C908.457 102.01 909.554 102.327 910.745 102.618C911.935 102.883 913.126 103.187 914.316 103.531C915.533 103.875 916.631 104.324 917.609 104.88C918.615 105.435 919.421 106.176 920.03 107.102C920.638 108.028 920.943 109.218 920.943 110.673C920.943 112.075 920.559 113.385 919.792 114.601C919.025 115.792 917.834 116.757 916.221 117.498C914.633 118.212 912.623 118.569 910.189 118.569Z" fill="#AAAAAA"/>
<line x1="476.684" y1="153.311" x2="476.259" y2="0.00609118" stroke="#1DD45A" stroke-width="4.608"/>
<path d="M420.514 129C412.629 129 406.536 126.984 402.235 122.952C397.935 118.831 395.784 112.783 395.784 104.808V40.4307H412.584V104.405C412.584 107.81 413.435 110.453 415.138 112.335C416.93 114.216 419.394 115.157 422.53 115.157C426.293 115.157 429.429 114.171 431.938 112.2L436.642 124.162C434.671 125.775 432.251 126.984 429.384 127.791C426.517 128.597 423.56 129 420.514 129ZM383.957 69.7299V56.2899H431.803V69.7299H383.957Z" fill="white"/>
<path fill-rule="evenodd" clip-rule="evenodd" d="M358.683 56.2899V128.06H375.483V56.2899H358.683Z" fill="white"/>
<path d="M367.15 44.4627C364.014 44.4627 361.416 43.4771 359.355 41.5059C357.384 39.5347 356.398 37.1603 356.398 34.3827C356.398 31.5155 357.384 29.1411 359.355 27.2595C361.416 25.2883 364.014 24.3027 367.15 24.3027C370.286 24.3027 372.84 25.2435 374.811 27.1251C376.872 28.9171 377.902 31.2019 377.902 33.9795C377.902 36.9363 376.917 39.4451 374.946 41.5059C372.974 43.4771 370.376 44.4627 367.15 44.4627Z" fill="#1DD45A"/>
<path d="M285.27 128.06V117.442L329.487 63.9508L332.578 69.73H286.076V56.29H346.018V66.9076L301.801 120.399L298.441 114.62H347.228V128.06H285.27Z" fill="white"/>
<path fill-rule="evenodd" clip-rule="evenodd" d="M256.367 56.2899V128.06H273.167V56.2899H256.367Z" fill="white"/>
<path d="M264.834 44.4627C261.698 44.4627 259.1 43.4771 257.039 41.5059C255.068 39.5347 254.082 37.1603 254.082 34.3827C254.082 31.5155 255.068 29.1411 257.039 27.2595C259.1 25.2883 261.698 24.3027 264.834 24.3027C267.97 24.3027 270.524 25.2435 272.495 27.1251C274.556 28.9171 275.586 31.2019 275.586 33.9795C275.586 36.9363 274.6 39.4451 272.629 41.5059C270.658 43.4771 268.06 44.4627 264.834 44.4627Z" fill="#1DD45A"/>
<path d="M204.613 128.059V56.2898H220.607V76.0466L218.725 70.2674C220.876 65.429 224.236 61.7554 228.805 59.2466C233.464 56.7378 239.244 55.4834 246.143 55.4834V71.477C245.426 71.2978 244.754 71.2082 244.127 71.2082C243.5 71.1186 242.872 71.0738 242.245 71.0738C235.884 71.0738 230.821 72.9554 227.058 76.7186C223.295 80.3922 221.413 85.9026 221.413 93.2498V128.059H204.613Z" fill="white"/>
<path d="M156.294 129.001C150.201 129.001 144.781 127.657 140.032 124.969C135.283 122.281 131.52 118.249 128.742 112.873C126.054 107.407 124.71 100.508 124.71 92.175C124.71 83.7526 126.099 76.8534 128.877 71.4774C131.744 66.1014 135.552 62.1142 140.301 59.5158C145.139 56.8278 150.47 55.4838 156.294 55.4838C163.373 55.4838 169.6 57.007 174.976 60.0534C180.441 63.0998 184.742 67.3558 187.878 72.8214C191.104 78.287 192.717 84.7382 192.717 92.175C192.717 99.6118 191.104 106.063 187.878 111.529C184.742 116.994 180.441 121.295 174.976 124.431C169.6 127.477 163.373 129.001 156.294 129.001ZM116.512 128.06V28.335H133.312V72.9558L131.968 92.0406L132.505 111.125V128.06H116.512ZM154.413 114.62C158.445 114.62 162.029 113.724 165.165 111.932C168.39 110.14 170.944 107.541 172.825 104.137C174.707 100.732 175.648 96.7446 175.648 92.175C175.648 87.5158 174.707 83.5286 172.825 80.2134C170.944 76.8086 168.39 74.2102 165.165 72.4182C162.029 70.6262 158.445 69.7302 154.413 69.7302C150.381 69.7302 146.752 70.6262 143.526 72.4182C140.301 74.2102 137.747 76.8086 135.865 80.2134C133.984 83.5286 133.043 87.5158 133.043 92.175C133.043 96.7446 133.984 100.732 135.865 104.137C137.747 107.541 140.301 110.14 143.526 111.932C146.752 113.724 150.381 114.62 154.413 114.62Z" fill="white"/>
<path d="M54.167 0.451167C65.4559 -1.94837 74.6074 5.46238 74.6074 17.0035V120.444C74.6074 131.985 65.4559 143.286 54.167 145.686L20.4404 152.854C9.15152 155.254 1.35674e-05 147.843 0 136.302V32.8617C0 21.3206 9.15151 10.0195 20.4404 7.61998L54.167 0.451167ZM58.2551 28.7025C58.2551 21.7778 52.7642 17.3313 45.9908 18.771L28.6166 22.4642C21.8432 23.9039 16.3523 30.6846 16.3523 37.6092V124.332C16.3524 131.257 21.8433 135.703 28.6166 134.263L45.9908 130.57C52.7642 129.13 58.2551 122.35 58.2551 115.425V28.7025Z" fill="#1DD45A"/>
</svg>
