<svg width="1846" height="307" viewBox="0 0 1846 307" fill="none" xmlns="http://www.w3.org/2000/svg">
<path d="M1041.7 127.505L1066.86 71.9529H1074.72L1099.95 127.505H1091.62L1069.16 76.397H1072.33L1049.88 127.505H1041.7ZM1052.42 113.617L1054.56 107.268H1085.83L1088.13 113.617H1052.42ZM1108.24 127.505V71.9529H1129.9C1137.1 71.9529 1142.76 73.6723 1146.89 77.1113C1151.01 80.4973 1153.08 85.2325 1153.08 91.3167C1153.08 95.3376 1152.15 98.803 1150.3 101.713C1148.45 104.57 1145.8 106.765 1142.36 108.3C1138.92 109.834 1134.77 110.601 1129.9 110.601H1112.6L1116.18 106.951V127.505H1108.24ZM1145.38 127.505L1131.25 107.347H1139.74L1154.03 127.505H1145.38ZM1116.18 107.744L1112.6 103.856H1129.67C1134.75 103.856 1138.58 102.771 1141.17 100.602C1143.82 98.3798 1145.14 95.2847 1145.14 91.3167C1145.14 87.3487 1143.82 84.2801 1141.17 82.111C1138.58 79.9418 1134.75 78.8572 1129.67 78.8572H1112.6L1116.18 74.8892V107.744ZM1190.74 128.14C1186.51 128.14 1182.59 127.452 1178.99 126.076C1175.45 124.648 1172.35 122.664 1169.71 120.124C1167.12 117.532 1165.08 114.516 1163.6 111.077C1162.12 107.638 1161.38 103.856 1161.38 99.7289C1161.38 95.6022 1162.12 91.8193 1163.6 88.3804C1165.08 84.9415 1167.14 81.9522 1169.79 79.4127C1172.43 76.8203 1175.53 74.8363 1179.07 73.4607C1182.67 72.0322 1186.59 71.318 1190.82 71.318C1195.1 71.318 1199.05 72.0587 1202.64 73.5401C1206.29 74.9686 1209.39 77.1113 1211.93 79.9682L1206.77 84.9679C1204.65 82.7458 1202.27 81.1057 1199.63 80.0476C1196.98 78.9366 1194.15 78.381 1191.14 78.381C1188.01 78.381 1185.1 78.9101 1182.41 79.9682C1179.76 81.0264 1177.46 82.5078 1175.5 84.4124C1173.54 86.317 1172.01 88.592 1170.9 91.2374C1169.84 93.8298 1169.31 96.6603 1169.31 99.7289C1169.31 102.797 1169.84 105.654 1170.9 108.3C1172.01 110.892 1173.54 113.141 1175.5 115.045C1177.46 116.95 1179.76 118.431 1182.41 119.49C1185.1 120.548 1188.01 121.077 1191.14 121.077C1194.15 121.077 1196.98 120.548 1199.63 119.49C1202.27 118.378 1204.65 116.685 1206.77 114.41L1211.93 119.41C1209.39 122.267 1206.29 124.436 1202.64 125.918C1199.05 127.399 1195.08 128.14 1190.74 128.14ZM1262.31 127.505V71.9529H1270.25V127.505H1262.31ZM1222.47 127.505V71.9529H1230.41V127.505H1222.47ZM1229.62 102.745V95.8402H1263.03V102.745H1229.62ZM1286.88 127.505V71.9529H1294.81V127.505H1286.88ZM1322.48 127.505V78.8572H1303.43V71.9529H1349.38V78.8572H1330.33V127.505H1322.48ZM1358.02 127.505V71.9529H1397.23V78.8572H1365.96V120.601H1398.34V127.505H1358.02ZM1365.24 102.665V95.9196H1393.81V102.665H1365.24ZM1435.95 128.14C1431.72 128.14 1427.8 127.452 1424.2 126.076C1420.66 124.648 1417.56 122.664 1414.92 120.124C1412.33 117.532 1410.29 114.516 1408.81 111.077C1407.33 107.638 1406.59 103.856 1406.59 99.7289C1406.59 95.6022 1407.33 91.8193 1408.81 88.3804C1410.29 84.9415 1412.35 81.9522 1415 79.4127C1417.64 76.8203 1420.74 74.8363 1424.28 73.4607C1427.88 72.0322 1431.8 71.318 1436.03 71.318C1440.31 71.318 1444.26 72.0587 1447.85 73.5401C1451.5 74.9686 1454.6 77.1113 1457.14 79.9682L1451.98 84.9679C1449.86 82.7458 1447.48 81.1057 1444.84 80.0476C1442.19 78.9366 1439.36 78.381 1436.35 78.381C1433.22 78.381 1430.31 78.9101 1427.62 79.9682C1424.97 81.0264 1422.67 82.5078 1420.71 84.4124C1418.75 86.317 1417.22 88.592 1416.11 91.2374C1415.05 93.8298 1414.52 96.6603 1414.52 99.7289C1414.52 102.797 1415.05 105.654 1416.11 108.3C1417.22 110.892 1418.75 113.141 1420.71 115.045C1422.67 116.95 1424.97 118.431 1427.62 119.49C1430.31 120.548 1433.22 121.077 1436.35 121.077C1439.36 121.077 1442.19 120.548 1444.84 119.49C1447.48 118.378 1449.86 116.685 1451.98 114.41L1457.14 119.41C1454.6 122.267 1451.5 124.436 1447.85 125.918C1444.26 127.399 1440.29 128.14 1435.95 128.14ZM1477.4 127.505V78.8572H1458.35V71.9529H1504.3V78.8572H1485.25V127.505H1477.4ZM1534.95 128.14C1527.65 128.14 1521.91 126.05 1517.73 121.87C1513.55 117.691 1511.46 111.58 1511.46 103.538V71.9529H1519.4V103.221C1519.4 109.411 1520.75 113.934 1523.44 116.791C1526.19 119.648 1530.06 121.077 1535.03 121.077C1540.06 121.077 1543.92 119.648 1546.62 116.791C1549.37 113.934 1550.74 109.411 1550.74 103.221V71.9529H1558.44V103.538C1558.44 111.58 1556.35 117.691 1552.17 121.87C1548.05 126.05 1542.3 128.14 1534.95 128.14ZM1574.71 127.505V71.9529H1596.38C1603.57 71.9529 1609.23 73.6723 1613.36 77.1113C1617.49 80.4973 1619.55 85.2325 1619.55 91.3167C1619.55 95.3376 1618.62 98.803 1616.77 101.713C1614.92 104.57 1612.28 106.765 1608.84 108.3C1605.4 109.834 1601.24 110.601 1596.38 110.601H1579.08L1582.65 106.951V127.505H1574.71ZM1611.85 127.505L1597.73 107.347H1606.22L1620.5 127.505H1611.85ZM1582.65 107.744L1579.08 103.856H1596.14C1601.22 103.856 1605.05 102.771 1607.65 100.602C1610.29 98.3798 1611.61 95.2847 1611.61 91.3167C1611.61 87.3487 1610.29 84.2801 1607.65 82.111C1605.05 79.9418 1601.22 78.8572 1596.14 78.8572H1579.08L1582.65 74.8892V107.744ZM1623.96 127.505L1649.12 71.9529H1656.97L1682.21 127.505H1673.88L1651.42 76.397H1654.59L1632.13 127.505H1623.96ZM1634.67 113.617L1636.82 107.268H1668.08L1670.39 113.617H1634.67ZM1690.5 127.505V71.9529H1698.43V120.601H1728.51V127.505H1690.5ZM1050.11 236.505V180.953H1075.03C1081.43 180.953 1086.36 182.249 1089.79 184.842C1093.23 187.381 1094.95 190.873 1094.95 195.317C1094.95 198.333 1094.26 200.872 1092.89 202.936C1091.57 204.999 1089.77 206.586 1087.49 207.697C1085.22 208.808 1082.76 209.364 1080.11 209.364L1081.54 206.983C1084.72 206.983 1087.52 207.538 1089.95 208.65C1092.39 209.761 1094.32 211.401 1095.75 213.57C1097.17 215.686 1097.89 218.331 1097.89 221.506C1097.89 226.267 1096.09 229.971 1092.49 232.616C1088.95 235.209 1083.66 236.505 1076.62 236.505H1050.11ZM1058.05 230.077H1076.3C1080.69 230.077 1084.05 229.336 1086.38 227.855C1088.71 226.373 1089.87 224.045 1089.87 220.871C1089.87 217.644 1088.71 215.289 1086.38 213.808C1084.05 212.327 1080.69 211.586 1076.3 211.586H1057.34V205.158H1074.32C1078.34 205.158 1081.46 204.417 1083.68 202.936C1085.91 201.454 1087.02 199.232 1087.02 196.269C1087.02 193.307 1085.91 191.085 1083.68 189.603C1081.46 188.122 1078.34 187.381 1074.32 187.381H1058.05V230.077ZM1133.19 237.14C1125.89 237.14 1120.15 235.05 1115.97 230.87C1111.79 226.691 1109.7 220.58 1109.7 212.538V180.953H1117.64V212.221C1117.64 218.411 1118.99 222.934 1121.68 225.791C1124.43 228.648 1128.3 230.077 1133.27 230.077C1138.3 230.077 1142.16 228.648 1144.86 225.791C1147.61 222.934 1148.98 218.411 1148.98 212.221V180.953H1156.68V212.538C1156.68 220.58 1154.59 226.691 1150.41 230.87C1146.29 235.05 1140.54 237.14 1133.19 237.14ZM1172.95 236.505V180.953H1180.89V236.505H1172.95ZM1197.52 236.505V180.953H1205.46V229.601H1235.53V236.505H1197.52ZM1244.64 236.505V180.953H1268.05C1273.98 180.953 1279.19 182.117 1283.68 184.445C1288.23 186.773 1291.75 190.026 1294.24 194.206C1296.78 198.386 1298.05 203.227 1298.05 208.729C1298.05 214.231 1296.78 219.072 1294.24 223.252C1291.75 227.431 1288.23 230.685 1283.68 233.013C1279.19 235.341 1273.98 236.505 1268.05 236.505H1244.64ZM1252.58 229.601H1267.57C1272.18 229.601 1276.14 228.728 1279.48 226.982C1282.86 225.236 1285.48 222.802 1287.33 219.681C1289.19 216.506 1290.11 212.856 1290.11 208.729C1290.11 204.549 1289.19 200.899 1287.33 197.777C1285.48 194.656 1282.86 192.222 1279.48 190.476C1276.14 188.73 1272.18 187.857 1267.57 187.857H1252.58V229.601ZM1310.2 236.505V180.953H1318.14V236.505H1310.2ZM1334.77 236.505V180.953H1341.28L1378.02 226.585H1374.61V180.953H1382.55V236.505H1376.04L1339.3 190.873H1342.71V236.505H1334.77ZM1424.25 237.14C1419.97 237.14 1416.02 236.452 1412.43 235.076C1408.83 233.648 1405.71 231.664 1403.06 229.124C1400.42 226.532 1398.35 223.516 1396.87 220.077C1395.39 216.638 1394.65 212.856 1394.65 208.729C1394.65 204.602 1395.39 200.819 1396.87 197.38C1398.35 193.941 1400.42 190.952 1403.06 188.413C1405.76 185.82 1408.91 183.836 1412.51 182.461C1416.1 181.032 1420.07 180.318 1424.41 180.318C1428.8 180.318 1432.82 181.032 1436.47 182.461C1440.12 183.889 1443.22 186.032 1445.76 188.889L1440.84 193.809C1438.56 191.587 1436.08 189.973 1433.38 188.968C1430.73 187.91 1427.85 187.381 1424.73 187.381C1421.55 187.381 1418.59 187.91 1415.84 188.968C1413.14 190.026 1410.79 191.508 1408.78 193.412C1406.82 195.317 1405.28 197.592 1404.17 200.237C1403.12 202.83 1402.59 205.66 1402.59 208.729C1402.59 211.745 1403.12 214.575 1404.17 217.22C1405.28 219.813 1406.82 222.088 1408.78 224.045C1410.79 225.95 1413.14 227.431 1415.84 228.49C1418.54 229.548 1421.47 230.077 1424.65 230.077C1427.61 230.077 1430.44 229.627 1433.14 228.728C1435.89 227.775 1438.43 226.215 1440.76 224.045L1445.28 230.077C1442.53 232.405 1439.3 234.177 1435.6 235.394C1431.95 236.558 1428.17 237.14 1424.25 237.14ZM1445.28 230.077L1437.66 229.045V208.411H1445.28V230.077ZM1497.98 237.14C1493.75 237.14 1489.7 236.505 1485.84 235.235C1481.97 233.912 1478.93 232.219 1476.71 230.156L1479.65 223.966C1481.76 225.818 1484.46 227.352 1487.74 228.569C1491.02 229.786 1494.43 230.394 1497.98 230.394C1501.21 230.394 1503.82 230.024 1505.84 229.283C1507.85 228.542 1509.33 227.537 1510.28 226.267C1511.23 224.945 1511.71 223.463 1511.71 221.823C1511.71 219.919 1511.07 218.384 1509.8 217.22C1508.59 216.056 1506.97 215.131 1504.96 214.443C1503 213.702 1500.84 213.067 1498.45 212.538C1496.07 212.009 1493.67 211.401 1491.23 210.713C1488.85 209.972 1486.66 209.046 1484.65 207.935C1482.69 206.824 1481.1 205.343 1479.88 203.491C1478.67 201.586 1478.06 199.153 1478.06 196.19C1478.06 193.333 1478.8 190.714 1480.28 188.333C1481.82 185.9 1484.14 183.969 1487.26 182.54C1490.44 181.059 1494.46 180.318 1499.33 180.318C1502.55 180.318 1505.76 180.741 1508.93 181.588C1512.1 182.434 1514.86 183.651 1517.18 185.238L1514.56 191.587C1512.18 190 1509.67 188.862 1507.03 188.175C1504.38 187.434 1501.81 187.064 1499.33 187.064C1496.21 187.064 1493.64 187.46 1491.63 188.254C1489.62 189.048 1488.14 190.106 1487.19 191.428C1486.29 192.751 1485.84 194.232 1485.84 195.873C1485.84 197.83 1486.44 199.391 1487.66 200.555C1488.93 201.719 1490.55 202.645 1492.5 203.332C1494.51 204.02 1496.71 204.655 1499.09 205.237C1501.47 205.766 1503.85 206.375 1506.23 207.062C1508.67 207.75 1510.86 208.65 1512.82 209.761C1514.83 210.872 1516.44 212.353 1517.66 214.205C1518.88 216.056 1519.49 218.437 1519.49 221.347C1519.49 224.151 1518.72 226.77 1517.18 229.204C1515.65 231.585 1513.27 233.516 1510.04 234.997C1506.87 236.426 1502.85 237.14 1497.98 237.14ZM1543.33 236.505V215.236L1545.15 220.157L1521.27 180.953H1529.76L1549.84 214.046H1545.23L1565.39 180.953H1573.25L1549.44 220.157L1551.19 215.236V236.505H1543.33ZM1596.33 237.14C1592.09 237.14 1588.05 236.505 1584.18 235.235C1580.32 233.912 1577.28 232.219 1575.06 230.156L1577.99 223.966C1580.11 225.818 1582.81 227.352 1586.09 228.569C1589.37 229.786 1592.78 230.394 1596.33 230.394C1599.55 230.394 1602.17 230.024 1604.18 229.283C1606.19 228.542 1607.67 227.537 1608.63 226.267C1609.58 224.945 1610.06 223.463 1610.06 221.823C1610.06 219.919 1609.42 218.384 1608.15 217.22C1606.93 216.056 1605.32 215.131 1603.31 214.443C1601.35 213.702 1599.18 213.067 1596.8 212.538C1594.42 212.009 1592.01 211.401 1589.58 210.713C1587.2 209.972 1585 209.046 1582.99 207.935C1581.04 206.824 1579.45 205.343 1578.23 203.491C1577.02 201.586 1576.41 199.153 1576.41 196.19C1576.41 193.333 1577.15 190.714 1578.63 188.333C1580.16 185.9 1582.49 183.969 1585.61 182.54C1588.79 181.059 1592.81 180.318 1597.68 180.318C1600.9 180.318 1604.1 180.741 1607.28 181.588C1610.45 182.434 1613.2 183.651 1615.53 185.238L1612.91 191.587C1610.53 190 1608.02 188.862 1605.37 188.175C1602.73 187.434 1600.16 187.064 1597.68 187.064C1594.55 187.064 1591.99 187.46 1589.98 188.254C1587.97 189.048 1586.49 190.106 1585.53 191.428C1584.63 192.751 1584.18 194.232 1584.18 195.873C1584.18 197.83 1584.79 199.391 1586.01 200.555C1587.28 201.719 1588.89 202.645 1590.85 203.332C1592.86 204.02 1595.06 204.655 1597.44 205.237C1599.82 205.766 1602.2 206.375 1604.58 207.062C1607.01 207.75 1609.21 208.65 1611.17 209.761C1613.18 210.872 1614.79 212.353 1616.01 214.205C1617.22 216.056 1617.83 218.437 1617.83 221.347C1617.83 224.151 1617.07 226.77 1615.53 229.204C1614 231.585 1611.62 233.516 1608.39 234.997C1605.21 236.426 1601.19 237.14 1596.33 237.14ZM1639.68 236.505V187.857H1620.64V180.953H1666.59V187.857H1647.54V236.505H1639.68ZM1675.23 236.505V180.953H1714.43V187.857H1683.17V229.601H1715.54V236.505H1675.23ZM1682.45 211.665V204.92H1711.02V211.665H1682.45ZM1728.39 236.505V180.953H1734.9L1759.82 222.934H1756.33L1780.93 180.953H1787.44L1787.52 236.505H1779.9L1779.82 192.936H1781.64L1759.74 229.759H1756.09L1734.03 192.936H1736.01V236.505H1728.39ZM1820.38 237.14C1816.15 237.14 1812.1 236.505 1808.24 235.235C1804.37 233.912 1801.33 232.219 1799.11 230.156L1802.05 223.966C1804.16 225.818 1806.86 227.352 1810.14 228.569C1813.42 229.786 1816.83 230.394 1820.38 230.394C1823.61 230.394 1826.22 230.024 1828.24 229.283C1830.25 228.542 1831.73 227.537 1832.68 226.267C1833.63 224.945 1834.11 223.463 1834.11 221.823C1834.11 219.919 1833.47 218.384 1832.2 217.22C1830.99 216.056 1829.37 215.131 1827.36 214.443C1825.4 213.702 1823.24 213.067 1820.85 212.538C1818.47 212.009 1816.07 211.401 1813.63 210.713C1811.25 209.972 1809.06 209.046 1807.05 207.935C1805.09 206.824 1803.5 205.343 1802.28 203.491C1801.07 201.586 1800.46 199.153 1800.46 196.19C1800.46 193.333 1801.2 190.714 1802.68 188.333C1804.22 185.9 1806.54 183.969 1809.66 182.54C1812.84 181.059 1816.86 180.318 1821.73 180.318C1824.95 180.318 1828.16 180.741 1831.33 181.588C1834.5 182.434 1837.26 183.651 1839.58 185.238L1836.96 191.587C1834.58 190 1832.07 188.862 1829.43 188.175C1826.78 187.434 1824.21 187.064 1821.73 187.064C1818.61 187.064 1816.04 187.46 1814.03 188.254C1812.02 189.048 1810.54 190.106 1809.59 191.428C1808.69 192.751 1808.24 194.232 1808.24 195.873C1808.24 197.83 1808.84 199.391 1810.06 200.555C1811.33 201.719 1812.95 202.645 1814.9 203.332C1816.91 204.02 1819.11 204.655 1821.49 205.237C1823.87 205.766 1826.25 206.375 1828.63 207.062C1831.07 207.75 1833.26 208.65 1835.22 209.761C1837.23 210.872 1838.84 212.353 1840.06 214.205C1841.28 216.056 1841.89 218.437 1841.89 221.347C1841.89 224.151 1841.12 226.77 1839.58 229.204C1838.05 231.585 1835.67 233.516 1832.44 234.997C1829.27 236.426 1825.25 237.14 1820.38 237.14Z" fill="#AAAAAA"/>
<line x1="953.369" y1="306.623" x2="952.517" y2="0.0131589" stroke="#1DD45A" stroke-width="9.216"/>
<path d="M841.028 258.003C825.258 258.003 813.072 253.971 804.471 245.907C795.869 237.664 791.568 225.568 791.568 209.619V80.8643H825.168V208.813C825.168 215.623 826.871 220.909 830.276 224.672C833.86 228.435 838.788 230.317 845.06 230.317C852.586 230.317 858.858 228.346 863.876 224.403L873.284 248.327C869.341 251.552 864.503 253.971 858.768 255.584C853.034 257.197 847.12 258.003 841.028 258.003ZM767.914 139.463V112.583H863.607V139.463H767.914Z" fill="white"/>
<path fill-rule="evenodd" clip-rule="evenodd" d="M717.366 112.582V256.121H750.966V112.582H717.366Z" fill="white"/>
<path d="M734.301 88.9274C728.029 88.9274 722.832 86.9562 718.71 83.0138C714.768 79.0714 712.797 74.3226 712.797 68.7674C712.797 63.033 714.768 58.2842 718.71 54.521C722.832 50.5786 728.029 48.6074 734.301 48.6074C740.573 48.6074 745.68 50.489 749.622 54.2522C753.744 57.8362 755.805 62.4058 755.805 67.961C755.805 73.8746 753.834 78.8922 749.891 83.0138C745.949 86.9562 740.752 88.9274 734.301 88.9274Z" fill="#1DD45A"/>
<path d="M570.539 256.121V234.886L658.974 127.904L665.157 139.462H572.152V112.582H692.037V133.817L603.601 240.8L596.881 229.241H694.456V256.121H570.539Z" fill="white"/>
<path fill-rule="evenodd" clip-rule="evenodd" d="M512.73 112.582V256.121H546.33V112.582H512.73Z" fill="white"/>
<path d="M529.664 88.9274C523.392 88.9274 518.195 86.9562 514.074 83.0138C510.131 79.0714 508.16 74.3226 508.16 68.7674C508.16 63.033 510.131 58.2842 514.074 54.521C518.195 50.5786 523.392 48.6074 529.664 48.6074C535.936 48.6074 541.043 50.489 544.986 54.2522C549.107 57.8362 551.168 62.4058 551.168 67.961C551.168 73.8746 549.197 78.8922 545.255 83.0138C541.312 86.9562 536.115 88.9274 529.664 88.9274Z" fill="#1DD45A"/>
<path d="M409.23 256.122V112.583H441.218V152.096L437.454 140.538C441.755 130.861 448.475 123.514 457.614 118.496C466.933 113.479 478.491 110.97 492.29 110.97V142.957C490.856 142.599 489.512 142.419 488.258 142.419C487.003 142.24 485.749 142.151 484.494 142.151C471.771 142.151 461.646 145.914 454.12 153.44C446.594 160.787 442.83 171.808 442.83 186.503V256.122H409.23Z" fill="white"/>
<path d="M312.584 258.003C300.399 258.003 289.557 255.315 280.06 249.939C270.562 244.563 263.036 236.499 257.48 225.747C252.104 214.816 249.416 201.017 249.416 184.352C249.416 167.507 252.194 153.709 257.749 142.957C263.484 132.205 271.1 124.23 280.597 119.033C290.274 113.657 300.936 110.969 312.584 110.969C326.741 110.969 339.196 114.016 349.948 120.109C360.879 126.201 369.48 134.713 375.752 145.645C382.204 156.576 385.429 169.478 385.429 184.352C385.429 199.225 382.204 212.128 375.752 223.059C369.48 233.99 360.879 242.592 349.948 248.864C339.196 254.957 326.741 258.003 312.584 258.003ZM233.02 256.121V56.6719H266.62V145.913L263.932 184.083L265.007 222.253V256.121H233.02ZM308.821 229.241C316.885 229.241 324.053 227.449 330.325 223.865C336.776 220.281 341.884 215.085 345.647 208.275C349.41 201.465 351.292 193.491 351.292 184.352C351.292 175.033 349.41 167.059 345.647 160.429C341.884 153.619 336.776 148.422 330.325 144.838C324.053 141.254 316.885 139.462 308.821 139.462C300.757 139.462 293.5 141.254 287.048 144.838C280.597 148.422 275.49 153.619 271.727 160.429C267.964 167.059 266.082 175.033 266.082 184.352C266.082 193.491 267.964 201.465 271.727 208.275C275.49 215.085 280.597 220.281 287.048 223.865C293.5 227.449 300.757 229.241 308.821 229.241Z" fill="white"/>
<path d="M108.334 0.902333C130.912 -3.89673 149.215 10.9248 149.215 34.007V240.888C149.215 263.97 130.912 286.572 108.334 291.371L40.8809 305.709C18.303 310.508 2.71348e-05 295.686 0 272.604V65.7235C0 42.6412 18.303 20.039 40.8809 15.24L108.334 0.902333ZM116.51 57.4049C116.51 43.5556 105.528 34.6626 91.9817 37.542L57.2332 44.9285C43.6865 47.8079 32.7047 61.3691 32.7047 75.2184V248.664C32.7047 262.513 43.6865 271.406 57.2332 268.527L91.9817 261.14C105.528 258.261 116.51 244.7 116.51 230.85V57.4049Z" fill="#1DD45A"/>
</svg>
