<svg width="5402" height="2048" viewBox="0 0 5402 2048" fill="none" xmlns="http://www.w3.org/2000/svg">
<path d="M4880.84 1433.78C4859.76 1433.78 4839.63 1430.91 4820.46 1425.16C4801.61 1419.4 4786.75 1412.38 4775.89 1404.07L4795.06 1367.65C4805.92 1374.99 4819.34 1381.23 4835.32 1386.34C4851.29 1391.45 4867.59 1394 4884.2 1394C4905.61 1394 4920.94 1390.97 4930.21 1384.9C4939.79 1378.83 4944.58 1370.36 4944.58 1359.5C4944.58 1351.51 4941.71 1345.28 4935.96 1340.81C4930.21 1336.34 4922.54 1332.98 4912.95 1330.74C4903.69 1328.51 4893.31 1326.59 4881.8 1324.99C4870.3 1323.08 4858.8 1320.84 4847.3 1318.28C4835.8 1315.41 4825.25 1311.58 4815.67 1306.78C4806.08 1301.67 4798.42 1294.8 4792.66 1286.18C4786.91 1277.23 4784.04 1265.41 4784.04 1250.71C4784.04 1235.38 4788.35 1221.96 4796.98 1210.45C4805.6 1198.95 4817.74 1190.17 4833.4 1184.1C4849.37 1177.71 4868.22 1174.51 4889.95 1174.51C4906.56 1174.51 4923.34 1176.59 4940.27 1180.74C4957.52 1184.58 4971.58 1190.17 4982.44 1197.52L4962.8 1233.94C4951.29 1226.27 4939.31 1221 4926.85 1218.12C4914.39 1215.25 4901.93 1213.81 4889.47 1213.81C4869.34 1213.81 4854.33 1217.16 4844.42 1223.87C4834.52 1230.26 4829.57 1238.57 4829.57 1248.79C4829.57 1257.42 4832.44 1264.13 4838.19 1268.92C4844.26 1273.4 4851.93 1276.91 4861.2 1279.47C4870.78 1282.02 4881.32 1284.26 4892.83 1286.18C4904.33 1287.77 4915.83 1290.01 4927.33 1292.88C4938.83 1295.44 4949.22 1299.11 4958.48 1303.91C4968.07 1308.7 4975.73 1315.41 4981.49 1324.04C4987.56 1332.66 4990.59 1344.16 4990.59 1358.54C4990.59 1373.88 4986.12 1387.14 4977.17 1398.32C4968.23 1409.5 4955.61 1418.29 4939.31 1424.68C4923.02 1430.75 4903.53 1433.78 4880.84 1433.78Z" fill="white"/>
<path d="M4631.8 1174.51C4652.57 1174.51 4670.78 1178.51 4686.43 1186.49C4702.41 1194.48 4714.87 1206.62 4723.81 1222.92C4732.76 1239.21 4737.23 1259.82 4737.23 1284.74V1430.91H4691.22V1290.01C4691.22 1265.41 4685.15 1246.88 4673.01 1234.42C4661.19 1221.96 4644.42 1215.73 4622.69 1215.73C4606.4 1215.73 4592.18 1218.92 4580.04 1225.31C4567.9 1231.7 4558.47 1241.13 4551.76 1253.59C4545.38 1266.05 4542.18 1281.54 4542.18 1300.07V1430.91H4496.17V1176.91H4540.26V1245.44L4533.07 1227.23C4541.38 1210.61 4554.16 1197.68 4571.41 1188.41C4588.67 1179.14 4608.79 1174.51 4631.8 1174.51Z" fill="white"/>
<path d="M4330.21 1433.78C4303.05 1433.78 4279.09 1428.19 4258.32 1417.01C4237.88 1405.83 4221.9 1390.49 4210.4 1371C4199.22 1351.51 4193.63 1329.15 4193.63 1303.91C4193.63 1278.67 4199.06 1256.3 4209.92 1236.81C4221.1 1217.32 4236.28 1202.15 4255.45 1191.29C4274.94 1180.1 4296.82 1174.51 4321.1 1174.51C4345.71 1174.51 4367.43 1179.94 4386.28 1190.81C4405.13 1201.67 4419.83 1217 4430.37 1236.81C4441.23 1256.3 4446.67 1279.15 4446.67 1305.35C4446.67 1307.26 4446.51 1309.5 4446.19 1312.05C4446.19 1314.61 4446.03 1317.01 4445.71 1319.24H4229.57V1286.18H4421.75L4403.06 1297.68C4403.37 1281.38 4400.02 1266.85 4392.99 1254.07C4385.96 1241.29 4376.22 1231.38 4363.76 1224.35C4351.62 1217 4337.4 1213.33 4321.1 1213.33C4305.13 1213.33 4290.91 1217 4278.45 1224.35C4265.99 1231.38 4256.25 1241.45 4249.22 1254.55C4242.19 1267.33 4238.67 1282.02 4238.67 1298.64V1306.3C4238.67 1323.24 4242.51 1338.41 4250.18 1351.83C4258.16 1364.93 4269.19 1375.15 4283.24 1382.5C4297.3 1389.85 4313.44 1393.53 4331.65 1393.53C4346.66 1393.53 4360.24 1390.97 4372.38 1385.86C4384.84 1380.75 4395.71 1373.08 4404.97 1362.85L4430.37 1392.57C4418.87 1405.99 4404.49 1416.21 4387.24 1423.24C4370.31 1430.27 4351.3 1433.78 4330.21 1433.78Z" fill="white"/>
<path d="M4051.14 1433.78C4023.99 1433.78 4000.02 1428.19 3979.26 1417.01C3958.81 1405.83 3942.83 1390.49 3931.33 1371C3920.15 1351.51 3914.56 1329.15 3914.56 1303.91C3914.56 1278.67 3919.99 1256.3 3930.85 1236.81C3942.04 1217.32 3957.21 1202.15 3976.38 1191.29C3995.87 1180.1 4017.76 1174.51 4042.04 1174.51C4066.64 1174.51 4088.36 1179.94 4107.21 1190.81C4126.06 1201.67 4140.76 1217 4151.3 1236.81C4162.17 1256.3 4167.6 1279.15 4167.6 1305.35C4167.6 1307.26 4167.44 1309.5 4167.12 1312.05C4167.12 1314.61 4166.96 1317.01 4166.64 1319.24H3950.5V1286.18H4142.68L4123.99 1297.68C4124.31 1281.38 4120.95 1266.85 4113.92 1254.07C4106.89 1241.29 4097.15 1231.38 4084.69 1224.35C4072.55 1217 4058.33 1213.33 4042.04 1213.33C4026.06 1213.33 4011.84 1217 3999.38 1224.35C3986.92 1231.38 3977.18 1241.45 3970.15 1254.55C3963.12 1267.33 3959.61 1282.02 3959.61 1298.64V1306.3C3959.61 1323.24 3963.44 1338.41 3971.11 1351.83C3979.1 1364.93 3990.12 1375.15 4004.18 1382.5C4018.23 1389.85 4034.37 1393.53 4052.58 1393.53C4067.6 1393.53 4081.18 1390.97 4093.32 1385.86C4105.78 1380.75 4116.64 1373.08 4125.9 1362.85L4151.3 1392.57C4139.8 1405.99 4125.43 1416.21 4108.17 1423.24C4091.24 1430.27 4072.23 1433.78 4051.14 1433.78Z" fill="white"/>
<path d="M3761.47 1430.91V1176.91H3805.56V1245.92L3801.25 1228.67C3808.28 1211.09 3820.1 1197.68 3836.71 1188.41C3853.33 1179.14 3873.77 1174.51 3898.06 1174.51V1219.08C3896.14 1218.76 3894.22 1218.6 3892.31 1218.6C3890.71 1218.6 3889.11 1218.6 3887.51 1218.6C3862.91 1218.6 3843.42 1225.95 3829.04 1240.65C3814.67 1255.34 3807.48 1276.59 3807.48 1304.39V1430.91H3761.47Z" fill="white"/>
<path d="M3612.77 1433.78C3586.89 1433.78 3563.72 1428.19 3543.28 1417.01C3523.15 1405.83 3507.33 1390.49 3495.83 1371C3484.33 1351.51 3478.58 1329.15 3478.58 1303.91C3478.58 1278.67 3484.33 1256.3 3495.83 1236.81C3507.33 1217.32 3523.15 1202.15 3543.28 1191.29C3563.72 1180.1 3586.89 1174.51 3612.77 1174.51C3635.77 1174.51 3656.22 1179.14 3674.11 1188.41C3692.32 1197.36 3706.38 1210.77 3716.28 1228.67L3681.3 1251.19C3672.99 1238.73 3662.77 1229.62 3650.63 1223.87C3638.81 1217.8 3626.03 1214.77 3612.29 1214.77C3595.67 1214.77 3580.82 1218.44 3567.72 1225.79C3554.62 1233.14 3544.24 1243.52 3536.57 1256.94C3528.9 1270.04 3525.07 1285.7 3525.07 1303.91C3525.07 1322.12 3528.9 1337.93 3536.57 1351.35C3544.24 1364.77 3554.62 1375.15 3567.72 1382.5C3580.82 1389.85 3595.67 1393.53 3612.29 1393.53C3626.03 1393.53 3638.81 1390.65 3650.63 1384.9C3662.77 1378.83 3672.99 1369.56 3681.3 1357.1L3716.28 1379.15C3706.38 1396.72 3692.32 1410.3 3674.11 1419.88C3656.22 1429.15 3635.77 1433.78 3612.77 1433.78Z" fill="white"/>
<path d="M3349.19 1433.78C3328.11 1433.78 3307.98 1430.91 3288.81 1425.16C3269.96 1419.4 3255.1 1412.38 3244.24 1404.07L3263.41 1367.65C3274.27 1374.99 3287.69 1381.23 3303.67 1386.34C3319.64 1391.45 3335.94 1394 3352.55 1394C3373.96 1394 3389.29 1390.97 3398.56 1384.9C3408.14 1378.83 3412.93 1370.36 3412.93 1359.5C3412.93 1351.51 3410.06 1345.28 3404.31 1340.81C3398.56 1336.34 3390.89 1332.98 3381.3 1330.74C3372.04 1328.51 3361.65 1326.59 3350.15 1324.99C3338.65 1323.08 3327.15 1320.84 3315.65 1318.28C3304.15 1315.41 3293.6 1311.58 3284.02 1306.78C3274.43 1301.67 3266.76 1294.8 3261.01 1286.18C3255.26 1277.23 3252.39 1265.41 3252.39 1250.71C3252.39 1235.38 3256.7 1221.96 3265.33 1210.45C3273.95 1198.95 3286.09 1190.17 3301.75 1184.1C3317.72 1177.71 3336.57 1174.51 3358.3 1174.51C3374.91 1174.51 3391.69 1176.59 3408.62 1180.74C3425.87 1184.58 3439.93 1190.17 3450.79 1197.52L3431.14 1233.94C3419.64 1226.27 3407.66 1221 3395.2 1218.12C3382.74 1215.25 3370.28 1213.81 3357.82 1213.81C3337.69 1213.81 3322.68 1217.16 3312.77 1223.87C3302.87 1230.26 3297.92 1238.57 3297.92 1248.79C3297.92 1257.42 3300.79 1264.13 3306.54 1268.92C3312.61 1273.4 3320.28 1276.91 3329.55 1279.47C3339.13 1282.02 3349.67 1284.26 3361.18 1286.18C3372.68 1287.77 3384.18 1290.01 3395.68 1292.88C3407.18 1295.44 3417.57 1299.11 3426.83 1303.91C3436.42 1308.7 3444.08 1315.41 3449.84 1324.04C3455.91 1332.66 3458.94 1344.16 3458.94 1358.54C3458.94 1373.88 3454.47 1387.14 3445.52 1398.32C3436.58 1409.5 3423.96 1418.29 3407.66 1424.68C3391.37 1430.75 3371.88 1433.78 3349.19 1433.78Z" fill="white"/>
<path d="M4762.43 1019.91V804.249H4813.7V1019.91H4762.43ZM4677.6 936.04V888.116H4898.53V936.04H4677.6Z" fill="#FFD700"/>
<path d="M4422.87 1082.69C4401.78 1082.69 4381.65 1079.81 4362.48 1074.06C4343.63 1068.31 4328.78 1061.28 4317.91 1052.98L4337.08 1016.55C4347.95 1023.9 4361.37 1030.13 4377.34 1035.24C4393.31 1040.36 4409.61 1042.91 4426.22 1042.91C4447.63 1042.91 4462.96 1039.88 4472.23 1033.81C4481.82 1027.74 4486.61 1019.27 4486.61 1008.41C4486.61 1000.42 4483.73 994.189 4477.98 989.716C4472.23 985.243 4464.56 981.888 4454.98 979.652C4445.71 977.415 4435.33 975.498 4423.83 973.901C4412.32 971.984 4400.82 969.747 4389.32 967.191C4377.82 964.316 4367.28 960.482 4357.69 955.69C4348.11 950.578 4340.44 943.708 4334.69 935.082C4328.94 926.136 4326.06 914.315 4326.06 899.618C4326.06 884.282 4330.37 870.864 4339 859.362C4347.63 847.86 4359.77 839.074 4375.42 833.003C4391.4 826.613 4410.25 823.418 4431.97 823.418C4448.59 823.418 4465.36 825.495 4482.29 829.649C4499.55 833.483 4513.6 839.074 4524.47 846.422L4504.82 882.845C4493.32 875.177 4481.34 869.905 4468.88 867.03C4456.42 864.154 4443.95 862.716 4431.49 862.716C4411.37 862.716 4396.35 866.071 4386.45 872.78C4376.54 879.17 4371.59 887.477 4371.59 897.701C4371.59 906.327 4374.46 913.037 4380.22 917.829C4386.29 922.302 4393.95 925.817 4403.22 928.373C4412.8 930.929 4423.35 933.165 4434.85 935.082C4446.35 936.68 4457.85 938.916 4469.35 941.791C4480.86 944.347 4491.24 948.022 4500.51 952.814C4510.09 957.606 4517.76 964.316 4523.51 972.942C4529.58 981.569 4532.61 993.07 4532.61 1007.45C4532.61 1022.78 4528.14 1036.04 4519.2 1047.22C4510.25 1058.41 4497.63 1067.19 4481.34 1073.58C4465.04 1079.65 4445.55 1082.69 4422.87 1082.69Z" fill="white"/>
<path d="M4168.3 1079.81V825.815H4212.39V894.826L4208.08 877.573C4215.11 860.001 4226.93 846.582 4243.54 837.317C4260.16 828.051 4280.61 823.418 4304.89 823.418V867.988C4302.97 867.669 4301.05 867.509 4299.14 867.509C4297.54 867.509 4295.94 867.509 4294.34 867.509C4269.74 867.509 4250.25 874.857 4235.88 889.554C4221.5 904.251 4214.31 925.497 4214.31 953.293V1079.81H4168.3Z" fill="white"/>
<path d="M3987.26 1082.69C3961.7 1082.69 3939.02 1077.1 3919.21 1065.92C3899.4 1054.73 3883.75 1039.4 3872.24 1019.91C3860.74 1000.1 3854.99 977.735 3854.99 952.814C3854.99 927.574 3860.74 905.209 3872.24 885.72C3883.75 866.231 3899.4 851.055 3919.21 840.192C3939.02 829.01 3961.7 823.418 3987.26 823.418C4012.5 823.418 4035.03 829.01 4054.84 840.192C4074.96 851.055 4090.62 866.231 4101.8 885.72C4113.3 904.89 4119.06 927.254 4119.06 952.814C4119.06 978.054 4113.3 1000.42 4101.8 1019.91C4090.62 1039.4 4074.96 1054.73 4054.84 1065.92C4035.03 1077.1 4012.5 1082.69 3987.26 1082.69ZM3987.26 1042.43C4003.56 1042.43 4018.09 1038.76 4030.87 1031.41C4043.97 1024.06 4054.2 1013.68 4061.55 1000.26C4068.89 986.521 4072.57 970.706 4072.57 952.814C4072.57 934.603 4068.89 918.948 4061.55 905.848C4054.2 892.429 4043.97 882.046 4030.87 874.697C4018.09 867.349 4003.56 863.675 3987.26 863.675C3970.97 863.675 3956.43 867.349 3943.65 874.697C3930.87 882.046 3920.65 892.429 3912.98 905.848C3905.31 918.948 3901.48 934.603 3901.48 952.814C3901.48 970.706 3905.31 986.521 3912.98 1000.26C3920.65 1013.68 3930.87 1024.06 3943.65 1031.41C3956.43 1038.76 3970.97 1042.43 3987.26 1042.43Z" fill="white"/>
<path d="M3697.43 1082.69C3671.87 1082.69 3649.19 1077.1 3629.38 1065.92C3609.57 1054.73 3593.92 1039.4 3582.41 1019.91C3570.91 1000.1 3565.16 977.735 3565.16 952.814C3565.16 927.574 3570.91 905.209 3582.41 885.72C3593.92 866.231 3609.57 851.055 3629.38 840.192C3649.19 829.01 3671.87 823.418 3697.43 823.418C3722.67 823.418 3745.2 829.01 3765.01 840.192C3785.13 851.055 3800.79 866.231 3811.97 885.72C3823.47 904.89 3829.22 927.254 3829.22 952.814C3829.22 978.054 3823.47 1000.42 3811.97 1019.91C3800.79 1039.4 3785.13 1054.73 3765.01 1065.92C3745.2 1077.1 3722.67 1082.69 3697.43 1082.69ZM3697.43 1042.43C3713.73 1042.43 3728.26 1038.76 3741.04 1031.41C3754.14 1024.06 3764.37 1013.68 3771.71 1000.26C3779.06 986.521 3782.74 970.706 3782.74 952.814C3782.74 934.603 3779.06 918.948 3771.71 905.848C3764.37 892.429 3754.14 882.046 3741.04 874.697C3728.26 867.349 3713.73 863.675 3697.43 863.675C3681.14 863.675 3666.6 867.349 3653.82 874.697C3641.04 882.046 3630.82 892.429 3623.15 905.848C3615.48 918.948 3611.65 934.603 3611.65 952.814C3611.65 970.706 3615.48 986.521 3623.15 1000.26C3630.82 1013.68 3641.04 1024.06 3653.82 1031.41C3666.6 1038.76 3681.14 1042.43 3697.43 1042.43Z" fill="white"/>
<path d="M3381.3 1082.69C3356.7 1082.69 3334.66 1077.26 3315.17 1066.39C3296 1055.53 3280.82 1040.35 3269.64 1020.86C3258.46 1001.38 3252.87 978.691 3252.87 952.812C3252.87 926.933 3258.46 904.409 3269.64 885.239C3280.82 865.75 3296 850.574 3315.17 839.711C3334.66 828.848 3356.7 823.417 3381.3 823.417C3402.71 823.417 3422.04 828.209 3439.29 837.794C3456.55 847.379 3470.28 861.756 3480.51 880.926C3491.05 900.096 3496.32 924.058 3496.32 952.812C3496.32 981.567 3491.21 1005.53 3480.99 1024.7C3471.08 1043.87 3457.5 1058.41 3440.25 1068.31C3423 1077.89 3403.35 1082.69 3381.3 1082.69ZM3385.14 1042.43C3401.11 1042.43 3415.49 1038.76 3428.27 1031.41C3441.37 1024.06 3451.59 1013.68 3458.94 1000.26C3466.61 986.519 3470.44 970.704 3470.44 952.812C3470.44 934.601 3466.61 918.946 3458.94 905.846C3451.59 892.428 3441.37 882.044 3428.27 874.696C3415.49 867.347 3401.11 863.673 3385.14 863.673C3368.84 863.673 3354.31 867.347 3341.53 874.696C3328.75 882.044 3318.52 892.428 3310.86 905.846C3303.19 918.946 3299.35 934.601 3299.35 952.812C3299.35 970.704 3303.19 986.519 3310.86 1000.26C3318.52 1013.68 3328.75 1024.06 3341.53 1031.41C3354.31 1038.76 3368.84 1042.43 3385.14 1042.43ZM3471.88 1079.81V1011.28L3474.76 952.333L3469.96 893.386V724.213H3515.97V1079.81H3471.88Z" fill="white"/>
<path d="M2665.41 1426.41V1343.2L3011.94 923.993L3036.17 969.284H2671.73V863.956H3141.5V947.165L2794.97 1366.37L2768.63 1321.08H3150.97V1426.41H2665.41Z" fill="white"/>
<path fill-rule="evenodd" clip-rule="evenodd" d="M2438.89 863.954V1426.41H2570.55V863.954H2438.89Z" fill="white"/>
<path d="M2505.25 771.265C2480.67 771.265 2460.31 763.541 2444.16 748.093C2428.71 732.645 2420.98 714.037 2420.98 692.269C2420.98 669.799 2428.71 651.191 2444.16 636.445C2460.31 620.997 2480.67 613.273 2505.25 613.273C2529.82 613.273 2549.84 620.646 2565.28 635.392C2581.43 649.436 2589.51 667.341 2589.51 689.109C2589.51 712.281 2581.79 731.943 2566.34 748.093C2550.89 763.541 2530.53 771.265 2505.25 771.265Z" fill="#FFD700"/>
<path d="M2033.34 1426.4V863.952H2158.68V1018.78L2143.93 973.494C2160.78 935.576 2187.12 906.786 2222.93 887.125C2259.44 867.463 2304.73 857.633 2358.8 857.633V982.973C2353.18 981.569 2347.92 980.867 2343 980.867C2338.09 980.165 2333.17 979.813 2328.26 979.813C2278.4 979.813 2238.73 994.559 2209.24 1024.05C2179.74 1052.84 2165 1096.03 2165 1153.6V1426.4H2033.34Z" fill="white"/>
<path d="M1654.63 1433.78C1606.88 1433.78 1564.4 1423.25 1527.19 1402.18C1489.97 1381.12 1460.48 1349.52 1438.71 1307.39C1417.64 1264.55 1407.11 1210.48 1407.11 1145.18C1407.11 1079.18 1418 1025.11 1439.76 982.975C1462.23 940.844 1492.08 909.597 1529.29 889.233C1567.21 868.168 1608.99 857.635 1654.63 857.635C1710.11 857.635 1758.91 869.572 1801.04 893.446C1843.87 917.321 1877.58 950.675 1902.15 993.508C1927.43 1036.34 1940.07 1086.9 1940.07 1145.18C1940.07 1203.46 1927.43 1254.02 1902.15 1296.85C1877.58 1339.69 1843.87 1373.39 1801.04 1397.97C1758.91 1421.84 1710.11 1433.78 1654.63 1433.78ZM1342.86 1426.41V644.872H1474.52V994.561L1463.99 1144.13L1468.2 1293.69V1426.41H1342.86ZM1639.89 1321.08C1671.49 1321.08 1699.57 1314.06 1724.15 1300.01C1749.43 1285.97 1769.44 1265.61 1784.19 1238.92C1798.93 1212.24 1806.31 1180.99 1806.31 1145.18C1806.31 1108.67 1798.93 1077.42 1784.19 1051.44C1769.44 1024.76 1749.43 1004.39 1724.15 990.348C1699.57 976.305 1671.49 969.283 1639.89 969.283C1608.29 969.283 1579.85 976.305 1554.57 990.348C1529.29 1004.39 1509.28 1024.76 1494.53 1051.44C1479.79 1077.42 1472.41 1108.67 1472.41 1145.18C1472.41 1180.99 1479.79 1212.24 1494.53 1238.92C1509.28 1265.61 1529.29 1285.97 1554.57 1300.01C1579.85 1314.06 1608.29 1321.08 1639.89 1321.08Z" fill="white"/>
<path d="M844.111 414.386C934.423 395.19 1007.63 454.476 1007.63 546.805V1374.33C1007.63 1466.66 934.422 1557.07 844.111 1576.26L574.299 1633.61C483.988 1652.81 410.775 1593.52 410.775 1501.19V673.671C410.775 581.342 483.987 490.933 574.299 471.737L844.111 414.386ZM876.816 640.397C876.816 584.999 832.889 549.427 778.702 560.945L639.708 590.491C585.521 602.008 541.594 656.253 541.594 711.651V1405.43C541.594 1460.83 585.521 1496.4 639.708 1484.88L778.702 1455.34C832.889 1443.82 876.816 1389.58 876.816 1334.18V640.397Z" fill="white"/>
</svg>
