<svg width="3691" height="614" viewBox="0 0 3691 614" fill="none" xmlns="http://www.w3.org/2000/svg">
<path d="M2083.41 255.011L2133.72 143.907H2149.44L2199.91 255.011H2183.24L2138.32 152.795H2144.67L2099.76 255.011H2083.41ZM2104.83 227.235L2109.12 214.537H2171.66L2176.26 227.235H2104.83ZM2216.48 255.011V143.907H2259.81C2274.2 143.907 2285.53 147.346 2293.78 154.224C2302.03 160.996 2306.16 170.466 2306.16 182.634C2306.16 190.676 2304.31 197.607 2300.6 203.427C2296.9 209.141 2291.61 213.532 2284.73 216.6C2277.85 219.669 2269.55 221.203 2259.81 221.203H2225.21L2232.35 213.902V255.011H2216.48ZM2290.76 255.011L2262.51 214.696H2279.49L2308.06 255.011H2290.76ZM2232.35 215.489L2225.21 207.712H2259.34C2269.49 207.712 2277.17 205.543 2282.35 201.205C2287.64 196.76 2290.29 190.57 2290.29 182.634C2290.29 174.698 2287.64 168.561 2282.35 164.223C2277.17 159.885 2269.49 157.715 2259.34 157.715H2225.21L2232.35 149.779V215.489ZM2381.48 256.281C2373.02 256.281 2365.19 254.905 2357.99 252.154C2350.9 249.297 2344.71 245.329 2339.42 240.25C2334.24 235.065 2330.16 229.034 2327.2 222.156C2324.24 215.278 2322.75 207.712 2322.75 199.459C2322.75 191.205 2324.24 183.64 2327.2 176.762C2330.16 169.884 2334.29 163.905 2339.58 158.826C2344.87 153.642 2351.06 149.674 2358.15 146.922C2365.34 144.065 2373.18 142.637 2381.64 142.637C2390.21 142.637 2398.09 144.118 2405.29 147.081C2412.59 149.938 2418.78 154.224 2423.86 159.937L2413.54 169.937C2409.31 165.493 2404.55 162.212 2399.26 160.096C2393.97 157.874 2388.31 156.763 2382.27 156.763C2376.03 156.763 2370.21 157.821 2364.82 159.937C2359.53 162.054 2354.92 165.016 2351.01 168.826C2347.09 172.635 2344.02 177.185 2341.8 182.476C2339.69 187.661 2338.63 193.322 2338.63 199.459C2338.63 205.596 2339.69 211.31 2341.8 216.6C2344.02 221.785 2347.09 226.282 2351.01 230.092C2354.92 233.901 2359.53 236.864 2364.82 238.98C2370.21 241.096 2376.03 242.154 2382.27 242.154C2388.31 242.154 2393.97 241.096 2399.26 238.98C2404.55 236.758 2409.31 233.372 2413.54 228.822L2423.86 238.821C2418.78 244.535 2412.59 248.874 2405.29 251.836C2398.09 254.799 2390.16 256.281 2381.48 256.281ZM2524.63 255.011V143.907H2540.5V255.011H2524.63ZM2444.95 255.011V143.907H2460.82V255.011H2444.95ZM2459.24 205.49V191.681H2526.06V205.49H2459.24ZM2573.76 255.011V143.907H2589.63V255.011H2573.76ZM2644.95 255.011V157.715H2606.86V143.907H2698.76V157.715H2660.67V255.011H2644.95ZM2716.05 255.011V143.907H2794.45V157.715H2731.92V241.202H2796.68V255.011H2716.05ZM2730.49 205.331V191.84H2787.63V205.331H2730.49ZM2871.9 256.281C2863.44 256.281 2855.61 254.905 2848.41 252.154C2841.32 249.297 2835.13 245.329 2829.84 240.25C2824.66 235.065 2820.58 229.034 2817.62 222.156C2814.66 215.278 2813.17 207.712 2813.17 199.459C2813.17 191.205 2814.66 183.64 2817.62 176.762C2820.58 169.884 2824.71 163.905 2830 158.826C2835.29 153.642 2841.48 149.674 2848.57 146.922C2855.76 144.065 2863.6 142.637 2872.06 142.637C2880.63 142.637 2888.51 144.118 2895.71 147.081C2903.01 149.938 2909.2 154.224 2914.28 159.937L2903.96 169.937C2899.73 165.493 2894.97 162.212 2889.68 160.096C2884.39 157.874 2878.73 156.763 2872.69 156.763C2866.45 156.763 2860.63 157.821 2855.24 159.937C2849.95 162.054 2845.34 165.016 2841.43 168.826C2837.51 172.635 2834.44 177.185 2832.22 182.476C2830.11 187.661 2829.05 193.322 2829.05 199.459C2829.05 205.596 2830.11 211.31 2832.22 216.6C2834.44 221.785 2837.51 226.282 2841.43 230.092C2845.34 233.901 2849.95 236.864 2855.24 238.98C2860.63 241.096 2866.45 242.154 2872.69 242.154C2878.73 242.154 2884.39 241.096 2889.68 238.98C2894.97 236.758 2899.73 233.372 2903.96 228.822L2914.28 238.821C2909.2 244.535 2903.01 248.874 2895.71 251.836C2888.51 254.799 2880.58 256.281 2871.9 256.281ZM2954.8 255.011V157.715H2916.71V143.907H3008.61V157.715H2970.51V255.011H2954.8ZM3069.91 256.281C3055.3 256.281 3043.82 252.101 3035.46 243.742C3027.1 235.382 3022.92 223.161 3022.92 207.077V143.907H3038.8V206.442C3038.8 218.823 3041.49 227.87 3046.89 233.584C3052.39 239.297 3060.12 242.154 3070.06 242.154C3080.12 242.154 3087.84 239.297 3093.24 233.584C3098.74 227.87 3101.49 218.823 3101.49 206.442V143.907H3116.89V207.077C3116.89 223.161 3112.71 235.382 3104.35 243.742C3096.09 252.101 3084.61 256.281 3069.91 256.281ZM3149.43 255.011V143.907H3192.76C3207.15 143.907 3218.47 147.346 3226.72 154.224C3234.98 160.996 3239.1 170.466 3239.1 182.634C3239.1 190.676 3237.25 197.607 3233.55 203.427C3229.85 209.141 3224.55 213.532 3217.68 216.6C3210.8 219.669 3202.49 221.203 3192.76 221.203H3158.16L3165.3 213.902V255.011H3149.43ZM3223.71 255.011L3195.46 214.696H3212.44L3241.01 255.011H3223.71ZM3165.3 215.489L3158.16 207.712H3192.28C3202.44 207.712 3210.11 205.543 3215.3 201.205C3220.59 196.76 3223.23 190.57 3223.23 182.634C3223.23 174.698 3220.59 168.561 3215.3 164.223C3210.11 159.885 3202.44 157.715 3192.28 157.715H3158.16L3165.3 149.779V215.489ZM3247.92 255.011L3298.24 143.907H3313.95L3364.42 255.011H3347.76L3302.84 152.795H3309.19L3264.27 255.011H3247.92ZM3269.35 227.235L3273.64 214.537H3336.17L3340.77 227.235H3269.35ZM3381 255.011V143.907H3396.87V241.202H3457.02V255.011H3381ZM2100.23 472.011V360.907H2150.07C2162.87 360.907 2172.71 363.499 2179.59 368.684C2186.47 373.763 2189.91 380.747 2189.91 389.635C2189.91 395.666 2188.53 400.745 2185.78 404.872C2183.14 408.999 2179.54 412.173 2174.99 414.395C2170.44 416.617 2165.52 417.729 2160.23 417.729L2163.09 412.967C2169.43 412.967 2175.04 414.078 2179.91 416.3C2184.78 418.522 2188.64 421.802 2191.5 426.141C2194.35 430.373 2195.78 435.664 2195.78 442.013C2195.78 451.536 2192.18 458.943 2184.99 464.233C2177.9 469.418 2167.32 472.011 2153.24 472.011H2100.23ZM2116.1 459.154H2152.61C2161.39 459.154 2168.11 457.673 2172.77 454.71C2177.42 451.747 2179.75 447.092 2179.75 440.743C2179.75 434.288 2177.42 429.58 2172.77 426.617C2168.11 423.654 2161.39 422.173 2152.61 422.173H2114.68V409.316H2148.64C2156.68 409.316 2162.93 407.835 2167.37 404.872C2171.81 401.909 2174.04 397.465 2174.04 391.54C2174.04 385.614 2171.81 381.17 2167.37 378.207C2162.93 375.244 2156.68 373.763 2148.64 373.763H2116.1V459.154ZM2266.39 473.281C2251.78 473.281 2240.3 469.101 2231.94 460.742C2223.58 452.382 2219.4 440.161 2219.4 424.077V360.907H2235.28V423.442C2235.28 435.823 2237.97 444.87 2243.37 450.584C2248.87 456.297 2256.6 459.154 2266.54 459.154C2276.6 459.154 2284.32 456.297 2289.72 450.584C2295.22 444.87 2297.97 435.823 2297.97 423.442V360.907H2313.37V424.077C2313.37 440.161 2309.19 452.382 2300.83 460.742C2292.57 469.101 2281.09 473.281 2266.39 473.281ZM2345.91 472.011V360.907H2361.78V472.011H2345.91ZM2395.04 472.011V360.907H2410.91V458.202H2471.07V472.011H2395.04ZM2489.28 472.011V360.907H2536.1C2547.96 360.907 2558.38 363.235 2567.37 367.89C2576.47 372.546 2583.51 379.054 2588.48 387.413C2593.56 395.772 2596.1 405.454 2596.1 416.459C2596.1 427.463 2593.56 437.145 2588.48 445.505C2583.51 453.864 2576.47 460.371 2567.37 465.027C2558.38 469.683 2547.96 472.011 2536.1 472.011H2489.28ZM2505.15 458.202H2535.15C2544.36 458.202 2552.29 456.456 2558.96 452.964C2565.73 449.473 2570.97 444.605 2574.67 438.362C2578.38 432.013 2580.23 424.712 2580.23 416.459C2580.23 408.099 2578.38 400.798 2574.67 394.555C2570.97 388.312 2565.73 383.445 2558.96 379.953C2552.29 376.461 2544.36 374.715 2535.15 374.715H2505.15V458.202ZM2620.41 472.011V360.907H2636.28V472.011H2620.41ZM2669.55 472.011V360.907H2682.56L2756.05 452.171H2749.22V360.907H2765.1V472.011H2752.08L2678.59 380.747H2685.42V472.011H2669.55ZM2848.51 473.281C2839.94 473.281 2832.05 471.905 2824.86 469.154C2817.66 466.297 2811.42 462.329 2806.13 457.25C2800.84 452.065 2796.71 446.034 2793.75 439.156C2790.79 432.278 2789.3 424.712 2789.3 416.459C2789.3 408.205 2790.79 400.64 2793.75 393.762C2796.71 386.884 2800.84 380.905 2806.13 375.826C2811.53 370.642 2817.82 366.674 2825.02 363.922C2832.21 361.065 2840.15 359.637 2848.82 359.637C2857.61 359.637 2865.65 361.065 2872.95 363.922C2880.25 366.779 2886.44 371.065 2891.52 376.779L2881.68 386.619C2877.13 382.175 2872.16 378.948 2866.76 376.937C2861.47 374.821 2855.7 373.763 2849.46 373.763C2843.11 373.763 2837.19 374.821 2831.68 376.937C2826.29 379.054 2821.58 382.016 2817.56 385.826C2813.64 389.635 2810.57 394.185 2808.35 399.476C2806.24 404.661 2805.18 410.322 2805.18 416.459C2805.18 422.49 2806.24 428.151 2808.35 433.442C2810.57 438.627 2813.64 443.177 2817.56 447.092C2821.58 450.901 2826.29 453.864 2831.68 455.98C2837.08 458.096 2842.95 459.154 2849.3 459.154C2855.23 459.154 2860.89 458.255 2866.28 456.456C2871.79 454.552 2876.87 451.43 2881.52 447.092L2890.57 459.154C2885.07 463.81 2878.61 467.355 2871.2 469.789C2863.9 472.117 2856.34 473.281 2848.51 473.281ZM2890.57 459.154L2875.33 457.091V415.824H2890.57V459.154ZM2995.96 473.281C2987.5 473.281 2979.4 472.011 2971.68 469.471C2963.95 466.826 2957.87 463.44 2953.42 459.313L2959.3 446.933C2963.53 450.636 2968.93 453.705 2975.49 456.139C2982.05 458.572 2988.87 459.789 2995.96 459.789C3002.42 459.789 3007.65 459.049 3011.67 457.567C3015.7 456.086 3018.66 454.075 3020.56 451.536C3022.47 448.891 3023.42 445.928 3023.42 442.648C3023.42 438.838 3022.15 435.77 3019.61 433.442C3017.18 431.114 3013.95 429.262 3009.93 427.887C3006.01 426.405 3001.67 425.135 2996.91 424.077C2992.15 423.019 2987.34 421.802 2982.47 420.427C2977.71 418.945 2973.32 417.094 2969.3 414.872C2965.38 412.649 2962.21 409.687 2959.77 405.983C2957.34 402.174 2956.12 397.307 2956.12 391.381C2956.12 385.667 2957.6 380.429 2960.57 375.668C2963.63 370.8 2968.29 366.938 2974.53 364.081C2980.88 361.118 2988.92 359.637 2998.66 359.637C3005.11 359.637 3011.52 360.483 3017.86 362.176C3024.21 363.87 3029.72 366.303 3034.37 369.478L3029.13 382.175C3024.37 379.001 3019.35 376.726 3014.06 375.35C3008.76 373.869 3003.63 373.128 2998.66 373.128C2992.42 373.128 2987.28 373.922 2983.26 375.509C2979.24 377.096 2976.28 379.212 2974.38 381.858C2972.58 384.503 2971.68 387.466 2971.68 390.746C2971.68 394.661 2972.89 397.783 2975.33 400.111C2977.87 402.438 2981.09 404.29 2985.01 405.666C2989.03 407.041 2993.42 408.311 2998.18 409.475C3002.94 410.533 3007.71 411.75 3012.47 413.126C3017.34 414.501 3021.73 416.3 3025.64 418.522C3029.66 420.744 3032.89 423.707 3035.32 427.41C3037.76 431.114 3038.97 435.875 3038.97 441.695C3038.97 447.303 3037.44 452.541 3034.37 457.409C3031.3 462.17 3026.54 466.032 3020.09 468.995C3013.74 471.852 3005.7 473.281 2995.96 473.281ZM3086.66 472.011V429.474L3090.31 439.314L3042.54 360.907H3059.52L3099.68 427.093H3090.47L3130.78 360.907H3146.5L3098.88 439.314L3102.37 429.474V472.011H3086.66ZM3192.66 473.281C3184.19 473.281 3176.1 472.011 3168.37 469.471C3160.65 466.826 3154.56 463.44 3150.12 459.313L3155.99 446.933C3160.22 450.636 3165.62 453.705 3172.18 456.139C3178.74 458.572 3185.57 459.789 3192.66 459.789C3199.11 459.789 3204.35 459.049 3208.37 457.567C3212.39 456.086 3215.35 454.075 3217.26 451.536C3219.16 448.891 3220.11 445.928 3220.11 442.648C3220.11 438.838 3218.84 435.77 3216.31 433.442C3213.87 431.114 3210.64 429.262 3206.62 427.887C3202.71 426.405 3198.37 425.135 3193.61 424.077C3188.85 423.019 3184.03 421.802 3179.16 420.427C3174.4 418.945 3170.01 417.094 3165.99 414.872C3162.08 412.649 3158.9 409.687 3156.47 405.983C3154.03 402.174 3152.82 397.307 3152.82 391.381C3152.82 385.667 3154.3 380.429 3157.26 375.668C3160.33 370.8 3164.99 366.938 3171.23 364.081C3177.58 361.118 3185.62 359.637 3195.35 359.637C3201.81 359.637 3208.21 360.483 3214.56 362.176C3220.91 363.87 3226.41 366.303 3231.07 369.478L3225.83 382.175C3221.07 379.001 3216.04 376.726 3210.75 375.35C3205.46 373.869 3200.33 373.128 3195.35 373.128C3189.11 373.128 3183.98 373.922 3179.96 375.509C3175.94 377.096 3172.97 379.212 3171.07 381.858C3169.27 384.503 3168.37 387.466 3168.37 390.746C3168.37 394.661 3169.59 397.783 3172.02 400.111C3174.56 402.438 3177.79 404.29 3181.7 405.666C3185.73 407.041 3190.12 408.311 3194.88 409.475C3199.64 410.533 3204.4 411.75 3209.16 413.126C3214.03 414.501 3218.42 416.3 3222.34 418.522C3226.36 420.744 3229.58 423.707 3232.02 427.41C3234.45 431.114 3235.67 435.875 3235.67 441.695C3235.67 447.303 3234.13 452.541 3231.07 457.409C3228 462.17 3223.24 466.032 3216.78 468.995C3210.43 471.852 3202.39 473.281 3192.66 473.281ZM3279.37 472.011V374.715H3241.28V360.907H3333.18V374.715H3295.08V472.011H3279.37ZM3350.46 472.011V360.907H3428.87V374.715H3366.33V458.202H3431.09V472.011H3350.46ZM3364.91 422.331V408.84H3422.04V422.331H3364.91ZM3456.79 472.011V360.907H3469.81L3519.65 444.87H3512.66L3561.86 360.907H3574.88L3575.04 472.011H3559.8L3559.64 384.873H3563.29L3519.49 458.52H3512.19L3468.06 384.873H3472.03V472.011H3456.79ZM3640.76 473.281C3632.3 473.281 3624.2 472.011 3616.48 469.471C3608.75 466.826 3602.67 463.44 3598.22 459.313L3604.1 446.933C3608.33 450.636 3613.73 453.705 3620.29 456.139C3626.85 458.572 3633.67 459.789 3640.76 459.789C3647.22 459.789 3652.45 459.049 3656.47 457.567C3660.5 456.086 3663.46 454.075 3665.36 451.536C3667.27 448.891 3668.22 445.928 3668.22 442.648C3668.22 438.838 3666.95 435.77 3664.41 433.442C3661.98 431.114 3658.75 429.262 3654.73 427.887C3650.81 426.405 3646.47 425.135 3641.71 424.077C3636.95 423.019 3632.14 421.802 3627.27 420.427C3622.51 418.945 3618.12 417.094 3614.1 414.872C3610.18 412.649 3607.01 409.687 3604.57 405.983C3602.14 402.174 3600.92 397.307 3600.92 391.381C3600.92 385.667 3602.4 380.429 3605.37 375.668C3608.43 370.8 3613.09 366.938 3619.33 364.081C3625.68 361.118 3633.72 359.637 3643.46 359.637C3649.91 359.637 3656.32 360.483 3662.66 362.176C3669.01 363.87 3674.52 366.303 3679.17 369.478L3673.93 382.175C3669.17 379.001 3664.15 376.726 3658.85 375.35C3653.56 373.869 3648.43 373.128 3643.46 373.128C3637.22 373.128 3632.08 373.922 3628.06 375.509C3624.04 377.096 3621.08 379.212 3619.17 381.858C3617.38 384.503 3616.48 387.466 3616.48 390.746C3616.48 394.661 3617.69 397.783 3620.13 400.111C3622.67 402.438 3625.89 404.29 3629.81 405.666C3633.83 407.041 3638.22 408.311 3642.98 409.475C3647.74 410.533 3652.51 411.75 3657.27 413.126C3662.14 414.501 3666.53 416.3 3670.44 418.522C3674.46 420.744 3677.69 423.707 3680.12 427.41C3682.56 431.114 3683.77 435.875 3683.77 441.695C3683.77 447.303 3682.24 452.541 3679.17 457.409C3676.1 462.17 3671.34 466.032 3664.89 468.995C3658.54 471.852 3650.5 473.281 3640.76 473.281Z" fill="#AAAAAA"/>
<line x1="1906.74" y1="613.246" x2="1905.03" y2="0.0263178" stroke="#1DD45A" stroke-width="18.432"/>
<path d="M1682.06 516.006C1650.52 516.006 1626.15 507.942 1608.95 491.814C1591.74 475.328 1583.14 451.136 1583.14 419.238V161.728H1650.34V417.625C1650.34 431.244 1653.75 441.817 1660.56 449.344C1667.72 456.87 1677.58 460.633 1690.12 460.633C1705.18 460.633 1717.72 456.691 1727.76 448.806L1746.57 496.652C1738.69 503.104 1729.01 507.942 1717.54 511.168C1706.07 514.393 1694.24 516.006 1682.06 516.006ZM1535.83 278.924V225.164H1727.22V278.924H1535.83Z" fill="white"/>
<path fill-rule="evenodd" clip-rule="evenodd" d="M1434.73 225.164V512.242H1501.93V225.164H1434.73Z" fill="white"/>
<path d="M1468.6 177.855C1456.05 177.855 1445.66 173.912 1437.42 166.028C1429.53 158.143 1425.59 148.645 1425.59 137.535C1425.59 126.066 1429.53 116.568 1437.42 109.042C1445.66 101.157 1456.05 97.2148 1468.6 97.2148C1481.14 97.2148 1491.36 100.978 1499.24 108.504C1507.48 115.672 1511.61 124.812 1511.61 135.922C1511.61 147.749 1507.66 157.784 1499.78 166.028C1491.89 173.912 1481.5 177.855 1468.6 177.855Z" fill="#1DD45A"/>
<path d="M1141.08 512.242V469.772L1317.95 255.807L1330.31 278.924H1144.3V225.164H1384.07V267.634L1207.2 481.599L1193.76 458.482H1388.91V512.242H1141.08Z" fill="white"/>
<path fill-rule="evenodd" clip-rule="evenodd" d="M1025.46 225.164V512.242H1092.66V225.164H1025.46Z" fill="white"/>
<path d="M1059.33 177.855C1046.78 177.855 1036.39 173.912 1028.15 166.028C1020.26 158.143 1016.32 148.645 1016.32 137.535C1016.32 126.066 1020.26 116.568 1028.15 109.042C1036.39 101.157 1046.78 97.2148 1059.33 97.2148C1071.87 97.2148 1082.09 100.978 1089.97 108.504C1098.21 115.672 1102.34 124.812 1102.34 135.922C1102.34 147.749 1098.39 157.784 1090.51 166.028C1082.62 173.912 1072.23 177.855 1059.33 177.855Z" fill="#1DD45A"/>
<path d="M818.461 512.242V225.164H882.435V304.191L874.909 281.074C883.511 261.721 896.951 247.026 915.229 236.991C933.866 226.956 956.983 221.938 984.579 221.938V285.913C981.712 285.196 979.024 284.838 976.515 284.838C974.007 284.479 971.498 284.3 968.989 284.3C943.543 284.3 923.293 291.826 908.24 306.879C893.187 321.574 885.661 343.615 885.661 373.004V512.242H818.461Z" fill="white"/>
<path d="M625.169 516.006C600.797 516.006 579.114 510.63 560.119 499.878C541.124 489.126 526.071 472.998 514.961 451.494C504.209 429.632 498.833 402.035 498.833 368.704C498.833 335.014 504.388 307.417 515.498 285.913C526.967 264.409 542.199 248.461 561.194 238.067C580.548 227.315 601.873 221.939 625.169 221.939C653.482 221.939 678.391 228.032 699.895 240.217C721.757 252.403 738.961 269.427 751.505 291.289C764.407 313.152 770.858 338.957 770.858 368.704C770.858 398.451 764.407 424.256 751.505 446.118C738.961 467.981 721.757 485.184 699.895 497.728C678.391 509.913 653.482 516.006 625.169 516.006ZM466.039 512.243V113.344H533.239V291.827L527.863 368.166L530.013 444.505V512.243H466.039ZM617.642 458.483C633.77 458.483 648.106 454.899 660.65 447.731C673.553 440.563 683.767 430.169 691.293 416.55C698.82 402.931 702.583 386.982 702.583 368.704C702.583 350.067 698.82 334.118 691.293 320.857C683.767 307.238 673.553 296.845 660.65 289.677C648.106 282.509 633.77 278.925 617.642 278.925C601.514 278.925 586.999 282.509 574.097 289.677C561.194 296.845 550.98 307.238 543.453 320.857C535.927 334.118 532.164 350.067 532.164 368.704C532.164 386.982 535.927 402.931 543.453 416.55C550.98 430.169 561.194 440.563 574.097 447.731C586.999 454.899 601.514 458.483 617.642 458.483Z" fill="white"/>
<path d="M216.668 1.80467C261.824 -7.79346 298.43 21.8495 298.43 68.014V481.775C298.429 527.94 261.824 573.144 216.668 582.742L81.7617 611.418C36.6061 621.016 5.42697e-05 591.373 0 545.208V131.447C0 85.2825 36.606 40.0781 81.7617 30.4799L216.668 1.80467ZM233.02 114.81C233.02 87.1112 211.057 69.3252 183.963 75.0841L114.466 89.8569C87.373 95.6158 65.4094 122.738 65.4094 150.437V497.328C65.4094 525.026 87.373 542.812 114.466 537.053L183.963 522.281C211.057 516.522 233.02 489.399 233.02 461.701V114.81Z" fill="#1DD45A"/>
</svg>
