<svg width="14416" height="2396" viewBox="0 0 14416 2396" fill="none" xmlns="http://www.w3.org/2000/svg">
<path d="M8138.32 994.703L8334.86 560.703H8396.24L8593.4 994.703H8528.3L8352.84 595.423H8377.64L8202.18 994.703H8138.32ZM8222.02 886.203L8238.76 836.603H8483.04L8501.02 886.203H8222.02ZM8658.14 994.703V560.703H8827.4C8883.62 560.703 8927.84 574.136 8960.08 601.003C8992.32 627.456 9008.44 664.45 9008.44 711.983C9008.44 743.396 9001.21 770.47 8986.74 793.203C8972.28 815.523 8951.61 832.676 8924.74 844.663C8897.88 856.65 8865.43 862.643 8827.4 862.643H8692.24L8720.14 834.123V994.703H8658.14ZM8948.3 994.703L8837.94 837.223H8904.28L9015.88 994.703H8948.3ZM8720.14 840.323L8692.24 809.943H8825.54C8865.22 809.943 8895.19 801.47 8915.44 784.523C8936.11 767.163 8946.44 742.983 8946.44 711.983C8946.44 680.983 8936.11 657.01 8915.44 640.063C8895.19 623.116 8865.22 614.643 8825.54 614.643H8692.24L8720.14 583.643V840.323ZM9302.67 999.663C9269.61 999.663 9239.02 994.29 9210.91 983.543C9183.22 972.383 9159.04 956.883 9138.37 937.043C9118.12 916.79 9102.21 893.23 9090.63 866.363C9079.06 839.496 9073.27 809.943 9073.27 777.703C9073.27 745.463 9079.06 715.91 9090.63 689.043C9102.21 662.176 9118.33 638.823 9138.99 618.983C9159.66 598.73 9183.84 583.23 9211.53 572.483C9239.64 561.323 9270.23 555.743 9303.29 555.743C9336.77 555.743 9367.57 561.53 9395.67 573.103C9424.19 584.263 9448.37 601.003 9468.21 623.323L9427.91 662.383C9411.38 645.023 9392.78 632.21 9372.11 623.943C9351.45 615.263 9329.33 610.923 9305.77 610.923C9281.39 610.923 9258.65 615.056 9237.57 623.323C9216.91 631.59 9198.93 643.163 9183.63 658.043C9168.34 672.923 9156.35 690.696 9147.67 711.363C9139.41 731.616 9135.27 753.73 9135.27 777.703C9135.27 801.676 9139.41 823.996 9147.67 844.663C9156.35 864.916 9168.34 882.483 9183.63 897.363C9198.93 912.243 9216.91 923.816 9237.57 932.083C9258.65 940.35 9281.39 944.483 9305.77 944.483C9329.33 944.483 9351.45 940.35 9372.11 932.083C9392.78 923.403 9411.38 910.176 9427.91 892.403L9468.21 931.463C9448.37 953.783 9424.19 970.73 9395.67 982.303C9367.57 993.876 9336.57 999.663 9302.67 999.663ZM9861.84 994.703V560.703H9923.84V994.703H9861.84ZM9550.6 994.703V560.703H9612.6V994.703H9550.6ZM9606.4 801.263V747.323H9867.42V801.263H9606.4ZM10053.7 994.703V560.703H10115.7V994.703H10053.7ZM10331.9 994.703V614.643H10183.1V560.703H10542V614.643H10393.2V994.703H10331.9ZM10609.6 994.703V560.703H10915.8V614.643H10671.6V940.763H10924.5V994.703H10609.6ZM10666 800.643V747.943H10889.2V800.643H10666ZM11218.4 999.663C11185.3 999.663 11154.7 994.29 11126.6 983.543C11098.9 972.383 11074.7 956.883 11054.1 937.043C11033.8 916.79 11017.9 893.23 11006.3 866.363C10994.8 839.496 10989 809.943 10989 777.703C10989 745.463 10994.8 715.91 11006.3 689.043C11017.9 662.176 11034 638.823 11054.7 618.983C11075.4 598.73 11099.5 583.23 11127.2 572.483C11155.3 561.323 11185.9 555.743 11219 555.743C11252.5 555.743 11283.3 561.53 11311.4 573.103C11339.9 584.263 11364.1 601.003 11383.9 623.323L11343.6 662.383C11327.1 645.023 11308.5 632.21 11287.8 623.943C11267.1 615.263 11245 610.923 11221.5 610.923C11197.1 610.923 11174.4 615.056 11153.3 623.323C11132.6 631.59 11114.6 643.163 11099.3 658.043C11084 672.923 11072.1 690.696 11063.4 711.363C11055.1 731.616 11051 753.73 11051 777.703C11051 801.676 11055.1 823.996 11063.4 844.663C11072.1 864.916 11084 882.483 11099.3 897.363C11114.6 912.243 11132.6 923.816 11153.3 932.083C11174.4 940.35 11197.1 944.483 11221.5 944.483C11245 944.483 11267.1 940.35 11287.8 932.083C11308.5 923.403 11327.1 910.176 11343.6 892.403L11383.9 931.463C11364.1 953.783 11339.9 970.73 11311.4 982.303C11283.3 993.876 11252.3 999.663 11218.4 999.663ZM11542.2 994.703V614.643H11393.4V560.703H11752.4V614.643H11603.6V994.703H11542.2ZM11991.8 999.663C11934.8 999.663 11889.9 983.336 11857.3 950.683C11824.6 918.03 11808.3 870.29 11808.3 807.463V560.703H11870.3V804.983C11870.3 853.343 11880.9 888.683 11901.9 911.003C11923.4 933.323 11953.6 944.483 11992.5 944.483C12031.7 944.483 12061.9 933.323 12083 911.003C12104.5 888.683 12115.2 853.343 12115.2 804.983V560.703H12175.4V807.463C12175.4 870.29 12159 918.03 12126.4 950.683C12094.1 983.336 12049.3 999.663 11991.8 999.663ZM12302.5 994.703V560.703H12471.7C12527.9 560.703 12572.2 574.136 12604.4 601.003C12636.6 627.456 12652.8 664.45 12652.8 711.983C12652.8 743.396 12645.5 770.47 12631.1 793.203C12616.6 815.523 12595.9 832.676 12569.1 844.663C12542.2 856.65 12509.7 862.643 12471.7 862.643H12336.6L12364.5 834.123V994.703H12302.5ZM12592.6 994.703L12482.3 837.223H12548.6L12660.2 994.703H12592.6ZM12364.5 840.323L12336.6 809.943H12469.9C12509.5 809.943 12539.5 801.47 12559.8 784.523C12580.4 767.163 12590.8 742.983 12590.8 711.983C12590.8 680.983 12580.4 657.01 12559.8 640.063C12539.5 623.116 12509.5 614.643 12469.9 614.643H12336.6L12364.5 583.643V840.323ZM12687.2 994.703L12883.7 560.703H12945.1L13142.3 994.703H13077.2L12901.7 595.423H12926.5L12751.1 994.703H12687.2ZM12770.9 886.203L12787.6 836.603H13031.9L13049.9 886.203H12770.9ZM13207 994.703V560.703H13269V940.763H13504V994.703H13207ZM8204.04 1844.7V1410.7H8398.72C8448.74 1410.7 8487.18 1420.83 8514.04 1441.08C8540.91 1460.92 8554.34 1488.2 8554.34 1522.92C8554.34 1546.48 8548.97 1566.32 8538.22 1582.44C8527.89 1598.56 8513.84 1610.96 8496.06 1619.64C8478.29 1628.32 8459.07 1632.66 8438.4 1632.66L8449.56 1614.06C8474.36 1614.06 8496.27 1618.4 8515.28 1627.08C8534.3 1635.76 8549.38 1648.58 8560.54 1665.52C8571.7 1682.06 8577.28 1702.72 8577.28 1727.52C8577.28 1764.72 8563.23 1793.66 8535.12 1814.32C8507.43 1834.58 8466.1 1844.7 8411.12 1844.7H8204.04ZM8266.04 1794.48H8408.64C8442.95 1794.48 8469.2 1788.7 8487.38 1777.12C8505.57 1765.55 8514.66 1747.36 8514.66 1722.56C8514.66 1697.35 8505.57 1678.96 8487.38 1667.38C8469.2 1655.81 8442.95 1650.02 8408.64 1650.02H8260.46V1599.8H8393.14C8424.56 1599.8 8448.94 1594.02 8466.3 1582.44C8483.66 1570.87 8492.34 1553.51 8492.34 1530.36C8492.34 1507.22 8483.66 1489.86 8466.3 1478.28C8448.94 1466.71 8424.56 1460.92 8393.14 1460.92H8266.04V1794.48ZM8853.08 1849.66C8796.04 1849.66 8751.19 1833.34 8718.54 1800.68C8685.89 1768.03 8669.56 1720.29 8669.56 1657.46V1410.7H8731.56V1654.98C8731.56 1703.34 8742.1 1738.68 8763.18 1761C8784.67 1783.32 8814.85 1794.48 8853.7 1794.48C8892.97 1794.48 8923.14 1783.32 8944.22 1761C8965.71 1738.68 8976.46 1703.34 8976.46 1654.98V1410.7H9036.6V1657.46C9036.6 1720.29 9020.27 1768.03 8987.62 1800.68C8955.38 1833.34 8910.53 1849.66 8853.08 1849.66ZM9163.71 1844.7V1410.7H9225.71V1844.7H9163.71ZM9355.64 1844.7V1410.7H9417.64V1790.76H9652.62V1844.7H9355.64ZM9723.77 1844.7V1410.7H9906.67C9952.96 1410.7 9993.68 1419.8 10028.8 1437.98C10064.4 1456.17 10091.8 1481.59 10111.3 1514.24C10131.1 1546.9 10141 1584.72 10141 1627.7C10141 1670.69 10131.1 1708.51 10111.3 1741.16C10091.8 1773.82 10064.4 1799.24 10028.8 1817.42C9993.68 1835.61 9952.96 1844.7 9906.67 1844.7H9723.77ZM9785.77 1790.76H9902.95C9938.91 1790.76 9969.91 1783.94 9995.95 1770.3C10022.4 1756.66 10042.9 1737.65 10057.3 1713.26C10071.8 1688.46 10079 1659.94 10079 1627.7C10079 1595.05 10071.8 1566.53 10057.3 1542.14C10042.9 1517.76 10022.4 1498.74 9995.95 1485.1C9969.91 1471.46 9938.91 1464.64 9902.95 1464.64H9785.77V1790.76ZM10236 1844.7V1410.7H10298V1844.7H10236ZM10427.9 1844.7V1410.7H10478.8L10765.8 1767.2H10739.2V1410.7H10801.2V1844.7H10750.3L10463.3 1488.2H10489.9V1844.7H10427.9ZM11127 1849.66C11093.5 1849.66 11062.7 1844.29 11034.6 1833.54C11006.5 1822.38 10982.1 1806.88 10961.5 1787.04C10940.8 1766.79 10924.7 1743.23 10913.1 1716.36C10901.5 1689.5 10895.7 1659.94 10895.7 1627.7C10895.7 1595.46 10901.5 1565.91 10913.1 1539.04C10924.7 1512.18 10940.8 1488.82 10961.5 1468.98C10982.5 1448.73 11007.1 1433.23 11035.2 1422.48C11063.3 1411.32 11094.3 1405.74 11128.2 1405.74C11162.5 1405.74 11194 1411.32 11222.5 1422.48C11251 1433.64 11275.2 1450.38 11295 1472.7L11256.6 1511.14C11238.8 1493.78 11219.4 1481.18 11198.3 1473.32C11177.6 1465.06 11155.1 1460.92 11130.7 1460.92C11105.9 1460.92 11082.8 1465.06 11061.3 1473.32C11040.2 1481.59 11021.8 1493.16 11006.1 1508.04C10990.8 1522.92 10978.8 1540.7 10970.1 1561.36C10961.9 1581.62 10957.7 1603.73 10957.7 1627.7C10957.7 1651.26 10961.9 1673.38 10970.1 1694.04C10978.8 1714.3 10990.8 1732.07 11006.1 1747.36C11021.8 1762.24 11040.2 1773.82 11061.3 1782.08C11082.4 1790.35 11105.3 1794.48 11130.1 1794.48C11153.2 1794.48 11175.4 1790.97 11196.4 1783.94C11217.9 1776.5 11237.8 1764.31 11256 1747.36L11291.3 1794.48C11269.8 1812.67 11244.6 1826.52 11215.7 1836.02C11187.1 1845.12 11157.6 1849.66 11127 1849.66ZM11291.3 1794.48L11231.8 1786.42V1625.22H11291.3V1794.48ZM11703 1849.66C11669.9 1849.66 11638.3 1844.7 11608.1 1834.78C11577.9 1824.45 11554.2 1811.22 11536.8 1795.1L11559.8 1746.74C11576.3 1761.21 11597.4 1773.2 11623 1782.7C11648.6 1792.21 11675.3 1796.96 11703 1796.96C11728.2 1796.96 11748.7 1794.07 11764.4 1788.28C11780.1 1782.5 11791.6 1774.64 11799.1 1764.72C11806.5 1754.39 11810.2 1742.82 11810.2 1730C11810.2 1715.12 11805.3 1703.14 11795.4 1694.04C11785.9 1684.95 11773.3 1677.72 11757.5 1672.34C11742.2 1666.56 11725.3 1661.6 11706.7 1657.46C11688.1 1653.33 11669.3 1648.58 11650.3 1643.2C11631.7 1637.42 11614.5 1630.18 11598.8 1621.5C11583.5 1612.82 11571.1 1601.25 11561.6 1586.78C11552.1 1571.9 11547.4 1552.89 11547.4 1529.74C11547.4 1507.42 11553.1 1486.96 11564.7 1468.36C11576.7 1449.35 11594.9 1434.26 11619.3 1423.1C11644.1 1411.53 11675.5 1405.74 11713.5 1405.74C11738.7 1405.74 11763.7 1409.05 11788.5 1415.66C11813.3 1422.28 11834.8 1431.78 11853 1444.18L11832.6 1493.78C11814 1481.38 11794.3 1472.5 11773.7 1467.12C11753 1461.34 11732.9 1458.44 11713.5 1458.44C11689.1 1458.44 11669.1 1461.54 11653.4 1467.74C11637.7 1473.94 11626.1 1482.21 11618.7 1492.54C11611.6 1502.88 11608.1 1514.45 11608.1 1527.26C11608.1 1542.56 11612.9 1554.75 11622.4 1563.84C11632.3 1572.94 11644.9 1580.17 11660.2 1585.54C11675.9 1590.92 11693.1 1595.88 11711.7 1600.42C11730.3 1604.56 11748.9 1609.31 11767.5 1614.68C11786.5 1620.06 11803.6 1627.08 11818.9 1635.76C11834.6 1644.44 11847.2 1656.02 11856.7 1670.48C11866.3 1684.95 11871 1703.55 11871 1726.28C11871 1748.19 11865 1768.65 11853 1787.66C11841 1806.26 11822.4 1821.35 11797.2 1832.92C11772.4 1844.08 11741 1849.66 11703 1849.66ZM12057.3 1844.7V1678.54L12071.5 1716.98L11884.9 1410.7H11951.3L12108.1 1669.24H12072.2L12229.6 1410.7H12291L12105 1716.98L12118.7 1678.54V1844.7H12057.3ZM12471.3 1849.66C12438.3 1849.66 12406.6 1844.7 12376.5 1834.78C12346.3 1824.45 12322.5 1811.22 12305.2 1795.1L12328.1 1746.74C12344.6 1761.21 12365.7 1773.2 12391.3 1782.7C12417 1792.21 12443.6 1796.96 12471.3 1796.96C12496.5 1796.96 12517 1794.07 12532.7 1788.28C12548.4 1782.5 12560 1774.64 12567.4 1764.72C12574.9 1754.39 12578.6 1742.82 12578.6 1730C12578.6 1715.12 12573.6 1703.14 12563.7 1694.04C12554.2 1684.95 12541.6 1677.72 12525.9 1672.34C12510.6 1666.56 12493.6 1661.6 12475 1657.46C12456.4 1653.33 12437.6 1648.58 12418.6 1643.2C12400 1637.42 12382.9 1630.18 12367.2 1621.5C12351.9 1612.82 12339.5 1601.25 12330 1586.78C12320.5 1571.9 12315.7 1552.89 12315.7 1529.74C12315.7 1507.42 12321.5 1486.96 12333.1 1468.36C12345 1449.35 12363.2 1434.26 12387.6 1423.1C12412.4 1411.53 12443.8 1405.74 12481.9 1405.74C12507.1 1405.74 12532.1 1409.05 12556.9 1415.66C12581.7 1422.28 12603.2 1431.78 12621.4 1444.18L12600.9 1493.78C12582.3 1481.38 12562.7 1472.5 12542 1467.12C12521.3 1461.34 12501.3 1458.44 12481.9 1458.44C12457.5 1458.44 12437.4 1461.54 12421.7 1467.74C12406 1473.94 12394.4 1482.21 12387 1492.54C12380 1502.88 12376.5 1514.45 12376.5 1527.26C12376.5 1542.56 12381.2 1554.75 12390.7 1563.84C12400.6 1572.94 12413.2 1580.17 12428.5 1585.54C12444.2 1590.92 12461.4 1595.88 12480 1600.42C12498.6 1604.56 12517.2 1609.31 12535.8 1614.68C12554.8 1620.06 12572 1627.08 12587.3 1635.76C12603 1644.44 12615.6 1656.02 12625.1 1670.48C12634.6 1684.95 12639.3 1703.55 12639.3 1726.28C12639.3 1748.19 12633.3 1768.65 12621.4 1787.66C12609.4 1806.26 12590.8 1821.35 12565.6 1832.92C12540.8 1844.08 12509.3 1849.66 12471.3 1849.66ZM12810 1844.7V1464.64H12661.2V1410.7H13020.2V1464.64H12871.4V1844.7H12810ZM13087.8 1844.7V1410.7H13394V1464.64H13149.8V1790.76H13402.7V1844.7H13087.8ZM13144.2 1650.64V1597.94H13367.4V1650.64H13144.2ZM13503.1 1844.7V1410.7H13553.9L13748.6 1738.68H13721.3L13913.5 1410.7H13964.4L13965 1844.7H13905.5L13904.9 1504.32H13919.1L13748 1792H13719.5L13547.1 1504.32H13562.6V1844.7H13503.1ZM14221.7 1849.66C14188.7 1849.66 14157 1844.7 14126.9 1834.78C14096.7 1824.45 14072.9 1811.22 14055.6 1795.1L14078.5 1746.74C14095 1761.21 14116.1 1773.2 14141.8 1782.7C14167.4 1792.21 14194 1796.96 14221.7 1796.96C14246.9 1796.96 14267.4 1794.07 14283.1 1788.28C14298.8 1782.5 14310.4 1774.64 14317.8 1764.72C14325.3 1754.39 14329 1742.82 14329 1730C14329 1715.12 14324 1703.14 14314.1 1694.04C14304.6 1684.95 14292 1677.72 14276.3 1672.34C14261 1666.56 14244.1 1661.6 14225.5 1657.46C14206.9 1653.33 14188 1648.58 14169 1643.2C14150.4 1637.42 14133.3 1630.18 14117.6 1621.5C14102.3 1612.82 14089.9 1601.25 14080.4 1586.78C14070.9 1571.9 14066.1 1552.89 14066.1 1529.74C14066.1 1507.42 14071.9 1486.96 14083.5 1468.36C14095.5 1449.35 14113.6 1434.26 14138 1423.1C14162.8 1411.53 14194.2 1405.74 14232.3 1405.74C14257.5 1405.74 14282.5 1409.05 14307.3 1415.66C14332.1 1422.28 14353.6 1431.78 14371.8 1444.18L14351.3 1493.78C14332.7 1481.38 14313.1 1472.5 14292.4 1467.12C14271.7 1461.34 14251.7 1458.44 14232.3 1458.44C14207.9 1458.44 14187.8 1461.54 14172.1 1467.74C14156.4 1473.94 14144.9 1482.21 14137.4 1492.54C14130.4 1502.88 14126.9 1514.45 14126.9 1527.26C14126.9 1542.56 14131.6 1554.75 14141.1 1563.84C14151.1 1572.94 14163.7 1580.17 14179 1585.54C14194.7 1590.92 14211.8 1595.88 14230.4 1600.42C14249 1604.56 14267.6 1609.31 14286.2 1614.68C14305.2 1620.06 14322.4 1627.08 14337.7 1635.76C14353.4 1644.44 14366 1656.02 14375.5 1670.48C14385 1684.95 14389.8 1703.55 14389.8 1726.28C14389.8 1748.19 14383.8 1768.65 14371.8 1787.66C14359.8 1806.26 14341.2 1821.35 14316 1832.92C14291.2 1844.08 14259.8 1849.66 14221.7 1849.66Z" fill="#AAAAAA"/>
<line x1="7448.2" y1="2395.5" x2="7441.55" y2="0.107777" stroke="#1DD45A" stroke-width="72"/>
<path d="M6570.55 2015.65C6447.35 2015.65 6352.15 1984.15 6284.95 1921.15C6217.75 1856.75 6184.15 1762.25 6184.15 1637.65V631.754H6446.65V1631.35C6446.65 1684.55 6459.95 1725.85 6486.55 1755.25C6514.55 1784.65 6553.05 1799.35 6602.05 1799.35C6660.85 1799.35 6709.85 1783.95 6749.05 1753.15L6822.55 1940.05C6791.75 1965.25 6753.95 1984.15 6709.15 1996.75C6664.35 2009.35 6618.15 2015.65 6570.55 2015.65ZM5999.35 1089.55V879.554H6746.95V1089.55H5999.35Z" fill="white"/>
<path fill-rule="evenodd" clip-rule="evenodd" d="M5604.42 879.554V2000.95H5866.92V879.554H5604.42Z" fill="white"/>
<path d="M5736.72 694.754C5687.72 694.754 5647.12 679.354 5614.92 648.554C5584.12 617.754 5568.72 580.654 5568.72 537.254C5568.72 492.454 5584.12 455.354 5614.92 425.954C5647.12 395.154 5687.72 379.754 5736.72 379.754C5785.72 379.754 5825.62 394.454 5856.42 423.854C5888.62 451.854 5904.72 487.554 5904.72 530.954C5904.72 577.154 5889.32 616.354 5858.52 648.554C5827.72 679.354 5787.12 694.754 5736.72 694.754Z" fill="#1DD45A"/>
<path d="M4457.34 2000.95V1835.05L5148.24 999.254L5196.54 1089.55H4469.94V879.554H5406.54V1045.45L4715.64 1881.25L4663.14 1790.95H5425.44V2000.95H4457.34Z" fill="white"/>
<path fill-rule="evenodd" clip-rule="evenodd" d="M4005.71 879.554V2000.95H4268.21V879.554H4005.71Z" fill="white"/>
<path d="M4138.01 694.754C4089.01 694.754 4048.41 679.354 4016.21 648.554C3985.41 617.754 3970.01 580.654 3970.01 537.254C3970.01 492.454 3985.41 455.354 4016.21 425.954C4048.41 395.154 4089.01 379.754 4138.01 379.754C4187.01 379.754 4226.91 394.454 4257.71 423.854C4289.91 451.854 4306.01 487.554 4306.01 530.954C4306.01 577.154 4290.61 616.354 4259.81 648.554C4229.01 679.354 4188.41 694.754 4138.01 694.754Z" fill="#1DD45A"/>
<path d="M3197.13 2000.95V879.553H3447.03V1188.25L3417.63 1097.95C3451.23 1022.35 3503.73 964.953 3575.13 925.753C3647.93 886.553 3738.23 866.953 3846.03 866.953V1116.85C3834.83 1114.05 3824.33 1112.65 3814.53 1112.65C3804.73 1111.25 3794.93 1110.55 3785.13 1110.55C3685.73 1110.55 3606.63 1139.95 3547.83 1198.75C3489.03 1256.15 3459.63 1342.25 3459.63 1457.05V2000.95H3197.13Z" fill="white"/>
<path d="M2442.08 2015.65C2346.88 2015.65 2262.18 1994.65 2187.98 1952.65C2113.78 1910.65 2054.98 1847.65 2011.58 1763.65C1969.58 1678.25 1948.58 1570.45 1948.58 1440.25C1948.58 1308.65 1970.28 1200.85 2013.68 1116.85C2058.48 1032.85 2117.98 970.554 2192.18 929.954C2267.78 887.954 2351.08 866.954 2442.08 866.954C2552.68 866.954 2649.98 890.754 2733.98 938.354C2819.38 985.954 2886.58 1052.45 2935.58 1137.85C2985.98 1223.25 3011.18 1324.05 3011.18 1440.25C3011.18 1556.45 2985.98 1657.25 2935.58 1742.65C2886.58 1828.05 2819.38 1895.25 2733.98 1944.25C2649.98 1991.85 2552.68 2015.65 2442.08 2015.65ZM1820.48 2000.95V442.754H2082.98V1139.95L2061.98 1438.15L2070.38 1736.35V2000.95H1820.48ZM2412.68 1790.95C2475.68 1790.95 2531.68 1776.95 2580.68 1748.95C2631.08 1720.95 2670.98 1680.35 2700.38 1627.15C2729.78 1573.95 2744.48 1511.65 2744.48 1440.25C2744.48 1367.45 2729.78 1305.15 2700.38 1253.35C2670.98 1200.15 2631.08 1159.55 2580.68 1131.55C2531.68 1103.55 2475.68 1089.55 2412.68 1089.55C2349.68 1089.55 2292.98 1103.55 2242.58 1131.55C2192.18 1159.55 2152.28 1200.15 2122.88 1253.35C2093.48 1305.15 2078.78 1367.45 2078.78 1440.25C2078.78 1511.65 2093.48 1573.95 2122.88 1627.15C2152.28 1680.35 2192.18 1720.95 2242.58 1748.95C2292.98 1776.95 2349.68 1790.95 2412.68 1790.95Z" fill="white"/>
<path d="M846.359 7.04948C1022.75 -30.4432 1165.74 85.3497 1165.74 265.68V1881.93C1165.74 2062.26 1022.75 2238.84 846.359 2276.34L319.382 2388.35C142.993 2425.84 0.000211991 2310.05 0 2129.72V513.464C0 333.135 142.992 156.555 319.382 119.062L846.359 7.04948ZM910.236 448.476C910.236 340.278 824.44 270.802 718.607 293.297L447.134 351.004C341.301 373.499 255.505 479.446 255.505 587.644V1942.69C255.506 2050.88 341.301 2120.36 447.134 2097.87L718.607 2040.16C824.44 2017.66 910.236 1911.72 910.236 1803.52V448.476Z" fill="#1DD45A"/>
</svg>
