<svg width="232" height="39" viewBox="0 0 232 39" fill="none" xmlns="http://www.w3.org/2000/svg">
<path d="M130.213 15.5625L133.357 8.6185H134.339L137.494 15.5625H136.452L133.645 9.17402H134.042L131.234 15.5625H130.213ZM131.552 13.8265L131.82 13.0329H135.728L136.016 13.8265H131.552ZM138.53 15.5625V8.6185H141.238C142.137 8.6185 142.845 8.83343 143.361 9.2633C143.877 9.68655 144.135 10.2784 144.135 11.039C144.135 11.5416 144.019 11.9748 143.787 12.3385C143.556 12.6956 143.225 12.9701 142.795 13.1619C142.366 13.3536 141.846 13.4495 141.238 13.4495H139.075L139.522 12.9932V15.5625H138.53ZM143.172 15.5625L141.407 13.0428H142.468L144.254 15.5625H143.172ZM139.522 13.0924L139.075 12.6063H141.208C141.843 12.6063 142.323 12.4708 142.647 12.1996C142.977 11.9219 143.143 11.535 143.143 11.039C143.143 10.543 142.977 10.1594 142.647 9.88826C142.323 9.61711 141.843 9.48154 141.208 9.48154H139.075L139.522 8.98554V13.0924ZM148.842 15.6419C148.313 15.6419 147.824 15.5559 147.374 15.3839C146.931 15.2054 146.544 14.9574 146.214 14.6399C145.889 14.3159 145.635 13.9389 145.45 13.5091C145.265 13.0792 145.172 12.6063 145.172 12.0905C145.172 11.5747 145.265 11.1018 145.45 10.6719C145.635 10.2421 145.893 9.86842 146.223 9.55098C146.554 9.22693 146.941 8.97893 147.384 8.80698C147.834 8.62842 148.323 8.53914 148.852 8.53914C149.388 8.53914 149.881 8.63173 150.33 8.8169C150.787 8.99546 151.174 9.2633 151.491 9.62042L150.846 10.2454C150.582 9.96762 150.284 9.76261 149.953 9.63034C149.623 9.49146 149.269 9.42202 148.892 9.42202C148.502 9.42202 148.138 9.48815 147.801 9.62042C147.47 9.75269 147.182 9.93786 146.938 10.1759C146.693 10.414 146.501 10.6984 146.362 11.0291C146.23 11.3531 146.164 11.7069 146.164 12.0905C146.164 12.4741 146.23 12.8312 146.362 13.1619C146.501 13.4859 146.693 13.767 146.938 14.0051C147.182 14.2431 147.47 14.4283 147.801 14.5606C148.138 14.6928 148.502 14.759 148.892 14.759C149.269 14.759 149.623 14.6928 149.953 14.5606C150.284 14.4217 150.582 14.2101 150.846 13.9257L151.491 14.5507C151.174 14.9078 150.787 15.1789 150.33 15.3641C149.881 15.5493 149.385 15.6419 148.842 15.6419ZM157.789 15.5625V8.6185H158.781V15.5625H157.789ZM152.809 15.5625V8.6185H153.801V15.5625H152.809ZM153.702 12.4675V11.6044H157.878V12.4675H153.702ZM160.86 15.5625V8.6185H161.852V15.5625H160.86ZM165.309 15.5625V9.48154H162.929V8.6185H168.672V9.48154H166.291V15.5625H165.309ZM169.753 15.5625V8.6185H174.653V9.48154H170.745V14.6995H174.792V15.5625H169.753ZM170.655 12.4575V11.6143H174.227V12.4575H170.655ZM179.494 15.6419C178.965 15.6419 178.475 15.5559 178.025 15.3839C177.582 15.2054 177.195 14.9574 176.865 14.6399C176.541 14.3159 176.286 13.9389 176.101 13.5091C175.916 13.0792 175.823 12.6063 175.823 12.0905C175.823 11.5747 175.916 11.1018 176.101 10.6719C176.286 10.2421 176.544 9.86842 176.875 9.55098C177.205 9.22693 177.592 8.97893 178.035 8.80698C178.485 8.62842 178.974 8.53914 179.504 8.53914C180.039 8.53914 180.532 8.63173 180.982 8.8169C181.438 8.99546 181.825 9.2633 182.142 9.62042L181.497 10.2454C181.233 9.96762 180.935 9.76261 180.605 9.63034C180.274 9.49146 179.92 9.42202 179.543 9.42202C179.153 9.42202 178.789 9.48815 178.452 9.62042C178.121 9.75269 177.834 9.93786 177.589 10.1759C177.344 10.414 177.152 10.6984 177.014 11.0291C176.881 11.3531 176.815 11.7069 176.815 12.0905C176.815 12.4741 176.881 12.8312 177.014 13.1619C177.152 13.4859 177.344 13.767 177.589 14.0051C177.834 14.2431 178.121 14.4283 178.452 14.5606C178.789 14.6928 179.153 14.759 179.543 14.759C179.92 14.759 180.274 14.6928 180.605 14.5606C180.935 14.4217 181.233 14.2101 181.497 13.9257L182.142 14.5507C181.825 14.9078 181.438 15.1789 180.982 15.3641C180.532 15.5493 180.036 15.6419 179.494 15.6419ZM184.675 15.5625V9.48154H182.294V8.6185H188.038V9.48154H185.657V15.5625H184.675ZM191.869 15.6419C190.956 15.6419 190.239 15.3806 189.716 14.8582C189.194 14.3357 188.933 13.5719 188.933 12.5667V8.6185H189.925V12.527C189.925 13.3007 190.093 13.8662 190.43 14.2233C190.774 14.5804 191.257 14.759 191.879 14.759C192.507 14.759 192.99 14.5804 193.327 14.2233C193.671 13.8662 193.843 13.3007 193.843 12.527V8.6185H194.805V12.5667C194.805 13.5719 194.544 14.3357 194.022 14.8582C193.506 15.3806 192.788 15.6419 191.869 15.6419ZM196.839 15.5625V8.6185H199.547C200.447 8.6185 201.154 8.83343 201.67 9.2633C202.186 9.68655 202.444 10.2784 202.444 11.039C202.444 11.5416 202.328 11.9748 202.097 12.3385C201.865 12.6956 201.534 12.9701 201.105 13.1619C200.675 13.3536 200.156 13.4495 199.547 13.4495H197.385L197.831 12.9932V15.5625H196.839ZM201.482 15.5625L199.716 13.0428H200.777L202.563 15.5625H201.482ZM197.831 13.0924L197.385 12.6063H199.517C200.152 12.6063 200.632 12.4708 200.956 12.1996C201.286 11.9219 201.452 11.535 201.452 11.039C201.452 10.543 201.286 10.1594 200.956 9.88826C200.632 9.61711 200.152 9.48154 199.517 9.48154H197.385L197.831 8.98554V13.0924ZM202.995 15.5625L206.14 8.6185H207.122L210.276 15.5625H209.235L206.427 9.17402H206.824L204.017 15.5625H202.995ZM204.334 13.8265L204.602 13.0329H208.51L208.798 13.8265H204.334ZM211.312 15.5625V8.6185H212.304V14.6995H216.064V15.5625H211.312ZM131.264 29.5625V22.6185H134.379C135.179 22.6185 135.794 22.7805 136.224 23.1046C136.654 23.422 136.869 23.8585 136.869 24.414C136.869 24.791 136.783 25.1084 136.611 25.3663C136.446 25.6243 136.221 25.8227 135.937 25.9615C135.652 26.1004 135.345 26.1699 135.014 26.1699L135.193 25.8723C135.589 25.8723 135.94 25.9417 136.244 26.0806C136.548 26.2195 136.79 26.4245 136.968 26.6956C137.147 26.9602 137.236 27.2908 137.236 27.6876C137.236 28.2828 137.011 28.7458 136.562 29.0764C136.118 29.4005 135.457 29.5625 134.578 29.5625H131.264ZM132.256 28.759H134.538C135.087 28.759 135.507 28.6664 135.798 28.4812C136.089 28.296 136.234 28.0051 136.234 27.6083C136.234 27.2048 136.089 26.9106 135.798 26.7254C135.507 26.5402 135.087 26.4476 134.538 26.4476H132.167V25.6441H134.29C134.792 25.6441 135.183 25.5515 135.46 25.3663C135.738 25.1812 135.877 24.9034 135.877 24.5331C135.877 24.1627 135.738 23.885 135.46 23.6998C135.183 23.5146 134.792 23.422 134.29 23.422H132.256V28.759ZM141.649 29.6419C140.736 29.6419 140.019 29.3806 139.496 28.8582C138.974 28.3357 138.713 27.5719 138.713 26.5667V22.6185H139.705V26.527C139.705 27.3007 139.873 27.8662 140.21 28.2233C140.554 28.5804 141.037 28.759 141.659 28.759C142.287 28.759 142.77 28.5804 143.107 28.2233C143.451 27.8662 143.623 27.3007 143.623 26.527V22.6185H144.585V26.5667C144.585 27.5719 144.324 28.3357 143.802 28.8582C143.286 29.3806 142.568 29.6419 141.649 29.6419ZM146.619 29.5625V22.6185H147.611V29.5625H146.619ZM149.69 29.5625V22.6185H150.682V28.6995H154.442V29.5625H149.69ZM155.58 29.5625V22.6185H158.506C159.247 22.6185 159.898 22.764 160.461 23.055C161.029 23.346 161.469 23.7527 161.78 24.2751C162.097 24.7976 162.256 25.4027 162.256 26.0905C162.256 26.7783 162.097 27.3834 161.78 27.9059C161.469 28.4283 161.029 28.835 160.461 29.126C159.898 29.417 159.247 29.5625 158.506 29.5625H155.58ZM156.572 28.6995H158.447C159.022 28.6995 159.518 28.5903 159.935 28.3721C160.358 28.1539 160.685 27.8496 160.917 27.4595C161.148 27.0627 161.264 26.6063 161.264 26.0905C161.264 25.568 161.148 25.1117 160.917 24.7215C160.685 24.3314 160.358 24.0271 159.935 23.8089C159.518 23.5907 159.022 23.4815 158.447 23.4815H156.572V28.6995ZM163.776 29.5625V22.6185H164.768V29.5625H163.776ZM166.846 29.5625V22.6185H167.66L172.253 28.3225H171.826V22.6185H172.818V29.5625H172.005L167.412 23.8585H167.838V29.5625H166.846ZM178.031 29.6419C177.496 29.6419 177.003 29.5559 176.553 29.3839C176.104 29.2054 175.714 28.9574 175.383 28.6399C175.052 28.3159 174.794 27.9389 174.609 27.5091C174.424 27.0792 174.331 26.6063 174.331 26.0905C174.331 25.5747 174.424 25.1018 174.609 24.6719C174.794 24.2421 175.052 23.8684 175.383 23.551C175.72 23.2269 176.114 22.9789 176.563 22.807C177.013 22.6284 177.509 22.5391 178.051 22.5391C178.6 22.5391 179.103 22.6284 179.559 22.807C180.015 22.9855 180.402 23.2534 180.72 23.6105L180.105 24.2255C179.82 23.9478 179.51 23.7461 179.172 23.6204C178.842 23.4882 178.481 23.422 178.091 23.422C177.694 23.422 177.324 23.4882 176.98 23.6204C176.643 23.7527 176.348 23.9379 176.097 24.1759C175.852 24.414 175.661 24.6984 175.522 25.0291C175.389 25.3531 175.323 25.7069 175.323 26.0905C175.323 26.4675 175.389 26.8213 175.522 27.1519C175.661 27.476 175.852 27.7604 176.097 28.0051C176.348 28.2431 176.643 28.4283 176.98 28.5606C177.317 28.6928 177.684 28.759 178.081 28.759C178.451 28.759 178.805 28.7028 179.143 28.5903C179.486 28.4713 179.804 28.2762 180.095 28.0051L180.66 28.759C180.316 29.05 179.913 29.2715 179.45 29.4236C178.994 29.5691 178.521 29.6419 178.031 29.6419ZM180.66 28.759L179.708 28.63V26.0508H180.66V28.759ZM187.247 29.6419C186.718 29.6419 186.212 29.5625 185.73 29.4038C185.247 29.2384 184.867 29.0268 184.589 28.7689L184.956 27.9951C185.22 28.2266 185.558 28.4184 185.968 28.5705C186.378 28.7226 186.804 28.7987 187.247 28.7987C187.651 28.7987 187.978 28.7524 188.229 28.6598C188.481 28.5672 188.666 28.4415 188.785 28.2828C188.904 28.1175 188.963 27.9323 188.963 27.7273C188.963 27.4892 188.884 27.2974 188.725 27.1519C188.573 27.0064 188.372 26.8907 188.12 26.8047C187.876 26.7122 187.604 26.6328 187.307 26.5667C187.009 26.5005 186.708 26.4245 186.404 26.3385C186.107 26.2459 185.832 26.1302 185.581 25.9913C185.336 25.8524 185.138 25.6672 184.986 25.4358C184.833 25.1977 184.757 24.8935 184.757 24.5231C184.757 24.166 184.85 23.8387 185.035 23.5411C185.227 23.2368 185.518 22.9955 185.908 22.8169C186.305 22.6317 186.808 22.5391 187.416 22.5391C187.819 22.5391 188.219 22.592 188.616 22.6979C189.013 22.8037 189.357 22.9558 189.648 23.1542L189.321 23.9478C189.023 23.7494 188.709 23.6072 188.378 23.5212C188.048 23.4286 187.727 23.3823 187.416 23.3823C187.026 23.3823 186.705 23.4319 186.454 23.5311C186.202 23.6303 186.017 23.7626 185.898 23.9279C185.786 24.0933 185.73 24.2784 185.73 24.4835C185.73 24.7282 185.806 24.9232 185.958 25.0687C186.116 25.2142 186.318 25.33 186.563 25.4159C186.814 25.5019 187.089 25.5813 187.386 25.654C187.684 25.7202 187.981 25.7962 188.279 25.8822C188.583 25.9682 188.858 26.0806 189.102 26.2195C189.354 26.3583 189.555 26.5435 189.707 26.775C189.86 27.0064 189.936 27.304 189.936 27.6678C189.936 28.0183 189.84 28.3456 189.648 28.6499C189.456 28.9475 189.159 29.1888 188.755 29.374C188.358 29.5526 187.856 29.6419 187.247 29.6419ZM192.916 29.5625V26.9039L193.144 27.519L190.158 22.6185H191.22L193.729 26.7551H193.154L195.674 22.6185H196.656L193.68 27.519L193.898 26.9039V29.5625H192.916ZM199.541 29.6419C199.012 29.6419 198.506 29.5625 198.023 29.4038C197.54 29.2384 197.16 29.0268 196.882 28.7689L197.249 27.9951C197.514 28.2266 197.851 28.4184 198.261 28.5705C198.671 28.7226 199.098 28.7987 199.541 28.7987C199.944 28.7987 200.272 28.7524 200.523 28.6598C200.774 28.5672 200.959 28.4415 201.078 28.2828C201.197 28.1175 201.257 27.9323 201.257 27.7273C201.257 27.4892 201.178 27.2974 201.019 27.1519C200.867 27.0064 200.665 26.8907 200.414 26.8047C200.169 26.7122 199.898 26.6328 199.6 26.5667C199.303 26.5005 199.002 26.4245 198.698 26.3385C198.4 26.2459 198.125 26.1302 197.874 25.9913C197.629 25.8524 197.431 25.6672 197.279 25.4358C197.127 25.1977 197.051 24.8935 197.051 24.5231C197.051 24.166 197.143 23.8387 197.329 23.5411C197.52 23.2368 197.811 22.9955 198.202 22.8169C198.598 22.6317 199.101 22.5391 199.709 22.5391C200.113 22.5391 200.513 22.592 200.91 22.6979C201.307 22.8037 201.65 22.9558 201.941 23.1542L201.614 23.9478C201.316 23.7494 201.002 23.6072 200.672 23.5212C200.341 23.4286 200.02 23.3823 199.709 23.3823C199.319 23.3823 198.998 23.4319 198.747 23.5311C198.496 23.6303 198.311 23.7626 198.192 23.9279C198.079 24.0933 198.023 24.2784 198.023 24.4835C198.023 24.7282 198.099 24.9232 198.251 25.0687C198.41 25.2142 198.612 25.33 198.856 25.4159C199.108 25.5019 199.382 25.5813 199.68 25.654C199.977 25.7202 200.275 25.7962 200.572 25.8822C200.877 25.9682 201.151 26.0806 201.396 26.2195C201.647 26.3583 201.849 26.5435 202.001 26.775C202.153 27.0064 202.229 27.304 202.229 27.6678C202.229 28.0183 202.133 28.3456 201.941 28.6499C201.75 28.9475 201.452 29.1888 201.049 29.374C200.652 29.5526 200.149 29.6419 199.541 29.6419ZM204.96 29.5625V23.4815H202.58V22.6185H208.323V23.4815H205.942V29.5625H204.96ZM209.404 29.5625V22.6185H214.304V23.4815H210.396V28.6995H214.443V29.5625H209.404ZM210.306 26.4575V25.6143H213.878V26.4575H210.306ZM216.049 29.5625V22.6185H216.863L219.978 27.8662H219.541L222.616 22.6185H223.43L223.44 29.5625H222.487L222.477 24.1164H222.706L219.968 28.7193H219.511L216.754 24.1164H217.002V29.5625H216.049ZM227.547 29.6419C227.018 29.6419 226.512 29.5625 226.03 29.4038C225.547 29.2384 225.167 29.0268 224.889 28.7689L225.256 27.9951C225.52 28.2266 225.858 28.4184 226.268 28.5705C226.678 28.7226 227.104 28.7987 227.547 28.7987C227.951 28.7987 228.278 28.7524 228.529 28.6598C228.781 28.5672 228.966 28.4415 229.085 28.2828C229.204 28.1175 229.263 27.9323 229.263 27.7273C229.263 27.4892 229.184 27.2974 229.025 27.1519C228.873 27.0064 228.672 26.8907 228.42 26.8047C228.176 26.7122 227.904 26.6328 227.607 26.5667C227.309 26.5005 227.008 26.4245 226.704 26.3385C226.407 26.2459 226.132 26.1302 225.881 25.9913C225.636 25.8524 225.438 25.6672 225.286 25.4358C225.133 25.1977 225.057 24.8935 225.057 24.5231C225.057 24.166 225.15 23.8387 225.335 23.5411C225.527 23.2368 225.818 22.9955 226.208 22.8169C226.605 22.6317 227.108 22.5391 227.716 22.5391C228.119 22.5391 228.519 22.592 228.916 22.6979C229.313 22.8037 229.657 22.9558 229.948 23.1542L229.621 23.9478C229.323 23.7494 229.009 23.6072 228.678 23.5212C228.348 23.4286 228.027 23.3823 227.716 23.3823C227.326 23.3823 227.005 23.4319 226.754 23.5311C226.502 23.6303 226.317 23.7626 226.198 23.9279C226.086 24.0933 226.03 24.2784 226.03 24.4835C226.03 24.7282 226.106 24.9232 226.258 25.0687C226.416 25.2142 226.618 25.33 226.863 25.4159C227.114 25.5019 227.389 25.5813 227.686 25.654C227.984 25.7202 228.281 25.7962 228.579 25.8822C228.883 25.9682 229.158 26.0806 229.402 26.2195C229.654 26.3583 229.855 26.5435 230.007 26.775C230.16 27.0064 230.236 27.304 230.236 27.6678C230.236 28.0183 230.14 28.3456 229.948 28.6499C229.756 28.9475 229.459 29.1888 229.055 29.374C228.658 29.5526 228.156 29.6419 227.547 29.6419Z" fill="#AAAAAA"/>
<line x1="119.17" y1="38.3278" x2="119.064" y2="0.0015228" stroke="#1DD45A" stroke-width="1.152"/>
<path d="M105.127 32.2498C103.156 32.2498 101.633 31.7458 100.558 30.7378C99.4827 29.7074 98.9451 28.1954 98.9451 26.2018V10.1074H103.145V26.101C103.145 26.9522 103.358 27.613 103.783 28.0834C104.231 28.5538 104.847 28.789 105.631 28.789C106.572 28.789 107.356 28.5426 107.983 28.0498L109.159 31.0402C108.667 31.4434 108.062 31.7458 107.345 31.9474C106.628 32.149 105.889 32.2498 105.127 32.2498ZM95.9883 17.4322V14.0722H107.95V17.4322H95.9883Z" fill="white"/>
<path fill-rule="evenodd" clip-rule="evenodd" d="M89.6728 14.072V32.0144H93.8728V14.072H89.6728Z" fill="white"/>
<path d="M91.7896 11.1152C91.0056 11.1152 90.356 10.8688 89.8408 10.376C89.348 9.8832 89.1016 9.2896 89.1016 8.59519C89.1016 7.87839 89.348 7.28479 89.8408 6.81439C90.356 6.3216 91.0056 6.0752 91.7896 6.0752C92.5736 6.0752 93.212 6.3104 93.7048 6.78079C94.22 7.2288 94.4776 7.8 94.4776 8.49439C94.4776 9.23359 94.2312 9.86079 93.7384 10.376C93.2456 10.8688 92.596 11.1152 91.7896 11.1152Z" fill="#1DD45A"/>
<path d="M71.3164 32.0147V29.3603L82.3708 15.9875L83.1436 17.4323H71.518V14.0723H86.5036V16.7267L75.4492 30.0995L74.6092 28.6547H86.806V32.0147H71.3164Z" fill="white"/>
<path fill-rule="evenodd" clip-rule="evenodd" d="M64.0907 14.072V32.0144H68.2907V14.072H64.0907Z" fill="white"/>
<path d="M66.2075 11.1152C65.4235 11.1152 64.7739 10.8688 64.2587 10.376C63.7659 9.8832 63.5195 9.2896 63.5195 8.59519C63.5195 7.87839 63.7659 7.28479 64.2587 6.81439C64.7739 6.3216 65.4235 6.0752 66.2075 6.0752C66.9915 6.0752 67.6299 6.3104 68.1227 6.78079C68.6379 7.2288 68.8955 7.8 68.8955 8.49439C68.8955 9.23359 68.6491 9.86079 68.1563 10.376C67.6635 10.8688 67.0139 11.1152 66.2075 11.1152Z" fill="#1DD45A"/>
<path d="M51.1523 32.0151V14.0727H55.1507V19.0119L54.6803 17.5671C55.2179 16.3575 56.0579 15.4391 57.2003 14.8119C58.3651 14.1847 59.8099 13.8711 61.5347 13.8711V17.8695C61.3555 17.8247 61.1875 17.8023 61.0307 17.8023C60.8739 17.7799 60.7171 17.7687 60.5603 17.7687C58.9699 17.7687 57.7043 18.2391 56.7635 19.1799C55.8227 20.0983 55.3523 21.4759 55.3523 23.3127V32.0151H51.1523Z" fill="white"/>
<path d="M39.0745 32.2504C37.5513 32.2504 36.1961 31.9144 35.0089 31.2424C33.8217 30.5704 32.8809 29.5624 32.1865 28.2184C31.5145 26.852 31.1785 25.1272 31.1785 23.044C31.1785 20.9384 31.5257 19.2136 32.2201 17.8696C32.9369 16.5256 33.8889 15.5288 35.0761 14.8792C36.2857 14.2072 37.6185 13.8712 39.0745 13.8712C40.8441 13.8712 42.4009 14.252 43.7449 15.0136C45.1113 15.7752 46.1865 16.8392 46.9705 18.2056C47.7769 19.572 48.1801 21.1848 48.1801 23.044C48.1801 24.9032 47.7769 26.516 46.9705 27.8824C46.1865 29.2488 45.1113 30.324 43.7449 31.108C42.4009 31.8696 40.8441 32.2504 39.0745 32.2504ZM29.1289 32.0152V7.08398H33.3289V18.2392L32.9929 23.0104L33.1273 27.7816V32.0152H29.1289ZM38.6041 28.6552C39.6121 28.6552 40.5081 28.4312 41.2921 27.9832C42.0985 27.5352 42.7369 26.8856 43.2073 26.0344C43.6777 25.1832 43.9129 24.1864 43.9129 23.044C43.9129 21.8792 43.6777 20.8824 43.2073 20.0536C42.7369 19.2024 42.0985 18.5528 41.2921 18.1048C40.5081 17.6568 39.6121 17.4328 38.6041 17.4328C37.5961 17.4328 36.6889 17.6568 35.8825 18.1048C35.0761 18.5528 34.4377 19.2024 33.9673 20.0536C33.4969 20.8824 33.2617 21.8792 33.2617 23.044C33.2617 24.1864 33.4969 25.1832 33.9673 26.0344C34.4377 26.8856 35.0761 27.5352 35.8825 27.9832C36.6889 28.4312 37.5961 28.6552 38.6041 28.6552Z" fill="white"/>
<path d="M13.5417 0.112792C16.364 -0.487092 18.6519 1.3656 18.6519 4.25087V30.111C18.6518 32.9962 16.364 35.8215 13.5417 36.4214L5.11011 38.2136C2.28788 38.8135 3.39186e-06 36.9608 0 34.0755V8.21543C0 5.33015 2.28788 2.50488 5.11011 1.905L13.5417 0.112792ZM14.5638 7.17562C14.5638 5.44445 13.191 4.33283 11.4977 4.69276L7.15415 5.61606C5.46081 5.97599 4.08808 7.67114 4.08808 9.40231V31.083C4.08809 32.8141 5.46081 33.9258 7.15415 33.5658L11.4977 32.6425C13.191 32.2826 14.5638 30.5875 14.5638 28.8563V7.17562Z" fill="#1DD45A"/>
</svg>
