<svg width="347" height="58" viewBox="0 0 347 58" fill="none" xmlns="http://www.w3.org/2000/svg">
<path d="M195.317 24.3447L200.034 13.9287H201.507L206.239 24.3447H204.677L200.466 14.762H201.061L196.85 24.3447H195.317ZM197.326 21.7407L197.728 20.5503H203.59L204.022 21.7407H197.326ZM207.793 24.3447V13.9287H211.855C213.204 13.9287 214.266 14.2511 215.039 14.8959C215.813 15.5308 216.2 16.4186 216.2 17.5594C216.2 18.3134 216.026 18.9631 215.679 19.5087C215.332 20.0444 214.836 20.4561 214.191 20.7438C213.546 21.0314 212.768 21.1753 211.855 21.1753H208.611L209.281 20.4908V24.3447H207.793ZM214.757 24.3447L212.108 20.5652H213.7L216.379 24.3447H214.757ZM209.281 20.6396L208.611 19.9105H211.81C212.763 19.9105 213.482 19.7071 213.968 19.3004C214.464 18.8838 214.712 18.3034 214.712 17.5594C214.712 16.8154 214.464 16.2401 213.968 15.8334C213.482 15.4266 212.763 15.2233 211.81 15.2233H208.611L209.281 14.4793V20.6396ZM223.262 24.4638C222.468 24.4638 221.734 24.3348 221.059 24.0769C220.395 23.809 219.814 23.437 219.318 22.9609C218.832 22.4748 218.45 21.9094 218.173 21.2646C217.895 20.6198 217.756 19.9105 217.756 19.1367C217.756 18.363 217.895 17.6537 218.173 17.0089C218.45 16.3641 218.837 15.8036 219.333 15.3274C219.829 14.8414 220.41 14.4694 221.074 14.2114C221.749 13.9436 222.483 13.8097 223.276 13.8097C224.08 13.8097 224.819 13.9486 225.494 14.2263C226.178 14.4942 226.758 14.8959 227.235 15.4316L226.267 16.369C225.871 15.9524 225.424 15.6449 224.928 15.4465C224.432 15.2382 223.901 15.134 223.336 15.134C222.751 15.134 222.205 15.2332 221.699 15.4316C221.203 15.63 220.772 15.9078 220.405 16.2649C220.038 16.622 219.75 17.0486 219.542 17.5446C219.343 18.0306 219.244 18.5614 219.244 19.1367C219.244 19.7121 219.343 20.2478 219.542 20.7438C219.75 21.2298 220.038 21.6514 220.405 22.0086C220.772 22.3657 221.203 22.6434 221.699 22.8418C222.205 23.0402 222.751 23.1394 223.336 23.1394C223.901 23.1394 224.432 23.0402 224.928 22.8418C225.424 22.6335 225.871 22.3161 226.267 21.8895L227.235 22.827C226.758 23.3626 226.178 23.7694 225.494 24.0471C224.819 24.3249 224.075 24.4638 223.262 24.4638ZM236.682 24.3447V13.9287H238.17V24.3447H236.682ZM229.212 24.3447V13.9287H230.7V24.3447H229.212ZM230.551 19.7022V18.4076H236.816V19.7022H230.551ZM241.287 24.3447V13.9287H242.775V24.3447H241.287ZM247.962 24.3447V15.2233H244.391V13.9287H253.006V15.2233H249.435V24.3447H247.962ZM254.627 24.3447V13.9287H261.978V15.2233H256.115V23.0502H262.186V24.3447H254.627ZM255.981 19.6873V18.4225H261.338V19.6873H255.981ZM269.238 24.4638C268.445 24.4638 267.711 24.3348 267.036 24.0769C266.372 23.809 265.791 23.437 265.295 22.9609C264.809 22.4748 264.427 21.9094 264.149 21.2646C263.872 20.6198 263.733 19.9105 263.733 19.1367C263.733 18.363 263.872 17.6537 264.149 17.0089C264.427 16.3641 264.814 15.8036 265.31 15.3274C265.806 14.8414 266.386 14.4694 267.051 14.2114C267.726 13.9436 268.46 13.8097 269.253 13.8097C270.057 13.8097 270.796 13.9486 271.47 14.2263C272.155 14.4942 272.735 14.8959 273.211 15.4316L272.244 16.369C271.847 15.9524 271.401 15.6449 270.905 15.4465C270.409 15.2382 269.878 15.134 269.313 15.134C268.728 15.134 268.182 15.2332 267.676 15.4316C267.18 15.63 266.749 15.9078 266.381 16.2649C266.014 16.622 265.727 17.0486 265.518 17.5446C265.32 18.0306 265.221 18.5614 265.221 19.1367C265.221 19.7121 265.32 20.2478 265.518 20.7438C265.727 21.2298 266.014 21.6514 266.381 22.0086C266.749 22.3657 267.18 22.6434 267.676 22.8418C268.182 23.0402 268.728 23.1394 269.313 23.1394C269.878 23.1394 270.409 23.0402 270.905 22.8418C271.401 22.6335 271.847 22.3161 272.244 21.8895L273.211 22.827C272.735 23.3626 272.155 23.7694 271.47 24.0471C270.796 24.3249 270.052 24.4638 269.238 24.4638ZM277.01 24.3447V15.2233H273.439V13.9287H282.054V15.2233H278.483V24.3447H277.01ZM287.801 24.4638C286.432 24.4638 285.356 24.0719 284.572 23.2882C283.789 22.5046 283.397 21.3588 283.397 19.851V13.9287H284.885V19.7914C284.885 20.9521 285.138 21.8002 285.644 22.3359C286.16 22.8716 286.884 23.1394 287.816 23.1394C288.759 23.1394 289.483 22.8716 289.989 22.3359C290.505 21.8002 290.762 20.9521 290.762 19.7914V13.9287H292.206V19.851C292.206 21.3588 291.814 22.5046 291.03 23.2882C290.257 24.0719 289.18 24.4638 287.801 24.4638ZM295.256 24.3447V13.9287H299.319C300.668 13.9287 301.729 14.2511 302.503 14.8959C303.277 15.5308 303.664 16.4186 303.664 17.5594C303.664 18.3134 303.49 18.9631 303.143 19.5087C302.796 20.0444 302.3 20.4561 301.655 20.7438C301.01 21.0314 300.231 21.1753 299.319 21.1753H296.075L296.744 20.4908V24.3447H295.256ZM302.22 24.3447L299.572 20.5652H301.164L303.842 24.3447H302.22ZM296.744 20.6396L296.075 19.9105H299.274C300.226 19.9105 300.946 19.7071 301.432 19.3004C301.928 18.8838 302.176 18.3034 302.176 17.5594C302.176 16.8154 301.928 16.2401 301.432 15.8334C300.946 15.4266 300.226 15.2233 299.274 15.2233H296.075L296.744 14.4793V20.6396ZM304.49 24.3447L309.207 13.9287H310.681L315.412 24.3447H313.85L309.639 14.762H310.234L306.023 24.3447H304.49ZM306.499 21.7407L306.901 20.5503H312.764L313.195 21.7407H306.499ZM316.966 24.3447V13.9287H318.454V23.0502H324.094V24.3447H316.966ZM196.894 44.3447V33.9287H201.567C202.767 33.9287 203.69 34.1718 204.334 34.6578C204.979 35.134 205.302 35.7887 205.302 36.622C205.302 37.1874 205.173 37.6636 204.915 38.0505C204.667 38.4374 204.329 38.735 203.903 38.9433C203.476 39.1516 203.015 39.2558 202.519 39.2558L202.787 38.8094C203.382 38.8094 203.908 38.9135 204.364 39.1218C204.821 39.3302 205.183 39.6377 205.45 40.0444C205.718 40.4412 205.852 40.9372 205.852 41.5324C205.852 42.4252 205.515 43.1196 204.84 43.6156C204.176 44.1017 203.184 44.3447 201.864 44.3447H196.894ZM198.382 43.1394H201.805C202.628 43.1394 203.258 43.0006 203.695 42.7228C204.131 42.445 204.349 42.0086 204.349 41.4134C204.349 40.8082 204.131 40.3668 203.695 40.089C203.258 39.8113 202.628 39.6724 201.805 39.6724H198.249V38.4671H201.433C202.187 38.4671 202.772 38.3282 203.189 38.0505C203.605 37.7727 203.814 37.3561 203.814 36.8006C203.814 36.245 203.605 35.8284 203.189 35.5506C202.772 35.2729 202.187 35.134 201.433 35.134H198.382V43.1394ZM212.471 44.4638C211.102 44.4638 210.026 44.0719 209.242 43.2882C208.459 42.5046 208.067 41.3588 208.067 39.851V33.9287H209.555V39.7914C209.555 40.9521 209.808 41.8002 210.314 42.3359C210.83 42.8716 211.554 43.1394 212.486 43.1394C213.429 43.1394 214.153 42.8716 214.659 42.3359C215.175 41.8002 215.432 40.9521 215.432 39.7914V33.9287H216.876V39.851C216.876 41.3588 216.484 42.5046 215.7 43.2882C214.927 44.0719 213.85 44.4638 212.471 44.4638ZM219.926 44.3447V33.9287H221.414V44.3447H219.926ZM224.533 44.3447V33.9287H226.021V43.0502H231.66V44.3447H224.533ZM233.368 44.3447V33.9287H237.757C238.869 33.9287 239.846 34.147 240.689 34.5834C241.542 35.0199 242.202 35.63 242.668 36.4137C243.144 37.1974 243.382 38.105 243.382 39.1367C243.382 40.1684 243.144 41.0761 242.668 41.8598C242.202 42.6434 241.542 43.2535 240.689 43.69C239.846 44.1265 238.869 44.3447 237.757 44.3447H233.368ZM234.856 43.0502H237.668C238.531 43.0502 239.275 42.8865 239.9 42.5591C240.535 42.2318 241.026 41.7754 241.373 41.1902C241.721 40.595 241.894 39.9105 241.894 39.1367C241.894 38.353 241.721 37.6686 241.373 37.0833C241.026 36.498 240.535 36.0417 239.9 35.7143C239.275 35.387 238.531 35.2233 237.668 35.2233H234.856V43.0502ZM245.661 44.3447V33.9287H247.149V44.3447H245.661ZM250.268 44.3447V33.9287H251.488L258.377 42.4847H257.737V33.9287H259.225V44.3447H258.005L251.116 35.7887H251.756V44.3447H250.268ZM267.045 44.4638C266.242 44.4638 265.503 44.3348 264.828 44.0769C264.154 43.809 263.568 43.437 263.072 42.9609C262.576 42.4748 262.189 41.9094 261.912 41.2646C261.634 40.6198 261.495 39.9105 261.495 39.1367C261.495 38.363 261.634 37.6537 261.912 37.0089C262.189 36.3641 262.576 35.8036 263.072 35.3274C263.578 34.8414 264.168 34.4694 264.843 34.2114C265.518 33.9436 266.262 33.8097 267.075 33.8097C267.898 33.8097 268.652 33.9436 269.337 34.2114C270.021 34.4793 270.602 34.881 271.078 35.4167L270.155 36.3393C269.729 35.9226 269.262 35.6201 268.756 35.4316C268.26 35.2332 267.72 35.134 267.135 35.134C266.539 35.134 265.984 35.2332 265.468 35.4316C264.962 35.63 264.521 35.9078 264.144 36.2649C263.777 36.622 263.489 37.0486 263.281 37.5446C263.082 38.0306 262.983 38.5614 262.983 39.1367C262.983 39.7022 263.082 40.2329 263.281 40.7289C263.489 41.215 263.777 41.6415 264.144 42.0086C264.521 42.3657 264.962 42.6434 265.468 42.8418C265.974 43.0402 266.524 43.1394 267.12 43.1394C267.675 43.1394 268.206 43.0551 268.712 42.8865C269.228 42.7079 269.704 42.4153 270.14 42.0086L270.988 43.1394C270.473 43.5759 269.868 43.9082 269.173 44.1364C268.489 44.3546 267.779 44.4638 267.045 44.4638ZM270.988 43.1394L269.56 42.946V39.0772H270.988V43.1394ZM280.869 44.4638C280.075 44.4638 279.317 44.3447 278.592 44.1066C277.868 43.8586 277.298 43.5412 276.881 43.1543L277.432 41.9937C277.829 42.3409 278.334 42.6286 278.949 42.8567C279.565 43.0849 280.204 43.199 280.869 43.199C281.474 43.199 281.965 43.1295 282.342 42.9906C282.719 42.8518 282.997 42.6633 283.175 42.4252C283.354 42.1772 283.443 41.8994 283.443 41.5919C283.443 41.2348 283.324 40.9471 283.086 40.7289C282.858 40.5106 282.555 40.337 282.178 40.2081C281.811 40.0692 281.405 39.9502 280.958 39.851C280.512 39.7518 280.061 39.6377 279.604 39.5087C279.158 39.3698 278.746 39.1962 278.369 38.9879C278.002 38.7796 277.705 38.5018 277.476 38.1546C277.248 37.7975 277.134 37.3412 277.134 36.7857C277.134 36.25 277.273 35.759 277.551 35.3126C277.838 34.8562 278.275 34.4942 278.86 34.2263C279.455 33.9486 280.209 33.8097 281.122 33.8097C281.727 33.8097 282.327 33.889 282.922 34.0478C283.518 34.2065 284.033 34.4346 284.47 34.7322L283.979 35.9226C283.533 35.625 283.061 35.4118 282.565 35.2828C282.069 35.1439 281.588 35.0745 281.122 35.0745C280.537 35.0745 280.056 35.1489 279.679 35.2977C279.302 35.4465 279.024 35.6449 278.845 35.8929C278.677 36.1409 278.592 36.4186 278.592 36.7262C278.592 37.0932 278.706 37.3858 278.935 37.6041C279.173 37.8223 279.475 37.9959 279.842 38.1249C280.219 38.2538 280.631 38.3729 281.077 38.482C281.524 38.5812 281.97 38.6953 282.417 38.8242C282.873 38.9532 283.285 39.1218 283.652 39.3302C284.029 39.5385 284.331 39.8162 284.559 40.1634C284.787 40.5106 284.901 40.957 284.901 41.5026C284.901 42.0284 284.758 42.5194 284.47 42.9758C284.182 43.4222 283.736 43.7842 283.131 44.062C282.536 44.3298 281.782 44.4638 280.869 44.4638ZM289.372 44.3447V40.3569L289.714 41.2794L285.235 33.9287H286.828L290.592 40.1337H289.729L293.509 33.9287H294.982L290.518 41.2794L290.845 40.3569V44.3447H289.372ZM299.309 44.4638C298.516 44.4638 297.757 44.3447 297.033 44.1066C296.308 43.8586 295.738 43.5412 295.321 43.1543L295.872 41.9937C296.269 42.3409 296.775 42.6286 297.39 42.8567C298.005 43.0849 298.645 43.199 299.309 43.199C299.914 43.199 300.405 43.1295 300.782 42.9906C301.159 42.8518 301.437 42.6633 301.616 42.4252C301.794 42.1772 301.883 41.8994 301.883 41.5919C301.883 41.2348 301.764 40.9471 301.526 40.7289C301.298 40.5106 300.996 40.337 300.619 40.2081C300.252 40.0692 299.845 39.9502 299.398 39.851C298.952 39.7518 298.501 39.6377 298.044 39.5087C297.598 39.3698 297.186 39.1962 296.809 38.9879C296.442 38.7796 296.145 38.5018 295.917 38.1546C295.688 37.7975 295.574 37.3412 295.574 36.7857C295.574 36.25 295.713 35.759 295.991 35.3126C296.279 34.8562 296.715 34.4942 297.3 34.2263C297.896 33.9486 298.649 33.8097 299.562 33.8097C300.167 33.8097 300.767 33.889 301.363 34.0478C301.958 34.2065 302.474 34.4346 302.91 34.7322L302.419 35.9226C301.973 35.625 301.501 35.4118 301.005 35.2828C300.509 35.1439 300.028 35.0745 299.562 35.0745C298.977 35.0745 298.496 35.1489 298.119 35.2977C297.742 35.4465 297.464 35.6449 297.285 35.8929C297.117 36.1409 297.033 36.4186 297.033 36.7262C297.033 37.0932 297.147 37.3858 297.375 37.6041C297.613 37.8223 297.915 37.9959 298.282 38.1249C298.659 38.2538 299.071 38.3729 299.517 38.482C299.964 38.5812 300.41 38.6953 300.857 38.8242C301.313 38.9532 301.725 39.1218 302.092 39.3302C302.469 39.5385 302.771 39.8162 302.999 40.1634C303.228 40.5106 303.342 40.957 303.342 41.5026C303.342 42.0284 303.198 42.5194 302.91 42.9758C302.622 43.4222 302.176 43.7842 301.571 44.062C300.976 44.3298 300.222 44.4638 299.309 44.4638ZM307.439 44.3447V35.2233H303.867V33.9287H312.483V35.2233H308.912V44.3447H307.439ZM314.103 44.3447V33.9287H321.454V35.2233H315.591V43.0502H321.663V44.3447H314.103ZM315.458 39.6873V38.4225H320.814V39.6873H315.458ZM324.072 44.3447V33.9287H325.292L329.964 41.8002H329.31L333.922 33.9287H335.143L335.158 44.3447H333.729L333.714 36.1756H334.056L329.95 43.0799H329.265L325.128 36.1756H325.5V44.3447H324.072ZM341.319 44.4638C340.525 44.4638 339.767 44.3447 339.042 44.1066C338.318 43.8586 337.748 43.5412 337.331 43.1543L337.882 41.9937C338.279 42.3409 338.784 42.6286 339.399 42.8567C340.015 43.0849 340.654 43.199 341.319 43.199C341.924 43.199 342.415 43.1295 342.792 42.9906C343.169 42.8518 343.447 42.6633 343.625 42.4252C343.804 42.1772 343.893 41.8994 343.893 41.5919C343.893 41.2348 343.774 40.9471 343.536 40.7289C343.308 40.5106 343.005 40.337 342.628 40.2081C342.261 40.0692 341.855 39.9502 341.408 39.851C340.962 39.7518 340.511 39.6377 340.054 39.5087C339.608 39.3698 339.196 39.1962 338.819 38.9879C338.452 38.7796 338.155 38.5018 337.926 38.1546C337.698 37.7975 337.584 37.3412 337.584 36.7857C337.584 36.25 337.723 35.759 338.001 35.3126C338.288 34.8562 338.725 34.4942 339.31 34.2263C339.905 33.9486 340.659 33.8097 341.572 33.8097C342.177 33.8097 342.777 33.889 343.372 34.0478C343.968 34.2065 344.484 34.4346 344.92 34.7322L344.429 35.9226C343.983 35.625 343.511 35.4118 343.015 35.2828C342.519 35.1439 342.038 35.0745 341.572 35.0745C340.987 35.0745 340.506 35.1489 340.129 35.2977C339.752 35.4465 339.474 35.6449 339.295 35.8929C339.127 36.1409 339.042 36.4186 339.042 36.7262C339.042 37.0932 339.156 37.3858 339.385 37.6041C339.623 37.8223 339.925 37.9959 340.292 38.1249C340.669 38.2538 341.081 38.3729 341.527 38.482C341.974 38.5812 342.42 38.6953 342.867 38.8242C343.323 38.9532 343.735 39.1218 344.102 39.3302C344.479 39.5385 344.781 39.8162 345.009 40.1634C345.237 40.5106 345.352 40.957 345.352 41.5026C345.352 42.0284 345.208 42.5194 344.92 42.9758C344.632 43.4222 344.186 43.7842 343.581 44.062C342.986 44.3298 342.232 44.4638 341.319 44.4638Z" fill="#AAAAAA"/>
<line x1="178.757" y1="57.4917" x2="178.597" y2="0.00228229" stroke="#1DD45A" stroke-width="1.728"/>
<path d="M157.693 48.3747C154.736 48.3747 152.452 47.6187 150.839 46.1067C149.226 44.5611 148.42 42.2931 148.42 39.3027V15.1611H154.72V39.1515C154.72 40.4283 155.039 41.4195 155.677 42.1251C156.349 42.8307 157.273 43.1835 158.449 43.1835C159.86 43.1835 161.036 42.8139 161.977 42.0747L163.741 46.5603C163.002 47.1651 162.095 47.6187 161.02 47.9211C159.944 48.2235 158.836 48.3747 157.693 48.3747ZM143.984 26.1483V21.1083H161.927V26.1483H143.984Z" fill="white"/>
<path fill-rule="evenodd" clip-rule="evenodd" d="M134.509 21.1085V48.0221H140.809V21.1085H134.509Z" fill="white"/>
<path d="M137.684 16.6733C136.508 16.6733 135.534 16.3037 134.761 15.5645C134.022 14.8253 133.652 13.9349 133.652 12.8933C133.652 11.8181 134.022 10.9277 134.761 10.2221C135.534 9.48288 136.508 9.11328 137.684 9.11328C138.86 9.11328 139.818 9.46608 140.557 10.1717C141.33 10.8437 141.716 11.7005 141.716 12.7421C141.716 13.8509 141.347 14.7917 140.608 15.5645C139.868 16.3037 138.894 16.6733 137.684 16.6733Z" fill="#1DD45A"/>
<path d="M106.977 48.022V44.0404L123.558 23.9812L124.717 26.1484H107.279V21.1084H129.757V25.09L113.176 45.1492L111.916 42.982H130.211V48.022H106.977Z" fill="white"/>
<path fill-rule="evenodd" clip-rule="evenodd" d="M96.138 21.1085V48.0221H102.438V21.1085H96.138Z" fill="white"/>
<path d="M99.3133 16.6733C98.1372 16.6733 97.1628 16.3037 96.39 15.5645C95.6508 14.8253 95.2812 13.9349 95.2812 12.8933C95.2812 11.8181 95.6508 10.9277 96.39 10.2221C97.1628 9.48288 98.1372 9.11328 99.3133 9.11328C100.489 9.11328 101.447 9.46608 102.186 10.1717C102.959 10.8437 103.345 11.7005 103.345 12.7421C103.345 13.8509 102.976 14.7917 102.236 15.5645C101.497 16.3037 100.523 16.6733 99.3133 16.6733Z" fill="#1DD45A"/>
<path d="M76.7305 48.0226V21.109H82.7281V28.5178L82.0225 26.3506C82.8289 24.5362 84.0889 23.1586 85.8025 22.2178C87.5497 21.277 89.7169 20.8066 92.3041 20.8066V26.8042C92.0353 26.737 91.7833 26.7034 91.5481 26.7034C91.3129 26.6698 91.0777 26.653 90.8425 26.653C88.4569 26.653 86.5585 27.3586 85.1473 28.7698C83.7361 30.1474 83.0305 32.2138 83.0305 34.969V48.0226H76.7305Z" fill="white"/>
<path d="M58.6098 48.3756C56.325 48.3756 54.2922 47.8716 52.5114 46.8636C50.7306 45.8556 49.3194 44.3436 48.2778 42.3276C47.2698 40.278 46.7658 37.6908 46.7658 34.566C46.7658 31.4076 47.2866 28.8204 48.3282 26.8044C49.4034 24.7884 50.8314 23.2932 52.6122 22.3188C54.4266 21.3108 56.4258 20.8068 58.6098 20.8068C61.2642 20.8068 63.5994 21.378 65.6154 22.5204C67.665 23.6628 69.2778 25.2588 70.4538 27.3084C71.6634 29.358 72.2682 31.7772 72.2682 34.566C72.2682 37.3548 71.6634 39.774 70.4538 41.8236C69.2778 43.8732 67.665 45.486 65.6154 46.662C63.5994 47.8044 61.2642 48.3756 58.6098 48.3756ZM43.6914 48.0228V10.626H49.9914V27.3588L49.4874 34.5156L49.689 41.6724V48.0228H43.6914ZM57.9042 42.9828C59.4162 42.9828 60.7602 42.6468 61.9362 41.9748C63.1458 41.3028 64.1034 40.3284 64.809 39.0516C65.5146 37.7748 65.8674 36.2796 65.8674 34.566C65.8674 32.8188 65.5146 31.3236 64.809 30.0804C64.1034 28.8036 63.1458 27.8292 61.9362 27.1572C60.7602 26.4852 59.4162 26.1492 57.9042 26.1492C56.3922 26.1492 55.0314 26.4852 53.8218 27.1572C52.6122 27.8292 51.6546 28.8036 50.949 30.0804C50.2434 31.3236 49.8906 32.8188 49.8906 34.566C49.8906 36.2796 50.2434 37.7748 50.949 39.0516C51.6546 40.3284 52.6122 41.3028 53.8218 41.9748C55.0314 42.6468 56.3922 42.9828 57.9042 42.9828Z" fill="white"/>
<path d="M20.3126 0.169187C24.546 -0.730637 27.9778 2.04839 27.9778 6.37631V45.1664C27.9778 49.4943 24.546 53.7323 20.3126 54.6321L7.66516 57.3204C3.43182 58.2202 5.08778e-06 55.4412 0 51.1133V12.3231C0 7.99523 3.43182 3.75732 7.66516 2.85749L20.3126 0.169187ZM21.8457 10.7634C21.8457 8.16668 19.7866 6.49924 17.2466 7.03913L10.7312 8.42408C8.19122 8.96398 6.13213 11.5067 6.13213 14.1035V46.6245C6.13213 49.2212 8.19122 50.8887 10.7312 50.3488L17.2466 48.9638C19.7866 48.4239 21.8457 45.8812 21.8457 43.2844V10.7634Z" fill="#1DD45A"/>
</svg>
