<svg width="1413" height="2040" viewBox="0 0 1413 2040" fill="none" xmlns="http://www.w3.org/2000/svg">
<path d="M840.819 412.769C930.778 393.648 1003.7 452.702 1003.7 544.67V1368.96C1003.7 1460.93 930.777 1550.98 840.819 1570.11L572.06 1627.23C482.102 1646.35 409.176 1587.3 409.176 1495.33V671.041C409.176 579.072 482.102 489.017 572.06 469.896L840.819 412.769ZM873.396 637.897C873.396 582.716 829.64 547.283 775.665 558.755L637.214 588.186C583.239 599.658 539.483 653.691 539.483 708.872V1399.94C539.484 1455.12 583.239 1490.56 637.214 1479.09L775.665 1449.65C829.64 1438.18 873.396 1384.15 873.396 1328.97V637.897Z" fill="white"/>
</svg>
