<svg width="355" height="512" viewBox="0 0 355 512" fill="none" xmlns="http://www.w3.org/2000/svg">
<path d="M211.029 103.598C233.607 98.7986 251.91 113.62 251.91 136.702V343.583C251.91 366.665 233.607 389.267 211.029 394.066L143.576 408.404C120.998 413.203 102.695 398.382 102.695 375.299V168.419C102.695 145.337 120.998 122.734 143.576 117.935L211.029 103.598ZM219.205 160.1C219.205 146.251 208.224 137.358 194.677 140.237L159.928 147.624C146.382 150.503 135.4 164.064 135.4 177.914V351.359C135.4 365.208 146.382 374.102 159.928 371.222L194.677 363.836C208.224 360.956 219.205 347.395 219.205 333.546V160.1Z" fill="white"/>
</svg>
