<svg width="710" height="1024" viewBox="0 0 710 1024" fill="none" xmlns="http://www.w3.org/2000/svg">
<path d="M422.059 207.193C467.214 197.595 503.82 227.238 503.82 273.403V687.164C503.82 733.328 467.214 778.533 422.059 788.131L287.152 816.806C241.997 826.404 205.391 796.761 205.391 750.597V336.836C205.391 290.671 241.997 245.467 287.152 235.869L422.059 207.193ZM438.411 320.199C438.411 292.5 416.447 274.714 389.354 280.473L319.857 295.246C292.764 301.004 270.8 328.127 270.8 355.826V702.716C270.8 730.415 292.764 748.201 319.857 742.442L389.354 727.669C416.447 721.91 438.411 694.788 438.411 667.089V320.199Z" fill="white"/>
</svg>
