<svg width="23" height="32" viewBox="0 0 23 32" fill="none" xmlns="http://www.w3.org/2000/svg">
<path d="M13.1888 6.47436C14.6 6.17442 15.7439 7.10077 15.7439 8.54341V21.4734C15.7439 22.9161 14.6 24.3287 13.1888 24.6287L8.97302 25.5248C7.56191 25.8247 6.41797 24.8984 6.41797 23.4557V10.5257C6.41797 9.08305 7.56191 7.67041 8.97302 7.37047L13.1888 6.47436ZM13.4443 10.3382C13.4443 9.47265 12.758 8.91686 11.9113 9.09683L10.2505 9.44984C9.40388 9.6298 8.71752 10.4774 8.71752 11.343V21.6609C8.71752 22.5265 9.40388 23.0823 10.2505 22.9023L11.9113 22.5493C12.758 22.3693 13.4443 21.5217 13.4443 20.6561V10.3382Z" fill="#1D1D1F"/>
</svg>
