<svg width="81" height="27" viewBox="0 0 81 27" fill="none" xmlns="http://www.w3.org/2000/svg">
<path d="M75.9986 26.1746C74.0274 26.1746 72.5042 25.6706 71.429 24.6626C70.3538 23.6322 69.8162 22.1202 69.8162 20.1266V4.03223H74.0162V20.0258C74.0162 20.877 74.229 21.5378 74.6546 22.0082C75.1026 22.4786 75.7186 22.7138 76.5026 22.7138C77.4434 22.7138 78.2274 22.4674 78.8546 21.9746L80.0306 24.965C79.5378 25.3682 78.933 25.6706 78.2162 25.8722C77.4994 26.0738 76.7602 26.1746 75.9986 26.1746ZM66.8594 11.357V7.99703H78.821V11.357H66.8594Z" fill="white"/>
<path fill-rule="evenodd" clip-rule="evenodd" d="M60.5439 7.9968V25.9392H64.7439V7.9968H60.5439Z" fill="white"/>
<path d="M62.6607 5.04C61.8767 5.04 61.2271 4.7936 60.7119 4.3008C60.2191 3.808 59.9727 3.2144 59.9727 2.52C59.9727 1.8032 60.2191 1.2096 60.7119 0.739199C61.2271 0.2464 61.8767 0 62.6607 0C63.4447 0 64.0831 0.2352 64.5759 0.705599C65.0911 1.1536 65.3487 1.7248 65.3487 2.4192C65.3487 3.1584 65.1023 3.7856 64.6095 4.3008C64.1167 4.7936 63.4671 5.04 62.6607 5.04Z" fill="#1DD45A"/>
<path d="M42.1875 25.9395V23.2851L53.2419 9.91227L54.0147 11.3571H42.3891V7.99707H57.3747V10.6515L46.3203 24.0243L45.4803 22.5795H57.6771V25.9395H42.1875Z" fill="white"/>
<path fill-rule="evenodd" clip-rule="evenodd" d="M34.9618 7.9968V25.9392H39.1618V7.9968H34.9618Z" fill="white"/>
<path d="M37.0786 5.04C36.2946 5.04 35.645 4.7936 35.1298 4.3008C34.637 3.808 34.3906 3.2144 34.3906 2.52C34.3906 1.8032 34.637 1.2096 35.1298 0.739199C35.645 0.2464 36.2946 0 37.0786 0C37.8626 0 38.501 0.2352 38.9938 0.705599C39.509 1.1536 39.7666 1.7248 39.7666 2.4192C39.7666 3.1584 39.5202 3.7856 39.0274 4.3008C38.5346 4.7936 37.885 5.04 37.0786 5.04Z" fill="#1DD45A"/>
<path d="M22.0234 25.9399V7.9975H26.0218V12.9367L25.5514 11.4919C26.089 10.2823 26.929 9.3639 28.0714 8.7367C29.2362 8.1095 30.681 7.7959 32.4058 7.7959V11.7943C32.2266 11.7495 32.0586 11.7271 31.9018 11.7271C31.745 11.7047 31.5882 11.6935 31.4314 11.6935C29.841 11.6935 28.5754 12.1639 27.6346 13.1047C26.6938 14.0231 26.2234 15.4007 26.2234 17.2375V25.9399H22.0234Z" fill="white"/>
<path d="M9.9456 26.1752C8.4224 26.1752 7.0672 25.8392 5.88 25.1672C4.6928 24.4952 3.752 23.4872 3.0576 22.1432C2.3856 20.7768 2.0496 19.052 2.0496 16.9688C2.0496 14.8632 2.3968 13.1384 3.0912 11.7944C3.808 10.4504 4.76 9.45359 5.9472 8.80399C7.1568 8.13199 8.4896 7.79599 9.9456 7.79599C11.7152 7.79599 13.272 8.17679 14.616 8.93839C15.9824 9.69999 17.0576 10.764 17.8416 12.1304C18.648 13.4968 19.0512 15.1096 19.0512 16.9688C19.0512 18.828 18.648 20.4408 17.8416 21.8072C17.0576 23.1736 15.9824 24.2488 14.616 25.0328C13.272 25.7944 11.7152 26.1752 9.9456 26.1752ZM0 25.94V1.00879H4.2V12.164L3.864 16.9352L3.9984 21.7064V25.94H0ZM9.4752 22.58C10.4832 22.58 11.3792 22.356 12.1632 21.908C12.9696 21.46 13.608 20.8104 14.0784 19.9592C14.5488 19.108 14.784 18.1112 14.784 16.9688C14.784 15.804 14.5488 14.8072 14.0784 13.9784C13.608 13.1272 12.9696 12.4776 12.1632 12.0296C11.3792 11.5816 10.4832 11.3576 9.4752 11.3576C8.4672 11.3576 7.56 11.5816 6.7536 12.0296C5.9472 12.4776 5.3088 13.1272 4.8384 13.9784C4.368 14.8072 4.1328 15.804 4.1328 16.9688C4.1328 18.1112 4.368 19.108 4.8384 19.9592C5.3088 20.8104 5.9472 21.46 6.7536 21.908C7.56 22.356 8.4672 22.58 9.4752 22.58Z" fill="white"/>
</svg>
