<svg width="321" height="105" viewBox="0 0 321 105" fill="none" xmlns="http://www.w3.org/2000/svg">
<path d="M304.002 104.698C296.117 104.698 290.025 102.682 285.724 98.6495C281.423 94.5279 279.272 88.4799 279.272 80.5055V16.1279H296.072V80.1023C296.072 83.5071 296.924 86.1503 298.626 88.0319C300.418 89.9135 302.882 90.8543 306.018 90.8543C309.781 90.8543 312.917 89.8687 315.426 87.8975L320.13 99.8591C318.159 101.472 315.74 102.682 312.872 103.488C310.005 104.294 307.048 104.698 304.002 104.698ZM267.445 45.4271V31.9871H315.292V45.4271H267.445Z" fill="white"/>
<path fill-rule="evenodd" clip-rule="evenodd" d="M242.172 31.9872V103.757H258.972V31.9872H242.172Z" fill="white"/>
<path d="M250.639 20.16C247.503 20.16 244.904 19.1744 242.844 17.2032C240.872 15.232 239.887 12.8576 239.887 10.08C239.887 7.2128 240.872 4.8384 242.844 2.9568C244.904 0.985599 247.503 0 250.639 0C253.775 0 256.328 0.940799 258.3 2.8224C260.36 4.6144 261.391 6.8992 261.391 9.6768C261.391 12.6336 260.405 15.1424 258.434 17.2032C256.463 19.1744 253.864 20.16 250.639 20.16Z" fill="#1DD45A"/>
<path d="M168.758 103.757V93.1393L212.975 39.6481L216.067 45.4273H169.564V31.9873H229.507V42.6049L185.289 96.0961L181.929 90.3169H230.716V103.757H168.758Z" fill="white"/>
<path fill-rule="evenodd" clip-rule="evenodd" d="M139.855 31.9872V103.757H156.655V31.9872H139.855Z" fill="white"/>
<path d="M148.322 20.16C145.186 20.16 142.588 19.1744 140.527 17.2032C138.556 15.232 137.57 12.8576 137.57 10.08C137.57 7.2128 138.556 4.8384 140.527 2.9568C142.588 0.985599 145.186 0 148.322 0C151.458 0 154.012 0.940799 155.983 2.8224C158.044 4.6144 159.074 6.8992 159.074 9.6768C159.074 12.6336 158.089 15.1424 156.118 17.2032C154.146 19.1744 151.548 20.16 148.322 20.16Z" fill="#1DD45A"/>
<path d="M88.1016 103.757V31.9871H104.095V51.7439L102.214 45.9647C104.364 41.1263 107.724 37.4527 112.294 34.9439C116.953 32.4351 122.732 31.1807 129.631 31.1807V47.1743C128.914 46.9951 128.242 46.9055 127.615 46.9055C126.988 46.8159 126.361 46.7711 125.734 46.7711C119.372 46.7711 114.31 48.6527 110.546 52.4159C106.783 56.0895 104.902 61.5999 104.902 68.9471V103.757H88.1016Z" fill="white"/>
<path d="M39.7824 104.698C33.6896 104.698 28.2688 103.354 23.52 100.666C18.7712 97.9778 15.008 93.9458 12.2304 88.5698C9.5424 83.1042 8.1984 76.205 8.1984 67.8722C8.1984 59.4498 9.5872 52.5506 12.3648 47.1746C15.232 41.7986 19.04 37.8114 23.7888 35.213C28.6272 32.525 33.9584 31.181 39.7824 31.181C46.8608 31.181 53.088 32.7042 58.464 35.7506C63.9296 38.797 68.2304 43.053 71.3664 48.5186C74.592 53.9842 76.2048 60.4354 76.2048 67.8722C76.2048 75.309 74.592 81.7602 71.3664 87.2258C68.2304 92.6914 63.9296 96.9922 58.464 100.128C53.088 103.175 46.8608 104.698 39.7824 104.698ZM0 103.757V4.03223H16.8V48.653L15.456 67.7378L15.9936 86.8226V103.757H0ZM37.9008 90.317C41.9328 90.317 45.5168 89.421 48.6528 87.629C51.8784 85.837 54.432 83.2386 56.3136 79.8338C58.1952 76.429 59.136 72.4418 59.136 67.8722C59.136 63.213 58.1952 59.2258 56.3136 55.9106C54.432 52.5058 51.8784 49.9074 48.6528 48.1154C45.5168 46.3234 41.9328 45.4274 37.9008 45.4274C33.8688 45.4274 30.24 46.3234 27.0144 48.1154C23.7888 49.9074 21.2352 52.5058 19.3536 55.9106C17.472 59.2258 16.5312 63.213 16.5312 67.8722C16.5312 72.4418 17.472 76.429 19.3536 79.8338C21.2352 83.2386 23.7888 85.837 27.0144 87.629C30.24 89.421 33.8688 90.317 37.9008 90.317Z" fill="white"/>
</svg>
