<svg width="161" height="53" viewBox="0 0 161 53" fill="none" xmlns="http://www.w3.org/2000/svg">
<path d="M152.001 52.3493C148.059 52.3493 145.012 51.3413 142.862 49.3253C140.711 47.2645 139.636 44.2405 139.636 40.2533V8.06445H148.036V40.0517C148.036 41.7541 148.462 43.0757 149.313 44.0165C150.209 44.9573 151.441 45.4277 153.009 45.4277C154.891 45.4277 156.459 44.9349 157.713 43.9493L160.065 49.9301C159.079 50.7365 157.87 51.3413 156.436 51.7445C155.003 52.1477 153.524 52.3493 152.001 52.3493ZM133.723 22.7141V15.9941H157.646V22.7141H133.723Z" fill="white"/>
<path fill-rule="evenodd" clip-rule="evenodd" d="M121.088 15.9936V51.8784H129.488V15.9936H121.088Z" fill="white"/>
<path d="M125.321 10.08C123.753 10.08 122.454 9.5872 121.424 8.6016C120.438 7.616 119.945 6.4288 119.945 5.04C119.945 3.6064 120.438 2.4192 121.424 1.4784C122.454 0.492799 123.753 0 125.321 0C126.889 0 128.166 0.4704 129.152 1.4112C130.182 2.3072 130.697 3.4496 130.697 4.8384C130.697 6.3168 130.205 7.5712 129.219 8.6016C128.233 9.5872 126.934 10.08 125.321 10.08Z" fill="#1DD45A"/>
<path d="M84.3789 51.8789V46.5701L106.488 19.8245L108.033 22.7141H84.7821V15.9941H114.753V21.3029L92.6445 48.0485L90.9645 45.1589H115.358V51.8789H84.3789Z" fill="white"/>
<path fill-rule="evenodd" clip-rule="evenodd" d="M69.9276 15.9936V51.8784H78.3276V15.9936H69.9276Z" fill="white"/>
<path d="M74.1612 10.08C72.5932 10.08 71.294 9.5872 70.2636 8.6016C69.278 7.616 68.7852 6.4288 68.7852 5.04C68.7852 3.6064 69.278 2.4192 70.2636 1.4784C71.294 0.492799 72.5932 0 74.1612 0C75.7292 0 77.006 0.4704 77.9916 1.4112C79.022 2.3072 79.5372 3.4496 79.5372 4.8384C79.5372 6.3168 79.0444 7.5712 78.0588 8.6016C77.0732 9.5872 75.774 10.08 74.1612 10.08Z" fill="#1DD45A"/>
<path d="M44.0508 51.8788V15.994H52.0476V25.8724L51.1068 22.9828C52.182 20.5636 53.862 18.7268 56.1468 17.4724C58.4764 16.218 61.366 15.5908 64.8156 15.5908V23.5876C64.4572 23.498 64.1212 23.4532 63.8076 23.4532C63.494 23.4084 63.1804 23.386 62.8668 23.386C59.686 23.386 57.1548 24.3268 55.2732 26.2084C53.3916 28.0452 52.4508 30.8004 52.4508 34.474V51.8788H44.0508Z" fill="white"/>
<path d="M19.8912 52.3494C16.8448 52.3494 14.1344 51.6774 11.76 50.3334C9.3856 48.9894 7.504 46.9734 6.1152 44.2854C4.7712 41.5526 4.0992 38.103 4.0992 33.9366C4.0992 29.7254 4.7936 26.2758 6.1824 23.5878C7.616 20.8998 9.52 18.9062 11.8944 17.607C14.3136 16.263 16.9792 15.591 19.8912 15.591C23.4304 15.591 26.544 16.3526 29.232 17.8758C31.9648 19.399 34.1152 21.527 35.6832 24.2598C37.296 26.9926 38.1024 30.2182 38.1024 33.9366C38.1024 37.655 37.296 40.8806 35.6832 43.6134C34.1152 46.3462 31.9648 48.4966 29.232 50.0646C26.544 51.5878 23.4304 52.3494 19.8912 52.3494ZM0 51.879V2.0166H8.4V24.327L7.728 33.8694L7.9968 43.4118V51.879H0ZM18.9504 45.159C20.9664 45.159 22.7584 44.711 24.3264 43.815C25.9392 42.919 27.216 41.6198 28.1568 39.9174C29.0976 38.215 29.568 36.2214 29.568 33.9366C29.568 31.607 29.0976 29.6134 28.1568 27.9558C27.216 26.2534 25.9392 24.9542 24.3264 24.0582C22.7584 23.1622 20.9664 22.7142 18.9504 22.7142C16.9344 22.7142 15.12 23.1622 13.5072 24.0582C11.8944 24.9542 10.6176 26.2534 9.6768 27.9558C8.736 29.6134 8.2656 31.607 8.2656 33.9366C8.2656 36.2214 8.736 38.215 9.6768 39.9174C10.6176 41.6198 11.8944 42.919 13.5072 43.815C15.12 44.711 16.9344 45.159 18.9504 45.159Z" fill="white"/>
</svg>
