<svg width="5003" height="1636" viewBox="0 0 5003 1636" fill="none" xmlns="http://www.w3.org/2000/svg">
<path d="M4750.07 1635.9C4626.87 1635.9 4531.67 1604.4 4464.47 1541.4C4397.27 1477 4363.67 1382.5 4363.67 1257.9V252H4626.17V1251.6C4626.17 1304.8 4639.47 1346.1 4666.07 1375.5C4694.07 1404.9 4732.57 1419.6 4781.57 1419.6C4840.37 1419.6 4889.37 1404.2 4928.57 1373.4L5002.07 1560.3C4971.27 1585.5 4933.47 1604.4 4888.67 1617C4843.87 1629.6 4797.67 1635.9 4750.07 1635.9ZM4178.87 709.8V499.8H4926.47V709.8H4178.87Z" fill="white"/>
<path fill-rule="evenodd" clip-rule="evenodd" d="M3783.94 499.8V1621.2H4046.44V499.8H3783.94Z" fill="white"/>
<path d="M3916.24 315C3867.24 315 3826.64 299.6 3794.44 268.8C3763.64 238 3748.24 200.9 3748.24 157.5C3748.24 112.7 3763.64 75.6 3794.44 46.1999C3826.64 15.4 3867.24 0 3916.24 0C3965.24 0 4005.14 14.7 4035.94 44.0999C4068.14 72.1 4084.24 107.8 4084.24 151.2C4084.24 197.4 4068.84 236.6 4038.04 268.8C4007.24 299.6 3966.64 315 3916.24 315Z" fill="#1DD45A"/>
<path d="M2636.86 1621.2V1455.3L3327.76 619.5L3376.06 709.8H2649.46V499.8H3586.06V665.7L2895.16 1501.5L2842.66 1411.2H3604.96V1621.2H2636.86Z" fill="white"/>
<path fill-rule="evenodd" clip-rule="evenodd" d="M2185.23 499.8V1621.2H2447.73V499.8H2185.23Z" fill="white"/>
<path d="M2317.53 315C2268.53 315 2227.93 299.6 2195.73 268.8C2164.93 238 2149.53 200.9 2149.53 157.5C2149.53 112.7 2164.93 75.6 2195.73 46.1999C2227.93 15.4 2268.53 0 2317.53 0C2366.53 0 2406.43 14.7 2437.23 44.0999C2469.43 72.1 2485.53 107.8 2485.53 151.2C2485.53 197.4 2470.13 236.6 2439.33 268.8C2408.53 299.6 2367.93 315 2317.53 315Z" fill="#1DD45A"/>
<path d="M1376.65 1621.2V499.799H1626.55V808.499L1597.15 718.199C1630.75 642.599 1683.25 585.199 1754.65 545.999C1827.45 506.799 1917.75 487.199 2025.55 487.199V737.099C2014.35 734.299 2003.85 732.899 1994.05 732.899C1984.25 731.499 1974.45 730.799 1964.65 730.799C1865.25 730.799 1786.15 760.199 1727.35 818.999C1668.55 876.399 1639.15 962.499 1639.15 1077.3V1621.2H1376.65Z" fill="white"/>
<path d="M621.6 1635.9C526.4 1635.9 441.7 1614.9 367.5 1572.9C293.3 1530.9 234.5 1467.9 191.1 1383.9C149.1 1298.5 128.1 1190.7 128.1 1060.5C128.1 928.9 149.8 821.1 193.2 737.1C238 653.1 297.5 590.8 371.7 550.2C447.3 508.2 530.6 487.2 621.6 487.2C732.2 487.2 829.5 511 913.5 558.6C998.9 606.2 1066.1 672.7 1115.1 758.1C1165.5 843.5 1190.7 944.3 1190.7 1060.5C1190.7 1176.7 1165.5 1277.5 1115.1 1362.9C1066.1 1448.3 998.9 1515.5 913.5 1564.5C829.5 1612.1 732.2 1635.9 621.6 1635.9ZM0 1621.2V63H262.5V760.2L241.5 1058.4L249.9 1356.6V1621.2H0ZM592.2 1411.2C655.2 1411.2 711.2 1397.2 760.2 1369.2C810.6 1341.2 850.5 1300.6 879.9 1247.4C909.3 1194.2 924 1131.9 924 1060.5C924 987.7 909.3 925.4 879.9 873.6C850.5 820.4 810.6 779.8 760.2 751.8C711.2 723.8 655.2 709.8 592.2 709.8C529.2 709.8 472.5 723.8 422.1 751.8C371.7 779.8 331.8 820.4 302.4 873.6C273 925.4 258.3 987.7 258.3 1060.5C258.3 1131.9 273 1194.2 302.4 1247.4C331.8 1300.6 371.7 1341.2 422.1 1369.2C472.5 1397.2 529.2 1411.2 592.2 1411.2Z" fill="white"/>
</svg>
