<svg width="41" height="14" viewBox="0 0 41 14" fill="none" xmlns="http://www.w3.org/2000/svg">
<path d="M37.9993 13.0878C37.0137 13.0878 36.2521 12.8358 35.7145 12.3318C35.1769 11.8166 34.9081 11.0606 34.9081 10.0638V2.0166H37.0081V10.0134C37.0081 10.439 37.1145 10.7694 37.3273 11.0046C37.5513 11.2398 37.8593 11.3574 38.2513 11.3574C38.7217 11.3574 39.1137 11.2342 39.4273 10.9878L40.0153 12.483C39.7689 12.6846 39.4665 12.8358 39.1081 12.9366C38.7497 13.0374 38.3801 13.0878 37.9993 13.0878ZM33.4297 5.679V3.999H39.4105V5.679H33.4297Z" fill="white"/>
<path fill-rule="evenodd" clip-rule="evenodd" d="M30.27 3.9984V12.9696H32.37V3.9984H30.27Z" fill="white"/>
<path d="M31.3284 2.52C30.9364 2.52 30.6116 2.3968 30.354 2.1504C30.1076 1.904 29.9844 1.6072 29.9844 1.26C29.9844 0.9016 30.1076 0.6048 30.354 0.369599C30.6116 0.1232 30.9364 0 31.3284 0C31.7204 0 32.0396 0.1176 32.286 0.3528C32.5436 0.5768 32.6724 0.8624 32.6724 1.2096C32.6724 1.5792 32.5492 1.8928 32.3028 2.1504C32.0564 2.3968 31.7316 2.52 31.3284 2.52Z" fill="#1DD45A"/>
<path d="M21.0938 12.9702V11.643L26.6209 4.95662L27.0073 5.67902H21.1945V3.99902H28.6873V5.32622L23.1602 12.0126L22.7402 11.2902H28.8386V12.9702H21.0938Z" fill="white"/>
<path fill-rule="evenodd" clip-rule="evenodd" d="M17.4809 3.9984V12.9696H19.5809V3.9984H17.4809Z" fill="white"/>
<path d="M18.5393 2.52C18.1473 2.52 17.8225 2.3968 17.5649 2.1504C17.3185 1.904 17.1953 1.6072 17.1953 1.26C17.1953 0.9016 17.3185 0.6048 17.5649 0.369599C17.8225 0.1232 18.1473 0 18.5393 0C18.9313 0 19.2505 0.1176 19.4969 0.3528C19.7545 0.5768 19.8833 0.8624 19.8833 1.2096C19.8833 1.5792 19.7601 1.8928 19.5137 2.1504C19.2673 2.3968 18.9425 2.52 18.5393 2.52Z" fill="#1DD45A"/>
<path d="M11.0078 12.9695V3.99826H13.007V6.46786L12.7718 5.74546C13.0406 5.14066 13.4606 4.68146 14.0318 4.36786C14.6142 4.05426 15.3366 3.89746 16.199 3.89746V5.89666C16.1094 5.87426 16.0254 5.86306 15.947 5.86306C15.8686 5.85186 15.7902 5.84626 15.7118 5.84626C14.9166 5.84626 14.2838 6.08146 13.8134 6.55186C13.343 7.01106 13.1078 7.69986 13.1078 8.61826V12.9695H11.0078Z" fill="white"/>
<path d="M4.9728 13.0881C4.2112 13.0881 3.5336 12.9201 2.94 12.5841C2.3464 12.2481 1.876 11.7441 1.5288 11.0721C1.1928 10.3889 1.0248 9.52648 1.0248 8.48488C1.0248 7.43208 1.1984 6.56968 1.5456 5.89768C1.904 5.22568 2.38 4.72728 2.9736 4.40248C3.5784 4.06648 4.2448 3.89848 4.9728 3.89848C5.8576 3.89848 6.636 4.08888 7.308 4.46968C7.9912 4.85048 8.5288 5.38248 8.9208 6.06568C9.324 6.74888 9.5256 7.55528 9.5256 8.48488C9.5256 9.41448 9.324 10.2209 8.9208 10.9041C8.5288 11.5873 7.9912 12.1249 7.308 12.5169C6.636 12.8977 5.8576 13.0881 4.9728 13.0881ZM0 12.9705V0.504883H2.1V6.08248L1.932 8.46808L1.9992 10.8537V12.9705H0ZM4.7376 11.2905C5.2416 11.2905 5.6896 11.1785 6.0816 10.9545C6.4848 10.7305 6.804 10.4057 7.0392 9.98008C7.2744 9.55448 7.392 9.05608 7.392 8.48488C7.392 7.90248 7.2744 7.40408 7.0392 6.98968C6.804 6.56408 6.4848 6.23928 6.0816 6.01528C5.6896 5.79128 5.2416 5.67928 4.7376 5.67928C4.2336 5.67928 3.78 5.79128 3.3768 6.01528C2.9736 6.23928 2.6544 6.56408 2.4192 6.98968C2.184 7.40408 2.0664 7.90248 2.0664 8.48488C2.0664 9.05608 2.184 9.55448 2.4192 9.98008C2.6544 10.4057 2.9736 10.7305 3.3768 10.9545C3.78 11.1785 4.2336 11.2905 4.7376 11.2905Z" fill="white"/>
</svg>
