<svg width="20" height="7" viewBox="0 0 20 7" fill="none" xmlns="http://www.w3.org/2000/svg">
<path d="M18.9996 6.54341C18.5068 6.54341 18.126 6.41741 17.8572 6.16541C17.5884 5.90781 17.454 5.52981 17.454 5.03141V1.00781H18.504V5.00621C18.504 5.21901 18.5572 5.38421 18.6636 5.50181C18.7756 5.61941 18.9296 5.67821 19.1256 5.67821C19.3608 5.67821 19.5568 5.61661 19.7136 5.49341L20.0076 6.24101C19.8844 6.34181 19.7332 6.41741 19.554 6.46781C19.3748 6.51821 19.19 6.54341 18.9996 6.54341ZM16.7148 2.83901V1.99901H19.7052V2.83901H16.7148Z" fill="white"/>
<path fill-rule="evenodd" clip-rule="evenodd" d="M15.135 1.9992V6.4848H16.185V1.9992H15.135Z" fill="white"/>
<path d="M15.6642 1.26C15.4682 1.26 15.3058 1.1984 15.177 1.0752C15.0538 0.952 14.9922 0.8036 14.9922 0.63C14.9922 0.4508 15.0538 0.3024 15.177 0.1848C15.3058 0.0615999 15.4682 0 15.6642 0C15.8602 0 16.0198 0.0588 16.143 0.1764C16.2718 0.2884 16.3362 0.4312 16.3362 0.6048C16.3362 0.7896 16.2746 0.9464 16.1514 1.0752C16.0282 1.1984 15.8658 1.26 15.6642 1.26Z" fill="#1DD45A"/>
<path d="M10.5469 6.48462V5.82102L13.3105 2.47782L13.5037 2.83902H10.5973V1.99902H14.3437V2.66262L11.5801 6.00582L11.3701 5.64462H14.4193V6.48462H10.5469Z" fill="white"/>
<path fill-rule="evenodd" clip-rule="evenodd" d="M8.74046 1.9992V6.4848H9.79046V1.9992H8.74046Z" fill="white"/>
<path d="M9.26966 1.26C9.07366 1.26 8.91126 1.1984 8.78246 1.0752C8.65926 0.952 8.59766 0.8036 8.59766 0.63C8.59766 0.4508 8.65926 0.3024 8.78246 0.1848C8.91126 0.0615999 9.07366 0 9.26966 0C9.46566 0 9.62526 0.0588 9.74846 0.1764C9.87726 0.2884 9.94166 0.4312 9.94166 0.6048C9.94166 0.7896 9.88006 0.9464 9.75686 1.0752C9.63366 1.1984 9.47126 1.26 9.26966 1.26Z" fill="#1DD45A"/>
<path d="M5.50391 6.48424V1.99864H6.50351V3.23344L6.38591 2.87224C6.52031 2.56984 6.73031 2.34024 7.01591 2.18344C7.30711 2.02664 7.66831 1.94824 8.09951 1.94824V2.94784C8.05471 2.93664 8.01271 2.93104 7.97351 2.93104C7.93431 2.92544 7.89511 2.92264 7.85591 2.92264C7.45831 2.92264 7.14191 3.04024 6.90671 3.27544C6.67151 3.50504 6.55391 3.84944 6.55391 4.30864V6.48424H5.50391Z" fill="white"/>
<path d="M2.4864 6.54355C2.1056 6.54355 1.7668 6.45955 1.47 6.29155C1.1732 6.12355 0.938 5.87155 0.7644 5.53555C0.5964 5.19395 0.5124 4.76275 0.5124 4.24195C0.5124 3.71555 0.5992 3.28435 0.7728 2.94835C0.952 2.61235 1.19 2.36315 1.4868 2.20075C1.7892 2.03275 2.1224 1.94875 2.4864 1.94875C2.9288 1.94875 3.318 2.04395 3.654 2.23435C3.9956 2.42475 4.2644 2.69075 4.4604 3.03235C4.662 3.37395 4.7628 3.77715 4.7628 4.24195C4.7628 4.70675 4.662 5.10995 4.4604 5.45155C4.2644 5.79315 3.9956 6.06195 3.654 6.25795C3.318 6.44835 2.9288 6.54355 2.4864 6.54355ZM0 6.48475V0.251953H1.05V3.04075L0.966 4.23355L0.9996 5.42635V6.48475H0ZM2.3688 5.64475C2.6208 5.64475 2.8448 5.58875 3.0408 5.47675C3.2424 5.36475 3.402 5.20235 3.5196 4.98955C3.6372 4.77675 3.696 4.52755 3.696 4.24195C3.696 3.95075 3.6372 3.70155 3.5196 3.49435C3.402 3.28155 3.2424 3.11915 3.0408 3.00715C2.8448 2.89515 2.6208 2.83915 2.3688 2.83915C2.1168 2.83915 1.89 2.89515 1.6884 3.00715C1.4868 3.11915 1.3272 3.28155 1.2096 3.49435C1.092 3.70155 1.0332 3.95075 1.0332 4.24195C1.0332 4.52755 1.092 4.77675 1.2096 4.98955C1.3272 5.20235 1.4868 5.36475 1.6884 5.47675C1.89 5.58875 2.1168 5.64475 2.3688 5.64475Z" fill="white"/>
</svg>
