<svg width="1281" height="419" viewBox="0 0 1281 419" fill="none" xmlns="http://www.w3.org/2000/svg">
<path d="M1216.02 418.791C1184.48 418.791 1160.11 410.727 1142.91 394.599C1125.7 378.113 1117.1 353.921 1117.1 322.023V64.5127H1184.3V320.41C1184.3 334.03 1187.71 344.602 1194.52 352.129C1201.68 359.655 1211.54 363.418 1224.08 363.418C1239.14 363.418 1251.68 359.476 1261.72 351.591L1280.53 399.438C1272.65 405.889 1262.97 410.727 1251.5 413.953C1240.03 417.178 1228.21 418.791 1216.02 418.791ZM1069.79 181.709V127.949H1261.18V181.709H1069.79Z" fill="white"/>
<path fill-rule="evenodd" clip-rule="evenodd" d="M968.69 127.949V415.027H1035.89V127.949H968.69Z" fill="white"/>
<path d="M1002.56 80.64C990.015 80.64 979.621 76.6976 971.378 68.8128C963.493 60.928 959.551 51.4304 959.551 40.32C959.551 28.8512 963.493 19.3536 971.378 11.8272C979.621 3.9424 990.015 0 1002.56 0C1015.1 0 1025.32 3.7632 1033.2 11.2896C1041.45 18.4576 1045.57 27.5968 1045.57 38.7072C1045.57 50.5344 1041.62 60.5696 1033.74 68.8128C1025.85 76.6976 1015.46 80.64 1002.56 80.64Z" fill="#1DD45A"/>
<path d="M675.039 415.028V372.557L851.909 158.592L864.274 181.709H678.265V127.949H918.034V170.42L741.164 384.384L727.724 361.268H922.873V415.028H675.039Z" fill="white"/>
<path fill-rule="evenodd" clip-rule="evenodd" d="M559.42 127.949V415.027H626.62V127.949H559.42Z" fill="white"/>
<path d="M593.289 80.64C580.745 80.64 570.352 76.6976 562.108 68.8128C554.224 60.928 550.281 51.4304 550.281 40.32C550.281 28.8512 554.224 19.3536 562.108 11.8272C570.352 3.9424 580.745 0 593.289 0C605.833 0 616.048 3.7632 623.932 11.2896C632.176 18.4576 636.297 27.5968 636.297 38.7072C636.297 50.5344 632.355 60.5696 624.47 68.8128C616.585 76.6976 606.192 80.64 593.289 80.64Z" fill="#1DD45A"/>
<path d="M352.422 415.028V127.949H416.396V206.976L408.87 183.86C417.472 164.506 430.912 149.812 449.19 139.776C467.827 129.741 490.944 124.724 518.54 124.724V188.698C515.673 187.981 512.985 187.623 510.476 187.623C507.968 187.264 505.459 187.085 502.95 187.085C477.503 187.085 457.254 194.612 442.201 209.664C427.148 224.359 419.622 246.4 419.622 275.789V415.028H352.422Z" fill="white"/>
<path d="M159.13 418.791C134.758 418.791 113.075 413.415 94.08 402.663C75.0848 391.911 60.032 375.783 48.9216 354.279C38.1696 332.417 32.7936 304.82 32.7936 271.489C32.7936 237.799 38.3488 210.203 49.4592 188.699C60.928 167.195 76.16 151.246 95.1552 140.852C114.509 130.1 135.834 124.724 159.13 124.724C187.443 124.724 212.352 130.817 233.856 143.003C255.718 155.188 272.922 172.212 285.466 194.075C298.368 215.937 304.819 241.742 304.819 271.489C304.819 301.236 298.368 327.041 285.466 348.903C272.922 370.766 255.718 387.969 233.856 400.513C212.352 412.699 187.443 418.791 159.13 418.791ZM0 415.028V16.1289H67.2V194.612L61.824 270.951L63.9744 347.291V415.028H0ZM151.603 361.268C167.731 361.268 182.067 357.684 194.611 350.516C207.514 343.348 217.728 332.955 225.254 319.335C232.781 305.716 236.544 289.767 236.544 271.489C236.544 252.852 232.781 236.903 225.254 223.643C217.728 210.023 207.514 199.63 194.611 192.462C182.067 185.294 167.731 181.71 151.603 181.71C135.475 181.71 120.96 185.294 108.058 192.462C95.1552 199.63 84.9408 210.023 77.4144 223.643C69.888 236.903 66.1248 252.852 66.1248 271.489C66.1248 289.767 69.888 305.716 77.4144 319.335C84.9408 332.955 95.1552 343.348 108.058 350.516C120.96 357.684 135.475 361.268 151.603 361.268Z" fill="white"/>
</svg>
