<svg width="121" height="40" viewBox="0 0 121 40" fill="none" xmlns="http://www.w3.org/2000/svg">
<path d="M114.002 39.2615C111.045 39.2615 108.76 38.5055 107.147 36.9935C105.535 35.4479 104.728 33.1799 104.728 30.1895V6.04785H111.028V30.0383C111.028 31.3151 111.347 32.3063 111.986 33.0119C112.658 33.7175 113.582 34.0703 114.758 34.0703C116.169 34.0703 117.345 33.7007 118.286 32.9615L120.05 37.4471C119.311 38.0519 118.403 38.5055 117.328 38.8079C116.253 39.1103 115.144 39.2615 114.002 39.2615ZM100.293 17.0351V11.9951H118.235V17.0351H100.293Z" fill="white"/>
<path fill-rule="evenodd" clip-rule="evenodd" d="M90.8177 11.9952V38.9088H97.1177V11.9952H90.8177Z" fill="white"/>
<path d="M93.9929 7.56C92.8169 7.56 91.8425 7.1904 91.0697 6.4512C90.3305 5.712 89.9609 4.8216 89.9609 3.78C89.9609 2.7048 90.3305 1.8144 91.0697 1.1088C91.8425 0.3696 92.8169 0 93.9929 0C95.1689 0 96.1265 0.3528 96.8657 1.0584C97.6385 1.7304 98.0249 2.5872 98.0249 3.6288C98.0249 4.7376 97.6553 5.6784 96.9161 6.4512C96.1769 7.1904 95.2025 7.56 93.9929 7.56Z" fill="#1DD45A"/>
<path d="M63.2852 38.9087V34.9271L79.8668 14.8679L81.026 17.0351H63.5876V11.9951H86.066V15.9767L69.4844 36.0359L68.2244 33.8687H86.5196V38.9087H63.2852Z" fill="white"/>
<path fill-rule="evenodd" clip-rule="evenodd" d="M52.4466 11.9952V38.9088H58.7466V11.9952H52.4466Z" fill="white"/>
<path d="M55.6218 7.56C54.4458 7.56 53.4714 7.1904 52.6986 6.4512C51.9594 5.712 51.5898 4.8216 51.5898 3.78C51.5898 2.7048 51.9594 1.8144 52.6986 1.1088C53.4714 0.3696 54.4458 0 55.6218 0C56.7978 0 57.7554 0.3528 58.4946 1.0584C59.2674 1.7304 59.6538 2.5872 59.6538 3.6288C59.6538 4.7376 59.2842 5.6784 58.545 6.4512C57.8058 7.1904 56.8314 7.56 55.6218 7.56Z" fill="#1DD45A"/>
<path d="M33.0391 38.9094V11.9958H39.0367V19.4046L38.3311 17.2374C39.1375 15.423 40.3975 14.0454 42.1111 13.1046C43.8583 12.1638 46.0255 11.6934 48.6127 11.6934V17.691C48.3439 17.6238 48.0919 17.5902 47.8567 17.5902C47.6215 17.5566 47.3863 17.5398 47.1511 17.5398C44.7655 17.5398 42.8671 18.2454 41.4559 19.6566C40.0447 21.0342 39.3391 23.1006 39.3391 25.8558V38.9094H33.0391Z" fill="white"/>
<path d="M14.9184 39.2623C12.6336 39.2623 10.6008 38.7583 8.82 37.7503C7.0392 36.7423 5.628 35.2303 4.5864 33.2143C3.5784 31.1647 3.0744 28.5775 3.0744 25.4527C3.0744 22.2943 3.5952 19.7071 4.6368 17.6911C5.712 15.6751 7.14 14.1799 8.9208 13.2055C10.7352 12.1975 12.7344 11.6935 14.9184 11.6935C17.5728 11.6935 19.908 12.2647 21.924 13.4071C23.9736 14.5495 25.5864 16.1455 26.7624 18.1951C27.972 20.2447 28.5768 22.6639 28.5768 25.4527C28.5768 28.2415 27.972 30.6607 26.7624 32.7103C25.5864 34.7599 23.9736 36.3727 21.924 37.5487C19.908 38.6911 17.5728 39.2623 14.9184 39.2623ZM0 38.9095V1.5127H6.3V18.2455L5.796 25.4023L5.9976 32.5591V38.9095H0ZM14.2128 33.8695C15.7248 33.8695 17.0688 33.5335 18.2448 32.8615C19.4544 32.1895 20.412 31.2151 21.1176 29.9383C21.8232 28.6615 22.176 27.1663 22.176 25.4527C22.176 23.7055 21.8232 22.2103 21.1176 20.9671C20.412 19.6903 19.4544 18.7159 18.2448 18.0439C17.0688 17.3719 15.7248 17.0359 14.2128 17.0359C12.7008 17.0359 11.34 17.3719 10.1304 18.0439C8.9208 18.7159 7.9632 19.6903 7.2576 20.9671C6.552 22.2103 6.1992 23.7055 6.1992 25.4527C6.1992 27.1663 6.552 28.6615 7.2576 29.9383C7.9632 31.2151 8.9208 32.1895 10.1304 32.8615C11.34 33.5335 12.7008 33.8695 14.2128 33.8695Z" fill="white"/>
</svg>
