<svg width="641" height="210" viewBox="0 0 641 210" fill="none" xmlns="http://www.w3.org/2000/svg">
<path d="M608.008 209.396C592.238 209.396 580.053 205.364 571.451 197.3C562.85 189.057 558.549 176.961 558.549 161.012V32.2568H592.149V160.206C592.149 167.015 593.851 172.302 597.256 176.065C600.84 179.828 605.768 181.71 612.04 181.71C619.566 181.71 625.839 179.738 630.856 175.796L640.264 199.719C636.322 202.945 631.483 205.364 625.749 206.977C620.014 208.59 614.101 209.396 608.008 209.396ZM534.895 90.8552V63.9752H630.587V90.8552H534.895Z" fill="white"/>
<path fill-rule="evenodd" clip-rule="evenodd" d="M484.347 63.9744V207.514H517.947V63.9744H484.347Z" fill="white"/>
<path d="M501.281 40.32C495.009 40.32 489.813 38.3488 485.691 34.4064C481.749 30.464 479.777 25.7152 479.777 20.16C479.777 14.4256 481.749 9.6768 485.691 5.91359C489.813 1.9712 495.009 0 501.281 0C507.553 0 512.661 1.8816 516.603 5.64479C520.725 9.2288 522.785 13.7984 522.785 19.3536C522.785 25.2672 520.814 30.2848 516.872 34.4064C512.929 38.3488 507.733 40.32 501.281 40.32Z" fill="#1DD45A"/>
<path d="M337.52 207.514V186.279L425.955 79.2962L432.137 90.8546H339.132V63.9746H459.017V85.2098L370.582 192.192L363.862 180.634H461.436V207.514H337.52Z" fill="white"/>
<path fill-rule="evenodd" clip-rule="evenodd" d="M279.71 63.9744V207.514H313.31V63.9744H279.71Z" fill="white"/>
<path d="M296.645 40.32C290.373 40.32 285.176 38.3488 281.054 34.4064C277.112 30.464 275.141 25.7152 275.141 20.16C275.141 14.4256 277.112 9.6768 281.054 5.91359C285.176 1.9712 290.373 0 296.645 0C302.917 0 308.024 1.8816 311.966 5.64479C316.088 9.2288 318.149 13.7984 318.149 19.3536C318.149 25.2672 316.177 30.2848 312.235 34.4064C308.293 38.3488 303.096 40.32 296.645 40.32Z" fill="#1DD45A"/>
<path d="M176.211 207.514V63.9751H208.198V103.489L204.435 91.9303C208.736 82.2535 215.456 74.9063 224.595 69.8887C233.913 64.8711 245.472 62.3623 259.27 62.3623V94.3495C257.837 93.9911 256.493 93.8119 255.238 93.8119C253.984 93.6327 252.729 93.5431 251.475 93.5431C238.752 93.5431 228.627 97.3063 221.101 104.833C213.574 112.18 209.811 123.201 209.811 137.895V207.514H176.211Z" fill="white"/>
<path d="M79.5648 209.396C67.3792 209.396 56.5376 206.708 47.04 201.332C37.5424 195.956 30.016 187.892 24.4608 177.14C19.0848 166.208 16.3968 152.41 16.3968 135.744C16.3968 118.9 19.1744 105.101 24.7296 94.3493C30.464 83.5973 38.08 75.6229 47.5776 70.426C57.2544 65.0501 67.9168 62.3621 79.5648 62.3621C93.7216 62.3621 106.176 65.4085 116.928 71.5013C127.859 77.5941 136.461 86.1061 142.733 97.0373C149.184 107.968 152.41 120.871 152.41 135.744C152.41 150.618 149.184 163.52 142.733 174.452C136.461 185.383 127.859 193.984 116.928 200.256C106.176 206.349 93.7216 209.396 79.5648 209.396ZM0 207.514V8.06445H33.6V97.3061L30.912 135.476L31.9872 173.645V207.514H0ZM75.8016 180.634C83.8656 180.634 91.0336 178.842 97.3056 175.258C103.757 171.674 108.864 166.477 112.627 159.668C116.39 152.858 118.272 144.884 118.272 135.744C118.272 126.426 116.39 118.452 112.627 111.821C108.864 105.012 103.757 99.8149 97.3056 96.2309C91.0336 92.6469 83.8656 90.8549 75.8016 90.8549C67.7376 90.8549 60.48 92.6469 54.0288 96.2309C47.5776 99.8149 42.4704 105.012 38.7072 111.821C34.944 118.452 33.0624 126.426 33.0624 135.744C33.0624 144.884 34.944 152.858 38.7072 159.668C42.4704 166.477 47.5776 171.674 54.0288 175.258C60.48 178.842 67.7376 180.634 75.8016 180.634Z" fill="white"/>
</svg>
