<svg width="2701" height="1024" viewBox="0 0 2701 1024" fill="none" xmlns="http://www.w3.org/2000/svg">
<rect width="2700.68" height="1024" fill="black"/>
<path d="M2440.42 716.893C2429.88 716.893 2419.81 715.455 2410.23 712.58C2400.8 709.704 2393.38 706.19 2387.95 702.036L2397.53 683.825C2402.96 687.499 2409.67 690.615 2417.66 693.17C2425.65 695.726 2433.79 697.004 2442.1 697.004C2452.8 697.004 2460.47 695.487 2465.1 692.452C2469.9 689.416 2472.29 685.183 2472.29 679.752C2472.29 675.758 2470.85 672.643 2467.98 670.406C2465.1 668.17 2461.27 666.493 2456.48 665.374C2451.84 664.256 2446.65 663.298 2440.9 662.499C2435.15 661.54 2429.4 660.422 2423.65 659.144C2417.9 657.707 2412.63 655.79 2407.83 653.393C2403.04 650.837 2399.21 647.403 2396.33 643.09C2393.46 638.617 2392.02 632.706 2392.02 625.358C2392.02 617.69 2394.18 610.98 2398.49 605.229C2402.8 599.478 2408.87 595.085 2416.7 592.05C2424.69 588.855 2434.11 587.258 2444.98 587.258C2453.28 587.258 2461.67 588.296 2470.14 590.373C2478.76 592.29 2485.79 595.085 2491.22 598.76L2481.4 616.971C2475.65 613.137 2469.66 610.501 2463.43 609.063C2457.2 607.626 2450.97 606.907 2444.74 606.907C2434.67 606.907 2427.16 608.584 2422.21 611.939C2417.26 615.134 2414.78 619.287 2414.78 624.399C2414.78 628.712 2416.22 632.067 2419.1 634.463C2422.13 636.7 2425.97 638.457 2430.6 639.735C2435.39 641.013 2440.66 642.131 2446.41 643.09C2452.16 643.888 2457.91 645.007 2463.67 646.444C2469.42 647.722 2474.61 649.559 2479.24 651.956C2484.03 654.352 2487.87 657.707 2490.74 662.02C2493.78 666.333 2495.3 672.084 2495.3 679.272C2495.3 686.94 2493.06 693.57 2488.59 699.161C2484.11 704.752 2477.8 709.145 2469.66 712.34C2461.51 715.375 2451.76 716.893 2440.42 716.893Z" fill="white"/>
<path d="M2315.9 587.258C2326.28 587.258 2335.39 589.255 2343.22 593.248C2351.2 597.242 2357.43 603.312 2361.91 611.46C2366.38 619.607 2368.62 629.91 2368.62 642.371V715.455H2345.61V645.007C2345.61 632.706 2342.58 623.441 2336.51 617.21C2330.6 610.98 2322.21 607.865 2311.35 607.865C2303.2 607.865 2296.09 609.463 2290.02 612.658C2283.95 615.853 2279.24 620.565 2275.88 626.795C2272.69 633.025 2271.09 640.773 2271.09 650.039V715.455H2248.09V588.456H2270.13V622.722L2266.54 613.616C2270.69 605.309 2277.08 598.84 2285.71 594.207C2294.33 589.574 2304.4 587.258 2315.9 587.258Z" fill="white"/>
<path d="M2165.11 716.893C2151.53 716.893 2139.55 714.097 2129.16 708.506C2118.94 702.915 2110.95 695.247 2105.2 685.503C2099.61 675.758 2096.81 664.576 2096.81 651.956C2096.81 639.336 2099.53 628.153 2104.96 618.409C2110.55 608.664 2118.14 601.076 2127.72 595.645C2137.47 590.053 2148.41 587.258 2160.55 587.258C2172.85 587.258 2183.72 589.974 2193.14 595.405C2202.57 600.836 2209.91 608.504 2215.19 618.409C2220.62 628.153 2223.33 639.575 2223.33 652.674C2223.33 653.633 2223.25 654.751 2223.09 656.029C2223.09 657.307 2223.01 658.505 2222.85 659.623H2114.79V643.09H2210.87L2201.53 648.841C2201.69 640.693 2200.01 633.425 2196.5 627.035C2192.98 620.645 2188.11 615.693 2181.88 612.178C2175.81 608.504 2168.7 606.667 2160.55 606.667C2152.57 606.667 2145.46 608.504 2139.23 612.178C2133 615.693 2128.12 620.725 2124.61 627.275C2121.1 633.664 2119.34 641.013 2119.34 649.32V653.154C2119.34 661.62 2121.25 669.208 2125.09 675.918C2129.08 682.467 2134.59 687.579 2141.62 691.254C2148.65 694.928 2156.72 696.765 2165.82 696.765C2173.33 696.765 2180.12 695.487 2186.19 692.931C2192.42 690.375 2197.85 686.541 2202.49 681.429L2215.19 696.286C2209.44 702.995 2202.25 708.107 2193.62 711.621C2185.15 715.136 2175.65 716.893 2165.11 716.893Z" fill="white"/>
<path d="M2025.57 716.893C2011.99 716.893 2000.01 714.097 1989.63 708.506C1979.4 702.915 1971.42 695.247 1965.67 685.503C1960.07 675.758 1957.28 664.576 1957.28 651.956C1957.28 639.336 1960 628.153 1965.43 618.409C1971.02 608.664 1978.61 601.076 1988.19 595.645C1997.94 590.053 2008.88 587.258 2021.02 587.258C2033.32 587.258 2044.18 589.974 2053.61 595.405C2063.03 600.836 2070.38 608.504 2075.65 618.409C2081.08 628.153 2083.8 639.575 2083.8 652.674C2083.8 653.633 2083.72 654.751 2083.56 656.029C2083.56 657.307 2083.48 658.505 2083.32 659.623H1975.25V643.09H2071.34L2061.99 648.841C2062.15 640.693 2060.48 633.425 2056.96 627.035C2053.45 620.645 2048.58 615.693 2042.34 612.178C2036.27 608.504 2029.17 606.667 2021.02 606.667C2013.03 606.667 2005.92 608.504 1999.69 612.178C1993.46 615.693 1988.59 620.725 1985.08 627.275C1981.56 633.664 1979.8 641.013 1979.8 649.32V653.154C1979.8 661.62 1981.72 669.208 1985.55 675.918C1989.55 682.467 1995.06 687.579 2002.09 691.254C2009.12 694.928 2017.18 696.765 2026.29 696.765C2033.8 696.765 2040.59 695.487 2046.66 692.931C2052.89 690.375 2058.32 686.541 2062.95 681.429L2075.65 696.286C2069.9 702.995 2062.71 708.107 2054.09 711.621C2045.62 715.136 2036.11 716.893 2025.57 716.893Z" fill="white"/>
<path d="M1880.74 715.455V588.456H1902.78V622.961L1900.62 614.335C1904.14 605.549 1910.05 598.84 1918.36 594.207C1926.66 589.574 1936.89 587.258 1949.03 587.258V609.543C1948.07 609.383 1947.11 609.303 1946.15 609.303C1945.35 609.303 1944.56 609.303 1943.76 609.303C1931.46 609.303 1921.71 612.977 1914.52 620.326C1907.33 627.674 1903.74 638.297 1903.74 652.195V715.455H1880.74Z" fill="white"/>
<path d="M1806.38 716.893C1793.44 716.893 1781.86 714.097 1771.64 708.506C1761.57 702.915 1753.67 695.247 1747.92 685.503C1742.16 675.758 1739.29 664.576 1739.29 651.956C1739.29 639.336 1742.16 628.153 1747.92 618.409C1753.67 608.664 1761.57 601.076 1771.64 595.645C1781.86 590.053 1793.44 587.258 1806.38 587.258C1817.88 587.258 1828.11 589.574 1837.05 594.207C1846.16 598.68 1853.19 605.389 1858.14 614.335L1840.65 625.597C1836.5 619.367 1831.38 614.814 1825.31 611.939C1819.4 608.904 1813.01 607.386 1806.14 607.386C1797.84 607.386 1790.41 609.223 1783.86 612.897C1777.31 616.572 1772.12 621.763 1768.28 628.473C1764.45 635.022 1762.53 642.85 1762.53 651.956C1762.53 661.061 1764.45 668.969 1768.28 675.678C1772.12 682.388 1777.31 687.579 1783.86 691.254C1790.41 694.928 1797.84 696.765 1806.14 696.765C1813.01 696.765 1819.4 695.327 1825.31 692.452C1831.38 689.416 1836.5 684.784 1840.65 678.554L1858.14 689.576C1853.19 698.362 1846.16 705.152 1837.05 709.944C1828.11 714.577 1817.88 716.893 1806.38 716.893Z" fill="white"/>
<path d="M1674.6 716.893C1664.05 716.893 1653.99 715.455 1644.4 712.58C1634.98 709.704 1627.55 706.19 1622.12 702.036L1631.7 683.825C1637.14 687.499 1643.85 690.615 1651.83 693.17C1659.82 695.726 1667.97 697.004 1676.27 697.004C1686.98 697.004 1694.65 695.487 1699.28 692.452C1704.07 689.416 1706.47 685.183 1706.47 679.752C1706.47 675.758 1705.03 672.643 1702.15 670.406C1699.28 668.17 1695.44 666.493 1690.65 665.374C1686.02 664.256 1680.83 663.298 1675.08 662.499C1669.33 661.54 1663.57 660.422 1657.82 659.144C1652.07 657.707 1646.8 655.79 1642.01 653.393C1637.22 650.837 1633.38 647.403 1630.51 643.09C1627.63 638.617 1626.19 632.706 1626.19 625.358C1626.19 617.69 1628.35 610.98 1632.66 605.229C1636.98 599.478 1643.05 595.085 1650.87 592.05C1658.86 588.855 1668.29 587.258 1679.15 587.258C1687.46 587.258 1695.84 588.296 1704.31 590.373C1712.94 592.29 1719.97 595.085 1725.4 598.76L1715.57 616.971C1709.82 613.137 1703.83 610.501 1697.6 609.063C1691.37 607.626 1685.14 606.907 1678.91 606.907C1668.85 606.907 1661.34 608.584 1656.39 611.939C1651.43 615.134 1648.96 619.287 1648.96 624.399C1648.96 628.712 1650.4 632.067 1653.27 634.463C1656.31 636.7 1660.14 638.457 1664.77 639.735C1669.57 641.013 1674.84 642.131 1680.59 643.09C1686.34 643.888 1692.09 645.007 1697.84 646.444C1703.59 647.722 1708.78 649.559 1713.42 651.956C1718.21 654.352 1722.04 657.707 1724.92 662.02C1727.95 666.333 1729.47 672.084 1729.47 679.272C1729.47 686.94 1727.23 693.57 1722.76 699.161C1718.29 704.752 1711.98 709.145 1703.83 712.34C1695.68 715.375 1685.94 716.893 1674.6 716.893Z" fill="white"/>
<path d="M2381.21 509.956V402.126H2406.85V509.956H2381.21ZM2338.8 468.022V444.06H2449.27V468.022H2338.8Z" fill="#FFD700"/>
<path d="M2211.43 541.346C2200.89 541.346 2190.83 539.908 2181.24 537.033C2171.82 534.158 2164.39 530.643 2158.96 526.49L2168.54 508.278C2173.97 511.953 2180.68 515.068 2188.67 517.624C2196.66 520.18 2204.8 521.458 2213.11 521.458C2223.81 521.458 2231.48 519.94 2236.12 516.905C2240.91 513.87 2243.3 509.636 2243.3 504.205C2243.3 500.211 2241.87 497.096 2238.99 494.86C2236.12 492.623 2232.28 490.946 2227.49 489.828C2222.86 488.709 2217.66 487.751 2211.91 486.952C2206.16 485.994 2200.41 484.875 2194.66 483.597C2188.91 482.16 2183.64 480.243 2178.85 477.846C2174.05 475.291 2170.22 471.856 2167.34 467.543C2164.47 463.07 2163.03 457.159 2163.03 449.811C2163.03 442.143 2165.19 435.433 2169.5 429.683C2173.81 423.932 2179.88 419.539 2187.71 416.503C2195.7 413.308 2205.12 411.711 2215.99 411.711C2224.29 411.711 2232.68 412.749 2241.15 414.826C2249.77 416.743 2256.8 419.539 2262.23 423.213L2252.41 441.424C2246.66 437.59 2240.67 434.954 2234.44 433.516C2228.21 432.079 2221.98 431.36 2215.75 431.36C2205.68 431.36 2198.18 433.037 2193.22 436.392C2188.27 439.587 2185.79 443.74 2185.79 448.852C2185.79 453.165 2187.23 456.52 2190.11 458.916C2193.14 461.153 2196.98 462.91 2201.61 464.188C2206.4 465.466 2211.67 466.584 2217.42 467.543C2223.18 468.341 2228.93 469.46 2234.68 470.897C2240.43 472.175 2245.62 474.013 2250.25 476.409C2255.05 478.805 2258.88 482.16 2261.75 486.473C2264.79 490.786 2266.31 496.537 2266.31 503.726C2266.31 511.393 2264.07 518.023 2259.6 523.614C2255.13 529.205 2248.82 533.598 2240.67 536.793C2232.52 539.829 2222.78 541.346 2211.43 541.346Z" fill="white"/>
<path d="M2084.15 539.908V412.909H2106.2V447.415L2104.04 438.788C2107.55 430.002 2113.47 423.293 2121.77 418.66C2130.08 414.027 2140.3 411.711 2152.44 411.711V433.996C2151.48 433.836 2150.53 433.756 2149.57 433.756C2148.77 433.756 2147.97 433.756 2147.17 433.756C2134.87 433.756 2125.13 437.43 2117.94 444.779C2110.75 452.127 2107.16 462.75 2107.16 476.648V539.908H2084.15Z" fill="white"/>
<path d="M1993.63 541.346C1980.85 541.346 1969.51 538.551 1959.61 532.959C1949.7 527.368 1941.87 519.7 1936.12 509.956C1930.37 500.051 1927.5 488.869 1927.5 476.409C1927.5 463.789 1930.37 452.606 1936.12 442.862C1941.87 433.117 1949.7 425.529 1959.61 420.098C1969.51 414.507 1980.85 411.711 1993.63 411.711C2006.25 411.711 2017.51 414.507 2027.42 420.098C2037.48 425.529 2045.31 433.117 2050.9 442.862C2056.65 452.447 2059.53 463.629 2059.53 476.409C2059.53 489.029 2056.65 500.211 2050.9 509.956C2045.31 519.7 2037.48 527.368 2027.42 532.959C2017.51 538.551 2006.25 541.346 1993.63 541.346ZM1993.63 521.218C2001.78 521.218 2009.05 519.381 2015.44 515.707C2021.99 512.032 2027.1 506.841 2030.77 500.131C2034.45 493.262 2036.28 485.355 2036.28 476.409C2036.28 467.303 2034.45 459.475 2030.77 452.926C2027.1 446.216 2021.99 441.025 2015.44 437.35C2009.05 433.676 2001.78 431.839 1993.63 431.839C1985.48 431.839 1978.22 433.676 1971.83 437.35C1965.44 441.025 1960.32 446.216 1956.49 452.926C1952.66 459.475 1950.74 467.303 1950.74 476.409C1950.74 485.355 1952.66 493.262 1956.49 500.131C1960.32 506.841 1965.44 512.032 1971.83 515.707C1978.22 519.381 1985.48 521.218 1993.63 521.218Z" fill="white"/>
<path d="M1848.72 541.346C1835.94 541.346 1824.59 538.551 1814.69 532.959C1804.78 527.368 1796.96 519.7 1791.21 509.956C1785.46 500.051 1782.58 488.869 1782.58 476.409C1782.58 463.789 1785.46 452.606 1791.21 442.862C1796.96 433.117 1804.78 425.529 1814.69 420.098C1824.59 414.507 1835.94 411.711 1848.72 411.711C1861.34 411.711 1872.6 414.507 1882.5 420.098C1892.57 425.529 1900.39 433.117 1905.99 442.862C1911.74 452.447 1914.61 463.629 1914.61 476.409C1914.61 489.029 1911.74 500.211 1905.99 509.956C1900.39 519.7 1892.57 527.368 1882.5 532.959C1872.6 538.551 1861.34 541.346 1848.72 541.346ZM1848.72 521.218C1856.86 521.218 1864.13 519.381 1870.52 515.707C1877.07 512.032 1882.18 506.841 1885.86 500.131C1889.53 493.262 1891.37 485.355 1891.37 476.409C1891.37 467.303 1889.53 459.475 1885.86 452.926C1882.18 446.216 1877.07 441.025 1870.52 437.35C1864.13 433.676 1856.86 431.839 1848.72 431.839C1840.57 431.839 1833.3 433.676 1826.91 437.35C1820.52 441.025 1815.41 446.216 1811.57 452.926C1807.74 459.475 1805.82 467.303 1805.82 476.409C1805.82 485.355 1807.74 493.262 1811.57 500.131C1815.41 506.841 1820.52 512.032 1826.91 515.707C1833.3 519.381 1840.57 521.218 1848.72 521.218Z" fill="white"/>
<path d="M1690.65 541.345C1678.35 541.345 1667.33 538.63 1657.58 533.198C1648 527.767 1640.41 520.179 1634.82 510.434C1629.23 500.689 1626.43 489.347 1626.43 476.408C1626.43 463.468 1629.23 452.206 1634.82 442.621C1640.41 432.877 1648 425.289 1657.58 419.857C1667.33 414.426 1678.35 411.71 1690.65 411.71C1701.36 411.71 1711.02 414.106 1719.65 418.899C1728.27 423.691 1735.14 430.88 1740.25 440.465C1745.53 450.049 1748.16 462.031 1748.16 476.408C1748.16 490.785 1745.61 502.766 1740.49 512.351C1735.54 521.936 1728.75 529.204 1720.13 534.157C1711.5 538.949 1701.67 541.345 1690.65 541.345ZM1692.57 521.217C1700.56 521.217 1707.75 519.38 1714.14 515.706C1720.68 512.032 1725.8 506.84 1729.47 500.13C1733.3 493.261 1735.22 485.354 1735.22 476.408C1735.22 467.302 1733.3 459.475 1729.47 452.925C1725.8 446.216 1720.68 441.024 1714.14 437.35C1707.75 433.675 1700.56 431.838 1692.57 431.838C1684.42 431.838 1677.15 433.675 1670.76 437.35C1664.37 441.024 1659.26 446.216 1655.43 452.925C1651.59 459.475 1649.68 467.302 1649.68 476.408C1649.68 485.354 1651.59 493.261 1655.43 500.13C1659.26 506.84 1664.37 512.032 1670.76 515.706C1677.15 519.38 1684.42 521.217 1692.57 521.217ZM1735.94 539.908V505.642L1737.38 476.168L1734.98 446.695V362.108H1757.99V539.908H1735.94Z" fill="white"/>
<path d="M1332.7 713.204V671.599L1505.97 461.996L1518.08 484.642H1335.86V431.978H1570.75V473.582L1397.48 683.185L1384.31 660.54H1575.49V713.204H1332.7Z" fill="white"/>
<path fill-rule="evenodd" clip-rule="evenodd" d="M1219.44 431.976V713.202H1285.27V431.976H1219.44Z" fill="white"/>
<path d="M1252.62 385.632C1240.33 385.632 1230.15 381.77 1222.08 374.046C1214.35 366.322 1210.49 357.018 1210.49 346.134C1210.49 334.899 1214.35 325.595 1222.08 318.222C1230.15 310.498 1240.33 306.636 1252.62 306.636C1264.91 306.636 1274.92 310.322 1282.64 317.695C1290.72 324.717 1294.75 333.67 1294.75 344.554C1294.75 356.14 1290.89 365.971 1283.17 374.046C1275.44 381.77 1265.26 385.632 1252.62 385.632Z" fill="#FFD700"/>
<path d="M1016.67 713.202V431.976H1079.34V509.392L1071.96 486.747C1080.39 467.788 1093.56 453.393 1111.46 443.562C1129.72 433.732 1152.36 428.816 1179.4 428.816V491.487C1176.59 490.784 1173.96 490.433 1171.5 490.433C1169.04 490.082 1166.58 489.907 1164.13 489.907C1139.2 489.907 1119.36 497.28 1104.62 512.026C1089.87 526.42 1082.5 548.013 1082.5 576.802V713.202H1016.67Z" fill="white"/>
<path d="M827.314 716.889C803.44 716.889 782.199 711.623 763.591 701.09C744.983 690.557 730.237 674.758 719.353 653.693C708.82 632.276 703.554 605.242 703.554 572.59C703.554 539.587 708.996 512.553 719.88 491.487C731.115 470.422 746.036 454.798 764.644 444.616C783.603 434.083 804.493 428.817 827.314 428.817C855.051 428.817 879.452 434.786 900.517 446.723C921.934 458.66 938.787 475.337 951.075 496.754C963.714 518.17 970.034 543.449 970.034 572.59C970.034 601.731 963.714 627.009 951.075 648.426C938.787 669.843 921.934 686.695 900.517 698.984C879.452 710.921 855.051 716.889 827.314 716.889ZM671.429 713.203V322.436H737.259V497.28L731.992 572.063L734.099 646.846V713.203H671.429ZM819.941 660.539C835.741 660.539 849.784 657.028 862.073 650.006C874.712 642.984 884.718 632.802 892.091 619.461C899.464 606.119 903.151 590.496 903.151 572.59C903.151 554.333 899.464 538.709 892.091 525.719C884.718 512.377 874.712 502.196 862.073 495.174C849.784 488.152 835.741 484.641 819.941 484.641C804.142 484.641 789.923 488.152 777.283 495.174C764.644 502.196 754.638 512.377 747.265 525.719C739.892 538.709 736.206 554.333 736.206 572.59C736.206 590.496 739.892 606.119 747.265 619.461C754.638 632.802 764.644 642.984 777.283 650.006C789.923 657.028 804.142 660.539 819.941 660.539Z" fill="white"/>
<path d="M422.054 207.194C467.209 197.596 503.815 227.239 503.815 273.404V687.165C503.815 733.329 467.209 778.534 422.054 788.132L287.147 816.807C241.992 826.405 205.386 796.762 205.386 750.598V336.837C205.386 290.672 241.992 245.468 287.147 235.87L422.054 207.194ZM438.406 320.2C438.406 292.501 416.442 274.715 389.349 280.474L319.852 295.247C292.759 301.005 270.795 328.128 270.795 355.827V702.717C270.795 730.416 292.759 748.202 319.852 742.443L389.349 727.67C416.442 721.911 438.406 694.789 438.406 667.09V320.2Z" fill="white"/>
</svg>
