<svg width="254" height="96" viewBox="0 0 254 96" fill="none" xmlns="http://www.w3.org/2000/svg">
<rect width="253.189" height="96" fill="black"/>
<path d="M228.791 67.208C227.802 67.208 226.859 67.0732 225.96 66.8036C225.077 66.5341 224.38 66.2046 223.871 65.8152L224.77 64.1079C225.279 64.4523 225.908 64.7444 226.657 64.984C227.406 65.2236 228.169 65.3434 228.948 65.3434C229.951 65.3434 230.67 65.2012 231.105 64.9166C231.554 64.6321 231.779 64.2352 231.779 63.726C231.779 63.3516 231.644 63.0595 231.374 62.8499C231.105 62.6402 230.745 62.483 230.296 62.3781C229.862 62.2733 229.375 62.1834 228.836 62.1085C228.297 62.0187 227.757 61.9139 227.218 61.794C226.679 61.6593 226.185 61.4795 225.736 61.2549C225.286 61.0153 224.927 60.6933 224.657 60.2889C224.388 59.8696 224.253 59.3155 224.253 58.6265C224.253 57.9077 224.455 57.2787 224.86 56.7395C225.264 56.2004 225.833 55.7885 226.567 55.504C227.316 55.2045 228.199 55.0547 229.218 55.0547C229.996 55.0547 230.783 55.152 231.576 55.3467C232.385 55.5264 233.044 55.7885 233.553 56.133L232.632 57.8403C232.093 57.4809 231.531 57.2337 230.947 57.099C230.363 56.9642 229.779 56.8968 229.195 56.8968C228.252 56.8968 227.548 57.054 227.084 57.3685C226.619 57.6681 226.387 58.0574 226.387 58.5367C226.387 58.941 226.522 59.2555 226.791 59.4802C227.076 59.6899 227.435 59.8546 227.87 59.9744C228.319 60.0942 228.813 60.1991 229.352 60.2889C229.892 60.3638 230.431 60.4686 230.97 60.6034C231.509 60.7232 231.996 60.8955 232.43 61.1201C232.879 61.3448 233.239 61.6593 233.508 62.0636C233.793 62.468 233.935 63.0071 233.935 63.6811C233.935 64.3999 233.726 65.0214 233.306 65.5456C232.887 66.0698 232.295 66.4816 231.531 66.7812C230.768 67.0657 229.854 67.208 228.791 67.208Z" fill="white"/>
<path d="M217.115 55.0547C218.089 55.0547 218.942 55.2419 219.676 55.6163C220.425 55.9907 221.009 56.5598 221.428 57.3236C221.848 58.0874 222.057 59.0534 222.057 60.2215V67.0732H219.901V60.4686C219.901 59.3155 219.616 58.4468 219.047 57.8628C218.493 57.2787 217.707 56.9866 216.688 56.9866C215.925 56.9866 215.258 57.1364 214.689 57.4359C214.12 57.7355 213.678 58.1773 213.364 58.7613C213.064 59.3454 212.914 60.0718 212.914 60.9404V67.0732H210.758V55.167H212.825V58.3794L212.488 57.5258C212.877 56.747 213.476 56.1405 214.285 55.7062C215.093 55.2718 216.037 55.0547 217.115 55.0547Z" fill="white"/>
<path d="M202.981 67.208C201.708 67.208 200.584 66.9459 199.611 66.4217C198.652 65.8976 197.904 65.1787 197.364 64.2651C196.84 63.3516 196.578 62.3032 196.578 61.1201C196.578 59.937 196.833 58.8886 197.342 57.9751C197.866 57.0615 198.577 56.3501 199.476 55.8409C200.39 55.3168 201.415 55.0547 202.554 55.0547C203.707 55.0547 204.725 55.3093 205.609 55.8185C206.492 56.3277 207.181 57.0465 207.676 57.9751C208.185 58.8886 208.439 59.9594 208.439 61.1875C208.439 61.2774 208.432 61.3822 208.417 61.502C208.417 61.6218 208.409 61.7341 208.394 61.839H198.263V60.2889H207.271L206.395 60.8281C206.41 60.0643 206.253 59.3828 205.923 58.7838C205.594 58.1847 205.137 57.7205 204.553 57.391C203.984 57.0465 203.317 56.8743 202.554 56.8743C201.805 56.8743 201.138 57.0465 200.554 57.391C199.97 57.7205 199.513 58.1922 199.184 58.8063C198.855 59.4053 198.69 60.0942 198.69 60.873V61.2324C198.69 62.0262 198.87 62.7375 199.229 63.3666C199.603 63.9806 200.12 64.4598 200.779 64.8043C201.438 65.1487 202.194 65.321 203.048 65.321C203.752 65.321 204.388 65.2012 204.957 64.9615C205.541 64.7219 206.051 64.3625 206.485 63.8832L207.676 65.276C207.136 65.905 206.463 66.3843 205.654 66.7138C204.86 67.0432 203.969 67.208 202.981 67.208Z" fill="white"/>
<path d="M189.897 67.208C188.624 67.208 187.5 66.9459 186.527 66.4217C185.568 65.8976 184.82 65.1787 184.28 64.2651C183.756 63.3516 183.494 62.3032 183.494 61.1201C183.494 59.937 183.749 58.8886 184.258 57.9751C184.782 57.0615 185.493 56.3501 186.392 55.8409C187.306 55.3168 188.331 55.0547 189.47 55.0547C190.623 55.0547 191.641 55.3093 192.525 55.8185C193.408 56.3277 194.097 57.0465 194.592 57.9751C195.101 58.8886 195.355 59.9594 195.355 61.1875C195.355 61.2774 195.348 61.3822 195.333 61.502C195.333 61.6218 195.325 61.7341 195.31 61.839H185.179V60.2889H194.187L193.311 60.8281C193.326 60.0643 193.169 59.3828 192.839 58.7838C192.51 58.1847 192.053 57.7205 191.469 57.391C190.9 57.0465 190.233 56.8743 189.47 56.8743C188.721 56.8743 188.054 57.0465 187.47 57.391C186.886 57.7205 186.43 58.1922 186.1 58.8063C185.771 59.4053 185.606 60.0942 185.606 60.873V61.2324C185.606 62.0262 185.786 62.7375 186.145 63.3666C186.519 63.9806 187.036 64.4598 187.695 64.8043C188.354 65.1487 189.11 65.321 189.964 65.321C190.668 65.321 191.304 65.2012 191.873 64.9615C192.457 64.7219 192.967 64.3625 193.401 63.8832L194.592 65.276C194.052 65.905 193.379 66.3843 192.57 66.7138C191.776 67.0432 190.885 67.208 189.897 67.208Z" fill="white"/>
<path d="M176.318 67.0732V55.167H178.385V58.4019L178.183 57.5932C178.512 56.7695 179.067 56.1405 179.845 55.7062C180.624 55.2718 181.583 55.0547 182.721 55.0547V57.1439C182.631 57.1289 182.541 57.1214 182.451 57.1214C182.376 57.1214 182.301 57.1214 182.227 57.1214C181.073 57.1214 180.16 57.4659 179.486 58.1548C178.812 58.8437 178.475 59.8396 178.475 61.1426V67.0732H176.318Z" fill="white"/>
<path d="M169.349 67.208C168.136 67.208 167.05 66.9459 166.091 66.4217C165.148 65.8976 164.406 65.1787 163.867 64.2651C163.328 63.3516 163.059 62.3032 163.059 61.1201C163.059 59.937 163.328 58.8886 163.867 57.9751C164.406 57.0615 165.148 56.3501 166.091 55.8409C167.05 55.3168 168.136 55.0547 169.349 55.0547C170.427 55.0547 171.385 55.2718 172.224 55.7062C173.078 56.1255 173.737 56.7545 174.201 57.5932L172.561 58.649C172.172 58.0649 171.692 57.6381 171.123 57.3685C170.569 57.084 169.97 56.9417 169.326 56.9417C168.547 56.9417 167.851 57.1139 167.237 57.4584C166.623 57.8028 166.136 58.2896 165.777 58.9186C165.417 59.5326 165.238 60.2665 165.238 61.1201C165.238 61.9738 165.417 62.7151 165.777 63.3441C166.136 63.9731 166.623 64.4598 167.237 64.8043C167.851 65.1487 168.547 65.321 169.326 65.321C169.97 65.321 170.569 65.1862 171.123 64.9166C171.692 64.6321 172.172 64.1977 172.561 63.6137L174.201 64.647C173.737 65.4707 173.078 66.1072 172.224 66.5565C171.385 66.9908 170.427 67.208 169.349 67.208Z" fill="white"/>
<path d="M156.992 67.208C156.004 67.208 155.06 67.0732 154.161 66.8036C153.278 66.5341 152.581 66.2046 152.072 65.8152L152.971 64.1079C153.48 64.4523 154.109 64.7444 154.858 64.984C155.607 65.2236 156.37 65.3434 157.149 65.3434C158.153 65.3434 158.872 65.2012 159.306 64.9166C159.755 64.6321 159.98 64.2352 159.98 63.726C159.98 63.3516 159.845 63.0595 159.575 62.8499C159.306 62.6402 158.946 62.483 158.497 62.3781C158.063 62.2733 157.576 62.1834 157.037 62.1085C156.498 62.0187 155.959 61.9139 155.419 61.794C154.88 61.6593 154.386 61.4795 153.937 61.2549C153.488 61.0153 153.128 60.6933 152.859 60.2889C152.589 59.8696 152.454 59.3155 152.454 58.6265C152.454 57.9077 152.656 57.2787 153.061 56.7395C153.465 56.2004 154.034 55.7885 154.768 55.504C155.517 55.2045 156.4 55.0547 157.419 55.0547C158.198 55.0547 158.984 55.152 159.778 55.3467C160.586 55.5264 161.245 55.7885 161.754 56.133L160.833 57.8403C160.294 57.4809 159.733 57.2337 159.149 57.099C158.565 56.9642 157.98 56.8968 157.396 56.8968C156.453 56.8968 155.749 57.054 155.285 57.3685C154.82 57.6681 154.588 58.0574 154.588 58.5367C154.588 58.941 154.723 59.2555 154.993 59.4802C155.277 59.6899 155.637 59.8546 156.071 59.9744C156.52 60.0942 157.014 60.1991 157.554 60.2889C158.093 60.3638 158.632 60.4686 159.171 60.6034C159.71 60.7232 160.197 60.8955 160.631 61.1201C161.081 61.3448 161.44 61.6593 161.71 62.0636C161.994 62.468 162.136 63.0071 162.136 63.6811C162.136 64.3999 161.927 65.0214 161.507 65.5456C161.088 66.0698 160.496 66.4816 159.733 66.7812C158.969 67.0657 158.055 67.208 156.992 67.208Z" fill="white"/>
<path d="M223.238 47.8083V37.6992H225.642V47.8083H223.238ZM219.262 43.877V41.6305H229.618V43.877H219.262Z" fill="#FFD700"/>
<path d="M207.322 50.7519C206.334 50.7519 205.39 50.6171 204.492 50.3476C203.608 50.078 202.912 49.7485 202.402 49.3591L203.301 47.6518C203.81 47.9963 204.439 48.2883 205.188 48.5279C205.937 48.7676 206.701 48.8874 207.479 48.8874C208.483 48.8874 209.202 48.7451 209.636 48.4606C210.085 48.176 210.31 47.7791 210.31 47.2699C210.31 46.8955 210.175 46.6035 209.905 46.3938C209.636 46.1842 209.276 46.0269 208.827 45.9221C208.393 45.8172 207.906 45.7274 207.367 45.6525C206.828 45.5626 206.289 45.4578 205.75 45.338C205.21 45.2032 204.716 45.0235 204.267 44.7988C203.818 44.5592 203.458 44.2372 203.189 43.8329C202.919 43.4135 202.784 42.8594 202.784 42.1705C202.784 41.4516 202.986 40.8226 203.391 40.2835C203.795 39.7443 204.364 39.3325 205.098 39.0479C205.847 38.7484 206.731 38.5986 207.749 38.5986C208.528 38.5986 209.314 38.696 210.108 38.8907C210.916 39.0704 211.575 39.3325 212.085 39.6769L211.164 41.3842C210.624 41.0248 210.063 40.7777 209.479 40.6429C208.895 40.5081 208.311 40.4407 207.726 40.4407C206.783 40.4407 206.079 40.598 205.615 40.9125C205.151 41.212 204.918 41.6014 204.918 42.0806C204.918 42.485 205.053 42.7995 205.323 43.0241C205.607 43.2338 205.967 43.3986 206.401 43.5184C206.85 43.6382 207.345 43.743 207.884 43.8329C208.423 43.9077 208.962 44.0126 209.501 44.1474C210.04 44.2672 210.527 44.4394 210.961 44.6641C211.411 44.8887 211.77 45.2032 212.04 45.6076C212.324 46.0119 212.466 46.5511 212.466 47.225C212.466 47.9439 212.257 48.5654 211.837 49.0896C211.418 49.6137 210.827 50.0256 210.063 50.3251C209.299 50.6097 208.385 50.7519 207.322 50.7519Z" fill="white"/>
<path d="M195.389 50.6171V38.711H197.455V41.9458L197.253 41.1371C197.583 40.3134 198.137 39.6844 198.916 39.2501C199.694 38.8158 200.653 38.5986 201.791 38.5986V40.6878C201.701 40.6729 201.611 40.6654 201.521 40.6654C201.447 40.6654 201.372 40.6654 201.297 40.6654C200.144 40.6654 199.23 41.0098 198.556 41.6987C197.882 42.3876 197.545 43.3836 197.545 44.6865V50.6171H195.389Z" fill="white"/>
<path d="M186.901 50.7519C185.703 50.7519 184.64 50.4899 183.711 49.9657C182.783 49.4415 182.049 48.7226 181.51 47.8091C180.971 46.8806 180.701 45.8322 180.701 44.6641C180.701 43.4809 180.971 42.4326 181.51 41.519C182.049 40.6055 182.783 39.8941 183.711 39.3849C184.64 38.8607 185.703 38.5986 186.901 38.5986C188.085 38.5986 189.14 38.8607 190.069 39.3849C191.012 39.8941 191.746 40.6055 192.27 41.519C192.81 42.4176 193.079 43.4659 193.079 44.6641C193.079 45.8472 192.81 46.8955 192.27 47.8091C191.746 48.7226 191.012 49.4415 190.069 49.9657C189.14 50.4899 188.085 50.7519 186.901 50.7519ZM186.901 48.8649C187.665 48.8649 188.347 48.6927 188.946 48.3482C189.56 48.0038 190.039 47.517 190.383 46.888C190.728 46.2441 190.9 45.5027 190.9 44.6641C190.9 43.8104 190.728 43.0766 190.383 42.4625C190.039 41.8335 189.56 41.3468 188.946 41.0023C188.347 40.6579 187.665 40.4857 186.901 40.4857C186.138 40.4857 185.456 40.6579 184.857 41.0023C184.258 41.3468 183.779 41.8335 183.419 42.4625C183.06 43.0766 182.88 43.8104 182.88 44.6641C182.88 45.5027 183.06 46.2441 183.419 46.888C183.779 47.517 184.258 48.0038 184.857 48.3482C185.456 48.6927 186.138 48.8649 186.901 48.8649Z" fill="white"/>
<path d="M173.317 50.7519C172.119 50.7519 171.056 50.4899 170.127 49.9657C169.199 49.4415 168.465 48.7226 167.926 47.8091C167.387 46.8806 167.117 45.8322 167.117 44.6641C167.117 43.4809 167.387 42.4326 167.926 41.519C168.465 40.6055 169.199 39.8941 170.127 39.3849C171.056 38.8607 172.119 38.5986 173.317 38.5986C174.501 38.5986 175.556 38.8607 176.485 39.3849C177.428 39.8941 178.162 40.6055 178.686 41.519C179.226 42.4176 179.495 43.4659 179.495 44.6641C179.495 45.8472 179.226 46.8955 178.686 47.8091C178.162 48.7226 177.428 49.4415 176.485 49.9657C175.556 50.4899 174.501 50.7519 173.317 50.7519ZM173.317 48.8649C174.081 48.8649 174.763 48.6927 175.362 48.3482C175.976 48.0038 176.455 47.517 176.799 46.888C177.144 46.2441 177.316 45.5027 177.316 44.6641C177.316 43.8104 177.144 43.0766 176.799 42.4625C176.455 41.8335 175.976 41.3468 175.362 41.0023C174.763 40.6579 174.081 40.4857 173.317 40.4857C172.554 40.4857 171.872 40.6579 171.273 41.0023C170.674 41.3468 170.195 41.8335 169.835 42.4625C169.476 43.0766 169.296 43.8104 169.296 44.6641C169.296 45.5027 169.476 46.2441 169.835 46.888C170.195 47.517 170.674 48.0038 171.273 48.3482C171.872 48.6927 172.554 48.8649 173.317 48.8649Z" fill="white"/>
<path d="M158.497 50.7512C157.344 50.7512 156.311 50.4966 155.397 49.9874C154.498 49.4782 153.787 48.7668 153.263 47.8533C152.739 46.9397 152.477 45.8764 152.477 44.6633C152.477 43.4502 152.739 42.3944 153.263 41.4958C153.787 40.5823 154.498 39.8709 155.397 39.3617C156.311 38.8525 157.344 38.5979 158.497 38.5979C159.5 38.5979 160.407 38.8226 161.215 39.2718C162.024 39.7211 162.668 40.3951 163.147 41.2936C163.641 42.1922 163.889 43.3155 163.889 44.6633C163.889 46.0112 163.649 47.1344 163.17 48.033C162.705 48.9316 162.069 49.613 161.26 50.0773C160.451 50.5266 159.53 50.7512 158.497 50.7512ZM158.677 48.8642C159.426 48.8642 160.1 48.692 160.699 48.3475C161.313 48.0031 161.792 47.5163 162.136 46.8873C162.496 46.2433 162.675 45.502 162.675 44.6633C162.675 43.8097 162.496 43.0758 162.136 42.4618C161.792 41.8328 161.313 41.3461 160.699 41.0016C160.1 40.6572 159.426 40.4849 158.677 40.4849C157.913 40.4849 157.232 40.6572 156.632 41.0016C156.033 41.3461 155.554 41.8328 155.195 42.4618C154.835 43.0758 154.656 43.8097 154.656 44.6633C154.656 45.502 154.835 46.2433 155.195 46.8873C155.554 47.5163 156.033 48.0031 156.632 48.3475C157.232 48.692 157.913 48.8642 158.677 48.8642ZM162.743 50.6164V47.404L162.878 44.6409L162.653 41.8777V33.9478H164.81V50.6164H162.743Z" fill="white"/>
<path d="M124.941 66.861V62.9606L141.185 43.3103L142.321 45.4334H125.238V40.4961H147.258V44.3965L131.014 64.0468L129.78 61.9238H147.702V66.861H124.941Z" fill="white"/>
<path fill-rule="evenodd" clip-rule="evenodd" d="M114.322 40.4972V66.8622H120.493V40.4972H114.322Z" fill="white"/>
<path d="M117.432 36.1525C116.28 36.1525 115.326 35.7904 114.569 35.0663C113.844 34.3421 113.482 33.4699 113.482 32.4495C113.482 31.3962 113.844 30.524 114.569 29.8328C115.326 29.1086 116.28 28.7466 117.432 28.7466C118.584 28.7466 119.522 29.0922 120.246 29.7834C121.004 30.4417 121.382 31.281 121.382 32.3014C121.382 33.3876 121.02 34.3092 120.296 35.0663C119.572 35.7904 118.617 36.1525 117.432 36.1525Z" fill="#FFD700"/>
<path d="M95.3125 66.8614V40.4964H101.188V47.7542L100.497 45.6312C101.287 43.8538 102.521 42.5042 104.2 41.5826C105.911 40.661 108.034 40.2002 110.569 40.2002V46.0755C110.305 46.0097 110.058 45.9768 109.828 45.9768C109.598 45.9439 109.367 45.9274 109.137 45.9274C106.8 45.9274 104.94 46.6186 103.558 48.0011C102.175 49.3506 101.484 51.3749 101.484 54.0739V66.8614H95.3125Z" fill="white"/>
<path d="M77.5596 67.2076C75.3214 67.2076 73.33 66.7139 71.5855 65.7264C69.841 64.739 68.4586 63.2578 67.4382 61.2829C66.4508 59.2751 65.957 56.7406 65.957 53.6795C65.957 50.5855 66.4672 48.051 67.4876 46.0761C68.5409 44.1012 69.9398 42.6365 71.6843 41.682C73.4617 40.6945 75.4201 40.2008 77.5596 40.2008C80.1599 40.2008 82.4475 40.7604 84.4224 41.8795C86.4302 42.9986 88.0101 44.562 89.1621 46.5699C90.3471 48.5777 90.9396 50.9476 90.9396 53.6795C90.9396 56.4115 90.3471 58.7813 89.1621 60.7892C88.0101 62.797 86.4302 64.3769 84.4224 65.5289C82.4475 66.648 80.1599 67.2076 77.5596 67.2076ZM62.9453 66.862V30.2275H69.1169V46.6192L68.6232 53.6301L68.8206 60.641V66.862H62.9453ZM76.8684 61.9247C78.3496 61.9247 79.6662 61.5956 80.8182 60.9373C82.0031 60.279 82.9412 59.3244 83.6324 58.0737C84.3236 56.8229 84.6692 55.3582 84.6692 53.6795C84.6692 51.9679 84.3236 50.5032 83.6324 49.2853C82.9412 48.0346 82.0031 47.08 80.8182 46.4217C79.6662 45.7634 78.3496 45.4343 76.8684 45.4343C75.3872 45.4343 74.0541 45.7634 72.8692 46.4217C71.6843 47.08 70.7462 48.0346 70.055 49.2853C69.3637 50.5032 69.0181 51.9679 69.0181 53.6795C69.0181 55.3582 69.3637 56.8229 70.055 58.0737C70.7462 59.3244 71.6843 60.279 72.8692 60.9373C74.0541 61.5956 75.3872 61.9247 76.8684 61.9247Z" fill="white"/>
<path d="M39.5685 19.4236C43.8018 18.5238 47.2336 21.3028 47.2336 25.6307V64.4208C47.2336 68.7487 43.8018 72.9867 39.5685 73.8865L26.921 76.5748C22.6877 77.4746 19.2559 74.6956 19.2559 70.3677V31.5775C19.2559 27.2496 22.6877 23.0117 26.921 22.1119L39.5685 19.4236ZM41.1015 30.0178C41.1015 27.4211 39.0424 25.7536 36.5024 26.2935L29.9871 27.6785C27.4471 28.2184 25.388 30.7611 25.388 33.3579V65.8789C25.388 68.4756 27.4471 70.1431 29.9871 69.6032L36.5024 68.2182C39.0424 67.6783 41.1015 65.1356 41.1015 62.5388V30.0178Z" fill="white"/>
</svg>
