<svg width="10550" height="4000" viewBox="0 0 10550 4000" fill="none" xmlns="http://www.w3.org/2000/svg">
<rect width="10549.5" height="4000" fill="black"/>
<path d="M9532.9 2800.36C9491.72 2800.36 9452.4 2794.74 9414.96 2783.51C9378.15 2772.28 9349.13 2758.55 9327.91 2742.32L9365.35 2671.19C9386.57 2685.54 9412.78 2697.71 9443.98 2707.69C9475.18 2717.67 9507 2722.67 9539.45 2722.67C9581.26 2722.67 9611.21 2716.74 9629.31 2704.88C9648.03 2693.03 9657.39 2676.49 9657.39 2655.27C9657.39 2639.67 9651.78 2627.5 9640.54 2618.77C9629.31 2610.03 9614.33 2603.48 9595.61 2599.11C9577.52 2594.74 9557.24 2591 9534.77 2587.88C9512.31 2584.14 9489.84 2579.77 9467.38 2574.78C9444.91 2569.16 9424.32 2561.67 9405.6 2552.31C9386.88 2542.33 9371.91 2528.91 9360.67 2512.06C9349.44 2494.59 9343.82 2471.5 9343.82 2442.8C9343.82 2412.84 9352.25 2386.63 9369.1 2364.17C9385.95 2341.71 9409.66 2324.55 9440.23 2312.69C9471.44 2300.21 9508.25 2293.97 9550.69 2293.97C9583.13 2293.97 9615.89 2298.02 9648.97 2306.14C9682.66 2313.63 9710.12 2324.55 9731.34 2338.9L9692.96 2410.04C9670.5 2395.06 9647.1 2384.76 9622.76 2379.15C9598.42 2373.53 9574.09 2370.72 9549.75 2370.72C9510.44 2370.72 9481.11 2377.27 9461.76 2390.38C9442.42 2402.86 9432.75 2419.08 9432.75 2439.05C9432.75 2455.9 9438.36 2469 9449.59 2478.36C9461.45 2487.1 9476.43 2493.97 9494.52 2498.96C9513.24 2503.95 9533.84 2508.32 9556.3 2512.06C9578.77 2515.18 9601.23 2519.55 9623.69 2525.17C9646.16 2530.16 9666.44 2537.33 9684.54 2546.69C9703.26 2556.05 9718.23 2569.16 9729.47 2586.01C9741.32 2602.86 9747.25 2625.32 9747.25 2653.4C9747.25 2683.35 9738.51 2709.25 9721.04 2731.09C9703.57 2752.93 9678.92 2770.09 9647.1 2782.57C9615.27 2794.43 9577.21 2800.36 9532.9 2800.36Z" fill="white"/>
<path d="M9046.48 2293.97C9087.04 2293.97 9122.61 2301.77 9153.19 2317.37C9184.39 2332.97 9208.73 2356.68 9226.2 2388.51C9243.67 2420.33 9252.41 2460.58 9252.41 2509.25V2794.74H9162.55V2519.55C9162.55 2471.5 9150.69 2435.31 9126.98 2410.97C9103.89 2386.63 9071.13 2374.47 9028.7 2374.47C8996.87 2374.47 8969.1 2380.71 8945.39 2393.19C8921.68 2405.67 8903.27 2424.08 8890.17 2448.41C8877.69 2472.75 8871.45 2503.01 8871.45 2539.21V2794.74H8781.59V2298.65H8867.7V2432.5L8853.66 2396.93C8869.89 2364.48 8894.85 2339.21 8928.54 2321.11C8962.24 2303.02 9001.55 2293.97 9046.48 2293.97Z" fill="white"/>
<path d="M8457.44 2800.36C8404.4 2800.36 8357.6 2789.44 8317.04 2767.6C8277.1 2745.76 8245.9 2715.8 8223.44 2677.74C8201.6 2639.67 8190.68 2595.99 8190.68 2546.69C8190.68 2497.4 8201.28 2453.72 8222.5 2415.65C8244.34 2377.59 8273.98 2347.95 8311.42 2326.73C8349.49 2304.89 8392.23 2293.97 8439.66 2293.97C8487.71 2293.97 8530.14 2304.58 8566.96 2325.79C8603.77 2347.01 8632.48 2376.96 8653.07 2415.65C8674.29 2453.72 8684.9 2498.33 8684.9 2549.5C8684.9 2553.25 8684.58 2557.61 8683.96 2562.61C8683.96 2567.6 8683.65 2572.28 8683.02 2576.65H8260.88V2512.06H8636.22L8599.72 2534.53C8600.34 2502.7 8593.79 2474.31 8580.06 2449.35C8566.33 2424.39 8547.3 2405.04 8522.96 2391.31C8499.25 2376.96 8471.48 2369.79 8439.66 2369.79C8408.46 2369.79 8380.69 2376.96 8356.35 2391.31C8332.01 2405.04 8312.98 2424.7 8299.25 2450.28C8285.53 2475.24 8278.66 2503.95 8278.66 2536.4V2551.37C8278.66 2584.45 8286.15 2614.09 8301.13 2640.3C8316.73 2665.88 8338.26 2685.85 8365.71 2700.2C8393.17 2714.55 8424.68 2721.73 8460.25 2721.73C8489.58 2721.73 8516.1 2716.74 8539.81 2706.75C8564.15 2696.77 8585.36 2681.79 8603.46 2661.83L8653.07 2719.86C8630.61 2746.07 8602.53 2766.04 8568.83 2779.76C8535.76 2793.49 8498.63 2800.36 8457.44 2800.36Z" fill="white"/>
<path d="M7912.39 2800.36C7859.35 2800.36 7812.55 2789.44 7771.99 2767.6C7732.05 2745.76 7700.85 2715.8 7678.38 2677.74C7656.54 2639.67 7645.62 2595.99 7645.62 2546.69C7645.62 2497.4 7656.23 2453.72 7677.45 2415.65C7699.29 2377.59 7728.93 2347.95 7766.37 2326.73C7804.43 2304.89 7847.18 2293.97 7894.6 2293.97C7942.65 2293.97 7985.09 2304.58 8021.9 2325.79C8058.72 2347.01 8087.43 2376.96 8108.02 2415.65C8129.23 2453.72 8139.84 2498.33 8139.84 2549.5C8139.84 2553.25 8139.53 2557.61 8138.91 2562.61C8138.91 2567.6 8138.59 2572.28 8137.97 2576.65H7715.82V2512.06H8091.17L8054.66 2534.53C8055.29 2502.7 8048.74 2474.31 8035.01 2449.35C8021.28 2424.39 8002.25 2405.04 7977.91 2391.31C7954.2 2376.96 7926.43 2369.79 7894.6 2369.79C7863.4 2369.79 7835.64 2376.96 7811.3 2391.31C7786.96 2405.04 7767.93 2424.7 7754.2 2450.28C7740.47 2475.24 7733.61 2503.95 7733.61 2536.4V2551.37C7733.61 2584.45 7741.1 2614.09 7756.07 2640.3C7771.67 2665.88 7793.2 2685.85 7820.66 2700.2C7848.12 2714.55 7879.63 2721.73 7915.2 2721.73C7944.53 2721.73 7971.05 2716.74 7994.76 2706.75C8019.1 2696.77 8040.31 2681.79 8058.41 2661.83L8108.02 2719.86C8085.55 2746.07 8057.47 2766.04 8023.78 2779.76C7990.7 2793.49 7953.57 2800.36 7912.39 2800.36Z" fill="white"/>
<path d="M7346.62 2794.74V2298.65H7432.74V2433.44L7424.31 2399.74C7438.04 2365.42 7461.13 2339.21 7493.58 2321.11C7526.03 2303.02 7565.97 2293.97 7613.39 2293.97V2381.02C7609.65 2380.39 7605.9 2380.08 7602.16 2380.08C7599.04 2380.08 7595.92 2380.08 7592.8 2380.08C7544.75 2380.08 7506.68 2394.43 7478.6 2423.14C7450.52 2451.84 7436.48 2493.34 7436.48 2547.63V2794.74H7346.62Z" fill="white"/>
<path d="M7056.19 2800.36C7005.64 2800.36 6960.4 2789.44 6920.46 2767.6C6881.15 2745.76 6850.26 2715.8 6827.8 2677.74C6805.33 2639.67 6794.1 2595.99 6794.1 2546.69C6794.1 2497.4 6805.33 2453.72 6827.8 2415.65C6850.26 2377.59 6881.15 2347.95 6920.46 2326.73C6960.4 2304.89 7005.64 2293.97 7056.19 2293.97C7101.11 2293.97 7141.05 2303.02 7176 2321.11C7211.57 2338.59 7239.02 2364.79 7258.37 2399.74L7190.04 2443.73C7173.81 2419.4 7153.84 2401.61 7130.13 2390.38C7107.04 2378.52 7082.08 2372.59 7055.25 2372.59C7022.8 2372.59 6993.78 2379.77 6968.2 2394.12C6942.61 2408.48 6922.33 2428.76 6907.36 2454.96C6892.38 2480.55 6884.89 2511.13 6884.89 2546.69C6884.89 2582.26 6892.38 2613.15 6907.36 2639.36C6922.33 2665.57 6942.61 2685.85 6968.2 2700.2C6993.78 2714.55 7022.8 2721.73 7055.25 2721.73C7082.08 2721.73 7107.04 2716.11 7130.13 2704.88C7153.84 2693.03 7173.81 2674.93 7190.04 2650.59L7258.37 2693.65C7239.02 2727.97 7211.57 2754.49 7176 2773.21C7141.05 2791.31 7101.11 2800.36 7056.19 2800.36Z" fill="white"/>
<path d="M6541.4 2800.36C6500.21 2800.36 6460.9 2794.74 6423.46 2783.51C6386.64 2772.28 6357.62 2758.55 6336.41 2742.32L6373.85 2671.19C6395.07 2685.54 6421.27 2697.71 6452.47 2707.69C6483.68 2717.67 6515.5 2722.67 6547.95 2722.67C6589.76 2722.67 6619.71 2716.74 6637.81 2704.88C6656.53 2693.03 6665.89 2676.49 6665.89 2655.27C6665.89 2639.67 6660.27 2627.5 6649.04 2618.77C6637.81 2610.03 6622.83 2603.48 6604.11 2599.11C6586.01 2594.74 6565.73 2591 6543.27 2587.88C6520.8 2584.14 6498.34 2579.77 6475.88 2574.78C6453.41 2569.16 6432.82 2561.67 6414.1 2552.31C6395.38 2542.33 6380.4 2528.91 6369.17 2512.06C6357.94 2494.59 6352.32 2471.5 6352.32 2442.8C6352.32 2412.84 6360.74 2386.63 6377.59 2364.17C6394.44 2341.71 6418.15 2324.55 6448.73 2312.69C6479.93 2300.21 6516.75 2293.97 6559.18 2293.97C6591.63 2293.97 6624.39 2298.02 6657.46 2306.14C6691.16 2313.63 6718.62 2324.55 6739.83 2338.9L6701.46 2410.04C6678.99 2395.06 6655.59 2384.76 6631.25 2379.15C6606.92 2373.53 6582.58 2370.72 6558.25 2370.72C6518.93 2370.72 6489.6 2377.27 6470.26 2390.38C6450.91 2402.86 6441.24 2419.08 6441.24 2439.05C6441.24 2455.9 6446.86 2469 6458.09 2478.36C6469.95 2487.1 6484.92 2493.97 6503.02 2498.96C6521.74 2503.95 6542.33 2508.32 6564.8 2512.06C6587.26 2515.18 6609.73 2519.55 6632.19 2525.17C6654.66 2530.16 6674.94 2537.33 6693.03 2546.69C6711.75 2556.05 6726.73 2569.16 6737.96 2586.01C6749.82 2602.86 6755.75 2625.32 6755.75 2653.4C6755.75 2683.35 6747.01 2709.25 6729.54 2731.09C6712.06 2752.93 6687.42 2770.09 6655.59 2782.57C6623.77 2794.43 6585.7 2800.36 6541.4 2800.36Z" fill="white"/>
<path d="M9301.61 1992.01V1570.8H9401.77V1992.01H9301.61ZM9135.94 1828.2V1734.6H9567.44V1828.2H9135.94Z" fill="#FFD700"/>
<path d="M8638.41 2114.63C8597.23 2114.63 8557.92 2109.01 8520.48 2097.78C8483.66 2086.55 8454.64 2072.82 8433.43 2056.59L8470.87 1985.46C8492.08 1999.81 8518.29 2011.98 8549.49 2021.96C8580.69 2031.94 8612.52 2036.94 8644.97 2036.94C8686.78 2036.94 8716.73 2031.01 8734.82 2019.15C8753.55 2007.3 8762.91 1990.76 8762.91 1969.54C8762.91 1953.94 8757.29 1941.77 8746.06 1933.04C8734.82 1924.3 8719.85 1917.75 8701.13 1913.38C8683.03 1909.01 8662.75 1905.27 8640.29 1902.15C8617.82 1898.41 8595.36 1894.04 8572.89 1889.05C8550.43 1883.43 8529.84 1875.94 8511.12 1866.58C8492.4 1856.6 8477.42 1843.18 8466.19 1826.33C8454.95 1808.86 8449.34 1785.77 8449.34 1757.07C8449.34 1727.11 8457.76 1700.9 8474.61 1678.44C8491.46 1655.98 8515.17 1638.82 8545.75 1626.96C8576.95 1614.48 8613.77 1608.24 8656.2 1608.24C8688.65 1608.24 8721.41 1612.29 8754.48 1620.41C8788.18 1627.9 8815.63 1638.82 8836.85 1653.17L8798.47 1724.31C8776.01 1709.33 8752.61 1699.03 8728.27 1693.42C8703.94 1687.8 8679.6 1684.99 8655.26 1684.99C8615.95 1684.99 8586.62 1691.54 8567.28 1704.65C8547.93 1717.13 8538.26 1733.35 8538.26 1753.32C8538.26 1770.17 8543.88 1783.27 8555.11 1792.64C8566.96 1801.37 8581.94 1808.24 8600.04 1813.23C8618.76 1818.22 8639.35 1822.59 8661.82 1826.33C8684.28 1829.45 8706.74 1833.82 8729.21 1839.44C8751.67 1844.43 8771.95 1851.6 8790.05 1860.96C8808.77 1870.32 8823.75 1883.43 8834.98 1900.28C8846.84 1917.13 8852.76 1939.59 8852.76 1967.67C8852.76 1997.62 8844.03 2023.52 8826.55 2045.36C8809.08 2067.2 8784.43 2084.36 8752.61 2096.84C8720.78 2108.7 8682.72 2114.63 8638.41 2114.63Z" fill="white"/>
<path d="M8141.22 2109.01V1612.92H8227.33V1747.71L8218.91 1714.01C8232.63 1679.69 8255.72 1653.48 8288.17 1635.38C8320.62 1617.29 8360.56 1608.24 8407.98 1608.24V1695.29C8404.24 1694.66 8400.49 1694.35 8396.75 1694.35C8393.63 1694.35 8390.51 1694.35 8387.39 1694.35C8339.34 1694.35 8301.28 1708.71 8273.2 1737.41C8245.12 1766.11 8231.07 1807.61 8231.07 1861.9V2109.01H8141.22Z" fill="white"/>
<path d="M7787.62 2114.63C7737.7 2114.63 7693.4 2103.71 7654.71 2081.87C7616.02 2060.03 7585.44 2030.07 7562.98 1992.01C7540.51 1953.32 7529.28 1909.64 7529.28 1860.96C7529.28 1811.67 7540.51 1767.99 7562.98 1729.92C7585.44 1691.86 7616.02 1662.22 7654.71 1641C7693.4 1619.16 7737.7 1608.24 7787.62 1608.24C7836.92 1608.24 7880.91 1619.16 7919.6 1641C7958.92 1662.22 7989.49 1691.86 8011.33 1729.92C8033.8 1767.36 8045.03 1811.04 8045.03 1860.96C8045.03 1910.26 8033.8 1953.94 8011.33 1992.01C7989.49 2030.07 7958.92 2060.03 7919.6 2081.87C7880.91 2103.71 7836.92 2114.63 7787.62 2114.63ZM7787.62 2036C7819.45 2036 7847.84 2028.82 7872.8 2014.47C7898.39 2000.12 7918.35 1979.84 7932.71 1953.63C7947.06 1926.8 7954.24 1895.91 7954.24 1860.96C7954.24 1825.4 7947.06 1794.82 7932.71 1769.23C7918.35 1743.03 7898.39 1722.75 7872.8 1708.39C7847.84 1694.04 7819.45 1686.86 7787.62 1686.86C7755.8 1686.86 7727.41 1694.04 7702.45 1708.39C7677.48 1722.75 7657.52 1743.03 7642.54 1769.23C7627.56 1794.82 7620.08 1825.4 7620.08 1860.96C7620.08 1895.91 7627.56 1926.8 7642.54 1953.63C7657.52 1979.84 7677.48 2000.12 7702.45 2014.47C7727.41 2028.82 7755.8 2036 7787.62 2036Z" fill="white"/>
<path d="M7221.55 2114.63C7171.63 2114.63 7127.32 2103.71 7088.63 2081.87C7049.94 2060.03 7019.37 2030.07 6996.9 1992.01C6974.44 1953.32 6963.21 1909.64 6963.21 1860.96C6963.21 1811.67 6974.44 1767.99 6996.9 1729.92C7019.37 1691.86 7049.94 1662.22 7088.63 1641C7127.32 1619.16 7171.63 1608.24 7221.55 1608.24C7270.84 1608.24 7314.84 1619.16 7353.53 1641C7392.84 1662.22 7423.42 1691.86 7445.26 1729.92C7467.72 1767.36 7478.95 1811.04 7478.95 1860.96C7478.95 1910.26 7467.72 1953.94 7445.26 1992.01C7423.42 2030.07 7392.84 2060.03 7353.53 2081.87C7314.84 2103.71 7270.84 2114.63 7221.55 2114.63ZM7221.55 2036C7253.37 2036 7281.76 2028.82 7306.72 2014.47C7332.31 2000.12 7352.28 1979.84 7366.63 1953.63C7380.98 1926.8 7388.16 1895.91 7388.16 1860.96C7388.16 1825.4 7380.98 1794.82 7366.63 1769.23C7352.28 1743.03 7332.31 1722.75 7306.72 1708.39C7281.76 1694.04 7253.37 1686.86 7221.55 1686.86C7189.72 1686.86 7161.33 1694.04 7136.37 1708.39C7111.41 1722.75 7091.44 1743.03 7076.46 1769.23C7061.49 1794.82 7054 1825.4 7054 1860.96C7054 1895.91 7061.49 1926.8 7076.46 1953.63C7091.44 1979.84 7111.41 2000.12 7136.37 2014.47C7161.33 2028.82 7189.72 2036 7221.55 2036Z" fill="white"/>
<path d="M6604.11 2114.62C6556.06 2114.62 6513.01 2104.02 6474.94 2082.8C6437.5 2061.58 6407.86 2031.94 6386.02 1993.88C6364.18 1955.81 6353.26 1911.51 6353.26 1860.96C6353.26 1810.42 6364.18 1766.42 6386.02 1728.98C6407.86 1690.92 6437.5 1661.28 6474.94 1640.06C6513.01 1618.84 6556.06 1608.24 6604.11 1608.24C6645.92 1608.24 6683.67 1617.6 6717.37 1636.32C6751.07 1655.04 6777.9 1683.12 6797.87 1720.56C6818.46 1758 6828.76 1804.8 6828.76 1860.96C6828.76 1917.12 6818.77 1963.92 6798.8 2001.36C6779.46 2038.81 6752.94 2067.2 6719.24 2086.54C6685.55 2105.26 6647.17 2114.62 6604.11 2114.62ZM6611.6 2036C6642.8 2036 6670.88 2028.82 6695.84 2014.47C6721.43 2000.12 6741.39 1979.84 6755.75 1953.63C6770.72 1926.8 6778.21 1895.91 6778.21 1860.96C6778.21 1825.39 6770.72 1794.82 6755.75 1769.23C6741.39 1743.02 6721.43 1722.74 6695.84 1708.39C6670.88 1694.04 6642.8 1686.86 6611.6 1686.86C6579.77 1686.86 6551.38 1694.04 6526.42 1708.39C6501.46 1722.74 6481.49 1743.02 6466.52 1769.23C6451.54 1794.82 6444.05 1825.39 6444.05 1860.96C6444.05 1895.91 6451.54 1926.8 6466.52 1953.63C6481.49 1979.84 6501.46 2000.12 6526.42 2014.47C6551.38 2028.82 6579.77 2036 6611.6 2036ZM6781.02 2109.01V1975.16L6786.64 1860.03L6777.28 1744.9V1414.48H6867.13V2109.01H6781.02Z" fill="white"/>
<path d="M5205.88 2785.95V2623.43L5882.7 1804.67L5930.01 1893.13H5218.23V1687.41H6135.73V1849.93L5458.92 2668.69L5407.49 2580.23H6154.25V2785.95H5205.88Z" fill="white"/>
<path fill-rule="evenodd" clip-rule="evenodd" d="M4763.46 1687.41V2785.95H5020.61V1687.41H4763.46Z" fill="white"/>
<path d="M4893.06 1506.38C4845.06 1506.38 4805.29 1491.29 4773.75 1461.12C4743.57 1430.95 4728.49 1394.6 4728.49 1352.09C4728.49 1308.2 4743.57 1271.86 4773.75 1243.06C4805.29 1212.88 4845.06 1197.8 4893.06 1197.8C4941.06 1197.8 4980.15 1212.2 5010.32 1241C5041.87 1268.43 5057.64 1303.4 5057.64 1345.92C5057.64 1391.17 5042.55 1429.57 5012.38 1461.12C4982.21 1491.29 4942.44 1506.38 4893.06 1506.38Z" fill="#FFD700"/>
<path d="M3971.36 2785.95V1687.41H4216.17V1989.81L4187.37 1901.35C4220.28 1827.3 4271.71 1771.07 4341.66 1732.67C4412.97 1694.26 4501.43 1675.06 4607.03 1675.06V1919.87C4596.06 1917.13 4585.78 1915.76 4576.18 1915.76C4566.58 1914.38 4556.97 1913.7 4547.37 1913.7C4450 1913.7 4372.51 1942.5 4314.91 2000.1C4257.31 2056.33 4228.51 2140.67 4228.51 2253.13V2785.95H3971.36Z" fill="white"/>
<path d="M3231.71 2800.35C3138.45 2800.35 3055.47 2779.78 2982.79 2738.63C2910.1 2697.49 2852.5 2635.77 2809.98 2553.49C2768.84 2469.83 2748.27 2364.23 2748.27 2236.68C2748.27 2107.76 2769.52 2002.16 2812.04 1919.87C2855.93 1837.58 2914.21 1776.55 2986.9 1736.78C3060.96 1695.64 3142.56 1675.07 3231.71 1675.07C3340.05 1675.07 3435.37 1698.38 3517.65 1745.01C3601.31 1791.64 3667.14 1856.79 3715.15 1940.44C3764.52 2024.1 3789.2 2122.85 3789.2 2236.68C3789.2 2350.51 3764.52 2449.26 3715.15 2532.91C3667.14 2616.57 3601.31 2682.4 3517.65 2730.41C3435.37 2777.03 3340.05 2800.35 3231.71 2800.35ZM2622.78 2785.95V1259.51H2879.93V1942.5L2859.35 2234.62L2867.58 2526.74V2785.95H2622.78ZM3202.9 2580.23C3264.62 2580.23 3319.48 2566.52 3367.48 2539.09C3416.85 2511.66 3455.94 2471.88 3484.74 2419.77C3513.54 2367.65 3527.94 2306.62 3527.94 2236.68C3527.94 2165.36 3513.54 2104.33 3484.74 2053.59C3455.94 2001.47 3416.85 1961.7 3367.48 1934.27C3319.48 1906.84 3264.62 1893.13 3202.9 1893.13C3141.19 1893.13 3085.65 1906.84 3036.27 1934.27C2986.9 1961.7 2947.81 2001.47 2919.01 2053.59C2890.21 2104.33 2875.81 2165.36 2875.81 2236.68C2875.81 2306.62 2890.21 2367.65 2919.01 2419.77C2947.81 2471.88 2986.9 2511.66 3036.27 2539.09C3085.65 2566.52 3141.19 2580.23 3202.9 2580.23Z" fill="white"/>
<path d="M1648.66 809.348C1825.05 771.855 1968.04 887.648 1968.04 1067.98V2684.23C1968.04 2864.56 1825.05 3041.14 1648.66 3078.64L1121.68 3190.65C945.289 3228.14 802.297 3112.35 802.297 2932.02V1315.76C802.297 1135.43 945.289 958.853 1121.68 921.361L1648.66 809.348ZM1712.53 1250.77C1712.53 1142.58 1626.74 1073.1 1520.9 1095.6L1249.43 1153.3C1143.6 1175.8 1057.8 1281.74 1057.8 1389.94V2744.98C1057.8 2853.18 1143.6 2922.66 1249.43 2900.16L1520.9 2842.46C1626.74 2819.96 1712.53 2714.01 1712.53 2605.82V1250.77Z" fill="white"/>
</svg>
