<svg width="85" height="32" viewBox="0 0 85 32" fill="none" xmlns="http://www.w3.org/2000/svg">
<rect width="84.3963" height="32" fill="black"/>
<path d="M76.2639 22.4027C75.9345 22.4027 75.6199 22.3577 75.3204 22.2679C75.0259 22.178 74.7938 22.0682 74.624 21.9384L74.9235 21.3693C75.0933 21.4841 75.303 21.5815 75.5526 21.6613C75.8022 21.7412 76.0568 21.7811 76.3164 21.7811C76.6508 21.7811 76.8904 21.7337 77.0352 21.6389C77.185 21.544 77.2599 21.4117 77.2599 21.242C77.2599 21.1172 77.2149 21.0198 77.1251 20.95C77.0352 20.8801 76.9154 20.8277 76.7656 20.7927C76.6209 20.7578 76.4586 20.7278 76.2789 20.7028C76.0992 20.6729 75.9195 20.638 75.7398 20.598C75.56 20.5531 75.3953 20.4932 75.2455 20.4183C75.0958 20.3384 74.976 20.2311 74.8861 20.0963C74.7963 19.9565 74.7513 19.7718 74.7513 19.5422C74.7513 19.3026 74.8187 19.0929 74.9535 18.9132C75.0883 18.7335 75.278 18.5962 75.5226 18.5013C75.7722 18.4015 76.0667 18.3516 76.4062 18.3516C76.6658 18.3516 76.9279 18.384 77.1925 18.4489C77.462 18.5088 77.6817 18.5962 77.8514 18.711L77.5444 19.2801C77.3647 19.1603 77.1775 19.0779 76.9828 19.033C76.7881 18.9881 76.5934 18.9656 76.3987 18.9656C76.0842 18.9656 75.8496 19.018 75.6948 19.1228C75.5401 19.2227 75.4627 19.3525 75.4627 19.5122C75.4627 19.647 75.5076 19.7518 75.5975 19.8267C75.6923 19.8966 75.8121 19.9515 75.9569 19.9915C76.1067 20.0314 76.2714 20.0664 76.4511 20.0963C76.6309 20.1213 76.8106 20.1562 76.9903 20.2011C77.17 20.2411 77.3322 20.2985 77.477 20.3734C77.6268 20.4483 77.7466 20.5531 77.8364 20.6879C77.9313 20.8227 77.9787 21.0024 77.9787 21.227C77.9787 21.4666 77.9088 21.6738 77.7691 21.8485C77.6293 22.0233 77.4321 22.1605 77.1775 22.2604C76.9229 22.3552 76.6184 22.4027 76.2639 22.4027Z" fill="white"/>
<path d="M72.3721 18.3516C72.6966 18.3516 72.9811 18.414 73.2257 18.5388C73.4753 18.6636 73.67 18.8533 73.8098 19.1079C73.9496 19.3625 74.0195 19.6845 74.0195 20.0738V22.3577H73.3006V20.1562C73.3006 19.7718 73.2058 19.4823 73.0161 19.2876C72.8314 19.0929 72.5693 18.9955 72.2298 18.9955C71.9752 18.9955 71.7531 19.0455 71.5634 19.1453C71.3737 19.2452 71.2264 19.3924 71.1216 19.5871C71.0217 19.7818 70.9718 20.0239 70.9718 20.3135V22.3577H70.2529V18.389H70.9418V19.4598L70.8295 19.1753C70.9593 18.9157 71.159 18.7135 71.4286 18.5687C71.6981 18.4239 72.0126 18.3516 72.3721 18.3516Z" fill="white"/>
<path d="M67.6605 22.4027C67.2362 22.4027 66.8618 22.3153 66.5373 22.1406C66.2178 21.9659 65.9682 21.7262 65.7885 21.4217C65.6137 21.1172 65.5264 20.7677 65.5264 20.3734C65.5264 19.979 65.6112 19.6295 65.781 19.325C65.9557 19.0205 66.1928 18.7834 66.4923 18.6136C66.7969 18.4389 67.1388 18.3516 67.5182 18.3516C67.9026 18.3516 68.2421 18.4364 68.5366 18.6062C68.8311 18.7759 69.0608 19.0155 69.2255 19.325C69.3953 19.6295 69.4801 19.9865 69.4801 20.3958C69.4801 20.4258 69.4776 20.4607 69.4726 20.5007C69.4726 20.5406 69.4701 20.578 69.4651 20.613H66.088V20.0963H69.0907L68.7987 20.276C68.8037 20.0214 68.7513 19.7943 68.6414 19.5946C68.5316 19.3949 68.3794 19.2402 68.1847 19.1303C67.995 19.0155 67.7728 18.9581 67.5182 18.9581C67.2686 18.9581 67.0465 19.0155 66.8518 19.1303C66.6571 19.2402 66.5048 19.3974 66.395 19.6021C66.2852 19.8018 66.2303 20.0314 66.2303 20.291V20.4108C66.2303 20.6754 66.2902 20.9125 66.41 21.1222C66.5348 21.3269 66.707 21.4866 66.9267 21.6014C67.1463 21.7162 67.3984 21.7737 67.683 21.7737C67.9176 21.7737 68.1298 21.7337 68.3195 21.6538C68.5141 21.574 68.6839 21.4542 68.8287 21.2944L69.2255 21.7587C69.0458 21.9683 68.8212 22.1281 68.5516 22.2379C68.287 22.3477 67.99 22.4027 67.6605 22.4027Z" fill="white"/>
<path d="M63.2992 22.4027C62.8748 22.4027 62.5004 22.3153 62.1759 22.1406C61.8564 21.9659 61.6068 21.7262 61.4271 21.4217C61.2524 21.1172 61.165 20.7677 61.165 20.3734C61.165 19.979 61.2499 19.6295 61.4196 19.325C61.5944 19.0205 61.8315 18.7834 62.131 18.6136C62.4355 18.4389 62.7775 18.3516 63.1569 18.3516C63.5413 18.3516 63.8807 18.4364 64.1753 18.6062C64.4698 18.7759 64.6995 19.0155 64.8642 19.325C65.0339 19.6295 65.1188 19.9865 65.1188 20.3958C65.1188 20.4258 65.1163 20.4607 65.1113 20.5007C65.1113 20.5406 65.1088 20.578 65.1038 20.613H61.7267V20.0963H64.7294L64.4374 20.276C64.4424 20.0214 64.3899 19.7943 64.2801 19.5946C64.1703 19.3949 64.018 19.2402 63.8233 19.1303C63.6336 19.0155 63.4115 18.9581 63.1569 18.9581C62.9073 18.9581 62.6851 19.0155 62.4904 19.1303C62.2958 19.2402 62.1435 19.3974 62.0337 19.6021C61.9238 19.8018 61.8689 20.0314 61.8689 20.291V20.4108C61.8689 20.6754 61.9288 20.9125 62.0486 21.1222C62.1734 21.3269 62.3457 21.4866 62.5653 21.6014C62.785 21.7162 63.0371 21.7737 63.3216 21.7737C63.5563 21.7737 63.7684 21.7337 63.9581 21.6538C64.1528 21.574 64.3226 21.4542 64.4673 21.2944L64.8642 21.7587C64.6845 21.9683 64.4598 22.1281 64.1903 22.2379C63.9257 22.3477 63.6286 22.4027 63.2992 22.4027Z" fill="white"/>
<path d="M58.7725 22.3577V18.389H59.4614V19.4673L59.394 19.1977C59.5038 18.9232 59.6885 18.7135 59.9481 18.5687C60.2077 18.4239 60.5272 18.3516 60.9066 18.3516V19.048C60.8766 19.043 60.8467 19.0405 60.8167 19.0405C60.7918 19.0405 60.7668 19.0405 60.7419 19.0405C60.3575 19.0405 60.0529 19.1553 59.8283 19.3849C59.6036 19.6146 59.4913 19.9465 59.4913 20.3809V22.3577H58.7725Z" fill="white"/>
<path d="M56.4492 22.4027C56.0449 22.4027 55.6829 22.3153 55.3634 22.1406C55.0489 21.9659 54.8018 21.7262 54.6221 21.4217C54.4424 21.1172 54.3525 20.7677 54.3525 20.3734C54.3525 19.979 54.4424 19.6295 54.6221 19.325C54.8018 19.0205 55.0489 18.7834 55.3634 18.6136C55.6829 18.4389 56.0449 18.3516 56.4492 18.3516C56.8087 18.3516 57.1282 18.4239 57.4077 18.5687C57.6923 18.7085 57.9119 18.9182 58.0667 19.1977L57.52 19.5497C57.3902 19.355 57.2305 19.2127 57.0408 19.1228C56.8561 19.028 56.6564 18.9806 56.4417 18.9806C56.1821 18.9806 55.95 19.038 55.7453 19.1528C55.5407 19.2676 55.3784 19.4299 55.2586 19.6395C55.1388 19.8442 55.0789 20.0888 55.0789 20.3734C55.0789 20.6579 55.1388 20.905 55.2586 21.1147C55.3784 21.3244 55.5407 21.4866 55.7453 21.6014C55.95 21.7162 56.1821 21.7737 56.4417 21.7737C56.6564 21.7737 56.8561 21.7287 57.0408 21.6389C57.2305 21.544 57.3902 21.3992 57.52 21.2046L58.0667 21.549C57.9119 21.8236 57.6923 22.0357 57.4077 22.1855C57.1282 22.3303 56.8087 22.4027 56.4492 22.4027Z" fill="white"/>
<path d="M52.3303 22.4027C52.0009 22.4027 51.6864 22.3577 51.3868 22.2679C51.0923 22.178 50.8602 22.0682 50.6904 21.9384L50.99 21.3693C51.1597 21.4841 51.3694 21.5815 51.619 21.6613C51.8686 21.7412 52.1232 21.7811 52.3828 21.7811C52.7172 21.7811 52.9568 21.7337 53.1016 21.6389C53.2514 21.544 53.3263 21.4117 53.3263 21.242C53.3263 21.1172 53.2813 21.0198 53.1915 20.95C53.1016 20.8801 52.9818 20.8277 52.832 20.7927C52.6873 20.7578 52.525 20.7278 52.3453 20.7028C52.1656 20.6729 51.9859 20.638 51.8062 20.598C51.6265 20.5531 51.4617 20.4932 51.3119 20.4183C51.1622 20.3384 51.0424 20.2311 50.9525 20.0963C50.8627 19.9565 50.8177 19.7718 50.8177 19.5422C50.8177 19.3026 50.8851 19.0929 51.0199 18.9132C51.1547 18.7335 51.3444 18.5962 51.589 18.5013C51.8386 18.4015 52.1332 18.3516 52.4726 18.3516C52.7322 18.3516 52.9943 18.384 53.2589 18.4489C53.5284 18.5088 53.7481 18.5962 53.9178 18.711L53.6108 19.2801C53.4311 19.1603 53.2439 19.0779 53.0492 19.033C52.8545 18.9881 52.6598 18.9656 52.4651 18.9656C52.1506 18.9656 51.916 19.018 51.7612 19.1228C51.6065 19.2227 51.5291 19.3525 51.5291 19.5122C51.5291 19.647 51.574 19.7518 51.6639 19.8267C51.7587 19.8966 51.8786 19.9515 52.0233 19.9915C52.1731 20.0314 52.3378 20.0664 52.5175 20.0963C52.6973 20.1213 52.877 20.1562 53.0567 20.2011C53.2364 20.2411 53.3987 20.2985 53.5434 20.3734C53.6932 20.4483 53.813 20.5531 53.9029 20.6879C53.9977 20.8227 54.0451 21.0024 54.0451 21.227C54.0451 21.4666 53.9752 21.6738 53.8355 21.8485C53.6957 22.0233 53.4985 22.1605 53.2439 22.2604C52.9893 22.3552 52.6848 22.4027 52.3303 22.4027Z" fill="white"/>
<path d="M74.4123 15.9361V12.5664H75.2136V15.9361H74.4123ZM73.0869 14.6257V13.8768H76.539V14.6257H73.0869Z" fill="#FFD700"/>
<path d="M69.1077 16.9173C68.7782 16.9173 68.4637 16.8724 68.1642 16.7825C67.8696 16.6927 67.6375 16.5828 67.4678 16.453L67.7673 15.8839C67.937 15.9988 68.1467 16.0961 68.3963 16.176C68.6459 16.2559 68.9005 16.2958 69.1601 16.2958C69.4946 16.2958 69.7342 16.2484 69.879 16.1535C70.0287 16.0587 70.1036 15.9264 70.1036 15.7566C70.1036 15.6318 70.0587 15.5345 69.9688 15.4646C69.879 15.3947 69.7592 15.3423 69.6094 15.3074C69.4646 15.2724 69.3024 15.2425 69.1227 15.2175C68.9429 15.1875 68.7632 15.1526 68.5835 15.1127C68.4038 15.0677 68.2391 15.0078 68.0893 14.9329C67.9395 14.8531 67.8197 14.7457 67.7299 14.611C67.64 14.4712 67.5951 14.2865 67.5951 14.0568C67.5951 13.8172 67.6625 13.6075 67.7973 13.4278C67.932 13.2481 68.1217 13.1108 68.3664 13.016C68.616 12.9161 68.9105 12.8662 69.25 12.8662C69.5095 12.8662 69.7716 12.8987 70.0362 12.9636C70.3058 13.0235 70.5254 13.1108 70.6952 13.2256L70.3882 13.7947C70.2084 13.6749 70.0212 13.5926 69.8265 13.5476C69.6319 13.5027 69.4372 13.4802 69.2425 13.4802C68.928 13.4802 68.6933 13.5327 68.5386 13.6375C68.3838 13.7373 68.3064 13.8671 68.3064 14.0269C68.3064 14.1617 68.3514 14.2665 68.4412 14.3414C68.5361 14.4113 68.6559 14.4662 68.8007 14.5061C68.9504 14.5461 69.1152 14.581 69.2949 14.611C69.4746 14.6359 69.6543 14.6709 69.834 14.7158C70.0138 14.7557 70.176 14.8131 70.3208 14.888C70.4705 14.9629 70.5903 15.0677 70.6802 15.2025C70.775 15.3373 70.8225 15.517 70.8225 15.7417C70.8225 15.9813 70.7526 16.1885 70.6128 16.3632C70.473 16.5379 70.2758 16.6752 70.0212 16.775C69.7666 16.8699 69.4621 16.9173 69.1077 16.9173Z" fill="white"/>
<path d="M65.1299 16.8724V12.9037H65.8188V13.9819L65.7514 13.7124C65.8612 13.4378 66.0459 13.2281 66.3055 13.0834C66.5651 12.9386 66.8846 12.8662 67.264 12.8662V13.5626C67.2341 13.5576 67.2041 13.5551 67.1742 13.5551C67.1492 13.5551 67.1242 13.5551 67.0993 13.5551C66.7149 13.5551 66.4104 13.6699 66.1857 13.8996C65.9611 14.1292 65.8487 14.4612 65.8487 14.8955V16.8724H65.1299Z" fill="white"/>
<path d="M62.3001 16.9173C61.9008 16.9173 61.5463 16.8299 61.2368 16.6552C60.9273 16.4805 60.6827 16.2409 60.503 15.9364C60.3233 15.6269 60.2334 15.2774 60.2334 14.888C60.2334 14.4936 60.3233 14.1442 60.503 13.8397C60.6827 13.5352 60.9273 13.298 61.2368 13.1283C61.5463 12.9536 61.9008 12.8662 62.3001 12.8662C62.6945 12.8662 63.0465 12.9536 63.356 13.1283C63.6705 13.298 63.9151 13.5352 64.0898 13.8397C64.2695 14.1392 64.3594 14.4886 64.3594 14.888C64.3594 15.2824 64.2695 15.6318 64.0898 15.9364C63.9151 16.2409 63.6705 16.4805 63.356 16.6552C63.0465 16.8299 62.6945 16.9173 62.3001 16.9173ZM62.3001 16.2883C62.5547 16.2883 62.7819 16.2309 62.9816 16.1161C63.1862 16.0013 63.346 15.839 63.4608 15.6293C63.5756 15.4147 63.633 15.1676 63.633 14.888C63.633 14.6035 63.5756 14.3589 63.4608 14.1542C63.346 13.9445 63.1862 13.7823 62.9816 13.6674C62.7819 13.5526 62.5547 13.4952 62.3001 13.4952C62.0455 13.4952 61.8184 13.5526 61.6187 13.6674C61.419 13.7823 61.2593 13.9445 61.1395 14.1542C61.0197 14.3589 60.9598 14.6035 60.9598 14.888C60.9598 15.1676 61.0197 15.4147 61.1395 15.6293C61.2593 15.839 61.419 16.0013 61.6187 16.1161C61.8184 16.2309 62.0455 16.2883 62.3001 16.2883Z" fill="white"/>
<path d="M57.7728 16.9173C57.3734 16.9173 57.019 16.8299 56.7095 16.6552C56.4 16.4805 56.1553 16.2409 55.9756 15.9364C55.7959 15.6269 55.7061 15.2774 55.7061 14.888C55.7061 14.4936 55.7959 14.1442 55.9756 13.8397C56.1553 13.5352 56.4 13.298 56.7095 13.1283C57.019 12.9536 57.3734 12.8662 57.7728 12.8662C58.1672 12.8662 58.5191 12.9536 58.8286 13.1283C59.1431 13.298 59.3877 13.5352 59.5625 13.8397C59.7422 14.1392 59.832 14.4886 59.832 14.888C59.832 15.2824 59.7422 15.6318 59.5625 15.9364C59.3877 16.2409 59.1431 16.4805 58.8286 16.6552C58.5191 16.8299 58.1672 16.9173 57.7728 16.9173ZM57.7728 16.2883C58.0274 16.2883 58.2545 16.2309 58.4542 16.1161C58.6589 16.0013 58.8186 15.839 58.9335 15.6293C59.0483 15.4147 59.1057 15.1676 59.1057 14.888C59.1057 14.6035 59.0483 14.3589 58.9335 14.1542C58.8186 13.9445 58.6589 13.7823 58.4542 13.6674C58.2545 13.5526 58.0274 13.4952 57.7728 13.4952C57.5182 13.4952 57.2911 13.5526 57.0914 13.6674C56.8917 13.7823 56.7319 13.9445 56.6121 14.1542C56.4923 14.3589 56.4324 14.6035 56.4324 14.888C56.4324 15.1676 56.4923 15.4147 56.6121 15.6293C56.7319 15.839 56.8917 16.0013 57.0914 16.1161C57.2911 16.2309 57.5182 16.2883 57.7728 16.2883Z" fill="white"/>
<path d="M52.832 16.9166C52.4476 16.9166 52.1032 16.8317 51.7987 16.662C51.4991 16.4923 51.262 16.2551 51.0873 15.9506C50.9126 15.6461 50.8252 15.2916 50.8252 14.8873C50.8252 14.4829 50.9126 14.131 51.0873 13.8315C51.262 13.5269 51.4991 13.2898 51.7987 13.1201C52.1032 12.9503 52.4476 12.8655 52.832 12.8655C53.1665 12.8655 53.4685 12.9404 53.7381 13.0901C54.0077 13.2399 54.2223 13.4645 54.3821 13.7641C54.5468 14.0636 54.6292 14.438 54.6292 14.8873C54.6292 15.3366 54.5493 15.711 54.3896 16.0105C54.2348 16.31 54.0226 16.5372 53.7531 16.6919C53.4835 16.8417 53.1765 16.9166 52.832 16.9166ZM52.8919 16.2876C53.1415 16.2876 53.3662 16.2302 53.5659 16.1153C53.7705 16.0005 53.9303 15.8383 54.0451 15.6286C54.1649 15.414 54.2248 15.1668 54.2248 14.8873C54.2248 14.6027 54.1649 14.3581 54.0451 14.1534C53.9303 13.9438 53.7705 13.7815 53.5659 13.6667C53.3662 13.5519 53.1415 13.4945 52.8919 13.4945C52.6373 13.4945 52.4102 13.5519 52.2105 13.6667C52.0108 13.7815 51.8511 13.9438 51.7313 14.1534C51.6115 14.3581 51.5515 14.6027 51.5515 14.8873C51.5515 15.1668 51.6115 15.414 51.7313 15.6286C51.8511 15.8383 52.0108 16.0005 52.2105 16.1153C52.4102 16.2302 52.6373 16.2876 52.8919 16.2876ZM54.2473 16.8717V15.8008L54.2922 14.8798L54.2173 13.9588V11.3154H54.9362V16.8717H54.2473Z" fill="white"/>
<path d="M41.6455 22.2893V20.9891L47.06 14.4391L47.4386 15.1467H41.7443V13.501H49.0843V14.8011L43.6698 21.3512L43.2583 20.6435H49.2324V22.2893H41.6455Z" fill="white"/>
<path fill-rule="evenodd" clip-rule="evenodd" d="M38.105 13.5019V22.2902H40.1622V13.5019H38.105Z" fill="white"/>
<path d="M39.1418 12.0536C38.7578 12.0536 38.4396 11.9329 38.1873 11.6915C37.9459 11.4501 37.8252 11.1594 37.8252 10.8193C37.8252 10.4682 37.9459 10.1774 38.1873 9.94703C38.4396 9.70565 38.7578 9.58496 39.1418 9.58496C39.5258 9.58496 39.8385 9.70016 40.0799 9.93057C40.3322 10.15 40.4584 10.4298 40.4584 10.7699C40.4584 11.132 40.3377 11.4392 40.0963 11.6915C39.855 11.9329 39.5368 12.0536 39.1418 12.0536Z" fill="#FFD700"/>
<path d="M31.7686 22.2894V13.5011H33.727V15.9203L33.4966 15.2127C33.7599 14.6202 34.1714 14.1704 34.7309 13.8632C35.3014 13.5559 36.0091 13.4023 36.8539 13.4023V15.3608C36.7662 15.3388 36.6839 15.3279 36.6071 15.3279C36.5303 15.3169 36.4535 15.3114 36.3767 15.3114C35.5977 15.3114 34.9778 15.5418 34.517 16.0026C34.0561 16.4525 33.8257 17.1272 33.8257 18.0269V22.2894H31.7686Z" fill="white"/>
<path d="M25.8509 22.4048C25.1048 22.4048 24.4411 22.2402 23.8596 21.9111C23.2781 21.5819 22.8172 21.0882 22.4771 20.4299C22.148 19.7606 21.9834 18.9158 21.9834 17.8954C21.9834 16.8641 22.1535 16.0193 22.4936 15.361C22.8447 14.7027 23.311 14.2144 23.8925 13.8963C24.4849 13.5671 25.1378 13.4025 25.8509 13.4025C26.7177 13.4025 27.4802 13.5891 28.1385 13.9621C28.8078 14.3351 29.3344 14.8563 29.7184 15.5256C30.1134 16.1948 30.3109 16.9848 30.3109 17.8954C30.3109 18.8061 30.1134 19.5961 29.7184 20.2653C29.3344 20.9346 28.8078 21.4612 28.1385 21.8453C27.4802 22.2183 26.7177 22.4048 25.8509 22.4048ZM20.9795 22.2896V10.0781H23.0367V15.542L22.8721 17.879L22.9379 20.216V22.2896H20.9795ZM25.6205 20.6439C26.1142 20.6439 26.5531 20.5341 26.9371 20.3147C27.3321 20.0953 27.6448 19.7771 27.8752 19.3602C28.1056 18.9432 28.2208 18.455 28.2208 17.8954C28.2208 17.3249 28.1056 16.8367 27.8752 16.4307C27.6448 16.0138 27.3321 15.6956 26.9371 15.4762C26.5531 15.2568 26.1142 15.147 25.6205 15.147C25.1268 15.147 24.6824 15.2568 24.2875 15.4762C23.8925 15.6956 23.5798 16.0138 23.3494 16.4307C23.119 16.8367 23.0038 17.3249 23.0038 17.8954C23.0038 18.455 23.119 18.9432 23.3494 19.3602C23.5798 19.7771 23.8925 20.0953 24.2875 20.3147C24.6824 20.5341 25.1268 20.6439 25.6205 20.6439Z" fill="white"/>
<path d="M13.1879 6.47729C14.599 6.17735 15.7429 7.1037 15.7429 8.54634V21.4764C15.7429 22.919 14.599 24.3317 13.1879 24.6316L8.97205 25.5277C7.56093 25.8276 6.41699 24.9013 6.41699 23.4587V10.5286C6.41699 9.08598 7.56093 7.67334 8.97205 7.3734L13.1879 6.47729ZM13.6989 10.0087C13.6989 9.14312 13.0125 8.58731 12.1658 8.76728L9.99407 9.22893C9.1474 9.40889 8.46103 10.2565 8.46103 11.1221V21.9624C8.46104 22.828 9.1474 23.3838 9.99407 23.2038L12.1658 22.7422C13.0125 22.5622 13.6989 21.7146 13.6989 20.849V10.0087Z" fill="white"/>
</svg>
