<svg width="43" height="16" viewBox="0 0 43 16" fill="none" xmlns="http://www.w3.org/2000/svg">
<rect width="42.1982" height="16" fill="black"/>
<path d="M38.1315 11.2013C37.9667 11.2013 37.8095 11.1789 37.6597 11.1339C37.5125 11.089 37.3964 11.0341 37.3115 10.9692L37.4613 10.6846C37.5462 10.7421 37.651 10.7907 37.7758 10.8307C37.9006 10.8706 38.0279 10.8906 38.1577 10.8906C38.3249 10.8906 38.4447 10.8669 38.5171 10.8194C38.592 10.772 38.6294 10.7059 38.6294 10.621C38.6294 10.5586 38.607 10.5099 38.562 10.475C38.5171 10.44 38.4572 10.4138 38.3823 10.3964C38.3099 10.3789 38.2288 10.3639 38.139 10.3514C38.0491 10.3364 37.9593 10.319 37.8694 10.299C37.7795 10.2765 37.6972 10.2466 37.6223 10.2091C37.5474 10.1692 37.4875 10.1155 37.4426 10.0482C37.3976 9.97826 37.3752 9.88591 37.3752 9.77109C37.3752 9.65128 37.4089 9.54645 37.4763 9.45659C37.5437 9.36673 37.6385 9.29809 37.7608 9.25066C37.8856 9.20074 38.0329 9.17578 38.2026 9.17578C38.3324 9.17578 38.4635 9.19201 38.5957 9.22445C38.7305 9.25441 38.8404 9.29809 38.9252 9.3555L38.7717 9.64005C38.6819 9.58014 38.5883 9.53896 38.4909 9.51649C38.3936 9.49403 38.2962 9.4828 38.1989 9.4828C38.0416 9.4828 37.9243 9.509 37.8469 9.56142C37.7695 9.61134 37.7309 9.67624 37.7309 9.75611C37.7309 9.82351 37.7533 9.87592 37.7983 9.91337C37.8457 9.94831 37.9056 9.97577 37.978 9.99574C38.0529 10.0157 38.1352 10.0332 38.2251 10.0482C38.3149 10.0606 38.4048 10.0781 38.4947 10.1006C38.5845 10.1205 38.6656 10.1492 38.738 10.1867C38.8129 10.2241 38.8728 10.2765 38.9177 10.3439C38.9652 10.4113 38.9889 10.5012 38.9889 10.6135C38.9889 10.7333 38.9539 10.8369 38.884 10.9243C38.8142 11.0116 38.7156 11.0803 38.5883 11.1302C38.461 11.1776 38.3087 11.2013 38.1315 11.2013Z" fill="white"/>
<path d="M36.1856 9.17578C36.3478 9.17578 36.4901 9.20698 36.6124 9.26938C36.7372 9.33178 36.8345 9.42663 36.9044 9.55393C36.9743 9.68123 37.0093 9.84223 37.0093 10.0369V11.1789H36.6498V10.0781C36.6498 9.88591 36.6024 9.74114 36.5075 9.64379C36.4152 9.54645 36.2841 9.49777 36.1144 9.49777C35.9871 9.49777 35.876 9.52273 35.7812 9.57265C35.6863 9.62258 35.6127 9.69621 35.5603 9.79356C35.5104 9.8909 35.4854 10.012 35.4854 10.1567V11.1789H35.126V9.1945H35.4704V9.72991L35.4143 9.58763C35.4792 9.45784 35.579 9.35675 35.7138 9.28436C35.8486 9.21197 36.0058 9.17578 36.1856 9.17578Z" fill="white"/>
<path d="M33.8298 11.2013C33.6176 11.2013 33.4304 11.1577 33.2681 11.0703C33.1084 10.9829 32.9836 10.8631 32.8937 10.7109C32.8064 10.5586 32.7627 10.3839 32.7627 10.1867C32.7627 9.9895 32.8051 9.81477 32.89 9.66251C32.9774 9.51025 33.0959 9.39169 33.2457 9.30682C33.3979 9.21946 33.5689 9.17578 33.7586 9.17578C33.9508 9.17578 34.1206 9.21821 34.2678 9.30308C34.4151 9.38795 34.5299 9.50776 34.6123 9.66251C34.6971 9.81477 34.7396 9.99324 34.7396 10.1979C34.7396 10.2129 34.7383 10.2304 34.7358 10.2503C34.7358 10.2703 34.7346 10.289 34.7321 10.3065H33.0435V10.0482H34.5449L34.3989 10.138C34.4014 10.0107 34.3751 9.89714 34.3202 9.7973C34.2653 9.69746 34.1892 9.62008 34.0918 9.56517C33.997 9.50776 33.8859 9.47905 33.7586 9.47905C33.6338 9.47905 33.5227 9.50776 33.4254 9.56517C33.3281 9.62008 33.2519 9.6987 33.197 9.80104C33.1421 9.90089 33.1146 10.0157 33.1146 10.1455V10.2054C33.1146 10.3377 33.1446 10.4563 33.2045 10.5611C33.2669 10.6634 33.353 10.7433 33.4628 10.8007C33.5727 10.8581 33.6987 10.8868 33.841 10.8868C33.9583 10.8868 34.0644 10.8669 34.1592 10.8269C34.2566 10.787 34.3415 10.7271 34.4138 10.6472L34.6123 10.8793C34.5224 10.9842 34.4101 11.064 34.2753 11.119C34.143 11.1739 33.9945 11.2013 33.8298 11.2013Z" fill="white"/>
<path d="M31.6501 11.2013C31.4379 11.2013 31.2507 11.1577 31.0885 11.0703C30.9287 10.9829 30.8039 10.8631 30.7141 10.7109C30.6267 10.5586 30.583 10.3839 30.583 10.1867C30.583 9.9895 30.6254 9.81477 30.7103 9.66251C30.7977 9.51025 30.9162 9.39169 31.066 9.30682C31.2183 9.21946 31.3892 9.17578 31.5789 9.17578C31.7711 9.17578 31.9409 9.21821 32.0881 9.30308C32.2354 9.38795 32.3502 9.50776 32.4326 9.66251C32.5175 9.81477 32.5599 9.99324 32.5599 10.1979C32.5599 10.2129 32.5586 10.2304 32.5561 10.2503C32.5561 10.2703 32.5549 10.289 32.5524 10.3065H30.8638V10.0482H32.3652L32.2192 10.138C32.2217 10.0107 32.1955 9.89714 32.1405 9.7973C32.0856 9.69746 32.0095 9.62008 31.9122 9.56517C31.8173 9.50776 31.7062 9.47905 31.5789 9.47905C31.4541 9.47905 31.3431 9.50776 31.2457 9.56517C31.1484 9.62008 31.0722 9.6987 31.0173 9.80104C30.9624 9.90089 30.935 10.0157 30.935 10.1455V10.2054C30.935 10.3377 30.9649 10.4563 31.0248 10.5611C31.0872 10.6634 31.1733 10.7433 31.2832 10.8007C31.393 10.8581 31.519 10.8868 31.6613 10.8868C31.7786 10.8868 31.8847 10.8669 31.9796 10.8269C32.0769 10.787 32.1618 10.7271 32.2341 10.6472L32.4326 10.8793C32.3427 10.9842 32.2304 11.064 32.0956 11.119C31.9633 11.1739 31.8148 11.2013 31.6501 11.2013Z" fill="white"/>
<path d="M29.3857 11.1789V9.1945H29.7302V9.73365L29.6965 9.59886C29.7514 9.46158 29.8438 9.35675 29.9736 9.28436C30.1034 9.21197 30.2631 9.17578 30.4528 9.17578V9.52398C30.4378 9.52148 30.4229 9.52024 30.4079 9.52024C30.3954 9.52024 30.3829 9.52024 30.3704 9.52024C30.1782 9.52024 30.026 9.57765 29.9137 9.69246C29.8013 9.80728 29.7452 9.97327 29.7452 10.1904V11.1789H29.3857Z" fill="white"/>
<path d="M28.2251 11.2013C28.0229 11.2013 27.842 11.1577 27.6822 11.0703C27.525 10.9829 27.4014 10.8631 27.3115 10.7109C27.2217 10.5586 27.1768 10.3839 27.1768 10.1867C27.1768 9.9895 27.2217 9.81477 27.3115 9.66251C27.4014 9.51025 27.525 9.39169 27.6822 9.30682C27.842 9.21946 28.0229 9.17578 28.2251 9.17578C28.4048 9.17578 28.5646 9.21197 28.7043 9.28436C28.8466 9.35425 28.9564 9.45908 29.0338 9.59886L28.7605 9.77483C28.6956 9.67749 28.6157 9.60635 28.5209 9.56142C28.4285 9.514 28.3287 9.49028 28.2214 9.49028C28.0916 9.49028 27.9755 9.51899 27.8732 9.5764C27.7708 9.63381 27.6897 9.71493 27.6298 9.81976C27.5699 9.9221 27.5399 10.0444 27.5399 10.1867C27.5399 10.329 27.5699 10.4525 27.6298 10.5573C27.6897 10.6622 27.7708 10.7433 27.8732 10.8007C27.9755 10.8581 28.0916 10.8868 28.2214 10.8868C28.3287 10.8868 28.4285 10.8644 28.5209 10.8194C28.6157 10.772 28.6956 10.6996 28.7605 10.6023L29.0338 10.7745C28.9564 10.9118 28.8466 11.0179 28.7043 11.0928C28.5646 11.1651 28.4048 11.2013 28.2251 11.2013Z" fill="white"/>
<path d="M26.1647 11.2013C25.9999 11.2013 25.8427 11.1789 25.6929 11.1339C25.5457 11.089 25.4296 11.0341 25.3447 10.9692L25.4945 10.6846C25.5794 10.7421 25.6842 10.7907 25.809 10.8307C25.9338 10.8706 26.0611 10.8906 26.1909 10.8906C26.3581 10.8906 26.4779 10.8669 26.5503 10.8194C26.6252 10.772 26.6626 10.7059 26.6626 10.621C26.6626 10.5586 26.6402 10.5099 26.5953 10.475C26.5503 10.44 26.4904 10.4138 26.4155 10.3964C26.3431 10.3789 26.262 10.3639 26.1722 10.3514C26.0823 10.3364 25.9925 10.319 25.9026 10.299C25.8127 10.2765 25.7304 10.2466 25.6555 10.2091C25.5806 10.1692 25.5207 10.1155 25.4758 10.0482C25.4308 9.97826 25.4084 9.88591 25.4084 9.77109C25.4084 9.65128 25.4421 9.54645 25.5095 9.45659C25.5769 9.36673 25.6717 9.29809 25.794 9.25066C25.9188 9.20074 26.0661 9.17578 26.2358 9.17578C26.3656 9.17578 26.4967 9.19201 26.6289 9.22445C26.7637 9.25441 26.8736 9.29809 26.9584 9.3555L26.8049 9.64005C26.7151 9.58014 26.6215 9.53896 26.5241 9.51649C26.4268 9.49403 26.3294 9.4828 26.2321 9.4828C26.0748 9.4828 25.9575 9.509 25.8801 9.56142C25.8028 9.61134 25.7641 9.67624 25.7641 9.75611C25.7641 9.82351 25.7865 9.87592 25.8315 9.91337C25.8789 9.94831 25.9388 9.97577 26.0112 9.99574C26.0861 10.0157 26.1684 10.0332 26.2583 10.0482C26.3481 10.0606 26.438 10.0781 26.5279 10.1006C26.6177 10.1205 26.6988 10.1492 26.7712 10.1867C26.8461 10.2241 26.906 10.2765 26.9509 10.3439C26.9984 10.4113 27.0221 10.5012 27.0221 10.6135C27.0221 10.7333 26.9871 10.8369 26.9172 10.9243C26.8474 11.0116 26.7488 11.0803 26.6215 11.1302C26.4942 11.1776 26.3419 11.2013 26.1647 11.2013Z" fill="white"/>
<path d="M37.2066 7.96804V6.2832H37.6073V7.96804H37.2066ZM36.5439 7.31283V6.93842H38.27V7.31283H36.5439Z" fill="#FFD700"/>
<path d="M34.5534 8.45914C34.3886 8.45914 34.2314 8.43668 34.0816 8.39175C33.9343 8.34682 33.8183 8.29191 33.7334 8.22701L33.8832 7.94246C33.968 7.99987 34.0729 8.04854 34.1977 8.08848C34.3225 8.12842 34.4498 8.14839 34.5796 8.14839C34.7468 8.14839 34.8666 8.12467 34.939 8.07725C35.0139 8.02982 35.0513 7.96368 35.0513 7.87881C35.0513 7.81641 35.0289 7.76774 34.9839 7.73279C34.939 7.69785 34.8791 7.67164 34.8042 7.65417C34.7318 7.63669 34.6507 7.62172 34.5608 7.60924C34.471 7.59426 34.3811 7.57679 34.2913 7.55682C34.2014 7.53435 34.119 7.5044 34.0442 7.46696C33.9693 7.42702 33.9094 7.37336 33.8644 7.30597C33.8195 7.23608 33.797 7.14372 33.797 7.0289C33.797 6.90909 33.8307 6.80426 33.8981 6.7144C33.9655 6.62454 34.0604 6.5559 34.1827 6.50848C34.3075 6.45855 34.4548 6.43359 34.6245 6.43359C34.7543 6.43359 34.8853 6.44982 35.0176 6.48227C35.1524 6.51222 35.2622 6.5559 35.3471 6.61331L35.1936 6.89786C35.1037 6.83795 35.0101 6.79677 34.9128 6.77431C34.8154 6.75184 34.7181 6.74061 34.6207 6.74061C34.4635 6.74061 34.3462 6.76682 34.2688 6.81923C34.1914 6.86916 34.1527 6.93405 34.1527 7.01393C34.1527 7.08132 34.1752 7.13374 34.2201 7.17118C34.2676 7.20612 34.3275 7.23358 34.3998 7.25355C34.4747 7.27352 34.5571 7.29099 34.647 7.30597C34.7368 7.31845 34.8267 7.33592 34.9165 7.35838C35.0064 7.37835 35.0875 7.40706 35.1599 7.4445C35.2348 7.48194 35.2947 7.53436 35.3396 7.60175C35.387 7.66914 35.4107 7.759 35.4107 7.87132C35.4107 7.99113 35.3758 8.09472 35.3059 8.18208C35.236 8.26944 35.1374 8.33809 35.0101 8.38801C34.8828 8.43543 34.7306 8.45914 34.5534 8.45914Z" fill="white"/>
<path d="M32.5654 8.43668V6.45231H32.9099V6.99146L32.8762 6.85668C32.9311 6.71939 33.0235 6.61456 33.1533 6.54217C33.283 6.46979 33.4428 6.43359 33.6325 6.43359V6.78179C33.6175 6.7793 33.6025 6.77805 33.5876 6.77805C33.5751 6.77805 33.5626 6.77805 33.5501 6.77805C33.3579 6.77805 33.2057 6.83546 33.0933 6.95028C32.981 7.0651 32.9249 7.23108 32.9249 7.44824V8.43668H32.5654Z" fill="white"/>
<path d="M31.1496 8.45914C30.9499 8.45914 30.7727 8.41546 30.6179 8.3281C30.4632 8.24074 30.3409 8.12093 30.251 7.96867C30.1611 7.81391 30.1162 7.63919 30.1162 7.4445C30.1162 7.24731 30.1611 7.07258 30.251 6.92032C30.3409 6.76807 30.4632 6.6495 30.6179 6.56464C30.7727 6.47727 30.9499 6.43359 31.1496 6.43359C31.3468 6.43359 31.5227 6.47727 31.6775 6.56464C31.8347 6.6495 31.9571 6.76807 32.0444 6.92032C32.1343 7.07009 32.1792 7.24481 32.1792 7.4445C32.1792 7.64169 32.1343 7.81641 32.0444 7.96867C31.9571 8.12093 31.8347 8.24074 31.6775 8.3281C31.5227 8.41546 31.3468 8.45914 31.1496 8.45914ZM31.1496 8.14464C31.2769 8.14464 31.3904 8.11594 31.4903 8.05853C31.5926 8.00112 31.6725 7.92 31.7299 7.81516C31.7873 7.70783 31.816 7.58428 31.816 7.4445C31.816 7.30222 31.7873 7.17991 31.7299 7.07758C31.6725 6.97274 31.5926 6.89162 31.4903 6.83421C31.3904 6.7768 31.2769 6.7481 31.1496 6.7481C31.0223 6.7481 30.9087 6.7768 30.8089 6.83421C30.709 6.89162 30.6292 6.97274 30.5692 7.07758C30.5093 7.17991 30.4794 7.30222 30.4794 7.4445C30.4794 7.58428 30.5093 7.70783 30.5692 7.81516C30.6292 7.92 30.709 8.00112 30.8089 8.05853C30.9087 8.11594 31.0223 8.14464 31.1496 8.14464Z" fill="white"/>
<path d="M28.8859 8.45914C28.6862 8.45914 28.509 8.41546 28.3542 8.3281C28.1995 8.24074 28.0772 8.12093 27.9873 7.96867C27.8975 7.81391 27.8525 7.63919 27.8525 7.4445C27.8525 7.24731 27.8975 7.07258 27.9873 6.92032C28.0772 6.76807 28.1995 6.6495 28.3542 6.56464C28.509 6.47727 28.6862 6.43359 28.8859 6.43359C29.0831 6.43359 29.2591 6.47727 29.4138 6.56464C29.5711 6.6495 29.6934 6.76807 29.7807 6.92032C29.8706 7.07009 29.9155 7.24481 29.9155 7.4445C29.9155 7.64169 29.8706 7.81641 29.7807 7.96867C29.6934 8.12093 29.5711 8.24074 29.4138 8.3281C29.2591 8.41546 29.0831 8.45914 28.8859 8.45914ZM28.8859 8.14464C29.0132 8.14464 29.1268 8.11594 29.2266 8.05853C29.329 8.00112 29.4088 7.92 29.4662 7.81516C29.5236 7.70783 29.5524 7.58428 29.5524 7.4445C29.5524 7.30222 29.5236 7.17991 29.4662 7.07758C29.4088 6.97274 29.329 6.89162 29.2266 6.83421C29.1268 6.7768 29.0132 6.7481 28.8859 6.7481C28.7586 6.7481 28.645 6.7768 28.5452 6.83421C28.4454 6.89162 28.3655 6.97274 28.3056 7.07758C28.2457 7.17991 28.2157 7.30222 28.2157 7.4445C28.2157 7.58428 28.2457 7.70783 28.3056 7.81516C28.3655 7.92 28.4454 8.00112 28.5452 8.05853C28.645 8.11594 28.7586 8.14464 28.8859 8.14464Z" fill="white"/>
<path d="M26.4165 8.45878C26.2243 8.45878 26.0521 8.41635 25.8998 8.33148C25.7501 8.24661 25.6315 8.12805 25.5441 7.97579C25.4568 7.82353 25.4131 7.64631 25.4131 7.44413C25.4131 7.24195 25.4568 7.06598 25.5441 6.91622C25.6315 6.76396 25.7501 6.64539 25.8998 6.56053C26.0521 6.47566 26.2243 6.43323 26.4165 6.43323C26.5837 6.43323 26.7347 6.47067 26.8695 6.54555C27.0043 6.62043 27.1117 6.73276 27.1915 6.88252C27.2739 7.03228 27.3151 7.21949 27.3151 7.44413C27.3151 7.66878 27.2751 7.85598 27.1953 8.00574C27.1179 8.15551 27.0118 8.26908 26.877 8.34646C26.7422 8.42134 26.5887 8.45878 26.4165 8.45878ZM26.4465 8.14428C26.5713 8.14428 26.6836 8.11557 26.7834 8.05816C26.8858 8.00075 26.9656 7.91963 27.023 7.8148C27.0829 7.70747 27.1129 7.58391 27.1129 7.44413C27.1129 7.30186 27.0829 7.17955 27.023 7.07721C26.9656 6.97238 26.8858 6.89126 26.7834 6.83385C26.6836 6.77644 26.5713 6.74773 26.4465 6.74773C26.3192 6.74773 26.2056 6.77644 26.1057 6.83385C26.0059 6.89126 25.926 6.97238 25.8661 7.07721C25.8062 7.17955 25.7763 7.30186 25.7763 7.44413C25.7763 7.58391 25.8062 7.70747 25.8661 7.8148C25.926 7.91963 26.0059 8.00075 26.1057 8.05816C26.2056 8.11557 26.3192 8.14428 26.4465 8.14428ZM27.1241 8.43631V7.90091L27.1466 7.44039L27.1092 6.97987V5.6582H27.4686V8.43631H27.1241Z" fill="white"/>
<path d="M20.8252 11.1442V10.4941L23.5325 7.21904L23.7217 7.57288H20.8746V6.75H24.5446V7.40007L21.8373 10.6751L21.6316 10.3213H24.6187V11.1442H20.8252Z" fill="white"/>
<path fill-rule="evenodd" clip-rule="evenodd" d="M19.0549 6.74946V11.1436H20.0835V6.74946H19.0549Z" fill="white"/>
<path d="M19.5733 6.02533C19.3813 6.02533 19.2222 5.96499 19.0961 5.8443C18.9754 5.72361 18.915 5.57823 18.915 5.40817C18.915 5.23263 18.9754 5.08725 19.0961 4.97205C19.2222 4.85136 19.3813 4.79102 19.5733 4.79102C19.7653 4.79102 19.9217 4.84862 20.0424 4.96382C20.1686 5.07354 20.2316 5.21343 20.2316 5.38349C20.2316 5.56452 20.1713 5.71812 20.0506 5.8443C19.9299 5.96499 19.7708 6.02533 19.5733 6.02533Z" fill="#FFD700"/>
<path d="M15.8877 11.1437V6.74957H16.8669V7.9592L16.7517 7.60536C16.8834 7.30912 17.0891 7.0842 17.3689 6.9306C17.6541 6.777 18.008 6.7002 18.4304 6.7002V7.67942C18.3865 7.66845 18.3454 7.66296 18.307 7.66296C18.2685 7.65747 18.2301 7.65473 18.1917 7.65473C17.8023 7.65473 17.4923 7.76993 17.2619 8.00034C17.0315 8.22526 16.9163 8.56264 16.9163 9.01248V11.1437H15.8877Z" fill="white"/>
<path d="M12.9289 11.2014C12.5558 11.2014 12.2239 11.1191 11.9332 10.9546C11.6424 10.79 11.412 10.5431 11.242 10.214C11.0774 9.87934 10.9951 9.45693 10.9951 8.94675C10.9951 8.43108 11.0801 8.00867 11.2502 7.67952C11.4258 7.35037 11.6589 7.10625 11.9497 6.94716C12.2459 6.78258 12.5723 6.7003 12.9289 6.7003C13.3623 6.7003 13.7435 6.79355 14.0727 6.98007C14.4073 7.16659 14.6706 7.42717 14.8626 7.76181C15.0601 8.09644 15.1589 8.49142 15.1589 8.94675C15.1589 9.40207 15.0601 9.79705 14.8626 10.1317C14.6706 10.4663 14.4073 10.7296 14.0727 10.9216C13.7435 11.1082 13.3623 11.2014 12.9289 11.2014ZM10.4932 11.1438V5.03809H11.5218V7.77003L11.4395 8.93852L11.4724 10.107V11.1438H10.4932ZM12.8137 10.321C13.0605 10.321 13.28 10.2661 13.472 10.1564C13.6695 10.0467 13.8258 9.88757 13.941 9.67911C14.0562 9.47064 14.1138 9.22652 14.1138 8.94675C14.1138 8.66148 14.0562 8.41736 13.941 8.21439C13.8258 8.00593 13.6695 7.84684 13.472 7.73712C13.28 7.6274 13.0605 7.57254 12.8137 7.57254C12.5668 7.57254 12.3446 7.6274 12.1471 7.73712C11.9497 7.84684 11.7933 8.00593 11.6781 8.21439C11.5629 8.41736 11.5053 8.66148 11.5053 8.94675C11.5053 9.22652 11.5629 9.47064 11.6781 9.67911C11.7933 9.88757 11.9497 10.0467 12.1471 10.1564C12.3446 10.2661 12.5668 10.321 12.8137 10.321Z" fill="white"/>
<path d="M6.59735 3.23718C7.30291 3.08721 7.87488 3.55038 7.87488 4.2717V10.7367C7.87488 11.458 7.30291 12.1644 6.59735 12.3143L4.48944 12.7624C3.78388 12.9124 3.21191 12.4492 3.21191 11.7279V5.26284C3.21191 4.54152 3.78388 3.8352 4.48944 3.68523L6.59735 3.23718ZM6.85286 5.00289C6.85286 4.5701 6.50967 4.29219 6.08634 4.38217L5.00045 4.613C4.57712 4.70298 4.23394 5.12677 4.23394 5.55956V10.9797C4.23394 11.4125 4.57712 11.6904 5.00045 11.6004L6.08634 11.3696C6.50968 11.2796 6.85286 10.8558 6.85286 10.4231V5.00289Z" fill="white"/>
</svg>
