<svg width="178" height="256" viewBox="0 0 178 256" fill="none" xmlns="http://www.w3.org/2000/svg">
<rect width="177.302" height="256" fill="white"/>
<path d="M105.515 51.7988C116.804 49.3993 125.955 56.81 125.955 68.3512V171.791C125.955 183.333 116.804 194.634 105.515 197.033L71.7881 204.202C60.4992 206.602 51.3477 199.191 51.3477 187.65V84.2094C51.3477 72.6683 60.4992 61.3672 71.7881 58.9676L105.515 51.7988ZM107.559 82.7097C107.559 75.7851 102.068 71.3388 95.2944 72.7785L82.0083 75.6026C75.2349 77.0423 69.744 83.8229 69.744 90.7476V173.291C69.7441 180.216 75.235 184.662 82.0083 183.222L95.2944 180.398C102.068 178.959 107.559 172.178 107.559 165.253V82.7097Z" fill="#1D1D1F"/>
</svg>
