<svg width="45" height="64" viewBox="0 0 45 64" fill="none" xmlns="http://www.w3.org/2000/svg">
<rect width="44.3256" height="64" fill="white"/>
<path d="M26.3796 12.9507C29.2019 12.3508 31.4897 14.2035 31.4897 17.0888V42.9488C31.4897 45.8341 29.2019 48.6594 26.3796 49.2593L17.948 51.0515C15.1258 51.6514 12.8379 49.7987 12.8379 46.9134V21.0533C12.8379 18.168 15.1258 15.3428 17.948 14.7429L26.3796 12.9507ZM26.8907 20.6784C26.8906 18.9473 25.5179 17.8357 23.8246 18.1956L20.503 18.9016C18.8097 19.2616 17.437 20.9567 17.437 22.6879V43.3237C17.437 45.0549 18.8097 46.1665 20.503 45.8066L23.8246 45.1005C25.5179 44.7406 26.8907 43.0454 26.8907 41.3142V20.6784Z" fill="#1D1D1F"/>
</svg>
