<svg width="710" height="1024" viewBox="0 0 710 1024" fill="none" xmlns="http://www.w3.org/2000/svg">
<rect width="709.209" height="1024" fill="white"/>
<path d="M422.057 207.193C467.212 197.595 503.818 227.238 503.818 273.403V687.164C503.818 733.328 467.212 778.533 422.057 788.131L287.15 816.806C241.995 826.404 205.389 796.761 205.389 750.597V336.836C205.389 290.671 241.995 245.467 287.15 235.869L422.057 207.193ZM430.233 330.837C430.233 303.138 408.269 285.353 381.176 291.112L328.031 302.409C300.938 308.167 278.974 335.29 278.974 362.989V693.162C278.974 720.86 300.938 738.646 328.031 732.887L381.176 721.591C408.269 715.832 430.233 688.709 430.233 661.01V330.837Z" fill="#1D1D1F"/>
</svg>
