<svg width="12" height="16" viewBox="0 0 12 16" fill="none" xmlns="http://www.w3.org/2000/svg">
<rect width="11.0814" height="16" fill="white"/>
<path d="M6.59442 3.23718C7.29998 3.08721 7.87195 3.55038 7.87195 4.2717V10.7367C7.87195 11.458 7.29998 12.1644 6.59442 12.3143L4.48651 12.7624C3.78095 12.9124 3.20899 12.4492 3.20898 11.7279V5.26284C3.20898 4.54152 3.78095 3.8352 4.48651 3.68523L6.59442 3.23718ZM6.72217 5.16911C6.72217 4.73632 6.37899 4.45843 5.95566 4.54841L5.12527 4.72492C4.70194 4.8149 4.35876 5.23869 4.35876 5.67148V10.8304C4.35876 11.2632 4.70194 11.5411 5.12527 11.4512L5.95566 11.2746C6.37899 11.1847 6.72217 10.7609 6.72217 10.3281V5.16911Z" fill="#1D1D1F"/>
</svg>
