<svg width="1419" height="2048" viewBox="0 0 1419 2048" fill="none" xmlns="http://www.w3.org/2000/svg">
<rect width="1418.42" height="2048" fill="white"/>
<path d="M844.115 414.387C934.427 395.19 1007.64 454.476 1007.64 546.805V1374.33C1007.64 1466.66 934.426 1557.07 844.115 1576.26L574.303 1633.61C483.991 1652.81 410.779 1593.52 410.779 1501.19V673.671C410.779 581.342 483.991 490.933 574.303 471.737L844.115 414.387ZM860.468 661.674C860.467 606.277 816.54 570.706 762.354 582.224L656.064 604.817C601.878 616.335 557.95 670.58 557.95 725.977V1386.32C557.95 1441.72 601.878 1477.29 656.064 1465.77L762.354 1443.18C816.54 1431.66 860.468 1377.42 860.468 1322.02V661.674Z" fill="#1D1D1F"/>
</svg>
