<svg width="355" height="512" viewBox="0 0 355 512" fill="none" xmlns="http://www.w3.org/2000/svg">
<rect width="354.605" height="512" fill="white"/>
<path d="M211.029 103.596C233.607 98.7966 251.91 113.618 251.91 136.7V343.581C251.91 366.663 233.607 389.265 211.029 394.064L143.576 408.402C120.998 413.201 102.695 398.38 102.695 375.297V168.417C102.695 145.335 120.998 122.732 143.576 117.933L211.029 103.596ZM215.117 165.417C215.117 151.568 204.136 142.676 190.589 145.555L164.017 151.203C150.47 154.083 139.488 167.644 139.488 181.493V346.58C139.488 360.429 150.47 369.322 164.017 366.443L190.589 360.795C204.136 357.915 215.117 344.353 215.117 330.504V165.417Z" fill="#1D1D1F"/>
</svg>
