<svg width="2771" height="4000" viewBox="0 0 2771 4000" fill="none" xmlns="http://www.w3.org/2000/svg">
<rect width="2770.35" height="4000" fill="white"/>
<path d="M1648.66 809.35C1825.05 771.858 1968.05 887.651 1968.05 1067.98V2684.24C1968.04 2864.57 1825.05 3041.15 1648.66 3078.64L1121.69 3190.65C945.297 3228.14 802.305 3112.35 802.305 2932.02V1315.77C802.305 1135.44 945.297 958.856 1121.69 921.363L1648.66 809.35ZM1680.6 1292.33C1680.6 1184.14 1594.81 1114.66 1488.97 1137.16L1281.38 1181.28C1175.54 1203.78 1089.75 1309.73 1089.75 1417.93V2707.66C1089.75 2815.86 1175.54 2885.34 1281.38 2862.84L1488.97 2818.72C1594.81 2796.22 1680.6 2690.27 1680.6 2582.07V1292.33Z" fill="#1D1D1F"/>
</svg>
