<svg width="67" height="96" viewBox="0 0 67 96" fill="none" xmlns="http://www.w3.org/2000/svg">
<rect width="66.4884" height="96" fill="white"/>
<path d="M39.5685 19.425C43.8018 18.5252 47.2336 21.3043 47.2336 25.6322V64.4223C47.2336 68.7502 43.8018 72.9881 39.5685 73.8879L26.921 76.5763C22.6877 77.4761 19.2559 74.697 19.2559 70.3691V31.579C19.2559 27.2511 22.6877 23.0132 26.921 22.1134L39.5685 19.425ZM40.335 31.0166C40.335 28.4199 38.2759 26.7525 35.7359 27.2924L30.7536 28.3515C28.2136 28.8914 26.1545 31.4341 26.1545 34.0308V64.9846C26.1545 67.5813 28.2136 69.2488 30.7536 68.7089L35.7359 67.6498C38.2759 67.1099 40.335 64.5671 40.335 61.9704V31.0166Z" fill="#1D1D1F"/>
</svg>
