<svg width="4470" height="2048" viewBox="0 0 4470 2048" fill="none" xmlns="http://www.w3.org/2000/svg">
<rect width="4469.42" height="2048" fill="white"/>
<path d="M3948.83 1434.25C3927.75 1434.25 3907.62 1431.38 3888.45 1425.63C3869.6 1419.87 3854.74 1412.85 3843.88 1404.54L3863.05 1368.12C3873.91 1375.46 3887.33 1381.69 3903.31 1386.81C3919.28 1391.92 3935.57 1394.47 3952.19 1394.47C3973.59 1394.47 3988.93 1391.44 3998.2 1385.37C4007.78 1379.3 4012.57 1370.83 4012.57 1359.97C4012.57 1351.98 4009.7 1345.75 4003.95 1341.28C3998.2 1336.81 3990.53 1333.45 3980.94 1331.21C3971.68 1328.98 3961.29 1327.06 3949.79 1325.46C3938.29 1323.55 3926.79 1321.31 3915.29 1318.75C3903.78 1315.88 3893.24 1312.04 3883.66 1307.25C3874.07 1302.14 3866.4 1295.27 3860.65 1286.65C3854.9 1277.7 3852.03 1265.88 3852.03 1251.18C3852.03 1235.85 3856.34 1222.43 3864.97 1210.92C3873.59 1199.42 3885.73 1190.64 3901.39 1184.57C3917.36 1178.18 3936.21 1174.98 3957.94 1174.98C3974.55 1174.98 3991.33 1177.06 4008.26 1181.21C4025.51 1185.05 4039.57 1190.64 4050.43 1197.99L4030.78 1234.41C4019.28 1226.74 4007.3 1221.47 3994.84 1218.59C3982.38 1215.72 3969.92 1214.28 3957.46 1214.28C3937.33 1214.28 3922.32 1217.63 3912.41 1224.34C3902.51 1230.73 3897.55 1239.04 3897.55 1249.26C3897.55 1257.89 3900.43 1264.6 3906.18 1269.39C3912.25 1273.87 3919.92 1277.38 3929.18 1279.94C3938.77 1282.49 3949.31 1284.73 3960.81 1286.65C3972.32 1288.24 3983.82 1290.48 3995.32 1293.35C4006.82 1295.91 4017.21 1299.58 4026.47 1304.38C4036.06 1309.17 4043.72 1315.88 4049.47 1324.51C4055.54 1333.13 4058.58 1344.63 4058.58 1359.01C4058.58 1374.35 4054.11 1387.61 4045.16 1398.79C4036.22 1409.97 4023.6 1418.76 4007.3 1425.15C3991.01 1431.22 3971.52 1434.25 3948.83 1434.25Z" fill="black"/>
<path d="M3699.79 1174.98C3720.55 1174.98 3738.76 1178.98 3754.42 1186.96C3770.39 1194.95 3782.85 1207.09 3791.8 1223.38C3800.75 1239.68 3805.22 1260.29 3805.22 1285.21V1431.38H3759.21V1290.48C3759.21 1265.88 3753.14 1247.35 3741 1234.89C3729.18 1222.43 3712.41 1216.2 3690.68 1216.2C3674.39 1216.2 3660.17 1219.39 3648.03 1225.78C3635.89 1232.17 3626.46 1241.6 3619.75 1254.06C3613.36 1266.52 3610.17 1282.01 3610.17 1300.54V1431.38H3564.16V1177.38H3608.25V1245.91L3601.06 1227.7C3609.37 1211.08 3622.15 1198.14 3639.4 1188.88C3656.65 1179.61 3676.78 1174.98 3699.79 1174.98Z" fill="black"/>
<path d="M3398.2 1434.25C3371.04 1434.25 3347.08 1428.66 3326.31 1417.48C3305.86 1406.3 3289.89 1390.96 3278.39 1371.47C3267.2 1351.98 3261.61 1329.62 3261.61 1304.38C3261.61 1279.14 3267.04 1256.77 3277.91 1237.28C3289.09 1217.79 3304.27 1202.62 3323.44 1191.75C3342.92 1180.57 3364.81 1174.98 3389.09 1174.98C3413.69 1174.98 3435.42 1180.41 3454.27 1191.28C3473.12 1202.14 3487.82 1217.47 3498.36 1237.28C3509.22 1256.77 3514.65 1279.62 3514.65 1305.81C3514.65 1307.73 3514.49 1309.97 3514.17 1312.52C3514.17 1315.08 3514.01 1317.48 3513.7 1319.71H3297.56V1286.65H3489.73L3471.04 1298.15C3471.36 1281.85 3468.01 1267.32 3460.98 1254.54C3453.95 1241.76 3444.2 1231.85 3431.74 1224.82C3419.6 1217.47 3405.39 1213.8 3389.09 1213.8C3373.12 1213.8 3358.9 1217.47 3346.44 1224.82C3333.98 1231.85 3324.23 1241.92 3317.21 1255.01C3310.18 1267.79 3306.66 1282.49 3306.66 1299.11V1306.77C3306.66 1323.71 3310.5 1338.88 3318.16 1352.3C3326.15 1365.4 3337.17 1375.62 3351.23 1382.97C3365.29 1390.32 3381.42 1394 3399.64 1394C3414.65 1394 3428.23 1391.44 3440.37 1386.33C3452.83 1381.22 3463.69 1373.55 3472.96 1363.32L3498.36 1393.04C3486.86 1406.46 3472.48 1416.68 3455.23 1423.71C3438.29 1430.74 3419.28 1434.25 3398.2 1434.25Z" fill="black"/>
<path d="M3119.13 1434.25C3091.98 1434.25 3068.01 1428.66 3047.25 1417.48C3026.8 1406.3 3010.82 1390.96 2999.32 1371.47C2988.14 1351.98 2982.55 1329.62 2982.55 1304.38C2982.55 1279.14 2987.98 1256.77 2998.84 1237.28C3010.03 1217.79 3025.2 1202.62 3044.37 1191.75C3063.86 1180.57 3085.75 1174.98 3110.03 1174.98C3134.63 1174.98 3156.35 1180.41 3175.2 1191.28C3194.05 1202.14 3208.75 1217.47 3219.29 1237.28C3230.16 1256.77 3235.59 1279.62 3235.59 1305.81C3235.59 1307.73 3235.43 1309.97 3235.11 1312.52C3235.11 1315.08 3234.95 1317.48 3234.63 1319.71H3018.49V1286.65H3210.67L3191.98 1298.15C3192.3 1281.85 3188.94 1267.32 3181.91 1254.54C3174.88 1241.76 3165.14 1231.85 3152.68 1224.82C3140.54 1217.47 3126.32 1213.8 3110.03 1213.8C3094.05 1213.8 3079.84 1217.47 3067.37 1224.82C3054.91 1231.85 3045.17 1241.92 3038.14 1255.01C3031.11 1267.79 3027.6 1282.49 3027.6 1299.11V1306.77C3027.6 1323.71 3031.43 1338.88 3039.1 1352.3C3047.09 1365.4 3058.11 1375.62 3072.17 1382.97C3086.23 1390.32 3102.36 1394 3120.57 1394C3135.59 1394 3149.17 1391.44 3161.31 1386.33C3173.77 1381.22 3184.63 1373.55 3193.89 1363.32L3219.29 1393.04C3207.79 1406.46 3193.42 1416.68 3176.16 1423.71C3159.23 1430.74 3140.22 1434.25 3119.13 1434.25Z" fill="black"/>
<path d="M2829.46 1431.38V1177.38H2873.55V1246.39L2869.24 1229.14C2876.27 1211.56 2888.09 1198.14 2904.7 1188.88C2921.31 1179.61 2941.76 1174.98 2966.04 1174.98V1219.55C2964.13 1219.23 2962.21 1219.07 2960.29 1219.07C2958.69 1219.07 2957.1 1219.07 2955.5 1219.07C2930.9 1219.07 2911.41 1226.42 2897.03 1241.12C2882.65 1255.81 2875.47 1277.06 2875.47 1304.86V1431.38H2829.46Z" fill="black"/>
<path d="M2680.76 1434.25C2654.88 1434.25 2631.71 1428.66 2611.27 1417.48C2591.14 1406.3 2575.32 1390.96 2563.82 1371.47C2552.32 1351.98 2546.57 1329.62 2546.57 1304.38C2546.57 1279.14 2552.32 1256.77 2563.82 1237.28C2575.32 1217.79 2591.14 1202.62 2611.27 1191.75C2631.71 1180.57 2654.88 1174.98 2680.76 1174.98C2703.76 1174.98 2724.21 1179.61 2742.1 1188.88C2760.31 1197.83 2774.37 1211.24 2784.27 1229.14L2749.29 1251.66C2740.98 1239.2 2730.76 1230.09 2718.62 1224.34C2706.8 1218.27 2694.02 1215.24 2680.28 1215.24C2663.66 1215.24 2648.81 1218.91 2635.71 1226.26C2622.61 1233.61 2612.22 1243.99 2604.56 1257.41C2596.89 1270.51 2593.05 1286.17 2593.05 1304.38C2593.05 1322.59 2596.89 1338.4 2604.56 1351.82C2612.22 1365.24 2622.61 1375.62 2635.71 1382.97C2648.81 1390.32 2663.66 1394 2680.28 1394C2694.02 1394 2706.8 1391.12 2718.62 1385.37C2730.76 1379.3 2740.98 1370.03 2749.29 1357.57L2784.27 1379.62C2774.37 1397.19 2760.31 1410.77 2742.1 1420.35C2724.21 1429.62 2703.76 1434.25 2680.76 1434.25Z" fill="black"/>
<path d="M2417.18 1434.25C2396.1 1434.25 2375.97 1431.38 2356.8 1425.63C2337.95 1419.87 2323.09 1412.85 2312.23 1404.54L2331.4 1368.12C2342.26 1375.46 2355.68 1381.69 2371.65 1386.81C2387.63 1391.92 2403.92 1394.47 2420.54 1394.47C2441.94 1394.47 2457.28 1391.44 2466.54 1385.37C2476.13 1379.3 2480.92 1370.83 2480.92 1359.97C2480.92 1351.98 2478.05 1345.75 2472.3 1341.28C2466.54 1336.81 2458.88 1333.45 2449.29 1331.21C2440.03 1328.98 2429.64 1327.06 2418.14 1325.46C2406.64 1323.55 2395.14 1321.31 2383.64 1318.75C2372.13 1315.88 2361.59 1312.04 2352.01 1307.25C2342.42 1302.14 2334.75 1295.27 2329 1286.65C2323.25 1277.7 2320.38 1265.88 2320.38 1251.18C2320.38 1235.85 2324.69 1222.43 2333.32 1210.92C2341.94 1199.42 2354.08 1190.64 2369.74 1184.57C2385.71 1178.18 2404.56 1174.98 2426.29 1174.98C2442.9 1174.98 2459.68 1177.06 2476.61 1181.21C2493.86 1185.05 2507.92 1190.64 2518.78 1197.99L2499.13 1234.41C2487.63 1226.74 2475.65 1221.47 2463.19 1218.59C2450.73 1215.72 2438.27 1214.28 2425.81 1214.28C2405.68 1214.28 2390.66 1217.63 2380.76 1224.34C2370.86 1230.73 2365.9 1239.04 2365.9 1249.26C2365.9 1257.89 2368.78 1264.6 2374.53 1269.39C2380.6 1273.87 2388.27 1277.38 2397.53 1279.94C2407.12 1282.49 2417.66 1284.73 2429.16 1286.65C2440.67 1288.24 2452.17 1290.48 2463.67 1293.35C2475.17 1295.91 2485.55 1299.58 2494.82 1304.38C2504.4 1309.17 2512.07 1315.88 2517.82 1324.51C2523.89 1333.13 2526.93 1344.63 2526.93 1359.01C2526.93 1374.35 2522.46 1387.61 2513.51 1398.79C2504.56 1409.97 2491.94 1418.76 2475.65 1425.15C2459.36 1431.22 2439.87 1434.25 2417.18 1434.25Z" fill="black"/>
<path d="M3830.41 1020.38V804.718H3881.69V1020.38H3830.41ZM3745.59 936.51V888.585H3966.52V936.51H3745.59Z" fill="#FFD700"/>
<path d="M3490.86 1083.16C3469.77 1083.16 3449.64 1080.28 3430.47 1074.53C3411.62 1068.78 3396.77 1061.75 3385.9 1053.44L3405.07 1017.02C3415.93 1024.37 3429.35 1030.6 3445.33 1035.71C3461.3 1040.82 3477.6 1043.38 3494.21 1043.38C3515.62 1043.38 3530.95 1040.34 3540.22 1034.27C3549.8 1028.2 3554.6 1019.74 3554.6 1008.87C3554.6 1000.89 3551.72 994.657 3545.97 990.184C3540.22 985.711 3532.55 982.356 3522.97 980.12C3513.7 977.883 3503.32 975.966 3491.82 974.369C3480.31 972.452 3468.81 970.216 3457.31 967.66C3445.81 964.784 3435.26 960.95 3425.68 956.158C3416.09 951.046 3408.43 944.177 3402.68 935.55C3396.92 926.604 3394.05 914.783 3394.05 900.086C3394.05 884.751 3398.36 871.332 3406.99 859.83C3415.62 848.328 3427.76 839.542 3443.41 833.472C3459.39 827.082 3478.24 823.887 3499.96 823.887C3516.58 823.887 3533.35 825.963 3550.28 830.117C3567.54 833.951 3581.59 839.542 3592.46 846.89L3572.81 883.313C3561.31 875.645 3549.32 870.373 3536.86 867.498C3524.4 864.622 3511.94 863.185 3499.48 863.185C3479.35 863.185 3464.34 866.539 3454.43 873.249C3444.53 879.639 3439.58 887.946 3439.58 898.169C3439.58 906.796 3442.45 913.505 3448.2 918.298C3454.27 922.771 3461.94 926.285 3471.21 928.841C3480.79 931.397 3491.34 933.633 3502.84 935.55C3514.34 937.148 3525.84 939.384 3537.34 942.26C3548.84 944.816 3559.23 948.49 3568.49 953.282C3578.08 958.075 3585.75 964.784 3591.5 973.411C3597.57 982.037 3600.6 993.539 3600.6 1007.92C3600.6 1023.25 3596.13 1036.51 3587.18 1047.69C3578.24 1058.88 3565.62 1067.66 3549.32 1074.05C3533.03 1080.12 3513.54 1083.16 3490.86 1083.16Z" fill="black"/>
<path d="M3236.29 1080.28V826.283H3280.38V895.294L3276.07 878.041C3283.1 860.469 3294.92 847.05 3311.53 837.785C3328.15 828.519 3348.6 823.887 3372.88 823.887V868.456C3370.96 868.137 3369.04 867.977 3367.13 867.977C3365.53 867.977 3363.93 867.977 3362.33 867.977C3337.73 867.977 3318.24 875.325 3303.87 890.022C3289.49 904.719 3282.3 925.965 3282.3 953.762V1080.28H3236.29Z" fill="black"/>
<path d="M3055.25 1083.16C3029.69 1083.16 3007.01 1077.57 2987.2 1066.38C2967.39 1055.2 2951.73 1039.87 2940.23 1020.38C2928.73 1000.57 2922.98 978.203 2922.98 953.282C2922.98 928.042 2928.73 905.678 2940.23 886.188C2951.73 866.699 2967.39 851.523 2987.2 840.66C3007.01 829.478 3029.69 823.887 3055.25 823.887C3080.49 823.887 3103.01 829.478 3122.82 840.66C3142.95 851.523 3158.61 866.699 3169.79 886.188C3181.29 905.358 3187.04 927.723 3187.04 953.282C3187.04 978.522 3181.29 1000.89 3169.79 1020.38C3158.61 1039.87 3142.95 1055.2 3122.82 1066.38C3103.01 1077.57 3080.49 1083.16 3055.25 1083.16ZM3055.25 1042.9C3071.54 1042.9 3086.08 1039.23 3098.86 1031.88C3111.96 1024.53 3122.18 1014.15 3129.53 1000.73C3136.88 986.989 3140.55 971.174 3140.55 953.282C3140.55 935.071 3136.88 919.416 3129.53 906.317C3122.18 892.898 3111.96 882.514 3098.86 875.166C3086.08 867.817 3071.54 864.143 3055.25 864.143C3038.96 864.143 3024.42 867.817 3011.64 875.166C2998.86 882.514 2988.63 892.898 2980.97 906.317C2973.3 919.416 2969.47 935.071 2969.47 953.282C2969.47 971.174 2973.3 986.989 2980.97 1000.73C2988.63 1014.15 2998.86 1024.53 3011.64 1031.88C3024.42 1039.23 3038.96 1042.9 3055.25 1042.9Z" fill="black"/>
<path d="M2765.42 1083.16C2739.86 1083.16 2717.18 1077.57 2697.37 1066.38C2677.56 1055.2 2661.9 1039.87 2650.4 1020.38C2638.9 1000.57 2633.15 978.203 2633.15 953.282C2633.15 928.042 2638.9 905.678 2650.4 886.188C2661.9 866.699 2677.56 851.523 2697.37 840.66C2717.18 829.478 2739.86 823.887 2765.42 823.887C2790.66 823.887 2813.18 829.478 2832.99 840.66C2853.12 851.523 2868.78 866.699 2879.96 886.188C2891.46 905.358 2897.21 927.723 2897.21 953.282C2897.21 978.522 2891.46 1000.89 2879.96 1020.38C2868.78 1039.87 2853.12 1055.2 2832.99 1066.38C2813.18 1077.57 2790.66 1083.16 2765.42 1083.16ZM2765.42 1042.9C2781.71 1042.9 2796.25 1039.23 2809.03 1031.88C2822.13 1024.53 2832.35 1014.15 2839.7 1000.73C2847.05 986.989 2850.72 971.174 2850.72 953.282C2850.72 935.071 2847.05 919.416 2839.7 906.317C2832.35 892.898 2822.13 882.514 2809.03 875.166C2796.25 867.817 2781.71 864.143 2765.42 864.143C2749.13 864.143 2734.59 867.817 2721.81 875.166C2709.03 882.514 2698.8 892.898 2691.14 906.317C2683.47 919.416 2679.64 935.071 2679.64 953.282C2679.64 971.174 2683.47 986.989 2691.14 1000.73C2698.8 1014.15 2709.03 1024.53 2721.81 1031.88C2734.59 1039.23 2749.13 1042.9 2765.42 1042.9Z" fill="black"/>
<path d="M2449.29 1083.16C2424.69 1083.16 2402.65 1077.72 2383.16 1066.86C2363.99 1056 2348.81 1040.82 2337.63 1021.33C2326.45 1001.84 2320.86 979.161 2320.86 953.282C2320.86 927.402 2326.45 904.878 2337.63 885.708C2348.81 866.219 2363.99 851.043 2383.16 840.18C2402.65 829.317 2424.69 823.886 2449.29 823.886C2470.7 823.886 2490.03 828.678 2507.28 838.263C2524.53 847.848 2538.27 862.225 2548.5 881.395C2559.04 900.565 2564.31 924.527 2564.31 953.282C2564.31 982.036 2559.2 1006 2548.98 1025.17C2539.07 1044.34 2525.49 1058.87 2508.24 1068.78C2490.99 1078.36 2471.34 1083.16 2449.29 1083.16ZM2453.13 1042.9C2469.1 1042.9 2483.48 1039.23 2496.26 1031.88C2509.36 1024.53 2519.58 1014.15 2526.93 1000.73C2534.6 986.988 2538.43 971.173 2538.43 953.282C2538.43 935.07 2534.6 919.415 2526.93 906.316C2519.58 892.897 2509.36 882.513 2496.26 875.165C2483.48 867.817 2469.1 864.142 2453.13 864.142C2436.83 864.142 2422.3 867.817 2409.52 875.165C2396.74 882.513 2386.51 892.897 2378.84 906.316C2371.18 919.415 2367.34 935.07 2367.34 953.282C2367.34 971.173 2371.18 986.988 2378.84 1000.73C2386.51 1014.15 2396.74 1024.53 2409.52 1031.88C2422.3 1039.23 2436.83 1042.9 2453.13 1042.9ZM2539.87 1080.28V1011.75L2542.74 952.802L2537.95 893.855V724.683H2583.96V1080.28H2539.87Z" fill="black"/>
<path d="M1733.4 1426.88V1343.67L2079.93 924.467L2104.15 969.758H1739.72V864.43H2209.48V947.639L1862.95 1366.84L1836.62 1321.55H2218.96V1426.88H1733.4Z" fill="black"/>
<path fill-rule="evenodd" clip-rule="evenodd" d="M1506.88 864.428V1426.88H1638.54V864.428H1506.88Z" fill="black"/>
<path d="M1573.23 771.739C1548.66 771.739 1528.29 764.015 1512.14 748.567C1496.69 733.119 1488.97 714.511 1488.97 692.743C1488.97 670.273 1496.69 651.665 1512.14 636.919C1528.29 621.471 1548.66 613.747 1573.23 613.747C1597.81 613.747 1617.82 621.12 1633.27 635.866C1649.42 649.91 1657.5 667.815 1657.5 689.583C1657.5 712.755 1649.77 732.417 1634.32 748.567C1618.88 764.015 1598.51 771.739 1573.23 771.739Z" fill="#FFD700"/>
<path d="M1101.32 1426.88V864.427H1226.66V1019.26L1211.91 973.968C1228.77 936.05 1255.1 907.261 1290.91 887.599C1327.42 867.938 1372.72 858.107 1426.78 858.107V983.448C1421.17 982.044 1415.9 981.341 1410.99 981.341C1406.07 980.639 1401.15 980.288 1396.24 980.288C1346.38 980.288 1306.71 995.034 1277.22 1024.53C1247.73 1053.32 1232.98 1096.5 1232.98 1154.08V1426.88H1101.32Z" fill="black"/>
<path d="M722.617 1434.25C674.868 1434.25 632.386 1423.72 595.17 1402.65C557.954 1381.59 528.462 1349.99 506.694 1307.86C485.629 1265.03 475.096 1210.96 475.096 1145.65C475.096 1079.65 485.98 1025.58 507.748 983.449C530.218 941.318 560.061 910.07 597.276 889.707C635.195 868.641 676.975 858.109 722.617 858.109C778.09 858.109 826.892 870.046 869.023 893.92C911.856 917.794 945.561 951.148 970.138 993.982C995.417 1036.82 1008.06 1087.37 1008.06 1145.65C1008.06 1203.94 995.417 1254.49 970.138 1297.33C945.561 1340.16 911.856 1373.87 869.023 1398.44C826.892 1422.32 778.09 1434.25 722.617 1434.25ZM410.846 1426.88V645.346H542.506V995.035L531.973 1144.6L536.186 1294.17V1426.88H410.846ZM707.871 1321.55C739.469 1321.55 767.557 1314.53 792.134 1300.49C817.412 1286.44 837.425 1266.08 852.171 1239.4C866.917 1212.71 874.289 1181.47 874.289 1145.65C874.289 1109.14 866.917 1077.89 852.171 1051.91C837.425 1025.23 817.412 1004.87 792.134 990.822C767.557 976.778 739.469 969.756 707.871 969.756C676.273 969.756 647.834 976.778 622.555 990.822C597.277 1004.87 577.264 1025.23 562.518 1051.91C547.772 1077.89 540.399 1109.14 540.399 1145.65C540.399 1181.47 547.772 1212.71 562.518 1239.4C577.264 1266.08 597.277 1286.44 622.555 1300.49C647.834 1314.53 676.273 1321.55 707.871 1321.55Z" fill="black"/>
</svg>
