<svg width="210" height="96" viewBox="0 0 210 96" fill="none" xmlns="http://www.w3.org/2000/svg">
<rect width="209.504" height="96" fill="white"/>
<path d="M185.103 67.2324C184.115 67.2324 183.171 67.0976 182.273 66.828C181.389 66.5585 180.693 66.229 180.184 65.8396L181.082 64.1323C181.591 64.4768 182.22 64.7688 182.969 65.0084C183.718 65.248 184.482 65.3678 185.261 65.3678C186.264 65.3678 186.983 65.2256 187.417 64.941C187.866 64.6565 188.091 64.2596 188.091 63.7504C188.091 63.376 187.956 63.084 187.687 62.8743C187.417 62.6646 187.058 62.5074 186.608 62.4025C186.174 62.2977 185.687 62.2078 185.148 62.133C184.609 62.0431 184.07 61.9383 183.531 61.8185C182.992 61.6837 182.497 61.504 182.048 61.2793C181.599 61.0397 181.239 60.7177 180.97 60.3133C180.7 59.894 180.565 59.3399 180.565 58.651C180.565 57.9321 180.768 57.3031 181.172 56.7639C181.576 56.2248 182.145 55.8129 182.879 55.5284C183.628 55.2289 184.512 55.0791 185.53 55.0791C186.309 55.0791 187.095 55.1764 187.889 55.3711C188.698 55.5509 189.357 55.8129 189.866 56.1574L188.945 57.8647C188.406 57.5053 187.844 57.2582 187.26 57.1234C186.676 56.9886 186.092 56.9212 185.508 56.9212C184.564 56.9212 183.86 57.0784 183.396 57.3929C182.932 57.6925 182.7 58.0819 182.7 58.5611C182.7 58.9655 182.834 59.28 183.104 59.5046C183.389 59.7143 183.748 59.879 184.182 59.9988C184.632 60.1186 185.126 60.2235 185.665 60.3133C186.204 60.3882 186.743 60.493 187.282 60.6278C187.822 60.7476 188.308 60.9199 188.743 61.1445C189.192 61.3692 189.551 61.6837 189.821 62.088C190.105 62.4924 190.248 63.0315 190.248 63.7055C190.248 64.4243 190.038 65.0459 189.619 65.57C189.199 66.0942 188.608 66.506 187.844 66.8056C187.08 67.0901 186.167 67.2324 185.103 67.2324Z" fill="black"/>
<path d="M173.428 55.0791C174.401 55.0791 175.255 55.2663 175.989 55.6407C176.738 56.0151 177.322 56.5842 177.741 57.348C178.16 58.1118 178.37 59.0778 178.37 60.2459V67.0976H176.213V60.493C176.213 59.3399 175.929 58.4712 175.36 57.8872C174.806 57.3031 174.019 57.011 173.001 57.011C172.237 57.011 171.571 57.1608 171.002 57.4603C170.432 57.7599 169.991 58.2017 169.676 58.7857C169.377 59.3698 169.227 60.0962 169.227 60.9648V67.0976H167.07V55.1914H169.137V58.4038L168.8 57.5502C169.189 56.7714 169.789 56.1649 170.597 55.7306C171.406 55.2963 172.349 55.0791 173.428 55.0791Z" fill="black"/>
<path d="M159.289 67.2324C158.016 67.2324 156.893 66.9703 155.919 66.4461C154.961 65.922 154.212 65.2031 153.673 64.2896C153.149 63.376 152.887 62.3277 152.887 61.1445C152.887 59.9614 153.141 58.913 153.651 57.9995C154.175 57.0859 154.886 56.3746 155.785 55.8654C156.698 55.3412 157.724 55.0791 158.862 55.0791C160.015 55.0791 161.034 55.3337 161.917 55.8429C162.801 56.3521 163.49 57.071 163.984 57.9995C164.493 58.913 164.748 59.9839 164.748 61.2119C164.748 61.3018 164.74 61.4066 164.726 61.5264C164.726 61.6462 164.718 61.7585 164.703 61.8634H154.572V60.3133H163.58L162.704 60.8525C162.719 60.0887 162.561 59.4073 162.232 58.8082C161.902 58.2092 161.446 57.7449 160.862 57.4154C160.293 57.071 159.626 56.8987 158.862 56.8987C158.113 56.8987 157.447 57.071 156.863 57.4154C156.279 57.7449 155.822 58.2166 155.493 58.8307C155.163 59.4297 154.998 60.1186 154.998 60.8974V61.2568C154.998 62.0506 155.178 62.762 155.538 63.391C155.912 64.005 156.429 64.4842 157.088 64.8287C157.747 65.1732 158.503 65.3454 159.357 65.3454C160.06 65.3454 160.697 65.2256 161.266 64.986C161.85 64.7463 162.359 64.3869 162.794 63.9077L163.984 65.3005C163.445 65.9295 162.771 66.4087 161.962 66.7382C161.169 67.0677 160.278 67.2324 159.289 67.2324Z" fill="black"/>
<path d="M146.209 67.2324C144.936 67.2324 143.813 66.9703 142.839 66.4461C141.881 65.922 141.132 65.2031 140.593 64.2896C140.069 63.376 139.807 62.3277 139.807 61.1445C139.807 59.9614 140.061 58.913 140.57 57.9995C141.095 57.0859 141.806 56.3746 142.705 55.8654C143.618 55.3412 144.644 55.0791 145.782 55.0791C146.935 55.0791 147.954 55.3337 148.837 55.8429C149.721 56.3521 150.41 57.071 150.904 57.9995C151.413 58.913 151.668 59.9839 151.668 61.2119C151.668 61.3018 151.66 61.4066 151.645 61.5264C151.645 61.6462 151.638 61.7585 151.623 61.8634H141.491V60.3133H150.5L149.624 60.8525C149.639 60.0887 149.481 59.4073 149.152 58.8082C148.822 58.2092 148.366 57.7449 147.782 57.4154C147.212 57.071 146.546 56.8987 145.782 56.8987C145.033 56.8987 144.367 57.071 143.783 57.4154C143.199 57.7449 142.742 58.2166 142.413 58.8307C142.083 59.4297 141.918 60.1186 141.918 60.8974V61.2568C141.918 62.0506 142.098 62.762 142.457 63.391C142.832 64.005 143.349 64.4842 144.008 64.8287C144.666 65.1732 145.423 65.3454 146.276 65.3454C146.98 65.3454 147.617 65.2256 148.186 64.986C148.77 64.7463 149.279 64.3869 149.713 63.9077L150.904 65.3005C150.365 65.9295 149.691 66.4087 148.882 66.7382C148.089 67.0677 147.197 67.2324 146.209 67.2324Z" fill="black"/>
<path d="M132.631 67.0976V55.1914H134.698V58.4263L134.495 57.6176C134.825 56.7939 135.379 56.1649 136.158 55.7306C136.937 55.2963 137.895 55.0791 139.033 55.0791V57.1683C138.943 57.1533 138.854 57.1458 138.764 57.1458C138.689 57.1458 138.614 57.1458 138.539 57.1458C137.386 57.1458 136.472 57.4903 135.798 58.1792C135.124 58.8681 134.787 59.864 134.787 61.167V67.0976H132.631Z" fill="black"/>
<path d="M125.661 67.2324C124.448 67.2324 123.362 66.9703 122.404 66.4461C121.46 65.922 120.719 65.2031 120.18 64.2896C119.641 63.376 119.371 62.3277 119.371 61.1445C119.371 59.9614 119.641 58.913 120.18 57.9995C120.719 57.0859 121.46 56.3746 122.404 55.8654C123.362 55.3412 124.448 55.0791 125.661 55.0791C126.739 55.0791 127.698 55.2963 128.537 55.7306C129.39 56.1499 130.049 56.7789 130.513 57.6176L128.874 58.6734C128.484 58.0893 128.005 57.6625 127.436 57.3929C126.882 57.1084 126.283 56.9661 125.639 56.9661C124.86 56.9661 124.164 57.1383 123.549 57.4828C122.935 57.8273 122.449 58.314 122.089 58.943C121.73 59.557 121.55 60.2909 121.55 61.1445C121.55 61.9982 121.73 62.7395 122.089 63.3685C122.449 63.9975 122.935 64.4842 123.549 64.8287C124.164 65.1732 124.86 65.3454 125.639 65.3454C126.283 65.3454 126.882 65.2106 127.436 64.941C128.005 64.6565 128.484 64.2222 128.874 63.6381L130.513 64.6714C130.049 65.4951 129.39 66.1316 128.537 66.5809C127.698 67.0152 126.739 67.2324 125.661 67.2324Z" fill="black"/>
<path d="M113.304 67.2324C112.316 67.2324 111.373 67.0976 110.474 66.828C109.59 66.5585 108.894 66.229 108.385 65.8396L109.283 64.1323C109.793 64.4768 110.422 64.7688 111.17 65.0084C111.919 65.248 112.683 65.3678 113.462 65.3678C114.465 65.3678 115.184 65.2256 115.618 64.941C116.068 64.6565 116.292 64.2596 116.292 63.7504C116.292 63.376 116.157 63.084 115.888 62.8743C115.618 62.6646 115.259 62.5074 114.81 62.4025C114.375 62.2977 113.889 62.2078 113.349 62.133C112.81 62.0431 112.271 61.9383 111.732 61.8185C111.193 61.6837 110.699 61.504 110.249 61.2793C109.8 61.0397 109.441 60.7177 109.171 60.3133C108.901 59.894 108.767 59.3399 108.767 58.651C108.767 57.9321 108.969 57.3031 109.373 56.7639C109.778 56.2248 110.347 55.8129 111.081 55.5284C111.829 55.2289 112.713 55.0791 113.731 55.0791C114.51 55.0791 115.296 55.1764 116.09 55.3711C116.899 55.5509 117.558 55.8129 118.067 56.1574L117.146 57.8647C116.607 57.5053 116.045 57.2582 115.461 57.1234C114.877 56.9886 114.293 56.9212 113.709 56.9212C112.765 56.9212 112.061 57.0784 111.597 57.3929C111.133 57.6925 110.901 58.0819 110.901 58.5611C110.901 58.9655 111.036 59.28 111.305 59.5046C111.59 59.7143 111.949 59.879 112.383 59.9988C112.833 60.1186 113.327 60.2235 113.866 60.3133C114.405 60.3882 114.944 60.493 115.484 60.6278C116.023 60.7476 116.509 60.9199 116.944 61.1445C117.393 61.3692 117.752 61.6837 118.022 62.088C118.307 62.4924 118.449 63.0315 118.449 63.7055C118.449 64.4243 118.239 65.0459 117.82 65.57C117.401 66.0942 116.809 66.506 116.045 66.8056C115.281 67.0901 114.368 67.2324 113.304 67.2324Z" fill="black"/>
<path d="M179.55 47.8307V37.7217H181.954V47.8307H179.55ZM175.574 43.8994V41.653H185.93V43.8994H175.574Z" fill="#FFD700"/>
<path d="M163.635 50.7734C162.646 50.7734 161.703 50.6386 160.804 50.3691C159.92 50.0995 159.224 49.77 158.715 49.3806L159.613 47.6733C160.123 48.0178 160.752 48.3098 161.5 48.5494C162.249 48.7891 163.013 48.9089 163.792 48.9089C164.795 48.9089 165.514 48.7666 165.948 48.482C166.398 48.1975 166.622 47.8006 166.622 47.2914C166.622 46.917 166.488 46.625 166.218 46.4153C165.948 46.2056 165.589 46.0484 165.14 45.9435C164.705 45.8387 164.219 45.7489 163.68 45.674C163.14 45.5841 162.601 45.4793 162.062 45.3595C161.523 45.2247 161.029 45.045 160.579 44.8203C160.13 44.5807 159.771 44.2587 159.501 43.8543C159.232 43.435 159.097 42.8809 159.097 42.192C159.097 41.4731 159.299 40.8441 159.703 40.305C160.108 39.7658 160.677 39.354 161.411 39.0694C162.159 38.7699 163.043 38.6201 164.061 38.6201C164.84 38.6201 165.626 38.7175 166.42 38.9122C167.229 39.0919 167.888 39.354 168.397 39.6984L167.476 41.4057C166.937 41.0463 166.375 40.7992 165.791 40.6644C165.207 40.5296 164.623 40.4622 164.039 40.4622C163.095 40.4622 162.392 40.6195 161.927 40.934C161.463 41.2335 161.231 41.6229 161.231 42.1021C161.231 42.5065 161.366 42.821 161.635 43.0456C161.92 43.2553 162.279 43.42 162.714 43.5398C163.163 43.6597 163.657 43.7645 164.196 43.8543C164.735 43.9292 165.274 44.0341 165.814 44.1689C166.353 44.2887 166.84 44.4609 167.274 44.6855C167.723 44.9102 168.083 45.2247 168.352 45.629C168.637 46.0334 168.779 46.5726 168.779 47.2465C168.779 47.9654 168.569 48.5869 168.15 49.111C167.731 49.6352 167.139 50.0471 166.375 50.3466C165.611 50.6311 164.698 50.7734 163.635 50.7734Z" fill="black"/>
<path d="M151.701 50.6386V38.7324H153.768V41.9673L153.566 41.1586C153.895 40.3349 154.449 39.7059 155.228 39.2716C156.007 38.8373 156.965 38.6201 158.104 38.6201V40.7093C158.014 40.6943 157.924 40.6869 157.834 40.6869C157.759 40.6869 157.684 40.6869 157.609 40.6869C156.456 40.6869 155.543 41.0313 154.869 41.7202C154.195 42.4091 153.858 43.4051 153.858 44.708V50.6386H151.701Z" fill="black"/>
<path d="M143.214 50.7734C142.016 50.7734 140.952 50.5113 140.024 49.9872C139.095 49.463 138.362 48.7441 137.822 47.8306C137.283 46.902 137.014 45.8537 137.014 44.6855C137.014 43.5024 137.283 42.4541 137.822 41.5405C138.362 40.6269 139.095 39.9156 140.024 39.4064C140.952 38.8822 142.016 38.6201 143.214 38.6201C144.397 38.6201 145.453 38.8822 146.381 39.4064C147.325 39.9156 148.059 40.6269 148.583 41.5405C149.122 42.4391 149.392 43.4874 149.392 44.6855C149.392 45.8687 149.122 46.917 148.583 47.8306C148.059 48.7441 147.325 49.463 146.381 49.9872C145.453 50.5113 144.397 50.7734 143.214 50.7734ZM143.214 48.8864C143.978 48.8864 144.659 48.7142 145.258 48.3697C145.872 48.0253 146.351 47.5385 146.696 46.9095C147.04 46.2655 147.213 45.5242 147.213 44.6855C147.213 43.8319 147.04 43.098 146.696 42.484C146.351 41.855 145.872 41.3683 145.258 41.0238C144.659 40.6794 143.978 40.5071 143.214 40.5071C142.45 40.5071 141.769 40.6794 141.17 41.0238C140.571 41.3683 140.091 41.855 139.732 42.484C139.372 43.098 139.193 43.8319 139.193 44.6855C139.193 45.5242 139.372 46.2655 139.732 46.9095C140.091 47.5385 140.571 48.0253 141.17 48.3697C141.769 48.7142 142.45 48.8864 143.214 48.8864Z" fill="black"/>
<path d="M129.63 50.7734C128.432 50.7734 127.368 50.5113 126.44 49.9872C125.511 49.463 124.778 48.7441 124.238 47.8306C123.699 46.902 123.43 45.8537 123.43 44.6855C123.43 43.5024 123.699 42.4541 124.238 41.5405C124.778 40.6269 125.511 39.9156 126.44 39.4064C127.368 38.8822 128.432 38.6201 129.63 38.6201C130.813 38.6201 131.869 38.8822 132.797 39.4064C133.741 39.9156 134.475 40.6269 134.999 41.5405C135.538 42.4391 135.808 43.4874 135.808 44.6855C135.808 45.8687 135.538 46.917 134.999 47.8306C134.475 48.7441 133.741 49.463 132.797 49.9872C131.869 50.5113 130.813 50.7734 129.63 50.7734ZM129.63 48.8864C130.394 48.8864 131.075 48.7142 131.674 48.3697C132.288 48.0253 132.767 47.5385 133.112 46.9095C133.456 46.2655 133.629 45.5242 133.629 44.6855C133.629 43.8319 133.456 43.098 133.112 42.484C132.767 41.855 132.288 41.3683 131.674 41.0238C131.075 40.6794 130.394 40.5071 129.63 40.5071C128.866 40.5071 128.185 40.6794 127.586 41.0238C126.987 41.3683 126.507 41.855 126.148 42.484C125.788 43.098 125.609 43.8319 125.609 44.6855C125.609 45.5242 125.788 46.2655 126.148 46.9095C126.507 47.5385 126.987 48.0253 127.586 48.3697C128.185 48.7142 128.866 48.8864 129.63 48.8864Z" fill="black"/>
<path d="M114.81 50.7742C113.656 50.7742 112.623 50.5196 111.709 50.0104C110.811 49.5012 110.099 48.7898 109.575 47.8762C109.051 46.9627 108.789 45.8994 108.789 44.6863C108.789 43.4732 109.051 42.4174 109.575 41.5188C110.099 40.6052 110.811 39.8938 111.709 39.3847C112.623 38.8755 113.656 38.6209 114.81 38.6209C115.813 38.6209 116.719 38.8455 117.528 39.2948C118.336 39.7441 118.98 40.418 119.46 41.3166C119.954 42.2152 120.201 43.3384 120.201 44.6863C120.201 46.0341 119.961 47.1574 119.482 48.056C119.018 48.9545 118.381 49.636 117.573 50.1002C116.764 50.5495 115.843 50.7742 114.81 50.7742ZM114.989 48.8871C115.738 48.8871 116.412 48.7149 117.011 48.3705C117.625 48.026 118.104 47.5393 118.449 46.9103C118.808 46.2663 118.988 45.525 118.988 44.6863C118.988 43.8326 118.808 43.0988 118.449 42.4848C118.104 41.8557 117.625 41.369 117.011 41.0246C116.412 40.6801 115.738 40.5079 114.989 40.5079C114.225 40.5079 113.544 40.6801 112.945 41.0246C112.346 41.369 111.867 41.8557 111.507 42.4848C111.148 43.0988 110.968 43.8326 110.968 44.6863C110.968 45.525 111.148 46.2663 111.507 46.9103C111.867 47.5393 112.346 48.026 112.945 48.3705C113.544 48.7149 114.225 48.8871 114.989 48.8871ZM119.055 50.6394V47.4269L119.19 44.6638L118.965 41.9007V33.9707H121.122V50.6394H119.055Z" fill="black"/>
<path d="M81.2539 66.8855V62.985L97.4975 43.3347L98.633 45.4578H81.5501V40.5205H103.57V44.4209L87.3267 64.0712L86.0924 61.9482H104.015V66.8855H81.2539Z" fill="black"/>
<path fill-rule="evenodd" clip-rule="evenodd" d="M70.6343 40.5202V66.8851H76.8058V40.5202H70.6343Z" fill="black"/>
<path d="M73.7447 36.1754C72.5927 36.1754 71.6382 35.8133 70.8811 35.0892C70.157 34.3651 69.7949 33.4928 69.7949 32.4725C69.7949 31.4192 70.157 30.5469 70.8811 29.8557C71.6382 29.1316 72.5927 28.7695 73.7447 28.7695C74.8968 28.7695 75.8348 29.1151 76.559 29.8064C77.316 30.4647 77.6945 31.304 77.6945 32.3244C77.6945 33.4105 77.3325 34.3322 76.6083 35.0892C75.8842 35.8133 74.9297 36.1754 73.7447 36.1754Z" fill="#FFD700"/>
<path d="M51.625 66.8858V40.5208H57.5003V47.7786L56.8091 45.6556C57.5991 43.8782 58.8334 42.5287 60.5121 41.607C62.2236 40.6854 64.3467 40.2246 66.8811 40.2246V46.0999C66.6178 46.0341 66.3709 46.0012 66.1405 46.0012C65.9101 45.9683 65.6797 45.9518 65.4493 45.9518C63.1123 45.9518 61.2526 46.643 59.8702 48.0255C58.4878 49.375 57.7966 51.3993 57.7966 54.0983V66.8858H51.625Z" fill="black"/>
<path d="M33.8721 67.231C31.6339 67.231 29.6425 66.7373 27.898 65.7499C26.1535 64.7624 24.7711 63.2812 23.7507 61.3063C22.7633 59.2985 22.2695 56.764 22.2695 53.7029C22.2695 50.6089 22.7797 48.0745 23.8001 46.0996C24.8534 44.1247 26.2523 42.6599 27.9968 41.7054C29.7742 40.718 31.7326 40.2242 33.8721 40.2242C36.4724 40.2242 38.76 40.7838 40.7349 41.9029C42.7427 43.022 44.3226 44.5855 45.4746 46.5933C46.6596 48.6011 47.2521 50.971 47.2521 53.7029C47.2521 56.4349 46.6596 58.8048 45.4746 60.8126C44.3226 62.8204 42.7427 64.4003 40.7349 65.5524C38.76 66.6715 36.4724 67.231 33.8721 67.231ZM19.2578 66.8854V30.251H25.4294V46.6427L24.9357 53.6536L25.1331 60.6645V66.8854H19.2578ZM33.1809 61.9482C34.6621 61.9482 35.9787 61.619 37.1307 60.9607C38.3156 60.3024 39.2537 59.3479 39.9449 58.0971C40.6361 56.8463 40.9817 55.3816 40.9817 53.7029C40.9817 51.9914 40.6361 50.5266 39.9449 49.3088C39.2537 48.058 38.3156 47.1035 37.1307 46.4452C35.9787 45.7869 34.6621 45.4577 33.1809 45.4577C31.6997 45.4577 30.3666 45.7869 29.1817 46.4452C27.9968 47.1035 27.0587 48.058 26.3675 49.3088C25.6762 50.5266 25.3306 51.9914 25.3306 53.7029C25.3306 55.3816 25.6762 56.8463 26.3675 58.0971C27.0587 59.3479 27.9968 60.3024 29.1817 60.9607C30.3666 61.619 31.6997 61.9482 33.1809 61.9482Z" fill="black"/>
</svg>
