<svg width="35" height="16" viewBox="0 0 35 16" fill="none" xmlns="http://www.w3.org/2000/svg">
<rect width="34.9174" height="16" fill="white"/>
<path d="M30.8502 11.2052C30.6855 11.2052 30.5282 11.1828 30.3785 11.1378C30.2312 11.0929 30.1151 11.038 30.0303 10.9731L30.18 10.6886C30.2649 10.746 30.3697 10.7946 30.4945 10.8346C30.6193 10.8745 30.7466 10.8945 30.8764 10.8945C31.0437 10.8945 31.1635 10.8708 31.2359 10.8233C31.3108 10.7759 31.3482 10.7098 31.3482 10.6249C31.3482 10.5625 31.3257 10.5138 31.2808 10.4789C31.2359 10.4439 31.176 10.4177 31.1011 10.4003C31.0287 10.3828 30.9476 10.3678 30.8577 10.3553C30.7679 10.3404 30.678 10.3229 30.5881 10.3029C30.4983 10.2804 30.4159 10.2505 30.341 10.2131C30.2662 10.1731 30.2062 10.1195 30.1613 10.0521C30.1164 9.98217 30.0939 9.88982 30.0939 9.775C30.0939 9.65519 30.1276 9.55035 30.195 9.46049C30.2624 9.37064 30.3573 9.30199 30.4796 9.25457C30.6044 9.20465 30.7516 9.17969 30.9214 9.17969C31.0512 9.17969 31.1822 9.19591 31.3145 9.22836C31.4493 9.25831 31.5591 9.30199 31.644 9.3594L31.4905 9.64395C31.4006 9.58405 31.307 9.54286 31.2097 9.5204C31.1123 9.49793 31.015 9.4867 30.9176 9.4867C30.7604 9.4867 30.6431 9.51291 30.5657 9.56533C30.4883 9.61525 30.4496 9.68015 30.4496 9.76002C30.4496 9.82741 30.4721 9.87983 30.517 9.91727C30.5644 9.95222 30.6243 9.97967 30.6967 9.99964C30.7716 10.0196 30.854 10.0371 30.9438 10.0521C31.0337 10.0645 31.1235 10.082 31.2134 10.1045C31.3033 10.1244 31.3844 10.1531 31.4568 10.1906C31.5317 10.228 31.5916 10.2804 31.6365 10.3478C31.6839 10.4152 31.7076 10.5051 31.7076 10.6174C31.7076 10.7372 31.6727 10.8408 31.6028 10.9282C31.5329 11.0155 31.4343 11.0842 31.307 11.1341C31.1797 11.1815 31.0274 11.2052 30.8502 11.2052Z" fill="black"/>
<path d="M28.9043 9.17969C29.0665 9.17969 29.2088 9.21089 29.3311 9.27329C29.4559 9.33569 29.5533 9.43054 29.6232 9.55784C29.6931 9.68514 29.728 9.84613 29.728 10.0408V11.1828H29.3686V10.082C29.3686 9.88982 29.3211 9.74504 29.2263 9.6477C29.1339 9.55035 29.0029 9.50168 28.8332 9.50168C28.7059 9.50168 28.5948 9.52664 28.4999 9.57656C28.4051 9.62648 28.3315 9.70012 28.279 9.79746C28.2291 9.89481 28.2042 10.0159 28.2042 10.1606V11.1828H27.8447V9.19841H28.1892V9.73381L28.133 9.59154C28.1979 9.46174 28.2978 9.36065 28.4325 9.28827C28.5673 9.21588 28.7246 9.17969 28.9043 9.17969Z" fill="black"/>
<path d="M26.5485 11.2052C26.3363 11.2052 26.1491 11.1616 25.9869 11.0742C25.8271 10.9868 25.7023 10.867 25.6125 10.7148C25.5251 10.5625 25.4814 10.3878 25.4814 10.1906C25.4814 9.9934 25.5239 9.81868 25.6087 9.66642C25.6961 9.51416 25.8147 9.3956 25.9644 9.31073C26.1167 9.22337 26.2877 9.17969 26.4774 9.17969C26.6696 9.17969 26.8393 9.22212 26.9866 9.30699C27.1338 9.39185 27.2487 9.51166 27.331 9.66642C27.4159 9.81868 27.4583 9.99715 27.4583 10.2018C27.4583 10.2168 27.4571 10.2343 27.4546 10.2542C27.4546 10.2742 27.4533 10.2929 27.4508 10.3104H25.7623V10.0521H27.2636L27.1176 10.1419C27.1201 10.0146 27.0939 9.90105 27.039 9.80121C26.9841 9.70136 26.9079 9.62399 26.8106 9.56907C26.7157 9.51166 26.6047 9.48296 26.4774 9.48296C26.3526 9.48296 26.2415 9.51166 26.1441 9.56907C26.0468 9.62399 25.9707 9.70261 25.9158 9.80495C25.8608 9.90479 25.8334 10.0196 25.8334 10.1494V10.2093C25.8334 10.3416 25.8633 10.4602 25.9232 10.565C25.9856 10.6673 26.0718 10.7472 26.1816 10.8046C26.2914 10.862 26.4175 10.8907 26.5597 10.8907C26.6771 10.8907 26.7831 10.8708 26.878 10.8308C26.9753 10.7909 27.0602 10.731 27.1326 10.6511L27.331 10.8832C27.2412 10.9881 27.1288 11.068 26.9941 11.1229C26.8618 11.1778 26.7132 11.2052 26.5485 11.2052Z" fill="black"/>
<path d="M24.3688 11.2052C24.1567 11.2052 23.9695 11.1616 23.8072 11.0742C23.6475 10.9868 23.5227 10.867 23.4328 10.7148C23.3454 10.5625 23.3018 10.3878 23.3018 10.1906C23.3018 9.9934 23.3442 9.81868 23.4291 9.66642C23.5164 9.51416 23.635 9.3956 23.7847 9.31073C23.937 9.22337 24.108 9.17969 24.2977 9.17969C24.4899 9.17969 24.6596 9.22212 24.8069 9.30699C24.9541 9.39185 25.069 9.51166 25.1513 9.66642C25.2362 9.81868 25.2786 9.99715 25.2786 10.2018C25.2786 10.2168 25.2774 10.2343 25.2749 10.2542C25.2749 10.2742 25.2736 10.2929 25.2711 10.3104H23.5826V10.0521H25.0839L24.9379 10.1419C24.9404 10.0146 24.9142 9.90105 24.8593 9.80121C24.8044 9.70136 24.7283 9.62399 24.6309 9.56907C24.5361 9.51166 24.425 9.48296 24.2977 9.48296C24.1729 9.48296 24.0618 9.51166 23.9645 9.56907C23.8671 9.62399 23.791 9.70261 23.7361 9.80495C23.6812 9.90479 23.6537 10.0196 23.6537 10.1494V10.2093C23.6537 10.3416 23.6837 10.4602 23.7436 10.565C23.806 10.6673 23.8921 10.7472 24.0019 10.8046C24.1117 10.862 24.2378 10.8907 24.3801 10.8907C24.4974 10.8907 24.6035 10.8708 24.6983 10.8308C24.7956 10.7909 24.8805 10.731 24.9529 10.6511L25.1513 10.8832C25.0615 10.9881 24.9492 11.068 24.8144 11.1229C24.6821 11.1778 24.5336 11.2052 24.3688 11.2052Z" fill="black"/>
<path d="M22.1045 11.1828V9.19841H22.4489V9.73756L22.4153 9.60277C22.4702 9.46549 22.5625 9.36065 22.6923 9.28827C22.8221 9.21588 22.9819 9.17969 23.1716 9.17969V9.52789C23.1566 9.52539 23.1416 9.52414 23.1266 9.52414C23.1141 9.52414 23.1017 9.52414 23.0892 9.52414C22.897 9.52414 22.7447 9.58155 22.6324 9.69637C22.5201 9.81119 22.4639 9.97718 22.4639 10.1943V11.1828H22.1045Z" fill="black"/>
<path d="M20.9439 11.2052C20.7417 11.2052 20.5607 11.1616 20.401 11.0742C20.2437 10.9868 20.1202 10.867 20.0303 10.7148C19.9404 10.5625 19.8955 10.3878 19.8955 10.1906C19.8955 9.9934 19.9404 9.81868 20.0303 9.66642C20.1202 9.51416 20.2437 9.3956 20.401 9.31073C20.5607 9.22337 20.7417 9.17969 20.9439 9.17969C21.1236 9.17969 21.2833 9.21588 21.4231 9.28827C21.5654 9.35816 21.6752 9.46299 21.7526 9.60277L21.4793 9.77874C21.4144 9.68139 21.3345 9.61026 21.2396 9.56533C21.1473 9.5179 21.0474 9.49419 20.9401 9.49419C20.8103 9.49419 20.6942 9.5229 20.5919 9.5803C20.4896 9.63771 20.4084 9.71884 20.3485 9.82367C20.2886 9.92601 20.2587 10.0483 20.2587 10.1906C20.2587 10.3329 20.2886 10.4564 20.3485 10.5613C20.4084 10.6661 20.4896 10.7472 20.5919 10.8046C20.6942 10.862 20.8103 10.8907 20.9401 10.8907C21.0474 10.8907 21.1473 10.8683 21.2396 10.8233C21.3345 10.7759 21.4144 10.7035 21.4793 10.6062L21.7526 10.7784C21.6752 10.9157 21.5654 11.0218 21.4231 11.0967C21.2833 11.169 21.1236 11.2052 20.9439 11.2052Z" fill="black"/>
<path d="M18.8834 11.2052C18.7187 11.2052 18.5614 11.1828 18.4117 11.1378C18.2644 11.0929 18.1483 11.038 18.0635 10.9731L18.2132 10.6886C18.2981 10.746 18.4029 10.7946 18.5277 10.8346C18.6525 10.8745 18.7798 10.8945 18.9096 10.8945C19.0769 10.8945 19.1967 10.8708 19.2691 10.8233C19.344 10.7759 19.3814 10.7098 19.3814 10.6249C19.3814 10.5625 19.3589 10.5138 19.314 10.4789C19.2691 10.4439 19.2092 10.4177 19.1343 10.4003C19.0619 10.3828 18.9808 10.3678 18.8909 10.3553C18.8011 10.3404 18.7112 10.3229 18.6213 10.3029C18.5315 10.2804 18.4491 10.2505 18.3742 10.2131C18.2994 10.1731 18.2394 10.1195 18.1945 10.0521C18.1496 9.98217 18.1271 9.88982 18.1271 9.775C18.1271 9.65519 18.1608 9.55035 18.2282 9.46049C18.2956 9.37064 18.3905 9.30199 18.5128 9.25457C18.6376 9.20465 18.7848 9.17969 18.9546 9.17969C19.0844 9.17969 19.2154 9.19591 19.3477 9.22836C19.4825 9.25831 19.5923 9.30199 19.6772 9.3594L19.5237 9.64395C19.4338 9.58405 19.3402 9.54286 19.2429 9.5204C19.1455 9.49793 19.0482 9.4867 18.9508 9.4867C18.7936 9.4867 18.6763 9.51291 18.5989 9.56533C18.5215 9.61525 18.4828 9.68015 18.4828 9.76002C18.4828 9.82741 18.5053 9.87983 18.5502 9.91727C18.5976 9.95222 18.6575 9.97967 18.7299 9.99964C18.8048 10.0196 18.8872 10.0371 18.977 10.0521C19.0669 10.0645 19.1567 10.082 19.2466 10.1045C19.3365 10.1244 19.4176 10.1531 19.49 10.1906C19.5649 10.228 19.6248 10.2804 19.6697 10.3478C19.7171 10.4152 19.7408 10.5051 19.7408 10.6174C19.7408 10.7372 19.7059 10.8408 19.636 10.9282C19.5661 11.0155 19.4675 11.0842 19.3402 11.1341C19.2129 11.1815 19.0607 11.2052 18.8834 11.2052Z" fill="black"/>
<path d="M29.9254 7.97195V6.28711H30.326V7.97195H29.9254ZM29.2627 7.31673V6.94232H30.9887V7.31673H29.2627Z" fill="#FFD700"/>
<path d="M27.2721 8.46207C27.1074 8.46207 26.9501 8.43961 26.8003 8.39468C26.6531 8.34975 26.537 8.29484 26.4521 8.22994L26.6019 7.94539C26.6868 8.0028 26.7916 8.05147 26.9164 8.09141C27.0412 8.13135 27.1685 8.15131 27.2983 8.15131C27.4655 8.15131 27.5854 8.1276 27.6577 8.08018C27.7326 8.03275 27.7701 7.96661 27.7701 7.88174C27.7701 7.81934 27.7476 7.77067 27.7027 7.73572C27.6577 7.70078 27.5978 7.67457 27.523 7.6571C27.4506 7.63962 27.3694 7.62465 27.2796 7.61217C27.1897 7.59719 27.0999 7.57972 27.01 7.55975C26.9202 7.53728 26.8378 7.50733 26.7629 7.46989C26.688 7.42995 26.6281 7.37629 26.5832 7.3089C26.5383 7.23901 26.5158 7.14665 26.5158 7.03183C26.5158 6.91202 26.5495 6.80719 26.6169 6.71733C26.6843 6.62747 26.7791 6.55883 26.9014 6.51141C27.0262 6.46148 27.1735 6.43652 27.3432 6.43652C27.473 6.43652 27.6041 6.45275 27.7364 6.4852C27.8712 6.51515 27.981 6.55883 28.0658 6.61624L27.9123 6.90079C27.8225 6.84088 27.7289 6.7997 27.6315 6.77724C27.5342 6.75477 27.4368 6.74354 27.3395 6.74354C27.1822 6.74354 27.0649 6.76975 26.9876 6.82216C26.9102 6.87209 26.8715 6.93698 26.8715 7.01686C26.8715 7.08425 26.894 7.13667 26.9389 7.17411C26.9863 7.20905 27.0462 7.23651 27.1186 7.25648C27.1935 7.27645 27.2758 7.29392 27.3657 7.3089C27.4556 7.32138 27.5454 7.33885 27.6353 7.36131C27.7251 7.38128 27.8063 7.40999 27.8786 7.44743C27.9535 7.48487 28.0134 7.53728 28.0584 7.60468C28.1058 7.67207 28.1295 7.76193 28.1295 7.87425C28.1295 7.99406 28.0946 8.09765 28.0247 8.18501C27.9548 8.27237 27.8562 8.34101 27.7289 8.39094C27.6016 8.43836 27.4493 8.46207 27.2721 8.46207Z" fill="black"/>
<path d="M25.2842 8.43961V6.45524H25.6286V6.99439L25.5949 6.85961C25.6499 6.72232 25.7422 6.61749 25.872 6.5451C26.0018 6.47272 26.1615 6.43652 26.3512 6.43652V6.78472C26.3363 6.78223 26.3213 6.78098 26.3063 6.78098C26.2938 6.78098 26.2814 6.78098 26.2689 6.78098C26.0767 6.78098 25.9244 6.83839 25.8121 6.95321C25.6998 7.06803 25.6436 7.23401 25.6436 7.45117V8.43961H25.2842Z" fill="black"/>
<path d="M23.8683 8.46207C23.6686 8.46207 23.4914 8.41839 23.3367 8.33103C23.1819 8.24367 23.0596 8.12386 22.9697 7.9716C22.8799 7.81684 22.835 7.64212 22.835 7.44743C22.835 7.25024 22.8799 7.07551 22.9697 6.92325C23.0596 6.771 23.1819 6.65243 23.3367 6.56757C23.4914 6.4802 23.6686 6.43652 23.8683 6.43652C24.0655 6.43652 24.2415 6.4802 24.3962 6.56757C24.5535 6.65243 24.6758 6.771 24.7632 6.92325C24.853 7.07302 24.898 7.24774 24.898 7.44743C24.898 7.64462 24.853 7.81934 24.7632 7.9716C24.6758 8.12386 24.5535 8.24367 24.3962 8.33103C24.2415 8.41839 24.0655 8.46207 23.8683 8.46207ZM23.8683 8.14757C23.9956 8.14757 24.1092 8.11887 24.209 8.06146C24.3114 8.00405 24.3913 7.92293 24.4487 7.81809C24.5061 7.71076 24.5348 7.58721 24.5348 7.44743C24.5348 7.30515 24.5061 7.18284 24.4487 7.08051C24.3913 6.97567 24.3114 6.89455 24.209 6.83714C24.1092 6.77973 23.9956 6.75103 23.8683 6.75103C23.741 6.75103 23.6275 6.77973 23.5276 6.83714C23.4278 6.89455 23.3479 6.97567 23.288 7.08051C23.2281 7.18284 23.1981 7.30515 23.1981 7.44743C23.1981 7.58721 23.2281 7.71076 23.288 7.81809C23.3479 7.92293 23.4278 8.00405 23.5276 8.06146C23.6275 8.11887 23.741 8.14757 23.8683 8.14757Z" fill="black"/>
<path d="M21.6047 8.46207C21.405 8.46207 21.2278 8.41839 21.073 8.33103C20.9182 8.24367 20.7959 8.12386 20.7061 7.9716C20.6162 7.81684 20.5713 7.64212 20.5713 7.44743C20.5713 7.25024 20.6162 7.07551 20.7061 6.92325C20.7959 6.771 20.9182 6.65243 21.073 6.56757C21.2278 6.4802 21.405 6.43652 21.6047 6.43652C21.8018 6.43652 21.9778 6.4802 22.1326 6.56757C22.2898 6.65243 22.4121 6.771 22.4995 6.92325C22.5894 7.07302 22.6343 7.24774 22.6343 7.44743C22.6343 7.64462 22.5894 7.81934 22.4995 7.9716C22.4121 8.12386 22.2898 8.24367 22.1326 8.33103C21.9778 8.41839 21.8018 8.46207 21.6047 8.46207ZM21.6047 8.14757C21.732 8.14757 21.8455 8.11887 21.9454 8.06146C22.0477 8.00405 22.1276 7.92293 22.185 7.81809C22.2424 7.71076 22.2711 7.58721 22.2711 7.44743C22.2711 7.30515 22.2424 7.18284 22.185 7.08051C22.1276 6.97567 22.0477 6.89455 21.9454 6.83714C21.8455 6.77973 21.732 6.75103 21.6047 6.75103C21.4774 6.75103 21.3638 6.77973 21.2639 6.83714C21.1641 6.89455 21.0842 6.97567 21.0243 7.08051C20.9644 7.18284 20.9345 7.30515 20.9345 7.44743C20.9345 7.58721 20.9644 7.71076 21.0243 7.81809C21.0842 7.92293 21.1641 8.00405 21.2639 8.06146C21.3638 8.11887 21.4774 8.14757 21.6047 8.14757Z" fill="black"/>
<path d="M19.1353 8.46269C18.9431 8.46269 18.7708 8.42025 18.6186 8.33539C18.4688 8.25052 18.3502 8.13196 18.2629 7.9797C18.1755 7.82744 18.1318 7.65022 18.1318 7.44804C18.1318 7.24586 18.1755 7.06989 18.2629 6.92012C18.3502 6.76786 18.4688 6.6493 18.6186 6.56443C18.7708 6.47957 18.9431 6.43714 19.1353 6.43714C19.3025 6.43714 19.4535 6.47458 19.5883 6.54946C19.7231 6.62434 19.8304 6.73666 19.9103 6.88643C19.9926 7.03619 20.0338 7.22339 20.0338 7.44804C20.0338 7.67268 19.9939 7.85989 19.914 8.00965C19.8366 8.15941 19.7306 8.27299 19.5958 8.35036C19.461 8.42524 19.3075 8.46269 19.1353 8.46269ZM19.1652 8.14818C19.29 8.14818 19.4023 8.11948 19.5022 8.06207C19.6045 8.00466 19.6844 7.92354 19.7418 7.8187C19.8017 7.71137 19.8317 7.58782 19.8317 7.44804C19.8317 7.30576 19.8017 7.18346 19.7418 7.08112C19.6844 6.97628 19.6045 6.89516 19.5022 6.83775C19.4023 6.78034 19.29 6.75164 19.1652 6.75164C19.0379 6.75164 18.9243 6.78034 18.8245 6.83775C18.7246 6.89516 18.6448 6.97628 18.5849 7.08112C18.525 7.18346 18.495 7.30576 18.495 7.44804C18.495 7.58782 18.525 7.71137 18.5849 7.8187C18.6448 7.92354 18.7246 8.00466 18.8245 8.06207C18.9243 8.11948 19.0379 8.14818 19.1652 8.14818ZM19.8429 8.44022V7.90482L19.8653 7.44429L19.8279 6.98377V5.66211H20.1873V8.44022H19.8429Z" fill="black"/>
<path d="M13.5439 11.1481V10.498L16.2512 7.22295L16.4405 7.57678H13.5933V6.75391H17.2633V7.40398L14.5561 10.679L14.3504 10.3252H17.3374V11.1481H13.5439Z" fill="black"/>
<path fill-rule="evenodd" clip-rule="evenodd" d="M11.7737 6.75337V11.1475H12.8023V6.75337H11.7737Z" fill="black"/>
<path d="M12.2921 6.02924C12.1001 6.02924 11.941 5.96889 11.8148 5.8482C11.6941 5.72751 11.6338 5.58214 11.6338 5.41208C11.6338 5.23653 11.6941 5.09116 11.8148 4.97595C11.941 4.85527 12.1001 4.79492 12.2921 4.79492C12.4841 4.79492 12.6404 4.85252 12.7611 4.96773C12.8873 5.07744 12.9504 5.21733 12.9504 5.38739C12.9504 5.56842 12.89 5.72203 12.7694 5.8482C12.6487 5.96889 12.4896 6.02924 12.2921 6.02924Z" fill="#FFD700"/>
<path d="M8.60645 11.1476V6.75347H9.58567V7.9631L9.47047 7.60927C9.60213 7.31303 9.80784 7.08811 10.0876 6.93451C10.3729 6.7809 10.7267 6.7041 11.1491 6.7041V7.68332C11.1052 7.67235 11.0641 7.66687 11.0257 7.66687C10.9873 7.66138 10.9489 7.65864 10.9105 7.65864C10.521 7.65864 10.2111 7.77384 9.98065 8.00425C9.75024 8.22917 9.63504 8.56654 9.63504 9.01638V11.1476H8.60645Z" fill="black"/>
<path d="M5.64763 11.2044C5.27459 11.2044 4.9427 11.1221 4.65195 10.9575C4.3612 10.7929 4.13079 10.5461 3.96073 10.2169C3.79616 9.88227 3.71387 9.45986 3.71387 8.94968C3.71387 8.43401 3.7989 8.0116 3.96896 7.68245C4.14451 7.3533 4.37765 7.10918 4.6684 6.95009C4.96464 6.78551 5.29105 6.70323 5.64763 6.70323C6.08101 6.70323 6.46227 6.79648 6.79142 6.983C7.12606 7.16952 7.38938 7.4301 7.58139 7.76474C7.77888 8.09937 7.87762 8.49435 7.87762 8.94968C7.87762 9.405 7.77888 9.79998 7.58139 10.1346C7.38938 10.4693 7.12606 10.7326 6.79142 10.9246C6.46227 11.1111 6.08101 11.2044 5.64763 11.2044ZM3.21191 11.1468V5.04102H4.24051V7.77296L4.15822 8.94145L4.19114 10.1099V11.1468H3.21191ZM5.53242 10.3239C5.77929 10.3239 5.99872 10.269 6.19073 10.1593C6.38822 10.0496 6.54456 9.8905 6.65976 9.68204C6.77497 9.47357 6.83257 9.22945 6.83257 8.94968C6.83257 8.66441 6.77497 8.42029 6.65976 8.21732C6.54456 8.00886 6.38822 7.84977 6.19073 7.74005C5.99872 7.63033 5.77929 7.57547 5.53242 7.57547C5.28556 7.57547 5.06339 7.63033 4.86589 7.74005C4.6684 7.84977 4.51206 8.00886 4.39686 8.21732C4.28165 8.42029 4.22405 8.66441 4.22405 8.94968C4.22405 9.22945 4.28165 9.47357 4.39686 9.68204C4.51206 9.8905 4.6684 10.0496 4.86589 10.1593C5.06339 10.269 5.28556 10.3239 5.53242 10.3239Z" fill="black"/>
</svg>
