<svg width="559" height="256" viewBox="0 0 559 256" fill="none" xmlns="http://www.w3.org/2000/svg">
<rect width="558.678" height="256" fill="white"/>
<path d="M493.603 179.281C490.967 179.281 488.451 178.921 486.055 178.203C483.698 177.484 481.841 176.605 480.483 175.567L482.88 171.014C484.237 171.932 485.915 172.711 487.912 173.35C489.909 173.989 491.945 174.309 494.022 174.309C496.698 174.309 498.615 173.929 499.773 173.171C500.971 172.412 501.57 171.353 501.57 169.996C501.57 168.997 501.211 168.218 500.492 167.659C499.773 167.1 498.814 166.681 497.616 166.401C496.458 166.122 495.16 165.882 493.722 165.682C492.285 165.443 490.847 165.163 489.409 164.844C487.972 164.484 486.654 164.005 485.456 163.406C484.257 162.767 483.299 161.908 482.58 160.83C481.861 159.712 481.502 158.234 481.502 156.397C481.502 154.48 482.041 152.803 483.119 151.365C484.198 149.927 485.715 148.829 487.672 148.07C489.669 147.271 492.025 146.872 494.741 146.872C496.818 146.872 498.914 147.132 501.031 147.651C503.188 148.13 504.945 148.829 506.303 149.748L503.847 154.3C502.409 153.342 500.911 152.683 499.354 152.323C497.796 151.964 496.239 151.784 494.681 151.784C492.165 151.784 490.288 152.204 489.05 153.042C487.812 153.841 487.193 154.879 487.193 156.157C487.193 157.236 487.552 158.074 488.271 158.673C489.03 159.233 489.988 159.672 491.147 159.991C492.345 160.311 493.663 160.59 495.1 160.83C496.538 161.03 497.976 161.309 499.413 161.669C500.851 161.988 502.149 162.447 503.307 163.047C504.505 163.646 505.464 164.484 506.183 165.563C506.942 166.641 507.321 168.079 507.321 169.876C507.321 171.793 506.762 173.45 505.644 174.848C504.525 176.246 502.948 177.344 500.911 178.143C498.874 178.901 496.438 179.281 493.603 179.281Z" fill="black"/>
<path d="M462.472 146.872C465.068 146.872 467.344 147.371 469.301 148.37C471.298 149.368 472.855 150.886 473.974 152.923C475.092 154.959 475.651 157.535 475.651 160.65V178.921H469.9V161.309C469.9 158.234 469.141 155.918 467.624 154.36C466.146 152.803 464.049 152.024 461.334 152.024C459.297 152.024 457.52 152.423 456.002 153.222C454.484 154.021 453.306 155.199 452.468 156.756C451.669 158.314 451.269 160.251 451.269 162.567V178.921H445.519V147.172H451.03V155.738L450.131 153.462C451.17 151.385 452.767 149.767 454.924 148.609C457.08 147.451 459.596 146.872 462.472 146.872Z" fill="black"/>
<path d="M424.773 179.281C421.379 179.281 418.383 178.582 415.787 177.184C413.231 175.786 411.235 173.869 409.797 171.433C408.399 168.997 407.7 166.202 407.7 163.047C407.7 159.892 408.379 157.096 409.737 154.66C411.135 152.224 413.032 150.327 415.428 148.969C417.864 147.571 420.6 146.872 423.635 146.872C426.71 146.872 429.426 147.551 431.782 148.909C434.138 150.267 435.976 152.184 437.293 154.66C438.651 157.096 439.33 159.951 439.33 163.226C439.33 163.466 439.31 163.745 439.27 164.065C439.27 164.384 439.25 164.684 439.21 164.963H412.193V160.83H436.215L433.879 162.268C433.919 160.231 433.499 158.414 432.621 156.816C431.742 155.219 430.524 153.981 428.967 153.102C427.449 152.184 425.672 151.724 423.635 151.724C421.638 151.724 419.861 152.184 418.303 153.102C416.746 153.981 415.528 155.239 414.649 156.876C413.771 158.474 413.331 160.311 413.331 162.388V163.346C413.331 165.463 413.811 167.36 414.769 169.037C415.767 170.674 417.145 171.952 418.903 172.871C420.66 173.79 422.677 174.249 424.953 174.249C426.83 174.249 428.527 173.929 430.045 173.29C431.602 172.651 432.96 171.693 434.118 170.415L437.293 174.129C435.856 175.806 434.059 177.084 431.902 177.963C429.785 178.842 427.409 179.281 424.773 179.281Z" fill="black"/>
<path d="M389.89 179.281C386.496 179.281 383.501 178.582 380.905 177.184C378.349 175.786 376.352 173.869 374.914 171.433C373.516 168.997 372.817 166.202 372.817 163.047C372.817 159.892 373.496 157.096 374.854 154.66C376.252 152.224 378.149 150.327 380.545 148.969C382.981 147.571 385.717 146.872 388.752 146.872C391.827 146.872 394.543 147.551 396.899 148.909C399.256 150.267 401.093 152.184 402.411 154.66C403.768 157.096 404.447 159.951 404.447 163.226C404.447 163.466 404.427 163.745 404.388 164.065C404.388 164.384 404.368 164.684 404.328 164.963H377.31V160.83H401.332L398.996 162.268C399.036 160.231 398.617 158.414 397.738 156.816C396.859 155.219 395.641 153.981 394.084 153.102C392.566 152.184 390.789 151.724 388.752 151.724C386.755 151.724 384.978 152.184 383.421 153.102C381.863 153.981 380.645 155.239 379.766 156.876C378.888 158.474 378.448 160.311 378.448 162.388V163.346C378.448 165.463 378.928 167.36 379.886 169.037C380.885 170.674 382.262 171.952 384.02 172.871C385.777 173.79 387.794 174.249 390.07 174.249C391.947 174.249 393.644 173.929 395.162 173.29C396.72 172.651 398.077 171.693 399.236 170.415L402.411 174.129C400.973 175.806 399.176 177.084 397.019 177.963C394.902 178.842 392.526 179.281 389.89 179.281Z" fill="black"/>
<path d="M353.681 178.921V147.172H359.192V155.798L358.653 153.641C359.531 151.445 361.009 149.767 363.086 148.609C365.163 147.451 367.718 146.872 370.754 146.872V152.443C370.514 152.403 370.274 152.383 370.035 152.383C369.835 152.383 369.635 152.383 369.436 152.383C366.361 152.383 363.924 153.302 362.127 155.139C360.33 156.976 359.432 159.632 359.432 163.106V178.921H353.681Z" fill="black"/>
<path d="M335.093 179.281C331.858 179.281 328.963 178.582 326.407 177.184C323.891 175.786 321.914 173.869 320.476 171.433C319.038 168.997 318.319 166.202 318.319 163.047C318.319 159.892 319.038 157.096 320.476 154.66C321.914 152.224 323.891 150.327 326.407 148.969C328.963 147.571 331.858 146.872 335.093 146.872C337.968 146.872 340.524 147.451 342.761 148.609C345.037 149.728 346.794 151.405 348.032 153.641L343.659 156.457C342.621 154.899 341.343 153.761 339.825 153.042C338.348 152.284 336.75 151.904 335.033 151.904C332.956 151.904 331.099 152.363 329.462 153.282C327.824 154.2 326.526 155.498 325.568 157.176C324.609 158.813 324.13 160.77 324.13 163.047C324.13 165.323 324.609 167.3 325.568 168.977C326.526 170.655 327.824 171.952 329.462 172.871C331.099 173.79 332.956 174.249 335.033 174.249C336.75 174.249 338.348 173.889 339.825 173.171C341.343 172.412 342.621 171.254 343.659 169.696L348.032 172.452C346.794 174.648 345.037 176.346 342.761 177.544C340.524 178.702 337.968 179.281 335.093 179.281Z" fill="black"/>
<path d="M302.146 179.281C299.51 179.281 296.994 178.921 294.598 178.203C292.241 177.484 290.384 176.605 289.026 175.567L291.423 171.014C292.78 171.932 294.458 172.711 296.455 173.35C298.451 173.989 300.488 174.309 302.565 174.309C305.241 174.309 307.158 173.929 308.316 173.171C309.514 172.412 310.113 171.353 310.113 169.996C310.113 168.997 309.754 168.218 309.035 167.659C308.316 167.1 307.357 166.681 306.159 166.401C305.001 166.122 303.703 165.882 302.265 165.682C300.828 165.443 299.39 165.163 297.952 164.844C296.515 164.484 295.197 164.005 293.999 163.406C292.8 162.767 291.842 161.908 291.123 160.83C290.404 159.712 290.045 158.234 290.045 156.397C290.045 154.48 290.584 152.803 291.662 151.365C292.741 149.927 294.258 148.829 296.215 148.07C298.212 147.271 300.568 146.872 303.284 146.872C305.361 146.872 307.457 147.132 309.574 147.651C311.731 148.13 313.488 148.829 314.846 149.748L312.389 154.3C310.952 153.342 309.454 152.683 307.897 152.323C306.339 151.964 304.781 151.784 303.224 151.784C300.708 151.784 298.831 152.204 297.593 153.042C296.355 153.841 295.736 154.879 295.736 156.157C295.736 157.236 296.095 158.074 296.814 158.673C297.573 159.233 298.531 159.672 299.69 159.991C300.888 160.311 302.206 160.59 303.643 160.83C305.081 161.03 306.519 161.309 307.956 161.669C309.394 161.988 310.692 162.447 311.85 163.047C313.048 163.646 314.007 164.484 314.726 165.563C315.485 166.641 315.864 168.079 315.864 169.876C315.864 171.793 315.305 173.45 314.187 174.848C313.068 176.246 311.491 177.344 309.454 178.143C307.417 178.901 304.981 179.281 302.146 179.281Z" fill="black"/>
<path d="M478.8 127.546V100.589H485.209V127.546H478.8ZM468.196 117.063V111.072H495.813V117.063H468.196Z" fill="#FFD700"/>
<path d="M436.355 135.394C433.719 135.394 431.203 135.035 428.807 134.316C426.45 133.597 424.593 132.718 423.235 131.68L425.632 127.127C426.989 128.046 428.667 128.825 430.664 129.464C432.66 130.103 434.697 130.422 436.774 130.422C439.45 130.422 441.367 130.043 442.525 129.284C443.723 128.525 444.322 127.467 444.322 126.109C444.322 125.11 443.963 124.332 443.244 123.773C442.525 123.213 441.566 122.794 440.368 122.515C439.21 122.235 437.912 121.995 436.474 121.796C435.037 121.556 433.599 121.276 432.161 120.957C430.724 120.598 429.406 120.118 428.207 119.519C427.009 118.88 426.051 118.022 425.332 116.943C424.613 115.825 424.254 114.347 424.254 112.51C424.254 110.593 424.793 108.916 425.871 107.478C426.949 106.041 428.467 104.942 430.424 104.183C432.421 103.385 434.777 102.985 437.493 102.985C439.57 102.985 441.666 103.245 443.783 103.764C445.939 104.243 447.697 104.942 449.055 105.861L446.598 110.414C445.161 109.455 443.663 108.796 442.106 108.437C440.548 108.077 438.99 107.898 437.433 107.898C434.917 107.898 433.04 108.317 431.802 109.156C430.564 109.954 429.945 110.993 429.945 112.271C429.945 113.349 430.304 114.188 431.023 114.787C431.782 115.346 432.74 115.785 433.899 116.105C435.097 116.424 436.415 116.704 437.852 116.943C439.29 117.143 440.728 117.423 442.165 117.782C443.603 118.101 444.901 118.561 446.059 119.16C447.257 119.759 448.216 120.598 448.935 121.676C449.694 122.754 450.073 124.192 450.073 125.989C450.073 127.906 449.514 129.563 448.396 130.961C447.277 132.359 445.7 133.457 443.663 134.256C441.626 135.015 439.19 135.394 436.355 135.394Z" fill="black"/>
<path d="M404.534 135.035V103.285H410.045V111.911L409.506 109.755C410.385 107.558 411.863 105.881 413.939 104.723C416.016 103.564 418.572 102.985 421.607 102.985V108.557C421.368 108.517 421.128 108.497 420.888 108.497C420.689 108.497 420.489 108.497 420.289 108.497C417.214 108.497 414.778 109.415 412.981 111.252C411.184 113.089 410.285 115.745 410.285 119.22V135.035H404.534Z" fill="black"/>
<path d="M381.904 135.394C378.709 135.394 375.874 134.695 373.397 133.297C370.921 131.9 368.964 129.983 367.527 127.547C366.089 125.07 365.37 122.275 365.37 119.16C365.37 116.005 366.089 113.209 367.527 110.773C368.964 108.337 370.921 106.44 373.397 105.082C375.874 103.684 378.709 102.985 381.904 102.985C385.059 102.985 387.875 103.684 390.351 105.082C392.867 106.44 394.824 108.337 396.221 110.773C397.659 113.169 398.378 115.965 398.378 119.16C398.378 122.315 397.659 125.11 396.221 127.547C394.824 129.983 392.867 131.9 390.351 133.297C387.875 134.695 385.059 135.394 381.904 135.394ZM381.904 130.362C383.941 130.362 385.758 129.903 387.355 128.984C388.993 128.066 390.271 126.768 391.189 125.09C392.108 123.373 392.567 121.396 392.567 119.16C392.567 116.883 392.108 114.926 391.189 113.289C390.271 111.612 388.993 110.314 387.355 109.395C385.758 108.477 383.941 108.017 381.904 108.017C379.867 108.017 378.05 108.477 376.453 109.395C374.855 110.314 373.577 111.612 372.619 113.289C371.66 114.926 371.181 116.883 371.181 119.16C371.181 121.396 371.66 123.373 372.619 125.09C373.577 126.768 374.855 128.066 376.453 128.984C378.05 129.903 379.867 130.362 381.904 130.362Z" fill="black"/>
<path d="M345.675 135.394C342.481 135.394 339.645 134.695 337.169 133.297C334.693 131.9 332.736 129.983 331.298 127.547C329.86 125.07 329.142 122.275 329.142 119.16C329.142 116.005 329.86 113.209 331.298 110.773C332.736 108.337 334.693 106.44 337.169 105.082C339.645 103.684 342.481 102.985 345.675 102.985C348.83 102.985 351.646 103.684 354.122 105.082C356.638 106.44 358.595 108.337 359.993 110.773C361.431 113.169 362.149 115.965 362.149 119.16C362.149 122.315 361.431 125.11 359.993 127.547C358.595 129.983 356.638 131.9 354.122 133.297C351.646 134.695 348.83 135.394 345.675 135.394ZM345.675 130.362C347.712 130.362 349.529 129.903 351.127 128.984C352.764 128.066 354.042 126.768 354.961 125.09C355.879 123.373 356.339 121.396 356.339 119.16C356.339 116.883 355.879 114.926 354.961 113.289C354.042 111.612 352.764 110.314 351.127 109.395C349.529 108.477 347.712 108.017 345.675 108.017C343.639 108.017 341.822 108.477 340.224 109.395C338.627 110.314 337.349 111.612 336.39 113.289C335.432 114.926 334.952 116.883 334.952 119.16C334.952 121.396 335.432 123.373 336.39 125.09C337.349 126.768 338.627 128.066 340.224 128.984C341.822 129.903 343.639 130.362 345.675 130.362Z" fill="black"/>
<path d="M306.159 135.394C303.084 135.394 300.328 134.715 297.892 133.357C295.496 132 293.599 130.103 292.201 127.666C290.803 125.23 290.104 122.395 290.104 119.16C290.104 115.925 290.803 113.109 292.201 110.713C293.599 108.277 295.496 106.38 297.892 105.022C300.328 103.664 303.084 102.985 306.159 102.985C308.835 102.985 311.251 103.584 313.408 104.783C315.564 105.981 317.282 107.778 318.56 110.174C319.877 112.57 320.536 115.566 320.536 119.16C320.536 122.754 319.897 125.749 318.619 128.146C317.381 130.542 315.684 132.359 313.527 133.597C311.371 134.795 308.915 135.394 306.159 135.394ZM306.638 130.362C308.635 130.362 310.432 129.903 312.03 128.984C313.667 128.066 314.945 126.768 315.864 125.09C316.822 123.373 317.302 121.396 317.302 119.16C317.302 116.883 316.822 114.927 315.864 113.289C314.945 111.612 313.667 110.314 312.03 109.395C310.432 108.477 308.635 108.017 306.638 108.017C304.602 108.017 302.784 108.477 301.187 109.395C299.59 110.314 298.312 111.612 297.353 113.289C296.395 114.927 295.915 116.883 295.915 119.16C295.915 121.396 296.395 123.373 297.353 125.09C298.312 126.768 299.59 128.066 301.187 128.984C302.784 129.903 304.602 130.362 306.638 130.362ZM317.481 135.035V126.468L317.841 119.1L317.242 111.732V90.585H322.993V135.035H317.481Z" fill="black"/>
<path d="M216.673 178.358V167.957L259.989 115.556L263.017 121.218H217.463V108.052H276.183V118.453L232.867 170.854L229.576 165.192H277.368V178.358H216.673Z" fill="black"/>
<path fill-rule="evenodd" clip-rule="evenodd" d="M188.358 108.051V178.357H204.816V108.051H188.358Z" fill="black"/>
<path d="M196.653 96.4648C193.581 96.4648 191.035 95.4993 189.017 93.5683C187.086 91.6373 186.12 89.3113 186.12 86.5903C186.12 83.7816 187.086 81.4556 189.017 79.6123C191.035 77.6813 193.581 76.7158 196.653 76.7158C199.725 76.7158 202.227 77.6374 204.158 79.4807C206.176 81.2362 207.186 83.4744 207.186 86.1953C207.186 89.0919 206.22 91.5495 204.289 93.5683C202.358 95.4993 199.813 96.4648 196.653 96.4648Z" fill="#FFD700"/>
<path d="M137.663 178.358V108.052H153.331V127.406L151.487 121.744C153.594 117.005 156.885 113.406 161.362 110.948C165.926 108.491 171.588 107.262 178.346 107.262V122.929C177.644 122.754 176.986 122.666 176.371 122.666C175.757 122.578 175.142 122.534 174.528 122.534C168.296 122.534 163.337 124.378 159.65 128.064C155.964 131.663 154.121 137.061 154.121 144.258V178.358H137.663Z" fill="black"/>
<path d="M90.3259 179.279C84.3573 179.279 79.047 177.963 74.395 175.33C69.743 172.696 66.0565 168.747 63.3356 163.48C60.7024 158.126 59.3858 151.368 59.3858 143.205C59.3858 134.954 60.7463 128.195 63.4672 122.929C66.276 117.663 70.0063 113.757 74.6583 111.211C79.3981 108.578 84.6206 107.261 90.3259 107.261C97.26 107.261 103.36 108.754 108.627 111.738C113.981 114.722 118.194 118.891 121.266 124.246C124.426 129.6 126.006 135.919 126.006 143.205C126.006 150.49 124.426 156.809 121.266 162.164C118.194 167.518 113.981 171.731 108.627 174.803C103.36 177.787 97.26 179.279 90.3259 179.279ZM51.3545 178.358V80.666H67.812V124.377L66.4954 143.073L67.0221 161.769V178.358H51.3545ZM88.4827 165.192C92.4325 165.192 95.9434 164.314 99.0155 162.559C102.175 160.803 104.677 158.258 106.52 154.922C108.363 151.587 109.285 147.681 109.285 143.205C109.285 138.64 108.363 134.734 106.52 131.487C104.677 128.151 102.175 125.606 99.0155 123.851C95.9434 122.095 92.4325 121.217 88.4827 121.217C84.5329 121.217 80.978 122.095 77.8182 123.851C74.6583 125.606 72.1568 128.151 70.3136 131.487C68.4703 134.734 67.5487 138.64 67.5487 143.205C67.5487 147.681 68.4703 151.587 70.3136 154.922C72.1568 158.258 74.6583 160.803 77.8182 162.559C80.978 164.314 84.5329 165.192 88.4827 165.192Z" fill="black"/>
</svg>
