<svg width="140" height="64" viewBox="0 0 140 64" fill="none" xmlns="http://www.w3.org/2000/svg">
<rect width="139.669" height="64" fill="white"/>
<path d="M123.404 44.82C122.745 44.82 122.116 44.7301 121.517 44.5504C120.928 44.3707 120.463 44.151 120.124 43.8914L120.723 42.7532C121.063 42.9829 121.482 43.1776 121.981 43.3373C122.48 43.4971 122.989 43.5769 123.509 43.5769C124.178 43.5769 124.657 43.4821 124.946 43.2924C125.246 43.1027 125.396 42.8381 125.396 42.4986C125.396 42.249 125.306 42.0543 125.126 41.9146C124.946 41.7748 124.707 41.6699 124.407 41.6001C124.118 41.5302 123.793 41.4703 123.434 41.4203C123.074 41.3604 122.715 41.2905 122.355 41.2107C121.996 41.1208 121.667 41.001 121.367 40.8512C121.068 40.6915 120.828 40.4768 120.648 40.2073C120.468 39.9277 120.379 39.5583 120.379 39.099C120.379 38.6198 120.513 38.2004 120.783 37.841C121.053 37.4816 121.432 37.207 121.921 37.0173C122.42 36.8176 123.009 36.7178 123.688 36.7178C124.208 36.7178 124.732 36.7827 125.261 36.9125C125.8 37.0323 126.239 37.207 126.579 37.4366L125.965 38.5748C125.605 38.3352 125.231 38.1705 124.842 38.0806C124.452 37.9908 124.063 37.9458 123.673 37.9458C123.044 37.9458 122.575 38.0507 122.266 38.2603C121.956 38.46 121.801 38.7196 121.801 39.0391C121.801 39.3087 121.891 39.5183 122.071 39.6681C122.261 39.8079 122.5 39.9177 122.79 39.9976C123.089 40.0775 123.419 40.1474 123.778 40.2073C124.138 40.2572 124.497 40.3271 124.857 40.4169C125.216 40.4968 125.54 40.6116 125.83 40.7614C126.13 40.9111 126.369 41.1208 126.549 41.3904C126.739 41.66 126.833 42.0194 126.833 42.4687C126.833 42.9479 126.694 43.3623 126.414 43.7117C126.135 44.0612 125.74 44.3357 125.231 44.5354C124.722 44.7251 124.113 44.82 123.404 44.82Z" fill="black"/>
<path d="M115.62 36.7178C116.269 36.7178 116.838 36.8426 117.327 37.0922C117.827 37.3418 118.216 37.7212 118.496 38.2304C118.775 38.7396 118.915 39.3836 118.915 40.1623V44.7301H117.477V40.3271C117.477 39.5583 117.288 38.9792 116.908 38.5898C116.539 38.2004 116.015 38.0057 115.336 38.0057C114.826 38.0057 114.382 38.1056 114.003 38.3053C113.623 38.5049 113.329 38.7995 113.119 39.1889C112.919 39.5783 112.82 40.0625 112.82 40.6416V44.7301H111.382V36.7927H112.76V38.9343L112.535 38.3652C112.795 37.846 113.194 37.4416 113.733 37.1521C114.272 36.8625 114.901 36.7178 115.62 36.7178Z" fill="black"/>
<path d="M106.195 44.82C105.346 44.82 104.598 44.6453 103.949 44.2958C103.31 43.9464 102.81 43.4671 102.451 42.8581C102.101 42.249 101.927 41.5501 101.927 40.7614C101.927 39.9726 102.096 39.2737 102.436 38.6647C102.785 38.0557 103.26 37.5814 103.859 37.2419C104.468 36.8925 105.152 36.7178 105.91 36.7178C106.679 36.7178 107.358 36.8875 107.947 37.227C108.536 37.5664 108.996 38.0457 109.325 38.6647C109.665 39.2737 109.834 39.9876 109.834 40.8063C109.834 40.8662 109.829 40.9361 109.819 41.016C109.819 41.0959 109.814 41.1707 109.804 41.2406H103.05V40.2073H109.055L108.471 40.5667C108.481 40.0575 108.377 39.6032 108.157 39.2038C107.937 38.8045 107.633 38.495 107.243 38.2753C106.864 38.0457 106.42 37.9309 105.91 37.9309C105.411 37.9309 104.967 38.0457 104.578 38.2753C104.188 38.495 103.884 38.8095 103.664 39.2188C103.444 39.6182 103.335 40.0775 103.335 40.5966V40.8363C103.335 41.3654 103.454 41.8397 103.694 42.259C103.944 42.6684 104.288 42.9879 104.727 43.2175C105.167 43.4471 105.671 43.562 106.24 43.562C106.709 43.562 107.134 43.4821 107.513 43.3223C107.902 43.1626 108.242 42.923 108.531 42.6035L109.325 43.532C108.966 43.9513 108.516 44.2708 107.977 44.4905C107.448 44.7101 106.854 44.82 106.195 44.82Z" fill="black"/>
<path d="M97.4743 44.82C96.6257 44.82 95.8768 44.6453 95.2279 44.2958C94.5889 43.9464 94.0897 43.4671 93.7302 42.8581C93.3808 42.249 93.2061 41.5501 93.2061 40.7614C93.2061 39.9726 93.3758 39.2737 93.7153 38.6647C94.0647 38.0557 94.5389 37.5814 95.138 37.2419C95.747 36.8925 96.431 36.7178 97.1898 36.7178C97.9585 36.7178 98.6375 36.8875 99.2265 37.227C99.8156 37.5664 100.275 38.0457 100.604 38.6647C100.944 39.2737 101.114 39.9876 101.114 40.8063C101.114 40.8662 101.109 40.9361 101.099 41.016C101.099 41.0959 101.094 41.1707 101.084 41.2406H94.3293V40.2073H100.335L99.7507 40.5667C99.7607 40.0575 99.6559 39.6032 99.4362 39.2038C99.2166 38.8045 98.912 38.495 98.5227 38.2753C98.1433 38.0457 97.699 37.9309 97.1898 37.9309C96.6906 37.9309 96.2463 38.0457 95.8569 38.2753C95.4675 38.495 95.163 38.8095 94.9433 39.2188C94.7237 39.6182 94.6138 40.0775 94.6138 40.5966V40.8363C94.6138 41.3654 94.7336 41.8397 94.9733 42.259C95.2229 42.6684 95.5673 42.9879 96.0066 43.2175C96.4459 43.4471 96.9501 43.562 97.5192 43.562C97.9885 43.562 98.4128 43.4821 98.7922 43.3223C99.1816 43.1626 99.5211 42.923 99.8106 42.6035L100.604 43.532C100.245 43.9513 99.7956 44.2708 99.2565 44.4905C98.7273 44.7101 98.1333 44.82 97.4743 44.82Z" fill="black"/>
<path d="M88.4229 44.7301V36.7927H89.8007V38.9492L89.6659 38.4101C89.8855 37.861 90.255 37.4416 90.7741 37.1521C91.2933 36.8625 91.9323 36.7178 92.6911 36.7178V38.1106C92.6312 38.1006 92.5713 38.0956 92.5114 38.0956C92.4615 38.0956 92.4116 38.0956 92.3616 38.0956C91.5928 38.0956 90.9838 38.3252 90.5345 38.7845C90.0852 39.2438 89.8606 39.9077 89.8606 40.7764V44.7301H88.4229Z" fill="black"/>
<path d="M83.7764 44.82C82.9677 44.82 82.2438 44.6453 81.6048 44.2958C80.9758 43.9464 80.4816 43.4671 80.1222 42.8581C79.7627 42.249 79.583 41.5501 79.583 40.7614C79.583 39.9726 79.7627 39.2737 80.1222 38.6647C80.4816 38.0557 80.9758 37.5814 81.6048 37.2419C82.2438 36.8925 82.9677 36.7178 83.7764 36.7178C84.4952 36.7178 85.1342 36.8625 85.6934 37.1521C86.2625 37.4316 86.7018 37.851 87.0113 38.4101L85.918 39.114C85.6584 38.7246 85.3389 38.4401 84.9595 38.2603C84.5901 38.0706 84.1907 37.9758 83.7614 37.9758C83.2422 37.9758 82.778 38.0906 82.3686 38.3202C81.9593 38.5499 81.6348 38.8744 81.3951 39.2937C81.1555 39.7031 81.0357 40.1923 81.0357 40.7614C81.0357 41.3305 81.1555 41.8247 81.3951 42.244C81.6348 42.6634 81.9593 42.9879 82.3686 43.2175C82.778 43.4471 83.2422 43.562 83.7614 43.562C84.1907 43.562 84.5901 43.4721 84.9595 43.2924C85.3389 43.1027 85.6584 42.8131 85.918 42.4238L87.0113 43.1127C86.7018 43.6618 86.2625 44.0861 85.6934 44.3857C85.1342 44.6752 84.4952 44.82 83.7764 44.82Z" fill="black"/>
<path d="M75.5386 44.82C74.8796 44.82 74.2506 44.7301 73.6516 44.5504C73.0625 44.3707 72.5983 44.151 72.2588 43.8914L72.8578 42.7532C73.1973 42.9829 73.6166 43.1776 74.1159 43.3373C74.6151 43.4971 75.1243 43.5769 75.6434 43.5769C76.3124 43.5769 76.7916 43.4821 77.0812 43.2924C77.3807 43.1027 77.5305 42.8381 77.5305 42.4986C77.5305 42.249 77.4406 42.0543 77.2609 41.9146C77.0812 41.7748 76.8415 41.6699 76.542 41.6001C76.2525 41.5302 75.928 41.4703 75.5686 41.4203C75.2091 41.3604 74.8497 41.2905 74.4903 41.2107C74.1308 41.1208 73.8014 41.001 73.5018 40.8512C73.2023 40.6915 72.9627 40.4768 72.783 40.2073C72.6032 39.9277 72.5134 39.5583 72.5134 39.099C72.5134 38.6198 72.6482 38.2004 72.9177 37.841C73.1873 37.4816 73.5667 37.207 74.056 37.0173C74.5552 36.8176 75.1442 36.7178 75.8232 36.7178C76.3423 36.7178 76.8665 36.7827 77.3957 36.9125C77.9348 37.0323 78.3741 37.207 78.7136 37.4366L78.0996 38.5748C77.7401 38.3352 77.3657 38.1705 76.9763 38.0806C76.587 37.9908 76.1976 37.9458 75.8082 37.9458C75.1792 37.9458 74.7099 38.0507 74.4004 38.2603C74.0909 38.46 73.9361 38.7196 73.9361 39.0391C73.9361 39.3087 74.026 39.5183 74.2057 39.6681C74.3954 39.8079 74.635 39.9177 74.9246 39.9976C75.2241 40.0775 75.5536 40.1474 75.913 40.2073C76.2724 40.2572 76.6319 40.3271 76.9913 40.4169C77.3507 40.4968 77.6752 40.6116 77.9648 40.7614C78.2643 40.9111 78.5039 41.1208 78.6836 41.3904C78.8733 41.66 78.9682 42.0194 78.9682 42.4687C78.9682 42.9479 78.8284 43.3623 78.5489 43.7117C78.2693 44.0612 77.8749 44.3357 77.3657 44.5354C76.8565 44.7251 76.2475 44.82 75.5386 44.82Z" fill="black"/>
<path d="M119.703 31.8858V25.1465H121.305V31.8858H119.703ZM117.052 29.265V27.7673H123.956V29.265H117.052Z" fill="#FFD700"/>
<path d="M109.091 33.8473C108.432 33.8473 107.803 33.7575 107.204 33.5777C106.615 33.398 106.151 33.1784 105.812 32.9188L106.411 31.7806C106.75 32.0102 107.169 32.2049 107.669 32.3647C108.168 32.5244 108.677 32.6043 109.196 32.6043C109.865 32.6043 110.344 32.5094 110.634 32.3197C110.933 32.13 111.083 31.8654 111.083 31.526C111.083 31.2764 110.993 31.0817 110.814 30.9419C110.634 30.8021 110.394 30.6973 110.095 30.6274C109.805 30.5575 109.481 30.4976 109.121 30.4477C108.762 30.3878 108.402 30.3179 108.043 30.238C107.684 30.1482 107.354 30.0284 107.055 29.8786C106.755 29.7188 106.515 29.5042 106.336 29.2346C106.156 28.955 106.066 28.5856 106.066 28.1264C106.066 27.6471 106.201 27.2278 106.47 26.8683C106.74 26.5089 107.119 26.2343 107.609 26.0446C108.108 25.845 108.697 25.7451 109.376 25.7451C109.895 25.7451 110.419 25.81 110.948 25.9398C111.488 26.0596 111.927 26.2343 112.266 26.464L111.652 27.6022C111.293 27.3626 110.918 27.1978 110.529 27.108C110.14 27.0181 109.75 26.9732 109.361 26.9732C108.732 26.9732 108.263 27.078 107.953 27.2877C107.644 27.4874 107.489 27.747 107.489 28.0665C107.489 28.336 107.579 28.5457 107.758 28.6955C107.948 28.8352 108.188 28.9451 108.477 29.0249C108.777 29.1048 109.106 29.1747 109.466 29.2346C109.825 29.2845 110.185 29.3544 110.544 29.4443C110.903 29.5241 111.228 29.639 111.518 29.7887C111.817 29.9385 112.057 30.1482 112.236 30.4177C112.426 30.6873 112.521 31.0467 112.521 31.496C112.521 31.9753 112.381 32.3896 112.102 32.7391C111.822 33.0885 111.428 33.3631 110.918 33.5628C110.409 33.7525 109.8 33.8473 109.091 33.8473Z" fill="black"/>
<path d="M101.136 33.7575V25.82H102.514V27.9766L102.379 27.4374C102.598 26.8883 102.968 26.469 103.487 26.1794C104.006 25.8899 104.645 25.7451 105.404 25.7451V27.1379C105.344 27.1279 105.284 27.1229 105.224 27.1229C105.174 27.1229 105.124 27.1229 105.075 27.1229C104.306 27.1229 103.697 27.3526 103.247 27.8119C102.798 28.2711 102.573 28.9351 102.573 29.8037V33.7575H101.136Z" fill="black"/>
<path d="M95.4782 33.8473C94.6795 33.8473 93.9706 33.6726 93.3516 33.3231C92.7325 32.9737 92.2433 32.4945 91.8839 31.8854C91.5244 31.2664 91.3447 30.5675 91.3447 29.7887C91.3447 29 91.5244 28.3011 91.8839 27.692C92.2433 27.083 92.7325 26.6088 93.3516 26.2693C93.9706 25.9198 94.6795 25.7451 95.4782 25.7451C96.267 25.7451 96.9708 25.9198 97.5899 26.2693C98.2189 26.6088 98.7081 27.083 99.0575 27.692C99.417 28.2911 99.5967 28.99 99.5967 29.7887C99.5967 30.5775 99.417 31.2764 99.0575 31.8854C98.7081 32.4945 98.2189 32.9737 97.5899 33.3231C96.9708 33.6726 96.267 33.8473 95.4782 33.8473ZM95.4782 32.5893C95.9874 32.5893 96.4417 32.4745 96.841 32.2449C97.2504 32.0152 97.5699 31.6907 97.7995 31.2714C98.0292 30.8421 98.144 30.3478 98.144 29.7887C98.144 29.2196 98.0292 28.7304 97.7995 28.321C97.5699 27.9017 97.2504 27.5772 96.841 27.3476C96.4417 27.1179 95.9874 27.0031 95.4782 27.0031C94.969 27.0031 94.5147 27.1179 94.1154 27.3476C93.716 27.5772 93.3965 27.9017 93.1569 28.321C92.9172 28.7304 92.7974 29.2196 92.7974 29.7887C92.7974 30.3478 92.9172 30.8421 93.1569 31.2714C93.3965 31.6907 93.716 32.0152 94.1154 32.2449C94.5147 32.4745 94.969 32.5893 95.4782 32.5893Z" fill="black"/>
<path d="M86.4216 33.8473C85.6228 33.8473 84.9139 33.6726 84.2949 33.3231C83.6759 32.9737 83.1867 32.4945 82.8272 31.8854C82.4678 31.2664 82.2881 30.5675 82.2881 29.7887C82.2881 29 82.4678 28.3011 82.8272 27.692C83.1867 27.083 83.6759 26.6088 84.2949 26.2693C84.9139 25.9198 85.6228 25.7451 86.4216 25.7451C87.2103 25.7451 87.9142 25.9198 88.5332 26.2693C89.1622 26.6088 89.6515 27.083 90.0009 27.692C90.3603 28.2911 90.5401 28.99 90.5401 29.7887C90.5401 30.5775 90.3603 31.2764 90.0009 31.8854C89.6515 32.4945 89.1622 32.9737 88.5332 33.3231C87.9142 33.6726 87.2103 33.8473 86.4216 33.8473ZM86.4216 32.5893C86.9308 32.5893 87.385 32.4745 87.7844 32.2449C88.1938 32.0152 88.5133 31.6907 88.7429 31.2714C88.9725 30.8421 89.0873 30.3478 89.0873 29.7887C89.0873 29.2196 88.9725 28.7304 88.7429 28.321C88.5133 27.9017 88.1938 27.5772 87.7844 27.3476C87.385 27.1179 86.9308 27.0031 86.4216 27.0031C85.9124 27.0031 85.4581 27.1179 85.0587 27.3476C84.6593 27.5772 84.3398 27.9017 84.1002 28.321C83.8606 28.7304 83.7408 29.2196 83.7408 29.7887C83.7408 30.3478 83.8606 30.8421 84.1002 31.2714C84.3398 31.6907 84.6593 32.0152 85.0587 32.2449C85.4581 32.4745 85.9124 32.5893 86.4216 32.5893Z" fill="black"/>
<path d="M76.542 33.8468C75.7732 33.8468 75.0843 33.6771 74.4752 33.3376C73.8762 32.9982 73.4019 32.5239 73.0525 31.9149C72.703 31.3059 72.5283 30.597 72.5283 29.7882C72.5283 28.9795 72.703 28.2756 73.0525 27.6766C73.4019 27.0675 73.8762 26.5933 74.4752 26.2538C75.0843 25.9144 75.7732 25.7446 76.542 25.7446C77.2109 25.7446 77.815 25.8944 78.3541 26.1939C78.8933 26.4935 79.3226 26.9427 79.6421 27.5418C79.9716 28.1408 80.1363 28.8897 80.1363 29.7882C80.1363 30.6868 79.9766 31.4356 79.6571 32.0347C79.3475 32.6338 78.9232 33.088 78.3841 33.3975C77.8449 33.6971 77.2309 33.8468 76.542 33.8468ZM76.6618 32.5888C77.161 32.5888 77.6103 32.474 78.0097 32.2444C78.419 32.0147 78.7385 31.6902 78.9681 31.2709C79.2078 30.8416 79.3276 30.3474 79.3276 29.7882C79.3276 29.2191 79.2078 28.7299 78.9681 28.3206C78.7385 27.9012 78.419 27.5767 78.0097 27.3471C77.6103 27.1175 77.161 27.0026 76.6618 27.0026C76.1526 27.0026 75.6983 27.1175 75.2989 27.3471C74.8996 27.5767 74.5801 27.9012 74.3405 28.3206C74.1008 28.7299 73.981 29.2191 73.981 29.7882C73.981 30.3474 74.1008 30.8416 74.3405 31.2709C74.5801 31.6902 74.8996 32.0147 75.2989 32.2444C75.6983 32.474 76.1526 32.5888 76.6618 32.5888ZM79.3725 33.757V31.6154L79.4624 29.7733L79.3126 27.9312V22.6445H80.7503V33.757H79.3725Z" fill="black"/>
<path d="M54.1709 44.5893V41.989L64.9999 28.8889L65.757 30.3042H54.3684V27.0127H69.0485V29.613L58.2195 42.7132L57.3966 41.2978H69.3447V44.5893H54.1709Z" fill="black"/>
<path fill-rule="evenodd" clip-rule="evenodd" d="M47.0918 27.0135V44.5901H51.2062V27.0135H47.0918Z" fill="black"/>
<path d="M49.1654 24.1169C48.3974 24.1169 47.7611 23.8756 47.2564 23.3928C46.7736 22.9101 46.5322 22.3286 46.5322 21.6483C46.5322 20.9461 46.7736 20.3646 47.2564 19.9038C47.7611 19.4211 48.3974 19.1797 49.1654 19.1797C49.9334 19.1797 50.5588 19.4101 51.0416 19.8709C51.5463 20.3098 51.7986 20.8693 51.7986 21.5496C51.7986 22.2737 51.5573 22.8881 51.0745 23.3928C50.5917 23.8756 49.9554 24.1169 49.1654 24.1169Z" fill="#FFD700"/>
<path d="M34.4189 44.5905V27.0139H38.3358V31.8524L37.875 30.4371C38.4017 29.2521 39.2245 28.3524 40.3437 27.738C41.4847 27.1236 42.9001 26.8164 44.5897 26.8164V30.7333C44.4141 30.6894 44.2496 30.6675 44.096 30.6675C43.9424 30.6455 43.7888 30.6346 43.6352 30.6346C42.0772 30.6346 40.8374 31.0954 39.9158 32.017C38.9941 32.9167 38.5333 34.2662 38.5333 36.0655V44.5905H34.4189Z" fill="black"/>
<path d="M22.5837 44.8204C21.0915 44.8204 19.764 44.4912 18.601 43.8329C17.438 43.1746 16.5163 42.1872 15.8361 40.8706C15.1778 39.532 14.8486 37.8424 14.8486 35.8016C14.8486 33.739 15.1888 32.0493 15.869 30.7327C16.5712 29.4161 17.5038 28.4396 18.6668 27.8033C19.8517 27.145 21.1574 26.8158 22.5837 26.8158C24.3172 26.8158 25.8423 27.1889 27.1589 27.9349C28.4974 28.681 29.5507 29.7233 30.3187 31.0619C31.1087 32.4004 31.5036 33.9803 31.5036 35.8016C31.5036 37.6229 31.1087 39.2029 30.3187 40.5414C29.5507 41.8799 28.4974 42.9332 27.1589 43.7012C25.8423 44.4473 24.3172 44.8204 22.5837 44.8204ZM12.8408 44.59V20.167H16.9552V31.0948L16.6261 35.7687L16.7577 40.4427V44.59H12.8408ZM22.1229 41.2984C23.1103 41.2984 23.988 41.079 24.7561 40.6401C25.546 40.2013 26.1714 39.5649 26.6322 38.7311C27.093 37.8972 27.3234 36.9207 27.3234 35.8016C27.3234 34.6606 27.093 33.6841 26.6322 32.8722C26.1714 32.0384 25.546 31.402 24.7561 30.9631C23.988 30.5243 23.1103 30.3048 22.1229 30.3048C21.1354 30.3048 20.2467 30.5243 19.4567 30.9631C18.6668 31.402 18.0414 32.0384 17.5806 32.8722C17.1198 33.6841 16.8894 34.6606 16.8894 35.8016C16.8894 36.9207 17.1198 37.8972 17.5806 38.7311C18.0414 39.5649 18.6668 40.2013 19.4567 40.6401C20.2467 41.079 21.1354 41.2984 22.1229 41.2984Z" fill="black"/>
</svg>
