<svg width="8730" height="4000" viewBox="0 0 8730 4000" fill="none" xmlns="http://www.w3.org/2000/svg">
<rect width="8729.34" height="4000" fill="white"/>
<path d="M7712.56 2801.27C7671.38 2801.27 7632.07 2795.66 7594.63 2784.42C7557.81 2773.19 7528.79 2759.46 7507.58 2743.24L7545.02 2672.1C7566.23 2686.45 7592.44 2698.62 7623.64 2708.61C7654.84 2718.59 7686.67 2723.58 7719.12 2723.58C7760.93 2723.58 7790.88 2717.66 7808.98 2705.8C7827.7 2693.94 7837.06 2677.41 7837.06 2656.19C7837.06 2640.59 7831.44 2628.42 7820.21 2619.69C7808.98 2610.95 7794 2604.4 7775.28 2600.03C7757.18 2595.66 7736.9 2591.92 7714.44 2588.8C7691.97 2585.05 7669.51 2580.68 7647.04 2575.69C7624.58 2570.08 7603.99 2562.59 7585.27 2553.23C7566.55 2543.24 7551.57 2529.83 7540.34 2512.98C7529.1 2495.51 7523.49 2472.42 7523.49 2443.71C7523.49 2413.76 7531.91 2387.55 7548.76 2365.09C7565.61 2342.62 7589.32 2325.46 7619.9 2313.61C7651.1 2301.13 7687.92 2294.89 7730.35 2294.89C7762.8 2294.89 7795.56 2298.94 7828.63 2307.05C7862.33 2314.54 7889.79 2325.46 7911 2339.81L7872.62 2410.95C7850.16 2395.98 7826.76 2385.68 7802.42 2380.06C7778.09 2374.45 7753.75 2371.64 7729.41 2371.64C7690.1 2371.64 7660.77 2378.19 7641.43 2391.3C7622.08 2403.78 7612.41 2420 7612.41 2439.97C7612.41 2456.82 7618.03 2469.92 7629.26 2479.28C7641.12 2488.02 7656.09 2494.88 7674.19 2499.87C7692.91 2504.87 7713.5 2509.23 7735.97 2512.98C7758.43 2516.1 7780.89 2520.47 7803.36 2526.08C7825.82 2531.08 7846.1 2538.25 7864.2 2547.61C7882.92 2556.97 7897.9 2570.08 7909.13 2586.92C7920.99 2603.77 7926.91 2626.24 7926.91 2654.32C7926.91 2684.27 7918.18 2710.17 7900.71 2732.01C7883.23 2753.85 7858.58 2771.01 7826.76 2783.49C7794.93 2795.35 7756.87 2801.27 7712.56 2801.27Z" fill="black"/>
<path d="M7226.15 2294.89C7266.71 2294.89 7302.28 2302.69 7332.85 2318.29C7364.05 2333.89 7388.39 2357.6 7405.86 2389.42C7423.33 2421.25 7432.07 2461.5 7432.07 2510.17V2795.66H7342.21V2520.47C7342.21 2472.42 7330.36 2436.22 7306.64 2411.89C7283.56 2387.55 7250.79 2375.38 7208.36 2375.38C7176.54 2375.38 7148.77 2381.62 7125.06 2394.1C7101.34 2406.58 7082.93 2424.99 7069.83 2449.33C7057.35 2473.67 7051.11 2503.93 7051.11 2540.12V2795.66H6961.25V2299.57H7047.37V2433.42L7033.33 2397.85C7049.55 2365.4 7074.51 2340.13 7108.21 2322.03C7141.9 2303.93 7181.22 2294.89 7226.15 2294.89Z" fill="black"/>
<path d="M6637.1 2801.27C6584.06 2801.27 6537.26 2790.35 6496.7 2768.51C6456.76 2746.67 6425.56 2716.72 6403.1 2678.65C6381.26 2640.59 6370.34 2596.91 6370.34 2547.61C6370.34 2498.31 6380.95 2454.63 6402.16 2416.57C6424 2378.5 6453.64 2348.86 6491.08 2327.65C6529.15 2305.81 6571.89 2294.89 6619.32 2294.89C6667.37 2294.89 6709.8 2305.49 6746.62 2326.71C6783.44 2347.93 6812.14 2377.88 6832.73 2416.57C6853.95 2454.63 6864.56 2499.25 6864.56 2550.42C6864.56 2554.16 6864.25 2558.53 6863.62 2563.52C6863.62 2568.52 6863.31 2573.2 6862.69 2577.56H6440.54V2512.98H6815.88L6779.38 2535.44C6780 2503.62 6773.45 2475.23 6759.72 2450.27C6745.99 2425.3 6726.96 2405.96 6702.63 2392.23C6678.91 2377.88 6651.14 2370.7 6619.32 2370.7C6588.12 2370.7 6560.35 2377.88 6536.01 2392.23C6511.68 2405.96 6492.64 2425.62 6478.92 2451.2C6465.19 2476.16 6458.32 2504.87 6458.32 2537.32V2552.29C6458.32 2585.36 6465.81 2615 6480.79 2641.21C6496.39 2666.8 6517.92 2686.77 6545.37 2701.12C6572.83 2715.47 6604.34 2722.65 6639.91 2722.65C6669.24 2722.65 6695.76 2717.66 6719.47 2707.67C6743.81 2697.69 6765.03 2682.71 6783.12 2662.74L6832.73 2720.78C6810.27 2746.98 6782.19 2766.95 6748.49 2780.68C6715.42 2794.41 6678.29 2801.27 6637.1 2801.27Z" fill="black"/>
<path d="M6092.06 2801.27C6039.02 2801.27 5992.21 2790.35 5951.65 2768.51C5911.72 2746.67 5880.52 2716.72 5858.05 2678.65C5836.21 2640.59 5825.29 2596.91 5825.29 2547.61C5825.29 2498.31 5835.9 2454.63 5857.12 2416.57C5878.96 2378.5 5908.6 2348.86 5946.04 2327.65C5984.1 2305.81 6026.85 2294.89 6074.27 2294.89C6122.32 2294.89 6164.75 2305.49 6201.57 2326.71C6238.39 2347.93 6267.09 2377.88 6287.69 2416.57C6308.9 2454.63 6319.51 2499.25 6319.51 2550.42C6319.51 2554.16 6319.2 2558.53 6318.57 2563.52C6318.57 2568.52 6318.26 2573.2 6317.64 2577.56H5895.49V2512.98H6270.84L6234.33 2535.44C6234.96 2503.62 6228.4 2475.23 6214.68 2450.27C6200.95 2425.3 6181.92 2405.96 6157.58 2392.23C6133.87 2377.88 6106.1 2370.7 6074.27 2370.7C6043.07 2370.7 6015.3 2377.88 5990.97 2392.23C5966.63 2405.96 5947.6 2425.62 5933.87 2451.2C5920.14 2476.16 5913.28 2504.87 5913.28 2537.32V2552.29C5913.28 2585.36 5920.77 2615 5935.74 2641.21C5951.34 2666.8 5972.87 2686.77 6000.33 2701.12C6027.78 2715.47 6059.3 2722.65 6094.87 2722.65C6124.19 2722.65 6150.71 2717.66 6174.43 2707.67C6198.76 2697.69 6219.98 2682.71 6238.08 2662.74L6287.69 2720.78C6265.22 2746.98 6237.14 2766.95 6203.44 2780.68C6170.37 2794.41 6133.24 2801.27 6092.06 2801.27Z" fill="black"/>
<path d="M5526.29 2795.66V2299.57H5612.4V2434.35L5603.98 2400.66C5617.71 2366.34 5640.79 2340.13 5673.24 2322.03C5705.69 2303.93 5745.63 2294.89 5793.05 2294.89V2381.94C5789.31 2381.31 5785.57 2381 5781.82 2381C5778.7 2381 5775.58 2381 5772.46 2381C5724.41 2381 5686.35 2395.35 5658.27 2424.06C5630.19 2452.76 5616.15 2494.26 5616.15 2548.55V2795.66H5526.29Z" fill="black"/>
<path d="M5235.85 2801.27C5185.31 2801.27 5140.07 2790.35 5100.13 2768.51C5060.82 2746.67 5029.93 2716.72 5007.46 2678.65C4985 2640.59 4973.77 2596.91 4973.77 2547.61C4973.77 2498.31 4985 2454.63 5007.46 2416.57C5029.93 2378.5 5060.82 2348.86 5100.13 2327.65C5140.07 2305.81 5185.31 2294.89 5235.85 2294.89C5280.78 2294.89 5320.72 2303.93 5355.66 2322.03C5391.23 2339.5 5418.69 2365.71 5438.03 2400.66L5369.7 2444.65C5353.48 2420.31 5333.51 2402.53 5309.8 2391.3C5286.71 2379.44 5261.75 2373.51 5234.92 2373.51C5202.47 2373.51 5173.45 2380.69 5147.87 2395.04C5122.28 2409.39 5102 2429.67 5087.02 2455.88C5072.05 2481.47 5064.56 2512.04 5064.56 2547.61C5064.56 2583.18 5072.05 2614.07 5087.02 2640.28C5102 2666.49 5122.28 2686.77 5147.87 2701.12C5173.45 2715.47 5202.47 2722.65 5234.92 2722.65C5261.75 2722.65 5286.71 2717.03 5309.8 2705.8C5333.51 2693.94 5353.48 2675.85 5369.7 2651.51L5438.03 2694.57C5418.69 2728.89 5391.23 2755.41 5355.66 2774.13C5320.72 2792.23 5280.78 2801.27 5235.85 2801.27Z" fill="black"/>
<path d="M4721.06 2801.27C4679.88 2801.27 4640.56 2795.66 4603.12 2784.42C4566.31 2773.19 4537.29 2759.46 4516.07 2743.24L4553.51 2672.1C4574.73 2686.45 4600.94 2698.62 4632.14 2708.61C4663.34 2718.59 4695.16 2723.58 4727.61 2723.58C4769.42 2723.58 4799.37 2717.66 4817.47 2705.8C4836.19 2693.94 4845.55 2677.41 4845.55 2656.19C4845.55 2640.59 4839.94 2628.42 4828.7 2619.69C4817.47 2610.95 4802.49 2604.4 4783.77 2600.03C4765.68 2595.66 4745.4 2591.92 4722.93 2588.8C4700.47 2585.05 4678 2580.68 4655.54 2575.69C4633.07 2570.08 4612.48 2562.59 4593.76 2553.23C4575.04 2543.24 4560.07 2529.83 4548.83 2512.98C4537.6 2495.51 4531.98 2472.42 4531.98 2443.71C4531.98 2413.76 4540.41 2387.55 4557.26 2365.09C4574.11 2342.62 4597.82 2325.46 4628.39 2313.61C4659.6 2301.13 4696.41 2294.89 4738.85 2294.89C4771.29 2294.89 4804.05 2298.94 4837.13 2307.05C4870.82 2314.54 4898.28 2325.46 4919.5 2339.81L4881.12 2410.95C4858.66 2395.98 4835.26 2385.68 4810.92 2380.06C4786.58 2374.45 4762.25 2371.64 4737.91 2371.64C4698.6 2371.64 4669.27 2378.19 4649.92 2391.3C4630.58 2403.78 4620.91 2420 4620.91 2439.97C4620.91 2456.82 4626.52 2469.92 4637.76 2479.28C4649.61 2488.02 4664.59 2494.88 4682.68 2499.87C4701.4 2504.87 4722 2509.23 4744.46 2512.98C4766.93 2516.1 4789.39 2520.47 4811.86 2526.08C4834.32 2531.08 4854.6 2538.25 4872.7 2547.61C4891.42 2556.97 4906.39 2570.08 4917.63 2586.92C4929.48 2603.77 4935.41 2626.24 4935.41 2654.32C4935.41 2684.27 4926.67 2710.17 4909.2 2732.01C4891.73 2753.85 4867.08 2771.01 4835.26 2783.49C4803.43 2795.35 4765.37 2801.27 4721.06 2801.27Z" fill="black"/>
<path d="M7481.28 1992.93V1571.72H7581.43V1992.93H7481.28ZM7315.6 1829.12V1735.52H7747.11V1829.12H7315.6Z" fill="#FFD700"/>
<path d="M6818.08 2115.54C6776.89 2115.54 6737.58 2109.93 6700.14 2098.7C6663.32 2087.46 6634.31 2073.73 6613.09 2057.51L6650.53 1986.37C6671.75 2000.73 6697.96 2012.89 6729.16 2022.88C6760.36 2032.86 6792.18 2037.85 6824.63 2037.85C6866.44 2037.85 6896.39 2031.93 6914.49 2020.07C6933.21 2008.21 6942.57 1991.68 6942.57 1970.46C6942.57 1954.86 6936.95 1942.69 6925.72 1933.96C6914.49 1925.22 6899.51 1918.67 6880.79 1914.3C6862.7 1909.93 6842.42 1906.19 6819.95 1903.07C6797.49 1899.32 6775.02 1894.95 6752.56 1889.96C6730.09 1884.35 6709.5 1876.86 6690.78 1867.5C6672.06 1857.51 6657.08 1844.1 6645.85 1827.25C6634.62 1809.78 6629 1786.69 6629 1757.98C6629 1728.03 6637.43 1701.82 6654.27 1679.36C6671.12 1656.89 6694.84 1639.73 6725.41 1627.88C6756.61 1615.4 6793.43 1609.16 6835.86 1609.16C6868.31 1609.16 6901.07 1613.21 6934.15 1621.32C6967.84 1628.81 6995.3 1639.73 7016.52 1654.09L6978.14 1725.22C6955.67 1710.25 6932.27 1699.95 6907.94 1694.33C6883.6 1688.72 6859.26 1685.91 6834.93 1685.91C6795.61 1685.91 6766.29 1692.46 6746.94 1705.57C6727.6 1718.05 6717.92 1734.27 6717.92 1754.24C6717.92 1771.09 6723.54 1784.19 6734.77 1793.55C6746.63 1802.29 6761.61 1809.15 6779.7 1814.14C6798.42 1819.14 6819.01 1823.51 6841.48 1827.25C6863.94 1830.37 6886.41 1834.74 6908.87 1840.35C6931.34 1845.35 6951.62 1852.52 6969.71 1861.88C6988.43 1871.24 7003.41 1884.35 7014.64 1901.19C7026.5 1918.04 7032.43 1940.51 7032.43 1968.59C7032.43 1998.54 7023.69 2024.44 7006.22 2046.28C6988.75 2068.12 6964.1 2085.28 6932.27 2097.76C6900.45 2109.62 6862.38 2115.54 6818.08 2115.54Z" fill="black"/>
<path d="M6320.88 2109.93V1613.84H6407V1748.62L6398.57 1714.93C6412.3 1680.61 6435.39 1654.4 6467.84 1636.3C6500.29 1618.2 6540.23 1609.16 6587.65 1609.16V1696.21C6583.91 1695.58 6580.16 1695.27 6576.42 1695.27C6573.3 1695.27 6570.18 1695.27 6567.06 1695.27C6519.01 1695.27 6480.94 1709.62 6452.86 1738.33C6424.78 1767.03 6410.74 1808.53 6410.74 1862.82V2109.93H6320.88Z" fill="black"/>
<path d="M5967.29 2115.54C5917.36 2115.54 5873.06 2104.62 5834.37 2082.78C5795.68 2060.94 5765.1 2030.99 5742.64 1992.93C5720.18 1954.24 5708.94 1910.56 5708.94 1861.88C5708.94 1812.58 5720.18 1768.9 5742.64 1730.84C5765.1 1692.77 5795.68 1663.13 5834.37 1641.92C5873.06 1620.08 5917.36 1609.16 5967.29 1609.16C6016.58 1609.16 6060.58 1620.08 6099.26 1641.92C6138.58 1663.13 6169.15 1692.77 6190.99 1730.84C6213.46 1768.28 6224.69 1811.96 6224.69 1861.88C6224.69 1911.18 6213.46 1954.86 6190.99 1992.93C6169.15 2030.99 6138.58 2060.94 6099.26 2082.78C6060.58 2104.62 6016.58 2115.54 5967.29 2115.54ZM5967.29 2036.92C5999.11 2036.92 6027.5 2029.74 6052.46 2015.39C6078.05 2001.04 6098.02 1980.76 6112.37 1954.55C6126.72 1927.72 6133.9 1896.83 6133.9 1861.88C6133.9 1826.31 6126.72 1795.74 6112.37 1770.15C6098.02 1743.94 6078.05 1723.66 6052.46 1709.31C6027.5 1694.96 5999.11 1687.78 5967.29 1687.78C5935.46 1687.78 5907.07 1694.96 5882.11 1709.31C5857.15 1723.66 5837.18 1743.94 5822.2 1770.15C5807.23 1795.74 5799.74 1826.31 5799.74 1861.88C5799.74 1896.83 5807.23 1927.72 5822.2 1954.55C5837.18 1980.76 5857.15 2001.04 5882.11 2015.39C5907.07 2029.74 5935.46 2036.92 5967.29 2036.92Z" fill="black"/>
<path d="M5401.21 2115.54C5351.29 2115.54 5306.98 2104.62 5268.3 2082.78C5229.61 2060.94 5199.03 2030.99 5176.57 1992.93C5154.1 1954.24 5142.87 1910.56 5142.87 1861.88C5142.87 1812.58 5154.1 1768.9 5176.57 1730.84C5199.03 1692.77 5229.61 1663.13 5268.3 1641.92C5306.98 1620.08 5351.29 1609.16 5401.21 1609.16C5450.51 1609.16 5494.5 1620.08 5533.19 1641.92C5572.5 1663.13 5603.08 1692.77 5624.92 1730.84C5647.38 1768.28 5658.62 1811.96 5658.62 1861.88C5658.62 1911.18 5647.38 1954.86 5624.92 1992.93C5603.08 2030.99 5572.5 2060.94 5533.19 2082.78C5494.5 2104.62 5450.51 2115.54 5401.21 2115.54ZM5401.21 2036.92C5433.04 2036.92 5461.43 2029.74 5486.39 2015.39C5511.97 2001.04 5531.94 1980.76 5546.29 1954.55C5560.65 1927.72 5567.82 1896.83 5567.82 1861.88C5567.82 1826.31 5560.65 1795.74 5546.29 1770.15C5531.94 1743.94 5511.97 1723.66 5486.39 1709.31C5461.43 1694.96 5433.04 1687.78 5401.21 1687.78C5369.39 1687.78 5340.99 1694.96 5316.03 1709.31C5291.07 1723.66 5271.1 1743.94 5256.13 1770.15C5241.15 1795.74 5233.66 1826.31 5233.66 1861.88C5233.66 1896.83 5241.15 1927.72 5256.13 1954.55C5271.1 1980.76 5291.07 2001.04 5316.03 2015.39C5340.99 2029.74 5369.39 2036.92 5401.21 2036.92Z" fill="black"/>
<path d="M4783.77 2115.54C4735.72 2115.54 4692.67 2104.93 4654.6 2083.72C4617.16 2062.5 4587.52 2032.86 4565.68 1994.79C4543.84 1956.73 4532.92 1912.42 4532.92 1861.88C4532.92 1811.33 4543.84 1767.34 4565.68 1729.9C4587.52 1691.84 4617.16 1662.2 4654.6 1640.98C4692.67 1619.76 4735.72 1609.15 4783.77 1609.15C4825.58 1609.15 4863.34 1618.51 4897.03 1637.23C4930.73 1655.95 4957.56 1684.04 4977.53 1721.48C4998.12 1758.92 5008.42 1805.72 5008.42 1861.88C5008.42 1918.04 4998.43 1964.84 4978.47 2002.28C4959.12 2039.72 4932.6 2068.12 4898.9 2087.46C4865.21 2106.18 4826.83 2115.54 4783.77 2115.54ZM4791.26 2036.92C4822.46 2036.92 4850.54 2029.74 4875.5 2015.39C4901.09 2001.03 4921.06 1980.75 4935.41 1954.55C4950.39 1927.71 4957.87 1896.82 4957.87 1861.88C4957.87 1826.31 4950.39 1795.73 4935.41 1770.15C4921.06 1743.94 4901.09 1723.66 4875.5 1709.31C4850.54 1694.96 4822.46 1687.78 4791.26 1687.78C4759.44 1687.78 4731.04 1694.96 4706.08 1709.31C4681.12 1723.66 4661.15 1743.94 4646.18 1770.15C4631.2 1795.73 4623.71 1826.31 4623.71 1861.88C4623.71 1896.82 4631.2 1927.71 4646.18 1954.55C4661.15 1980.75 4681.12 2001.03 4706.08 2015.39C4731.04 2029.74 4759.44 2036.92 4791.26 2036.92ZM4960.68 2109.93V1976.07L4966.3 1860.94L4956.94 1745.81V1415.4H5046.8V2109.93H4960.68Z" fill="black"/>
<path d="M3385.54 2786.88V2624.36L4062.36 1805.6L4109.67 1894.06H3397.88V1688.34H4315.39V1850.85L3638.58 2669.62L3587.15 2581.16H4333.91V2786.88H3385.54Z" fill="black"/>
<path fill-rule="evenodd" clip-rule="evenodd" d="M2943.12 1688.33V2786.87H3200.27V1688.33H2943.12Z" fill="black"/>
<path d="M3072.72 1507.3C3024.72 1507.3 2984.95 1492.22 2953.4 1462.04C2923.23 1431.87 2908.14 1395.53 2908.14 1353.01C2908.14 1309.13 2923.23 1272.78 2953.4 1243.98C2984.95 1213.81 3024.72 1198.72 3072.72 1198.72C3120.72 1198.72 3159.81 1213.12 3189.98 1241.92C3221.52 1269.35 3237.29 1304.33 3237.29 1346.84C3237.29 1392.1 3222.21 1430.5 3192.04 1462.04C3161.86 1492.22 3122.09 1507.3 3072.72 1507.3Z" fill="#FFD700"/>
<path d="M2151.02 2786.87V1688.33H2395.82V1990.74L2367.02 1902.28C2399.94 1828.22 2451.37 1771.99 2521.31 1733.59C2592.63 1695.19 2681.08 1675.99 2786.69 1675.99V1920.79C2775.72 1918.05 2765.43 1916.68 2755.83 1916.68C2746.23 1915.31 2736.63 1914.62 2727.03 1914.62C2629.66 1914.62 2552.17 1943.42 2494.57 2001.03C2436.97 2057.26 2408.16 2141.6 2408.16 2254.06V2786.87H2151.02Z" fill="black"/>
<path d="M1411.36 2801.27C1318.1 2801.27 1235.13 2780.7 1162.44 2739.56C1089.75 2698.42 1032.15 2636.7 989.636 2554.41C948.492 2470.75 927.92 2365.15 927.92 2237.6C927.92 2108.69 949.178 2003.09 991.693 1920.8C1035.58 1838.51 1093.87 1777.48 1166.55 1737.71C1240.61 1696.56 1322.22 1675.99 1411.36 1675.99C1519.71 1675.99 1615.02 1699.31 1697.31 1745.94C1780.97 1792.57 1846.8 1857.71 1894.8 1941.37C1944.17 2025.03 1968.86 2123.77 1968.86 2237.6C1968.86 2351.44 1944.17 2450.18 1894.8 2533.84C1846.8 2617.5 1780.97 2683.33 1697.31 2731.33C1615.02 2777.96 1519.71 2801.27 1411.36 2801.27ZM802.432 2786.87V1260.44H1059.58V1943.43L1039.01 2235.55L1047.24 2527.67V2786.87H802.432ZM1382.56 2581.16C1444.27 2581.16 1499.13 2567.44 1547.13 2540.01C1596.51 2512.58 1635.59 2472.81 1664.39 2420.69C1693.19 2368.58 1707.6 2307.55 1707.6 2237.6C1707.6 2166.29 1693.19 2105.26 1664.39 2054.51C1635.59 2002.4 1596.51 1962.63 1547.13 1935.2C1499.13 1907.77 1444.27 1894.05 1382.56 1894.05C1320.84 1894.05 1265.3 1907.77 1215.93 1935.2C1166.55 1962.63 1127.47 2002.4 1098.67 2054.51C1069.87 2105.26 1055.47 2166.29 1055.47 2237.6C1055.47 2307.55 1069.87 2368.58 1098.67 2420.69C1127.47 2472.81 1166.55 2512.58 1215.93 2540.01C1265.3 2567.44 1320.84 2581.16 1382.56 2581.16Z" fill="black"/>
</svg>
